<?xml version="1.0" standalone="no"?>
<!DOCTYPE svg PUBLIC "-//W3C//DTD SVG 1.1//EN" "http://www.w3.org/Graphics/SVG/1.1/DTD/svg11.dtd" >
<svg>
<metadata>
Created by FontForge 20090914 at Mon Feb 10 00:26:41 2020
 By www-data
Copyright 2006, SUDTIPOS. Expanded and digitized from the Bluemlein Script collection by Alejandro Paul. All rights reserved.
</metadata>
<defs>
<font id="MissRobertson" horiz-adv-x="557" >
  <font-face 
    font-family="Miss Robertson"
    font-weight="400"
    font-stretch="normal"
    units-per-em="1000"
    panose-1="2 0 6 5 3 0 0 2 0 4"
    ascent="608"
    descent="-392"
    x-height="203"
    cap-height="735.999"
    bbox="-398 -620.997 1492 962"
    underline-thickness="50"
    underline-position="-50"
    unicode-range="U+0020-U+FB02"
  />
<missing-glyph horiz-adv-x="220" 
 />
    <glyph glyph-name=".notdef" horiz-adv-x="220" 
 />
    <glyph glyph-name="space" unicode=" " horiz-adv-x="220" 
 />
    <glyph glyph-name="space" unicode="&#xa0;" horiz-adv-x="220" 
 />
    <glyph glyph-name="exclam" unicode="!" horiz-adv-x="259" 
d="M441 589c0 -2.66699 -0.332031 -4.66895 -0.999023 -6.00195c-0.666992 -2 -7.33398 -13 -20.001 -33l-47 -75l-62.5 -100.5l-67.5 -109l-61 -100.5l-44 -76c-6 -10.667 -11 -16 -15 -16s-6 3.33301 -6 10c0 0.666992 4 8.16699 12 22.5l31.5 56l44.5 78l51 88.5
l50.5 88.5l44 77.5l31 54.5c7.66699 13.667 11.167 20.834 10.5 21.501c5.33301 11.333 10.833 19.333 16.5 24s11.167 7 16.5 7c4.66699 0 8.5 -1.16699 11.5 -3.5s4.5 -5.16602 4.5 -8.49902zM109.001 6.99805c0 -9.33301 -4.33398 -18.167 -13.001 -26.5
s-16.667 -12.5 -24 -12.5c-5.33301 0 -10.333 1.66699 -15 5s-7 8.66602 -7 15.999c0 4.66699 1.33301 9.33398 4 14.001s5.83398 9 9.50098 13s7.66699 7.16699 12 9.5s8.5 3.5 12.5 3.5c6 0 11 -2.33301 15 -7s6 -9.66699 6 -15z" />
    <glyph glyph-name="quotedbl" unicode="&#x22;" horiz-adv-x="317" 
d="M358 485c0 -4 -2.33008 -9.33203 -6.99707 -15.999l-89 -129c-4.66699 -8 -8.33398 -12 -11.001 -12c-2 0 -3.33301 1.33301 -4 4s-1 5.66699 -1 9l69 139c3.33301 3.33301 8.16602 6.16602 14.499 8.49902s12.166 3.5 17.499 3.5c7.33301 0 11 -2.33301 11 -7z
M278.003 485.001c0 -4 -2.33008 -9.33203 -6.99707 -15.999l-89 -129c-4.66699 -8 -8.33398 -12 -11.001 -12c-2 0 -3.33301 1.33301 -4 4s-1 5.66699 -1 9l69 139c3.33301 3.33301 8.16602 6.16602 14.499 8.49902s12.166 3.5 17.499 3.5c7.33301 0 11 -2.33301 11 -7z" />
    <glyph glyph-name="numbersign" unicode="#" horiz-adv-x="239" 
d="M318 289c0 -3.33301 -1.66895 -6.99609 -5.00195 -10.9961s-6.66602 -6 -9.99902 -6h-73l-17 -33l-3 -6h73c3.33301 0 5 -1.33301 5 -4c0 -3.33301 -1.66699 -7 -5 -11s-6.66602 -6 -9.99902 -6h-74l-33 -63c-2.66699 -3.33301 -4.66699 -5 -6 -5
c-3.33301 0 -5.83301 1.33301 -7.5 4s-2.5 5.66699 -2.5 9l27 55h-39l-33 -63c-2.66699 -3.33301 -4.66699 -5 -6 -5c-3.33301 0 -5.83301 1.33301 -7.5 4s-2.5 5.66699 -2.5 9l27 55h-67c-10 0 -16.5 0.166992 -19.5 0.5s-4.5 1.16602 -4.5 2.49902
c0 3.33301 1 7.16602 3 11.499s5.66699 6.5 11 6.5h88l20 39h-68c-10 0 -16.5 0.166992 -19.5 0.5s-4.5 1.16602 -4.5 2.49902c0 3.33301 1 7.16602 3 11.499s5.66699 6.5 11 6.5h89l31 57c2.66699 3.33301 4.66699 5 6 5c3.33301 0 5.83301 -1.33301 7.5 -4
s2.5 -5.66699 2.5 -9l-25 -49h39l31 57c2.66699 3.33301 4.66699 5 6 5c3.33301 0 5.83301 -1.33301 7.5 -4s2.5 -5.66699 2.5 -9l-25 -49h72c3.33301 0 5 -1.33301 5 -4zM168.998 272.004l-17 -33l-3 -6h39l20 39h-39z" />
    <glyph glyph-name="dollar" unicode="$" horiz-adv-x="274" 
d="M469 660c0 -2 -2.33789 -6.32812 -7.00488 -12.9951l-17.5 -24.5l-23 -32l-24.5 -35.5c6 -2.66699 11.667 -7.33398 17 -14.001s8 -16.667 8 -30c0 -8 -1.83301 -15.333 -5.5 -22s-8.16699 -12.5 -13.5 -17.5s-11.166 -9 -17.499 -12s-12.5 -4.5 -18.5 -4.5
c-7.33301 0 -13.333 2.16699 -18 6.5s-7 11.5 -7 21.5c0 6.66699 1.33301 14.667 4 24s7.33398 20.333 14.001 33c-23.333 0 -41.833 -8.5 -55.5 -25.5s-24.5 -39.167 -32.5 -66.5s-14 -58.5 -18 -93.5l-12.5 -106.5c-4.33301 -36 -9.66602 -71.333 -15.999 -106
s-15.833 -65.334 -28.5 -92.001h4c18 0 34.667 1.33301 50 4c2.66699 0 4.83398 -1.16699 6.50098 -3.5s2.5 -4.83301 2.5 -7.5c0 -4 -2 -6.66699 -6 -8c-7.33301 -1.33301 -15.166 -2.33301 -23.499 -3s-17.166 -1 -26.499 -1h-17c-12.667 -20.667 -28.167 -37 -46.5 -49
s-41.5 -18 -69.5 -18c-5.33301 0 -10.5 0.333008 -15.5 1s-9.83301 1.66699 -14.5 3l-19 -32.5c-6.66699 -11.667 -13.167 -22.5 -19.5 -32.5s-12.333 -18.167 -18 -24.5s-10.834 -9.5 -15.501 -9.5c-6 0 -10 1 -12 3s-3 4.33301 -3 7s2.5 7.5 7.5 14.5l18 24
c7 9 13.833 18.667 20.5 29s12 20.5 16 30.5c-21.333 10.667 -38 26.667 -50 48s-18 44.666 -18 69.999c0 3.33301 0.833008 6.16602 2.5 8.49902s5.16699 3.83301 10.5 4.5c4 0 12 -2.5 24 -7.5s27 -10.667 45 -17s38.5 -12.666 61.5 -18.999s47.5 -10.833 73.5 -13.5
c8.66699 19.333 15.167 41.666 19.5 66.999s8 52 11 80l9 85.5c3 29 7.33301 57.5 13 85.5s13.167 54.333 22.5 79s22 46.334 38 65.001c4 5.33301 9.5 10.666 16.5 15.999s14.667 10.166 23 14.499s17.166 8 26.499 11s18.333 4.83301 27 5.5l39 64
c10.667 16.667 17 26.667 19 30c4.66699 8.66699 12 13 22 13c2.66699 0 6.33398 -0.5 11.001 -1.5s7 -2.83301 7 -5.5zM391.995 496.005c0 8 -1.00098 14.834 -3.00098 20.501s-4.66699 10.167 -8 13.5c-5.33301 -9.33301 -9.66602 -17.833 -12.999 -25.5
s-5 -14.167 -5 -19.5c0 -8.66699 5 -13 15 -13c3.33301 0 6.5 2.16699 9.5 6.5s4.5 10.166 4.5 17.499zM155.994 33.0059c-19.333 1.33301 -37.999 3.33203 -55.999 5.99902s-34.333 5.66699 -49 9c-17.333 3.33301 -33.333 6.66602 -48 9.99902h-7
c-0.666992 0 -1 -0.333008 -1 -1c0 -3.33301 0.833008 -9.16602 2.5 -17.499s5.5 -16.666 11.5 -24.999s14.667 -15.833 26 -22.5s26.666 -10 45.999 -10c17.333 2 32 7.5 44 16.5s22.333 20.5 31 34.5z" />
    <glyph glyph-name="percent" unicode="%" horiz-adv-x="614" 
d="M600 263c0 -26 -6.33398 -56.167 -19.001 -90.5s-28.667 -66.666 -48 -96.999s-40.833 -56 -64.5 -77s-46.167 -31.5 -67.5 -31.5c-20 0 -34.5 6.33301 -43.5 19s-13.5 29 -13.5 49c0 26 6.33301 56.167 19 90.5s28.834 66.666 48.501 96.999s41.167 56 64.5 77
s45.666 31.5 66.999 31.5c20.667 0 35.334 -6.33301 44.001 -19s13 -29 13 -49zM564.999 588c-10 -12 -23.166 -30.3359 -39.499 -55.0029l-54 -84.5l-62 -102.5l-64.5 -110l-61.5 -106l-52 -91l-36 -65c-9 -16.667 -13.833 -26 -14.5 -28
c-2.66699 -5.33301 -6.33398 -9.5 -11.001 -12.5s-8.33398 -4.5 -11.001 -4.5c-3.33301 0 -6.83301 0.833008 -10.5 2.5s-5.5 4.5 -5.5 8.5c0 2.66699 0.333008 4.33398 1 5.00098s1 1.33398 1 2.00098c4 8 12.167 22.667 24.5 44l45 77l59 99.5l66.5 110l67 109l60 97.5
l46 74.5c12.667 20.333 21.334 33.5 26.001 39.5c0.666992 0.666992 1.66699 1.33398 3 2.00098c2.66699 1.33301 6 2 10 2c2.66699 0 5 -0.666992 7 -2c4 -2.66699 6 -6.66699 6 -12zM338 471.997c0 -26 -6.33398 -56.167 -19.001 -90.5s-28.667 -66.666 -48 -96.999
s-40.833 -56 -64.5 -77s-46.167 -31.5 -67.5 -31.5c-20 0 -34.5 6.33301 -43.5 19s-13.5 29 -13.5 49c0 26 6.33301 56.167 19 90.5s28.834 66.666 48.501 96.999s41.167 56 64.5 77s45.666 31.5 66.999 31.5c20.667 0 35.334 -6.33301 44.001 -19s13 -29 13 -49z
M571.999 256.997c0 16 -3.16699 29.001 -9.5 39.001s-16.5 15 -30.5 15c-16 0 -33.333 -9.66699 -52 -29s-35.834 -43 -51.501 -71s-28.667 -57.333 -39 -88s-15.5 -57.667 -15.5 -81c0 -16 3.16699 -29 9.5 -39s16.5 -15 30.5 -15c10.667 0 22 4.5 34 13.5
s23.833 21 35.5 36s22.834 31.833 33.501 50.5s20.167 38 28.5 58s14.833 39.667 19.5 59s7 36.666 7 51.999zM309.999 465.998c0 16 -3.16699 29.001 -9.5 39.001s-16.5 15 -30.5 15c-16 0 -33.333 -9.66699 -52 -29s-35.834 -43 -51.501 -71s-28.667 -57.333 -39 -88
s-15.5 -57.667 -15.5 -81c0 -16 3.16699 -29 9.5 -39s16.5 -15 30.5 -15c10.667 0 22 4.5 34 13.5s23.833 21 35.5 36s22.834 31.833 33.501 50.5s20.167 38 28.5 58s14.833 39.667 19.5 59s7 36.666 7 51.999z" />
    <glyph glyph-name="ampersand" unicode="&#x26;" horiz-adv-x="649" 
d="M659 112c0 -4 -2.49902 -7.66992 -7.49902 -11.0029s-8.83301 -6 -11.5 -8c-28 -22.667 -62.833 -44.834 -104.5 -66.501s-85.5 -39.167 -131.5 -52.5c4 -39.333 10 -78 18 -116c0 -3.33301 -1.83301 -6 -5.5 -8s-7.16699 -3 -10.5 -3c-5.33301 0 -8 2 -8 6
c-6.66699 38.667 -11.667 76.667 -15 114c-23.333 -6 -46.166 -10.833 -68.499 -14.5s-43.5 -5.5 -63.5 -5.5c-46 0 -78.667 6.5 -98 19.5s-29 30.167 -29 51.5c0 10.667 2.16699 22.334 6.5 35.001s10.166 26 17.499 40c-47.333 12 -95 29.667 -143 53
c-3.33301 2 -5 3.66699 -5 5c0 2.66699 2 4.83398 6 6.50098s8.66699 2.5 14 2.5c6.66699 0 12.667 -1.33301 18 -4c16.667 -9.33301 35 -17.666 55 -24.999s41.667 -14 65 -20c12.667 21.333 28.167 43.333 46.5 66s37.666 45.334 57.999 68.001l62 66l59.5 60l12.5 12
c4.33301 4 8.83301 8.66699 13.5 14c8 34 18.833 64.333 32.5 91s28.167 49.167 43.5 67.5s30.333 32.333 45 42s27 14.5 37 14.5c14 0 21 -8.33301 21 -25c0 -11.333 -5.33301 -25 -16 -41s-24 -33 -40 -51s-33.667 -36.333 -53 -55l-55 -52
c-8.66699 -42 -15.334 -86.5 -20.001 -133.5s-7 -95.5 -7 -145.5v-27c38 0.666992 76.5 3.5 115.5 8.5s77.5 12.833 115.5 23.5c8.66699 2.66699 14.834 4.66699 18.501 6s6.5 2 8.5 2s3 -3.33301 3 -10zM542.001 555.997c0 9.33301 -3.33203 14 -9.99902 14
c-5.33301 0 -12.333 -3.5 -21 -10.5s-17.834 -17 -27.501 -30s-19 -29 -28 -48s-16.5 -40.167 -22.5 -63.5l38.5 37.5c13 13 24.667 25.667 35 38s18.833 23.833 25.5 34.5s10 20 10 28zM576.002 76.9971c0 2.66699 -1 4 -3 4c-31.333 -4 -61.333 -7.16699 -90 -9.5
s-57 -3.83301 -85 -4.5l2 -37.5c0.666992 -12.333 1.66699 -24.5 3 -36.5c32 8.66699 63.167 20 93.5 34s56.833 30.667 79.5 50zM404.002 368.997l-10.002 -9.99805c-3.33301 -3.33301 -6.66602 -6.33301 -9.99902 -9l-55 -55c-19.333 -20 -38.166 -40.833 -56.499 -62.5
s-35.333 -43.5 -51 -65.5s-28.167 -43 -37.5 -63c30 -6.66699 61 -11.834 93 -15.501s65.333 -5.83398 100 -6.50098v15c0 50 2.5 97.833 7.5 143.5s11.5 88.5 19.5 128.5zM381 -12.001c-1.33301 13.333 -2.33203 26.5 -2.99902 39.5s-1 26.167 -1 39.5h-6
c-68.667 0 -133.334 6.33301 -194.001 19c-6 -14.667 -9 -29 -9 -43c0 -20.667 8.5 -37.167 25.5 -49.5s46.167 -18.5 87.5 -18.5c15.333 0 31.5 1.16699 48.5 3.5s34.167 5.5 51.5 9.5z" />
    <glyph glyph-name="quotesingle" unicode="'" horiz-adv-x="237" 
d="M278 485c0 -4 -2.33008 -9.33203 -6.99707 -15.999l-89 -129c-4.66699 -8 -8.33398 -12 -11.001 -12c-2 0 -3.33301 1.33301 -4 4s-1 5.66699 -1 9l69 139c3.33301 3.33301 8.16602 6.16602 14.499 8.49902s12.166 3.5 17.499 3.5c7.33301 0 11 -2.33301 11 -7z" />
    <glyph glyph-name="parenleft" unicode="(" horiz-adv-x="331" 
d="M598 760c-46 -11.333 -91.3311 -33.3311 -135.998 -65.998s-87.167 -71.834 -127.5 -117.501s-77.5 -95.834 -111.5 -150.501s-63.333 -109.334 -88 -164.001s-44 -107.167 -58 -157.5s-21 -94.5 -21 -132.5c0 -34.667 6.33301 -62.334 19 -83.001s33.334 -31 62.001 -31
c6 0 9 -2 9 -6c0 -2 -1.33301 -4 -4 -6s-6.66699 -3 -12 -3c-37.333 0 -64.333 12.167 -81 36.5s-25 56.5 -25 96.5c0 40.667 7.66699 87.167 23 139.5s36.166 106.5 62.499 162.5s57.5 111.5 93.5 166.5s74.667 105.333 116 151s84.666 84.334 129.999 116.001
s90.333 52.167 135 61.5c4 0 6.83301 -0.666992 8.5 -2s3.16699 -2.66602 4.5 -3.99902c1.33301 -2 1.66602 -4.33301 0.999023 -7z" />
    <glyph glyph-name="parenright" unicode=")" horiz-adv-x="331" 
d="M478 640c0 -40.667 -7.66895 -87.1689 -23.002 -139.502s-36.166 -106.5 -62.499 -162.5s-57.5 -111.5 -93.5 -166.5s-74.667 -105.333 -116 -151s-84.666 -84.334 -129.999 -116.001s-90.333 -52.167 -135 -61.5c-4 0 -6.83301 0.666992 -8.5 2
s-3.16699 2.66602 -4.5 3.99902c-1.33301 2 -1.66602 4.33301 -0.999023 7c46 11.333 91.333 33.333 136 66s87.167 71.834 127.5 117.501s77.5 95.834 111.5 150.501s63.333 109.334 88 164.001s44 107.167 58 157.5s21 94.5 21 132.5c0 34.667 -6.33301 62.334 -19 83.001
s-33.334 31 -62.001 31c-6 0 -9 2 -9 6c0 2 1.33301 4 4 6s6.66699 3 12 3c37.333 0 64.333 -12.167 81 -36.5s25 -56.5 25 -96.5z" />
    <glyph glyph-name="asterisk" unicode="*" horiz-adv-x="363" 
d="M264 442c0 -8 -5.66797 -12.0029 -17.001 -12.0029h-1.5c-1 0 -3.33301 0.5 -7 1.5s-9.5 2.33301 -17.5 4s-19.333 3.83398 -34 6.50098l17 -25c4 -6 7 -10.667 9 -14s3.16699 -5.66602 3.5 -6.99902s0.5 -2.66602 0.5 -3.99902c0 -7.33301 -4.66699 -11 -14 -11
c-5.33301 0 -9.66602 3.66699 -12.999 11l-19 44l-28 -44c-1.33301 -0.666992 -2.66602 -1.66699 -3.99902 -3c-2.66699 -2.66699 -5.66699 -4 -9 -4s-6.16602 1.33301 -8.49902 4s-3.5 5.33398 -3.5 8.00098c0 3.33301 0.666992 6 2 8l40 41l-65 5
c0.666992 0 -1.5 0.666992 -6.5 2s-7.5 4.33301 -7.5 9c0 3.33301 1.5 6.16602 4.5 8.49902s6.5 3.5 10.5 3.5l61 -14c-6.66699 11.333 -12.167 20.333 -16.5 27l-10 15c-2.33301 3.33301 -3.83301 5.66602 -4.5 6.99902s-1 2.33301 -1 3c0 6 4.33301 9.66699 13 11
c3.33301 0 6.33301 -1 9 -3s4.66699 -4 6 -6l21 -49l29 46l4 4c2 2 5 3 9 3c3.33301 0 6.16602 -1.16699 8.49902 -3.5s3.5 -5.16602 3.5 -8.49902c0 -0.666992 -0.166992 -1.5 -0.5 -2.5s-1.83301 -3.16699 -4.5 -6.5s-6.83398 -8 -12.501 -14l-24.5 -26l64 -4
c2 0 4.33301 -0.666992 7 -2c4.66699 -2 7 -5 7 -9z" />
    <glyph glyph-name="plus" unicode="+" horiz-adv-x="209" 
d="M261 256c0 -3.33301 -1.66797 -6.99805 -5.00098 -10.998s-6.66602 -6 -9.99902 -6h-94l-47 -90c-2.66699 -3.33301 -4.66699 -5 -6 -5c-3.33301 0 -5.83301 1.33301 -7.5 4s-2.5 5.66699 -2.5 9l41 82h-68c-10 0 -16.5 0.166992 -19.5 0.5s-4.5 1.16602 -4.5 2.49902
c0 3.33301 1 7.16602 3 11.499s5.66699 6.5 11 6.5h92l45 90c2.66699 3.33301 4.66699 5 6 5c3.33301 0 5.83301 -1.33301 7.5 -4s2.5 -5.66699 2.5 -9l-41 -82h92c3.33301 0 5 -1.33301 5 -4z" />
    <glyph glyph-name="comma" unicode="," horiz-adv-x="237" 
d="M144 20c0 -11.333 -3.83203 -23.3311 -11.499 -35.998s-18.667 -24.334 -33 -35.001s-31.333 -19.5 -51 -26.5s-41.5 -10.5 -65.5 -10.5c-4.66699 3.33301 -7 6.33301 -7 9c0 1.33301 6.16699 2.66602 18.5 3.99902s26 4.16602 41 8.49902s28.667 11.333 41 21
s18.5 23.834 18.5 42.501c0 4 -0.5 7.5 -1.5 10.5s-1.5 6.16699 -1.5 9.5c0 7.33301 2.66699 13.333 8 18s10.666 7 15.999 7c13.333 0 21.333 -2.83301 24 -8.5s4 -10.167 4 -13.5z" />
    <glyph glyph-name="hyphen" unicode="-" horiz-adv-x="396" 
d="M330 96c0 -3.33301 -1.66797 -6.99805 -5.00098 -10.998s-6.66602 -6 -9.99902 -6h-187c-10 0 -16.5 0.166992 -19.5 0.5s-4.5 1.16602 -4.5 2.49902c0 3.33301 1 7.16602 3 11.499s5.66699 6.5 11 6.5h207c3.33301 0 5 -1.33301 5 -4z" />
    <glyph glyph-name="period" unicode="." horiz-adv-x="234" 
d="M139 7c0 -9.33301 -4.33398 -18.167 -13.001 -26.5s-16.667 -12.5 -24 -12.5c-5.33301 0 -10.333 1.66699 -15 5s-7 8.66602 -7 15.999c0 4.66699 1.33301 9.33398 4 14.001s5.83398 9 9.50098 13s7.66699 7.16699 12 9.5s8.5 3.5 12.5 3.5c6 0 11 -2.33301 15 -7
s6 -9.66699 6 -15z" />
    <glyph glyph-name="slash" unicode="/" horiz-adv-x="470" 
d="M643 872c-10 -12 -25.3301 -34.3359 -45.9971 -67.0029l-71.5 -116.5l-87.5 -148l-93.5 -162l-90 -158l-77 -136.5l-54 -97.5c-13.667 -25 -20.834 -38.5 -21.501 -40.5c-2.66699 -5.33301 -6.33398 -9.5 -11.001 -12.5s-8.33398 -4.5 -11.001 -4.5
c-3.33301 0 -6.83301 0.833008 -10.5 2.5s-5.5 4.5 -5.5 8.5c0 2.66699 0.333008 4.33398 1 5.00098s1 1.33398 1 2.00098c4 8 14.333 26.667 31 56l63 109l84.5 145l95 162.5l95.5 161.5l85.5 143l64 106.5c17 28.333 27.833 45.5 32.5 51.5
c0.666992 0.666992 1.66699 1.33398 3 2.00098c2.66699 1.33301 6 2 10 2c2.66699 0 5 -0.666992 7 -2c4 -2.66699 6 -6.66699 6 -12z" />
    <glyph glyph-name="zero" unicode="0" horiz-adv-x="323" 
d="M414 497c0 -26 -5.83301 -57 -17.5 -93s-27 -73.5 -46 -112.5s-40.667 -77.833 -65 -116.5s-49.166 -73.167 -74.499 -103.5s-50.333 -55 -75 -74s-46.667 -28.5 -66 -28.5s-33.166 6 -41.499 18s-12.5 28.333 -12.5 49c0 26 5.83301 57 17.5 93s27 73.5 46 112.5
s40.667 77.833 65 116.5s49.166 73.167 74.499 103.5s50.333 55 75 74s46.667 28.5 66 28.5s33.166 -6 41.499 -18s12.5 -28.333 12.5 -49zM381 495c0 15.333 -2.83301 27.333 -8.5 36s-14.5 13 -26.5 13c-14.667 0 -32.167 -9.33301 -52.5 -28s-41.5 -43 -63.5 -73
s-43.833 -63.667 -65.5 -101s-41 -74.666 -58 -111.999s-30.667 -72.833 -41 -106.5s-15.5 -61.834 -15.5 -84.501c0 -15.333 2.83301 -27.333 8.5 -36s14.5 -13 26.5 -13c14.667 0 32.167 9.33301 52.5 28s41.5 43 63.5 73s43.833 63.667 65.5 101s41 74.666 58 111.999
s30.667 72.833 41 106.5s15.5 61.834 15.5 84.501z" />
    <glyph glyph-name="one" unicode="1" horiz-adv-x="261" 
d="M379 547c-13.333 -16 -30.665 -40.668 -51.998 -74.001l-68 -110l-72.5 -124l-66.5 -117.5l-49.5 -89.5c-13 -24 -19.833 -37.333 -20.5 -40c-2.66699 -5.33301 -6.33398 -9.5 -11.001 -12.5s-8.33398 -4.5 -11.001 -4.5c-3.33301 0 -6.83301 0.833008 -10.5 2.5
s-5.5 4.5 -5.5 8.5c0 2.66699 0.333008 4.33398 1 5.00098s1 1.33398 1 2.00098l31.5 57l55 96.5l67.5 115.5l68 114.5l56.5 93c16.333 26.333 27.5 43.5 33.5 51.5c-12 -8.66699 -25 -17.334 -39 -26.001l-38 -24l-40 -23c-2.66699 -1.33301 -5 -2 -7 -2c-6 0 -9 3 -9 9
c0 3.33301 1.33301 7 4 11s6.66699 6.66699 12 8c15.333 6.66699 31.333 14 48 22c14 7.33301 29.5 16.166 46.5 26.499s33.5 21.833 49.5 34.5c0.666992 0.666992 1.66699 1.33398 3 2.00098c2.66699 1.33301 6 2 10 2c2.66699 0 5 -0.666992 7 -2
c4 -2.66699 6 -6.66699 6 -12z" />
    <glyph glyph-name="two" unicode="2" horiz-adv-x="279" 
d="M363 507c0 -20.667 -5.99609 -45.8359 -17.9961 -75.5029s-27.833 -61 -47.5 -94s-42.667 -66.333 -69 -100s-53.833 -65.5 -82.5 -95.5s-57.667 -56.667 -87 -80s-57.333 -40.666 -84 -51.999h1c2.66699 0 9.66699 1 21 3s24.666 4 39.999 6s32 4 50 6s35 3 51 3
c20.667 0 38 -2 52 -6s21 -11.667 21 -23c0 -8.66699 -2.33301 -13 -7 -13h-3c-13.333 3.33301 -27.5 6 -42.5 8s-32.167 3 -51.5 3c-22 0 -47.333 -1.33301 -76 -4s-62.334 -6.66699 -101.001 -12h-2c-5.33301 0 -8 4 -8 12c0 4.66699 0.333008 8.66699 1 12
c25.333 3.33301 52.833 15 82.5 35s59.5 45 89.5 75s59 63.167 87 99.5s52.833 72.5 74.5 108.5s39 70 52 102s19.5 58.333 19.5 79c0 20 -6 33 -18 39c-8.66699 -17.333 -18.667 -32.833 -30 -46.5s-22.833 -25.167 -34.5 -34.5s-22.834 -16.5 -33.501 -21.5
s-20 -7.5 -28 -7.5c-13.333 0 -20 6 -20 18c0 14 4.66699 27.5 14 40.5s20.833 24.5 34.5 34.5s28.667 18.333 45 25s31.5 10.334 45.5 11.001c1.33301 2 2.16602 4 2.49902 6s1.16602 4.33301 2.49902 7c0.666992 2 1.66699 4.33301 3 7
c2.66699 4.66699 5.33398 7 8.00098 7c4 -0.666992 6 -3 6 -7c0 -3.33301 -1 -7.66602 -3 -12.999l-4 -8c16 -1.33301 27.833 -6.83301 35.5 -16.5s11.5 -22.167 11.5 -37.5zM294.004 546.998c-2 0.666992 -4.66699 0.999023 -8 0.999023c-10 0 -21 -2.5 -33 -7.5
s-23.167 -11.5 -33.5 -19.5s-18.833 -17.167 -25.5 -27.5s-10 -20.833 -10 -31.5c0 -5.33301 3.33301 -8 10 -8c5.33301 0 12 2 20 6s16.5 9.83301 25.5 17.5s18.333 17.334 28 29.001s18.5 25.167 26.5 40.5z" />
    <glyph glyph-name="three" unicode="3" horiz-adv-x="246" 
d="M366 527c0 -14 -5.83398 -30.334 -17.501 -49.001s-26.5 -37.667 -44.5 -57s-37.667 -37.833 -59 -55.5s-42 -32.167 -62 -43.5c21.333 -11.333 36.833 -23.833 46.5 -37.5s14.5 -28.167 14.5 -43.5c0 -18.667 -5.66699 -37.834 -17 -57.501s-26 -39.167 -44 -58.5
s-38.5 -37.833 -61.5 -55.5s-46.167 -33.5 -69.5 -47.5s-46 -25.833 -68 -35.5s-41 -16.167 -57 -19.5c-0.666992 0.666992 -1.66699 1.33398 -3 2.00098c-2 0.666992 -3 2.33398 -3 5.00098c0 2 2.33301 4 7 6c28 10.667 58 25.334 90 44.001s61.5 39.5 88.5 62.5
s49.333 47 67 72s26.5 49.167 26.5 72.5c0 16 -5.16699 31 -15.5 45s-27.166 26.667 -50.499 38c-0.666992 2 1.83301 5.33301 7.5 10s12.167 8 19.5 10c4.66699 1.33301 12.334 5.66602 23.001 12.999s22.334 16.333 35.001 27s25.667 22.667 39 36
s25.666 26.666 36.999 39.999s20.5 26.166 27.5 38.499s10.5 23.166 10.5 32.499c0 12 -6.66699 20 -20 24c-8.66699 -18 -18.667 -33.833 -30 -47.5s-23 -25.334 -35 -35.001s-23.333 -17 -34 -22s-20 -7.5 -28 -7.5c-13.333 0 -20 6 -20 18c0 14 4.66699 27.5 14 40.5
s20.833 24.5 34.5 34.5s28.667 18.333 45 25s31.5 10.334 45.5 11.001c1.33301 2 2.16602 4 2.49902 6s1.16602 4.33301 2.49902 7c0.666992 2 1.66699 4.33301 3 7c2.66699 4.66699 5.33398 7 8.00098 7c4 -0.666992 6 -3 6 -7c0 -2.66699 -0.5 -5.16699 -1.5 -7.5
s-1.83301 -4.16602 -2.5 -5.49902c-0.666992 -2 -1.66699 -4.33301 -3 -7c16 -1.33301 27.667 -5.16602 35 -11.499s11 -14.166 11 -23.499zM289.999 547.999c-10 0 -21 -2.5 -33 -7.5s-23.167 -11.5 -33.5 -19.5s-18.833 -17.167 -25.5 -27.5s-10 -20.833 -10 -31.5
c0 -5.33301 3.33301 -8 10 -8c10 0 25.167 7.83301 45.5 23.5s38.5 39.167 54.5 70.5h-8z" />
    <glyph glyph-name="four" unicode="4" horiz-adv-x="292" 
d="M424 549c0 -2.66699 -5.49902 -13.168 -16.499 -31.501l-41 -67l-53 -85l-52.5 -86.5c6.66699 0.666992 12.834 1 18.501 1h14.5c13.333 0 25.5 -2.16699 36.5 -6.5s16.5 -10.166 16.5 -17.499c0 -5.33301 -0.666992 -8.83301 -2 -10.5s-4.33301 -2.5 -9 -2.5
s-12 1.5 -22 4.5s-27.667 4.5 -53 4.5h-16c-7.33301 -12.667 -17 -31 -29 -55l-37 -76l-35 -76.5c-10.667 -24.333 -18.667 -43.166 -24 -56.499c-2 -3.33301 -4.66699 -6 -8 -8s-6.66602 -3 -9.99902 -3c-10 0 -15 4.33301 -15 13c0 2 4.66699 13.333 14 34
s20.833 44.667 34.5 72l43.5 84c15.333 28.667 28.666 52.334 39.999 71.001c-16.667 -1.33301 -34.334 -3 -53.001 -5l-52.5 -5.5c-16.333 -1.66699 -30 -3.16699 -41 -4.5s-17.5 -2 -19.5 -2c-4.66699 0 -7.83398 1.66699 -9.50098 5s-2.5 6.66602 -2.5 9.99902
s0.666992 6.33301 2 9l2 4c30.667 22 62.834 48.333 96.501 79l97 90l83 79.5c24.333 23.667 42.166 39.834 53.499 48.501c2 1.33301 4.33301 2.66602 7 3.99902c5.33301 2.66699 10 4 14 4c5.33301 0 11.333 -1.83301 18 -5.5s10 -7.83398 10 -12.501zM384.001 527.999
c0 2 -0.999023 3 -2.99902 3h-4c-0.666992 0 -1.33398 -0.333008 -2.00098 -1c-16 -12 -33.167 -27 -51.5 -45l-60 -60l-71 -71.5c-25.667 -25.667 -54.5 -52.167 -86.5 -79.5c-4.66699 -2 -7 -4.66699 -7 -8c0 -2.66699 3 -4 9 -4c8.66699 2 25.5 4.5 50.5 7.5
s50.833 5.83301 77.5 8.5l148 250v0z" />
    <glyph glyph-name="five" unicode="5" horiz-adv-x="245" 
d="M387 533c0 -7.33301 -5.49902 -13.1699 -16.499 -17.5029s-23.167 -6.5 -36.5 -6.5c-24.667 0 -45.5 1.33301 -62.5 4s-32.5 6.66699 -46.5 12c-3.33301 0 -6.33301 -1.33301 -9 -4c-1.33301 -1.33301 -2.33301 -2.66602 -3 -3.99902
c-5.33301 -19.333 -13.166 -39.5 -23.499 -60.5s-20.833 -40.5 -31.5 -58.5c-12 -21.333 -25 -42 -39 -62c40 16.667 70.667 25 92 25c23.333 0 40.333 -5.16699 51 -15.5s16 -24.166 16 -41.499s-4.5 -37 -13.5 -59s-21.5 -44.667 -37.5 -68s-34.5 -46.5 -55.5 -69.5
s-43.833 -44.167 -68.5 -63.5s-50.167 -35.833 -76.5 -49.5s-52.5 -22.834 -78.5 -27.501c-0.666992 0.666992 -1.66699 1.33398 -3 2.00098c-2 0.666992 -3 2.33398 -3 5.00098c0 2 2.33301 4 7 6c22.667 6.66699 45.5 17.167 68.5 31.5s45.167 30.833 66.5 49.5
s41.333 38.5 60 59.5s34.834 41.833 48.501 62.5s24.5 40.5 32.5 59.5s12 35.5 12 49.5c0 12.667 -3.66699 22.667 -11 30s-18.666 11 -33.999 11c-8 0 -18.333 -1.5 -31 -4.5s-28.667 -7.16699 -48 -12.5c-3.33301 -1.33301 -6.83301 -2.33301 -10.5 -3
s-7.83398 -1.66699 -12.501 -3c-3.33301 0 -6.83301 0.333008 -10.5 1s-5.5 2.66699 -5.5 6c0 2.66699 2 5.66699 6 9c11.333 14 23.666 32.833 36.999 56.5s25.666 47.167 36.999 70.5l41 86c0 3.33301 1.5 6.5 4.5 9.5s7.16699 4.5 12.5 4.5c4 0 12.333 -2.66699 25 -8
s34 -8 64 -8c25.333 0 43.166 1.66699 53.499 5s17.5 5 21.5 5c7.33301 0 11 -4.66699 11 -14z" />
    <glyph glyph-name="six" unicode="6" horiz-adv-x="271" 
d="M394 559c0 -5.33301 -2.16504 -10.832 -6.49805 -16.499s-7.5 -8.5 -9.5 -8.5c-23.333 0 -49.333 -11.5 -78 -34.5s-57.167 -52.333 -85.5 -88s-55 -74.834 -80 -117.501s-45.5 -83.667 -61.5 -123c12 16.667 27 34.167 45 52.5s36.167 35.333 54.5 51
s36.166 28.667 53.499 39s31.666 15.5 42.999 15.5c17.333 0 26 -11.667 26 -35c0 -15.333 -3.5 -34 -10.5 -56s-16.5 -45 -28.5 -69s-25.833 -48 -41.5 -72s-32 -45.5 -49 -64.5s-34 -34.5 -51 -46.5s-33.167 -18 -48.5 -18c-20.667 0 -35.5 5.83301 -44.5 17.5
s-13.5 27.834 -13.5 48.501c0 26 6.5 57.167 19.5 93.5s29.833 74.166 50.5 113.499s44.5 78.5 71.5 117.5s54.5 73.833 82.5 104.5s55.5 55.5 82.5 74.5s50.833 28.5 71.5 28.5c5.33301 0 8 -2.33301 8 -7zM261.002 276.001c0 16 -5.33203 23.998 -15.999 23.998
c-10 0 -23.833 -6.33301 -41.5 -19s-36 -28.167 -55 -46.5s-37.167 -37.5 -54.5 -57.5s-30 -37.333 -38 -52c-10 -30 -15 -56 -15 -78c0 -16 3.16699 -28.667 9.5 -38s16.833 -14 31.5 -14c12 0 24.667 5.33301 38 16s26.5 24.334 39.5 41.001s25.667 35.5 38 56.5
s23.166 41.833 32.499 62.5s16.833 40.334 22.5 59.001s8.5 34 8.5 46z" />
    <glyph glyph-name="seven" unicode="7" horiz-adv-x="261" 
d="M393 534c0 -6.66699 -2.33105 -13.002 -6.99805 -19.002c-2.66699 -2.66699 -5 -5.33398 -7 -8.00098c-32.667 -32 -63.334 -68.167 -92.001 -108.5s-56.667 -84.5 -84 -132.5c16.667 0 32.334 0.333008 47.001 1s26.334 1 35.001 1c4 0 6 -2.66699 6 -8v-9
c0 -3.33301 -2.5 -5.66602 -7.5 -6.99902s-10.833 -2 -17.5 -2h-7.5c-3 0 -7.16699 0.166992 -12.5 0.5s-12.333 0.5 -21 0.5h-35l-64 -122l-64 -129c-2.66699 -5.33301 -7 -9.5 -13 -12.5s-10.333 -4.5 -13 -4.5c-7.33301 0 -11 3.33301 -11 10
c0 0.666992 0.166992 1.33398 0.5 2.00098s0.5 1.33398 0.5 2.00098v1l69 132.5c22 42.333 44 82.5 66 120.5c-16 0.666992 -30.5 1 -43.5 1s-23.167 0.333008 -30.5 1c-2 0 -3 1.66699 -3 5c0 2 1.5 4.83301 4.5 8.5s6.16699 5.5 9.5 5.5c4 0 13.167 0.166992 27.5 0.5
s30.5 0.833008 48.5 1.5c30 50 59.667 95.667 89 137s60 78 92 110c-16.667 -7.33301 -34.834 -13.333 -54.501 -18s-39.834 -7 -60.501 -7c-30.667 0 -54 3.5 -70 10.5s-24 20.833 -24 41.5c0 2 0.666992 4.33301 2 7c2.66699 4.66699 7.33398 7 14.001 7
c5.33301 -7.33301 15.833 -15.5 31.5 -24.5s38.5 -13.5 68.5 -13.5c21.333 0 43.166 2.33301 65.499 7s42.166 12.667 59.499 24c4 -4 6 -8.33301 6 -13z" />
    <glyph glyph-name="eight" unicode="8" horiz-adv-x="256" 
d="M386 530c0 -10.667 -4.16602 -23.668 -12.499 -39.001s-19.5 -32.166 -33.5 -50.499s-30.167 -38.166 -48.5 -59.499l-57.5 -65c-0.666992 -6 -1 -12 -1 -18v-19c0 -56 -6.83301 -103.833 -20.5 -143.5s-30.5 -72.334 -50.5 -98.001s-41.333 -44.334 -64 -56.001
s-42.667 -17.5 -60 -17.5c-14 0 -25.333 3.33301 -34 10s-13 16.667 -13 30c0 15.333 6.16699 34 18.5 56s27.5 45 45.5 69s37 47.333 57 70l52 59c5.33301 5.33301 10.5 10.833 15.5 16.5l15.5 17.5c2 36 6.66699 70.333 14 103s17.666 61.334 30.999 86.001
s29.5 44.167 48.5 58.5s40.833 21.5 65.5 21.5c9.33301 0 17 -2.5 23 -7.5s9 -12.833 9 -23.5zM343.001 504.999c0 20 -6.66602 30 -19.999 30c-12 0 -22.833 -5 -32.5 -15s-18.334 -24 -26.001 -42s-14 -39 -19 -63s-8.5 -50 -10.5 -78c30 34.667 55.5 66.667 76.5 96
s31.5 53.333 31.5 72zM194.002 272.999l-64.5 -72c-21 -24 -39.5 -47 -55.5 -69s-28.833 -43 -38.5 -63s-14.5 -38.333 -14.5 -55c0 -10.667 2.66699 -18.667 8 -24s12.333 -8 21 -8c12 0 26.333 5.5 43 16.5s32.5 28 47.5 51s27.667 51.833 38 86.5s15.5 75.667 15.5 123
v14z" />
    <glyph glyph-name="nine" unicode="9" horiz-adv-x="271" 
d="M451 543c0 -3.33301 -2.33398 -7.33691 -7.00098 -12.0039l-21 -21c-18 -18 -37.333 -41 -58 -69s-41.5 -58.5 -62.5 -91.5l-62.5 -102.5l-59 -102l-51 -90.5l-38 -67.5c-2.66699 -5.33301 -5.66699 -9 -9 -11s-6.33301 -3 -9 -3c-3.33301 0 -6.83301 0.833008 -10.5 2.5
s-5.5 4.5 -5.5 8.5c0 2.66699 0.333008 4.33398 1 5.00098s1 1.33398 1 2.00098c15.333 21.333 32.333 48.333 51 81l60.5 106l68.5 118c24 40.667 48.667 80 74 118l-44 -35.5c-17.333 -13.667 -35.5 -26.5 -54.5 -38.5s-38 -22.333 -57 -31s-36.167 -13 -51.5 -13
c-18.667 0 -28 8.66699 -28 26c0 8.66699 4.16699 20.334 12.5 35.001s20 30.5 35 47.5s33.167 34.333 54.5 52s44.833 33.834 70.5 48.501s53.334 26.5 83.001 35.5s60.167 13.5 91.5 13.5c7.33301 0 13.333 -0.833008 18 -2.5s7 -4.5 7 -8.5zM403.999 534.996
c0 2.66699 -2.66895 3.99805 -8.00195 3.99805c-18 0 -37.333 -3.66699 -58 -11s-41.167 -17 -61.5 -29s-39.666 -25.333 -57.999 -40s-34.666 -29.167 -48.999 -43.5s-25.666 -27.833 -33.999 -40.5s-12.5 -22.667 -12.5 -30c0 -11.333 7.33301 -17 22 -17
c10 0 23.167 4.16699 39.5 12.5s33.666 18.5 51.999 30.5s36.5 24.833 54.5 38.5s33.333 25.834 46 36.501l31.5 43.5c10.333 13.667 20.833 26.834 31.5 39.501l3 3c0.666992 0.666992 1 1.66699 1 3z" />
    <glyph glyph-name="colon" unicode=":" horiz-adv-x="280" 
d="M246 239c0 -9.33301 -4.33398 -18.167 -13.001 -26.5s-16.667 -12.5 -24 -12.5c-5.33301 0 -10.333 1.66699 -15 5s-7 8.66602 -7 15.999c0 4.66699 1.33301 9.33398 4 14.001s5.83398 9 9.50098 13s7.66699 7.16699 12 9.5s8.5 3.5 12.5 3.5c6 0 11 -2.33301 15 -7
s6 -9.66699 6 -15zM138.999 6.99902c0 -9.33301 -4.33398 -18.167 -13.001 -26.5s-16.667 -12.5 -24 -12.5c-5.33301 0 -10.333 1.66699 -15 5s-7 8.66602 -7 15.999c0 4.66699 1.33301 9.33398 4 14.001s5.83398 9 9.50098 13s7.66699 7.16699 12 9.5s8.5 3.5 12.5 3.5
c6 0 11 -2.33301 15 -7s6 -9.66699 6 -15z" />
    <glyph glyph-name="semicolon" unicode=";" horiz-adv-x="280" 
d="M246 239c0 -9.33301 -4.33398 -18.167 -13.001 -26.5s-16.667 -12.5 -24 -12.5c-5.33301 0 -10.333 1.66699 -15 5s-7 8.66602 -7 15.999c0 4.66699 1.33301 9.33398 4 14.001s5.83398 9 9.50098 13s7.66699 7.16699 12 9.5s8.5 3.5 12.5 3.5c6 0 11 -2.33301 15 -7
s6 -9.66699 6 -15zM143.999 19.999c0 -11.333 -3.83203 -23.3311 -11.499 -35.998s-18.667 -24.334 -33 -35.001s-31.333 -19.5 -51 -26.5s-41.5 -10.5 -65.5 -10.5c-4.66699 3.33301 -7 6.33301 -7 9c0 1.33301 6.16699 2.66602 18.5 3.99902s26 4.16602 41 8.49902
s28.667 11.333 41 21s18.5 23.834 18.5 42.501c0 4 -0.5 7.5 -1.5 10.5s-1.5 6.16699 -1.5 9.5c0 7.33301 2.66699 13.333 8 18s10.666 7 15.999 7c13.333 0 21.333 -2.83301 24 -8.5s4 -10.167 4 -13.5z" />
    <glyph glyph-name="equal" unicode="=" horiz-adv-x="240" 
d="M292 286c0 -3.33301 -1.66797 -6.99805 -5.00098 -10.998s-6.66602 -6 -9.99902 -6h-184c-10 0 -16.5 0.166992 -19.5 0.5s-4.5 1.16602 -4.5 2.49902c0 3.33301 1 7.16602 3 11.499s5.66699 6.5 11 6.5h204c3.33301 0 5 -1.33301 5 -4zM260.999 227.002
c0 -3.33301 -1.66797 -6.99805 -5.00098 -10.998s-6.66602 -6 -9.99902 -6h-184c-10 0 -16.5 0.166992 -19.5 0.5s-4.5 1.16602 -4.5 2.49902c0 3.33301 1 7.16602 3 11.499s5.66699 6.5 11 6.5h204c3.33301 0 5 -1.33301 5 -4z" />
    <glyph glyph-name="question" unicode="?" horiz-adv-x="337" 
d="M444 528c0 -21.333 -7.50195 -43.1699 -22.502 -65.5029s-33.667 -44.833 -56 -67.5s-47 -45.667 -74 -69s-52.333 -47.166 -76 -71.499s-44.167 -48.833 -61.5 -73.5s-27.666 -50 -30.999 -76l-7 -7c-4.66699 -4.66699 -8.66699 -7 -12 -7c-4 0 -6 4 -6 12
c0 20.667 7.5 42.167 22.5 64.5s33.833 45.333 56.5 69s47.334 47.5 74.001 71.5s51.334 48.167 74.001 72.5s41.5 48.333 56.5 72s22.5 46.5 22.5 68.5c0 11.333 -2 20 -6 26s-8.66699 10.667 -14 14c-8.66699 -16.667 -18.5 -31.667 -29.5 -45
s-22.167 -24.666 -33.5 -33.999s-22.333 -16.333 -33 -21s-20 -7 -28 -7c-13.333 0 -20 6 -20 18c0 14 4.66699 27.5 14 40.5s20.833 24.5 34.5 34.5s28.667 18.333 45 25s31.5 10.334 45.5 11.001c1.33301 2 2.16602 4 2.49902 6s1.16602 4.33301 2.49902 7
c0.666992 2 1.66699 4.33301 3 7c2.66699 4.66699 5.33398 7 8.00098 7c4 -0.666992 6 -3 6 -7c0 -4.66699 -1 -9 -3 -13l-4 -8c33.333 -3.33301 50 -21.333 50 -54zM108.998 6.99609c0 -9.33301 -4.33398 -18.167 -13.001 -26.5s-16.667 -12.5 -24 -12.5
c-5.33301 0 -10.333 1.66699 -15 5s-7 8.66602 -7 15.999c0 4.66699 1.33301 9.33398 4 14.001s5.83398 9 9.50098 13s7.66699 7.16699 12 9.5s8.5 3.5 12.5 3.5c6 0 11 -2.33301 15 -7s6 -9.66699 6 -15zM370.997 566.995
c-1.33301 0.666992 -2.99902 0.998047 -4.99902 0.998047c-0.666992 0 -1.33398 0.333008 -2.00098 1c-10 0 -21 -2.5 -33 -7.5s-23.167 -11.5 -33.5 -19.5s-18.833 -17.167 -25.5 -27.5s-10 -20.833 -10 -31.5c0 -5.33301 3.33301 -8 10 -8c5.33301 0 12 1.83301 20 5.5
s16.5 9.33398 25.5 17.001s18.167 17.334 27.5 29.001s18 25.167 26 40.5z" />
    <glyph glyph-name="at" unicode="@" horiz-adv-x="546" 
d="M486 182c0 -22.667 -5.66406 -46.6709 -16.9971 -72.0039s-26.5 -48.666 -45.5 -69.999s-40.667 -38.833 -65 -52.5s-49.5 -20.5 -75.5 -20.5c-28.667 0 -43 13.667 -43 41c0 16.667 5.66699 36.334 17 59.001l-42 -34c-15.333 -12 -30.833 -23.333 -46.5 -34
s-30.834 -19.5 -45.501 -26.5s-27.334 -10.5 -38.001 -10.5c-16.667 0 -25 8.66699 -25 26c0 13.333 5.66699 30.333 17 51s27.833 41.834 49.5 63.501s48 42.167 79 61.5s66.5 34.666 106.5 45.999c5.33301 1.33301 14.333 3.33301 27 6s24.667 4 36 4
c6.66699 0 12.167 -0.833008 16.5 -2.5s6.5 -4.5 6.5 -8.5c0 -3.33301 -1.83301 -7.66602 -5.5 -12.999s-10.167 -12 -19.5 -20c-6.66699 -6 -16 -15.833 -28 -29.5s-23.5 -28.5 -34.5 -44.5s-20.667 -32 -29 -48s-12.5 -29.667 -12.5 -41c0 -16.667 10.667 -25 32 -25
c20.667 0 40.5 5.83301 59.5 17.5s35.833 26.5 50.5 44.5s26.5 37.833 35.5 59.5s13.5 42.5 13.5 62.5c0 32 -9 54.667 -27 68s-41 20 -69 20c-50 0 -97.333 -10 -142 -30s-83.834 -44.833 -117.501 -74.5s-60.334 -61.667 -80.001 -96s-29.5 -66.166 -29.5 -95.499
c0 -28 10.167 -50.833 30.5 -68.5s53.5 -26.5 99.5 -26.5c27.333 0 56.166 4.5 86.499 13.5s59.833 20 88.5 33s55 26.833 79 41.5s43.333 27.667 58 39c0.666992 0.666992 2 1 4 1c2.66699 0 4.83398 -1 6.50098 -3s2.5 -3.66699 2.5 -5s-0.333008 -2.33301 -1 -3
c-11.333 -10 -29.833 -23 -55.5 -39s-55 -31.5 -88 -46.5s-67.833 -27.833 -104.5 -38.5s-71.667 -16 -105 -16c-50 0 -86 9.16699 -108 27.5s-33 41.5 -33 69.5c0 21.333 5.5 44.5 16.5 69.5s26.333 50 46 75s42.834 49.333 69.501 73s55.5 44.5 86.5 62.5
s63.5 32.333 97.5 43s68.333 16 103 16c32.667 0 59.5 -7.66699 80.5 -23s31.5 -41 31.5 -77zM355.003 200.996c0 2.66699 -2.33203 4.00098 -6.99902 4.00098c-5.33301 0 -12 -1 -20 -3c-30.667 -8.66699 -59.834 -21.5 -87.501 -38.5s-51.834 -35 -72.501 -54
s-37.167 -37.5 -49.5 -55.5s-18.5 -32.333 -18.5 -43c0 -11.333 6.66699 -17 20 -17c7.33301 0 17 3 29 9s24.833 13.667 38.5 23s27.667 19.666 42 30.999s27.5 22.333 39.5 33c9.33301 15.333 20.833 31.833 34.5 49.5s29.834 36.167 48.501 55.5c2 3.33301 3 5.33301 3 6
z" />
    <glyph glyph-name="A" unicode="A" horiz-adv-x="712" 
d="M769 674c0 -16.667 -4.33496 -34.5029 -13.002 -53.5029s-18.834 -37.167 -30.501 -54.5s-23.5 -32.666 -35.5 -45.999s-21.667 -22.666 -29 -27.999c-6 -4.66699 -13.667 -7 -23 -7c-8.66699 0 -13 3.33301 -13 10c0 2 0.666992 3.83301 2 5.5l6 7.5
c5.33301 6 13.5 16 24.5 30s22 29.333 33 46s20.833 33.5 29.5 50.5s13 31.167 13 42.5c0 10 -2.5 18 -7.5 24s-11.333 10.667 -19 14s-16 5.5 -25 6.5s-17.167 1.5 -24.5 1.5c-51.333 0 -102 -11.5 -152 -34.5s-97.333 -53.167 -142 -90.5s-85.834 -79.833 -123.501 -127.5
s-70.334 -95.667 -98.001 -144s-49.167 -95.166 -64.5 -140.499s-23 -84.666 -23 -117.999c0 -28 6 -50.333 18 -67s31.333 -25 58 -25c18.667 0 38.834 4.66699 60.501 14s43.667 21.5 66 36.5s44.5 32 66.5 51s42.833 38.167 62.5 57.5s37.667 38 54 56l40.5 46l21 26
l33 42.5l32 42c10 13 16 21.5 18 25.5c3.33301 5.33301 7.66602 10.666 12.999 15.999s10.333 8 15 8c3.33301 0 5.83301 -1.66699 7.5 -5s2.5 -6.33301 2.5 -9c0 -8 -3 -15.667 -9 -23c-9.33301 -11.333 -21 -27.333 -35 -48l-43 -66.5
c-14.667 -23.667 -28.5 -47.167 -41.5 -70.5s-23.167 -43.333 -30.5 -60c-14.667 -34 -22 -61 -22 -81c0 -18 5 -30.667 15 -38s23 -11 39 -11c16.667 0 35.834 3.5 57.501 10.5s43.667 15.833 66 26.5s44 22.5 65 35.5s39.5 25.5 55.5 37.5c0.666992 0.666992 2 1 4 1
c2.66699 0 4.83398 -1 6.50098 -3s2.5 -3.66699 2.5 -5s-0.333008 -2.33301 -1 -3c-17.333 -14 -37.666 -28.333 -60.999 -43s-47.333 -27.834 -72 -39.501s-49.167 -21.167 -73.5 -28.5s-46.166 -11 -65.499 -11c-20.667 0 -37.334 4.83301 -50.001 14.5
s-19 26.167 -19 49.5c0 15.333 3.16699 34 9.5 56s17.166 48 32.499 78c0.666992 1.33301 1 3.33301 1 6c0 5.33301 -1.33301 8 -4 8c-1.33301 0 -2.66602 -0.666992 -3.99902 -2l-38 -38c-15.333 -15.333 -32.166 -31.333 -50.499 -48s-38.166 -33.5 -59.499 -50.5
s-43 -32.167 -65 -45.5s-44 -24.166 -66 -32.499s-43.333 -12.5 -64 -12.5c-36 0 -62 9.66699 -78 29s-24 45.333 -24 78c0 36 9 78 27 126s42.5 97.5 73.5 148.5s67.833 101 110.5 150s88.667 93 138 132s101 70.333 155 94s108 35.5 162 35.5
c68.667 0 103 -21.667 103 -65z" />
    <glyph glyph-name="B" unicode="B" horiz-adv-x="794" 
d="M869 124c0 -2.66699 -3.66895 -4.99902 -11.002 -6.99902c-36.667 -10 -76.167 -19 -118.5 -27s-86.5 -15 -132.5 -21c-46 -34.667 -104 -63.834 -174 -87.501s-149.667 -35.5 -239 -35.5c-12.667 0 -25 0.5 -37 1.5s-23.667 2.16699 -35 3.5
c-21.333 -35.333 -42 -66.5 -62 -93.5s-38.667 -48.167 -56 -63.5c-2.66699 -2 -4.83398 -4 -6.50098 -6s-3.5 -3 -5.5 -3c-7.33301 0 -11 1.66699 -11 5s1 6 3 8l4 4c17.333 17.333 35 39 53 65s36.667 55.333 56 88c-35.333 6.66699 -68 16 -98 28s-56 25 -78 39
s-39.167 28.5 -51.5 43.5s-18.5 28.833 -18.5 41.5c0 6.66699 2 10 6 10c2.66699 0 4.66699 -0.333008 6 -1c44.667 -16.667 91.834 -29.167 141.501 -37.5s101.167 -14.166 154.5 -17.499l18 31.5l18 32.5l80 142c27.333 48.667 55.666 95.667 84.999 141
s59.5 88.166 90.5 128.499s63 75.5 96 105.5s66.833 53.667 101.5 71s70.334 26 107.001 26c22.667 0 39 -4.5 49 -13.5s15 -21.167 15 -36.5c0 -20 -7.66699 -43.667 -23 -71s-35.666 -55.166 -60.999 -83.499s-54.666 -55.333 -87.999 -81s-68 -46.5 -104 -62.5
c62.667 -5.33301 108.667 -20.666 138 -45.999s44 -55.333 44 -90c0 -26.667 -8 -54.334 -24 -83.001s-39 -56.334 -69 -83.001c42 6.66699 81.833 13.5 119.5 20.5s73.5 14.167 107.5 21.5c6.66699 0 10 -2.33301 10 -7zM767.998 670.001
c0 12.667 -3.83203 22.835 -11.499 30.502s-20.167 11.5 -37.5 11.5c-28 0 -56 -8 -84 -24s-55.833 -38 -83.5 -66s-55.334 -60.667 -83.001 -98s-55 -77.333 -82 -120l-80 -132.5l-76.5 -134.5l-22 -39l-22 -38c11.333 -0.666992 22.666 -1 33.999 -1h34
c54 0 108.167 2 162.5 6s107.5 9.66699 159.5 17c32 28 56.333 57 73 87s25 59 25 87c0 32.667 -12.667 60.667 -38 84s-65 36.666 -119 39.999c-34.667 -13.333 -68.334 -20 -101.001 -20c-4.66699 0 -9.16699 0.666992 -13.5 2s-6.5 3.33301 -6.5 6
c0 3.33301 4.33301 7 13 11c7.33301 3.33301 18.833 6.83301 34.5 10.5s33.834 4.83398 54.501 3.50098l17 -1c18.667 5.33301 37.834 14.166 57.501 26.499s38.834 26.5 57.501 42.5s36.5 33.5 53.5 52.5s31.667 37.833 44 56.5s22.166 36.667 29.499 54
s11 32.666 11 45.999zM551.999 62.002c-49.333 -5.33301 -99 -9.33301 -149 -12s-99.667 -4 -149 -4h-38.5c-12.333 0 -24.833 0.333008 -37.5 1l-25.5 -44l-24.5 -41c11.333 -1.33301 22.833 -2.5 34.5 -3.5s24.167 -1.5 37.5 -1.5c75.333 0 142.5 10 201.5 30
s109.167 45 150.5 75zM151.999 48.002c-48 2 -93.002 5.66895 -135.002 11.002s-81 12.666 -117 21.999c-1.33301 0.666992 -3.66602 1 -6.99902 1c-2.66699 0 -4 -0.666992 -4 -2c0 -2 0.666992 -3.66699 2 -5c7.33301 -9.33301 17.333 -19.5 30 -30.5
s27.834 -21.5 45.501 -31.5s38 -19.333 61 -28s48.5 -15.334 76.5 -20.001l23 40.5z" />
    <glyph glyph-name="C" unicode="C" horiz-adv-x="464" 
d="M872 737c0 -1.33301 -0.996094 -3.16992 -2.99609 -5.50293s-3.66699 -3.83301 -5 -4.5c-17.333 -8 -35.5 -18.667 -54.5 -32s-37.833 -28.333 -56.5 -45v-2c0 -28 -6 -58 -18 -90s-27 -61.667 -45 -89s-37.667 -50.166 -59 -68.499s-41.666 -27.5 -60.999 -27.5
c-14.667 0 -22 7 -22 21c0 11.333 4.83301 26.333 14.5 45s22.5 39.167 38.5 61.5s34.5 45.333 55.5 69s42.833 46.5 65.5 68.5c-0.666992 35.333 -10.334 61 -29.001 77s-43.334 24 -74.001 24c-32 0 -68.5 -7.83301 -109.5 -23.5s-83 -37.167 -126 -64.5
s-85.167 -60 -126.5 -98s-78.166 -79.333 -110.499 -124s-58.333 -92 -78 -142s-29.5 -100.667 -29.5 -152c0 -31.333 3.66699 -57.666 11 -78.999s17.166 -38.5 29.499 -51.5s27 -22.333 44 -28s35.5 -8.5 55.5 -8.5c27.333 0 56.166 4.5 86.499 13.5s59.833 20 88.5 33
s55 26.833 79 41.5s43.333 27.667 58 39c0.666992 0.666992 2 1 4 1c2.66699 0 4.83398 -1 6.50098 -3s2.5 -3.66699 2.5 -5s-0.333008 -2.33301 -1 -3c-11.333 -10 -29.833 -23 -55.5 -39s-55 -31.5 -88 -46.5s-67.833 -27.833 -104.5 -38.5s-71.667 -16 -105 -16
c-22.667 0 -43.834 3 -63.501 9s-36.834 16.333 -51.501 31s-26.167 33.834 -34.5 57.501s-12.5 52.834 -12.5 87.501c0 55.333 11 109.166 33 161.499s50.833 101.666 86.5 147.999s76.5 89 122.5 128s92.833 72.333 140.5 100s94.334 49.334 140.001 65.001
s86.5 23.5 122.5 23.5c33.333 0 60.666 -7.16699 81.999 -21.5s33.666 -37.5 36.999 -69.5c19.333 16.667 38.5 31.5 57.5 44.5s36.833 23.167 53.5 30.5c1.33301 0.666992 3 1 5 1s3.33301 -1 4 -3v-1v0zM721.004 620.996c-20.667 -20 -40.333 -40.832 -59 -62.499
s-35 -42.334 -49 -62.001s-25.167 -37.5 -33.5 -53.5s-12.5 -28.667 -12.5 -38c0 -10.667 5.33301 -16 16 -16s23.5 7.5 38.5 22.5s29.5 33.833 43.5 56.5s26.333 47.667 37 75s17 53.333 19 78z" />
    <glyph glyph-name="D" unicode="D" horiz-adv-x="727" 
d="M785 175c0 -2 -1.99902 -3.6709 -5.99902 -5.00391c-22.667 5.33301 -43.5 14.5 -62.5 27.5s-36.5 28.5 -52.5 46.5c-14 -38.667 -31.167 -75.167 -51.5 -109.5s-43.833 -64.5 -70.5 -90.5s-56.5 -46.5 -89.5 -61.5s-69.5 -22.5 -109.5 -22.5
c-22 0 -41.5 5.33301 -58.5 16s-32.5 23.5 -46.5 38.5s-27 30.5 -39 46.5s-24.667 29 -38 39c-50.667 -45.333 -103.5 -82.5 -158.5 -111.5s-111.5 -43.5 -169.5 -43.5c-16.667 0 -28.834 2.5 -36.501 7.5s-11.5 11.167 -11.5 18.5c0 12.667 9.33301 28.167 28 46.5
s44.334 35.833 77.001 52.5s70.834 30.834 114.501 42.501s90.5 17.5 140.5 17.5c4 0 9.33301 -0.666992 16 -2c38 36.667 74 76 108 118s65 83 93 123s52.833 77.167 74.5 111.5l53.5 84.5l9 14c2.66699 2.66699 6.33398 4 11.001 4c5.33301 0 10 -1.66699 14 -5
s6 -6.66602 6 -9.99902c0 -1.33301 -0.333008 -2.33301 -1 -3s-1.33398 -1.66699 -2.00098 -3l-68.5 -102l-80.5 -114.5c-28.667 -39 -59.334 -77.667 -92.001 -116s-66.667 -74.5 -102 -108.5c18 -8 34 -20 48 -36l40.5 -48.5c13 -16.333 26.333 -30.5 40 -42.5
s29.167 -18 46.5 -18c34.667 0 66.5 8 95.5 24s55.333 37.5 79 64.5s44.667 58.5 63 94.5s33.5 73.667 45.5 113c-30.667 44.667 -53.667 97.167 -69 157.5s-23 120.833 -23 181.5c0 21.333 1.5 41 4.5 59s7.5 33.667 13.5 47s13.5 23.833 22.5 31.5s19.5 11.5 31.5 11.5
c14.667 0 27.667 -6 39 -18s21 -28.5 29 -49.5s14 -45.667 18 -74s6 -59.166 6 -92.499c0 -40 -3.33301 -81.5 -10 -124.5s-16.667 -85.5 -30 -127.5c14.667 -21.333 30.167 -39.833 46.5 -55.5s34.166 -27.167 53.499 -34.5
c2.66699 -1.33301 5.16699 -2.66602 7.5 -3.99902s3.5 -3 3.5 -5zM679.001 505.996c0 31.333 -1.66602 60.5 -4.99902 87.5s-8 50.5 -14 70.5s-13.333 35.833 -22 47.5s-18.334 17.5 -29.001 17.5c-14 0 -24.333 -8.83301 -31 -26.5s-10 -41.167 -10 -70.5
c0 -22.667 1.83301 -47.5 5.5 -74.5s9.16699 -54.667 16.5 -83s16.333 -56.666 27 -84.999s22.667 -54.833 36 -79.5c17.333 67.333 26 132.666 26 195.999zM143.002 110.996c-8 4 -16.335 6.00195 -25.002 6.00195c-38.667 0 -76.167 -5 -112.5 -15
s-68.666 -22.167 -96.999 -36.5s-51.166 -29.333 -68.499 -45s-26 -28.834 -26 -39.501c0 -14 14.333 -21 43 -21c50 5.33301 99 21.666 147 48.999s94.333 61.333 139 102z" />
    <glyph glyph-name="E" unicode="E" 
d="M901 724c0 -3.33301 -1.50488 -5.5 -4.50488 -6.5s-5.83301 -1.5 -8.5 -1.5c-4.66699 0 -8.83398 0.833008 -12.501 2.5s-8 3.33398 -13 5.00098s-10.667 3.33398 -17 5.00098s-14.166 2.5 -23.499 2.5c-36 0 -71.333 -7.66699 -106 -23s-68.834 -36.5 -102.501 -63.5
s-66.834 -58.667 -99.501 -95s-65 -75.5 -97 -117.5c38.667 11.333 79.334 20.166 122.001 26.499s87.334 9.5 134.001 9.5c36 0 62.333 -3.66699 79 -11s25 -16.333 25 -27c0 -8 -4.66699 -16.5 -14 -25.5s-22.666 -17.167 -39.999 -24.5s-38.333 -13.333 -63 -18
s-52 -7 -82 -7c-42.667 0 -79.167 4.16699 -109.5 12.5s-55.166 19.166 -74.499 32.499l-78 -107l-79 -109.5l-80 -108c-26.667 -35.667 -54 -69.834 -82 -102.501c25.333 -22 64.333 -33 117 -33c34.667 0 71.5 5.66699 110.5 17s76.833 25.166 113.5 41.499
s70 33.333 100 51s53 32.834 69 45.501c0.666992 0.666992 2 1 4 1c2.66699 0 4.83398 -1 6.50098 -3s2.5 -3.66699 2.5 -5s-0.333008 -2.33301 -1 -3c-8 -7.33301 -20.667 -16.666 -38 -27.999s-37.5 -23.333 -60.5 -36s-48.5 -25.167 -76.5 -37.5s-56.667 -23.5 -86 -33.5
s-58.833 -18.167 -88.5 -24.5s-58.167 -9.5 -85.5 -9.5c-25.333 0 -47.333 2.16699 -66 6.5s-35 10.166 -49 17.499c-25.333 -28.667 -51.166 -55.5 -77.499 -80.5s-53.5 -47.167 -81.5 -66.5c-2.66699 -1.33301 -5 -2 -7 -2c-2.66699 0 -4 1 -4 3c0 4.66699 2.33301 9 7 13
c26 19.333 51.5 40.833 76.5 64.5s49.5 49.167 73.5 76.5c-30.667 22 -46 52.667 -46 92c0 30 8.83301 62.5 26.5 97.5s43.167 69.667 76.5 104s73.833 66.833 121.5 97.5s101.167 56.667 160.5 78c-22.667 23.333 -34 51.333 -34 84c0 29.333 9.83301 59.5 29.5 90.5
s47.834 59.333 84.501 85s81.5 46.667 134.5 63s112.833 24.5 179.5 24.5c6 0 16.333 -0.333008 31 -1s29.667 -2.16699 45 -4.5s28.833 -6.16602 40.5 -11.499s17.5 -13 17.5 -23zM779.995 740c1.33301 0 -2.6709 0.664062 -12.0039 1.99707s-22.666 2 -39.999 2
c-56 0 -105.667 -7.16699 -149 -21.5s-79.666 -32.666 -108.999 -54.999s-51.666 -47.166 -66.999 -74.499s-23 -54.333 -23 -81c0 -28.667 7.66699 -53 23 -73c30.667 40 61.167 77.5 91.5 112.5s60.833 65.833 91.5 92.5s61.667 48.334 93 65.001s63.333 26.667 96 30
c1.33301 0 2.33301 0.166992 3 0.5s1.33398 0.5 2.00098 0.5zM727.991 422.997c0 8.66699 -5.33203 16.167 -15.999 22.5s-26.667 9.5 -48 9.5c-43.333 0 -84.833 -3.66699 -124.5 -11s-77.834 -17.333 -114.501 -30c17.333 -14.667 39.333 -26.167 66 -34.5
s59 -12.5 97 -12.5c47.333 0 82.5 6.16699 105.5 18.5s34.5 24.833 34.5 37.5zM367.992 391.997c-49.333 -21.333 -94.001 -46.501 -134.001 -75.501s-74.167 -59.167 -102.5 -90.5s-50.166 -62.666 -65.499 -93.999s-23 -60 -23 -86c0 -25.333 7 -46 21 -62
c52.667 62.667 104 129.5 154 200.5z" />
    <glyph glyph-name="F" unicode="F" horiz-adv-x="860" 
d="M1082 318c0 -3.33301 -1.50781 -6.5 -4.50781 -9.5s-7.5 -4.5 -13.5 -4.5h-200c-35.333 -46 -76.666 -90.333 -123.999 -133s-97.5 -80.5 -150.5 -113.5s-107.5 -59.5 -163.5 -79.5s-111 -30 -165 -30c-38.667 0 -77.167 5.5 -115.5 16.5s-72.666 24.833 -102.999 41.5
s-55 34.834 -74 54.501s-28.5 38.167 -28.5 55.5c0 3.33301 0.833008 6.16602 2.5 8.49902s5.16699 3.83301 10.5 4.5c4 0 13.333 -3 28 -9s32.667 -12.667 54 -20s45.5 -14 72.5 -20s55.5 -9 85.5 -9c18 0 34.667 1.33301 50 4c2.66699 0 4.83398 -1.16699 6.50098 -3.5
s2.5 -4.83301 2.5 -7.5c0 -4 -2 -6.66699 -6 -8c-7.33301 -1.33301 -15.166 -2.33301 -23.499 -3s-17.166 -1 -26.499 -1c-21.333 0 -44 1.5 -68 4.5s-45.667 6.16699 -65 9.5c-22.667 4 -45.334 8.33301 -68.001 13h-7c-0.666992 0 -1 -0.333008 -1 -1
c0 -3.33301 6 -11 18 -23s30 -24.5 54 -37.5s53.833 -24.667 89.5 -35s76.834 -15.5 123.501 -15.5c50 0 100.667 9.33301 152 28s100.833 43.667 148.5 75s92.5 67.333 134.5 108s78.667 82.667 110 126c-47.333 0.666992 -90.333 1.33398 -129 2.00098
s-68.667 1.33398 -90 2.00098c-5.33301 0 -8 2.66699 -8 8c0 3.33301 1.5 6.5 4.5 9.5s8.16699 4.5 15.5 4.5c5.33301 0 15.333 0.166992 30 0.5s32.334 0.833008 53.001 1.5s43.5 1.16699 68.5 1.5s50.5 0.833008 76.5 1.5c26.667 40.667 47.5 80.5 62.5 119.5
s22.5 75.167 22.5 108.5c0 22 -3.66699 42 -11 60s-18.666 33.5 -33.999 46.5s-35.166 23.167 -59.499 30.5s-53.5 11 -87.5 11c-25.333 0 -50 -3 -74 -9c-14.667 -18 -32.167 -36.667 -52.5 -56s-41 -37.166 -62 -53.499s-41.167 -29.666 -60.5 -39.999
s-36 -15.5 -50 -15.5c-18 0 -27 5.66699 -27 17c0 10 6.33301 22.667 19 38s30 31.166 52 47.499s47.833 32 77.5 47s61.167 26.833 94.5 35.5c6.66699 9.33301 12.667 18.166 18 26.499s9.66602 16.166 12.999 23.499c2 4 4.33301 6.66699 7 8s4.66699 2 6 2
c5.33301 0 8 -2.66699 8 -8s-2 -11.833 -6 -19.5s-9.66699 -16.167 -17 -25.5c26.667 5.33301 52.334 8 77.001 8c41.333 0 76.5 -4 105.5 -12s52.667 -19.167 71 -33.5s31.833 -31.333 40.5 -51s13 -41.167 13 -64.5c0 -35.333 -8.5 -73.5 -25.5 -114.5
s-40.5 -82.833 -70.5 -125.5c34 1.33301 65.833 2.16602 95.5 2.49902s53.167 0.5 70.5 0.5c18.667 0 28 -7 28 -21zM625.992 694c-26 -8 -50.668 -17.667 -74.001 -29s-43.666 -23 -60.999 -35s-31 -23.333 -41 -34s-15 -19 -15 -25s4.66699 -9 14 -9
c11.333 0 24.333 3.83301 39 11.5s30 17.667 46 30s32 26.5 48 42.5s30.667 32 44 48z" />
    <glyph glyph-name="G" unicode="G" horiz-adv-x="906" 
d="M1142 604c0 -4.66699 -2.66895 -9.99609 -8.00195 -15.9961s-11.166 -11.833 -17.499 -17.5s-12.333 -10.5 -18 -14.5s-8.83398 -6.66699 -9.50098 -8c-75.333 -102 -145.666 -192.333 -210.999 -271s-130 -144.667 -194 -198c37.333 4 73.666 9 108.999 15
s70 12.667 104 20l9 1c8 0 12 -2 12 -6s-2.33301 -6.66699 -7 -8c-30 -8.66699 -66.5 -16.667 -109.5 -24s-90.5 -13.333 -142.5 -18c-53.333 -41.333 -107.166 -72.833 -161.499 -94.5s-111.833 -32.5 -172.5 -32.5c-14.667 0 -29 1 -43 3
c-55.333 -50 -100.333 -87.333 -135 -112c-3.33301 -2.66699 -6.33301 -4 -9 -4c-5.33301 0 -8 3.33301 -8 10s2 11.334 6 14.001c12.667 6.66699 29.5 18.167 50.5 34.5s45.5 36.833 73.5 61.5c-28.667 5.33301 -58.167 13.833 -88.5 25.5s-59.666 26.167 -87.999 43.5
s-54.666 37.166 -78.999 59.499s-44.833 46.833 -61.5 73.5c0.666992 8 5.33398 12 14.001 12c5.33301 0 10 -1 14 -3c60 -25.333 126.667 -44.5 200 -57.5s150 -20.833 230 -23.5l161.5 160l159.5 168c-20.667 4 -35.334 11.5 -44.001 22.5s-13 24.167 -13 39.5
c0 18 5.33301 38.167 16 60.5s24.667 45.166 42 68.499s37.333 45.833 60 67.5s46 41.167 70 58.5s48 31.166 72 41.499s45.667 15.5 65 15.5c12.667 0 20.5 -3.66699 23.5 -11s4.5 -15 4.5 -23c0 -6.66699 -6.83301 -19.834 -20.5 -39.501s-32.167 -43.834 -55.5 -72.501
l-82.5 -97l-102.5 -114h8c23.333 0 50.333 5.83301 81 17.5s60.667 25.5 90 41.5s55.5 31.833 78.5 47.5s38.833 27.5 47.5 35.5c4 5.33301 9.16699 11.5 15.5 18.5s12.833 13.833 19.5 20.5s13.167 12.167 19.5 16.5s11.833 6.5 16.5 6.5
c3.33301 0 5.66602 -1.5 6.99902 -4.5s2 -6.16699 2 -9.5zM983.998 727.004c0 7.33301 -1.83398 12.002 -5.50098 14.002s-8.5 3 -14.5 3c-17.333 0 -35.666 -4.83301 -54.999 -14.5s-38.5 -22.167 -57.5 -37.5s-37 -33 -54 -53s-32.167 -40.333 -45.5 -61
s-23.833 -40.834 -31.5 -60.501s-11.5 -37.167 -11.5 -52.5c0 -11.333 2.5 -21.333 7.5 -30s13.167 -14.667 24.5 -18l95.5 107l77.5 92c22 27.333 39.167 50.666 51.5 69.999s18.5 33 18.5 41zM998.997 491.006c0 0.666992 -0.333984 1.33301 -1.00098 2
c-11.333 -10 -27.666 -20.833 -48.999 -32.5s-43.833 -22.5 -67.5 -32.5s-46.667 -18.167 -69 -24.5s-40.5 -9.5 -54.5 -9.5h-19l-156.5 -165l-159.5 -161h41c30.667 0 61.5 0.5 92.5 1.5s61.833 3.16699 92.5 6.5c34 27.333 66.5 57.5 97.5 90.5s61 67.167 90 102.5
s56.5 71 82.5 107l75 104c3.33301 5.33301 5 9 5 11zM622.996 56.0049c-30 -2.66699 -60.8311 -4.5 -92.498 -5.5s-63.834 -1.5 -96.501 -1.5h-31l-53.5 -50.5l-50.5 -47.5c6.66699 -0.666992 13.167 -1.16699 19.5 -1.5s12.833 -0.5 19.5 -0.5
c52 0 101.667 9.83301 149 29.5s92.666 45.5 135.999 77.5zM380.998 49.0049c-70.667 2 -139.165 7.49805 -205.498 16.498s-125.5 23.167 -177.5 42.5c-2.66699 1.33301 -5.33398 2 -8.00098 2c-1.33301 0 -2 -0.333008 -2 -1c0 -1.33301 1 -3.66602 3 -6.99902
c51.333 -44.667 100.666 -78.667 147.999 -102s93.333 -38.666 138 -45.999l50 45.5z" />
    <glyph glyph-name="H" unicode="H" horiz-adv-x="1191" 
d="M1492 804c0 -4.66699 -2.65625 -9.00195 -7.98926 -13.002c-2.66699 -2 -5.66699 -3.66699 -9 -5c-24.667 -13.333 -52 -33.666 -82 -60.999s-60.833 -59.333 -92.5 -96s-63.667 -76.167 -96 -118.5s-63.333 -85.166 -93 -128.499l-83.5 -126.5
c-26 -41 -48.667 -78.5 -68 -112.5c50.667 1.33301 102.334 4.5 155.001 9.5s105 13.167 157 24.5c8.66699 -1.33301 13 -4 13 -8s-2.66699 -7 -8 -9c-19.333 -5.33301 -41.333 -10.166 -66 -14.499s-51.167 -8 -79.5 -11s-57.833 -5.33301 -88.5 -7
s-62 -2.83398 -94 -3.50098l-13 -25c-4 -8 -8 -15.333 -12 -22c-10.667 -18 -20 -33.167 -28 -45.5s-16.167 -22 -24.5 -29s-17.333 -12 -27 -15s-21.5 -4.5 -35.5 -4.5c-16 0 -33.5 2.5 -52.5 7.5s-38.333 11.833 -58 20.5s-39.334 18.5 -59.001 29.5
s-38.834 22.5 -57.501 34.5c-53.333 -35.333 -107.333 -63.333 -162 -84s-107.667 -31 -159 -31c-46.667 0 -89.5 7.33301 -128.5 22s-72.5 32 -100.5 52s-49.833 40.167 -65.5 60.5s-23.5 35.833 -23.5 46.5c0 5.33301 1.16699 10 3.5 14s5.5 6 9.5 6
c4.66699 0 11 -4.33301 19 -13c6 -3.33301 15 -8.66602 27 -15.999s26.667 -14.833 44 -22.5s37.333 -14.334 60 -20.001s47.667 -8.5 75 -8.5c5.33301 0 10.666 0.166992 15.999 0.5s10.666 0.833008 15.999 1.5c9.33301 -3.33301 14 -7 14 -11
c0 -4.66699 -7.33301 -8 -22 -10c-4 -0.666992 -8 -1.16699 -12 -1.5s-8.66699 -0.5 -14 -0.5c-23.333 0 -50.333 3.66699 -81 11s-65.667 18.666 -105 33.999c2.66699 -10.667 11.5 -23.334 26.5 -38.001s34.167 -28.667 57.5 -42s49.833 -24.666 79.5 -33.999
s60.834 -14 93.501 -14c55.333 0 109.666 9.83301 162.999 29.5s104.333 45.834 153 78.501c-18 12 -35 24 -51 36s-29.667 22.833 -41 32.5s-20.333 17.834 -27 24.501s-10 11 -10 13s1 4.33301 3 7s4 4 6 4s5 -0.666992 9 -2s9.66699 -3.33301 17 -6
c19.333 -6 44.833 -12.167 76.5 -18.5s68.5 -12.166 110.5 -17.499c38 33.333 72.5 69.166 103.5 107.499s57.833 76.666 80.5 114.999s40.167 76 52.5 113s18.5 70.833 18.5 101.5c0 42.667 -13 77.167 -39 103.5s-67.667 39.5 -125 39.5c-16 0 -31.333 -0.666992 -46 -2
s-28.667 -3 -42 -5l-55.5 -61.5c-20.333 -21.667 -41.5 -41.5 -63.5 -59.5s-43.833 -32.833 -65.5 -44.5s-41.834 -17.5 -60.501 -17.5c-17.333 0 -26 7.33301 -26 22c0 10.667 5.33301 24 16 40s26.5 32.167 47.5 48.5s47.167 31.833 78.5 46.5s67.333 26 108 34l24 32.5
l25 35.5c6 8 10.667 12 14 12s7.33301 -1.33301 12 -4s7 -5.33398 7 -8.00098c0 -2 -1 -4 -3 -6c-0.666992 -1.33301 -2.33398 -3.33301 -5.00098 -6c-5.33301 -6 -11.333 -13.167 -18 -21.5l-22 -27.5c28 4 58.333 6 91 6c37.333 0 69.166 -3.66699 95.499 -11
s48 -17.5 65 -30.5s29.333 -28.667 37 -47s11.5 -38.5 11.5 -60.5c0 -32 -7.33301 -66.833 -22 -104.5s-34.834 -76.167 -60.501 -115.5s-56 -78.5 -91 -117.5s-72.833 -75.833 -113.5 -110.5c34 -3.33301 69.667 -6.16602 107 -8.49902s76.666 -3.5 117.999 -3.5h18
l69.5 112l81.5 128l90 132.5c31.333 44.333 63.166 86 95.499 125s65.166 74.167 98.499 105.5s66 56 98 74c4 2 7.33301 3 10 3c3.33301 0 7.16602 -2 11.499 -6s6.5 -8.33301 6.5 -13zM629.011 723.998c-35.333 -8.66699 -66.165 -19.8311 -92.498 -33.498
s-48.333 -27.834 -66 -42.501s-30.834 -28.334 -39.501 -41.001s-13 -22 -13 -28c0 -4 2 -6 6 -6c25.333 0 55.166 11.833 89.499 35.5s72.833 62.167 115.5 115.5zM871.012 124.001c-38 0 -74.999 0.501953 -110.999 1.50195s-69.667 2.83301 -101 5.5l-31.5 -24.5
l-31.5 -22.5c16 -10 32.833 -19.667 50.5 -29s35.167 -17.833 52.5 -25.5s34.166 -13.834 50.499 -18.501s30.833 -7 43.5 -7c12 0 23.333 2.16699 34 6.5s20.667 12.166 30 23.499c8 10 17.167 22.667 27.5 38l34.5 52h-48zM631.013 133.003
c-27.333 2.66699 -51.332 5.66699 -71.999 9s-37.334 7.33301 -50.001 12h-1c-0.666992 0 -1 -0.333008 -1 -1c0 -3.33301 6.83301 -10.5 20.5 -21.5s31.167 -23.5 52.5 -37.5l26 19.5c8.66699 6.33301 17 12.833 25 19.5z" />
    <glyph glyph-name="I" unicode="I" horiz-adv-x="839" 
d="M1062 718c0 -22.667 -6.1709 -51.833 -18.5039 -87.5s-29.833 -74.834 -52.5 -117.501s-50 -87.334 -82 -134.001s-67.667 -92 -107 -136s-81.833 -85.333 -127.5 -124s-93.5 -71.667 -143.5 -99c8 -0.666992 15.833 -1 23.5 -1h23.5c54 0 102.667 3.83301 146 11.5
s78 20.167 104 37.5c15.333 10 28.333 19 39 27c0.666992 0.666992 2 1 4 1c2.66699 0 4.83398 -1 6.50098 -3s2.5 -3.66699 2.5 -5s-0.333008 -2.33301 -1 -3c-8.66699 -7.33301 -22 -17 -40 -29c-32.667 -20.667 -72.5 -35.334 -119.5 -44.001s-98.167 -13 -153.5 -13h-36
c-12 0 -24.333 0.666992 -37 2c-35.333 -16 -71 -28.667 -107 -38s-73 -14 -111 -14c-29.333 0 -59.666 4 -90.999 12s-62.333 19.5 -93 34.5s-60.334 33.667 -89.001 56s-54.667 47.833 -78 76.5c0.666992 4.66699 2.5 7.83398 5.5 9.50098s6.5 2.5 10.5 2.5
c5.33301 0 10 -1 14 -3c32.667 -14 70.334 -27.333 113.001 -40s88 -24.167 136 -34.5s97.333 -19.166 148 -26.499s100 -12.333 148 -15c50.667 25.333 98.5 57.333 143.5 96s86.667 80.334 125 125.001s72.833 90.167 103.5 136.5s57 89.666 79 129.999
s39 75.833 51 106.5s18.333 52.667 19 66c-0.666992 5.33301 -1.5 9.83301 -2.5 13.5s-3.16699 5.5 -6.5 5.5c-2.66699 0 -7 -2 -13 -6c-5.33301 -3.33301 -13.833 -10.5 -25.5 -21.5s-24.667 -24.667 -39 -41s-28.666 -35 -42.999 -56s-27.166 -43.5 -38.499 -67.5l-11 -25
c-5.33301 -12 -11.166 -26 -17.499 -42s-12.833 -33.667 -19.5 -53s-12.667 -39 -18 -59c-2 -7.33301 -3.66699 -13.166 -5 -17.499s-2.66602 -6.5 -3.99902 -6.5c-0.666992 0 -1.66699 1.33301 -3 4c-0.666992 1.33301 -1 2.66602 -1 3.99902
c5.33301 26.667 13.333 59.167 24 97.5s28 80.833 52 127.5c14 26.667 30 52 48 76s36.167 45 54.5 63s35.666 32.333 51.999 43s29.833 16 40.5 16c5.33301 0 9.66602 -1.16699 12.999 -3.5s5 -7.16602 5 -14.499zM458.996 3.00098
c-44 3.33301 -88.333 8.66797 -133 16.001s-88 15.666 -130 24.999s-81.667 19.5 -119 30.5s-70.666 21.833 -99.999 32.5c-2.66699 1.33301 -5.33398 2 -8.00098 2c-2 0 -3 -0.666992 -3 -2s1.33301 -3.33301 4 -6c55.333 -47.333 109.5 -81.333 162.5 -102
s105.167 -31 156.5 -31c30 0 58.833 3 86.5 9s55.5 14.667 83.5 26z" />
    <glyph glyph-name="J" unicode="J" horiz-adv-x="328" 
d="M626 769c0 -6 -3.66504 -10.9971 -10.998 -14.9971c-25.333 -18.667 -53 -48.5 -83 -89.5s-61.5 -88.667 -94.5 -143s-67.167 -113.833 -102.5 -178.5l-107 -197c17.333 11.333 34.833 22.166 52.5 32.499l55.5 31.5c2 1.33301 4.66699 2 8 2c2 0 3 -1 3 -3
c0 -5.33301 -2.33301 -9.33301 -7 -12l-65 -37.5l-60 -37.5l-83 -154l-81 -144.5l-77.5 -127c-25 -39 -48.833 -72.667 -71.5 -101s-44 -50.5 -64 -66.5s-38.333 -24 -55 -24c-15.333 0 -27 5.16699 -35 15.5s-12 24.833 -12 43.5c0 26.667 8.5 60.5 25.5 101.5
s43.333 85.833 79 134.5s81.167 99.667 136.5 153s121 106 197 158l109.5 201c37 66.667 73 128.5 108 185.5s68.667 107.167 101 150.5s62.166 75.333 89.499 96c0.666992 0 1 0.333008 1 1v3c0 1.33301 -0.666992 2 -2 2c-18 -4.66699 -39.333 -13.334 -64 -26.001
s-50.334 -28.834 -77.001 -48.501s-53 -42.334 -79 -68.001s-49.333 -53.667 -70 -84s-37.334 -62.666 -50.001 -96.999s-19 -69.833 -19 -106.5c0 -13.333 1.5 -24.333 4.5 -33s4.5 -15.667 4.5 -21c0 -4.66699 -1.66699 -8.33398 -5 -11.001c-4 -2 -7.33301 -3 -10 -3
c-8 0 -14.5 5.16699 -19.5 15.5s-7.5 24.833 -7.5 43.5c0 35.333 6.16699 70.5 18.5 105.5s29 68.667 50 101s45.5 62.666 73.5 90.999s57.833 53.833 89.5 76.5s64.334 41.834 98.001 57.501s66.5 26.834 98.5 33.501c6 0 9 -2.33301 9 -7zM160.002 85.0029
c-76 -54 -138.833 -107.167 -188.5 -159.5s-89 -101.5 -118 -147.5s-49.333 -87.167 -61 -123.5s-17.5 -65.5 -17.5 -87.5c0 -28 6 -42 18 -42c17.333 0 39 15.667 65 47s55 73 87 125s66.167 111.667 102.5 179z" />
    <glyph glyph-name="K" unicode="K" horiz-adv-x="1245" 
d="M1446 703c0 -15.333 -5.33496 -34.499 -16.002 -57.499s-25.167 -47.333 -43.5 -73s-39.666 -51.334 -63.999 -77.001s-49.666 -48.834 -75.999 -69.501s-53.166 -37.334 -80.499 -50.001s-53.333 -19 -78 -19c-8.66699 0 -17.834 1.33301 -27.501 4
s-19.334 5.83398 -29.001 9.50098s-19.334 6.83398 -29.001 9.50098s-19.167 4 -28.5 4c-24 0 -46.333 -7.5 -67 -22.5s-38.667 -34.5 -54 -58.5s-27.333 -50.833 -36 -80.5s-13 -59.167 -13 -88.5c0 -22 2.83301 -43 8.5 -63s14.834 -37.667 27.501 -53
s28.834 -27.5 48.501 -36.5s43.5 -13.5 71.5 -13.5c27.333 0 56.166 4.5 86.499 13.5s59.833 20 88.5 33s55 26.833 79 41.5s43.333 27.667 58 39c0.666992 0.666992 2 1 4 1c2.66699 0 4.83398 -1 6.50098 -3s2.5 -3.66699 2.5 -5s-0.333008 -2.33301 -1 -3
c-11.333 -10 -29.833 -23 -55.5 -39s-55 -31.5 -88 -46.5s-67.833 -27.833 -104.5 -38.5s-71.667 -16 -105 -16c-28.667 0 -53 4.33301 -73 13s-36.333 20.167 -49 34.5s-22 31.333 -28 51s-9 40.5 -9 62.5c0 34 6.16699 69 18.5 105s29.166 68.833 50.499 98.5
s46.333 54 75 73s59 28.5 91 28.5c12 0 22.667 -1.5 32 -4.5s18 -6.33301 26 -10s15.833 -7 23.5 -10s15.834 -4.5 24.501 -4.5c19.333 0 39.5 5.33301 60.5 16s41.5 24.834 61.5 42.501s39.167 37.5 57.5 59.5s34.5 44.167 48.5 66.5s25.5 44 34.5 65
s14.167 38.833 15.5 53.5c0 4 -1.33301 6 -4 6c-2 0 -3.83301 -1.16699 -5.5 -3.5s-5.16699 -3.5 -10.5 -3.5s-8 1.33301 -8 4c0 2 1 4 3 6c3.33301 3.33301 7.83301 6.83301 13.5 10.5s11.667 7.16699 18 10.5s12.5 6.16602 18.5 8.49902s10.667 3.5 14 3.5
c10.667 0 16 -8 16 -24zM962.998 593.001c0 -38.667 -9.99609 -81.0039 -29.9961 -127.004s-47.333 -92.333 -82 -139s-75.334 -92 -122.001 -136s-96.5 -83 -149.5 -117s-108 -61.167 -165 -81.5s-113.167 -30.5 -168.5 -30.5c-42 0 -81.667 5.33301 -119 16
s-70 24.334 -98 41.001s-50.333 35.5 -67 56.5s-25 41.5 -25 61.5c0 2.66699 0.666992 5.16699 2 7.5s4 3.5 8 3.5c2.66699 0 9.16699 -3.16699 19.5 -9.5s25.5 -13.666 45.5 -21.999s45.833 -16.333 77.5 -24s70.167 -12.5 115.5 -14.5c2 0 3.66699 -1.16699 5 -3.5
s2 -4.83301 2 -7.5c0 -3.33301 -1 -5.83301 -3 -7.5s-9 -2.5 -21 -2.5c-9.33301 0 -23.5 1.5 -42.5 4.5s-39.167 6.66699 -60.5 11s-42 9.33301 -62 15s-35.667 11.167 -47 16.5c-2 0 -3 -0.333008 -3 -1v-2c0 -4.66699 6 -13.667 18 -27s29.667 -27 53 -41
s52.833 -26.5 88.5 -37.5s76.834 -16.5 123.501 -16.5c53.333 0 106.666 10 159.999 30s104.5 46.333 153.5 79s94.667 70.167 137 112.5s79 86.166 110 131.499s55.333 90.333 73 135s26.5 85.334 26.5 122.001c0 44.667 -14.5 81 -43.5 109s-76.167 42 -141.5 42
c-28.667 0 -56 -3 -82 -9l-47.5 -58.5c-17.667 -21 -36.5 -40.5 -56.5 -58.5s-40.167 -32.833 -60.5 -44.5s-39.833 -17.5 -58.5 -17.5c-29.333 0 -44 8.33301 -44 25c0 10.667 6.33301 23.5 19 38.5s30 30.167 52 45.5s48.167 30 78.5 44s63.166 25 98.499 33l22 31.5
c6.66699 9.66699 12.667 18.834 18 27.501c2 3.33301 4.66699 6.5 8 9.5s6.66602 4.5 9.99902 4.5s5.5 -1.16699 6.5 -3.5s1.5 -5.16602 1.5 -8.49902l-10 -15c-3.33301 -5.33301 -7.33301 -11.333 -12 -18l-16 -22c14 2.66699 28 4.66699 42 6s28.667 2 44 2
c39.333 0 72.833 -3.83301 100.5 -11.5s50.167 -18.5 67.5 -32.5s30.166 -30.833 38.499 -50.5s12.5 -41.167 12.5 -64.5zM618.002 723.997c-28.667 -8 -55.665 -18.001 -80.998 -30.001s-47.333 -24.167 -66 -36.5s-33.334 -24.333 -44.001 -36s-16 -21.167 -16 -28.5
c0 -8.66699 7.33301 -13 22 -13c15.333 0 31.166 4.33301 47.499 13s32.5 19.834 48.5 33.501s31.667 29 47 46s29.333 34.167 42 51.5z" />
    <glyph glyph-name="L" unicode="L" horiz-adv-x="908" 
d="M1102 763c0 -22.667 -10.002 -44.1689 -30.002 -64.502s-46.5 -38 -79.5 -53s-70.833 -26.833 -113.5 -35.5s-86.667 -13.334 -132 -14.001c-28 -34 -55.833 -71.167 -83.5 -111.5l-84.5 -123.5l-89 -124.5c-30.667 -41 -63 -79.5 -97 -115.5
c54.667 0 106.167 -4.66699 154.5 -14s92.5 -20.833 132.5 -34.5s75.167 -28.334 105.5 -44.001s54.5 -29.5 72.5 -41.5c11.333 -7.33301 17 -12 17 -14s-4 -3.5 -12 -4.5s-13 -1.5 -15 -1.5c-7.33301 0 -14.833 0.833008 -22.5 2.5s-13.167 3.5 -16.5 5.5
c-70.667 44.667 -142.5 75.834 -215.5 93.501s-147.833 27.167 -224.5 28.5c-49.333 -48.667 -103.666 -88.5 -162.999 -119.5s-125.666 -46.5 -198.999 -46.5c-32.667 0 -49 8.33301 -49 25c0 12 9.5 26.833 28.5 44.5s45.667 34.834 80 51.501s75.833 31.5 124.5 44.5
s102.334 20.833 161.001 23.5c32 34 63.167 71.333 93.5 112l91 124l91 124.5c30.333 41 61.5 79.5 93.5 115.5c-29.333 1.33301 -58.166 4.33301 -86.499 9s-55.5 11.834 -81.5 21.501s-50.333 21.834 -73 36.501s-42.667 32 -60 52c-3.33301 4.66699 -5 8.66699 -5 12
s1.33301 5.66602 4 6.99902s5.66699 2 9 2c5.33301 0 12.333 -4.33301 21 -13c37.333 -40 81.333 -68.167 132 -84.5s102.667 -24.5 156 -24.5c23.333 25.333 47.166 48.5 71.499 69.5s49.666 39.167 75.999 54.5s53.5 27.333 81.5 36s57 13 87 13
c17.333 0 29.833 -2.16699 37.5 -6.5s11.5 -10.166 11.5 -17.499zM1057 735.998c0 8 -2.99902 13.999 -8.99902 17.999s-17 6 -33 6c-48.667 0 -93.334 -13.333 -134.001 -40s-80 -62 -118 -106c38.667 1.33301 75.667 6.16602 111 14.499s66.5 18.333 93.5 30
s48.667 24.334 65 38.001s24.5 26.834 24.5 39.501zM329.999 96.9971c-48.667 -1.33301 -93.001 -6.83301 -133.001 -16.5s-74.167 -21 -102.5 -34s-50.166 -26.167 -65.499 -39.5s-23 -24.666 -23 -33.999c0 -13.333 13.333 -20 40 -20c54 0 104.167 13.167 150.5 39.5
s90.833 61.166 133.5 104.499z" />
    <glyph glyph-name="M" unicode="M" horiz-adv-x="1021" 
d="M1062 88c0 -1.33301 -0.334961 -2.32227 -1.00195 -2.98926c-17.333 -14 -37.666 -28.333 -60.999 -43s-47.333 -27.834 -72 -39.501s-49.167 -21.167 -73.5 -28.5s-46.166 -11 -65.499 -11c-20.667 0 -37.334 4.83301 -50.001 14.5s-19 26.167 -19 49.5
c0 19.333 4.33301 41.333 13 66s19.834 50.5 33.501 77.5s28.834 54.167 45.501 81.5l49 77.5l44 66c13.333 19.667 23.666 35.5 30.999 47.5c0.666992 1.33301 1 2.66602 1 3.99902c0 2.66699 -1.33301 4 -4 4c-1.33301 0 -4.66602 -2 -9.99902 -6l-262 -241.5l-284 -252.5
l-19 -16c-5.33301 -4.66699 -10.333 -7 -15 -7c-3.33301 0 -6 1.5 -8 4.5s-3 6.16699 -3 9.5c0 5.33301 1.66699 11.333 5 18s8.66602 14.667 15.999 24l65 91l70 105l67.5 108.5c21.667 36.333 41 70.666 58 102.999s30.5 61.5 40.5 87.5s15 46.667 15 62
s-4.33301 27.5 -13 36.5s-22.667 13.5 -42 13.5c-20 0 -41 -3.83301 -63 -11.5s-44.833 -18.334 -68.5 -32.001s-47.834 -29.667 -72.501 -48s-49.334 -38.5 -74.001 -60.5c-13.333 -38.667 -29.833 -78 -49.5 -118s-41 -78.667 -64 -116s-46.5 -72.5 -70.5 -105.5
s-47 -61.833 -69 -86.5s-42.167 -44.167 -60.5 -58.5s-32.833 -21.5 -43.5 -21.5c-16.667 0 -25 8.33301 -25 25c0 18.667 9.5 45.5 28.5 80.5s44.5 74 76.5 117s68.833 87.833 110.5 134.5s84.834 90.667 129.501 132c9.33301 28 17 55.5 23 82.5s9 52.167 9 75.5
c0 22.667 -2.83301 43.334 -8.5 62.001s-15 34.834 -28 48.501s-30 24.167 -51 31.5s-46.5 11 -76.5 11c-8 0 -15.833 -0.333008 -23.5 -1l-22.5 -2c-12 -21.333 -27.167 -44.333 -45.5 -69s-38.333 -47.334 -60 -68.001s-44.334 -37.834 -68.001 -51.501
s-46.834 -20.5 -69.501 -20.5c-15.333 0 -26.5 3 -33.5 9s-10.5 13.667 -10.5 23c0 13.333 6.33301 29.166 19 47.499s30.834 36.666 54.501 54.999s52.334 35.333 86.001 51s71.167 27.167 112.5 34.5c8 15.333 15 30.333 21 45c6 8.66699 12.333 13 19 13
c2.66699 0 4 -0.666992 4 -2s-0.166992 -2.5 -0.5 -3.5s-0.5 -2.5 -0.5 -4.5c-2 -6 -4.5 -12.667 -7.5 -20s-7.16699 -15.333 -12.5 -24c11.333 1.33301 22.833 2.5 34.5 3.5s23.834 1.5 36.501 1.5c30 0 55.667 -3.83301 77 -11.5s38.666 -18.334 51.999 -32.001
s23 -30 29 -49s9 -39.833 9 -62.5c0 -20 -2.16699 -41.333 -6.5 -64s-10.166 -46 -17.499 -70c25.333 22 50.666 42.167 75.999 60.5s50 34.166 74 47.499s47.167 23.666 69.5 30.999s42.833 11 61.5 11c23.333 0 42.166 -5.66699 56.499 -17s21.5 -29.333 21.5 -54
c0 -19.333 -5.5 -43 -16.5 -71s-25.167 -58.167 -42.5 -90.5s-37.166 -66 -59.499 -101l-67 -102.5l-64.5 -95l-53 -79l-1 -3c4 0.666992 17 10 39 28l82 70.5l109 97.5l120 108l114 103.5l91 82.5c7.33301 7.33301 14 11 20 11c3.33301 0 6.33301 -2.33301 9 -7
s4 -8.66699 4 -12c0 -4.66699 -2 -10.667 -6 -18s-11.667 -19.333 -23 -36c-6.66699 -6.66699 -16.334 -18.834 -29.001 -36.501s-26.667 -38.334 -42 -62.001s-31 -49.167 -47 -76.5s-30.5 -54.5 -43.5 -81.5s-23.667 -52.333 -32 -76s-12.5 -43.5 -12.5 -59.5
c0 -18 5 -30.667 15 -38s23 -11 39 -11c16.667 0 35.834 3.5 57.501 10.5s43.667 15.833 66 26.5s44 22.5 65 35.5s39.5 25.5 55.5 37.5c0.666992 0.666992 2 1 4 1c2.66699 0 4.83398 -1 6.50098 -3s2.5 -3.66699 2.5 -5zM98.998 727.011
c-34.667 -6 -66.6641 -15.666 -95.9971 -28.999s-54.5 -27.833 -75.5 -43.5s-37.333 -31.167 -49 -46.5s-17.5 -28.333 -17.5 -39c0 -14.667 10.667 -22 32 -22c15.333 0 32.166 4.66699 50.499 14s36.666 22.166 54.999 38.499s36.166 35.5 53.499 57.5s33 45.333 47 70z
M290.001 397.012c-40 -38.667 -77.999 -79.166 -113.999 -121.499s-67.833 -82.5 -95.5 -120.5s-49.5 -71.833 -65.5 -101.5s-24 -51.5 -24 -65.5c0 -10 4.33301 -15 13 -15c7.33301 0 17.666 5.66699 30.999 17s28.5 27.166 45.5 47.499s35 44 54 71s37.833 56.333 56.5 88
s36.667 64.5 54 98.5s32.333 68 45 102z" />
    <glyph glyph-name="N" unicode="N" horiz-adv-x="553" 
d="M665 564c0 -20.667 -8.00098 -47.1709 -24.001 -79.5039s-35.833 -67.833 -59.5 -106.5l-77.5 -121c-28 -42 -53.833 -83 -77.5 -123s-43.5 -77.667 -59.5 -113s-24 -65.333 -24 -90c0 -21.333 2.16699 -39 6.5 -53s15.166 -27.333 32.499 -40
c2.66699 -2 4 -3.33301 4 -4s-0.666992 -1.66699 -2 -3c-0.666992 -0.666992 -1.66699 -1 -3 -1c-4.66699 0.666992 -10.667 3.16699 -18 7.5s-14.666 11.166 -21.999 20.499s-13.666 21.333 -18.999 36s-8 32.334 -8 53.001c0 32 7.83301 66.5 23.5 103.5
s35.5 74.833 59.5 113.5s49.667 77.167 77 115.5l77 109.5c24 34.667 43.833 66.834 59.5 96.501s23.5 54.834 23.5 75.501c0 11.333 -3.66699 19.833 -11 25.5s-17.333 8.5 -30 8.5c-27.333 0 -60.5 -12.333 -99.5 -37s-80.5 -56.667 -124.5 -96
c-14 -38.667 -31.667 -78.5 -53 -119.5s-44.333 -80.833 -69 -119.5s-49.834 -75 -75.501 -109s-49.334 -63.667 -71.001 -89s-40.5 -45.5 -56.5 -60.5s-27 -22.5 -33 -22.5c-5.33301 0 -9.83301 1 -13.5 3s-5.5 6.66699 -5.5 14c0 22 9.16699 51.833 27.5 89.5
s42.833 78.5 73.5 122.5s66 89.167 106 135.5s81.333 89.833 124 130.5c11.333 30 20.166 58.833 26.499 86.5s9.5 53.834 9.5 78.501c0 22 -2.83301 42 -8.5 60s-15 33.5 -28 46.5s-30 23 -51 30s-46.5 10.5 -76.5 10.5c-20.667 0 -41 -2 -61 -6
c-14 -20.667 -30.333 -43.334 -49 -68.001s-38.5 -47.5 -59.5 -68.5s-42.5 -38.667 -64.5 -53s-43.333 -21.5 -64 -21.5c-19.333 0 -29 8 -29 24c0 12 6.33301 27.5 19 46.5s30.167 38.167 52.5 57.5s48.833 37.333 79.5 54s64.334 29 101.001 37l15.5 26.5
c5 8.33301 10.167 16.5 15.5 24.5c3.33301 4 6 8.33301 8 13c3.33301 6 8.33301 9 15 9c4 0 6 -1.66699 6 -5c0 -2 -0.333008 -3.66699 -1 -5c-3.33301 -4.66699 -6.66602 -10 -9.99902 -16l-11.5 -18.5l-15.5 -24.5c9.33301 1.33301 18.833 2.5 28.5 3.5s19.5 1.5 29.5 1.5
c36 0 66.667 -3.83301 92 -11.5s45.833 -18.5 61.5 -32.5s27 -30.667 34 -50s10.5 -40.666 10.5 -63.999c0 -18 -1.83301 -36.667 -5.5 -56s-8.83398 -39.666 -15.501 -60.999c44.667 38 87.834 68.833 129.501 92.5s78.5 35.5 110.5 35.5
c14.667 0 26.334 -4.66699 35.001 -14s13 -21 13 -35zM112.999 738.996c-31.333 -8 -60.332 -19.166 -86.999 -33.499s-49.667 -29.5 -69 -45.5s-34.5 -31.5 -45.5 -46.5s-16.5 -26.833 -16.5 -35.5c0 -9.33301 5.66699 -14 17 -14c20 0 39.167 5.16699 57.5 15.5
s35.833 23.666 52.5 39.999s32.667 35 48 56s29.666 42.167 42.999 63.5zM310 405.997c-38 -38 -74.832 -78.332 -110.499 -120.999s-67.5 -83.834 -95.5 -123.501s-50.333 -76 -67 -109s-25 -59.5 -25 -79.5c0 -4.66699 2 -7 6 -7c7.33301 0 22.5 13 45.5 39
s49.167 60 78.5 102s59.166 89.167 89.499 141.5s56.5 104.833 78.5 157.5z" />
    <glyph glyph-name="O" unicode="O" horiz-adv-x="583" 
d="M737 279c0 -5.33301 -3.83398 -10.6689 -11.501 -16.002s-17 -10.166 -28 -14.499s-22.5 -7.83301 -34.5 -10.5s-22.333 -4 -31 -4c-19.333 0 -35.5 2.5 -48.5 7.5s-23.833 12.167 -32.5 21.5c-27.333 -38.667 -57.166 -76.167 -89.499 -112.5
s-65.666 -68.666 -99.999 -96.999s-69.5 -51.166 -105.5 -68.499s-71 -26 -105 -26c-51.333 0 -88.333 12.667 -111 38s-34 58.333 -34 99c0 36 7.83301 76 23.5 120s37.167 88.5 64.5 133.5s59.5 88.833 96.5 131.5s76.833 80.667 119.5 114s87.167 60 133.5 80
s92.5 30 138.5 30c25.333 0 45 -5.5 59 -16.5s21.333 -23.5 22 -37.5c0 -6 -2.66699 -10.333 -8 -13c-2.66699 -1.33301 -5.33398 -2.33301 -8.00098 -3c-3.33301 0 -5.33301 2.33301 -6 7c-4 19.333 -13.5 32.5 -28.5 39.5s-29.5 10.5 -43.5 10.5
c-40 0 -80.5 -9.83301 -121.5 -29.5s-80.333 -45.667 -118 -78s-73 -69.333 -106 -111s-61.667 -84.334 -86 -128.001s-43.5 -86.5 -57.5 -128.5s-21 -80 -21 -114c0 -36.667 9.16699 -66.167 27.5 -88.5s48.166 -33.5 89.499 -33.5c28 0 57.833 8.66699 89.5 26
s63.334 40 95.001 68s62.667 60 93 96s58.5 72.667 84.5 110c-8.66699 16.667 -13 36.667 -13 60c0 26 4.83301 53.833 14.5 83.5s21.834 56.834 36.501 81.501s30.5 45.167 47.5 61.5s32.833 24.5 47.5 24.5s22 -10 22 -30c0 -12.667 -2.83301 -28.667 -8.5 -48
s-13.834 -40.833 -24.501 -64.5s-23.5 -48.834 -38.5 -75.501s-31.833 -54 -50.5 -82c6.66699 -11.333 16 -20.166 28 -26.499s27.667 -9.5 47 -9.5c15.333 0 30 3.16699 44 9.5s24.667 12.166 32 17.499c2 0.666992 4.66699 1 8 1c4.66699 0 7 -1.66699 7 -5z
M664.999 540.997c0 15.333 -6 23.0039 -18 23.0039c-6.66699 0 -15 -6.83301 -25 -20.5s-19.833 -30.834 -29.5 -51.501s-18 -43.334 -25 -68.001s-10.5 -48.334 -10.5 -71.001c0 -14.667 1.33301 -27.334 4 -38.001c31.333 48 56.5 92.5 75.5 133.5s28.5 71.833 28.5 92.5z
" />
    <glyph glyph-name="P" unicode="P" horiz-adv-x="411" 
d="M886 658c0 -18 -4.33301 -37.999 -13 -59.999s-21.167 -44.167 -37.5 -66.5s-36.166 -44 -59.499 -65s-49.333 -39.667 -78 -56s-59.667 -29.5 -93 -39.5s-68.333 -15 -105 -15c-20.667 0 -38.667 2 -54 6s-28 9.16699 -38 15.5s-17.333 13 -22 20s-7 13.5 -7 19.5
c0 13.333 8.66699 20 26 20c2.66699 0 4.66699 -2.66699 6 -8l4 -16c6 -8 14 -14.333 24 -19s20.667 -8.16699 32 -10.5s22.666 -3.83301 33.999 -4.5s21.333 -1 30 -1c43.333 0 84.166 9.33301 122.499 28s71.833 41.5 100.5 68.5s51.167 55.667 67.5 86
s24.5 57.5 24.5 81.5c0 19.333 -5.83301 35 -17.5 47s-30.5 18 -56.5 18c-19.333 0 -39.5 -3 -60.5 -9s-42.333 -14 -64 -24s-42.834 -21.333 -63.501 -34s-40.667 -25.667 -60 -39c-44.667 -31.333 -88.667 -67 -132 -107c-6 -5.33301 -14.833 -17.666 -26.5 -36.999
l-40.5 -69.5l-50.5 -90l-57 -100l-59.5 -98c-20 -31.667 -39.167 -59.834 -57.5 -84.501s-35.666 -44.334 -51.999 -59.001s-30.833 -22 -43.5 -22c-19.333 0 -29 9 -29 27c0 14.667 6.16699 34.5 18.5 59.5s28.666 52.833 48.999 83.5s43.5 62.834 69.5 96.501l79.5 100
l80 94.5l70.5 78c0 0.666992 -1 1 -3 1h-3c-0.666992 0 -1 -0.333008 -1 -1c-8.66699 -6 -23.167 -16.667 -43.5 -32s-43.333 -31 -69 -47s-52.667 -30.167 -81 -42.5s-54.5 -18.5 -78.5 -18.5c-20.667 0 -37.167 2.5 -49.5 7.5s-21.833 10.833 -28.5 17.5
s-11 13.5 -13 20.5s-3.33301 12.167 -4 15.5c0 2 0.833008 6.66699 2.5 14s4.83398 11.333 9.50098 12c3.33301 0 5.83301 -2.66699 7.5 -8s5.16699 -12 10.5 -20c8.66699 -11.333 20.167 -19 34.5 -23s29.166 -6 44.499 -6c18 0 36.667 3 56 9s38.833 13.833 58.5 23.5
s39 20.667 58 33s37.167 24.833 54.5 37.5c40.667 30 80.667 64 120 102c1.33301 0 2 -0.666992 2 -2c0 -2 -0.333008 -3.33301 -1 -4c-1.33301 -4 -2.16602 -8.33301 -2.49902 -13s-0.5 -9.33398 -0.5 -14.001c41.333 36 83.666 68.333 126.999 97
c18.667 12 38.334 23.833 59.001 35.5s41.834 22 63.501 31s43.5 16.333 65.5 22s43.333 8.5 64 8.5c28 0 48.333 -6.5 61 -19.5s19 -30.167 19 -51.5zM336 439.001c-12 -12 -28.3359 -29.832 -49.0029 -53.499l-66 -79.5l-71.5 -92.5
c-24.333 -32.333 -46.166 -63.333 -65.499 -93s-35.166 -56.834 -47.499 -81.501s-18.5 -44 -18.5 -58c0 -11.333 4.33301 -18 13 -20c7.33301 0.666992 19.833 12.5 37.5 35.5s37.834 51.833 60.501 86.5l70 112.5l66.5 113.5l50 89.5c13 24.333 19.833 37.833 20.5 40.5z
" />
    <glyph glyph-name="Q" unicode="Q" horiz-adv-x="845" 
d="M845 -45c0 -5.33301 -2.16992 -9.83203 -6.50293 -13.499s-9.16602 -5.5 -14.499 -5.5c-8 0 -18.667 2.33301 -32 7c-2 0.666992 -13.833 4.16699 -35.5 10.5s-50.667 14 -87 23s-78.666 18.333 -126.999 28s-100.166 18.5 -155.499 26.5
c-48 -23.333 -97.5 -41.833 -148.5 -55.5s-102.5 -20.5 -154.5 -20.5c-54.667 0 -96.5 6 -125.5 18s-43.5 25.667 -43.5 41c0 16 17.5 30.833 52.5 44.5s89.5 20.5 163.5 20.5c36 0 76.833 -1 122.5 -3s95.5 -6.66699 149.5 -14c54 32 104.333 69.333 151 112
s87.167 87 121.5 133s61.5 91.667 81.5 137s30 87 30 125c0 22 -3.66699 42.167 -11 60.5s-18.833 34 -34.5 47s-35.834 23.167 -60.501 30.5s-54.334 11 -89.001 11c-14 0 -27.5 -0.666992 -40.5 -2s-25.833 -3.33301 -38.5 -6c-14 -18.667 -30.167 -38.5 -48.5 -59.5
s-37.5 -40.333 -57.5 -58s-40.167 -32.167 -60.5 -43.5s-39.5 -17 -57.5 -17c-16.667 0 -25 6.66699 -25 20c0 10 5.33301 22.833 16 38.5s26 31.5 46 47.5s44.667 31.333 74 46s62.666 26 99.999 34c10.667 15.333 20.334 30 29.001 44c1.33301 4 3.33301 7.33301 6 10
c2 2.66699 4 5 6 7s3.66699 3 5 3c4 -0.666992 6 -3 6 -7c0 -2.66699 -0.5 -5.16699 -1.5 -7.5s-1.83301 -4.16602 -2.5 -5.49902l-11 -18c-4 -6.66699 -8.66699 -13.667 -14 -21c30.667 5.33301 61.667 8 93 8c38.667 0 71.834 -4 99.501 -12s50.5 -19 68.5 -33
s31.167 -30.833 39.5 -50.5s12.5 -41.5 12.5 -65.5c0 -38.667 -10.167 -80.834 -30.5 -126.501s-48.166 -91.667 -83.499 -138s-77.333 -91 -126 -134s-101.667 -80.833 -159 -113.5c58.667 -8.66699 121 -20.334 187 -35.001s136.333 -34 211 -58
c6.66699 -2 10 -5.33301 10 -10zM489.997 704.001c-30.667 -8 -58.667 -18.4971 -84 -31.4971s-47.166 -26.5 -65.499 -40.5s-32.5 -27.333 -42.5 -40s-15 -22.334 -15 -29.001c0 -6 3.66699 -9 11 -9c11.333 0 24.666 3.66699 39.999 11s31.833 17.666 49.5 30.999
s35.667 29.166 54 47.499s35.833 38.5 52.5 60.5zM353.997 35.0039c-38 5.33301 -76.498 9.33398 -115.498 12.001s-78.167 4 -117.5 4c-63.333 0 -110 -4.33301 -140 -13s-45 -18.334 -45 -29.001c0 -10 13.667 -19 41 -27s68.666 -12 123.999 -12
c42.667 0 85.167 5.83301 127.5 17.5s84.166 27.5 125.499 47.5z" />
    <glyph glyph-name="R" unicode="R" horiz-adv-x="702" 
d="M935 651c0 -26 -10.5146 -55.9951 -31.5146 -89.9951s-48.667 -66.5 -83 -97.5s-73.333 -57.167 -117 -78.5s-88.167 -32 -133.5 -32c-9.33301 0 -19.333 1 -30 3s-21.5 4.33301 -32.5 7s-21.667 5 -32 7s-20.166 3 -29.499 3c-17.333 0 -32.833 -6.83301 -46.5 -20.5
s-25.334 -31.334 -35.001 -53.001s-17.167 -46.167 -22.5 -73.5s-8 -54.666 -8 -81.999c0 -24 2 -47 6 -69s10.5 -41.5 19.5 -58.5s20.333 -30.667 34 -41s29.834 -15.5 48.501 -15.5c24.667 0 50.667 4.83301 78 14.5s54.166 21.5 80.499 35.5s50.833 28.833 73.5 44.5
s41.334 29.167 56.001 40.5c0.666992 0.666992 2 1 4 1c2.66699 0 4.83398 -1 6.50098 -3s2.5 -3.66699 2.5 -5s-0.333008 -2.33301 -1 -3c-11.333 -10.667 -28.666 -24.167 -51.999 -40.5s-49.666 -32.333 -78.999 -48s-60.166 -29.167 -92.499 -40.5
s-62.833 -17 -91.5 -17c-18.667 0 -36.167 3 -52.5 9s-30.5 16.167 -42.5 30.5s-21.5 33.166 -28.5 56.499s-10.5 52 -10.5 86c0 32 5.16699 64.5 15.5 97.5s24 63 41 90s36.333 49.167 58 66.5s43.834 26 66.501 26c7.33301 0 16.5 -1.16699 27.5 -3.5l36 -7.5
c13 -2.66699 26.667 -5.16699 41 -7.5s28.833 -3.5 43.5 -3.5c16.667 0 34.834 4.66699 54.501 14s39.334 21.5 59.001 36.5s38.834 32.333 57.501 52s35.167 39.5 49.5 59.5s25.833 39.5 34.5 58.5s13 35.833 13 50.5c0 14 -4.5 25.333 -13.5 34s-24.167 13 -45.5 13
c-31.333 0 -64.5 -6.33301 -99.5 -19s-70.833 -29.834 -107.5 -51.501s-73.5 -47 -110.5 -76s-73.167 -60.167 -108.5 -93.5l-44.5 -74l-45.5 -74.5l-39.5 -63.5c-11.667 -18.667 -20.167 -32.667 -25.5 -42l-29 -44.5l-37 -55.5l-42 -58.5
c-14.667 -19.667 -28.667 -37.167 -42 -52.5s-25.833 -27.833 -37.5 -37.5s-21.5 -14.5 -29.5 -14.5c-12 0 -18 7 -18 21c0 16.667 8.5 42 25.5 76s40.5 72.667 70.5 116s65.5 89.333 106.5 138s85.167 96 132.5 142c4 7.33301 8.33301 14.833 13 22.5l15 25.5l2 4
c0 1.33301 -0.666992 2 -2 2s-3.33301 -1.33301 -6 -4c-0.666992 -0.666992 -1.16699 -1.33398 -1.5 -2.00098s-1.16602 -1.33398 -2.49902 -2.00098c-7.33301 -7.33301 -20.166 -18.5 -38.499 -33.5s-40.5 -30.167 -66.5 -45.5s-54.833 -28.666 -86.5 -39.999
s-64.167 -17 -97.5 -17c-18 0 -32.167 1.83301 -42.5 5.5s-18.166 8.16699 -23.499 13.5s-8.83301 11.166 -10.5 17.499s-2.5 11.833 -2.5 16.5c0 5.33301 0.833008 11.333 2.5 18s4.5 10 8.5 10c2.66699 0 5 -2.66699 7 -8s6 -11.333 12 -18s14.833 -12.667 26.5 -18
s28.167 -8 49.5 -8c28.667 0 56.834 5 84.501 15s54 22.333 79 37s48.333 30.834 70 48.501l57.5 48.5l41 37c10.667 10 17.667 15 21 15c2 0 3 -1 3 -3c0 -4 -2.5 -11.167 -7.5 -21.5l-19.5 -38.5c34 29.333 68.833 56.333 104.5 81s71.334 46.167 107.001 64.5
s71 32.666 106 42.999s68.833 15.5 101.5 15.5c28.667 0 49.334 -5.83301 62.001 -17.5s19 -26.834 19 -45.501zM312.985 366.005c-38.667 -40.667 -74.834 -81.3311 -108.501 -121.998s-62.667 -78.334 -87 -113.001s-43.5 -64.834 -57.5 -90.501s-21 -44.167 -21 -55.5
c0 -7.33301 3.33301 -11 10 -11c4 0 8.33301 1.5 13 4.5s11.834 10.833 21.501 23.5s23 32 40 58l69.5 108l40.5 63.5l31 50.5l25 43z" />
    <glyph glyph-name="S" unicode="S" horiz-adv-x="896" 
d="M1133 763c0 -7.33301 -3.50488 -19.498 -10.5049 -36.498s-21.5 -40 -43.5 -69s-53.833 -64.833 -95.5 -107.5s-97.167 -93 -166.5 -151c-14 -35.333 -28.833 -70.833 -44.5 -106.5s-33.667 -70.334 -54 -104.001s-43.166 -65.167 -68.499 -94.5
s-54.666 -55.333 -87.999 -78c8.66699 -0.666992 17.334 -1 26.001 -1h26c54.667 0 105 3.83301 151 11.5s84.333 20.5 115 38.5c8.66699 5.33301 16.667 10.5 24 15.5s13.666 9.83301 18.999 14.5c0.666992 0.666992 2 1 4 1c2.66699 0 4.83398 -1 6.50098 -3
s2.5 -3.66699 2.5 -5s-0.333008 -2.33301 -1 -3c-8.66699 -8.66699 -21 -18 -37 -28c-36 -22 -80 -37.667 -132 -47s-109 -14 -171 -14c-10.667 0 -21.167 0.166992 -31.5 0.5s-20.833 0.833008 -31.5 1.5c-35.333 -20 -74.5 -35.833 -117.5 -47.5s-91.5 -17.5 -145.5 -17.5
c-13.333 0 -26.5 0.666992 -39.5 2s-25.833 3 -38.5 5l-79 -53l-83 -55c-8 -5.33301 -13.667 -8 -17 -8c-2 0 -3 1 -3 3c0 1.33301 0.5 3.16602 1.5 5.49902s1.83301 3.83301 2.5 4.5l79.5 53.5l76.5 52.5c-53.333 11.333 -101.666 31.5 -144.999 60.5
s-78.333 66.167 -105 111.5c-8 14 -12 22.667 -12 26s1.16699 6.33301 3.5 9s4.83301 4 7.5 4c4 0 10.667 -2.66699 20 -8c18.667 -9.33301 41.5 -18.833 68.5 -28.5s56.667 -19 89 -28s66.833 -17.5 103.5 -25.5s74.334 -15.333 113.001 -22l252 184
c76.667 58 145.667 112.667 207 164l38.5 95.5c12.333 31 25.833 60.833 40.5 89.5c17.333 34 37.833 63.833 61.5 89.5s47.667 47 72 64s47.5 29.833 69.5 38.5s40 13 54 13c17.333 0 26 -5.66699 26 -17zM1090 738.002c0 11.333 -5.99902 17.001 -17.999 17.001
c-10 0 -22.833 -4.16699 -38.5 -12.5s-32.167 -19.833 -49.5 -34.5s-34.333 -32.334 -51 -53.001s-30.667 -43.667 -42 -69c-10 -22 -19.833 -45.167 -29.5 -69.5l-29.5 -75.5c83.333 71.333 147.166 132.333 191.499 183s66.5 88.667 66.5 114zM753.996 348.003
l-183.497 -141.503l-233.5 -167.5c31.333 -5.33301 62.666 -9.66602 93.999 -12.999s62.666 -6 93.999 -8c28.667 18.667 54.167 40.334 76.5 65.001s42.666 51.334 60.999 80.001s35 58.667 50 90s28.833 63 41.5 95zM493.999 0
c-30 1.33301 -60.3311 3.66797 -90.998 7.00098s-61.334 7.66602 -92.001 12.999l-49 -32.5l-51 -33.5c10 -1.33301 20 -2.5 30 -3.5s20.333 -1.5 31 -1.5c45.333 0 86.166 4.5 122.499 13.5s69.5 21.5 99.5 37.5zM287.001 24.002
c-64.667 11.333 -126.332 24.667 -184.999 40s-110.334 31.666 -155.001 48.999c-2 0 -3 -0.666992 -3 -2c32 -42.667 69 -76.667 111 -102s86.667 -42.666 134 -51.999l49.5 33.5z" />
    <glyph glyph-name="T" unicode="T" horiz-adv-x="981" 
d="M1085 588c0 -37.333 -9.17285 -77.9922 -27.5059 -121.992s-44 -88.333 -77 -133s-71.833 -88.334 -116.5 -131.001s-93.667 -81.334 -147 -116.001c40 4.66699 79.333 10.167 118 16.5s76.334 13.833 113.001 22.5c1.33301 0.666992 3.66602 1 6.99902 1
c4.66699 0 8 -1 10 -3s3 -4 3 -6c0 -2.66699 -3.33301 -5.33398 -10 -8.00098c-3.33301 -1.33301 -13.666 -4 -30.999 -8s-39.166 -8.5 -65.499 -13.5s-56.333 -10.333 -90 -16s-68.5 -10.834 -104.5 -15.501c-58.667 -34 -119.5 -60.833 -182.5 -80.5
s-126.833 -29.5 -191.5 -29.5c-48 0 -91.667 6.5 -131 19.5s-73.333 29.167 -102 48.5s-50.834 40 -66.501 62s-23.5 41.667 -23.5 59c0 3.33301 0.833008 7 2.5 11s4.16699 6 7.5 6c1.33301 0 2.33301 -0.333008 3 -1c62 -24.667 134.333 -43.834 217 -57.501
s180.334 -20.5 293.001 -20.5c27.333 0 55.666 0.666992 84.999 2s59.333 3.66602 90 6.99902c51.333 33.333 98.666 71.333 141.999 114s80.833 86.5 112.5 131.5s56.5 89.833 74.5 134.5s27 85.667 27 123c0 23.333 -3.83301 44.833 -11.5 64.5s-19.667 36.5 -36 50.5
s-37.166 25 -62.499 33s-55.666 12 -90.999 12c-21.333 0 -42.666 -1.5 -63.999 -4.5s-42.666 -7.16699 -63.999 -12.5c-16.667 -20 -36.167 -40.833 -58.5 -62.5s-45.666 -41.5 -69.999 -59.5s-49.166 -32.833 -74.499 -44.5s-50 -17.5 -74 -17.5c-22 0 -33 6.33301 -33 19
c0 10 7.5 23.167 22.5 39.5s35.667 33 62 50s57.833 33.667 94.5 50s76.667 29.5 120 39.5c15.333 17.333 30.333 36.333 45 57c5.33301 7.33301 9.66602 11 12.999 11c2.66699 0 4 -3 4 -9c0 -2 -0.666992 -4.33301 -2 -7c-4 -6.66699 -8.66699 -13.834 -14 -21.501
s-11.666 -15.834 -18.999 -24.501c21.333 4 42.666 7.16699 63.999 9.5s43.333 3.5 66 3.5c43.333 0 80.333 -4.33301 111 -13s55.834 -20.667 75.501 -36s34.167 -33.5 43.5 -54.5s14 -44.167 14 -69.5zM664.994 720.008c-34 -10 -66 -21.835 -96 -35.502
s-56.333 -27.5 -79 -41.5s-40.5 -27.167 -53.5 -39.5s-19.5 -21.833 -19.5 -28.5s6.66699 -10 20 -10c10 0 22.833 3 38.5 9s33.5 15.333 53.5 28s41.5 28.834 64.5 48.501s46.833 42.834 71.5 69.501zM614.994 50.0059c-22.667 -2.66699 -45 -4.49902 -67 -5.49902
s-43.333 -1.5 -64 -1.5c-50.667 0 -97 1.5 -139 4.5s-81.5 7.33301 -118.5 13s-73.167 12.667 -108.5 21s-72 17.833 -110 28.5c-1.33301 0 -2.33301 -0.333008 -3 -1s-1 -1.33398 -1 -2.00098c0 -6 5.5 -16.833 16.5 -32.5s28.667 -31.667 53 -48s56 -30.833 95 -43.5
s86.5 -19 142.5 -19c52.667 0 104.5 7.83301 155.5 23.5s100.5 36.5 148.5 62.5z" />
    <glyph glyph-name="U" unicode="U" 
d="M695 637c0 -13.333 -7.66406 -33.3291 -22.9971 -59.9961s-36 -57.334 -62 -92.001s-56.167 -71.667 -90.5 -111l-107.5 -118c-19.333 -46 -35.333 -89.167 -48 -129.5s-19 -72.833 -19 -97.5c0 -16.667 3 -28.5 9 -35.5s14.667 -10.5 26 -10.5
c12 0 26.333 3.66699 43 11s34.167 16.5 52.5 27.5s36.833 23 55.5 36l53 37.5c0.666992 0.666992 2 1 4 1c2.66699 0 4.83398 -1 6.50098 -3s2.5 -3.66699 2.5 -5s-0.333008 -2.33301 -1 -3c-19.333 -14.667 -39.666 -29.334 -60.999 -44.001s-42.5 -27.5 -63.5 -38.5
s-41 -20 -60 -27s-35.833 -10.5 -50.5 -10.5c-15.333 0 -27.666 4.5 -36.999 13.5s-14 24.167 -14 45.5s3.83301 46.833 11.5 76.5s18.167 61.5 31.5 95.5c-32 -31.333 -63.667 -60.666 -95 -87.999s-61.166 -51.333 -89.499 -72s-54.333 -36.834 -78 -48.501
s-43.5 -17.5 -59.5 -17.5c-26 0 -39 17 -39 51c0 17.333 8 40.166 24 68.499s36 60 60 95l78 111c28 39 54 77.5 78 115.5s44 74.667 60 110s24 66.333 24 93c0 28 -10.833 50.5 -32.5 67.5s-58.834 25.5 -111.501 25.5c-12.667 0 -24.667 -0.5 -36 -1.5
s-22.666 -2.16699 -33.999 -3.5l-59 -62.5c-21.333 -21.667 -42.833 -41.334 -64.5 -59.001s-42.334 -32.334 -62.001 -44.001s-37.167 -17.5 -52.5 -17.5c-24 0 -36 8.33301 -36 25c0 12 6.33301 26.5 19 43.5s30.667 34 54 51s51.166 33 83.499 48
s68.166 25.833 107.499 32.5l25 30.5l23 28.5c3.33301 4 6 6 8 6c2.66699 0 5.5 -1.66699 8.5 -5s4.5 -5.66602 4.5 -6.99902c0 -2 -0.666992 -3.66699 -2 -5l-17.5 -20l-20.5 -23c18 2 36.333 3 55 3c68 0 115.833 -9.83301 143.5 -29.5s41.5 -46.167 41.5 -79.5
c0 -28.667 -8.33301 -61 -25 -97s-37.334 -73.167 -62.001 -111.5s-51.667 -76.833 -81 -115.5l-81 -109.5c-24.667 -34.333 -45.334 -65.166 -62.001 -92.499s-25 -49 -25 -65c0 -7.33301 1.83301 -14.5 5.5 -21.5s10.834 -10.5 21.501 -10.5
c15.333 0 34.666 6.66699 57.999 20s49.166 31.5 77.499 54.5s58.5 49.5 90.5 79.5s64 61.667 96 95c21.333 48 45.666 96.167 72.999 144.5s55 92.166 83 131.499s55 71.333 81 96s48.333 37 67 37c11.333 0 17 -5.33301 17 -16zM667.003 620.004
c0 4.66699 -2.33203 7.00098 -6.99902 7.00098c-11.333 0 -25.833 -8.83301 -43.5 -26.5s-36.5 -41.167 -56.5 -70.5s-40.5 -62.833 -61.5 -100.5s-40.833 -76.167 -59.5 -115.5c31.333 34 60.666 67.667 87.999 101l72.5 91c21 27.333 37.5 51.166 49.5 71.499
s18 34.5 18 42.5zM73.0039 698.005c-34.667 -6 -65.001 -14.8301 -91.001 -26.4971s-47.833 -23.834 -65.5 -36.501s-31 -25 -40 -37s-13.5 -22 -13.5 -30c0 -9.33301 5.33301 -14 16 -14c12.667 0 26.834 4.16699 42.501 12.5s32 19.166 49 32.499s34.333 28.666 52 45.999
s34.5 35 50.5 53z" />
    <glyph glyph-name="V" unicode="V" horiz-adv-x="449" 
d="M608 491c-1.33301 -3.33301 -3.33594 -5.00293 -6.00293 -5.00293s-5.33398 1.33301 -8.00098 4l-8.5 8.5l-11.5 11c-4 3.66699 -7.66699 6.83398 -11 9.50098s-5.33301 4 -6 4c-3.33301 0 -6 -3 -8 -9c-8 -38 -21.167 -78.167 -39.5 -120.5s-40.333 -84.333 -66 -126
s-53.834 -81.5 -84.501 -119.5s-62.167 -71.5 -94.5 -100.5s-64.666 -52.167 -96.999 -69.5s-63.166 -26 -92.499 -26c-21.333 0 -38.666 5.83301 -51.999 17.5s-20 29.834 -20 54.501c0 30.667 7 61.5 21 92.5s31.333 62.333 52 94s43.167 63.167 67.5 94.5
s47.166 62.666 68.499 93.999s39 62.5 53 93.5s21.333 61.5 22 91.5c0.666992 37.333 -13 65.333 -41 84s-68 28 -120 28c-16 0 -31.667 -0.833008 -47 -2.5s-30.333 -4.16699 -45 -7.5c-16 -20 -33.833 -41.167 -53.5 -63.5s-39.834 -42.833 -60.501 -61.5
s-40.667 -34 -60 -46s-36.333 -18 -51 -18c-24 0 -36 8.66699 -36 26c0 11.333 5.66699 24.833 17 40.5s27.333 31.834 48 48.501s45.834 32.334 75.501 47.001s63.167 26.667 100.5 36l57 81c2.66699 4.66699 6.66699 7 12 7c3.33301 0 5.83301 -1.66699 7.5 -5
s2.5 -6 2.5 -8c-1.33301 -3.33301 -6.16602 -11.166 -14.499 -23.499s-19.166 -27.166 -32.499 -44.499c31.333 6 65 9 101 9c26 0 49.833 -3.33301 71.5 -10s40.167 -16.167 55.5 -28.5s27.333 -27 36 -44s13 -35.833 13 -56.5c0 -28 -7.16699 -57.5 -21.5 -88.5
s-32 -62.667 -53 -95s-44 -64.666 -69 -96.999s-48 -64 -69 -95s-38.667 -60.833 -53 -89.5s-21.5 -55.667 -21.5 -81c0 -6 0.833008 -12 2.5 -18s4.83398 -11.333 9.50098 -16s11.334 -8.33398 20.001 -11.001s20 -4 34 -4c12.667 0 30.834 6.5 54.501 19.5
s50 31.667 79 56s59.167 53.666 90.5 87.999s60.5 73.333 87.5 117s50.667 91.334 71 143.001s34.166 106.5 41.499 164.5c-3.33301 8 -6.16602 19.5 -8.49902 34.5s-3.5 29.5 -3.5 43.5c0 12 1.16699 22.333 3.5 31s7.16602 13 14.499 13
c5.33301 0 9.83301 -3.33301 13.5 -10s6.5 -14.5 8.5 -23.5s3.5 -18.5 4.5 -28.5s1.5 -18 1.5 -24v-17c0 -5.33301 -0.333008 -10 -1 -14c-0.666992 -4.66699 -1 -9.33398 -1 -14.001c0 -2 0.666992 -5.33301 2 -10s4.66602 -9.33398 9.99902 -14.001
c8 -8 16.167 -15.333 24.5 -22s12.833 -13 13.5 -19zM0.99707 677.997c-30 -8.66699 -57.5 -19.168 -82.5 -31.501s-46.667 -25 -65 -38s-32.666 -25.167 -42.999 -36.5s-15.5 -20.666 -15.5 -27.999c0 -8 6.33301 -12 19 -12c14 0 28.667 3.83301 44 11.5
s31 18.167 47 31.5s32.167 28.833 48.5 46.5s32.166 36.5 47.499 56.5z" />
    <glyph glyph-name="W" unicode="W" horiz-adv-x="741" 
d="M1055 500c0 -2.66699 -3.16895 -5.6582 -9.50195 -8.99121s-14.666 -7.33301 -24.999 -12l-34.5 -16c-12.667 -6 -25 -13 -37 -21c-21.333 -14.667 -45 -31.834 -71 -51.501s-55.5 -44.334 -88.5 -74.001s-69.833 -65.5 -110.5 -107.5s-86.667 -92.667 -138 -152
c-10.667 -12.667 -20.834 -25.334 -30.501 -38.001l-26.5 -33.5c-8 -9.66699 -15 -17.5 -21 -23.5s-11 -9 -15 -9c-6.66699 0 -10 2.66699 -10 8c0 2.66699 4.16699 11.667 12.5 27l33 59.5l47.5 82l55.5 93.5l57 95l52 86.5l40.5 68l23 38.5c2.66699 5.33301 4 10 4 14
c0 1.33301 -0.333008 2.66602 -1 3.99902s-1.33398 1.66602 -2.00098 0.999023c-50 -52 -99.667 -101 -149 -147s-99 -88.667 -149 -128c-32 -38.667 -66.833 -75.334 -104.5 -110.001s-76.167 -65.167 -115.5 -91.5s-78.5 -47.333 -117.5 -63s-75.5 -23.5 -109.5 -23.5
c-24 0 -43.667 5 -59 15s-23 19.667 -23 29s7.33301 14.333 22 15c38 2.66699 76.333 9.66699 115 21s77.167 26.166 115.5 44.499s76.5 39.5 114.5 63.5s75.333 49.667 112 77c22 27.333 42.5 55 61.5 83s35.167 56 48.5 84s23.833 55.167 31.5 81.5
s11.5 51.166 11.5 74.499c0 42.667 -14.5 77.334 -43.5 104.001s-77.167 40 -144.5 40c-12.667 0 -25 -0.666992 -37 -2s-23.667 -3 -35 -5c-16 -18.667 -34.167 -38.667 -54.5 -60s-41.166 -40.666 -62.499 -57.999s-42.333 -31.833 -63 -43.5s-39 -17.5 -55 -17.5
c-18.667 0 -28 7 -28 21c0 10 5.5 22.833 16.5 38.5s27 31.667 48 48s46.5 32 76.5 47s64 26.833 102 35.5c16.667 21.333 31.334 42.666 44.001 63.999c3.33301 5.33301 6.33301 8.66602 9 9.99902s5.33398 2 8.00098 2c6 0 9 -2.66699 9 -8c0 -4 -1 -8 -3 -12
c-1.33301 -2.66699 -2.66602 -4.66699 -3.99902 -6c-3.33301 -5.33301 -7.5 -11.666 -12.5 -18.999s-10.833 -15.333 -17.5 -24c14 2 28.5 3.66699 43.5 5s30.5 2 46.5 2c36.667 0 68 -3.66699 94 -11s47.167 -17.5 63.5 -30.5s28.333 -28.5 36 -46.5s11.5 -38 11.5 -60
c0 -38.667 -10.5 -81.334 -31.5 -128.001s-48.833 -94 -83.5 -142c59.333 50 114.666 100.5 165.999 151.5l137 141.5c29.333 31.333 51 55.333 65 72s23.333 25 28 25c1.33301 0 2.5 -0.666992 3.5 -2s1.5 -2.33301 1.5 -3c0 -2.66699 -2 -6.83398 -6 -12.501l-22 -30.5
c-26 -36.667 -54.333 -79.667 -85 -129l-91.5 -151.5l-88 -150.5l-74.5 -126c-1.33301 -2.66699 -2 -4.33398 -2 -5.00098c0 -1.33301 1 -2 3 -2c3.33301 0 7.33301 2 12 6s11.5 11 20.5 21l35.5 40l57 64l44.5 48.5l61.5 65l71.5 69.5c25 23.333 49.5 44.333 73.5 63
s46.833 34 68.5 46s40.167 18 55.5 18c8 0 13.667 -1.66699 17 -5s5 -7.66602 5 -12.999zM269.998 685.009c-30.667 -8 -58.6689 -18.168 -84.002 -30.501s-47.166 -25.333 -65.499 -39s-32.666 -26.5 -42.999 -38.5s-15.5 -21.667 -15.5 -29s5 -11 15 -11
c12 0 25.833 4.16699 41.5 12.5s32.167 19.5 49.5 33.5s34.833 29.833 52.5 47.5s34.167 35.834 49.5 54.501zM373.996 188.008c-72.667 -51.333 -143.669 -92.499 -213.002 -123.499s-136.333 -48.833 -201 -53.5c-0.666992 0 -0.166992 -1.5 1.5 -4.5
s5.16699 -6.33301 10.5 -10s12.333 -7 21 -10s19.667 -4.5 33 -4.5c26.667 0 54.834 5.33301 84.501 16s59.5 25.167 89.5 43.5s59.833 40.166 89.5 65.499s57.834 52.333 84.501 81z" />
    <glyph glyph-name="X" unicode="X" horiz-adv-x="1137" 
d="M1373 719c0 -4.66699 -2.00195 -9.33203 -6.00195 -13.999s-9 -7 -15 -7c-3.33301 0 -7.16602 0.333008 -11.499 1s-10.166 1 -17.499 1c-27.333 0 -56.833 -6.33301 -88.5 -19s-64.167 -29.834 -97.5 -51.501s-66.5 -47 -99.5 -76s-64.667 -59.833 -95 -92.5
s-58.666 -66.667 -84.999 -102s-49.166 -70 -68.499 -104s-34.5 -66.667 -45.5 -98s-16.5 -59.666 -16.5 -84.999c0 -32 9.83301 -57.333 29.5 -76s51.834 -28 96.501 -28c27.333 0 56.166 4.5 86.499 13.5s59.833 20 88.5 33s55 26.833 79 41.5s43.333 27.667 58 39
c0.666992 0.666992 2 1 4 1c2.66699 0 4.83398 -1 6.50098 -3s2.5 -3.66699 2.5 -5s-0.333008 -2.33301 -1 -3c-11.333 -10 -29.833 -23 -55.5 -39s-55 -31.5 -88 -46.5s-67.833 -27.833 -104.5 -38.5s-71.667 -16 -105 -16c-52 0 -89.167 10.333 -111.5 31
s-33.5 48 -33.5 82c0 20 3.5 41.833 10.5 65.5s16.833 48.5 29.5 74.5c-34 -33.333 -71.333 -64.5 -112 -93.5s-83.334 -54.167 -128.001 -75.5s-91 -38.166 -139 -50.499s-96.667 -18.5 -146 -18.5c-40.667 0 -78.334 6.66699 -113.001 20s-64.5 28.5 -89.5 45.5
s-44.667 33.167 -59 48.5s-21.5 25 -21.5 29c1.33301 4.66699 3.33301 8.33398 6 11.001c2 2.66699 4.83301 5 8.5 7s8.83398 3 15.501 3c0.666992 0 8.5 -2.33301 23.5 -7s33.333 -10 55 -16s45.167 -11.333 70.5 -16s49.333 -7 72 -7
c5.33301 0 9.83301 -1.16699 13.5 -3.5s5.5 -5.83301 5.5 -10.5c0 -6 -1.83301 -11.5 -5.5 -16.5s-9.16699 -7.5 -16.5 -7.5c-5.33301 0 -16.666 1.66699 -33.999 5s-36 7.33301 -56 12s-39.667 9.66699 -59 15s-33.666 10 -42.999 14c-4 1.33301 -7.33301 2 -10 2
c-2 0 -3 -0.666992 -3 -2c17.333 -19.333 38.666 -37 63.999 -53c21.333 -13.333 48.333 -25.666 81 -36.999s71 -17 115 -17c52 0 104.333 9.66699 157 29s103.167 45.166 151.5 77.499s93.333 69.166 135 110.499s78 84.166 109 128.499s55.333 88.333 73 132
s26.5 83.5 26.5 119.5c0 22 -3.5 42 -10.5 60s-18 33.5 -33 46.5s-34.167 23 -57.5 30s-51.333 10.5 -84 10.5c-25.333 0 -49 -2 -71 -6l-51 -59.5c-18 -20.333 -36.833 -38.666 -56.5 -54.999s-39.667 -29.833 -60 -40.5s-40.833 -16 -61.5 -16
c-19.333 0 -29 7.66699 -29 23c0 10.667 5.33301 23.667 16 39s26.334 30.833 47.001 46.5s46.334 30.5 77.001 44.5s65.667 24.667 105 32l12 16l13 17c15.333 21.333 25.666 32 30.999 32s8 -2.66699 8 -8c0 -2.66699 -0.666992 -5.33398 -2 -8.00098l-2 -4
c-10.667 -12.667 -21.334 -26.334 -32.001 -41.001l40 4c13.333 1.33301 27.666 2 42.999 2c38 0 70.5 -4.16699 97.5 -12.5s49.167 -19.833 66.5 -34.5s30.166 -32.167 38.499 -52.5s12.5 -42.833 12.5 -67.5c0 -19.333 -2.33301 -39.333 -7 -60s-11.334 -42 -20.001 -64
c35.333 39.333 72.333 76.333 111 111s77.167 65.167 115.5 91.5s75.5 47.333 111.5 63s68.667 23.5 98 23.5c9.33301 0 18.5 -1.33301 27.5 -4s13.5 -8 13.5 -16zM583.998 713.002c-32.667 -6.66699 -61.834 -16.167 -87.501 -28.5s-47.334 -25.166 -65.001 -38.499
s-31 -26 -40 -38s-13.5 -21.667 -13.5 -29c0 -6.66699 3.66699 -10 11 -10c14 0 28.167 2.5 42.5 7.5s29.333 13.167 45 24.5s32.334 26.166 50.001 44.499s36.834 40.833 57.501 67.5z" />
    <glyph glyph-name="Y" unicode="Y" horiz-adv-x="459" 
d="M688 618c0 -14 -9.17188 -35.998 -27.5049 -65.998s-42.666 -64.167 -72.999 -102.5s-65.166 -78.833 -104.499 -121.5s-79.666 -83.667 -120.999 -123l-85 -153l-87 -155l160.5 108.5l137.5 89.5c0.666992 0.666992 1.66699 1 3 1c2 0 4.16699 -1 6.5 -3
s3.5 -3.66699 3.5 -5s-0.333008 -2.33301 -1 -3c-18 -14 -39.333 -29 -64 -45l-79.5 -51.5l-89 -57.5l-93.5 -62l-102.5 -171c-33.667 -54 -66.167 -101.167 -97.5 -141.5s-61 -72.5 -89 -96.5s-53.333 -36 -76 -36c-13.333 0 -22.666 4.83301 -27.999 14.5
s-8 21.167 -8 34.5c0 26 10.333 54.5 31 85.5s47.834 63.333 81.501 97s72.5 68 116.5 103s89.667 69.5 137 103.5l78 140l79 143c-25.333 -22.667 -50.166 -43.5 -74.499 -62.5s-47.333 -35.333 -69 -49s-41.667 -24.334 -60 -32.001s-34.166 -11.5 -47.499 -11.5
c-26 0 -39 17 -39 51c0 17.333 8 40.166 24 68.499s36 60 60 95l78 111c28 39 54 77.5 78 115.5s44 74.667 60 110s24 66.333 24 93c0 28 -10.833 50.5 -32.5 67.5s-58.834 25.5 -111.501 25.5c-12.667 0 -24.667 -0.5 -36 -1.5s-22.666 -2.16699 -33.999 -3.5l-59 -62.5
c-21.333 -21.667 -42.833 -41.334 -64.5 -59.001s-42.334 -32.334 -62.001 -44.001s-37.167 -17.5 -52.5 -17.5c-24 0 -36 8.33301 -36 25c0 12 6.33301 26.5 19 43.5s30.667 34 54 51s51.166 33 83.499 48s68.166 25.833 107.499 32.5l25 30.5l23 28.5c3.33301 4 6 6 8 6
c2.66699 0 5.5 -1.66699 8.5 -5s4.5 -5.66602 4.5 -6.99902c0 -2 -0.666992 -3.66699 -2 -5l-17.5 -20l-20.5 -23c18 2 36.333 3 55 3c68 0 115.833 -9.83301 143.5 -29.5s41.5 -46.167 41.5 -79.5c0 -28.667 -8.33301 -61 -25 -97s-37.334 -73.167 -62.001 -111.5
s-51.667 -76.833 -81 -115.5l-81 -109.5c-24.667 -34.333 -45.334 -65.166 -62.001 -92.499s-25 -49 -25 -65c0 -7.33301 1.83301 -14.5 5.5 -21.5s10.834 -10.5 21.501 -10.5c12.667 0 28.334 4.66699 47.001 14s39.334 22 62.001 38s46.667 35 72 57l78 71l98.5 168.5
c32.333 53 63.333 99.5 93 139.5s57.667 71.833 84 95.5s49.833 35.5 70.5 35.5c11.333 0 17 -5.33301 17 -16zM659.995 601.002c0 4.66699 -2.33301 6.99805 -7 6.99805c-13.333 0 -29 -8.83301 -47 -26.5s-38 -41.667 -60 -72s-45.5 -66.166 -70.5 -107.499l-78.5 -134
c34.667 35.333 67.834 71 99.501 107s59.667 69.167 84 99.5s43.666 56.833 57.999 79.5s21.5 38.334 21.5 47.001zM86.9951 718c-34.667 -6 -65.001 -14.8301 -91.001 -26.4971s-47.833 -23.834 -65.5 -36.501s-31 -25 -40 -37s-13.5 -22 -13.5 -30
c0 -9.33301 5.33301 -14 16 -14c12.667 0 26.834 4.16699 42.501 12.5s32 19.166 49 32.499s34.333 28.666 52 45.999s34.5 35 50.5 53zM122.994 -165.997c-41.333 -29.333 -81 -59.1689 -119 -89.502s-71.5 -60.666 -100.5 -90.999s-52.167 -60.166 -69.5 -89.499
s-26 -57.333 -26 -84c0 -19.333 7.66699 -29 23 -29c16.667 0 35.667 10 57 30s44.5 47.333 69.5 82s51.333 75.167 79 121.5z" />
    <glyph glyph-name="Z" unicode="Z" horiz-adv-x="570" 
d="M608 603c0 -34.667 -8.82812 -73.1689 -26.4951 -115.502s-41.5 -85.5 -71.5 -129.5s-64.5 -87.5 -103.5 -130.5s-80.167 -82.5 -123.5 -118.5c26.667 -5.33301 47.5 -15.333 62.5 -30s25.167 -32.667 30.5 -54c48.667 24.667 99 45.667 151 63c2 0.666992 4.66699 1 8 1
c8.66699 0 13 -2.66699 13 -8c0 -1.33301 -0.833008 -3.16602 -2.5 -5.49902s-4.5 -4.16602 -8.5 -5.49902c-26.667 -8 -53.167 -17.167 -79.5 -27.5s-52.166 -22.166 -77.499 -35.499c0.666992 -4 1.16699 -8.33301 1.5 -13s0.5 -9.66699 0.5 -15
c0 -35.333 -7.33301 -74.666 -22 -117.999s-34.334 -87.166 -59.001 -131.499s-52.667 -87.666 -84 -129.999s-63.833 -79.833 -97.5 -112.5s-66.834 -58.834 -99.501 -78.501s-62.334 -29.5 -89.001 -29.5c-28 0 -48.5 6.66699 -61.5 20s-19.5 31.666 -19.5 54.999
c0 32 11.667 71.167 35 117.5s56.333 95 99 146s94 101.667 154 152s126.667 95.5 200 135.5c-4 21.333 -12.167 39.666 -24.5 54.999s-29.833 26 -52.5 32c-54 -42.667 -107.333 -77.167 -160 -103.5s-100.334 -39.5 -143.001 -39.5h-1c-33.333 0 -50 7.33301 -50 22
c0 11.333 10.167 25.166 30.5 41.499s46.333 32 78 47s67 27.833 106 38.5s77.5 16 115.5 16c5.33301 0 10.166 -0.166992 14.499 -0.5s8.83301 -0.833008 13.5 -1.5c40 34.667 77.833 73.167 113.5 115.5s67.167 85.166 94.5 128.499s49 86 65 128s24 80.333 24 115
c0 20.667 -3.16699 39.5 -9.5 56.5s-16.333 31.5 -30 43.5s-31.334 21.333 -53.001 28s-47.834 10 -78.501 10c-16.667 0 -34.334 -1.66699 -53.001 -5c-11.333 -20 -26.166 -41.667 -44.499 -65s-38.5 -45 -60.5 -65s-45.5 -36.667 -70.5 -50s-49.833 -20 -74.5 -20
c-16 0 -24 6 -24 18c0 11.333 6.66699 26 20 44s31.666 36.333 54.999 55s50.833 36.334 82.5 53.001s65.5 29 101.5 37c13.333 23.333 21 42.333 23 57c1.33301 2 4 3 8 3c5.33301 0 8 -2.66699 8 -8s-1.66699 -12 -5 -20s-7.66602 -17.333 -12.999 -28
c9.33301 1.33301 18.833 2.5 28.5 3.5s19.167 1.5 28.5 1.5c37.333 0 69 -3.5 95 -10.5s47.333 -16.833 64 -29.5s28.834 -28 36.501 -46s11.5 -37.667 11.5 -59zM316.005 726.998c-30.667 -8 -59.667 -19.168 -87 -33.501s-51 -29.333 -71 -45s-35.833 -30.5 -47.5 -44.5
s-17.5 -24.333 -17.5 -31c0 -4 2.66699 -6 8 -6c21.333 0 42.333 5 63 15s40.5 22.833 59.5 38.5s36.5 32.834 52.5 51.501s29.333 37 40 55zM244.005 94.9971c-4.66699 0.666992 -9.16602 1.16699 -13.499 1.5s-8.83301 0.5 -13.5 0.5c-35.333 0 -68.333 -4.5 -99 -13.5
s-57.334 -19.667 -80.001 -32s-40.5 -24.833 -53.5 -37.5s-19.5 -22.667 -19.5 -30s5.66699 -11 17 -11c40 0 82.5 11.167 127.5 33.5s89.833 51.833 134.5 88.5zM341.006 -28.0029c0 6.66699 -0.329102 11.3311 -0.996094 13.998c-62.667 -36.667 -121.667 -79 -177 -127
s-103.333 -96.5 -144 -145.5s-72.834 -95.667 -96.501 -140s-35.5 -80.833 -35.5 -109.5c0 -18 5.16699 -32 15.5 -42s26.166 -15 47.499 -15c23.333 0 49.166 9.33301 77.499 28s57 43.334 86 74.001s57.167 65.834 84.5 105.501s51.666 80.5 72.999 122.5
s38.333 83.333 51 124s19 77.667 19 111z" />
    <glyph glyph-name="bracketleft" unicode="[" horiz-adv-x="310" 
d="M557 836c-0.666992 -2 -2.00195 -4.33203 -4.00195 -6.99902c-3.33301 -4.66699 -9.33301 -7 -18 -7h-167l-85.5 -227l-94.5 -248l-95 -248l-86 -227h172c2.66699 0 5.33398 -0.333008 8.00098 -1c4.66699 -1.33301 7 -4 7 -8c0 -3.33301 -2 -6.33301 -6 -9
s-9.66699 -4 -17 -4h-179c-2 -0.666992 -4.33301 -0.333984 -7 0.999023c-4.66699 2 -7 5.66699 -7 11l365 963c1.33301 4.66699 4 9.16699 8 13.5s7 6.5 9 6.5h181c2.66699 0 5.33398 -0.333008 8.00098 -1c5.33301 -1.33301 8 -4 8 -8z" />
    <glyph glyph-name="backslash" unicode="\" horiz-adv-x="400" 
d="M225 3l-0.00292969 -90.998c0 -24 -0.333008 -39.667 -1 -47c0 -2.66699 -1 -5.33398 -3 -8.00098s-4.66699 -4 -8 -4c-6.66699 0 -11.5 2.66699 -14.5 8s-5.16699 11.666 -6.5 18.999v2c0.666992 2 1.33398 19.833 2.00098 53.5s1.33398 77 2.00098 130
s1.16699 112.833 1.5 179.5s0.5 134.334 0.5 203.001c0 57.333 -0.166992 113.166 -0.5 167.499s-1 104.333 -2 150s-2.16699 85.167 -3.5 118.5s-3.33301 57 -6 71c2.66699 4.66699 6.66699 7 12 7c4 0 7.83301 -1.5 11.5 -4.5s5.16699 -5.16699 4.5 -6.5
c0.666992 -8 1.5 -30.5 2.5 -67.5s1.83301 -82.667 2.5 -137s1.33398 -114.833 2.00098 -181.5l2 -201c0.666992 -67.333 1.16699 -132.5 1.5 -195.5s0.5 -118.167 0.5 -165.5z" />
    <glyph glyph-name="bracketright" unicode="]" horiz-adv-x="408" 
d="M178 -129c-1.33301 -4.66699 -3.99902 -9.16797 -7.99902 -13.501s-7 -6.5 -9 -6.5h-181c-2.66699 0 -5.33398 0.333008 -8.00098 1c-5.33301 1.33301 -8 4 -8 8c0.666992 2 2 4.33301 4 7c3.33301 4.66699 9.33301 7 18 7h167l85.5 227l94.5 248l95 248l86 227h-172
c-2 0 -4.33301 0.333008 -7 1c-5.33301 1.33301 -8 4 -8 8c0 3.33301 2 6.33301 6 9s9.66699 4 17 4h179c2 0.666992 4.33301 0.333984 7 -0.999023c4.66699 -2 7 -5.66699 7 -11z" />
    <glyph glyph-name="underscore" unicode="_" horiz-adv-x="500" 
d="M426 -22c0 -3.33301 -1.66797 -6.99805 -5.00098 -10.998s-6.66602 -6 -9.99902 -6h-366c-10 0 -16.5 0.166992 -19.5 0.5s-4.5 1.16602 -4.5 2.49902c0 3.33301 1 7.16602 3 11.499s5.66699 6.5 11 6.5h386c3.33301 0 5 -1.33301 5 -4z" />
    <glyph glyph-name="grave" unicode="`" horiz-adv-x="409" 
d="M294 256c-0.666992 0 -1.33203 -0.333008 -1.99902 -1c-1.33301 -1.33301 -3.66602 -2 -6.99902 -2c-11.333 3.33301 -25.5 9.33301 -42.5 18s-33.5 17.667 -49.5 27s-29.667 18.5 -41 27.5s-17 15.5 -17 19.5c0 4.66699 1.66699 8.66699 5 12s6.66602 5 9.99902 5
s6.33301 -1.33301 9 -4l65 -55c21.333 -17.333 44.666 -33 69.999 -47z" />
    <glyph glyph-name="a" unicode="a" horiz-adv-x="400" 
d="M440 88c0 -1.33301 -0.332031 -2.33203 -0.999023 -2.99902c-14.667 -12 -32.834 -25 -54.501 -39s-44 -26.833 -67 -38.5s-45.667 -21.334 -68 -29.001s-41.833 -11.5 -58.5 -11.5c-28.667 0 -43 13.667 -43 41c0 16.667 5.66699 36.334 17 59.001l-42 -34
c-15.333 -12 -30.833 -23.333 -46.5 -34s-30.834 -19.5 -45.501 -26.5s-27.334 -10.5 -38.001 -10.5c-16.667 0 -25 8.66699 -25 26c0 18.667 9.33301 41.167 28 67.5s43 51.666 73 75.999s63.667 45.166 101 62.499s75 26 113 26c6.66699 0 12.167 -0.833008 16.5 -2.5
s6.5 -4.5 6.5 -8.5c0 -3.33301 -1.83301 -7.66602 -5.5 -12.999s-10.167 -12 -19.5 -20c-6.66699 -6 -15.5 -15.5 -26.5 -28.5s-21.667 -27.333 -32 -43s-19.166 -31.334 -26.499 -47.001s-11 -29.167 -11 -40.5c0 -8.66699 2.5 -15.5 7.5 -20.5s13.5 -7.5 25.5 -7.5
c10 0 21.5 2.16699 34.5 6.5s26.5 9.83301 40.5 16.5s28.167 14.167 42.5 22.5s27.5 16.333 39.5 24s22.667 14.834 32 21.501s16 11.667 20 15c0.666992 0.666992 2 1 4 1c2.66699 0 4.83398 -1 6.50098 -3s2.5 -3.66699 2.5 -5zM263.001 201.001
c0 2.66699 -2.33398 3.99707 -7.00098 3.99707c-10.667 0 -24.167 -3.16699 -40.5 -9.5s-33.666 -14.666 -51.999 -24.999s-36.833 -22.166 -55.5 -35.499s-35.334 -27.166 -50.001 -41.499s-26.667 -28.666 -36 -42.999s-14 -27.5 -14 -39.5c0 -11.333 6.66699 -17 20 -17
c7.33301 0 17 3 29 9s24.833 13.667 38.5 23s27.667 19.666 42 30.999s27.5 22.333 39.5 33c9.33301 15.333 20.833 31.833 34.5 49.5s29.834 36.167 48.501 55.5c2 3.33301 3 5.33301 3 6z" />
    <glyph glyph-name="b" unicode="b" horiz-adv-x="335" 
d="M534 607c0 -13.333 -7.49805 -31.668 -22.498 -55.001s-34.667 -49 -59 -77s-52.166 -57.5 -83.499 -88.5l-96 -91c-32.667 -29.667 -64.5 -57.167 -95.5 -82.5s-58.5 -46.666 -82.5 -63.999c-20.667 -30 -37.167 -56.333 -49.5 -79s-18.5 -40 -18.5 -52
c0 -19.333 6 -29 18 -29c6.66699 0 14.5 3 23.5 9s18.167 14 27.5 24s18.166 21.333 26.499 34s15.166 25.334 20.499 38.001c-3.33301 11.333 -5 22.333 -5 33c0 3.33301 0.333008 8.33301 1 15s1.66699 13.5 3 20.5s3.33301 13.167 6 18.5s6 8 10 8
c5.33301 0 10 -2.83301 14 -8.5s6 -10.167 6 -13.5c0 -13.333 -1.66699 -26.5 -5 -39.5s-7.66602 -25.5 -12.999 -37.5c9.33301 -15.333 20.666 -26 33.999 -32s28.333 -9 45 -9c21.333 0 42.833 4.33301 64.5 13s41.167 19.667 58.5 33c0.666992 0.666992 2 1 4 1
c2.66699 0 4.83398 -1 6.50098 -3s2.5 -3.66699 2.5 -5s-0.333008 -2.33301 -1 -3c-24.667 -18.667 -48.667 -32.334 -72 -41.001s-45.333 -13 -66 -13c-39.333 0 -67.333 14 -84 42c-8.66699 -16 -18.834 -30.667 -30.501 -44s-23.667 -25 -36 -35s-24.333 -17.667 -36 -23
s-22.167 -8 -31.5 -8s-16.833 3 -22.5 9s-8.5 15.667 -8.5 29c0 15.333 6.66699 36.166 20 62.499s31.333 55.833 54 88.5s48.5 67.334 77.5 104.001l90 108.5l93 102.5l85.5 86.5c26 25 48.667 44.833 68 59.5s32.666 22 39.999 22c4 0 8.16699 -3.33301 12.5 -10
s6.5 -12.667 6.5 -18zM495.002 594.998c0 2.66699 -0.666992 4 -2 4c-4 -0.666992 -13 -7.16699 -27 -19.5s-31.167 -28.833 -51.5 -49.5l-68.5 -72.5l-77 -87l-77.5 -93c-25.667 -31.667 -49.167 -62.167 -70.5 -91.5c28.667 20.667 57.834 44 87.501 70
s58.334 52.667 86.001 80s53.667 54.5 78 81.5s45.666 52.167 63.999 75.5s32.666 44 42.999 62s15.5 31.333 15.5 40z" />
    <glyph glyph-name="c" unicode="c" horiz-adv-x="284" 
d="M324 88c0 -1.33301 -0.333984 -2.33008 -1.00098 -2.99707c-10.667 -9.33301 -27 -20.833 -49 -34.5s-46 -27 -72 -40s-52.333 -24.167 -79 -33.5s-50.667 -14 -72 -14s-36.5 4.33301 -45.5 13s-13.5 20 -13.5 34c0 18.667 6.66699 40 20 64s29.833 46.833 49.5 68.5
s41 39.834 64 54.501s44.167 22 63.5 22c9.33301 0 16.5 -2.16699 21.5 -6.5s7.5 -9.5 7.5 -15.5s-3 -12.833 -9 -20.5s-13 -15 -21 -22s-15.833 -13 -23.5 -18s-13.167 -7.5 -16.5 -7.5s-5 1.66699 -5 5s2.16699 7.16602 6.5 11.499l14 14c5 5 9.5 10.167 13.5 15.5
s6 10.666 6 15.999c0 2.66699 -1.66699 4 -5 4c-15.333 0 -31.333 -5.66699 -48 -17s-32 -25.5 -46 -42.5s-25.5 -35 -34.5 -54s-13.5 -36.167 -13.5 -51.5c0 -13.333 3.83301 -24 11.5 -32s20.167 -12 37.5 -12c16 0 34.667 4 56 12s42.5 17.667 63.5 29
s41 23.166 60 35.499s34.5 23.166 46.5 32.499c0.666992 0.666992 2 1 4 1c2.66699 0 4.83398 -1 6.50098 -3s2.5 -3.66699 2.5 -5z" />
    <glyph glyph-name="d" unicode="d" horiz-adv-x="459" 
d="M626 595c0 -10.667 -5.16992 -25.8301 -15.5029 -45.4971s-24.5 -42.167 -42.5 -67.5s-39.167 -53 -63.5 -83s-50.5 -60.5 -78.5 -91.5l-88 -93c-30.667 -31 -61 -60.167 -91 -87.5c-8.66699 -20 -15.5 -38.333 -20.5 -55s-7.5 -30.667 -7.5 -42c0 -28 15 -42 45 -42
c23.333 0 54 8.83301 92 26.5s81.667 44.5 131 80.5c0.666992 0.666992 2 1 4 1c2.66699 0 4.83398 -1 6.50098 -3s2.5 -3.66699 2.5 -5s-0.333008 -2.33301 -1 -3c-50 -38.667 -97.833 -68.334 -143.5 -89.001s-83.5 -31 -113.5 -31c-18.667 0 -33.167 4.16699 -43.5 12.5
s-15.5 21.166 -15.5 38.499c0 18.667 5 41 15 67c-42.667 -36 -82 -65.167 -118 -87.5s-65 -33.5 -87 -33.5c-16.667 0 -25 8.66699 -25 26s8 38.166 24 62.499s37.5 48.166 64.5 71.499s58.333 44 94 62s73.5 29.333 113.5 34c18 30.667 37.5 61.834 58.5 93.501
s42.5 62.5 64.5 92.5s43.833 58.167 65.5 84.5s41.834 49.333 60.501 69s35.334 35.167 50.001 46.5s26 17 34 17c19.333 0 29 -8.66699 29 -26zM592.997 587.004c0 6.66699 -2.66797 9.99805 -8.00098 9.99805c-7.33301 0 -18.5 -6.66699 -33.5 -20s-32 -31.5 -51 -54.5
s-39.5 -49.333 -61.5 -79s-43.667 -60.667 -65 -93s-41.666 -65.166 -60.999 -98.499s-36.333 -64.666 -51 -93.999c40 39.333 79.667 81.5 119 126.5s74.833 87.833 106.5 128.5s57.167 76.667 76.5 108s29 53.333 29 66zM254.996 205.002
c-24.667 -3.33301 -51.3291 -12.3311 -79.9961 -26.998s-55.334 -31.834 -80.001 -51.501s-45.334 -40 -62.001 -61s-25 -39.167 -25 -54.5c0 -11.333 6.66699 -17 20 -17c19.333 0 44.666 10.167 75.999 30.5s65.666 47.166 102.999 80.499c6 15.333 13.167 31.5 21.5 48.5
s17.5 34.167 27.5 51.5h-1z" />
    <glyph glyph-name="e" unicode="e" horiz-adv-x="280" 
d="M320 88c0 -1.33301 -0.333984 -2.33301 -1.00098 -3c-18.667 -16 -40.834 -31.333 -66.501 -46s-51.667 -27.834 -78 -39.501s-52 -20.834 -77 -27.501s-46.5 -10 -64.5 -10c-19.333 0 -33.333 3.83301 -42 11.5s-13 17.834 -13 30.501c0 18.667 7.33301 40.5 22 65.5
s32.834 49 54.501 72s44.334 42.5 68.001 58.5s44.5 24 62.5 24c9.33301 0 16.166 -2 20.499 -6s6.5 -8.66699 6.5 -14c0 -11.333 -6.16699 -23.333 -18.5 -36s-27.333 -24.667 -45 -36s-36.5 -22 -56.5 -32s-37.667 -18.333 -53 -25c-12.667 -23.333 -19 -43 -19 -59
c0 -10.667 3 -19 9 -25s16 -9 30 -9s31.5 3.33301 52.5 10s43 15.334 66 26.001s46 22.667 69 36s43.167 27 60.5 41c0.666992 0.666992 2 1 4 1c2.66699 0 4.83398 -1 6.50098 -3s2.5 -3.66699 2.5 -5zM177.999 196c0 2.66699 -1.66406 4 -4.99707 4
c-8.66699 0 -18.167 -2.83301 -28.5 -8.5s-21 -13.167 -32 -22.5s-21.667 -20 -32 -32s-19.5 -24.667 -27.5 -38c17.333 6 33.666 13.333 48.999 22s28.666 17.5 39.999 26.5s20.166 17.833 26.499 26.5s9.5 16 9.5 22z" />
    <glyph glyph-name="f" unicode="f" horiz-adv-x="275" 
d="M367 435c0 -15.333 -9.33691 -36.5 -28.0039 -63.5s-43.5 -57.5 -74.5 -91.5s-66.5 -70.833 -106.5 -110.5l-124 -121.5c5.33301 -18 13.333 -30.667 24 -38s23.667 -11 39 -11c14.667 0 30.167 2.83301 46.5 8.5s33.166 12.834 50.499 21.501
c19.333 10 38.333 20.667 57 32s35.334 22.666 50.001 33.999c0.666992 0.666992 2 1 4 1c2.66699 0 4.83398 -1 6.50098 -3s2.5 -3.66699 2.5 -5s-0.333008 -2.33301 -1 -3c-15.333 -12.667 -32.333 -24.834 -51 -36.501s-38.667 -22.834 -60 -33.501
c-19.333 -9.33301 -39.833 -17.666 -61.5 -24.999s-42.167 -11 -61.5 -11c-15.333 0 -29.166 3 -41.499 9s-22.166 16 -29.499 30l-109.5 -160c-36.333 -52.667 -70.833 -99.5 -103.5 -140.5s-62.167 -74.167 -88.5 -99.5s-47.5 -38 -63.5 -38
c-6.66699 0 -11.667 3.16699 -15 9.5s-5 12.833 -5 19.5c0 16 10 37.833 30 65.5s46.333 59.334 79 95.001s69.834 74.167 111.501 115.5l128.5 126l109 164.5c36.667 54.333 71.5 102.833 104.5 145.5s63.5 77.167 91.5 103.5s51.333 39.5 70 39.5
c7.33301 0 12.5 -3.33301 15.5 -10s4.5 -13 4.5 -19zM330.996 426c0 4.66699 -1.66992 7 -5.00293 7c-9.33301 0 -22.666 -9 -39.999 -27s-37.666 -42.333 -60.999 -73s-48.833 -66.167 -76.5 -106.5l-86.5 -127.5l103 103c32.667 33.333 61.334 64.333 86.001 93
s44.167 54.167 58.5 76.5s21.5 40.5 21.5 54.5zM-68.0068 -50l-104.497 -104.499c-33 -33.667 -62 -65 -87 -94s-44.833 -55 -59.5 -78s-22 -41.5 -22 -55.5c0 -4.66699 1.66699 -7 5 -7c11.333 0 26.166 9.16699 44.499 27.5s39.166 43.166 62.499 74.499
s48.666 67.333 75.999 108z" />
    <glyph glyph-name="g" unicode="g" horiz-adv-x="390" 
d="M430 88c0 -1.33301 -0.336914 -2.33496 -1.00391 -3.00195c-10.667 -8.66699 -22 -17.167 -34 -25.5s-24.667 -16.166 -38 -23.499c-53.333 -30 -101.5 -58.833 -144.5 -86.5s-82.5 -54.5 -118.5 -80.5l-86 -121l-80.5 -106c-25 -31.333 -47.167 -56.5 -66.5 -75.5
s-34 -28.5 -44 -28.5c-14.667 0 -22 8.33301 -22 25c0 11.333 4.33301 26.5 13 45.5s23.334 41.167 44.001 66.5s47.834 53.833 81.501 85.5s75.5 66.167 125.5 103.5l88 135.5c27.333 43 49.666 76.833 66.999 101.5c0 0.666992 -1 1.33398 -3 2.00098
c-0.666992 0.666992 -5 -2.5 -13 -9.5l-30 -26l-41 -34c-15.333 -12.333 -30.833 -23.833 -46.5 -34.5s-31.167 -19.5 -46.5 -26.5s-29 -10.5 -41 -10.5c-16.667 0 -25 8.66699 -25 26c0 15.333 7.33301 35.166 22 59.499s35.834 48.5 63.501 72.5s61.5 45.833 101.5 65.5
s85.333 32.167 136 37.5c3.33301 4.66699 7.83301 8.16699 13.5 10.5s11.167 3.5 16.5 3.5c10 0 15 -3 15 -9s-3.66699 -13 -11 -21s-12.666 -14 -15.999 -18c-2 -2 -8.33301 -11.167 -19 -27.5l-41.5 -63.5l-58.5 -88.5l-70 -102.5c32 22.667 67 45.834 105 69.501
s79.333 48.167 124 73.5c25.333 14 48 29 68 45c0.666992 0.666992 2 1 4 1c2.66699 0 4.83398 -1 6.50098 -3s2.5 -3.66699 2.5 -5zM282.996 209.998c-35.333 -3.33301 -69.499 -13.333 -102.499 -30s-62.333 -35.5 -88 -56.5s-46.167 -42 -61.5 -63s-23 -37.5 -23 -49.5
c0 -11.333 6.66699 -17 20 -17c8 0 18.333 3.33301 31 10s26.167 15 40.5 25s29 21 44 33s28.667 23.5 41 34.5l31.5 29c8.66699 8.33301 14 13.833 16 16.5l9 12l13.5 17.5l15.5 20c5.33301 7 9.66602 13.167 12.999 18.5zM31.9971 -178.002
c-38.667 -31.333 -71.499 -60.168 -98.499 -86.501s-48.833 -49.833 -65.5 -70.5s-28.834 -38 -36.501 -52s-11.5 -24 -11.5 -30c0 -4 1.66699 -6 5 -6c9.33301 0 21.333 6.83301 36 20.5s31.167 31.834 49.5 54.501s38 48.667 59 78s41.833 60 62.5 92z" />
    <glyph glyph-name="h" unicode="h" horiz-adv-x="403" 
d="M498 595c0 -13.333 -6.99805 -31.0029 -20.998 -53.0029s-32.167 -46.333 -54.5 -73s-47.666 -54.667 -75.999 -84l-85.5 -85l-82 -77l-66 -61l-53 -77.5l-30 -44.5c-6 -8 -9 -13.667 -9 -17c0 -2 0.666992 -3 2 -3c1.33301 0.666992 4 2.33398 8 5.00098s13 9 27 19
l63 45l115 82c3.33301 1.33301 7.66602 3.83301 12.999 7.5s10.666 5.5 15.999 5.5c3.33301 0 6.66602 -1.66699 9.99902 -5s5 -6.66602 5 -9.99902c0 -2.66699 -2.33301 -6.5 -7 -11.5s-8 -8.83301 -10 -11.5c-28.667 -32 -49.834 -59.667 -63.501 -83
s-20.5 -41.666 -20.5 -54.999c0 -16.667 10 -25 30 -25c19.333 0 47.666 8.83301 84.999 26.5s83 46.167 137 85.5c0.666992 0.666992 2 1 4 1c2.66699 0 4.83398 -1 6.50098 -3s2.5 -3.66699 2.5 -5s-0.333008 -2.33301 -1 -3c-21.333 -18 -43.666 -34.333 -66.999 -49
s-46.5 -27.5 -69.5 -38.5s-44.667 -19.5 -65 -25.5s-38.166 -9 -53.499 -9c-14.667 0 -26.167 2.83301 -34.5 8.5s-12.5 15.167 -12.5 28.5c0 12 4.16699 27.333 12.5 46s22.166 41.334 41.499 68.001c1.33301 1.33301 2.83301 3 4.5 5s2.5 3.66699 2.5 5s-1 2 -3 2
c-2.66699 0 -5 -0.666992 -7 -2c-1.33301 -1.33301 -7 -5.5 -17 -12.5l-36.5 -26l-47 -33.5l-49 -35l-42 -30c-12.333 -8.66699 -21.166 -14.667 -26.499 -18c-3.33301 -2 -6 -3 -8 -3c-4 0 -7.33301 1.83301 -10 5.5s-4 7.5 -4 11.5s1.33301 7.33301 4 10l79.5 112l96 135
l102.5 139c34.667 46 67.667 87.167 99 123.5s59.666 65.666 84.999 87.999s45.333 33.5 60 33.5c7.33301 0 12.5 -3.33301 15.5 -10s4.5 -13 4.5 -19zM462.002 584.997c0 4.66699 -1.66699 6.99902 -5 6.99902c-9.33301 0 -25.333 -12.167 -48 -36.5
s-48.667 -55.333 -78 -93l-92.5 -123.5l-91.5 -129l54 51.5l67 66l69.5 73c23 25 43.833 49 62.5 72s33.667 44.333 45 64s17 35.834 17 48.501z" />
    <glyph glyph-name="i" unicode="i" horiz-adv-x="242" 
d="M217 300c0 -9.33301 -4.33398 -18.167 -13.001 -26.5s-16.667 -12.5 -24 -12.5c-5.33301 0 -10.333 1.66699 -15 5s-7 8.66602 -7 15.999c0 4.66699 1.33301 9.33398 4 14.001s5.83398 9 9.50098 13s7.66699 7.16699 12 9.5s8.5 3.5 12.5 3.5c6 0 11 -2.33301 15 -7
s6 -9.66699 6 -15zM281.999 87.999c0 -1.33301 -0.333008 -2.33203 -1 -2.99902c-14.667 -12 -32.834 -25 -54.501 -39s-44 -26.833 -67 -38.5s-45.667 -21.334 -68 -29.001s-41.833 -11.5 -58.5 -11.5c-28.667 0 -43 13.667 -43 41c0 20 9 45.833 27 77.5
s46.333 68.167 85 109.5c5.33301 5.33301 10.666 8 15.999 8c7.33301 0 11 -4.33301 11 -13c0 -5.33301 -2 -10 -6 -14c-6.66699 -6 -15.5 -15.5 -26.5 -28.5s-21.667 -27.333 -32 -43s-19.166 -31.334 -26.499 -47.001s-11 -29.167 -11 -40.5
c0 -8.66699 2.5 -15.5 7.5 -20.5s13.5 -7.5 25.5 -7.5c10 0 21.5 2.16699 34.5 6.5s26.5 9.83301 40.5 16.5s28.167 14.167 42.5 22.5s27.5 16.333 39.5 24s22.667 14.834 32 21.501s16 11.667 20 15c0.666992 0.666992 2 1 4 1c2.66699 0 4.83398 -1 6.50098 -3
s2.5 -3.66699 2.5 -5z" />
    <glyph glyph-name="j" unicode="j" horiz-adv-x="203" 
d="M218 319c0 -9.33301 -4.33398 -18.167 -13.001 -26.5s-16.667 -12.5 -24 -12.5c-5.33301 0 -10.333 1.66699 -15 5s-7 8.66602 -7 15.999c0 4.66699 1.33301 9.33398 4 14.001s5.83398 9 9.50098 13s7.66699 7.16699 12 9.5s8.5 3.5 12.5 3.5c6 0 11 -2.33301 15 -7
s6 -9.66699 6 -15zM242.999 87.999c0 -1.33301 -0.334961 -2.33203 -1.00195 -2.99902c-10.667 -8.66699 -22 -17.167 -34 -25.5s-24.667 -16.166 -38 -23.499c-52.667 -30 -100.5 -58.833 -143.5 -86.5s-82.5 -54.5 -118.5 -80.5l-86.5 -121l-81 -106
c-25 -31.333 -47.167 -56.5 -66.5 -75.5s-34 -28.5 -44 -28.5c-14.667 0 -22 8.33301 -22 25c0 11.333 4.33301 26.5 13 45.5s23.334 41.167 44.001 66.5s48 53.833 82 85.5s76 66.167 126 103.5l87.5 135.5c27 43 49.167 76.833 66.5 101.5
c2.66699 4.66699 7.66699 12.5 15 23.5l23 33l21.5 30c6.33301 9 9.83301 13.833 10.5 14.5c3.33301 5.33301 8 9.66602 14 12.999s11 5 15 5c4.66699 0 7 -2.33301 7 -7s-3.66699 -12.667 -11 -24c-2 -2.66699 -8.5 -12.334 -19.5 -29.001l-42 -63.5l-57.5 -87.5l-68 -101
l104 68.5c37.333 23.667 78.333 48.167 123 73.5c25.333 14 48 29 68 45c0.666992 0.666992 2 1 4 1c2.66699 0 4.83398 -1 6.50098 -3s2.5 -3.66699 2.5 -5zM-154.003 -178c-39.333 -31.333 -72.501 -60.168 -99.501 -86.501s-48.833 -49.833 -65.5 -70.5
s-28.834 -38 -36.501 -52s-11.5 -24 -11.5 -30c0 -4 1.66699 -6 5 -6c9.33301 0 21.333 6.83301 36 20.5s31.334 31.834 50.001 54.501s38.334 48.667 59.001 78z" />
    <glyph glyph-name="k" unicode="k" horiz-adv-x="403" 
d="M498 595c0 -12.667 -6.99805 -29.9971 -20.998 -51.9971s-32.167 -46.333 -54.5 -73s-47.666 -54.834 -75.999 -84.501l-86 -87l-83.5 -79.5l-69 -64l-49.5 -72.5l-28.5 -42.5l67.5 55c23 18.667 45.167 35.5 66.5 50.5s41 27.333 59 37s33 14.5 45 14.5
c18.667 0 28 -12.333 28 -37c0 -12 -3 -21.667 -9 -29s-13.333 -13.333 -22 -18s-18.167 -8.5 -28.5 -11.5s-19.5 -6.16699 -27.5 -9.5c-23.333 -8 -41.166 -18.333 -53.499 -31s-18.5 -25 -18.5 -37c0 -11.333 5.66699 -21 17 -29s29.666 -12 54.999 -12
c19.333 0 47.666 8.83301 84.999 26.5s83 46.167 137 85.5c0.666992 0.666992 2 1 4 1c2.66699 0 4.83398 -1 6.50098 -3s2.5 -3.66699 2.5 -5s-0.333008 -2.33301 -1 -3c-21.333 -18 -43.833 -34.5 -67.5 -49.5s-47.167 -28 -70.5 -39s-45.333 -19.5 -66 -25.5
s-38.667 -9 -54 -9c-21.333 0 -39.5 5.33301 -54.5 16s-22.5 23.667 -22.5 39c0 13.333 6.66699 27.5 20 42.5s35.666 29.167 66.999 42.5c6.66699 3.33301 14 6.33301 22 9s15.5 6 22.5 10s12.833 8.5 17.5 13.5s7 10.833 7 17.5c0 12.667 -5.33301 19 -16 19
c-8 0 -18.833 -3.5 -32.5 -10.5s-28.834 -16.333 -45.501 -28s-34 -24.834 -52 -39.501l-53.5 -44.5l-50 -43.5l-40.5 -36c-3.33301 -2 -6 -3 -8 -3c-4 0 -7.33301 1.83301 -10 5.5s-4 7.5 -4 11.5s1.33301 7.33301 4 10l79.5 112l96 135l102.5 139
c34.667 46 67.667 87.167 99 123.5s59.666 65.666 84.999 87.999s45.333 33.5 60 33.5c7.33301 0 12.5 -3.33301 15.5 -10s4.5 -13 4.5 -19zM462.002 585.003c0 4.66699 -1.66602 7 -4.99902 7c-9.33301 0 -25.5 -12.5 -48.5 -37.5s-49.5 -56.667 -79.5 -95l-94 -125.5
l-92 -130l57 55l68.5 68l70 74c23 25.333 43.667 49.5 62 72.5s33.166 44.333 44.499 64s17 35.5 17 47.5z" />
    <glyph glyph-name="l" unicode="l" horiz-adv-x="282" 
d="M448 595c0 -16 -7.16992 -37.168 -21.5029 -63.501s-33 -55.333 -56 -87s-48.833 -64.5 -77.5 -98.5l-85.5 -97c-28.333 -30.667 -55.333 -58.167 -81 -82.5s-46.834 -42.5 -63.501 -54.5c-14.667 -35.333 -22 -62.666 -22 -81.999c0 -28 15 -42 45 -42
c23.333 0 54 8.83301 92 26.5s81.667 44.5 131 80.5c0.666992 0.666992 2 1 4 1c2.66699 0 4.83398 -1 6.50098 -3s2.5 -3.66699 2.5 -5s-0.333008 -2.33301 -1 -3c-50 -38.667 -97.833 -68.334 -143.5 -89.001s-83.5 -31 -113.5 -31c-18.667 0 -33.167 4.16699 -43.5 12.5
s-15.5 21.166 -15.5 38.499c0 18 5 40.333 15 67s23.333 55.834 40 87.501s35.834 64.834 57.501 99.501s44.334 68.667 68.001 102s47.5 65 71.5 95s46.5 56.5 67.5 79.5s39.833 41.167 56.5 54.5s29.334 20 38.001 20c19.333 0 29 -8.66699 29 -26zM414.997 586.999
c0 6.66699 -2.66699 10.002 -8 10.002c-7.33301 0 -18.833 -7.16699 -34.5 -21.5s-33.5 -33.5 -53.5 -57.5s-41.333 -51.5 -64 -82.5s-45 -63.5 -67 -97.5s-42.667 -68 -62 -102s-36 -65.667 -50 -95c27.333 23.333 54.833 49.333 82.5 78s54 58.167 79 88.5
s48.333 60.166 70 89.499s40.5 56.666 56.5 81.999s28.5 47.5 37.5 66.5s13.5 32.833 13.5 41.5z" />
    <glyph glyph-name="m" unicode="m" horiz-adv-x="674" 
d="M714 88c0 -1.33301 -0.333008 -2.33301 -1 -3c-21.333 -18 -43.666 -34.333 -66.999 -49s-46.5 -27.5 -69.5 -38.5s-44.667 -19.5 -65 -25.5s-38.166 -9 -53.499 -9c-14.667 0 -26.167 2.83301 -34.5 8.5s-12.5 15.167 -12.5 28.5c0 12 4.16699 27.333 12.5 46
s22.166 41.334 41.499 68.001c1.33301 2.66699 2 4.33398 2 5.00098c0 1.33301 -1 2 -3 2c-1.33301 0 -3 -0.333008 -5 -1s-4.66699 -2.66699 -8 -6c-2.66699 -2.66699 -8.83398 -7.83398 -18.501 -15.501l-33.5 -26l-40 -31l-39.5 -30.5l-32 -24.5
c-9 -7 -14.833 -11.167 -17.5 -12.5c-4.66699 -3.33301 -8.5 -5.83301 -11.5 -7.5s-6.16699 -2.5 -9.5 -2.5s-6.66602 1.66699 -9.99902 5c-1.33301 1.33301 -2 3.66602 -2 6.99902c0 4.66699 2.5 11 7.5 19s9.83301 14.667 14.5 20c9.33301 10.667 19 23.167 29 37.5
s19 28.5 27 42.5s14.667 26.5 20 37.5s8 18.5 8 22.5c0 4.66699 -2.33301 7 -7 7c-5.33301 0 -14.333 -3.66699 -27 -11s-29.667 -19.666 -51 -36.999l-19 -15l-33 -26l-40.5 -31.5l-40 -30.5l-31.5 -24.5c-8.66699 -7 -14.334 -11.167 -17.001 -12.5
c-4.66699 -3.33301 -8.5 -5.83301 -11.5 -7.5s-6.16699 -2.5 -9.5 -2.5s-6.66602 1.66699 -9.99902 5c-1.33301 1.33301 -2 3.66602 -2 6.99902c0 5.33301 2.5 12 7.5 20s10.167 15 15.5 21c10 12 20.333 25.333 31 40l29.5 42c9 13.333 16.5 25.5 22.5 36.5
s9 18.833 9 23.5c0 4 -1.66699 6 -5 6c-4.66699 0 -13.167 -3.83301 -25.5 -11.5s-29.5 -20.834 -51.5 -39.501l-22.5 -18c-7.66699 -6 -16.167 -12.333 -25.5 -19c-2.66699 -1.33301 -5.66699 -2 -9 -2c-4 0 -6 1.66699 -6 5c0 2.66699 0.333008 4.33398 1 5.00098
s1 1.33398 1 2.00098l22.5 17l23.5 19c3.33301 2 9.5 6.66699 18.5 14l30 23.5c11 8.33301 22.333 15.833 34 22.5s21.5 10 29.5 10c6 0 10.833 -2.16699 14.5 -6.5s5.5 -12.166 5.5 -23.499c0 -6.66699 -2.83301 -15.834 -8.5 -27.501s-12.167 -23.334 -19.5 -35.001
l-21 -32c-6.66699 -9.66699 -10.667 -16.5 -12 -20.5c-0.666992 -0.666992 -1 -2 -1 -4c0 -1.33301 0.666992 -2 2 -2c2 0 5.33301 1.33301 10 4l77 58.5l62.5 48c18.333 13.667 34.5 24.5 48.5 32.5s25.333 12 34 12c14 0 21 -11.333 21 -34
c0 -6.66699 -2.83301 -15.834 -8.5 -27.501s-12.167 -23.334 -19.5 -35.001l-21 -32c-6.66699 -9.66699 -10.667 -16.5 -12 -20.5c-0.666992 -0.666992 -1 -2 -1 -4c0 -1.33301 0.666992 -2 2 -2c2 0 5.33301 1.33301 10 4c9.33301 6 23.166 16 41.499 30l57 43.5l53 41
c15.667 12.333 25.167 20.5 28.5 24.5c4.66699 4.66699 11 7 19 7c10.667 0 16 -5 16 -15c0 -7.33301 -6 -18 -18 -32c-29.333 -31.333 -50.833 -58.666 -64.5 -81.999s-20.5 -41.666 -20.5 -54.999c0 -16.667 10 -25 30 -25c19.333 0 47.666 8.83301 84.999 26.5
s83 46.167 137 85.5c0.666992 0.666992 2 1 4 1c2.66699 0 4.83398 -1 6.50098 -3s2.5 -3.66699 2.5 -5z" />
    <glyph glyph-name="n" unicode="n" horiz-adv-x="482" 
d="M522 88c0 -1.33301 -0.331055 -2.33398 -0.998047 -3.00098c-21.333 -18 -43.666 -34.333 -66.999 -49s-46.5 -27.5 -69.5 -38.5s-44.667 -19.5 -65 -25.5s-38.166 -9 -53.499 -9c-14.667 0 -26.167 2.83301 -34.5 8.5s-12.5 15.167 -12.5 28.5
c0 12 4.16699 27.333 12.5 46s22.166 41.334 41.499 68.001c1.33301 2.66699 2 4.33398 2 5.00098c0 1.33301 -1 2 -3 2c-1.33301 0 -3 -0.333008 -5 -1s-4.66699 -2.66699 -8 -6c-2.66699 -2.66699 -8.83398 -7.83398 -18.501 -15.501l-33.5 -26l-40 -31l-39.5 -30.5
l-32 -24.5c-9 -7 -14.833 -11.167 -17.5 -12.5c-4.66699 -3.33301 -8.5 -5.83301 -11.5 -7.5s-6.16699 -2.5 -9.5 -2.5s-6.66602 1.66699 -9.99902 5c-1.33301 1.33301 -2 3.66602 -2 6.99902c0 5.33301 2.5 12.166 7.5 20.499s10.167 15.166 15.5 20.499
s13.166 15.166 23.499 29.499s20.5 29.5 30.5 45.5s18.833 31.167 26.5 45.5s11.5 24.166 11.5 29.499c0 6.66699 -2 10 -6 10c-2.66699 0 -6 -1.33301 -10 -4c-2 -1.33301 -3.66699 -2.66602 -5 -3.99902c-9.33301 -9.33301 -23 -22.166 -41 -38.499
s-40.667 -34.166 -68 -53.499c-2.66699 -1.33301 -5.66699 -2 -9 -2c-4 0 -6 1.66699 -6 5c0 2.66699 0.333008 4.33398 1 5.00098s1 1.33398 1 2.00098c18.667 14 38.5 30 59.5 48l56.5 50c11.333 10 22.666 15 33.999 15c7.33301 0 13.833 -2.83301 19.5 -8.5
s8.5 -15.167 8.5 -28.5c0 -6.66699 -2.83301 -15.834 -8.5 -27.501s-12.167 -23.334 -19.5 -35.001l-21 -32c-6.66699 -9.66699 -10.667 -16.5 -12 -20.5c-0.666992 -0.666992 -1 -2 -1 -4c0 -1.33301 0.666992 -2 2 -2c2 0 5.33301 1.33301 10 4
c9.33301 6 23.166 16 41.499 30l57 43.5l53 41c15.667 12.333 25.167 20.5 28.5 24.5c4.66699 4.66699 11 7 19 7c10.667 0 16 -5 16 -15c0 -7.33301 -6 -18 -18 -32c-29.333 -31.333 -50.833 -58.666 -64.5 -81.999s-20.5 -41.666 -20.5 -54.999c0 -16.667 10 -25 30 -25
c19.333 0 47.666 8.83301 84.999 26.5s83 46.167 137 85.5c0.666992 0.666992 2 1 4 1c2.66699 0 4.83398 -1 6.50098 -3s2.5 -3.66699 2.5 -5z" />
    <glyph glyph-name="o" unicode="o" horiz-adv-x="373" 
d="M414 88c0 -1.33301 -0.334961 -2.33203 -1.00195 -2.99902c-17.333 -15.333 -36.5 -27 -57.5 -35s-41.833 -12 -62.5 -12c-22.667 0 -43.167 5.33301 -61.5 16s-32.166 27.667 -41.499 51l-27.5 -36c-12.333 -16 -26.333 -32 -42 -48s-32.167 -30 -49.5 -42
s-33.666 -18 -48.999 -18c-13.333 0 -23 5 -29 15s-9 19.333 -9 28c0 12 4.33301 26 13 42s19.667 32.667 33 50s28.166 34.333 44.499 51s32.166 31.667 47.499 45s29.333 24.166 42 32.499s22 12.5 28 12.5c4 0 7.33301 -1.5 10 -4.5s4 -6.5 4 -10.5
c4 -2 7.33301 -5.16699 10 -9.5s4 -7.83301 4 -10.5l-17 -64c10 -30 23.333 -51.667 40 -65s35.334 -20 56.001 -20c32.667 0 66.667 14 102 42c0.666992 0.666992 2 1 4 1c2.66699 0 4.83398 -1 6.50098 -3s2.5 -3.66699 2.5 -5zM183.998 197.001
c-10 -6.66699 -23.832 -17.165 -41.499 -31.498s-35 -30.166 -52 -47.499s-31.667 -35.333 -44 -54s-18.5 -36 -18.5 -52c0 -14 6.66699 -21 20 -21c14 0 28.667 6.83301 44 20.5s29.666 29.334 42.999 47.001s24.333 34.667 33 51s13 27.166 13 32.499
c-0.666992 3.33301 -1 6.66602 -1 9.99902v10c0 3.33301 0.333008 8.16602 1 14.499s1.66699 13.166 3 20.499z" />
    <glyph glyph-name="p" unicode="p" horiz-adv-x="433" 
d="M473 88c0 -1.33301 -0.331055 -2.33691 -0.998047 -3.00391c-18.667 -16 -40.834 -31.333 -66.501 -46s-51.667 -27.834 -78 -39.501s-52 -20.834 -77 -27.501s-46.5 -10 -64.5 -10c-28.667 0 -48.334 5 -59.001 15s-16 20.667 -16 32c0 8.66699 2.33301 16.167 7 22.5
s10 9.5 16 9.5c2.66699 0 4.66699 -1.66699 6 -5c3.33301 -9.33301 7.5 -17.333 12.5 -24s10.833 -10 17.5 -10c16 0 30.833 6 44.5 18s25.5 26.333 35.5 43s17.667 34.334 23 53.001s8 34.334 8 47.001c0 17.333 -4.66699 26 -14 26c-6 0 -12.333 -3 -19 -9
c-19.333 -12 -39.833 -26.667 -61.5 -44s-43.834 -36.333 -66.501 -57l-69.5 -107l-80 -119l-83 -117c-27.667 -38 -53.667 -71.667 -78 -101s-46.333 -52.833 -66 -70.5s-35.167 -26.5 -46.5 -26.5c-12.667 0 -19 6.33301 -19 19c0 11.333 5 27 15 47s24 43.167 42 69.5
s39.333 55 64 86s51.667 63 81 96l93.5 100.5c33 34 66.833 67 101.5 99l41.5 71.5c11.667 19.667 20.167 34.5 25.5 44.5c-0.666992 0 -2.33398 -0.666992 -5.00098 -2c-9.33301 -9.33301 -23 -22.166 -41 -38.499s-40.667 -34.166 -68 -53.499
c-2.66699 -1.33301 -5.66699 -2 -9 -2c-4 0 -6 1.66699 -6 5c0 2.66699 0.333008 4.33398 1 5.00098s1 1.33398 1 2.00098c18.667 14 38.5 30 59.5 48l56.5 50l34 33c8 8 14.667 12 20 12c4 0 7.66699 -1.83301 11 -5.5s5 -7.83398 5 -12.501c0 -3.33301 -0.666992 -6 -2 -8
c-1.33301 -1.33301 -5 -7 -11 -17c-5.33301 -7.33301 -11.666 -17.166 -18.999 -29.499s-16 -26.166 -26 -41.499l56 46l55 42c10.667 6.66699 19.667 10 27 10c8.66699 0 15 -3.83301 19 -11.5s6 -17.834 6 -30.501c0 -14 -2.5 -30 -7.5 -48s-12.167 -35.667 -21.5 -53
s-21 -33.333 -35 -48s-29.667 -25.667 -47 -33c8 -2 16 -3 24 -3c18 0 37.833 3.33301 59.5 10s43.334 15.167 65.001 25.5s42.667 22 63 35s38.166 25.5 53.499 37.5c0.666992 0.666992 2 1 4 1c2.66699 0 4.83398 -1 6.50098 -3s2.5 -3.66699 2.5 -5zM46.002 7.99609
c-42.667 -43.333 -84.668 -88.332 -126.001 -134.999s-78.166 -90.334 -110.499 -131.001s-58.333 -75.667 -78 -105s-29.5 -48 -29.5 -56c0 -2.66699 1 -4 3 -4c10 0 23 6.5 39 19.5s33.5 30.5 52.5 52.5s39.333 47.5 61 76.5l65 91.5l64.5 97z" />
    <glyph glyph-name="q" unicode="q" horiz-adv-x="383" 
d="M423 88c0 -1.33301 -0.330078 -2.33594 -0.99707 -3.00293c-6 -4.66699 -17 -12.667 -33 -24s-35.667 -24.166 -59 -38.499s-49.833 -29.666 -79.5 -45.999s-60.834 -32.5 -93.501 -48.5l40.5 8c13.667 2.66699 26.167 6 37.5 10l3 1c4 0 6.83301 -2.16699 8.5 -6.5
s2.5 -9.5 2.5 -15.5c0 -8.66699 -3 -13.334 -9 -14.001c-22 -2.66699 -44 -5 -66 -7s-43.333 -3.66699 -64 -5l-93 -133.5l-87.5 -117.5c-27 -34.667 -50.833 -62.667 -71.5 -84s-35.667 -32 -45 -32c-10 0 -15 7.66699 -15 23s5.5 36.5 16.5 63.5s27.5 56.333 49.5 88
s49 64 81 97s69 63.5 111 91.5c-15.333 -0.666992 -28.666 -1.16699 -39.999 -1.5s-20.666 -0.5 -27.999 -0.5c-0.666992 0.666992 -1.33398 1.66699 -2.00098 3s-1 3.66602 -1 6.99902c0 4.66699 3 7 9 7c5.33301 0 17 0.666992 35 2s39 3.66602 63 6.99902l72.5 110.5
c21 33 35.167 56.833 42.5 71.5c0 1.33301 -1 2 -3 2c-1.33301 0.666992 -6.16602 -2.5 -14.499 -9.5l-31.5 -26l-42 -34c-15.333 -12.333 -30.833 -23.833 -46.5 -34.5s-30.834 -19.5 -45.501 -26.5s-27.334 -10.5 -38.001 -10.5c-15.333 0 -23 7.66699 -23 23
c0 13.333 5.16699 28.833 15.5 46.5s24.166 35.834 41.499 54.501s37.666 37 60.999 55s48 34.167 74 48.5s52.667 25.833 80 34.5s53.666 13 78.999 13c10 0 15 -3 15 -9c-2 -2 -5.66699 -7.33301 -11 -16l-28 -43l-42 -64l-52 -78.5l-59 -87.5l74 36
c25.333 12.667 50 25.834 74 39.501s46.833 27.334 68.5 41.001s40.5 26.834 56.5 39.501c0.666992 0.666992 2 1 4 1c2.66699 0 4.83398 -1 6.50098 -3s2.5 -3.66699 2.5 -5zM279.003 214.997c-35.333 -4 -69.667 -14.499 -103 -31.499s-63 -36.167 -89 -57.5
s-46.833 -42.833 -62.5 -64.5s-23.5 -38.5 -23.5 -50.5c0 -11.333 6.66699 -17 20 -17c8 0 18.333 3.33301 31 10s26.167 15 40.5 25s29 21 44 33s28.667 23.5 41 34.5l31.5 29c8.66699 8.33301 14 13.833 16 16.5l10 13l15.5 19.5c5.66699 7 11.167 14.167 16.5 21.5
s9.33301 13.666 12 18.999zM70.002 -114.002c-42 -25.333 -78.501 -55.167 -109.501 -89.5s-56.833 -67.5 -77.5 -99.5s-36.167 -59.833 -46.5 -83.5s-15.5 -37.5 -15.5 -41.5v-1c6.66699 0 18.834 9.5 36.501 28.5s38 43.5 61 73.5l74.5 101z" />
    <glyph glyph-name="r" unicode="r" horiz-adv-x="390" 
d="M430 88c0 -1.33301 -0.332031 -2.33496 -0.999023 -3.00195c-18.667 -16 -40.834 -31.333 -66.501 -46s-51.667 -27.834 -78 -39.501s-52 -20.834 -77 -27.501s-46.5 -10 -64.5 -10c-14 0 -25.167 2.5 -33.5 7.5s-12.5 12.833 -12.5 23.5c0 12 6 28 18 48s32 45 60 75
c-2 2 -3.83301 6 -5.5 12s-3.16699 12.5 -4.5 19.5l-3.5 19c-1 5.66699 -1.5 9.5 -1.5 11.5c0 2.66699 -1 4 -3 4c-4 0 -15.667 -10 -35 -30s-50.333 -45 -93 -75c-2.66699 -1.33301 -5.66699 -2 -9 -2c-4 0 -6 1.66699 -6 5c0 2.66699 0.333008 4.33398 1 5.00098
s1 1.33398 1 2.00098c17.333 12 35.333 26 54 42l52 46l56 52c1.33301 1.33301 3.33301 2 6 2c3.33301 0 5.83301 -1.5 7.5 -4.5s2.5 -5.83301 2.5 -8.5l-1 -15c-0.666992 -12 -0.166992 -22.167 1.5 -30.5s3.66699 -15.666 6 -21.999l6.5 -17c2 -5 3 -10.167 3 -15.5
c0 -4.66699 -0.333008 -8 -1 -10c-24.667 -26 -42.334 -47.5 -53.001 -64.5s-16 -30.167 -16 -39.5c0 -13.333 9.66699 -20 29 -20c14 0 31.5 3.33301 52.5 10s43 15.334 66 26.001s46 22.667 69 36s43.167 27 60.5 41c0.666992 0.666992 2 1 4 1
c2.66699 0 4.83398 -1 6.50098 -3s2.5 -3.66699 2.5 -5z" />
    <glyph glyph-name="s" unicode="s" horiz-adv-x="318" 
d="M358 88c0 -1.33301 -0.331055 -2.33496 -0.998047 -3.00195c-18.667 -16 -40.834 -31.333 -66.501 -46s-51.667 -27.834 -78 -39.501s-52 -20.834 -77 -27.501s-46.5 -10 -64.5 -10c-28.667 0 -48.334 5 -59.001 15s-16 20.667 -16 32c0 8.66699 2.33301 16.167 7 22.5
s10 9.5 16 9.5c2.66699 0 4.66699 -1.66699 6 -5c3.33301 -10 7.83301 -18.167 13.5 -24.5s12.167 -9.5 19.5 -9.5c12.667 0 24.5 6.33301 35.5 19s20.5 27.667 28.5 45s14.333 34.833 19 52.5s7 31.167 7 40.5c0 8 -1.33301 12 -4 12
c-0.666992 0 -2.33398 -0.666992 -5.00098 -2c-9.33301 -9.33301 -23 -22.166 -41 -38.499s-40.667 -34.166 -68 -53.499c-2.66699 -1.33301 -5.66699 -2 -9 -2c-4 0 -6 1.66699 -6 5c0 2.66699 0.333008 4.33398 1 5.00098s1 1.33398 1 2.00098c18.667 14 38.5 30 59.5 48
l56.5 50l34 33c8 8 14.667 12 20 12c3.33301 0 6.83301 -1.5 10.5 -4.5s5.5 -8.16699 5.5 -15.5c0 -2.66699 -0.666992 -4.66699 -2 -6c-8 -10.667 -14.333 -26 -19 -46s-10.667 -40.833 -18 -62.5s-17.333 -42.167 -30 -61.5s-30.667 -34 -54 -44c8 -2 16 -3 24 -3
c18 0 37.833 3.33301 59.5 10s43.334 15.167 65.001 25.5s42.667 22 63 35s38.166 25.5 53.499 37.5c0.666992 0.666992 2 1 4 1c2.66699 0 4.83398 -1 6.50098 -3s2.5 -3.66699 2.5 -5z" />
    <glyph glyph-name="t" unicode="t" horiz-adv-x="273" 
d="M780 336c0 -9.33301 -1.33594 -16.8369 -4.00293 -22.5039s-9.66699 -8.5 -21 -8.5c-86 0.666992 -157.667 1.33398 -215 2.00098s-105.833 1.33398 -145.5 2.00098s-73.667 1.16699 -102 1.5s-56.833 0.5 -85.5 0.5l-37 -39.5
c-10.667 -11.667 -18.667 -20.834 -24 -27.501c-40 -51.333 -68.833 -94.666 -86.5 -129.999s-26.5 -63.333 -26.5 -84c0 -28 15 -42 45 -42c23.333 0 54 8.83301 92 26.5s81.667 44.5 131 80.5c0.666992 0.666992 2 1 4 1c2.66699 0 4.83398 -1 6.50098 -3
s2.5 -3.66699 2.5 -5s-0.333008 -2.33301 -1 -3c-50 -38.667 -97.833 -68.334 -143.5 -89.001s-83.5 -31 -113.5 -31c-18.667 0 -33.167 4.16699 -43.5 12.5s-15.5 21.166 -15.5 38.499c0 18.667 6.83301 42.334 20.5 71.001s36.167 63.334 67.5 104.001l13 17.5l23 31
l27 37c9.33301 13 18 24.5 26 34.5h-63c-25.333 0 -54 -0.166992 -86 -0.5s-69 -0.833008 -111 -1.5c-2.66699 0 -5.83398 1.16699 -9.50098 3.5s-5.5 5.5 -5.5 9.5c0 2.66699 1.33301 4.83398 4 6.50098s5.83398 3 9.50098 4s7.5 1.66699 11.5 2s7.33301 0.5 10 0.5
c50 0.666992 96.333 1.16699 139 1.5s83 0.833008 121 1.5c3.33301 4.66699 9.33301 12.5 18 23.5l30 38l35.5 45l34 43.5l26 34c7 9.33301 11.167 14.666 12.5 15.999c3.33301 3.33301 5.83301 6.5 7.5 9.5s4.83398 4.5 9.50098 4.5c3.33301 0 7 -1.66699 11 -5
s6 -6.66602 6 -9.99902c0 -9.33301 -4.66699 -21.666 -14 -36.999s-21.166 -32 -35.499 -50s-30.333 -36.667 -48 -56l-52.5 -56c48.667 0.666992 94.5 1.16699 137.5 1.5l127.5 1l129 1c44 0.333008 91.333 0.833008 142 1.5c6.66699 0 10 -2.33301 10 -7z" />
    <glyph glyph-name="u" unicode="u" horiz-adv-x="431" 
d="M471 88c0 -1.33301 -0.332031 -2.33105 -0.999023 -2.99805c-20.667 -18 -42.834 -34.333 -66.501 -49s-46.834 -27.334 -69.501 -38.001s-44.167 -19 -64.5 -25s-38.166 -9 -53.499 -9c-14.667 0 -26.334 3 -35.001 9s-13 15.667 -13 29
c0 12.667 4.16699 28.167 12.5 46.5s22.166 40.833 41.499 67.5c0 4 -0.666992 6 -2 6c-0.666992 0 -2 -1 -4 -3l-15 -15l-29 -28c-11.333 -10.667 -24 -21.834 -38 -33.501s-28 -22.5 -42 -32.5s-27.167 -18.333 -39.5 -25s-23.166 -10 -32.499 -10
c-7.33301 0 -13.166 2.5 -17.499 7.5s-6.5 13.5 -6.5 25.5c0 20 9 45.833 27 77.5s46.333 68.167 85 109.5c5.33301 5.33301 10.666 8 15.999 8c7.33301 0 11 -4.33301 11 -13c0 -5.33301 -2 -10 -6 -14c-6.66699 -6 -15.5 -15.5 -26.5 -28.5s-21.667 -27.333 -32 -43
s-19.166 -31.334 -26.499 -47.001s-11 -29.167 -11 -40.5c0 -8.66699 3.33301 -13 10 -13c8 0 20 5.5 36 16.5s34.5 25.333 55.5 43s43.667 37.834 68 60.501l73.5 69c4.66699 4.66699 11 7 19 7c10.667 0 16 -5 16 -15c0 -3.33301 -1.33301 -7.5 -4 -12.5
s-7.66699 -11.167 -15 -18.5c-29.333 -31.333 -51 -59 -65 -83s-21 -43.667 -21 -59c0 -19.333 10 -29 30 -29c19.333 0 47.666 8.83301 84.999 26.5s83 46.167 137 85.5c0.666992 0.666992 2 1 4 1c2.66699 0 4.83398 -1 6.50098 -3s2.5 -3.66699 2.5 -5z" />
    <glyph glyph-name="v" unicode="v" horiz-adv-x="396" 
d="M436 88c0 -1.33301 -0.332031 -2.3291 -0.999023 -2.99609c-16 -13.333 -33.5 -23.666 -52.5 -30.999s-38.167 -11 -57.5 -11c-24.667 0 -47.334 6.16699 -68.001 18.5s-35.667 31.166 -45 56.499c-12 -20.667 -26 -40 -42 -58s-32.5 -33.5 -49.5 -46.5
s-33.5 -23.167 -49.5 -30.5s-30 -11 -42 -11s-20.667 3.5 -26 10.5s-8 16.167 -8 27.5c0 14 3.16699 30.333 9.5 49s14.5 37.667 24.5 57s21.167 38.166 33.5 56.499s24.5 33.833 36.5 46.5c5.33301 5.33301 10.666 8 15.999 8c7.33301 0 11 -4.33301 11 -13
c0 -5.33301 -2 -10 -6 -14c-8.66699 -8.66699 -18.334 -20.834 -29.001 -36.501s-20.667 -32 -30 -49s-17.166 -33.833 -23.499 -50.5s-9.5 -30.667 -9.5 -42c0 -16.667 7.33301 -25 22 -25c9.33301 0 21.333 4.5 36 13.5s29.667 20.333 45 34s29.833 28.667 43.5 45
s24.167 32.166 31.5 47.499c-1.33301 6 -2.33301 12.167 -3 18.5s-1 13.166 -1 20.499c0 3.33301 0.333008 8.33301 1 15s1.66699 13.5 3 20.5s3.33301 13.167 6 18.5s6 8 10 8c5.33301 0 10 -2.83301 14 -8.5s6 -10.167 6 -13.5c-2 -22.667 -7.66699 -45.667 -17 -69
c3.33301 -16 8.66602 -29.667 15.999 -41s16 -20.5 26 -27.5s20.833 -12.167 32.5 -15.5s22.834 -5 33.501 -5c28 0 58 12.333 90 37c0.666992 0.666992 2 1 4 1c2.66699 0 4.83398 -1 6.50098 -3s2.5 -3.66699 2.5 -5z" />
    <glyph glyph-name="w" unicode="w" horiz-adv-x="623" 
d="M664 88c0 -1.33301 -0.331055 -2.33203 -0.998047 -2.99902c-17.333 -15.333 -36.5 -27 -57.5 -35s-41.833 -12 -62.5 -12c-21.333 0 -40.833 4.66699 -58.5 14s-31.167 24 -40.5 44c-15.333 -34.667 -37 -63.167 -65 -85.5s-61.333 -33.5 -100 -33.5
c-13.333 0 -24 3.33301 -32 10s-12 18 -12 34c0 7.33301 2.5 16.166 7.5 26.499s10.667 20.666 17 30.999s12.333 19.5 18 27.5s8.83398 12.667 9.50098 14c1.33301 1.33301 2 3 2 5c0 2.66699 -1 4 -3 4c-2.66699 0 -7 -2.66699 -13 -8
c-4.66699 -4 -15.834 -13 -33.501 -27l-57.5 -45l-57.5 -44c-17.667 -13.333 -28.5 -21.333 -32.5 -24c-8.66699 -6.66699 -15.667 -10 -21 -10c-2.66699 0 -5.33398 1.16699 -8.00098 3.5s-4 5.16602 -4 8.49902c0 5.33301 2.5 12 7.5 20s10.167 15 15.5 21
c5.33301 5.33301 12.666 14.166 21.999 26.499s18.5 25.333 27.5 39s16.833 26.5 23.5 38.5s10 20.667 10 26c0 10 -3.33301 15 -10 15c-8 0 -23 -9 -45 -27l-35.5 -30c-13 -11.333 -28.167 -23 -45.5 -35c-2.66699 -1.33301 -5.66699 -2 -9 -2c-4 0 -6 1.66699 -6 5
c0 2.66699 0.333008 4.33398 1 5.00098s1 1.33398 1 2.00098c18.667 14 38.5 30 59.5 48l56.5 50c12 12 24.667 18 38 18c10 0 18.333 -3.5 25 -10.5s10 -16.167 10 -27.5c0 -7.33301 -2.66699 -16.5 -8 -27.5s-11.333 -22 -18 -33l-18.5 -30
c-5.66699 -9 -9.16699 -15.5 -10.5 -19.5c-0.666992 -1.33301 -1 -2.66602 -1 -3.99902s0.333008 -2 1 -2c2 0 7.66699 3.16699 17 9.5l34 24l42.5 31.5l42.5 33l35 28.5c10 8.33301 16.333 13.833 19 16.5c5.33301 5.33301 11.666 8 18.999 8c10 0 15 -5.33301 15 -16
c0 -4 -1.33301 -8.5 -4 -13.5s-7.66699 -11.167 -15 -18.5c-8 -8.66699 -16.667 -18.834 -26 -30.501s-18 -23.5 -26 -35.5s-14.667 -23.5 -20 -34.5s-8 -20.5 -8 -28.5c0 -7.33301 3 -13.166 9 -17.499s14 -6.5 24 -6.5c14 0 27.667 3.83301 41 11.5
s25.833 17.167 37.5 28.5s21.834 23.833 30.501 37.5s15 26.834 19 39.501c-4 13.333 -6 28.666 -6 45.999c0 3.33301 0.333008 8.33301 1 15s1.66699 13.5 3 20.5s3.33301 13.167 6 18.5s6 8 10 8c5.33301 0 10 -2.83301 14 -8.5s6 -10.167 6 -13.5
c-1.33301 -12 -3 -23.833 -5 -35.5s-4.66699 -23.167 -8 -34.5c12 -28 26.167 -48.167 42.5 -60.5s34.166 -18.5 53.499 -18.5c30 0 62.667 14 98 42c0.666992 0.666992 2 1 4 1c2.66699 0 4.83398 -1 6.50098 -3s2.5 -3.66699 2.5 -5z" />
    <glyph glyph-name="x" unicode="x" horiz-adv-x="450" 
d="M490 88c0 -1.33301 -0.330078 -2.33105 -0.99707 -2.99805c-18.667 -16 -40.834 -31.333 -66.501 -46s-51.667 -27.834 -78 -39.501s-52 -20.834 -77 -27.501s-46.5 -10 -64.5 -10c-16.667 0 -28.334 3 -35.001 9s-10 13.667 -10 23c0 8.66699 2.16699 18 6.5 28
s9.16602 19.667 14.499 29l-64 -40l-49.5 -28c-15.667 -8.66699 -27.167 -13 -34.5 -13c-4 0 -7.5 0.833008 -10.5 2.5s-4.5 3.83398 -4.5 6.50098c0 4.66699 5.66699 8 17 10c20 3.33301 44 13.333 72 30s54.833 35.834 80.5 57.501s47.5 43.834 65.5 66.501
s27 41.667 27 57c0 8 -5.33301 12 -16 12c-14 0 -30.5 -4.33301 -49.5 -13s-38.167 -18.834 -57.5 -30.501s-37.333 -23.667 -54 -36l-39 -29.5c-5.33301 -4.66699 -10.833 -9 -16.5 -13l-18.5 -13c-4 -1.33301 -6.66699 -2 -8 -2c-4.66699 0 -7 2 -7 6
c0 1.33301 0.666992 3.33301 2 6l17.5 12.5c6.33301 4.33301 12.5 9.16602 18.5 14.499c4 4 15.167 12.667 33.5 26s39.333 27.333 63 42s47.667 27.834 72 39.501s44.833 17.5 61.5 17.5c9.33301 0 17 -2.66699 23 -8s9 -14 9 -26c0 -7.33301 -1.83301 -16.5 -5.5 -27.5
s-9.16699 -20.167 -16.5 -27.5l71.5 46c24.333 15.333 48.5 26.666 72.5 33.999c1.33301 0.666992 3.33301 1 6 1c3.33301 0 6.33301 -1.33301 9 -4s4 -5.33398 4 -8.00098c0 -4 -2.33301 -6 -7 -6c-14 0 -32.167 -5.33301 -54.5 -16s-45 -23.834 -68 -39.501
s-44.333 -32.667 -64 -51s-33.5 -35.166 -41.5 -50.499c-3.33301 -5.33301 -6.33301 -11 -9 -17c-2.66699 -5.33301 -4.83398 -10.833 -6.50098 -16.5s-2.5 -11.167 -2.5 -16.5c0 -6.66699 2 -12.334 6 -17.001s11.667 -7 23 -7c14 0 31.5 3.33301 52.5 10
s43 15.334 66 26.001s46 22.667 69 36s43.167 27 60.5 41c0.666992 0.666992 2 1 4 1c2.66699 0 4.83398 -1 6.50098 -3s2.5 -3.66699 2.5 -5z" />
    <glyph glyph-name="y" unicode="y" horiz-adv-x="382" 
d="M422 88c0 -1.33301 -0.335938 -2.33105 -1.00293 -2.99805c-10.667 -8.66699 -22 -17.167 -34 -25.5s-24.667 -16.166 -38 -23.499c-54 -30 -103.333 -59.333 -148 -88s-85 -56.334 -121 -83.001l-84.5 -120c-28.333 -39.333 -54.666 -74.333 -78.999 -105
s-46 -55.334 -65 -74.001s-33.167 -28 -42.5 -28c-14.667 0 -22 8.33301 -22 25c0 11.333 4.33301 26.5 13 45.5s23.334 41.167 44.001 66.5s47.834 53.833 81.501 85.5s75.5 66.167 125.5 103.5l88 135.5c27.333 43 49.666 76.833 66.999 101.5c0 1.33301 -0.666992 2 -2 2
c-2.66699 0 -5.33398 -1.33301 -8.00098 -4l-38.5 -31.5c-17 -13.667 -35.333 -27.334 -55 -41.001s-39.334 -25.5 -59.001 -35.5s-36.5 -15 -50.5 -15c-13.333 2 -20 10.333 -20 25c0 8 2.83301 17.833 8.5 29.5s12.834 24 21.501 37s18.334 26.333 29.001 40l31.5 38.5
l29 32.5l20.5 21.5c2 2 4 3.66699 6 5c4 2.66699 8 4 12 4c2 0 4.33301 -0.5 7 -1.5s4 -3.16699 4 -6.5c0 -2.66699 -1.33301 -5.66699 -4 -9c-0.666992 -0.666992 -4.16699 -4.5 -10.5 -11.5l-23 -26l-29.5 -34.5c-10.667 -12.667 -20.334 -25.334 -29.001 -38.001
s-16 -24.5 -22 -35.5s-9 -19.833 -9 -26.5c0 -8.66699 5 -13 15 -13c14 0 32.167 7.33301 54.5 22s45 31.834 68 51.501s44.333 39.167 64 58.5s33.834 34 42.501 44c13.333 15.333 24.333 23 33 23c6 0 9 -5.66699 9 -17c0 1.33301 -5.16699 -5.66699 -15.5 -21
l-42.5 -62.5l-62 -92l-74 -109.5l107.5 70.5c38.333 24.333 80.5 49.5 126.5 75.5c25.333 14 48 29 68 45c0.666992 0.666992 2 1 4 1c2.66699 0 4.83398 -1 6.50098 -3s2.5 -3.66699 2.5 -5zM23.9971 -177.998c-38.667 -31.333 -71.499 -60.168 -98.499 -86.501
s-48.833 -49.833 -65.5 -70.5s-28.834 -38 -36.501 -52s-11.5 -24 -11.5 -30c0 -4 1.66699 -6 5 -6c9.33301 0 21.333 6.83301 36 20.5s31.167 31.834 49.5 54.501s37.833 48.667 58.5 78z" />
    <glyph glyph-name="z" unicode="z" horiz-adv-x="323" 
d="M364 88c0 -1.33301 -0.333984 -2.33691 -1.00098 -3.00391l-137.5 -97.5l-130.5 -89.5c-5.33301 -24 -15.666 -48.833 -30.999 -74.5s-33.333 -50.667 -54 -75s-42.834 -47.333 -66.501 -69s-46.667 -40.667 -69 -57s-42.833 -29.333 -61.5 -39s-33 -14.5 -43 -14.5
c-17.333 0 -26 6 -26 18c0 8.66699 4.16699 19.667 12.5 33s19.333 28 33 44s29.167 32.5 46.5 49.5l52 49.5c17.333 16 34.166 30.5 50.499 43.5s30.5 23.833 42.5 32.5l43 30.5l45 31.5c0.666992 3.33301 1.16699 6.33301 1.5 9s0.5 5.33398 0.5 8.00098
c0 16.667 -1.83301 29.334 -5.5 38.001s-7.5 15 -11.5 19s-7.83301 7 -11.5 9s-5.5 4.66699 -5.5 8c0 2.66699 7.33301 6 22 10c18 5.33301 34.833 14.5 50.5 27.5s29.167 27.5 40.5 43.5s20.333 32.167 27 48.5s10 30.5 10 42.5c0 17.333 -7 26 -21 26
c-1.33301 0 -2.83301 -0.666992 -4.5 -2s-3.16699 -2.66602 -4.5 -3.99902l-21.5 -20.5l-30.5 -27.5c-11.333 -10 -23.333 -20 -36 -30l-38 -29c-2.66699 -1.33301 -5.66699 -2 -9 -2c-4 0 -6 1.66699 -6 5c0 2.66699 0.333008 4.33398 1 5.00098s1 1.33398 1 2.00098
c18.667 14 38.5 30 59.5 48l56.5 50l34 33c8 8 14.667 12 20 12c12.667 0 22.167 -4.33301 28.5 -13s9.5 -20 9.5 -34c0 -13.333 -2.83301 -28.333 -8.5 -45s-14.5 -33.667 -26.5 -51s-27.167 -34.5 -45.5 -51.5s-39.833 -32.167 -64.5 -45.5c12 -18 18 -37.667 18 -59
c0 -4.66699 -0.333008 -8.33398 -1 -11.001l128.5 87c43 28.667 84.167 58 123.5 88c0.666992 0.666992 2.33398 1 5.00098 1s4.83398 -1 6.50098 -3s2.5 -3.66699 2.5 -5zM61.999 -124.004l-38.499 -27l-35.5 -26c-20 -14 -42.5 -31.667 -67.5 -53
s-48.167 -42.666 -69.5 -63.999s-39.333 -41 -54 -59s-22 -30.667 -22 -38c0 -4 2.66699 -6 8 -6c6 0 16.167 4 30.5 12s30.666 18.667 48.999 32s37.666 29.166 57.999 47.499s39.833 37.5 58.5 57.5s35.334 40.667 50.001 62s25.667 42 33 62z" />
    <glyph glyph-name="braceleft" unicode="{" horiz-adv-x="312" 
d="M540 710c0 -3.33301 -1.66406 -4.99902 -4.99707 -4.99902c-16.667 7.33301 -31.834 12.666 -45.501 15.999s-26.5 5 -38.5 5c-28.667 0 -51.667 -7.16699 -69 -21.5s-31.333 -32.666 -42 -54.999s-18.834 -47.166 -24.501 -74.499l-16.5 -81
c-5.33301 -26.667 -11.333 -51.5 -18 -74.5s-16.334 -41.167 -29.001 -54.5c-8.66699 -9.33301 -18.167 -16.666 -28.5 -21.999s-20.5 -10 -30.5 -14l10 -25c3.33301 -8.66699 5 -18 5 -28c0 -20.667 -8.33301 -43.5 -25 -68.5l-55.5 -80
c-20.333 -28.333 -38.833 -58 -55.5 -89s-25 -62.5 -25 -94.5c0 -19.333 6.83301 -37.833 20.5 -55.5s39.5 -32.834 77.5 -45.501c1.33301 0 2 -0.666992 2 -2c0 -2 -1.66699 -4.16699 -5 -6.5s-6.66602 -3.5 -9.99902 -3.5c-43.333 13.333 -75.333 28.5 -96 45.5
s-31 37.167 -31 60.5c0 18 4.16699 36.667 12.5 56s19 38.833 32 58.5l41.5 60c14.667 20.333 28.5 40.5 41.5 60.5s23.667 39.833 32 59.5s12.5 38.834 12.5 57.501c0 10.667 -1.5 18.167 -4.5 22.5s-6.5 7.5 -10.5 9.5s-7.5 4 -10.5 6s-4.5 5.33301 -4.5 10
c0 3.33301 3 5.33301 9 6c21.333 1.33301 37.666 5.16602 48.999 11.499s20 13.166 26 20.499c14.667 17.333 26.167 38.833 34.5 64.5s15.333 52.667 21 81l17.5 84.5c6 28 14.167 53.167 24.5 75.5s24 40.5 41 54.5s39.5 21 67.5 21c10.667 0 22 -1.16699 34 -3.5
s23.167 -5.5 33.5 -9.5s18.833 -8.83301 25.5 -14.5s10 -11.834 10 -18.501z" />
    <glyph glyph-name="bar" unicode="|" horiz-adv-x="318" 
d="M443 606c0 -4 -2.00098 -8 -6.00098 -12l-219 -329.5l-207 -319.5c-5.33301 -8 -9.16602 -14 -11.499 -18s-6.5 -6 -12.5 -6c-5.33301 0.666992 -8.83301 1.66699 -10.5 3s-2.5 3 -2.5 5c0 3.33301 1 7 3 11s4.33301 7.66699 7 11
c0.666992 0.666992 7.16699 10.334 19.5 29.001l47.5 72.5l66 101l76 115.5l76.5 116.5l68 104l50 77c13 20.333 20.5 32.166 22.5 35.499c4 7.33301 10.333 11 19 11c2.66699 0 5.66699 -0.333008 9 -1s5 -2.66699 5 -6z" />
    <glyph glyph-name="braceright" unicode="}" horiz-adv-x="254" 
d="M476 651c0 -18 -4.16992 -36.668 -12.5029 -56.001s-19 -38.833 -32 -58.5l-41.5 -60c-14.667 -20.333 -28.5 -40.5 -41.5 -60.5s-23.667 -39.833 -32 -59.5s-12.5 -38.834 -12.5 -57.501c0 -10.667 1.5 -18.167 4.5 -22.5s6.5 -7.5 10.5 -9.5s7.5 -3.83301 10.5 -5.5
s4.5 -5.16699 4.5 -10.5c0 -3.33301 -3 -5.33301 -9 -6c-21.333 -1.33301 -37.666 -5.16602 -48.999 -11.499s-20 -13.166 -26 -20.499c-14.667 -17.333 -26.167 -38.833 -34.5 -64.5s-15.333 -52.667 -21 -81l-17.5 -84.5c-6 -28 -14.167 -53.167 -24.5 -75.5
s-24 -40.5 -41 -54.5s-39.5 -21 -67.5 -21c-10.667 0 -22 1.16699 -34 3.5s-23.167 5.5 -33.5 9.5s-18.833 8.83301 -25.5 14.5s-10 11.834 -10 18.501c0 3.33301 1.66699 5 5 5c16.667 -7.33301 31.834 -12.666 45.501 -15.999s26.5 -5 38.5 -5
c28.667 0 51.667 7.16699 69 21.5s31.333 32.666 42 54.999s18.834 47.166 24.501 74.499l16.5 81c5.33301 26.667 11.333 51.5 18 74.5s16.334 41.167 29.001 54.5c8.66699 9.33301 18.167 16.666 28.5 21.999s20.5 10 30.5 14l-10 25c-3.33301 8.66699 -5 18 -5 28
c0 20.667 8.33301 43.5 25 68.5l55.5 80c20.333 28.333 38.833 58 55.5 89s25 62.5 25 94.5c0 19.333 -6.83301 37.833 -20.5 55.5s-39.5 32.834 -77.5 45.501c-1.33301 0 -2 0.666992 -2 2c0 2 1.66699 4.16699 5 6.5s6.66602 3.5 9.99902 3.5
c43.333 -13.333 75.333 -28.5 96 -45.5s31 -37.167 31 -60.5z" />
    <glyph glyph-name="exclamdown" unicode="&#xa1;" horiz-adv-x="259" 
d="M235 204c0 -4.66699 -1.33203 -9.33301 -3.99902 -14s-5.83398 -9 -9.50098 -13s-7.66699 -7.16699 -12 -9.5s-8.5 -3.5 -12.5 -3.5c-6 0 -11 2.33301 -15 7s-6 9.66699 -6 15c0 9.33301 4.33301 18.166 13 26.499s16.667 12.5 24 12.5c5.33301 0 10.333 -1.66699 15 -5
s7 -8.66602 7 -15.999zM168.001 110.001c0 -0.666992 -4.00098 -8.16504 -12.001 -22.498l-31.5 -56l-44.5 -78l-51 -88.5l-50.5 -88.5l-44 -77.5l-31 -54.5c-7.66699 -13.667 -11.167 -20.834 -10.5 -21.501c-5.33301 -11.333 -10.833 -19.333 -16.5 -24
s-11.167 -7 -16.5 -7c-4.66699 0 -8.5 1.16699 -11.5 3.5s-4.5 5.16602 -4.5 8.49902c0 2.66699 0.333008 4.66699 1 6c0.666992 2 7.33398 13 20.001 33l47 75l62.5 100.5l67.5 109l61 100.5l44 76c6 10.667 11 16 15 16s6 -3.33301 6 -10z" />
    <glyph glyph-name="cent" unicode="&#xa2;" horiz-adv-x="284" 
d="M371 255c0 -1.33301 -0.334961 -2.3291 -1.00195 -2.99609c-10.667 -9.33301 -27 -20.833 -49 -34.5s-46 -27 -72 -40s-52.333 -24.167 -79 -33.5s-50.667 -14 -72 -14h-12l-18.5 -31c-6.33301 -10.667 -12.5 -20.5 -18.5 -29.5s-11.667 -16.333 -17 -22
s-10 -8.5 -14 -8.5c-6 0 -10 1 -12 3s-3 4.33301 -3 7s2.16699 7 6.5 13l15.5 21l19 26c6.66699 9.33301 12.334 18.666 17.001 27.999c-14.667 7.33301 -22 20.666 -22 39.999c0 25.333 7 50.166 21 74.499s31 46.333 51 66s41.5 35.834 64.5 48.501
s43.5 19.334 61.5 20.001c6 11.333 12.5 22.5 19.5 33.5l18.5 29.5l13 20.5c3.33301 5 5 7.16699 5 6.5c4.66699 8.66699 12 13 22 13c2.66699 0 6.33398 -0.5 11.001 -1.5s7 -2.83301 7 -5.5c0 -2 -2.16699 -6.33301 -6.5 -13s-10 -14.667 -17 -24l-23 -30.5
c-8.33301 -11 -16.166 -22.167 -23.499 -33.5c15.333 -8.66699 23 -24.667 23 -48c0 -16 -6.16699 -29.333 -18.5 -40s-24.5 -16 -36.5 -16c-6.66699 0 -12.5 2.33301 -17.5 7s-7.5 11.667 -7.5 21c0 7.33301 1.66699 15.833 5 25.5s7.66602 20.167 12.999 31.5
c-15.333 0 -31.333 -5.83301 -48 -17.5s-31.834 -25.834 -45.501 -42.501s-25 -34.5 -34 -53.5s-13.5 -36.167 -13.5 -51.5c0 -13.333 3.83301 -24 11.5 -32s20.167 -12 37.5 -12c16 0 34.667 4 56 12s42.5 17.667 63.5 29s41 23.166 60 35.499s34.5 23.166 46.5 32.499
c0.666992 0.666992 2 1 4 1c2.66699 0 4.83398 -1 6.50098 -3s2.5 -3.66699 2.5 -5zM255.998 318.004c0 8 -1.00098 14.834 -3.00098 20.501s-4.66699 10.167 -8 13.5c-5.33301 -9.33301 -9.66602 -17.833 -12.999 -25.5s-5 -14.167 -5 -19.5c0 -8.66699 5 -13 15 -13
c3.33301 0 6.5 2.16699 9.5 6.5s4.5 10.166 4.5 17.499z" />
    <glyph glyph-name="sterling" unicode="&#xa3;" horiz-adv-x="473" 
d="M629 501c0 -8 -2.50293 -16.1709 -7.50293 -24.5039s-13.167 -15.666 -24.5 -21.999s-26.166 -11.666 -44.499 -15.999s-40.5 -6.5 -66.5 -6.5c-25.333 0 -50.666 3 -75.999 9c-14 -18 -27.167 -37.833 -39.5 -59.5s-24.5 -44.167 -36.5 -67.5
c13.333 0 25.666 0.166992 36.999 0.5s20.333 0.5 27 0.5c4 0 6 -2.33301 6 -7v-8c0 -3.33301 -2.5 -5.66602 -7.5 -6.99902s-10.833 -2 -17.5 -2h-56c-2 -4.66699 -4.16699 -9 -6.5 -13s-4.5 -8 -6.5 -12c13.333 0 25.666 0.166992 36.999 0.5s20.333 0.5 27 0.5
c4 0 6 -2.66699 6 -8v-8c0 -3.33301 -2.5 -5.5 -7.5 -6.5s-10.833 -1.5 -17.5 -1.5h-56c-12 -23.333 -24.167 -45.833 -36.5 -67.5s-25.166 -41.834 -38.499 -60.501c32 -9.33301 58.667 -26.666 80 -51.999s32 -62 32 -110c0 -7.33301 -1.83301 -14.666 -5.5 -21.999
s-10.167 -11 -19.5 -11c-3.33301 0 -7.66602 1 -12.999 3c0.666992 5.33301 1.33398 11.5 2.00098 18.5s1 14.833 1 23.5c0 38 -8.33301 67.833 -25 89.5s-37.667 36.834 -63 45.501c-40.667 -52 -78.667 -88.5 -114 -109.5s-65.333 -31.5 -90 -31.5
c-18.667 0 -33.167 4.5 -43.5 13.5s-15.5 20.167 -15.5 33.5c0 15.333 6.33301 30 19 44s29 26.333 49 37s42.667 19.334 68 26.001s50.666 10 75.999 10c4 0 8.16699 -0.166992 12.5 -0.5s8.83301 -0.833008 13.5 -1.5c14 17.333 27.667 36.333 41 57l40 65
c-20 0.666992 -38.5 1.16699 -55.5 1.5s-29.5 0.833008 -37.5 1.5c-2 0 -3 1.33301 -3 4c0 2 1.5 4.66699 4.5 8s6.16699 5 9.5 5c4.66699 0 15.334 0.166992 32.001 0.5s37.334 0.833008 62.001 1.5c3.33301 5.33301 6 9.83301 8 13.5l7 12.5
c-20.667 0.666992 -39.667 1.16699 -57 1.5s-30.333 0.833008 -39 1.5c-2 0 -3 1.66699 -3 5c0 1.33301 1.5 3.66602 4.5 6.99902s6.16699 5 9.5 5c4.66699 0 15.667 0.166992 33 0.5s39 0.833008 65 1.5c13.333 23.333 27.333 46.333 42 69s29.667 43.667 45 63
c-26 8 -51 20 -75 36s-46 37 -66 63c-3.33301 4.66699 -5 8.66699 -5 12s1.33301 5.66602 4 6.99902s5.66699 2 9 2c5.33301 0 12.333 -4.33301 21 -13c20 -22 40.833 -40.333 62.5 -55s43.167 -26 64.5 -34c22.667 25.333 47.167 45.833 73.5 61.5s55.5 23.5 87.5 23.5
c17.333 0 31.166 -4.66699 41.499 -14s15.5 -20.333 15.5 -33zM594.997 498.996c0 8.66699 -3.33301 16 -10 22s-16 9 -28 9c-28 0 -52.833 -6.5 -74.5 -19.5s-41.5 -30.5 -59.5 -52.5c25.333 -8 49.333 -12 72 -12c35.333 0 60.833 5.83301 76.5 17.5s23.5 23.5 23.5 35.5z
M175.997 107.996c-4 0.666992 -7.83301 1.00195 -11.5 1.00195h-11.5c-20.667 0 -41.167 -2.66699 -61.5 -8s-38.666 -12.833 -54.999 -22.5s-29.5 -20.834 -39.5 -33.501s-15 -26.334 -15 -41.001c0 -8 2.66699 -14.5 8 -19.5s12.666 -7.5 21.999 -7.5
c16.667 0 39 9.5 67 28.5s60.333 53.167 97 102.5z" />
    <glyph glyph-name="yen" unicode="&#xa5;" horiz-adv-x="344" 
d="M500 541c0 -2 -0.99707 -4.16602 -2.99707 -6.49902s-4.33301 -4.66602 -7 -6.99902s-5.33398 -4.33301 -8.00098 -6s-4.33398 -2.83398 -5.00098 -3.50098c-40 -28 -78.333 -64.167 -115 -108.5s-70.334 -91.5 -101.001 -141.5h16.5c8.33301 0 17.166 0.333008 26.499 1
c11.333 0.666992 23.333 1 36 1c4 0 6 -2.33301 6 -7v-8c0 -3.33301 -2.5 -5.66602 -7.5 -6.99902s-10.833 -2 -17.5 -2h-73c-2.66699 -4 -5.16699 -8.16699 -7.5 -12.5l-7.5 -13.5h18.5c9 0 18.167 0.333008 27.5 1c11.333 0.666992 23.666 1 36.999 1c4 0 6 -2.66699 6 -8
v-8c0 -3.33301 -2.5 -5.5 -7.5 -6.5s-10.833 -1.5 -17.5 -1.5h-76c-21.333 -40.667 -39.5 -79.334 -54.5 -116.001s-25.5 -68 -31.5 -94c-4 -10.667 -8.33301 -16 -13 -16c-5.33301 0 -10.333 2.33301 -15 7s-7 11 -7 19l39.5 88.5c14.333 32.333 31.5 65.833 51.5 100.5
l7 12c-17.333 0 -33.166 0.166992 -47.499 0.5s-25.166 0.833008 -32.499 1.5c-2 0 -3 1.33301 -3 4c0 2 1.5 4.66699 4.5 8s6.16699 5 9.5 5c4 0 13.667 0.166992 29 0.5s32.666 0.833008 51.999 1.5l15 27c-18 0 -34.5 0.166992 -49.5 0.5s-26.167 0.833008 -33.5 1.5
c-2 0 -3 1.66699 -3 5c0 1.33301 1.5 3.66602 4.5 6.99902s6.16699 5 9.5 5c4 0 14.167 0.166992 30.5 0.5s34.5 0.833008 54.5 1.5l1 1c-2 16 -5.66699 38.167 -11 66.5s-12 56 -20 83s-17.5 50.5 -28.5 70.5s-23.5 30 -37.5 30c-3.33301 2 -5 6 -5 12
c0 8.66699 3 15.667 9 21s10 8 12 8c10 0 19 -4.66699 27 -14s15.167 -21.5 21.5 -36.5s12 -32.167 17 -51.5s9.33301 -39 13 -59s6.83398 -39.667 9.50098 -59s4.66699 -36.333 6 -51c18 32 37 62.667 57 92s40 56 60 80s40 44.5 60 61.5s39.333 29.5 58 37.5
c2.66699 0 5.5 -0.833008 8.5 -2.5s4.5 -7.16699 4.5 -16.5z" />
    <glyph glyph-name="section" unicode="&#xa7;" horiz-adv-x="262" 
d="M438 665c0 -2 -2.33203 -6.49121 -6.99902 -13.4912s-10.667 -15.5 -18 -25.5l-24 -32.5c-8.66699 -11.667 -17 -23.5 -25 -35.5c8 -3.33301 14.5 -8.33301 19.5 -15s7.5 -15.667 7.5 -27c0 -16 -6.16699 -29.333 -18.5 -40s-24.5 -16 -36.5 -16
c-6.66699 0 -12.5 2.33301 -17.5 7s-7.5 11.667 -7.5 21c0 7.33301 1.66699 16.166 5 26.499s8.66602 22.166 15.999 35.499c-1.33301 0.666992 -3.66602 1 -6.99902 1c-10.667 0 -22.167 -3.33301 -34.5 -10s-23.833 -15.5 -34.5 -26.5s-19.5 -23.333 -26.5 -37
s-10.5 -27.167 -10.5 -40.5c0 -16.667 3.83301 -30.334 11.5 -41.001s16 -20.834 25 -30.501s17.167 -20.167 24.5 -31.5s11 -26.333 11 -45c0 -30 -8 -57.667 -24 -83s-34.667 -46.666 -56 -63.999c-4.66699 -26.667 -16.167 -51.334 -34.5 -74.001
s-39.333 -42.334 -63 -59.001s-47.834 -29.834 -72.501 -39.501s-45.667 -14.5 -63 -14.5c-4.66699 0 -7 3.33301 -7 10c0 4.66699 1.66699 9.16699 5 13.5s9.66602 6.5 18.999 6.5c12 0 28 3.66699 48 11s39.833 17.666 59.5 30.999s36.667 29.5 51 48.5
s21.5 40.167 21.5 63.5c0 14 -3.66699 26.333 -11 37s-15.5 21.5 -24.5 32.5s-17.167 23.167 -24.5 36.5s-11 29.333 -11 48c0 24 6.83301 45.667 20.5 65s32.834 36.333 57.501 51c0 23.333 5.33301 44.5 16 63.5s23.834 35.167 39.501 48.5s32.667 23.666 51 30.999
s35.166 11 50.499 11l33.5 59.5c8.33301 14.333 15 25.166 20 32.499s9 12 12 14s5.83301 3 8.5 3s7.5 -0.333008 14.5 -1s10.5 -2.66699 10.5 -6zM361.001 501.009c0 16 -3.33301 28.334 -10 37.001c-5.33301 -9.33301 -9.83301 -18.333 -13.5 -27s-5.5 -15.667 -5.5 -21
c0 -8.66699 5 -13 15 -13c3.33301 0 6.5 2.16699 9.5 6.5s4.5 10.166 4.5 17.499zM254.001 270.01c0 11.333 -2.66699 21.332 -8 29.999s-11.833 17.167 -19.5 25.5s-15.167 17.333 -22.5 27s-13 20.834 -17 33.501c-32 -18.667 -48 -44.334 -48 -77.001
c0 -16 3.5 -29.167 10.5 -39.5s14.833 -20 23.5 -29s16.834 -18.667 24.501 -29s12.167 -23.5 13.5 -39.5c8 8 15.333 17 22 27c5.33301 8.66699 10.166 18.834 14.499 30.501s6.5 25.167 6.5 40.5z" />
    <glyph glyph-name="dieresis" unicode="&#xa8;" horiz-adv-x="242" 
d="M283 319c0 -9.33301 -4.33398 -18.167 -13.001 -26.5s-16.667 -12.5 -24 -12.5c-5.33301 0 -10.333 1.66699 -15 5s-7 8.66602 -7 15.999c0 4.66699 1.33301 9.33398 4 14.001s5.83398 9 9.50098 13s7.66699 7.16699 12 9.5s8.5 3.5 12.5 3.5c6 0 11 -2.33301 15 -7
s6 -9.66699 6 -15zM172.999 318.999c0 -9.33301 -4.33398 -18.167 -13.001 -26.5s-16.667 -12.5 -24 -12.5c-5.33301 0 -10.333 1.66699 -15 5s-7 8.66602 -7 15.999c0 4.66699 1.33301 9.33398 4 14.001s5.83398 9 9.50098 13s7.66699 7.16699 12 9.5s8.5 3.5 12.5 3.5
c6 0 11 -2.33301 15 -7s6 -9.66699 6 -15z" />
    <glyph glyph-name="copyright" unicode="&#xa9;" horiz-adv-x="427" 
d="M375 205c0 -24.667 -7.16895 -51.5029 -21.502 -80.5029s-33.5 -56 -57.5 -81s-51.667 -45.833 -83 -62.5s-64 -25 -98 -25c-40 0 -68.5 8 -85.5 24s-25.5 36 -25.5 60c0 24.667 7.83301 51.334 23.5 80.001s36.334 55.334 62.001 80.001s54.834 45.167 87.501 61.5
s66 24.5 100 24.5c34.667 0 59.667 -7.66699 75 -23s23 -34.666 23 -57.999zM348.998 195.997c0 20 -6.49902 36.999 -19.499 50.999s-33.5 21 -61.5 21c-29.333 0 -58.5 -7.66699 -87.5 -23s-54.833 -34.333 -77.5 -57s-41 -47.167 -55 -73.5s-21 -50.5 -21 -72.5
c0 -20 7.5 -36.5 22.5 -49.5s38.833 -19.5 71.5 -19.5c31.333 0 60.666 7.5 87.999 22.5s51.5 33.833 72.5 56.5s37.5 46.834 49.5 72.501s18 49.5 18 71.5zM329.999 228.996c-3.33301 -1.33301 -7.66797 -3.66992 -13.001 -7.00293s-10.666 -7.66602 -15.999 -12.999v-4
c0 -8 -1.83301 -16.667 -5.5 -26s-8.16699 -18 -13.5 -26s-11.333 -14.5 -18 -19.5s-12.667 -7.5 -18 -7.5c-8.66699 0 -13 3 -13 9c0 3.33301 1.5 7.66602 4.5 12.999s7 11 12 17s10.667 12.167 17 18.5s12.833 12.5 19.5 18.5c-0.666992 8 -3 14.667 -7 20
s-11.333 8 -22 8c-18 0 -36.833 -6.66699 -56.5 -20s-37.834 -29.5 -54.501 -48.5s-30.5 -39 -41.5 -60s-16.5 -39.5 -16.5 -55.5c0 -11.333 3.33301 -20.5 10 -27.5s17.667 -10.5 33 -10.5c7.33301 0 15.333 1.33301 24 4s17.334 5.83398 26.001 9.50098
s16.667 7.66699 24 12s13.333 8.16602 18 11.499c1.33301 0 2.16602 -1.16699 2.49902 -3.5s0.5 -4.16602 0.5 -5.49902c-4 -2 -9.66699 -5.16699 -17 -9.5s-15.833 -8.66602 -25.5 -12.999s-19.667 -8.16602 -30 -11.499s-20.166 -5 -29.499 -5
c-20 0 -34.5 4.66699 -43.5 14s-13.5 21.333 -13.5 36c0 18 5.5 38 16.5 60s25.667 42.667 44 62s39.333 35.666 63 48.999s47.834 20 72.501 20c11.333 0 20 -2.16699 26 -6.5s9.66699 -10.166 11 -17.499c6 5.33301 11.667 9.5 17 12.5s9.66602 5.16699 12.999 6.5v-4v0z
M285.997 194.992c-11.333 -10.667 -21.332 -21.6689 -29.999 -33.002s-13 -19.666 -13 -24.999c0 -3.33301 2 -5 6 -5c3.33301 0 7.16602 2 11.499 6s8.16602 9 11.499 15s6.33301 12.833 9 20.5s4.33398 14.834 5.00098 21.501z" />
    <glyph glyph-name="ordfeminine" unicode="&#xaa;" horiz-adv-x="387" 
d="M350 329c0 -0.666992 -1.33691 -1.66602 -4.00391 -2.99902l-4 -2c-17.333 -10.667 -34.833 -18.834 -52.5 -24.501s-33.167 -8.5 -46.5 -8.5c-20 0 -30 9.33301 -30 28c0 11.333 4 25.333 12 42l-29 -24c-10.667 -8.66699 -21.5 -16.667 -32.5 -24
s-21.667 -13.5 -32 -18.5s-19.166 -7.5 -26.499 -7.5c-12 0 -18 6 -18 18c0 11.333 6 26.166 18 44.499s28.167 36.333 48.5 54s43.833 32.834 70.5 45.501s54.334 19 83.001 19c10.667 0 16 -2.33301 16 -7s-5.66699 -12.667 -17 -24
c-4.66699 -4.66699 -10.667 -11.5 -18 -20.5s-14.666 -19 -21.999 -30s-13.666 -22 -18.999 -33s-8 -20.5 -8 -28.5c0 -12.667 7.66699 -19 23 -19c9.33301 0 20.5 2.5 33.5 7.5s26.167 10.833 39.5 17.5l8 4c4.66699 0 7 -2 7 -6zM292.996 454.001
c0 2 -1.99805 3.00195 -5.99805 3.00195c-16 0 -34 -5.5 -54 -16.5s-38.667 -23.833 -56 -38.5s-32 -29.667 -44 -45s-18 -27 -18 -35s4.66699 -12 14 -12c5.33301 0 12.166 2.16699 20.499 6.5s17.333 9.66602 27 15.999s19.5 13.5 29.5 21.5l28 23
c13.333 22 32.666 46.333 57.999 73c0.666992 1.33301 1 2.66602 1 3.99902z" />
    <glyph glyph-name="guillemotleft" unicode="&#xab;" horiz-adv-x="478" 
d="M450 196c0 -4.66699 -8.66602 -10.002 -25.999 -16.002l-193 -72l143 -72c5.33301 -2.66699 9 -5 11 -7s3 -4 3 -6c0 -3.33301 -2.33301 -6.16602 -7 -8.49902s-7.66699 -3.5 -9 -3.5l-181 87c-2.66699 1.33301 -4 4 -4 8c1.33301 4.66699 4.66602 8.66699 9.99902 12
l245 87c1.33301 0 3 -0.666992 5 -2s3 -3.66602 3 -6.99902zM377.001 218.998c0 -4.66699 -8.66602 -10 -25.999 -16l-254 -95l188 -95c5.33301 -2.66699 9 -5 11 -7s3 -4 3 -6c0 -4.66699 -2.33301 -7.83398 -7 -9.50098s-7.66699 -2.5 -9 -2.5l-226 110
c-2.66699 1.33301 -4 4 -4 8c1.33301 4.66699 4.66602 8.66699 9.99902 12l306 110c1.33301 0 3 -0.666992 5 -2s3 -3.66602 3 -6.99902z" />
    <glyph glyph-name="logicalnot" unicode="&#xac;" horiz-adv-x="841" 
d="M881 88c0 -1.33301 -0.334961 -2.33594 -1.00195 -3.00293c-8.66699 -8.66699 -21 -18 -37 -28c-48.667 -31.333 -104.5 -53.5 -167.5 -66.5s-128.833 -19.5 -197.5 -19.5h-37c-12 0 -24.333 0.666992 -37 2c-31.333 -8.66699 -64.5 -15.334 -99.5 -20.001
s-71.833 -7 -110.5 -7c-12.667 0 -25 0.5 -37 1.5s-23.667 2.16699 -35 3.5c-21.333 -35.333 -42 -66.5 -62 -93.5s-38.667 -48.167 -56 -63.5c-2.66699 -2 -4.83398 -4 -6.50098 -6s-3.5 -3 -5.5 -3c-7.33301 0 -11 1.66699 -11 5s1 6 3 8l4 4c17.333 17.333 35 39 53 65
s36.667 55.333 56 88c-35.333 6.66699 -68 16 -98 28s-56 25 -78 39s-39.167 28.5 -51.5 43.5s-18.5 28.833 -18.5 41.5c0 2.66699 0.833008 5.83398 2.5 9.50098s3.83398 5.5 6.50098 5.5s4.66699 -0.333008 6 -1c36.667 -18 78.5 -34.833 125.5 -50.5
s96.833 -29.5 149.5 -41.5l85.5 153l92 159.5c31.667 52.333 64.667 102.5 99 150.5s69.666 90.333 105.999 127s73.833 65.834 112.5 87.501s78.334 32.5 119.001 32.5c22.667 0 39 -4.5 49 -13.5s15 -21.167 15 -36.5c0 -20 -7.66699 -43.667 -23 -71
s-35.666 -55.166 -60.999 -83.499s-54.666 -55.333 -87.999 -81s-68 -46.5 -104 -62.5c62.667 -5.33301 108.667 -20.666 138 -45.999s44 -55.333 44 -90c0 -22.667 -6.16699 -46.5 -18.5 -71.5s-30 -49.5 -53 -73.5s-51.333 -46.333 -85 -67s-71.834 -38.667 -114.501 -54
c5.33301 -0.666992 10.833 -1 16.5 -1h16.5c68 0 131.167 6 189.5 18s107.833 31.667 148.5 59l23.5 15.5c7.66699 5 14.167 9.83301 19.5 14.5c0.666992 0.666992 2 1 4 1c2.66699 0 4.83398 -1 6.50098 -3s2.5 -3.66699 2.5 -5zM767.998 669.997
c0 12.667 -3.83887 22.8359 -11.5059 30.5029s-20.167 11.5 -37.5 11.5c-32 0 -64 -10.5 -96 -31.5s-64.167 -49.333 -96.5 -85s-64.166 -76.667 -95.499 -123s-62.166 -95 -92.499 -146l-89 -155l-84.5 -148.5c40 -8.66699 80.5 -15.667 121.5 -21
s82.167 -9.33301 123.5 -12c42 14 79.333 31.5 112 52.5s60.334 43.5 83.001 67.5s39.834 48.667 51.501 74s17.5 49.333 17.5 72c0 32.667 -12.667 60.667 -38 84s-65 36.666 -119 39.999c-34.667 -13.333 -68.334 -20 -101.001 -20c-4.66699 0 -9.16699 0.666992 -13.5 2
s-6.5 3.33301 -6.5 6c0 3.33301 4.33301 7 13 11c7.33301 3.33301 18.833 6.5 34.5 9.5s33.834 4.5 54.501 4.5c3.33301 0 6.33301 -0.166992 9 -0.5s5.33398 -0.5 8.00098 -0.5c18.667 5.33301 37.834 14.166 57.501 26.499s38.834 26.5 57.501 42.5s36.5 33.5 53.5 52.5
s31.667 37.833 44 56.5s22.166 36.667 29.499 54s11 32.666 11 45.999zM362.992 -24.001c-36 3.33301 -71.167 7.66699 -105.5 13s-68.5 11.333 -102.5 18l-27 -45c11.333 -1.33301 22.833 -2.5 34.5 -3.5s24.167 -1.5 37.5 -1.5c30 0 58.333 1.66699 85 5s52.667 8 78 14z
M130.992 12c-43.333 10 -84.335 20.833 -123.002 32.5s-74.667 23.834 -108 36.501c-1.33301 0.666992 -3.66602 1 -6.99902 1c-2.66699 0 -4 -0.666992 -4 -2c0 -2 0.666992 -3.66699 2 -5c7.33301 -9.33301 17.333 -19.5 30 -30.5s27.834 -21.5 45.501 -31.5
s38 -19.333 61 -28s48.5 -15.334 76.5 -20.001c4.66699 7.33301 9.16699 15 13.5 23z" />
    <glyph glyph-name="registered" unicode="&#xae;" horiz-adv-x="427" 
d="M375 205c0 -24.667 -7.16895 -51.5029 -21.502 -80.5029s-33.5 -56 -57.5 -81s-51.667 -45.833 -83 -62.5s-64 -25 -98 -25c-40 0 -68.5 8 -85.5 24s-25.5 36 -25.5 60c0 24.667 7.83301 51.334 23.5 80.001s36.334 55.334 62.001 80.001s54.834 45.167 87.501 61.5
s66 24.5 100 24.5c34.667 0 59.667 -7.66699 75 -23s23 -34.666 23 -57.999zM348.998 195.997c0 20 -6.49902 36.999 -19.499 50.999s-33.5 21 -61.5 21c-20 0 -39.667 -3.5 -59 -10.5s-38 -16.5 -56 -28.5s-34.667 -25.667 -50 -41s-28.666 -31.333 -39.999 -48
c3.33301 -2 8 -3 14 -3c13.333 0 26.666 3.66699 39.999 11c23.333 23.333 49.5 43.833 78.5 61.5s58.5 26.5 88.5 26.5c11.333 0 19.666 -2.33301 24.999 -7s8 -10.667 8 -18c0 -8 -2.66699 -16.5 -8 -25.5s-13 -17.5 -23 -25.5s-21.833 -14.667 -35.5 -20
s-28.834 -8 -45.501 -8c-5.33301 0 -10.166 1 -14.499 3s-9.16602 3 -14.499 3c-9.33301 0 -16.833 -6.33301 -22.5 -19s-8.5 -26.334 -8.5 -41.001c0 -12.667 2.33301 -24 7 -34s11.667 -15 21 -15c13.333 0 27.333 3.83301 42 11.5s26.334 14.834 35.001 21.501l3 -5
c-6.66699 -6.66699 -18.167 -14.5 -34.5 -23.5s-33.833 -13.5 -52.5 -13.5c-10 0 -18.667 3.33301 -26 10s-11 19.667 -11 39c0 8.66699 1.5 17.5 4.5 26.5s6.83301 17.333 11.5 25s10 13.834 16 18.501s12 7 18 7c4 0 9.66699 -0.833008 17 -2.5s15 -2.5 23 -2.5
c10 0 19.5 2.33301 28.5 7s16.833 10.5 23.5 17.5s12 14.5 16 22.5s6 15 6 21c0 11.333 -6.33301 17 -19 17c-16.667 0 -33.667 -4.5 -51 -13.5s-34.666 -20.167 -51.999 -33.5c-4.66699 -10.667 -12.334 -24.834 -23.001 -42.501s-22 -35.167 -34 -52.5
s-23.333 -32.333 -34 -45s-18.334 -19 -23.001 -19c-8.66699 0 -13 4.33301 -13 13c0 10.667 5.66699 25.5 17 44.5s26.333 38.833 45 59.5c-12.667 -4.66699 -24.667 -7 -36 -7c-3.33301 0 -5.83301 0.166992 -7.5 0.5s-3.16699 0.833008 -4.5 1.5
c-20.667 -32 -31 -62 -31 -90c0 -20 7.5 -36.5 22.5 -49.5s38.833 -19.5 71.5 -19.5c31.333 0 60.666 7.5 87.999 22.5s51.5 33.833 72.5 56.5s37.5 46.834 49.5 72.501s18 49.5 18 71.5zM144.999 156.996c-12.667 -12 -24.332 -24.332 -34.999 -36.999s-20 -24.667 -28 -36
s-14.167 -21.333 -18.5 -30s-6.5 -15.334 -6.5 -20.001c0 -4 1.66699 -6 5 -6c2.66699 0 7.66699 5 15 15s15.166 22 23.499 36l25 43z" />
    <glyph glyph-name="macron" unicode="&#xaf;" horiz-adv-x="400" 
d="M362 293c0 -3.33301 -1.66797 -6.99805 -5.00098 -10.998s-6.66602 -6 -9.99902 -6h-187c-10 0 -16.5 0.166992 -19.5 0.5s-4.5 1.16602 -4.5 2.49902c0 3.33301 1 7.16602 3 11.499s5.66699 6.5 11 6.5h207c3.33301 0 5 -1.33301 5 -4z" />
    <glyph glyph-name="degree" unicode="&#xb0;" horiz-adv-x="361" 
d="M332 454c0 -10.667 -3 -22.5 -9 -35.5s-14.167 -25 -24.5 -36s-22.333 -20.167 -36 -27.5s-27.834 -11 -42.501 -11c-14 0 -24.167 3.33301 -30.5 10s-9.5 15 -9.5 25c0 10.667 3 22.5 9 35.5s14.167 25 24.5 36s22.333 20.167 36 27.5s27.834 11 42.501 11
c14 0 24.167 -3.33301 30.5 -10s9.5 -15 9.5 -25zM307 446c0 14.667 -8 22 -24 22c-10 0 -19.667 -2.83301 -29 -8.5s-17.666 -12.667 -24.999 -21s-13.166 -17.166 -17.499 -26.499s-6.5 -17.666 -6.5 -24.999c0 -14.667 8 -22 24 -22c10 0 19.667 2.83301 29 8.5
s17.666 12.667 24.999 21s13.166 17.166 17.499 26.499s6.5 17.666 6.5 24.999z" />
    <glyph glyph-name="acute" unicode="&#xb4;" horiz-adv-x="409" 
d="M293 315c0 -4 -5.66504 -10.5 -16.998 -19.5s-25 -18.167 -41 -27.5s-32.5 -18.333 -49.5 -27s-31.167 -14.667 -42.5 -18c-3.33301 0 -5.66602 0.666992 -6.99902 2c-0.666992 0.666992 -1.33398 1 -2.00098 1c25.333 14 48.666 29.667 69.999 47l65 55
c2.66699 2.66699 5.66699 4 9 4s6.66602 -1.66699 9.99902 -5s5 -7.33301 5 -12z" />
    <glyph glyph-name="mu" unicode="&#xb5;" horiz-adv-x="344" 
d="M336 228c0 -6 -3.67188 -13 -11.0049 -21s-12.666 -14 -15.999 -18c-2 -2 -7.33301 -9.5 -16 -22.5l-33.5 -51l-47.5 -72.5l-58 -87l10.5 4l11.5 4c0.666992 1.33301 2.33398 2 5.00098 2c4.66699 0 7 -1.66699 7 -5s-2 -5.66602 -6 -6.99902
c-14 -3.33301 -26.667 -7.33301 -38 -12l-64.5 -94l-66 -92.5l-63 -84.5c-20.333 -26.667 -39.166 -49.834 -56.499 -69.501s-32.666 -35.167 -45.999 -46.5s-23.666 -17 -30.999 -17c-11.333 0 -20 3.5 -26 10.5s-9 16.5 -9 28.5c0 20 7.33301 45.667 22 77s36 64 64 98
s62.167 67.5 102.5 100.5s85.833 61.167 136.5 84.5l59.5 93.5c18.333 28.333 34.166 51.833 47.499 70.5c0 0.666992 -1 1.33398 -3 2.00098c-0.666992 0.666992 -5 -2.5 -13 -9.5l-30 -26l-41 -34c-15.333 -12.333 -30.833 -23.833 -46.5 -34.5s-31.167 -19.5 -46.5 -26.5
s-29 -10.5 -41 -10.5c-16.667 0 -25 8.66699 -25 26c0 15.333 7.33301 35.166 22 59.499s35.834 48.5 63.501 72.5s61.5 45.833 101.5 65.5s85.333 32.167 136 37.5c3.33301 4.66699 7.83301 8.16699 13.5 10.5s11.167 3.5 16.5 3.5c10 0 15 -3 15 -9zM282.995 210
c-35.333 -3.33301 -69.499 -13.333 -102.499 -30s-62.333 -35.5 -88 -56.5s-46.167 -42 -61.5 -63s-23 -37.5 -23 -49.5c0 -11.333 6.66699 -17 20 -17c8 0 18.333 3.33301 31 10s26.167 15 40.5 25s29 21 44 33s28.667 23.5 41 34.5l31.5 29
c8.66699 8.33301 14 13.833 16 16.5l9 12l13.5 17.5l15.5 20c5.33301 7 9.66602 13.167 12.999 18.5zM96.9961 -78c-42 -21.333 -80.167 -47 -114.5 -77s-64 -60.5 -89 -91.5s-44.333 -60 -58 -87s-20.5 -47.833 -20.5 -62.5c0 -12.667 5.33301 -19 16 -19
c11.333 0 27 10.333 47 31s42 47.167 66 79.5s49.333 68.5 76 108.5z" />
    <glyph glyph-name="paragraph" unicode="&#xb6;" horiz-adv-x="500" 
d="M559 553c0 -6.66699 -2.66797 -12.667 -8.00098 -18c-6 -5.33301 -15.667 -19.166 -29 -41.499l-47.5 -82l-61 -108l-69 -120l-71 -117.5c-23.667 -38 -46.334 -71.833 -68.001 -101.5s-41.5 -53.5 -59.5 -71.5s-33.333 -27 -46 -27c-18 0 -27 9 -27 27
c0 16.667 6.83301 39.334 20.5 68.001s31.834 60.834 54.501 96.501s48.167 73 76.5 112l87 114.5l86 105.5c27.667 33 51.834 60.5 72.501 82.5l-2 2c-16 -16.667 -34.833 -33.334 -56.5 -50.001s-44.5 -31.834 -68.5 -45.501s-48.833 -24.667 -74.5 -33
s-51.167 -12.5 -76.5 -12.5c-11.333 0 -17 4.33301 -17 13c0 8 5.16699 19.167 15.5 33.5s24.5 29.666 42.5 45.999s39.167 32.833 63.5 49.5s50.5 31.834 78.5 45.501s57.167 25 87.5 34s60.5 13.5 90.5 13.5c2 0 3.66699 -2.33301 5 -7
c0.666992 -2.66699 1 -5.33398 1 -8.00098zM459.999 439c-12 -12 -29.1689 -31.667 -51.502 -59s-46.5 -58.5 -72.5 -93.5l-79.5 -110.5c-27 -38.667 -51.333 -75.667 -73 -111s-39.5 -67 -53.5 -95s-21 -48.667 -21 -62c0 -10 4.33301 -15 13 -15
c5.33301 0 14.333 7.66699 27 23s27.334 35.5 44.001 60.5l54.5 85.5l59 98l57 99l48.5 88l34 64c8.66699 16.667 13.334 26 14.001 28z" />
    <glyph glyph-name="periodcentered" unicode="&#xb7;" horiz-adv-x="250" 
d="M169 126c0 -9.33301 -4.33398 -18.167 -13.001 -26.5s-16.667 -12.5 -24 -12.5c-5.33301 0 -10.333 1.66699 -15 5s-7 8.66602 -7 15.999c0 4.66699 1.33301 9.33398 4 14.001s5.83398 9 9.50098 13s7.66699 7.16699 12 9.5s8.5 3.5 12.5 3.5c6 0 11 -2.33301 15 -7
s6 -9.66699 6 -15z" />
    <glyph glyph-name="cedilla" unicode="&#xb8;" horiz-adv-x="500" 
d="M74 -72c0 -8 -2.66406 -15.4971 -7.99707 -22.4971s-12.333 -13 -21 -18s-18.334 -9 -29.001 -12s-21.334 -4.5 -32.001 -4.5c-4.66699 0 -7 1.66699 -7 5c0 2.66699 1.33301 4 4 4c6.66699 0 14 1 22 3s15.167 4.66699 21.5 8s11.666 7.66602 15.999 12.999
s6.5 11.333 6.5 18c0 5.33301 -1.33301 9.16602 -4 11.499s-5.66699 4.16602 -9 5.49902c-2.66699 0 -4 1.66699 -4 5c0 1.33301 1.5 3.66602 4.5 6.99902s9.16699 10.666 18.5 21.999c0 0.666992 0.666992 1.33398 2 2.00098s2.5 1.33398 3.5 2.00098s2.16699 1 3.5 1
c2.66699 0 6 -0.666992 10 -2l-18 -26c4 -1.33301 7.33301 -3 10 -5c2.66699 -1.33301 5 -3.5 7 -6.5s3 -6.5 3 -10.5z" />
    <glyph glyph-name="ordmasculine" unicode="&#xba;" horiz-adv-x="360" 
d="M326 348c0 -2.66699 -2 -4 -6 -4c-15.333 0 -29.5 3.66699 -42.5 11s-22.833 19 -29.5 35c-4 -6 -10.333 -14.5 -19 -25.5s-18.5 -22.167 -29.5 -33.5s-22.667 -21.166 -35 -29.499s-23.833 -12.5 -34.5 -12.5c-9.33301 0 -16.166 3.66699 -20.499 11
s-6.5 13.666 -6.5 18.999c0 12.667 6.33301 28.334 19 47.001s27.334 36.667 44.001 54s33 32.166 49 44.499s27.333 18.5 34 18.5c5.33301 0 8.66602 -3.33301 9.99902 -10v-1c3.33301 -1.33301 5.83301 -3.5 7.5 -6.5s2.5 -5.5 2.5 -7.5l-12 -45
c7.33301 -21.333 16.666 -36.666 27.999 -45.999s24.333 -14 39 -14c0 -0.666992 0.333008 -1.33398 1 -2.00098s1 -1.66699 1 -3zM243 455c-6.66699 -4.66699 -16.167 -12 -28.5 -22s-24.5 -21 -36.5 -33s-22.333 -24.667 -31 -38s-13 -25.666 -13 -36.999
c0 -10 4.66699 -15 14 -15c10 0 20.333 4.83301 31 14.5s20.667 20.667 30 33s17 24.166 23 35.499s9 19 9 23v14v10c0 4.66699 0.666992 9.66699 2 15z" />
    <glyph glyph-name="guillemotright" unicode="&#xbb;" horiz-adv-x="514" 
d="M451 110c-1.33301 -4.66699 -4.66699 -8.66699 -10 -12l-306 -110c-1.33301 0 -3 0.666992 -5 2s-3 3.66602 -3 6.99902c0 4.66699 8.66699 10 26 16l254 95l-188 95c-5.33301 2.66699 -9 5 -11 7s-3 4 -3 6c0 4.66699 2.33301 7.83398 7 9.50098s7.66699 2.5 9 2.5
l226 -110c2.66699 -1.33301 4 -4 4 -8zM316.999 110c-1.33301 -4.66699 -4.66699 -8.66504 -10 -11.998l-245 -87c-1.33301 0 -3 0.666992 -5 2s-3 3.66602 -3 6.99902c0 4.66699 8.66699 10 26 16l193 72l-143 72c-5.33301 2.66699 -9 5 -11 7s-3 4 -3 6
c0 3.33301 2.33301 6.16602 7 8.49902s7.66699 3.5 9 3.5l181 -87c2.66699 -1.33301 4 -4 4 -8z" />
    <glyph glyph-name="questiondown" unicode="&#xbf;" horiz-adv-x="256" 
d="M232 212c0 -4.66699 -1.33203 -9.33301 -3.99902 -14s-5.83398 -9 -9.50098 -13s-7.66699 -7.16699 -12 -9.5s-8.5 -3.5 -12.5 -3.5c-6 0 -11 2.33301 -15 7s-6 9.66699 -6 15c0 9.33301 4.33301 18.166 13 26.499s16.667 12.5 24 12.5c5.33301 0 10.333 -1.66699 15 -5
s7 -8.66602 7 -15.999zM184.001 98.001c0 -20.667 -7.49707 -42.1631 -22.4971 -64.4961s-33.833 -45.333 -56.5 -69s-47.334 -47.5 -74.001 -71.5s-51.334 -48.167 -74.001 -72.5s-41.5 -48.333 -56.5 -72s-22.5 -46.5 -22.5 -68.5c0 -11.333 2 -20 6 -26
s8.66699 -10.667 14 -14c8.66699 16.667 18.5 31.667 29.5 45s22.167 24.666 33.5 33.999s22.333 16.333 33 21s20 7 28 7c13.333 0 20 -6 20 -18c0 -14 -4.66699 -27.5 -14 -40.5s-20.833 -24.5 -34.5 -34.5s-28.667 -18.333 -45 -25s-31.5 -10.334 -45.5 -11.001
c-1.33301 -2 -2.16602 -4 -2.49902 -6s-1.16602 -4.33301 -2.49902 -7c-0.666992 -2 -1.66699 -4.33301 -3 -7c-2.66699 -4.66699 -5.33398 -7 -8.00098 -7c-4 0.666992 -6 3 -6 7c0 2.66699 1 6.66699 3 12c1.33301 2.66699 2.66602 5.66699 3.99902 9
c-33.333 3.33301 -50 21.333 -50 54c0 21.333 7.5 43.166 22.5 65.499s33.667 44.833 56 67.5s47 45.667 74 69s52.333 47.166 76 71.499s44.167 49 61.5 74s27.666 50.167 30.999 75.5l7 7c4.66699 4.66699 8.66699 7 12 7c4 0 6 -4 6 -12zM20.0039 -281.995
c0 5.33301 -3.33398 8.00195 -10.001 8.00195c-4.66699 0 -11.167 -1.83301 -19.5 -5.5s-17 -9.33398 -26 -17.001s-18.167 -17.334 -27.5 -29.001s-18 -25.167 -26 -40.5c1.33301 -0.666992 3 -1 5 -1c0.666992 0 1.33398 -0.333008 2.00098 -1c10 0 21 2.5 33 7.5
s23.167 11.5 33.5 19.5s18.833 17.167 25.5 27.5s10 20.833 10 31.5z" />
    <glyph glyph-name="Agrave" unicode="&#xc0;" horiz-adv-x="712" 
d="M794 797c-0.666992 0 -1.33203 -0.333008 -1.99902 -1c-1.33301 -1.33301 -3.66602 -2 -6.99902 -2c-11.333 3.33301 -25.5 9.33301 -42.5 18s-33.5 17.667 -49.5 27s-29.667 18.5 -41 27.5s-17 15.5 -17 19.5c0 4.66699 1.66699 8.66699 5 12s6.66602 5 9.99902 5
s6.33301 -1.33301 9 -4l65 -55c21.333 -17.333 44.666 -33 69.999 -47zM769.002 674c0 -16.667 -4.33496 -34.5029 -13.002 -53.5029s-18.834 -37.167 -30.501 -54.5s-23.5 -32.666 -35.5 -45.999s-21.667 -22.666 -29 -27.999c-6 -4.66699 -13.667 -7 -23 -7
c-8.66699 0 -13 3.33301 -13 10c0 2 0.666992 3.83301 2 5.5l6 7.5c5.33301 6 13.5 16 24.5 30s22 29.333 33 46s20.833 33.5 29.5 50.5s13 31.167 13 42.5c0 10 -2.5 18 -7.5 24s-11.333 10.667 -19 14s-16 5.5 -25 6.5s-17.167 1.5 -24.5 1.5
c-51.333 0 -102 -11.5 -152 -34.5s-97.333 -53.167 -142 -90.5s-85.834 -79.833 -123.501 -127.5s-70.334 -95.667 -98.001 -144s-49.167 -95.166 -64.5 -140.499s-23 -84.666 -23 -117.999c0 -28 6 -50.333 18 -67s31.333 -25 58 -25c18.667 0 38.834 4.66699 60.501 14
s43.667 21.5 66 36.5s44.5 32 66.5 51s42.833 38.167 62.5 57.5s37.667 38 54 56l40.5 46l21 26l33 42.5l32 42c10 13 16 21.5 18 25.5c3.33301 5.33301 7.66602 10.666 12.999 15.999s10.333 8 15 8c3.33301 0 5.83301 -1.66699 7.5 -5s2.5 -6.33301 2.5 -9
c0 -8 -3 -15.667 -9 -23c-9.33301 -11.333 -21 -27.333 -35 -48l-43 -66.5c-14.667 -23.667 -28.5 -47.167 -41.5 -70.5s-23.167 -43.333 -30.5 -60c-14.667 -34 -22 -61 -22 -81c0 -18 5 -30.667 15 -38s23 -11 39 -11c16.667 0 35.834 3.5 57.501 10.5
s43.667 15.833 66 26.5s44 22.5 65 35.5s39.5 25.5 55.5 37.5c0.666992 0.666992 2 1 4 1c2.66699 0 4.83398 -1 6.50098 -3s2.5 -3.66699 2.5 -5s-0.333008 -2.33301 -1 -3c-17.333 -14 -37.666 -28.333 -60.999 -43s-47.333 -27.834 -72 -39.501
s-49.167 -21.167 -73.5 -28.5s-46.166 -11 -65.499 -11c-20.667 0 -37.334 4.83301 -50.001 14.5s-19 26.167 -19 49.5c0 15.333 3.16699 34 9.5 56s17.166 48 32.499 78c0.666992 1.33301 1 3.33301 1 6c0 5.33301 -1.33301 8 -4 8
c-1.33301 0 -2.66602 -0.666992 -3.99902 -2l-38 -38c-15.333 -15.333 -32.166 -31.333 -50.499 -48s-38.166 -33.5 -59.499 -50.5s-43 -32.167 -65 -45.5s-44 -24.166 -66 -32.499s-43.333 -12.5 -64 -12.5c-36 0 -62 9.66699 -78 29s-24 45.333 -24 78c0 36 9 78 27 126
s42.5 97.5 73.5 148.5s67.833 101 110.5 150s88.667 93 138 132s101 70.333 155 94s108 35.5 162 35.5c68.667 0 103 -21.667 103 -65z" />
    <glyph glyph-name="Aacute" unicode="&#xc1;" horiz-adv-x="712" 
d="M848 893c0 -4 -5.66504 -10.5 -16.998 -19.5s-25 -18.167 -41 -27.5s-32.5 -18.333 -49.5 -27s-31.167 -14.667 -42.5 -18c-3.33301 0 -5.66602 0.666992 -6.99902 2c-0.666992 0.666992 -1.33398 1 -2.00098 1c25.333 14 48.666 29.667 69.999 47l65 55
c2.66699 2.66699 5.66699 4 9 4s6.66602 -1.66699 9.99902 -5s5 -7.33301 5 -12zM769.002 674c0 -16.667 -4.33496 -34.5029 -13.002 -53.5029s-18.834 -37.167 -30.501 -54.5s-23.5 -32.666 -35.5 -45.999s-21.667 -22.666 -29 -27.999c-6 -4.66699 -13.667 -7 -23 -7
c-8.66699 0 -13 3.33301 -13 10c0 2 0.666992 3.83301 2 5.5l6 7.5c5.33301 6 13.5 16 24.5 30s22 29.333 33 46s20.833 33.5 29.5 50.5s13 31.167 13 42.5c0 10 -2.5 18 -7.5 24s-11.333 10.667 -19 14s-16 5.5 -25 6.5s-17.167 1.5 -24.5 1.5
c-51.333 0 -102 -11.5 -152 -34.5s-97.333 -53.167 -142 -90.5s-85.834 -79.833 -123.501 -127.5s-70.334 -95.667 -98.001 -144s-49.167 -95.166 -64.5 -140.499s-23 -84.666 -23 -117.999c0 -28 6 -50.333 18 -67s31.333 -25 58 -25c18.667 0 38.834 4.66699 60.501 14
s43.667 21.5 66 36.5s44.5 32 66.5 51s42.833 38.167 62.5 57.5s37.667 38 54 56l40.5 46l21 26l33 42.5l32 42c10 13 16 21.5 18 25.5c3.33301 5.33301 7.66602 10.666 12.999 15.999s10.333 8 15 8c3.33301 0 5.83301 -1.66699 7.5 -5s2.5 -6.33301 2.5 -9
c0 -8 -3 -15.667 -9 -23c-9.33301 -11.333 -21 -27.333 -35 -48l-43 -66.5c-14.667 -23.667 -28.5 -47.167 -41.5 -70.5s-23.167 -43.333 -30.5 -60c-14.667 -34 -22 -61 -22 -81c0 -18 5 -30.667 15 -38s23 -11 39 -11c16.667 0 35.834 3.5 57.501 10.5
s43.667 15.833 66 26.5s44 22.5 65 35.5s39.5 25.5 55.5 37.5c0.666992 0.666992 2 1 4 1c2.66699 0 4.83398 -1 6.50098 -3s2.5 -3.66699 2.5 -5s-0.333008 -2.33301 -1 -3c-17.333 -14 -37.666 -28.333 -60.999 -43s-47.333 -27.834 -72 -39.501
s-49.167 -21.167 -73.5 -28.5s-46.166 -11 -65.499 -11c-20.667 0 -37.334 4.83301 -50.001 14.5s-19 26.167 -19 49.5c0 15.333 3.16699 34 9.5 56s17.166 48 32.499 78c0.666992 1.33301 1 3.33301 1 6c0 5.33301 -1.33301 8 -4 8
c-1.33301 0 -2.66602 -0.666992 -3.99902 -2l-38 -38c-15.333 -15.333 -32.166 -31.333 -50.499 -48s-38.166 -33.5 -59.499 -50.5s-43 -32.167 -65 -45.5s-44 -24.166 -66 -32.499s-43.333 -12.5 -64 -12.5c-36 0 -62 9.66699 -78 29s-24 45.333 -24 78c0 36 9 78 27 126
s42.5 97.5 73.5 148.5s67.833 101 110.5 150s88.667 93 138 132s101 70.333 155 94s108 35.5 162 35.5c68.667 0 103 -21.667 103 -65z" />
    <glyph glyph-name="Acircumflex" unicode="&#xc2;" horiz-adv-x="712" 
d="M824 806c0 -2 -0.998047 -3.66602 -2.99805 -4.99902s-3.66699 -2 -5 -2c-3.33301 0 -8 2.66699 -14 8s-12.333 11.666 -19 18.999l-24 27c-11.333 -6.66699 -24.166 -13.334 -38.499 -20.001s-28 -12.5 -41 -17.5s-24.5 -9 -34.5 -12s-16.667 -4.5 -20 -4.5
c-4.66699 0 -7 2 -7 6c0 0.666992 4.33301 3.33398 13 8.00098s19.5 10.167 32.5 16.5s26.833 13.5 41.5 21.5s28 16 40 24l13.5 8c2.33301 1.33301 6.16602 2 11.499 2c3.33301 0 6.66602 -2.5 9.99902 -7.5s7 -11.333 11 -19s8.66699 -16.167 14 -25.5
s11.666 -18.333 18.999 -27zM769.002 674.001c0 -16.667 -4.33496 -34.5029 -13.002 -53.5029s-18.834 -37.167 -30.501 -54.5s-23.5 -32.666 -35.5 -45.999s-21.667 -22.666 -29 -27.999c-6 -4.66699 -13.667 -7 -23 -7c-8.66699 0 -13 3.33301 -13 10
c0 2 0.666992 3.83301 2 5.5l6 7.5c5.33301 6 13.5 16 24.5 30s22 29.333 33 46s20.833 33.5 29.5 50.5s13 31.167 13 42.5c0 10 -2.5 18 -7.5 24s-11.333 10.667 -19 14s-16 5.5 -25 6.5s-17.167 1.5 -24.5 1.5c-51.333 0 -102 -11.5 -152 -34.5
s-97.333 -53.167 -142 -90.5s-85.834 -79.833 -123.501 -127.5s-70.334 -95.667 -98.001 -144s-49.167 -95.166 -64.5 -140.499s-23 -84.666 -23 -117.999c0 -28 6 -50.333 18 -67s31.333 -25 58 -25c18.667 0 38.834 4.66699 60.501 14s43.667 21.5 66 36.5
s44.5 32 66.5 51s42.833 38.167 62.5 57.5s37.667 38 54 56l40.5 46l21 26l33 42.5l32 42c10 13 16 21.5 18 25.5c3.33301 5.33301 7.66602 10.666 12.999 15.999s10.333 8 15 8c3.33301 0 5.83301 -1.66699 7.5 -5s2.5 -6.33301 2.5 -9c0 -8 -3 -15.667 -9 -23
c-9.33301 -11.333 -21 -27.333 -35 -48l-43 -66.5c-14.667 -23.667 -28.5 -47.167 -41.5 -70.5s-23.167 -43.333 -30.5 -60c-14.667 -34 -22 -61 -22 -81c0 -18 5 -30.667 15 -38s23 -11 39 -11c16.667 0 35.834 3.5 57.501 10.5s43.667 15.833 66 26.5s44 22.5 65 35.5
s39.5 25.5 55.5 37.5c0.666992 0.666992 2 1 4 1c2.66699 0 4.83398 -1 6.50098 -3s2.5 -3.66699 2.5 -5s-0.333008 -2.33301 -1 -3c-17.333 -14 -37.666 -28.333 -60.999 -43s-47.333 -27.834 -72 -39.501s-49.167 -21.167 -73.5 -28.5s-46.166 -11 -65.499 -11
c-20.667 0 -37.334 4.83301 -50.001 14.5s-19 26.167 -19 49.5c0 15.333 3.16699 34 9.5 56s17.166 48 32.499 78c0.666992 1.33301 1 3.33301 1 6c0 5.33301 -1.33301 8 -4 8c-1.33301 0 -2.66602 -0.666992 -3.99902 -2l-38 -38
c-15.333 -15.333 -32.166 -31.333 -50.499 -48s-38.166 -33.5 -59.499 -50.5s-43 -32.167 -65 -45.5s-44 -24.166 -66 -32.499s-43.333 -12.5 -64 -12.5c-36 0 -62 9.66699 -78 29s-24 45.333 -24 78c0 36 9 78 27 126s42.5 97.5 73.5 148.5s67.833 101 110.5 150
s88.667 93 138 132s101 70.333 155 94s108 35.5 162 35.5c68.667 0 103 -21.667 103 -65z" />
    <glyph glyph-name="Atilde" unicode="&#xc3;" horiz-adv-x="712" 
d="M828 828c0 -5.33301 -4.66504 -11.666 -13.998 -18.999s-19.666 -11 -30.999 -11c-10.667 0 -20.167 2.33301 -28.5 7s-16.5 10 -24.5 16s-16.333 11.333 -25 16s-18.334 7 -29.001 7c-2.66699 0 -4.83398 -1 -6.50098 -3s-3 -4.16699 -4 -6.5s-2.16699 -4.5 -3.5 -6.5
s-3.66602 -3 -6.99902 -3c-6.66699 0 -10 3 -10 9c0 5.33301 3.16699 10.666 9.5 15.999s16.166 8 29.499 8c8.66699 0 18.167 -2 28.5 -6s20.666 -8.33301 30.999 -13l29 -13c9 -4 16.5 -6 22.5 -6c5.33301 0 9 2.83301 11 8.5s4.66699 8.5 8 8.5c9.33301 0 14 -3 14 -9z
M769.002 674c0 -16.667 -4.33496 -34.5029 -13.002 -53.5029s-18.834 -37.167 -30.501 -54.5s-23.5 -32.666 -35.5 -45.999s-21.667 -22.666 -29 -27.999c-6 -4.66699 -13.667 -7 -23 -7c-8.66699 0 -13 3.33301 -13 10c0 2 0.666992 3.83301 2 5.5l6 7.5
c5.33301 6 13.5 16 24.5 30s22 29.333 33 46s20.833 33.5 29.5 50.5s13 31.167 13 42.5c0 10 -2.5 18 -7.5 24s-11.333 10.667 -19 14s-16 5.5 -25 6.5s-17.167 1.5 -24.5 1.5c-51.333 0 -102 -11.5 -152 -34.5s-97.333 -53.167 -142 -90.5s-85.834 -79.833 -123.501 -127.5
s-70.334 -95.667 -98.001 -144s-49.167 -95.166 -64.5 -140.499s-23 -84.666 -23 -117.999c0 -28 6 -50.333 18 -67s31.333 -25 58 -25c18.667 0 38.834 4.66699 60.501 14s43.667 21.5 66 36.5s44.5 32 66.5 51s42.833 38.167 62.5 57.5s37.667 38 54 56l40.5 46l21 26
l33 42.5l32 42c10 13 16 21.5 18 25.5c3.33301 5.33301 7.66602 10.666 12.999 15.999s10.333 8 15 8c3.33301 0 5.83301 -1.66699 7.5 -5s2.5 -6.33301 2.5 -9c0 -8 -3 -15.667 -9 -23c-9.33301 -11.333 -21 -27.333 -35 -48l-43 -66.5
c-14.667 -23.667 -28.5 -47.167 -41.5 -70.5s-23.167 -43.333 -30.5 -60c-14.667 -34 -22 -61 -22 -81c0 -18 5 -30.667 15 -38s23 -11 39 -11c16.667 0 35.834 3.5 57.501 10.5s43.667 15.833 66 26.5s44 22.5 65 35.5s39.5 25.5 55.5 37.5c0.666992 0.666992 2 1 4 1
c2.66699 0 4.83398 -1 6.50098 -3s2.5 -3.66699 2.5 -5s-0.333008 -2.33301 -1 -3c-17.333 -14 -37.666 -28.333 -60.999 -43s-47.333 -27.834 -72 -39.501s-49.167 -21.167 -73.5 -28.5s-46.166 -11 -65.499 -11c-20.667 0 -37.334 4.83301 -50.001 14.5
s-19 26.167 -19 49.5c0 15.333 3.16699 34 9.5 56s17.166 48 32.499 78c0.666992 1.33301 1 3.33301 1 6c0 5.33301 -1.33301 8 -4 8c-1.33301 0 -2.66602 -0.666992 -3.99902 -2l-38 -38c-15.333 -15.333 -32.166 -31.333 -50.499 -48s-38.166 -33.5 -59.499 -50.5
s-43 -32.167 -65 -45.5s-44 -24.166 -66 -32.499s-43.333 -12.5 -64 -12.5c-36 0 -62 9.66699 -78 29s-24 45.333 -24 78c0 36 9 78 27 126s42.5 97.5 73.5 148.5s67.833 101 110.5 150s88.667 93 138 132s101 70.333 155 94s108 35.5 162 35.5
c68.667 0 103 -21.667 103 -65z" />
    <glyph glyph-name="Adieresis" unicode="&#xc4;" horiz-adv-x="712" 
d="M802 855c0 -9.33301 -4.33398 -18.167 -13.001 -26.5s-16.667 -12.5 -24 -12.5c-5.33301 0 -10.333 1.66699 -15 5s-7 8.66602 -7 15.999c0 4.66699 1.33301 9.33398 4 14.001s5.83398 9 9.50098 13s7.66699 7.16699 12 9.5s8.5 3.5 12.5 3.5c6 0 11 -2.33301 15 -7
s6 -9.66699 6 -15zM691.999 854.999c0 -9.33301 -4.33398 -18.167 -13.001 -26.5s-16.667 -12.5 -24 -12.5c-5.33301 0 -10.333 1.66699 -15 5s-7 8.66602 -7 15.999c0 4.66699 1.33301 9.33398 4 14.001s5.83398 9 9.50098 13s7.66699 7.16699 12 9.5s8.5 3.5 12.5 3.5
c6 0 11 -2.33301 15 -7s6 -9.66699 6 -15zM768.998 673.998c0 -16.667 -4.33496 -34.5029 -13.002 -53.5029s-18.834 -37.167 -30.501 -54.5s-23.5 -32.666 -35.5 -45.999s-21.667 -22.666 -29 -27.999c-6 -4.66699 -13.667 -7 -23 -7c-8.66699 0 -13 3.33301 -13 10
c0 2 0.666992 3.83301 2 5.5l6 7.5c5.33301 6 13.5 16 24.5 30s22 29.333 33 46s20.833 33.5 29.5 50.5s13 31.167 13 42.5c0 10 -2.5 18 -7.5 24s-11.333 10.667 -19 14s-16 5.5 -25 6.5s-17.167 1.5 -24.5 1.5c-51.333 0 -102 -11.5 -152 -34.5
s-97.333 -53.167 -142 -90.5s-85.834 -79.833 -123.501 -127.5s-70.334 -95.667 -98.001 -144s-49.167 -95.166 -64.5 -140.499s-23 -84.666 -23 -117.999c0 -28 6 -50.333 18 -67s31.333 -25 58 -25c18.667 0 38.834 4.66699 60.501 14s43.667 21.5 66 36.5
s44.5 32 66.5 51s42.833 38.167 62.5 57.5s37.667 38 54 56l40.5 46l21 26l33 42.5l32 42c10 13 16 21.5 18 25.5c3.33301 5.33301 7.66602 10.666 12.999 15.999s10.333 8 15 8c3.33301 0 5.83301 -1.66699 7.5 -5s2.5 -6.33301 2.5 -9c0 -8 -3 -15.667 -9 -23
c-9.33301 -11.333 -21 -27.333 -35 -48l-43 -66.5c-14.667 -23.667 -28.5 -47.167 -41.5 -70.5s-23.167 -43.333 -30.5 -60c-14.667 -34 -22 -61 -22 -81c0 -18 5 -30.667 15 -38s23 -11 39 -11c16.667 0 35.834 3.5 57.501 10.5s43.667 15.833 66 26.5s44 22.5 65 35.5
s39.5 25.5 55.5 37.5c0.666992 0.666992 2 1 4 1c2.66699 0 4.83398 -1 6.50098 -3s2.5 -3.66699 2.5 -5s-0.333008 -2.33301 -1 -3c-17.333 -14 -37.666 -28.333 -60.999 -43s-47.333 -27.834 -72 -39.501s-49.167 -21.167 -73.5 -28.5s-46.166 -11 -65.499 -11
c-20.667 0 -37.334 4.83301 -50.001 14.5s-19 26.167 -19 49.5c0 15.333 3.16699 34 9.5 56s17.166 48 32.499 78c0.666992 1.33301 1 3.33301 1 6c0 5.33301 -1.33301 8 -4 8c-1.33301 0 -2.66602 -0.666992 -3.99902 -2l-38 -38
c-15.333 -15.333 -32.166 -31.333 -50.499 -48s-38.166 -33.5 -59.499 -50.5s-43 -32.167 -65 -45.5s-44 -24.166 -66 -32.499s-43.333 -12.5 -64 -12.5c-36 0 -62 9.66699 -78 29s-24 45.333 -24 78c0 36 9 78 27 126s42.5 97.5 73.5 148.5s67.833 101 110.5 150
s88.667 93 138 132s101 70.333 155 94s108 35.5 162 35.5c68.667 0 103 -21.667 103 -65z" />
    <glyph glyph-name="Aring" unicode="&#xc5;" horiz-adv-x="712" 
d="M784 864c0 -7.33301 -2.33203 -14.666 -6.99902 -21.999s-10.167 -13.833 -16.5 -19.5s-13 -10.334 -20 -14.001s-13.167 -5.5 -18.5 -5.5c-7.33301 0 -14.166 2.5 -20.499 7.5s-9.5 12.833 -9.5 23.5c0 6.66699 2.16699 13.834 6.5 21.501s9.66602 14.667 15.999 21
s13.166 11.666 20.499 15.999s14 6.5 20 6.5c10 0 17.5 -3.66699 22.5 -11s7.16699 -15.333 6.5 -24zM769.001 674c0 -16.667 -4.33496 -34.5029 -13.002 -53.5029s-18.834 -37.167 -30.501 -54.5s-23.5 -32.666 -35.5 -45.999s-21.667 -22.666 -29 -27.999
c-6 -4.66699 -13.667 -7 -23 -7c-8.66699 0 -13 3.33301 -13 10c0 2 0.666992 3.83301 2 5.5l6 7.5c5.33301 6 13.5 16 24.5 30s22 29.333 33 46s20.833 33.5 29.5 50.5s13 31.167 13 42.5c0 10 -2.5 18 -7.5 24s-11.333 10.667 -19 14s-16 5.5 -25 6.5
s-17.167 1.5 -24.5 1.5c-51.333 0 -102 -11.5 -152 -34.5s-97.333 -53.167 -142 -90.5s-85.834 -79.833 -123.501 -127.5s-70.334 -95.667 -98.001 -144s-49.167 -95.166 -64.5 -140.499s-23 -84.666 -23 -117.999c0 -28 6 -50.333 18 -67s31.333 -25 58 -25
c18.667 0 38.834 4.66699 60.501 14s43.667 21.5 66 36.5s44.5 32 66.5 51s42.833 38.167 62.5 57.5s37.667 38 54 56l40.5 46l21 26l33 42.5l32 42c10 13 16 21.5 18 25.5c3.33301 5.33301 7.66602 10.666 12.999 15.999s10.333 8 15 8c3.33301 0 5.83301 -1.66699 7.5 -5
s2.5 -6.33301 2.5 -9c0 -8 -3 -15.667 -9 -23c-9.33301 -11.333 -21 -27.333 -35 -48l-43 -66.5c-14.667 -23.667 -28.5 -47.167 -41.5 -70.5s-23.167 -43.333 -30.5 -60c-14.667 -34 -22 -61 -22 -81c0 -18 5 -30.667 15 -38s23 -11 39 -11
c16.667 0 35.834 3.5 57.501 10.5s43.667 15.833 66 26.5s44 22.5 65 35.5s39.5 25.5 55.5 37.5c0.666992 0.666992 2 1 4 1c2.66699 0 4.83398 -1 6.50098 -3s2.5 -3.66699 2.5 -5s-0.333008 -2.33301 -1 -3c-17.333 -14 -37.666 -28.333 -60.999 -43
s-47.333 -27.834 -72 -39.501s-49.167 -21.167 -73.5 -28.5s-46.166 -11 -65.499 -11c-20.667 0 -37.334 4.83301 -50.001 14.5s-19 26.167 -19 49.5c0 15.333 3.16699 34 9.5 56s17.166 48 32.499 78c0.666992 1.33301 1 3.33301 1 6c0 5.33301 -1.33301 8 -4 8
c-1.33301 0 -2.66602 -0.666992 -3.99902 -2l-38 -38c-15.333 -15.333 -32.166 -31.333 -50.499 -48s-38.166 -33.5 -59.499 -50.5s-43 -32.167 -65 -45.5s-44 -24.166 -66 -32.499s-43.333 -12.5 -64 -12.5c-36 0 -62 9.66699 -78 29s-24 45.333 -24 78c0 36 9 78 27 126
s42.5 97.5 73.5 148.5s67.833 101 110.5 150s88.667 93 138 132s101 70.333 155 94s108 35.5 162 35.5c68.667 0 103 -21.667 103 -65zM764.999 858.997c0 5.33301 -1.33496 10 -4.00195 14s-7 6 -13 6c-3.33301 0 -7.16602 -1.16699 -11.499 -3.5s-8.33301 -5.5 -12 -9.5
s-6.83398 -8.16699 -9.50098 -12.5s-4 -8.5 -4 -12.5c0 -6 1.83301 -10.333 5.5 -13s7.83398 -4 12.501 -4c6 0 13.333 3.66699 22 11s13.334 15.333 14.001 24z" />
    <glyph glyph-name="AE" unicode="&#xc6;" horiz-adv-x="962" 
d="M1306 724c0 -3.33301 -1.50293 -5.50586 -4.50293 -6.50586s-5.83301 -1.5 -8.5 -1.5c-4.66699 0 -8.83398 0.833008 -12.501 2.5s-8 3.33398 -13 5.00098s-10.667 3.33398 -17 5.00098s-14.166 2.5 -23.499 2.5c-36 0 -71.333 -7.66699 -106 -23
s-68.667 -36.5 -102 -63.5s-66.333 -58.833 -99 -95.5s-65.334 -76 -98.001 -118c38.667 11.333 79.334 20.333 122.001 27s87.334 10 134.001 10c36 0 62.333 -3.66699 79 -11s25 -16.333 25 -27c0 -8 -4.66699 -16.5 -14 -25.5s-22.666 -17.167 -39.999 -24.5
s-38.333 -13.333 -63 -18s-52 -7 -82 -7c-42.667 0 -79.167 4.16699 -109.5 12.5s-55.166 19.166 -74.499 32.499l-78 -107l-79 -109.5l-80 -108c-26.667 -35.667 -54 -69.834 -82 -102.501c12 -10.667 27.5 -18.834 46.5 -24.501s42.5 -8.5 70.5 -8.5
c34.667 0 71.5 5.66699 110.5 17s76.833 25.166 113.5 41.499s70 33.333 100 51s53 32.834 69 45.501c0.666992 0.666992 2 1 4 1c2.66699 0 4.83398 -1 6.50098 -3s2.5 -3.66699 2.5 -5s-0.333008 -2.33301 -1 -3c-8 -7.33301 -20.667 -16.666 -38 -27.999
s-37.5 -23.333 -60.5 -36s-48.5 -25.167 -76.5 -37.5s-56.667 -23.5 -86 -33.5s-58.833 -18.167 -88.5 -24.5s-58.167 -9.5 -85.5 -9.5c-24.667 0 -46.5 2.16699 -65.5 6.5s-35.5 10.166 -49.5 17.499c-25.333 -28.667 -51.166 -55.5 -77.499 -80.5
s-53.5 -47.167 -81.5 -66.5c-2.66699 -1.33301 -5 -2 -7 -2c-2.66699 0 -4 1 -4 3c0 4.66699 2.33301 9 7 13c25.333 19.333 50.5 40.833 75.5 64.5s49.833 49.5 74.5 77.5c-30.667 22 -46 52.333 -46 91c0 36.667 13.333 77 40 121l-40 -39.5
c-15.333 -15 -32 -30.5 -50 -46.5s-37.167 -31.667 -57.5 -47s-40.833 -29.166 -61.5 -41.499s-41.334 -22.166 -62.001 -29.499s-40.667 -11 -60 -11c-36 0 -62 9.66699 -78 29s-24 45.333 -24 78c0 36 9 78 27 126s42.5 97.5 73.5 148.5s67.833 101 110.5 150
s88.667 93 138 132s101 70.333 155 94s108 35.5 162 35.5c68.667 0 103 -21.667 103 -65c0 -16.667 -4.33301 -34.5 -13 -53.5s-18.834 -37.167 -30.501 -54.5s-23.5 -32.666 -35.5 -45.999s-21.667 -22.666 -29 -27.999c-6 -4.66699 -13.667 -7 -23 -7
c-8.66699 0 -13 3.33301 -13 10c0 2 0.666992 3.83301 2 5.5l6 7.5c5.33301 6 13.5 16 24.5 30s22 29.333 33 46s20.833 33.5 29.5 50.5s13 31.167 13 42.5c0 10 -2.5 18 -7.5 24s-11.333 10.667 -19 14s-16 5.5 -25 6.5s-17.167 1.5 -24.5 1.5
c-51.333 0 -102 -11.5 -152 -34.5s-97.333 -53.167 -142 -90.5s-85.834 -79.833 -123.501 -127.5s-70.334 -95.667 -98.001 -144s-49.167 -95.166 -64.5 -140.499s-23 -84.666 -23 -117.999c0 -28 6 -50.333 18 -67s31.333 -25 58 -25c18.667 0 38.834 4.66699 60.501 14
s43.667 21.5 66 36.5s44.5 32 66.5 51s42.833 38.167 62.5 57.5s37.667 38 54 56l40.5 46l21 26l33 42.5l32 42c10 13 16 21.5 18 25.5c3.33301 5.33301 7.66602 10.666 12.999 15.999s10.333 8 15 8c3.33301 0 5.83301 -1.66699 7.5 -5s2.5 -6.33301 2.5 -9
c0 -8 -3 -15.667 -9 -23l-16 -21c-6 -8 -12.333 -17 -19 -27c28 20.667 58.833 39.834 92.5 57.501s69.834 33.5 108.501 47.5c-23.333 23.333 -35 51.333 -35 84c0 29.333 9.83301 59.5 29.5 90.5s47.834 59.333 84.501 85s81.5 46.667 134.5 63s112.833 24.5 179.5 24.5
c6 0 16.333 -0.333008 31 -1s29.667 -2.16699 45 -4.5s28.833 -6.16602 40.5 -11.499s17.5 -13 17.5 -23zM1185 739.994c1.33301 0 -2.6709 0.664062 -12.0039 1.99707s-22.666 2 -39.999 2c-56 0 -105.667 -7.16699 -149 -21.5s-79.666 -32.666 -108.999 -54.999
s-51.666 -47.166 -66.999 -74.499s-23 -54.333 -23 -81c0 -28.667 7.66699 -53 23 -73c30.667 40 61.167 77.5 91.5 112.5s60.833 65.833 91.5 92.5s61.667 48.334 93 65.001s63.333 26.667 96 30c1.33301 0 2.33301 0.166992 3 0.5s1.33398 0.5 2.00098 0.5z
M1132.99 422.991c0 8.66699 -5.33203 16.167 -15.999 22.5s-26.667 9.5 -48 9.5c-43.333 0 -84.833 -3.66699 -124.5 -11s-77.834 -17.333 -114.501 -30c17.333 -14.667 39.333 -26.167 66 -34.5s59 -12.5 97 -12.5c47.333 0 82.5 6.16699 105.5 18.5s34.5 24.833 34.5 37.5
zM771.994 391.991c-48.667 -21.333 -93.001 -46.501 -133.001 -75.501s-74.167 -59.167 -102.5 -90.5s-50.166 -62.666 -65.499 -93.999s-23 -60 -23 -86c0 -24 7 -44.667 21 -62c52.667 62.667 104 129.5 154 200.5z" />
    <glyph glyph-name="Ccedilla" unicode="&#xc7;" horiz-adv-x="464" 
d="M872 737c0 -1.33301 -0.995117 -3.16602 -2.99512 -5.49902s-3.66699 -3.83301 -5 -4.5c-17.333 -8 -35.5 -18.667 -54.5 -32s-37.833 -28.333 -56.5 -45v-2c0 -28 -6 -58 -18 -90s-27 -61.667 -45 -89s-37.667 -50.166 -59 -68.499s-41.666 -27.5 -60.999 -27.5
c-14.667 0 -22 7 -22 21c0 11.333 4.83301 26.333 14.5 45s22.5 39.167 38.5 61.5s34.5 45.333 55.5 69s42.833 46.5 65.5 68.5c-0.666992 35.333 -10.334 61 -29.001 77s-43.334 24 -74.001 24c-32 0 -68.5 -7.83301 -109.5 -23.5s-83 -37.167 -126 -64.5
s-85.167 -60 -126.5 -98s-78.166 -79.333 -110.499 -124s-58.333 -92 -78 -142s-29.5 -100.667 -29.5 -152c0 -31.333 3.66699 -57.666 11 -78.999s17.166 -38.5 29.499 -51.5s27 -22.333 44 -28s35.5 -8.5 55.5 -8.5c27.333 0 56.166 4.5 86.499 13.5s59.833 20 88.5 33
s55 26.833 79 41.5s43.333 27.667 58 39c0.666992 0.666992 2 1 4 1c2.66699 0 4.83398 -1 6.50098 -3s2.5 -3.66699 2.5 -5s-0.333008 -2.33301 -1 -3c-11.333 -10 -29.833 -23 -55.5 -39s-55 -31.5 -88 -46.5s-67.833 -27.833 -104.5 -38.5s-71.667 -16 -105 -16h-9.5
c-3 0 -6.5 0.333008 -10.5 1l-10 -15c4 -1.33301 7.33301 -3 10 -5c2.66699 -1.33301 5 -3.5 7 -6.5s3 -6.5 3 -10.5c0 -8 -2.66699 -15.5 -8 -22.5s-12.333 -13 -21 -18s-18.334 -9 -29.001 -12s-21.334 -4.5 -32.001 -4.5c-4.66699 0 -7 1.66699 -7 5
c0 2.66699 1.33301 4 4 4c7.33301 0 14.833 1 22.5 3s14.667 4.66699 21 8s11.666 7.66602 15.999 12.999s6.5 11.333 6.5 18c0 5.33301 -1.33301 9.16602 -4 11.499s-5.66699 4.16602 -9 5.49902c-2.66699 0 -4 1.66699 -4 5c0 1.33301 1.16699 3.33301 3.5 6l14.5 17
c-18 2.66699 -34.833 8 -50.5 16s-29 19.333 -40 34s-19.667 32.834 -26 54.501s-9.5 47.5 -9.5 77.5c0 55.333 11 109.166 33 161.499s50.833 101.666 86.5 147.999s76.5 89 122.5 128s92.833 72.333 140.5 100s94.334 49.334 140.001 65.001s86.5 23.5 122.5 23.5
c33.333 0 60.666 -7.16699 81.999 -21.5s33.666 -37.5 36.999 -69.5c19.333 16.667 38.5 31.5 57.5 44.5s36.833 23.167 53.5 30.5c1.33301 0.666992 3 1 5 1s3.33301 -1 4 -3v-1v0zM721.005 621c-20.667 -20 -40.333 -40.832 -59 -62.499s-35 -42.334 -49 -62.001
s-25.167 -37.5 -33.5 -53.5s-12.5 -28.667 -12.5 -38c0 -10.667 5.33301 -16 16 -16s23.5 7.5 38.5 22.5s29.5 33.833 43.5 56.5s26.333 47.667 37 75s17 53.333 19 78z" />
    <glyph glyph-name="Egrave" unicode="&#xc8;" 
d="M924 821c-0.666992 0 -1.33203 -0.333008 -1.99902 -1c-1.33301 -1.33301 -3.66602 -2 -6.99902 -2c-11.333 3.33301 -25.5 9.33301 -42.5 18s-33.5 17.667 -49.5 27s-29.667 18.5 -41 27.5s-17 15.5 -17 19.5c0 4.66699 1.66699 8.66699 5 12s6.66602 5 9.99902 5
s6.33301 -1.33301 9 -4l65 -55c21.333 -17.333 44.666 -33 69.999 -47zM901.002 724c0 -3.33301 -1.50488 -5.5 -4.50488 -6.5s-5.83301 -1.5 -8.5 -1.5c-4.66699 0 -8.83398 0.833008 -12.501 2.5s-8 3.33398 -13 5.00098s-10.667 3.33398 -17 5.00098
s-14.166 2.5 -23.499 2.5c-36 0 -71.333 -7.66699 -106 -23s-68.834 -36.5 -102.501 -63.5s-66.834 -58.667 -99.501 -95s-65 -75.5 -97 -117.5c38.667 11.333 79.334 20.166 122.001 26.499s87.334 9.5 134.001 9.5c36 0 62.333 -3.66699 79 -11s25 -16.333 25 -27
c0 -8 -4.66699 -16.5 -14 -25.5s-22.666 -17.167 -39.999 -24.5s-38.333 -13.333 -63 -18s-52 -7 -82 -7c-42.667 0 -79.167 4.16699 -109.5 12.5s-55.166 19.166 -74.499 32.499l-78 -107l-79 -109.5l-80 -108c-26.667 -35.667 -54 -69.834 -82 -102.501
c25.333 -22 64.333 -33 117 -33c34.667 0 71.5 5.66699 110.5 17s76.833 25.166 113.5 41.499s70 33.333 100 51s53 32.834 69 45.501c0.666992 0.666992 2 1 4 1c2.66699 0 4.83398 -1 6.50098 -3s2.5 -3.66699 2.5 -5s-0.333008 -2.33301 -1 -3
c-8 -7.33301 -20.667 -16.666 -38 -27.999s-37.5 -23.333 -60.5 -36s-48.5 -25.167 -76.5 -37.5s-56.667 -23.5 -86 -33.5s-58.833 -18.167 -88.5 -24.5s-58.167 -9.5 -85.5 -9.5c-25.333 0 -47.333 2.16699 -66 6.5s-35 10.166 -49 17.499
c-25.333 -28.667 -51.166 -55.5 -77.499 -80.5s-53.5 -47.167 -81.5 -66.5c-2.66699 -1.33301 -5 -2 -7 -2c-2.66699 0 -4 1 -4 3c0 4.66699 2.33301 9 7 13c26 19.333 51.5 40.833 76.5 64.5s49.5 49.167 73.5 76.5c-30.667 22 -46 52.667 -46 92
c0 30 8.83301 62.5 26.5 97.5s43.167 69.667 76.5 104s73.833 66.833 121.5 97.5s101.167 56.667 160.5 78c-22.667 23.333 -34 51.333 -34 84c0 29.333 9.83301 59.5 29.5 90.5s47.834 59.333 84.501 85s81.5 46.667 134.5 63s112.833 24.5 179.5 24.5
c6 0 16.333 -0.333008 31 -1s29.667 -2.16699 45 -4.5s28.833 -6.16602 40.5 -11.499s17.5 -13 17.5 -23zM779.997 740c1.33301 0 -2.6709 0.664062 -12.0039 1.99707s-22.666 2 -39.999 2c-56 0 -105.667 -7.16699 -149 -21.5s-79.666 -32.666 -108.999 -54.999
s-51.666 -47.166 -66.999 -74.499s-23 -54.333 -23 -81c0 -28.667 7.66699 -53 23 -73c30.667 40 61.167 77.5 91.5 112.5s60.833 65.833 91.5 92.5s61.667 48.334 93 65.001s63.333 26.667 96 30c1.33301 0 2.33301 0.166992 3 0.5s1.33398 0.5 2.00098 0.5z
M727.993 422.997c0 8.66699 -5.33203 16.167 -15.999 22.5s-26.667 9.5 -48 9.5c-43.333 0 -84.833 -3.66699 -124.5 -11s-77.834 -17.333 -114.501 -30c17.333 -14.667 39.333 -26.167 66 -34.5s59 -12.5 97 -12.5c47.333 0 82.5 6.16699 105.5 18.5s34.5 24.833 34.5 37.5
zM367.994 391.997c-49.333 -21.333 -94.001 -46.501 -134.001 -75.501s-74.167 -59.167 -102.5 -90.5s-50.166 -62.666 -65.499 -93.999s-23 -60 -23 -86c0 -25.333 7 -46 21 -62c52.667 62.667 104 129.5 154 200.5z" />
    <glyph glyph-name="Eacute" unicode="&#xc9;" 
d="M916 929c0 -4 -5.66504 -10.5 -16.998 -19.5s-25 -18.167 -41 -27.5s-32.5 -18.333 -49.5 -27s-31.167 -14.667 -42.5 -18c-3.33301 0 -5.66602 0.666992 -6.99902 2c-0.666992 0.666992 -1.33398 1 -2.00098 1c25.333 14 48.666 29.667 69.999 47l65 55
c2.66699 2.66699 5.66699 4 9 4s6.66602 -1.66699 9.99902 -5s5 -7.33301 5 -12zM901.002 724c0 -3.33301 -1.50488 -5.5 -4.50488 -6.5s-5.83301 -1.5 -8.5 -1.5c-4.66699 0 -8.83398 0.833008 -12.501 2.5s-8 3.33398 -13 5.00098s-10.667 3.33398 -17 5.00098
s-14.166 2.5 -23.499 2.5c-36 0 -71.333 -7.66699 -106 -23s-68.834 -36.5 -102.501 -63.5s-66.834 -58.667 -99.501 -95s-65 -75.5 -97 -117.5c38.667 11.333 79.334 20.166 122.001 26.499s87.334 9.5 134.001 9.5c36 0 62.333 -3.66699 79 -11s25 -16.333 25 -27
c0 -8 -4.66699 -16.5 -14 -25.5s-22.666 -17.167 -39.999 -24.5s-38.333 -13.333 -63 -18s-52 -7 -82 -7c-42.667 0 -79.167 4.16699 -109.5 12.5s-55.166 19.166 -74.499 32.499l-78 -107l-79 -109.5l-80 -108c-26.667 -35.667 -54 -69.834 -82 -102.501
c25.333 -22 64.333 -33 117 -33c34.667 0 71.5 5.66699 110.5 17s76.833 25.166 113.5 41.499s70 33.333 100 51s53 32.834 69 45.501c0.666992 0.666992 2 1 4 1c2.66699 0 4.83398 -1 6.50098 -3s2.5 -3.66699 2.5 -5s-0.333008 -2.33301 -1 -3
c-8 -7.33301 -20.667 -16.666 -38 -27.999s-37.5 -23.333 -60.5 -36s-48.5 -25.167 -76.5 -37.5s-56.667 -23.5 -86 -33.5s-58.833 -18.167 -88.5 -24.5s-58.167 -9.5 -85.5 -9.5c-25.333 0 -47.333 2.16699 -66 6.5s-35 10.166 -49 17.499
c-25.333 -28.667 -51.166 -55.5 -77.499 -80.5s-53.5 -47.167 -81.5 -66.5c-2.66699 -1.33301 -5 -2 -7 -2c-2.66699 0 -4 1 -4 3c0 4.66699 2.33301 9 7 13c26 19.333 51.5 40.833 76.5 64.5s49.5 49.167 73.5 76.5c-30.667 22 -46 52.667 -46 92
c0 30 8.83301 62.5 26.5 97.5s43.167 69.667 76.5 104s73.833 66.833 121.5 97.5s101.167 56.667 160.5 78c-22.667 23.333 -34 51.333 -34 84c0 29.333 9.83301 59.5 29.5 90.5s47.834 59.333 84.501 85s81.5 46.667 134.5 63s112.833 24.5 179.5 24.5
c6 0 16.333 -0.333008 31 -1s29.667 -2.16699 45 -4.5s28.833 -6.16602 40.5 -11.499s17.5 -13 17.5 -23zM779.997 740c1.33301 0 -2.6709 0.664062 -12.0039 1.99707s-22.666 2 -39.999 2c-56 0 -105.667 -7.16699 -149 -21.5s-79.666 -32.666 -108.999 -54.999
s-51.666 -47.166 -66.999 -74.499s-23 -54.333 -23 -81c0 -28.667 7.66699 -53 23 -73c30.667 40 61.167 77.5 91.5 112.5s60.833 65.833 91.5 92.5s61.667 48.334 93 65.001s63.333 26.667 96 30c1.33301 0 2.33301 0.166992 3 0.5s1.33398 0.5 2.00098 0.5z
M727.993 422.997c0 8.66699 -5.33203 16.167 -15.999 22.5s-26.667 9.5 -48 9.5c-43.333 0 -84.833 -3.66699 -124.5 -11s-77.834 -17.333 -114.501 -30c17.333 -14.667 39.333 -26.167 66 -34.5s59 -12.5 97 -12.5c47.333 0 82.5 6.16699 105.5 18.5s34.5 24.833 34.5 37.5
zM367.994 391.997c-49.333 -21.333 -94.001 -46.501 -134.001 -75.501s-74.167 -59.167 -102.5 -90.5s-50.166 -62.666 -65.499 -93.999s-23 -60 -23 -86c0 -25.333 7 -46 21 -62c52.667 62.667 104 129.5 154 200.5z" />
    <glyph glyph-name="Ecircumflex" unicode="&#xca;" 
d="M899 827c0 -2 -0.998047 -3.66602 -2.99805 -4.99902s-3.66699 -2 -5 -2c-3.33301 0 -8 2.66699 -14 8s-12.333 11.666 -19 18.999l-24 27c-11.333 -6.66699 -24.166 -13.334 -38.499 -20.001s-28 -12.5 -41 -17.5s-24.5 -9 -34.5 -12s-16.667 -4.5 -20 -4.5
c-4.66699 0 -7 2 -7 6c0 0.666992 4.33301 3.33398 13 8.00098s19.5 10.167 32.5 16.5s26.833 13.5 41.5 21.5s28 16 40 24l13.5 8c2.33301 1.33301 6.16602 2 11.499 2c3.33301 0 6.66602 -2.5 9.99902 -7.5s7 -11.333 11 -19s8.66699 -16.167 14 -25.5
s11.666 -18.333 18.999 -27zM901.002 724.001c0 -3.33301 -1.50488 -5.5 -4.50488 -6.5s-5.83301 -1.5 -8.5 -1.5c-4.66699 0 -8.83398 0.833008 -12.501 2.5s-8 3.33398 -13 5.00098s-10.667 3.33398 -17 5.00098s-14.166 2.5 -23.499 2.5c-36 0 -71.333 -7.66699 -106 -23
s-68.834 -36.5 -102.501 -63.5s-66.834 -58.667 -99.501 -95s-65 -75.5 -97 -117.5c38.667 11.333 79.334 20.166 122.001 26.499s87.334 9.5 134.001 9.5c36 0 62.333 -3.66699 79 -11s25 -16.333 25 -27c0 -8 -4.66699 -16.5 -14 -25.5s-22.666 -17.167 -39.999 -24.5
s-38.333 -13.333 -63 -18s-52 -7 -82 -7c-42.667 0 -79.167 4.16699 -109.5 12.5s-55.166 19.166 -74.499 32.499l-78 -107l-79 -109.5l-80 -108c-26.667 -35.667 -54 -69.834 -82 -102.501c25.333 -22 64.333 -33 117 -33c34.667 0 71.5 5.66699 110.5 17
s76.833 25.166 113.5 41.499s70 33.333 100 51s53 32.834 69 45.501c0.666992 0.666992 2 1 4 1c2.66699 0 4.83398 -1 6.50098 -3s2.5 -3.66699 2.5 -5s-0.333008 -2.33301 -1 -3c-8 -7.33301 -20.667 -16.666 -38 -27.999s-37.5 -23.333 -60.5 -36
s-48.5 -25.167 -76.5 -37.5s-56.667 -23.5 -86 -33.5s-58.833 -18.167 -88.5 -24.5s-58.167 -9.5 -85.5 -9.5c-25.333 0 -47.333 2.16699 -66 6.5s-35 10.166 -49 17.499c-25.333 -28.667 -51.166 -55.5 -77.499 -80.5s-53.5 -47.167 -81.5 -66.5
c-2.66699 -1.33301 -5 -2 -7 -2c-2.66699 0 -4 1 -4 3c0 4.66699 2.33301 9 7 13c26 19.333 51.5 40.833 76.5 64.5s49.5 49.167 73.5 76.5c-30.667 22 -46 52.667 -46 92c0 30 8.83301 62.5 26.5 97.5s43.167 69.667 76.5 104s73.833 66.833 121.5 97.5
s101.167 56.667 160.5 78c-22.667 23.333 -34 51.333 -34 84c0 29.333 9.83301 59.5 29.5 90.5s47.834 59.333 84.501 85s81.5 46.667 134.5 63s112.833 24.5 179.5 24.5c6 0 16.333 -0.333008 31 -1s29.667 -2.16699 45 -4.5s28.833 -6.16602 40.5 -11.499
s17.5 -13 17.5 -23zM779.997 740.001c1.33301 0 -2.6709 0.664062 -12.0039 1.99707s-22.666 2 -39.999 2c-56 0 -105.667 -7.16699 -149 -21.5s-79.666 -32.666 -108.999 -54.999s-51.666 -47.166 -66.999 -74.499s-23 -54.333 -23 -81c0 -28.667 7.66699 -53 23 -73
c30.667 40 61.167 77.5 91.5 112.5s60.833 65.833 91.5 92.5s61.667 48.334 93 65.001s63.333 26.667 96 30c1.33301 0 2.33301 0.166992 3 0.5s1.33398 0.5 2.00098 0.5zM727.993 422.998c0 8.66699 -5.33203 16.167 -15.999 22.5s-26.667 9.5 -48 9.5
c-43.333 0 -84.833 -3.66699 -124.5 -11s-77.834 -17.333 -114.501 -30c17.333 -14.667 39.333 -26.167 66 -34.5s59 -12.5 97 -12.5c47.333 0 82.5 6.16699 105.5 18.5s34.5 24.833 34.5 37.5zM367.994 391.998c-49.333 -21.333 -94.001 -46.501 -134.001 -75.501
s-74.167 -59.167 -102.5 -90.5s-50.166 -62.666 -65.499 -93.999s-23 -60 -23 -86c0 -25.333 7 -46 21 -62c52.667 62.667 104 129.5 154 200.5z" />
    </font>
</defs>
</svg>
