<?xml version="1.0" standalone="no"?>
<!DOCTYPE svg PUBLIC "-//W3C//DTD SVG 1.1//EN" "http://www.w3.org/Graphics/SVG/1.1/DTD/svg11.dtd" >
<svg>
<metadata>
Created by FontForge 20090914 at Tue Feb 11 06:03:29 2020
 By www-data
Copyright 2004, SUDTIPOS. Expanded and digitized from the Bluemlein Script collection by Alejandro Paul. All rights reserved.
</metadata>
<defs>
<font id="MrsBlackfort" horiz-adv-x="546" >
  <font-face 
    font-family="Mrs Blackfort"
    font-weight="400"
    font-stretch="normal"
    units-per-em="1000"
    panose-1="2 0 6 3 7 0 0 2 0 4"
    ascent="800"
    descent="-200"
    x-height="263.999"
    cap-height="769.001"
    bbox="-310 -697.002 1498 977"
    underline-thickness="50"
    underline-position="-50"
    unicode-range="U+0020-U+FB02"
  />
<missing-glyph horiz-adv-x="300" 
 />
    <glyph glyph-name=".notdef" horiz-adv-x="300" 
 />
    <glyph glyph-name="space" unicode=" " horiz-adv-x="300" 
 />
    <glyph glyph-name="exclam" unicode="!" horiz-adv-x="256" 
d="M142 180c0 -7.33301 -0.168945 -12.8301 -0.501953 -16.4971s-0.5 -6.16699 -0.5 -7.5c0 -6 -1.66699 -10 -5 -12s-6.33301 -3 -9 -3c-6.66699 0 -10 5.33301 -10 16c0 7.33301 -0.5 22.166 -1.5 44.499l-3.5 81.5l-4.5 107c-1.66699 39.333 -3.66699 80.166 -6 122.499
s-5.16602 84.5 -8.49902 126.5l-10 120c0 3.33301 2.16699 6.66602 6.5 9.99902s8.5 5 12.5 5c8 0 13 -1.66699 15 -5c1.33301 -2 2.33301 -3.66699 3 -5c2 -6.66699 3.83301 -23.5 5.5 -50.5s3.33398 -59.333 5.00098 -97s3.16699 -78.5 4.5 -122.5s2.5 -86.5 3.5 -127.5
s1.83301 -78.167 2.5 -111.5s1 -58.333 1 -75zM158.998 24.0029c0 -8.66699 -2 -17.3311 -6 -25.998s-11.667 -13 -23 -13c-6 0.666992 -11.333 2.66699 -16 6c-4 3.33301 -7.66699 7.66602 -11 12.999s-5 12.666 -5 21.999s2.33301 18 7 26s12 12 22 12
c13.333 0 22 -3.83301 26 -11.5s6 -17.167 6 -28.5z" />
    <glyph glyph-name="quotedbl" unicode="&#x22;" horiz-adv-x="356" 
d="M212 622l-0.000976562 -47.5c0 -14.333 -0.333008 -25.166 -1 -32.499c0 -3.33301 -0.166992 -5.66602 -0.5 -6.99902s-0.5 -2.33301 -0.5 -3c0 -2.66699 -1.66699 -4.33398 -5 -5.00098s-6.33301 -1 -9 -1c-6.66699 0 -10 2.33301 -10 7
c-0.666992 4.66699 -1.33398 14.167 -2.00098 28.5s-2 31.666 -4 51.999s-4.66699 42.5 -8 66.5s-7.66602 47.667 -12.999 71c0 1.33301 2.16699 2.83301 6.5 4.5s8.5 2.5 12.5 2.5c4.66699 0 8.33398 -0.166992 11.001 -0.5s5 -0.833008 7 -1.5
c2.66699 -0.666992 4.66699 -1.33398 6 -2.00098c3.33301 -5.33301 5.83301 -20.166 7.5 -44.499s2.5 -53.5 2.5 -87.5zM111.999 622l-0.000976562 -47.5c0 -14.333 -0.333008 -25.166 -1 -32.499c0 -3.33301 -0.166992 -5.66602 -0.5 -6.99902s-0.5 -2.33301 -0.5 -3
c0 -2.66699 -1.66699 -4.33398 -5 -5.00098s-6.33301 -1 -9 -1c-6.66699 0 -10 2.33301 -10 7c-0.666992 4.66699 -1.33398 14.167 -2.00098 28.5s-2 31.666 -4 51.999s-4.66699 42.5 -8 66.5s-7.66602 47.667 -12.999 71c0 1.33301 2.16699 2.83301 6.5 4.5
s8.5 2.5 12.5 2.5c4.66699 0 8.33398 -0.166992 11.001 -0.5s5 -0.833008 7 -1.5c2.66699 -0.666992 4.66699 -1.33398 6 -2.00098c3.33301 -5.33301 5.83301 -20.166 7.5 -44.499s2.5 -53.5 2.5 -87.5z" />
    <glyph glyph-name="numbersign" unicode="#" horiz-adv-x="502" 
d="M452 246c0 -4.66699 -1.66895 -7.00098 -5.00195 -7.00098c-4.66699 1.33301 -13.5 2.33301 -26.5 3s-27.167 1 -42.5 1h-55c0.666992 -21.333 1 -41.166 1 -59.499v-45.5c0 -6.66699 -0.666992 -13.334 -2 -20.001s-6.66602 -10 -15.999 -10c-4.66699 0 -7 1.66699 -7 5
c1.33301 4.66699 2.33301 13.5 3 26.5s1 27.167 1 42.5v61c-16.667 0 -32.5 -0.333008 -47.5 -1s-29.167 -1 -42.5 -1c0.666992 -20.667 1 -40 1 -58v-45c0 -6.66699 -0.666992 -13.334 -2 -20.001s-6.66602 -10 -15.999 -10c-4.66699 0 -7 1.66699 -7 5
c1.33301 4.66699 2.33301 13.5 3 26.5s1 27.167 1 42.5v58c-36 -0.666992 -64 -1.66699 -84 -3c-12 -0.666992 -22.333 -1 -31 -1c-2.66699 0.666992 -5 2.33398 -7 5.00098s-3 5.33398 -3 8.00098c0 4.66699 2.33301 7 7 7c9.33301 1.33301 24.666 2.16602 45.999 2.49902
s45 1.16602 71 2.49902v41c0 13.333 -0.333008 26 -1 38c-17.333 -0.666992 -33.166 -1.16699 -47.499 -1.5s-26.166 -0.833008 -35.499 -1.5c-11.333 -0.666992 -21.333 -1 -30 -1c-2.66699 0.666992 -5 2.33398 -7 5.00098s-3 5.33398 -3 8.00098c0 4.66699 2.33301 7 7 7
c9.33301 1.33301 24.5 2.16602 45.5 2.49902s44.5 1.16602 70.5 2.49902l-3 89c-0.666992 12 -1.33398 22.667 -2.00098 32c0.666992 2.66699 2.33398 5 5.00098 7s5.33398 3 8.00098 3c4.66699 0 7 -2.33301 7 -7c1.33301 -10 2.16602 -26.167 2.49902 -48.5
s1.16602 -47.5 2.49902 -75.5c14.667 0.666992 29.5 1.16699 44.5 1.5s30.167 0.5 45.5 0.5c-0.666992 37.333 -1.66699 66.333 -3 87c-0.666992 12 -1.33398 22.667 -2.00098 32c0.666992 2.66699 2.33398 5 5.00098 7s5.33398 3 8.00098 3c4.66699 0 7 -2.33301 7 -7
c1.33301 -10 2.16602 -25.833 2.49902 -47.5s1.16602 -46.5 2.49902 -74.5c20 0.666992 38.833 1 56.5 1h44.5c6.66699 0 13.334 -0.666992 20.001 -2s10 -6.66602 10 -15.999c0 -4.66699 -1.66699 -7 -5 -7c-4.66699 1.33301 -13.5 2.33301 -26.5 3s-27.167 1 -42.5 1h-57
v-19c0 -8.66699 0.333008 -17.667 1 -27c0.666992 -10.667 1 -22 1 -34c19.333 0.666992 37.666 1 54.999 1h44c6.66699 0 13.334 -0.666992 20.001 -2s10 -6.66602 10 -15.999zM301.998 262.999v41c0 13.333 -0.333008 26 -1 38l-90 -1v-20
c0 -8.66699 0.333008 -17.667 1 -27c0.666992 -10.667 1 -21.667 1 -33c14.667 0.666992 29.5 1.16699 44.5 1.5s29.833 0.5 44.5 0.5z" />
    <glyph glyph-name="dollar" unicode="$" horiz-adv-x="649" 
d="M596 260c-1.33301 -30.667 -10.0049 -58.165 -26.0049 -82.498s-36.667 -45.333 -62 -63s-53.666 -32.334 -84.999 -44.001s-63 -20.834 -95 -27.501v-151c0 -10 -1 -16.667 -3 -20s-4.66699 -5 -8 -5c-7.33301 0 -13.5 1.33301 -18.5 4s-7.16699 9.66699 -6.5 21
c0.666992 21.333 1.33398 44.333 2.00098 69l2 77c-16 -2.66699 -31.5 -4.5 -46.5 -5.5s-29.5 -1.5 -43.5 -1.5c-18 0 -38.167 0.5 -60.5 1.5s-43.333 3.5 -63 7.5s-36.167 9.83301 -49.5 17.5s-20 18.5 -20 32.5c0 10.667 5.66699 20 17 28s25.5 14.5 42.5 19.5
s35.667 8.66699 56 11s39.833 3.5 58.5 3.5c20 0 40.333 -1 61 -3s37 -4 49 -6c0.666992 28 1 54.833 1 80.5v71.5v94c-26 6.66699 -51.167 14 -75.5 22s-45.666 18 -63.999 30s-33 26.333 -44 43s-16.5 37 -16.5 61c0 25.333 5.66699 48 17 68s26.166 37.5 44.499 52.5
s39.333 28 63 39s47.834 19.833 72.501 26.5c0 21.333 -0.166992 40.666 -0.5 57.999s-0.5 32.333 -0.5 45c0 14.667 -0.333008 27.667 -1 39c0 6.66699 3.5 10.5 10.5 11.5s13.167 1.5 18.5 1.5c3.33301 0 5 -6.33301 5 -19v-128
c22.667 5.33301 44.334 9.16602 65.001 11.499s38.667 3.5 54 3.5c51.333 0 88.166 -5.66699 110.499 -17s33.5 -24.666 33.5 -39.999c0 -9.33301 -3.66699 -18.5 -11 -27.5s-17.166 -17.333 -29.499 -25s-27.166 -13.834 -44.499 -18.501s-36 -7 -56 -7
c-8.66699 0 -15.5 0.833008 -20.5 2.5s-8.5 3.5 -10.5 5.5c-2.66699 2.66699 -4 5.33398 -4 8.00098c0 7.33301 4.66699 10.333 14 9l12 -1c18.667 -1.33301 35.5 -0.5 50.5 2.5s27.833 7.16699 38.5 12.5s18.834 11.5 24.501 18.5s8.5 13.833 8.5 20.5
c0 11.333 -9.16699 21.333 -27.5 30s-48.5 13 -90.5 13c-14.667 0 -32.334 -1.33301 -53.001 -4s-42 -7 -64 -13v-141c0 -47.333 0.333008 -96.666 1 -147.999c32 -8 64 -16.667 96 -26s61 -20.5 87 -33.5s47 -28.667 63 -47s23.333 -40.833 22 -67.5zM296.995 443.002
c0 46.667 -0.167969 93.502 -0.500977 140.502s-0.833008 90.5 -1.5 130.5c-21.333 -6.66699 -41.833 -14.834 -61.5 -24.501s-37.167 -20.834 -52.5 -33.501s-27.666 -26.834 -36.999 -42.501s-14 -33.167 -14 -52.5c0 -16 4.5 -29.833 13.5 -41.5s21 -22.167 36 -31.5
s32.667 -17.666 53 -24.999s41.833 -14 64.5 -20zM569.994 251.004c0 21.333 -7 38.998 -21 52.998s-32.333 25.833 -55 35.5s-48.5 17.834 -77.5 24.501s-58.5 13 -88.5 19v-326c34.667 6 66.834 14.833 96.501 26.5s55.167 25.834 76.5 42.501s38.166 35.5 50.499 56.5
s18.5 43.833 18.5 68.5zM296.994 130.002c-5.33301 0.666992 -12.5 1.50098 -21.5 2.50098s-18.167 1.83301 -27.5 2.5l-27.5 2c-9 0.666992 -16.167 1 -21.5 1c-16.667 0 -34.167 -0.833008 -52.5 -2.5s-35.166 -4.33398 -50.499 -8.00098s-28 -8.16699 -38 -13.5
s-15 -12 -15 -20c0 -10.667 5.16699 -19 15.5 -25s24 -10.5 41 -13.5s36 -5 57 -6s42.5 -1.5 64.5 -1.5c13.333 0 26.166 0.333008 38.499 1s24.5 1.66699 36.5 3c0.666992 13.333 1 26.333 1 39v39z" />
    <glyph glyph-name="percent" unicode="%" horiz-adv-x="1090" 
d="M1011 232c0 -32 -5.33203 -64.667 -15.999 -98s-26.5 -63.5 -47.5 -90.5s-46.833 -49.167 -77.5 -66.5s-65.667 -26 -105 -26c-34 0 -63.333 6.66699 -88 20s-45 31 -61 53s-28 47.333 -36 76s-12 58.334 -12 89.001c0 35.333 5 70.166 15 104.499s24.667 65.333 44 93
s43.166 50 71.499 67s60.833 25.5 97.5 25.5c31.333 0 56.833 -7.33301 76.5 -22s31.5 -32 35.5 -52c35.333 -11.333 61.333 -33 78 -65s25 -68 25 -108zM887.001 829c0 -6 -0.666992 -12.666 -2 -19.999s-3.33301 -12 -6 -14
c-0.666992 -0.666992 -7.66699 -8.83398 -21 -24.501l-52.5 -62.5l-74.5 -89.5l-87.5 -105.5l-91 -110.5l-85.5 -104.5l-88.5 -110.5l-80 -102.5l-76 -99.5l-76.5 -100.5c-1.33301 -1.33301 -4.83301 -2.5 -10.5 -3.5s-9.5 -1.5 -11.5 -1.5c-5.33301 0 -8 2 -8 6
c0 0.666992 0.666992 3 2 7c1.33301 2.66699 11.5 16.167 30.5 40.5l75 95l106 133l123.5 153.5l100 123.5l95.5 118.5l85.5 106l69.5 85.5l46.5 57.5c11.333 14 17.333 21.333 18 22c4 5.33301 8 8 12 8c4.66699 0 7 -2.33301 7 -7zM502.001 592.001
c0 -32 -5.33203 -64.667 -15.999 -98s-26.5 -63.5 -47.5 -90.5s-46.833 -49.167 -77.5 -66.5s-65.667 -26 -105 -26c-34 0 -63.333 6.66699 -88 20s-45 31 -61 53s-28 47.333 -36 76s-12 58.334 -12 89.001c0 35.333 5 70.166 15 104.499s24.667 65.333 44 93
s43.166 50 71.499 67s60.833 25.5 97.5 25.5c31.333 0 56.833 -7.33301 76.5 -22s31.5 -32 35.5 -52c35.333 -11.333 61.333 -33 78 -65s25 -68 25 -108zM961.002 230.001c0 32 -4.49805 61.502 -13.498 88.502s-22.167 47.833 -39.5 62.5c-2 -16 -7.33301 -29.333 -16 -40
s-14.667 -16 -18 -16c-2 0 -3 1 -3 3c0 2.66699 1.33301 6 4 10c10.667 12.667 16 27.334 16 44.001v7c0 1.33301 -0.333008 2.66602 -1 3.99902c-12 6 -25 9 -39 9s-27.333 -1.33301 -40 -4s-23.667 -5.83398 -33 -9.50098s-16.833 -7 -22.5 -10
s-8.83398 -4.83301 -9.50098 -5.5c-6 -6 -10 -9 -12 -9c-2.66699 0 -4 1.33301 -4 4c0 4 3 8 9 12c22.667 13.333 44.167 22 64.5 26s39.166 6 56.499 6c4.66699 0 9 -0.166992 13 -0.5s8 -0.833008 12 -1.5c-5.33301 15.333 -15.833 28.666 -31.5 39.999s-37.5 17 -65.5 17
c-30 0 -56 -7 -78 -21s-40.167 -32.667 -54.5 -56s-25 -49.666 -32 -78.999s-10.5 -59.666 -10.5 -90.999c0 -32 3.5 -63.167 10.5 -93.5s17.333 -57.5 31 -81.5s30.334 -43.333 50.001 -58s42.5 -22 68.5 -22c31.333 0 58.666 8.16699 81.999 24.5
s42.833 37.166 58.5 62.499s27.5 53.666 35.5 84.999s12 62.333 12 93zM452.004 590.003c0 32 -4.49805 61.502 -13.498 88.502s-22.167 47.833 -39.5 62.5c-2 -16 -7.33301 -29.333 -16 -40s-14.667 -16 -18 -16c-2 0 -3 1 -3 3c0 2.66699 1.33301 6 4 10
c10.667 12.667 16 27.334 16 44.001v7c0 1.33301 -0.333008 2.66602 -1 3.99902c-12 6 -25 9 -39 9s-27.333 -1.33301 -40 -4s-23.667 -5.83398 -33 -9.50098s-16.833 -7 -22.5 -10s-8.83398 -4.83301 -9.50098 -5.5c-6 -6 -10 -9 -12 -9c-2.66699 0 -4 1.33301 -4 4
c0 4 3 8 9 12c22.667 13.333 44.167 22 64.5 26s39.166 6 56.499 6c4.66699 0 9 -0.166992 13 -0.5s8 -0.833008 12 -1.5c-5.33301 15.333 -15.833 28.666 -31.5 39.999s-37.5 17 -65.5 17c-30 0 -56 -7 -78 -21s-40.167 -32.667 -54.5 -56s-25 -49.666 -32 -78.999
s-10.5 -59.666 -10.5 -90.999c0 -32 3.5 -63.167 10.5 -93.5s17.333 -57.5 31 -81.5s30.334 -43.333 50.001 -58s42.5 -22 68.5 -22c31.333 0 58.666 8.16699 81.999 24.5s42.833 37.166 58.5 62.499s27.5 53.666 35.5 84.999s12 62.333 12 93z" />
    <glyph glyph-name="ampersand" unicode="&#x26;" horiz-adv-x="629" 
d="M688 -33c0 -2 -1.33008 -4.00195 -3.99707 -6.00195s-6.66699 -3 -12 -3c-40 12.667 -79.333 30.5 -118 53.5s-76.334 49.833 -113.001 80.5c-24.667 -19.333 -50.834 -37 -78.501 -53s-55.667 -29.667 -84 -41s-56.666 -20 -84.999 -26s-55.5 -9 -81.5 -9
c-25.333 0 -49.333 3.5 -72 10.5s-42.334 17.667 -59.001 32s-29.834 32.166 -39.501 53.499s-14.5 46.333 -14.5 75c0 30.667 7 60.834 21 90.501s32 58.834 54 87.501s46.5 56.667 73.5 84l79.5 80c-19.333 50.667 -29 97.667 -29 141c0 24.667 4.5 47.334 13.5 68.001
s20.5 38.334 34.5 53.001s29.5 26.167 46.5 34.5s33.167 12.5 48.5 12.5c18 0 34.333 -5.83301 49 -17.5s22 -30.834 22 -57.501c0 -16.667 -4.16699 -34 -12.5 -52s-19.333 -36.667 -33 -56s-29.667 -39 -48 -59l-57.5 -62c22 -60 54.833 -121.333 98.5 -184
s96.834 -121 159.501 -175c34 30.667 61.333 64.5 82 101.5s31 75.167 31 114.5c0 13.333 -1.83301 26.833 -5.5 40.5s-10.834 28.167 -21.501 43.5c0 1.33301 2 2.83301 6 4.5s7.66699 2.5 11 2.5c9.33301 0 16.833 -3.16699 22.5 -9.5s10 -13.833 13 -22.5
s5 -17.5 6 -26.5s1.5 -16.167 1.5 -21.5c0 -44 -12.167 -86.5 -36.5 -127.5s-55.833 -78.5 -94.5 -112.5c32.667 -27.333 67.167 -52.333 103.5 -75s74.833 -42.667 115.5 -60c4.66699 -2.66699 7 -5 7 -7zM303.003 696.998c0 23.333 -5.16699 40.165 -15.5 50.498
s-21.5 15.5 -33.5 15.5c-10 0 -20.5 -3.33301 -31.5 -10s-21 -16.167 -30 -28.5s-16.5 -27.166 -22.5 -44.499s-9 -36.333 -9 -57c0 -37.333 7 -77.666 21 -120.999l47 51c14.667 16.667 27.5 33.167 38.5 49.5s19.667 32.333 26 48s9.5 31.167 9.5 46.5zM427.003 103.997
c-28.667 24.667 -56.168 51.167 -82.501 79.5s-50.666 57.5 -72.999 87.5s-42.666 60.5 -60.999 91.5s-33.833 61.5 -46.5 91.5l-67.5 -74.5c-22.333 -25 -42.333 -50 -60 -75s-31.834 -50 -42.501 -75s-16 -49.833 -16 -74.5c0 -29.333 4.83301 -54.5 14.5 -75.5
s22.5 -38.167 38.5 -51.5s34.333 -23 55 -29s42 -9 64 -9s44.833 2.66699 68.5 8s47.5 13 71.5 23s47.667 22 71 36s45.333 29.667 66 47z" />
    <glyph glyph-name="quotesingle" unicode="'" horiz-adv-x="256" 
d="M112 622l-0.000976562 -47.5c0 -14.333 -0.333008 -25.166 -1 -32.499c0 -3.33301 -0.166992 -5.66602 -0.5 -6.99902s-0.5 -2.33301 -0.5 -3c0 -2.66699 -1.66699 -4.33398 -5 -5.00098s-6.33301 -1 -9 -1c-6.66699 0 -10 2.33301 -10 7
c-0.666992 4.66699 -1.33398 14.167 -2.00098 28.5s-2 31.666 -4 51.999s-4.66699 42.5 -8 66.5s-7.66602 47.667 -12.999 71c0 1.33301 2.16699 2.83301 6.5 4.5s8.5 2.5 12.5 2.5c4.66699 0 8.33398 -0.166992 11.001 -0.5s5 -0.833008 7 -1.5
c2.66699 -0.666992 4.66699 -1.33398 6 -2.00098c3.33301 -5.33301 5.83301 -20.166 7.5 -44.499s2.5 -53.5 2.5 -87.5z" />
    <glyph glyph-name="parenleft" unicode="(" horiz-adv-x="380" 
d="M287 809c-36.667 -32 -68.167 -65.833 -94.5 -101.5s-47.833 -72.834 -64.5 -111.501s-28.834 -78.167 -36.501 -118.5s-11.5 -80.833 -11.5 -121.5c0 -62 6.5 -117.5 19.5 -166.5s29.5 -92.5 49.5 -130.5s41.833 -71.333 65.5 -100s46.167 -53.667 67.5 -75v-2
c0 -2 -1.33301 -3 -4 -3c-35.333 24 -67.833 53.167 -97.5 87.5s-55 72 -76 113s-37.333 84 -49 129s-17.5 90.167 -17.5 135.5c0 88 19.5 172.333 58.5 253s101.167 153.334 186.5 218.001c0.666992 0 1.33398 -0.333008 2.00098 -1c1.33301 -1.33301 2 -3 2 -5z" />
    <glyph glyph-name="parenright" unicode=")" horiz-adv-x="406" 
d="M309 350c0 -88 -19.5 -172.333 -58.5 -253s-101.167 -153.334 -186.5 -218.001c-0.666992 0 -1.33398 0.333008 -2.00098 1c-1.33301 1.33301 -2 3 -2 5c37.333 32 69 65.833 95 101.5s47.333 72.834 64 111.501s28.834 78.167 36.501 118.5s11.5 80.833 11.5 121.5
c0 62 -6.5 117.5 -19.5 166.5s-29.5 92.5 -49.5 130.5s-41.833 71.333 -65.5 100s-46.167 53.667 -67.5 75v2c0 2 1.33301 3 4 3c35.333 -24 67.833 -53.167 97.5 -87.5s55 -72 76 -113s37.333 -84 49 -129s17.5 -90.167 17.5 -135.5z" />
    <glyph glyph-name="asterisk" unicode="*" horiz-adv-x="417" 
d="M307 633c0 -6 -1.99512 -11.666 -5.99512 -16.999s-10.333 -8 -19 -8l-50 5h-6.5c-2.33301 0 -4.5 -0.333008 -6.5 -1c5.33301 -9.33301 11.166 -17 17.499 -23s12.333 -11.333 18 -16s10.5 -8.83398 14.5 -12.501s6 -7.5 6 -11.5c0 -6 -2.33301 -11.333 -7 -16
s-9.33398 -7 -14.001 -7c-8.66699 0 -14.834 2.83301 -18.501 8.5s-6.33398 12.667 -8.00098 21s-3.66699 17 -6 26s-6.5 16.5 -12.5 22.5c-6 -6 -10 -13.667 -12 -23l-5.5 -26.5c-1.66699 -8.33301 -4.16699 -15.5 -7.5 -21.5s-9.33301 -9 -18 -9
c-4.66699 0 -9.5 2.33301 -14.5 7s-7.5 10 -7.5 16c0 4.66699 2 8.83398 6 12.501s9 7.83398 15 12.501s12.167 10.167 18.5 16.5s11.833 14.166 16.5 23.499c-2.66699 0.666992 -5 1.16699 -7 1.5s-4.33301 0.5 -7 0.5c-8.66699 0 -17.5 -1 -26.5 -3s-17.5 -3 -25.5 -3
c-6.66699 0 -11.834 2.66699 -15.501 8s-5.5 11.333 -5.5 18c0 6 1.83301 11.333 5.5 16s9.16699 7 16.5 7c4 0 7.83301 -1.83301 11.5 -5.5s8 -7.66699 13 -12s11.167 -8.33301 18.5 -12s16.666 -5.83398 27.999 -6.50098c0 11.333 -1.16699 20.5 -3.5 27.5
s-4.66602 12.667 -6.99902 17s-4.5 7.83301 -6.5 10.5s-3 6 -3 10c0 7.33301 2.5 12.666 7.5 15.999s10.167 5 15.5 5c6 0 11.333 -1.66699 16 -5s7 -8.66602 7 -15.999c0 -4 -1 -7.66699 -3 -11s-4 -7 -6 -11s-4 -9.33301 -6 -16s-3 -15.667 -3 -27
c9.33301 0 17.5 1.83301 24.5 5.5s13.167 7.66699 18.5 12l15 12c4.66699 3.66699 9.33398 5.5 14.001 5.5c7.33301 0 12.666 -2.33301 15.999 -7s5 -10 5 -16z" />
    <glyph glyph-name="plus" unicode="+" horiz-adv-x="502" 
d="M452 296c0 -4.66699 -1.6709 -6.99805 -5.00391 -6.99805c-4.66699 1.33301 -13.5 2.33301 -26.5 3s-27.167 1 -42.5 1h-55c-17.333 0 -34.333 -0.333008 -51 -1c0.666992 -30 1.16699 -58.833 1.5 -86.5s0.5 -50.167 0.5 -67.5c0 -6.66699 -0.666992 -13.334 -2 -20.001
s-6.66602 -10 -15.999 -10c-4.66699 0 -7 1.66699 -7 5c1.33301 4.66699 2.33301 13.5 3 26.5s1 27.167 1 42.5v56.5c0 18.333 -0.333008 36.166 -1 53.499c-26.667 -0.666992 -50.667 -1.33398 -72 -2.00098s-39.666 -1.33398 -54.999 -2.00098
c-17.333 -0.666992 -33 -1.33398 -47 -2.00098c-2.66699 0.666992 -5 2.33398 -7 5.00098s-3 5.33398 -3 8.00098c0 4.66699 2.33301 7 7 7c6.66699 0.666992 16 1.33398 28 2.00098s25.833 1.16699 41.5 1.5s32.834 0.833008 51.501 1.5s37.334 1 56.001 1
c-0.666992 26 -1.33398 49.333 -2.00098 70s-1.33398 38.667 -2.00098 54c-0.666992 17.333 -1.33398 32.666 -2.00098 45.999c0.666992 2.66699 2.33398 5 5.00098 7s5.33398 3 8.00098 3c4.66699 0 7 -2.33301 7 -7c1.33301 -13.333 2.33301 -36 3 -68s1.66699 -67 3 -105
c30 1.33301 58.167 2 84.5 2h65.5c6.66699 0 13.334 -0.666992 20.001 -2s10 -6.66602 10 -15.999z" />
    <glyph glyph-name="comma" unicode="," horiz-adv-x="256" 
d="M94 23c0 -19.333 -2.99902 -36.998 -8.99902 -52.998s-13.667 -30 -23 -42s-19.333 -21.333 -30 -28s-20.667 -10 -30 -10c-2 0 -3 1.66699 -3 5c0 2 0.333008 3 1 3c14 4 25.167 10 33.5 18s14.666 16.167 18.999 24.5s7.33301 16.5 9 24.5s2.5 14.667 2.5 20h-2
c-6 0.666992 -11.333 2.66699 -16 6c-4 3.33301 -7.66699 7.66602 -11 12.999s-5 12.666 -5 21.999s2.33301 18 7 26s12 12 22 12c13.333 0 22.5 -4 27.5 -12s7.5 -17.667 7.5 -29z" />
    <glyph glyph-name="hyphen" unicode="-" horiz-adv-x="578" 
d="M452 166c0 -4.66699 -1.66699 -7.00781 -5 -7.00781c-4.66699 1.33301 -13.5 2.33301 -26.5 3s-27.167 1 -42.5 1c-44 0 -84.333 -0.166992 -121 -0.5s-68.334 -1.16602 -95.001 -2.49902c-31.333 -1.33301 -59.333 -2.66602 -84 -3.99902
c-2.66699 0.666992 -5 2.33398 -7 5.00098s-3 5.33398 -3 8.00098c0 4.66699 2.33301 7 7 7c8 0.666992 20.333 1.33398 37 2.00098s35.667 1.33398 57 2.00098s44 1.33398 68 2.00098s47.5 1.16699 70.5 1.5s44.5 0.5 64.5 0.5h50c6.66699 0 13.334 -0.666992 20.001 -2
s10 -6.66602 10 -15.999z" />
    <glyph glyph-name="period" unicode="." horiz-adv-x="256" 
d="M106 24c0 -8.66699 -2 -17.3311 -6 -25.998s-11.667 -13 -23 -13c-6 0.666992 -11.333 2.66699 -16 6c-4 3.33301 -7.66699 7.66602 -11 12.999s-5 12.666 -5 21.999s2.33301 18 7 26s12 12 22 12c13.333 0 22 -3.83301 26 -11.5s6 -17.167 6 -28.5z" />
    <glyph glyph-name="slash" unicode="/" horiz-adv-x="500" 
d="M705 829c0 -12.667 -2.66699 -21 -8 -25c-0.666992 -0.666992 -7.66699 -9 -21 -25l-53 -63l-75 -90l-87.5 -106.5l-91.5 -111l-86 -104.5l-90 -111.5l-83 -104.5l-78.5 -101.5l-77.5 -101.5c-3.33301 -3.33301 -7.33301 -5 -12 -5c-5.33301 0 -8 2 -8 6
c0 0.666992 0.666992 3 2 7c1.33301 2.66699 11.5 16.167 30.5 40.5l75 95l106 133l123.5 153.5l100 123.5l95.5 118.5l85.5 106l69.5 85.5l46.5 57.5c11.333 14 17.333 21.333 18 22c4 5.33301 8 8 12 8c4.66699 0 7 -2.33301 7 -7z" />
    <glyph glyph-name="zero" unicode="0" horiz-adv-x="719" 
d="M713 397c0 -49.333 -8.16309 -99.332 -24.4961 -149.999s-40.5 -96.667 -72.5 -138s-71.333 -75.166 -118 -101.499s-100.334 -39.5 -161.001 -39.5c-51.333 0 -95.833 10 -133.5 30s-68.834 46.667 -93.501 80s-43 71.666 -55 114.999s-18 88.333 -18 135
c0 53.333 7.66699 106.333 23 159s37.666 100 66.999 142s65.666 76 108.999 102s93 39 149 39c46.667 0 85 -10.833 115 -32.5s48 -47.834 54 -78.501c26.667 -8 50 -20.5 70 -37.5s36.5 -37.167 49.5 -60.5s22.833 -49 29.5 -77s10 -57 10 -87zM660.004 393.001
c0 52 -8.49902 99.502 -25.499 142.502s-43.167 74.833 -78.5 95.5c-0.666992 -13.333 -3.5 -25.666 -8.5 -36.999s-10.333 -21.333 -16 -30s-11.334 -15.334 -17.001 -20.001s-9.5 -7 -11.5 -7c-3.33301 0 -5 1.66699 -5 5s2.66699 8.33301 8 15
c15.333 17.333 23 39.666 23 66.999c0 3.33301 -0.166992 6.66602 -0.5 9.99902s-0.833008 6.66602 -1.5 9.99902c-9.33301 3.33301 -18.833 5.83301 -28.5 7.5s-19.834 2.5 -30.501 2.5c-21.333 0 -41.333 -2.16699 -60 -6.5s-35.167 -9.16602 -49.5 -14.499
s-26 -10.333 -35 -15s-14.167 -7.66699 -15.5 -9c-3.33301 -3.33301 -6.66602 -6.33301 -9.99902 -9s-6 -4 -8 -4c-4 0 -6 2 -6 6c0 6.66699 4.66699 12.667 14 18c34 19.333 66.5 32.333 97.5 39s60.167 10 87.5 10c13.333 0 26 -1 38 -3
c-8.66699 23.333 -25 43.666 -49 60.999s-57 26 -99 26c-50.667 0 -94.5 -10.5 -131.5 -31.5s-67.5 -48.833 -91.5 -83.5s-41.667 -74.167 -53 -118.5s-17 -90.166 -17 -137.499c0 -49.333 6 -97.833 18 -145.5s29.5 -90.334 52.5 -128.001s51.333 -68.167 85 -91.5
s71.834 -35 114.501 -35c50 0 94.167 12.5 132.5 37.5s70.666 57.333 96.999 97s46.333 83.834 60 132.501s20.5 96.667 20.5 144z" />
    <glyph glyph-name="one" unicode="1" horiz-adv-x="243" 
d="M158 376c0.666992 -47.333 0.499023 -98.6689 -0.500977 -154.002s-3.16699 -118.666 -6.5 -189.999c-1.33301 -20 -3 -32.833 -5 -38.5s-5 -8.5 -9 -8.5c-6 0 -11.667 1.16699 -17 3.5s-8 6.16602 -8 11.499c5.33301 52 8.83301 106.333 10.5 163
s2.5 113.334 2.5 170.001c0 48 -0.5 94.167 -1.5 138.5s-2.16699 84.833 -3.5 121.5s-2.66602 68 -3.99902 94s-2.33301 44.667 -3 56c-14.667 -14 -29.167 -24.833 -43.5 -32.5s-26.166 -11.5 -35.499 -11.5c-7.33301 0 -12.833 3 -16.5 9s-5.5 12 -5.5 18
c0 3.33301 1.33301 6 4 8s5.33398 3 8.00098 3c3.33301 0 6.16602 -0.5 8.49902 -1.5s4.83301 -1.5 7.5 -1.5c14.667 0 27.5 3.5 38.5 10.5s20.5 14.667 28.5 23s14.5 16 19.5 23s8.5 10.5 10.5 10.5c4 0 7.33301 -2 10 -6s4.5 -8.83301 5.5 -14.5s1.66699 -11.667 2 -18
s0.5 -12.166 0.5 -17.499v-33c0 -14.667 0.166992 -31.334 0.5 -50.001s0.666016 -38.667 0.999023 -60s0.5 -42.666 0.5 -63.999c0.666992 -50 1 -104 1 -162z" />
    <glyph glyph-name="two" unicode="2" horiz-adv-x="579" 
d="M583 185c0 -30 -6.82422 -55.834 -20.4912 -77.501s-31.667 -39.834 -54 -54.501s-47.833 -26.5 -76.5 -35.5s-57.834 -16 -87.501 -21s-58.834 -8.33301 -87.501 -10s-54.334 -2.5 -77.001 -2.5c-24 0 -45.167 0.666992 -63.5 2s-33.833 3 -46.5 5
c-14.667 2.66699 -27.334 5.33398 -38.001 8.00098c-7.33301 3.33301 -12.333 6.66602 -15 9.99902s-4 7.66602 -4 12.999c0 2 0.666992 4.33301 2 7c0.666992 1.33301 1 2.33301 1 3c55.333 37.333 109 78.666 161 123.999s98.167 93 138.5 143s72.666 101.333 96.999 154
s36.5 105.334 36.5 158.001c0 26 -4.5 48.667 -13.5 68s-21.167 35.333 -36.5 48s-32.833 22.167 -52.5 28.5s-40.5 9.5 -62.5 9.5c-26 0 -52.333 -4.66699 -79 -14s-50.667 -23.166 -72 -41.499s-38.666 -41.333 -51.999 -69s-20.333 -59.5 -21 -95.5c0 -8 -2 -12 -6 -12
c-2.66699 0 -5.33398 2.5 -8.00098 7.5s-4 12.5 -4 22.5c0 37.333 8.83301 70.333 26.5 99s40.167 53 67.5 73s58 35.167 92 45.5s67.333 15.5 100 15.5c24 0 46.833 -2.83301 68.5 -8.5s40.5 -14.5 56.5 -26.5s28.833 -27.167 38.5 -45.5s14.5 -40.166 14.5 -65.499
c0 -53.333 -11.833 -107.666 -35.5 -162.999s-55.667 -109.5 -96 -162.5s-87.333 -104.167 -141 -153.5s-110.834 -94.666 -171.501 -135.999c0 -0.666992 2 -2.16699 6 -4.5s12.667 -4.83301 26 -7.5s32.5 -5 57.5 -7s58.5 -3 100.5 -3c35.333 0 71 2.66699 107 8
s68.5 14 97.5 26s52.667 28 71 48s27.5 44.333 27.5 73c0 15.333 -3.33301 26.333 -10 33s-15 10 -25 10c-10.667 0 -22.334 -3 -35.001 -9s-24.334 -13.5 -35.001 -22.5s-19.667 -18.667 -27 -29s-11 -20.166 -11 -29.499c0 -6.66699 -2.66699 -10 -8 -10
c-4.66699 0 -7 3 -7 9c0 13.333 4.83301 26.666 14.5 39.999s21.5 25.166 35.5 35.499s29.167 18.833 45.5 25.5s31.5 10 45.5 10c13.333 0 24.166 -3.5 32.499 -10.5s12.5 -18.833 12.5 -35.5z" />
    <glyph glyph-name="three" unicode="3" horiz-adv-x="603" 
d="M581 318c0 -23.333 -6.49805 -48.1592 -19.498 -74.4922s-31.167 -52.5 -54.5 -78.5s-51.166 -51 -83.499 -75s-67.666 -45.167 -105.999 -63.5s-79.166 -33 -122.499 -44s-87.666 -16.5 -132.999 -16.5c-8.66699 0 -18.667 0.333008 -30 1s-21.666 2.16699 -30.999 4.5
s-17.333 6 -24 11s-10 11.833 -10 20.5c0 12 6 23.5 18 34.5s27.333 21.167 46 30.5s39 17.666 61 24.999s43.167 13.666 63.5 18.999s38.166 9.5 53.499 12.5s25.666 4.5 30.999 4.5c4 0 7 -1 9 -3s3 -4 3 -6c0 -3.33301 -1.66699 -5 -5 -5h-13
c-17.333 0 -39.333 -3.33301 -66 -10s-52.667 -15 -78 -25s-47 -21 -65 -33s-27 -23.667 -27 -35c0 -6.66699 2.5 -12.334 7.5 -17.001s11.167 -8.33398 18.5 -11.001s15 -4.5 23 -5.5s15 -1.5 21 -1.5c38.667 0 76.834 5.5 114.501 16.5s73.667 25.5 108 43.5
s66.166 38.833 95.499 62.5s54.666 48.167 75.999 73.5s38.166 50.666 50.499 75.999s18.5 49 18.5 71c0 26 -10 48.167 -30 66.5s-52.667 29.5 -98 33.5c-30 -28 -62.833 -50.5 -98.5 -67.5s-71.834 -25.5 -108.501 -25.5c-26 0 -39 6.33301 -39 19
c0 8 5.5 17.167 16.5 27.5s26.333 20.166 46 29.499s43.167 17.166 70.5 23.499s57.333 9.5 90 9.5h12c22 26 39.667 54.5 53 85.5s20 61.5 20 91.5c0 24 -5.16699 45.667 -15.5 65s-23.833 35.5 -40.5 48.5s-35.834 23 -57.501 30s-44.167 10.5 -67.5 10.5
c-25.333 0 -50.333 -4.33301 -75 -13s-46.667 -22.167 -66 -40.5s-35 -41.5 -47 -69.5s-18 -61.667 -18 -101c0 -8 -2 -12 -6 -12c-2.66699 0 -5.33398 2.5 -8.00098 7.5s-4 12.5 -4 22.5c0 38.667 7.83301 72.667 23.5 102s35.834 53.666 60.501 72.999s52.667 34 84 44
s62.333 15 93 15c25.333 0 49.666 -3.33301 72.999 -10s44 -16.667 62 -30s32.333 -30 43 -50s16 -43.667 16 -71c0 -32.667 -9 -66.667 -27 -102s-41.667 -68 -71 -98c58 -4 99.833 -16.5 125.5 -37.5s38.5 -47.167 38.5 -78.5zM367.002 422.007
c-24.667 0 -48.167 -2.66797 -70.5 -8.00098s-42 -11.666 -59 -18.999s-30.667 -15 -41 -23s-15.5 -15 -15.5 -21c0 -8 9.33301 -12 28 -12c32 0 62.5 7.66699 91.5 23s55.167 35.333 78.5 60h-12z" />
    <glyph glyph-name="four" unicode="4" horiz-adv-x="509" 
d="M560 267c0 -2 -4.66406 -5.66699 -13.9971 -11h-14c-25.333 0 -49 -2 -71 -6s-43.333 -9 -64 -15v-95c0 -21.333 0.333008 -41.833 1 -61.5s1.66699 -38.167 3 -55.5c0.666992 -5.33301 1.16699 -11 1.5 -17s0.5 -10.667 0.5 -14c0 -6.66699 -2.66699 -11.667 -8 -15
s-10.666 -5 -15.999 -5c-8 0 -13 4.66699 -15 14c-1.33301 17.333 -2.66602 38.333 -3.99902 63s-2 52 -2 82v44c0 15.333 0.666992 31.333 2 48c-32 -10 -64.667 -19.667 -98 -29s-70.666 -14 -111.999 -14c-36.667 0 -67 3.83301 -91 11.5s-36 23.834 -36 48.501
c0 31.333 7 62.333 21 93s31.5 61.334 52.5 92.001s43.833 61.834 68.5 93.501s47.667 64 69 97s39.666 67 54.999 102s23.666 71.5 24.999 109.5c-0.666992 1.33301 -1 2.66602 -1 3.99902c0 2 0.833008 3.33301 2.5 4s3.16699 1 4.5 1c0.666992 0 4.16699 -1 10.5 -3
s11.5 -6.33301 15.5 -13c2.66699 -2.66699 4 -7.33398 4 -14.001c0 -19.333 -7.33301 -43 -22 -71s-32.834 -58.333 -54.501 -91l-70 -101.5c-25 -35 -48.333 -69.167 -70 -102.5s-39.667 -65 -54 -95s-21.5 -56 -21.5 -78c0 -10 1.66699 -18.333 5 -25
s9.5 -12.167 18.5 -16.5s21.5 -7.33301 37.5 -9s36.333 -2.5 61 -2.5c26.667 0 55.5 3.16699 86.5 9.5l94.5 19.5c2 37.333 5.5 76 10.5 116s11.833 78.667 20.5 116s19.334 72 32.001 104s28 59 46 81c4 4 8.33301 6 13 6s7 -1.66699 7 -5c0 -2 -1.33301 -4.33301 -4 -7
c-17.333 -15.333 -31.5 -37 -42.5 -65s-19.833 -60 -26.5 -96s-11.334 -74.667 -14.001 -116s-4.33398 -83 -5.00098 -125c23.333 5.33301 45.666 9.66602 66.999 12.999s41.666 5 60.999 5c22.667 0 34 -1 34 -3z" />
    <glyph glyph-name="five" unicode="5" horiz-adv-x="607" 
d="M570 337c0 -40.667 -11.3369 -83.165 -34.0039 -127.498s-55.5 -84.833 -98.5 -121.5s-95.167 -66.834 -156.5 -90.501s-131 -35.5 -209 -35.5c-8.66699 0 -18.667 0.5 -30 1.5s-21.666 3 -30.999 6s-17.333 7.16699 -24 12.5s-10 12.333 -10 21c0 12 6 23.5 18 34.5
s27.333 21.167 46 30.5s39 17.666 61 24.999s43.167 13.666 63.5 18.999s38.166 9.5 53.499 12.5s25.666 4.5 30.999 4.5c4 0 7 -1 9 -3s3 -4 3 -6c0 -3.33301 -1.66699 -5 -5 -5h-13c-17.333 0 -39.333 -3.33301 -66 -10s-52.667 -15 -78 -25s-47 -21 -65 -33
s-27 -23.667 -27 -35c0 -6.66699 2.5 -12.334 7.5 -17.001s11.167 -8.33398 18.5 -11.001s15 -4.5 23 -5.5s15 -1.5 21 -1.5c72.667 0 136.334 10.333 191.001 31s100.334 47.334 137.001 80.001s64.334 68.667 83.001 108s28 77.666 28 114.999
c0 25.333 -4.33301 49.166 -13 71.499s-21.5 42 -38.5 59s-38.5 30.333 -64.5 40s-56.333 14.5 -91 14.5c-22 0 -44 -4.5 -66 -13.5s-42.833 -19 -62.5 -30l-53.5 -30.5c-16 -9.33301 -29.333 -14 -40 -14c-9.33301 0 -14.833 3.83301 -16.5 11.5s-2.5 14.5 -2.5 20.5
c0 5.33301 2.66699 15.333 8 30s11 33.667 17 57s11.667 50.833 17 82.5s8 67.5 8 107.5v29c0 10 -0.666992 20.333 -2 31c1.33301 0.666992 3 1.66699 5 3c3.33301 2 7 3 11 3c0.666992 0 6 -0.5 16 -1.5s23 -2 39 -3s34.5 -2 55.5 -3s42.833 -1.5 65.5 -1.5
c20 0 40.167 0.5 60.5 1.5s39.333 2.83301 57 5.5s33.834 6.33398 48.501 11.001s26.667 10.667 36 18c4.66699 2.66699 8.33398 4 11.001 4s4.66699 -1.33301 6 -4c0.666992 -1.33301 1 -3 1 -5c-6 -11.333 -16.333 -21.333 -31 -30
c-12.667 -7.33301 -30.167 -14.5 -52.5 -21.5s-52.5 -11.167 -90.5 -12.5c-8.66699 -0.666992 -19 -1.33398 -31 -2.00098c-10 -0.666992 -21.833 -1.16699 -35.5 -1.5s-28.5 -0.5 -44.5 -0.5h-23c-6.66699 0 -13.167 0.333008 -19.5 1s-13 1.33398 -20 2.00098
s-15.5 1.33398 -25.5 2.00098c-6 -0.666992 -9.83301 -2.5 -11.5 -5.5s-2.5 -8.16699 -2.5 -15.5c0 -5.33301 0.166992 -11.833 0.5 -19.5s0.5 -17.167 0.5 -28.5c0 -22.667 -2.66699 -51.834 -8 -87.501s-18 -80.167 -38 -133.5c0 -1.33301 0.333008 -2.66602 1 -3.99902
c2 -3.33301 5.66699 -5 11 -5c8 1.33301 20.5 6 37.5 14l57 26c21 9.33301 43.167 17.833 66.5 25.5s45.333 11.5 66 11.5c40.667 0 75.667 -4.83301 105 -14.5s53.5 -22.667 72.5 -39s33.167 -35.666 42.5 -57.999s14 -46.166 14 -71.499z" />
    <glyph glyph-name="six" unicode="6" horiz-adv-x="652" 
d="M617 264c0 -36 -5.83984 -71.6729 -17.5068 -107.006s-28.5 -67.166 -50.5 -95.499s-49.167 -51.333 -81.5 -69s-69.166 -26.5 -110.499 -26.5c-52.667 0 -98.5 10.5 -137.5 31.5s-71 49 -96 84s-43.667 75.167 -56 120.5s-18.5 92.333 -18.5 141
c0 56.667 8 113.167 24 169.5s39.167 107 69.5 152s67.666 81.5 111.999 109.5s94.833 42 151.5 42c32.667 0 59.334 -5.5 80.001 -16.5s37 -24.167 49 -39.5s20.167 -31 24.5 -47s6.5 -29 6.5 -39c0 -2.66699 -0.166992 -5.66699 -0.5 -9s-2.16602 -5 -5.49902 -5
c-2.66699 0 -4.66699 0.333008 -6 1s-2.33301 1 -3 1c-5.33301 1.33301 -9.16602 9.16602 -11.499 23.499s-7.66602 30 -15.999 47s-21.833 32.333 -40.5 46s-47 20.5 -85 20.5c-50.667 0 -95 -11.833 -133 -35.5s-69.667 -54.667 -95 -93s-44.166 -82.166 -56.499 -131.499
s-18.5 -99.666 -18.5 -150.999c0 -50.667 6 -100.167 18 -148.5s30 -91.333 54 -129s53.833 -68 89.5 -91s76.834 -34.5 123.501 -34.5c32 0 59.833 7 83.5 21s43.5 32.333 59.5 55s27.833 48.667 35.5 78s11.5 59.333 11.5 90c0 41.333 -5 76.833 -15 106.5
s-23.333 54.334 -40 74.001s-35.334 34.167 -56.001 43.5s-42 14 -64 14c-21.333 0 -42.166 -4.33301 -62.499 -13s-38.5 -21.5 -54.5 -38.5s-28.833 -37.833 -38.5 -62.5s-14.5 -53 -14.5 -85c0 -7.33301 -1.83301 -13.333 -5.5 -18s-7.16699 -7 -10.5 -7
c-4 0 -6 3.33301 -6 10c0 38.667 6.83301 73.5 20.5 104.5s31.334 57.333 53.001 79s46.167 38.334 73.5 50.001s55 17.5 83 17.5c24 0 47 -4.66699 69 -14s41.5 -23.666 58.5 -42.999s30.667 -44.166 41 -74.499s15.5 -66.5 15.5 -108.5z" />
    <glyph glyph-name="seven" unicode="7" horiz-adv-x="493" 
d="M612 805c0 -4 -5.16797 -9.16309 -15.501 -15.4961s-25 -13.333 -44 -21s-41.833 -15.5 -68.5 -23.5s-56.667 -15.667 -90 -23c-18 -22.667 -34.167 -49.667 -48.5 -81s-26.666 -65 -36.999 -101s-19 -73.5 -26 -112.5s-12.5 -78.167 -16.5 -117.5
c34 5.33301 66.167 10 96.5 14s55.166 6 74.499 6c7.33301 0 11 -2 11 -6c-2 -7.33301 -4.83301 -11.833 -8.5 -13.5s-10.167 -3.16699 -19.5 -4.5l-69 -6c-24 -2 -53 -6 -87 -12c-2.66699 -25.333 -4.33398 -50.5 -5.00098 -75.5s-1 -49.167 -1 -72.5
c0 -21.333 0.333008 -41.833 1 -61.5s1.66699 -38.167 3 -55.5c0.666992 -5.33301 1.16699 -11 1.5 -17s0.5 -10.667 0.5 -14c0 -6.66699 -2.66699 -11.667 -8 -15s-10.666 -5 -15.999 -5c-8 0 -13 4.66699 -15 14c-1.33301 17.333 -2.66602 38.333 -3.99902 63s-2 52 -2 82
c0 23.333 0.333008 47.333 1 72s2.33398 50.334 5.00098 77.001c-19.333 -3.33301 -40 -7.5 -62 -12.5l-73 -16.5c-4.66699 0 -8.16699 0.666992 -10.5 2s-4.16602 2.66602 -5.49902 3.99902c-2 2 -3 4 -3 6s1 4 3 6c1.33301 1.33301 3.5 2.83301 6.5 4.5
s7.16699 3.16699 12.5 4.5c15.333 3.33301 34.666 7.16602 57.999 11.499l76 13.5c4 38 9.66699 76.5 17 115.5s17 76.667 29 113s26.667 70.5 44 102.5s38 60.333 62 85c-38 -7.33301 -79 -13.5 -123 -18.5s-89.333 -7.5 -136 -7.5c-32 0 -57.333 2.16699 -76 6.5
s-32.834 9.66602 -42.501 15.999s-16 13.166 -19 20.499s-4.5 13.666 -4.5 18.999c0 13.333 4.5 22.833 13.5 28.5s16.833 8.5 23.5 8.5s10 -4 10 -12c0 -12.667 4 -22.667 12 -30s18 -12.666 30 -15.999s25.333 -5.5 40 -6.5s29 -1.5 43 -1.5c66 0 118 0.833008 156 2.5
s68 4.16699 90 7.5c26 23.333 55.667 41.666 89 54.999s71.333 20 114 20c8 0 12.333 -2 13 -6z" />
    <glyph glyph-name="eight" unicode="8" horiz-adv-x="649" 
d="M609 210c0 -39.333 -10.6641 -73.8311 -31.9971 -103.498s-49 -54.5 -83 -74.5s-71.833 -35 -113.5 -45s-82.834 -15 -123.501 -15c-30.667 0 -60 2.83301 -88 8.5s-52.5 14.334 -73.5 26.001s-37.667 26.334 -50 44.001s-18.5 38.5 -18.5 62.5
c0 43.333 9 82.166 27 116.499s40.5 65.833 67.5 94.5s56.167 54.834 87.5 78.501l87 66.5c-18.667 12.667 -36.334 25.834 -53.001 39.501s-31.167 27.834 -43.5 42.501s-22 30.167 -29 46.5s-10.5 33.5 -10.5 51.5c0 25.333 5.33301 48.166 16 68.499s24.667 37.5 42 51.5
s36.666 24.667 57.999 32s43 11 65 11c26 0 49 -3.83301 69 -11.5s37 -18 51 -31s24.667 -27.833 32 -44.5s11 -33.667 11 -51c0 -14 -2.33301 -27.333 -7 -40s-10 -23.5 -16 -32.5s-11.833 -16.167 -17.5 -21.5s-9.83398 -8 -12.501 -8c-3.33301 0 -5 1.66699 -5 5
s2.66699 8.33301 8 15c15.333 17.333 23 39.666 23 66.999c0 15.333 -3 30.666 -9 45.999s-15.333 29.166 -28 41.499s-28.834 22.333 -48.501 30s-43.167 11.5 -70.5 11.5c-15.333 0 -30.5 -2.83301 -45.5 -8.5s-28.5 -13.834 -40.5 -24.501s-21.667 -23.5 -29 -38.5
s-11 -31.833 -11 -50.5c0 -16.667 3.5 -32.5 10.5 -47.5s16.667 -29.333 29 -43s26.833 -26.834 43.5 -39.501s34.334 -25 53.001 -37c16.667 14.667 30 29.167 40 43.5s15 29.166 15 44.499c0 12.667 -2.66699 22 -8 28s-11.666 9 -18.999 9c-6.66699 0 -10 1.66699 -10 5
c0 5.33301 3 8 9 8c2.66699 0 6.5 -0.5 11.5 -1.5s10.167 -3.5 15.5 -7.5s10 -10 14 -18s6 -19 6 -33c0 -17.333 -5 -33.333 -15 -48s-22.667 -29 -38 -43l89.5 -55c30.333 -19.333 58 -40 83 -62s45.333 -46.167 61 -72.5s23.5 -55.166 23.5 -86.499zM580.003 200.002
c0 27.333 -8.16895 52.3301 -24.502 74.9971s-37.166 44.167 -62.499 64.5s-53.666 40 -84.999 59l-92 57.5l-75.5 -59.5c-27 -21 -52 -44.667 -75 -71s-42.167 -56.166 -57.5 -89.499s-23 -72 -23 -116c0 -22.667 4.5 -42.167 13.5 -58.5s21.333 -29.833 37 -40.5
s34 -18.5 55 -23.5s43.5 -7.5 67.5 -7.5c36 0 73 5.16699 111 15.5s72.667 24.833 104 43.5s57 40.834 77 66.501s30 53.834 30 84.501z" />
    <glyph glyph-name="nine" unicode="9" horiz-adv-x="618" 
d="M615 537c0 -18.667 -2.50488 -38.5059 -7.50488 -59.5059s-12.667 -42.333 -23 -64s-23 -42.667 -38 -63s-32.5 -39.166 -52.5 -56.499c0 -30.667 0.333008 -60.667 1 -90s1.33398 -56.166 2.00098 -80.499s1.33398 -45.333 2.00098 -63s1 -30.167 1 -37.5
c0 -5.33301 0.333008 -11 1 -17s1 -10.667 1 -14c0 -6.66699 -2.66699 -11.667 -8 -15s-10.666 -5 -15.999 -5c-8 0 -13 4.66699 -15 14c-0.666992 11.333 -1.16699 28.5 -1.5 51.5s-0.5 50.167 -0.5 81.5v72.5c0 25.667 0.666992 51.834 2 78.501
c-24.667 -16.667 -52 -29.834 -82 -39.501s-63 -14.5 -99 -14.5c-40 0 -74.833 6.66699 -104.5 20s-54.167 31 -73.5 53s-33.666 47.667 -42.999 77s-14 60 -14 92c0 41.333 7.66699 83.166 23 125.499s37.5 80.5 66.5 114.5s64.833 61.667 107.5 83s91.334 32 146.001 32
c43.333 0 78.833 -7.66699 106.5 -23s49.167 -32.333 64.5 -51c18 -22 31.333 -47 40 -75c0 -4.66699 -2.33301 -7 -7 -7c-3.33301 0 -5.66602 0.333008 -6.99902 1s-2.66602 1 -3.99902 1c-4 0.666992 -7.5 4.66699 -10.5 12s-6.83301 16 -11.5 26s-10.667 20.833 -18 32.5
s-17.666 22.334 -30.999 32.001s-30.5 17.834 -51.5 24.501s-47.167 10 -78.5 10c-46 0 -86.667 -9.83301 -122 -29.5s-64.833 -45.167 -88.5 -76.5s-41.667 -66.5 -54 -105.5s-18.5 -77.833 -18.5 -116.5c0 -31.333 4.16699 -61.333 12.5 -90s20.666 -54 36.999 -76
s37.166 -39.5 62.499 -52.5s55 -19.5 89 -19.5c33.333 0 63.5 4.83301 90.5 14.5s51.5 22.834 73.5 39.501c2 42.667 4.66699 84.834 8 126.501s8.33301 78.834 15 111.501s14.667 59.167 24 79.5s21 30.5 35 30.5c23.333 0 40.666 -8.83301 51.999 -26.5s17 -40.5 17 -68.5
zM594.995 540.994c0 22.667 -3.66699 41.1641 -11 55.4971s-18.666 21.5 -33.999 21.5c-10.667 0 -19.667 -9 -27 -27s-13 -41.333 -17 -70s-7 -61.334 -9 -98.001s-3 -74 -3 -112c17.333 16.667 32.166 34.834 44.499 54.501s22.833 39.834 31.5 60.501
s15 40.834 19 60.501s6 37.834 6 54.501z" />
    <glyph glyph-name="colon" unicode=":" horiz-adv-x="256" 
d="M99 255c0 -8.66699 -2 -17.3311 -6 -25.998s-11.667 -13 -23 -13c-6 0.666992 -11.333 2.66699 -16 6c-4 3.33301 -7.66699 7.66602 -11 12.999s-5 12.666 -5 21.999s2.33301 18 7 26s12 12 22 12c13.333 0 22 -3.83301 26 -11.5s6 -17.167 6 -28.5zM106 24.0029
c0 -8.66699 -2 -17.3311 -6 -25.998s-11.667 -13 -23 -13c-6 0.666992 -11.333 2.66699 -16 6c-4 3.33301 -7.66699 7.66602 -11 12.999s-5 12.666 -5 21.999s2.33301 18 7 26s12 12 22 12c13.333 0 22 -3.83301 26 -11.5s6 -17.167 6 -28.5z" />
    <glyph glyph-name="semicolon" unicode=";" horiz-adv-x="256" 
d="M109 255c0 -8.66699 -2 -17.3311 -6 -25.998s-11.667 -13 -23 -13c-6 0.666992 -11.333 2.66699 -16 6c-4 3.33301 -7.66699 7.66602 -11 12.999s-5 12.666 -5 21.999s2.33301 18 7 26s12 12 22 12c13.333 0 22 -3.83301 26 -11.5s6 -17.167 6 -28.5zM111 23.0029
c0 -19.333 -2.99902 -36.998 -8.99902 -52.998s-13.667 -30 -23 -42s-19.333 -21.333 -30 -28s-20.667 -10 -30 -10c-2 0 -3 1.66699 -3 5c0 2 0.333008 3 1 3c14 4 25.167 10 33.5 18s14.666 16.167 18.999 24.5s7.33301 16.5 9 24.5s2.5 14.667 2.5 20h-2
c-6 0.666992 -11.333 2.66699 -16 6c-4 3.33301 -7.66699 7.66602 -11 12.999s-5 12.666 -5 21.999s2.33301 18 7 26s12 12 22 12c13.333 0 22.5 -4 27.5 -12s7.5 -17.667 7.5 -29z" />
    <glyph glyph-name="less" unicode="&#x3c;" horiz-adv-x="530" 
d="M461 108c0 -6 -3.66602 -9 -10.999 -9c-3.33301 0 -6 0.333008 -8 1c-3.33301 1.33301 -15.833 5.83301 -37.5 13.5l-79 29l-99 38.5c-35 14 -67.333 28 -97 42s-54.334 27.167 -74.001 39.5s-29.5 22.833 -29.5 31.5c0 5.33301 1.66699 10 5 14
s6.66602 7.33301 9.99902 10c18.667 12.667 42.834 25.334 72.501 38.001s62.334 25.167 98.001 37.5s73 24.166 112 35.499s77.167 21.333 114.5 30c2.66699 0 5.16699 -0.833008 7.5 -2.5s3.5 -5.5 3.5 -11.5c0 -9.33301 -2.83301 -14.5 -8.5 -15.5
s-11.834 -2.16699 -18.501 -3.5c-30 -6.66699 -60.667 -14.334 -92 -23.001s-62.333 -18.167 -93 -28.5s-59.667 -21.5 -87 -33.5s-52 -25 -74 -39c-5.33301 -2 -8 -5 -8 -9c0 -2 8 -7.16699 24 -15.5s36.167 -18 60.5 -29l81 -35.5l85 -35.5
c27 -11 51.167 -20.333 72.5 -28s36 -12.5 44 -14.5c7.33301 -2 13.5 -5.66699 18.5 -11s7.5 -10.666 7.5 -15.999z" />
    <glyph glyph-name="equal" unicode="=" horiz-adv-x="502" 
d="M452 336c0 -4.66699 -1.66699 -7.00781 -5 -7.00781c-4.66699 1.33301 -13.5 2.33301 -26.5 3s-27.167 1 -42.5 1c-44 0 -84.333 -0.166992 -121 -0.5s-68.334 -1.16602 -95.001 -2.49902c-31.333 -1.33301 -59.333 -2.66602 -84 -3.99902
c-2.66699 0.666992 -5 2.33398 -7 5.00098s-3 5.33398 -3 8.00098c0 4.66699 2.33301 7 7 7c8 0.666992 20.333 1.33398 37 2.00098s35.667 1.33398 57 2.00098s44 1.33398 68 2.00098s47.5 1.16699 70.5 1.5s44.5 0.5 64.5 0.5h50c6.66699 0 13.334 -0.666992 20.001 -2
s10 -6.66602 10 -15.999zM452 235.992c0 -4.66699 -1.66699 -7.00781 -5 -7.00781c-4.66699 1.33301 -13.5 2.33301 -26.5 3s-27.167 1 -42.5 1c-44 0 -84.333 -0.166992 -121 -0.5s-68.334 -1.16602 -95.001 -2.49902c-31.333 -1.33301 -59.333 -2.66602 -84 -3.99902
c-2.66699 0.666992 -5 2.33398 -7 5.00098s-3 5.33398 -3 8.00098c0 4.66699 2.33301 7 7 7c8 0.666992 20.333 1.33398 37 2.00098s35.667 1.33398 57 2.00098s44 1.33398 68 2.00098s47.5 1.16699 70.5 1.5s44.5 0.5 64.5 0.5h50c6.66699 0 13.334 -0.666992 20.001 -2
s10 -6.66602 10 -15.999z" />
    <glyph glyph-name="greater" unicode="&#x3e;" horiz-adv-x="530" 
d="M494 296c0 -8 -10 -18.3311 -30 -30.998s-45.333 -26.334 -76 -41.001s-63.834 -29.167 -99.501 -43.5l-100.5 -39.5c-31.333 -12 -58.166 -21.667 -80.499 -29s-34.833 -11 -37.5 -11c-7.33301 0 -11 3 -11 9c0 5.33301 2.5 10.666 7.5 15.999s11.167 9 18.5 11
c8 2 22.667 6.83301 44 14.5s45.5 17 72.5 28l85 35.5l81 35.5c24.333 11 44.5 20.667 60.5 29s24 13.5 24 15.5c0 5.33301 -6.83301 12 -20.5 20s-31.167 16.5 -52.5 25.5s-45.5 18.167 -72.5 27.5l-79.5 26.5c-26 8.33301 -50.5 15.5 -73.5 21.5s-41.5 10 -55.5 12
c-6.66699 1.33301 -12.834 2.5 -18.501 3.5s-8.5 6.16699 -8.5 15.5c0 6 1.16699 9.83301 3.5 11.5s4.83301 2.5 7.5 2.5c37.333 -8.66699 75.5 -18.667 114.5 -30s76.333 -23.166 112 -35.499s68.334 -24.833 98.001 -37.5s53.834 -25.334 72.501 -38.001
c3.33301 -2.66699 6.66602 -6 9.99902 -10s5 -8.66699 5 -14z" />
    <glyph glyph-name="question" unicode="?" horiz-adv-x="390" 
d="M388 650c0 -26 -6.33008 -51.502 -18.9971 -76.502s-28.334 -49.5 -47.001 -73.5s-39.167 -47.333 -61.5 -70s-42.833 -45.167 -61.5 -67.5s-34.334 -44.5 -47.001 -66.5s-19 -44 -19 -66c0 -28.667 8 -49.334 24 -62.001s35.667 -19 59 -19c6.66699 0 10 -3 10 -9
c0 -2.66699 -1.66699 -5.16699 -5 -7.5s-8.66602 -3.5 -15.999 -3.5c-35.333 0 -61.666 7.5 -78.999 22.5s-26 36.5 -26 64.5c0 22.667 6.16699 45.167 18.5 67.5s27.666 44.666 45.999 66.999s38 44.833 59 67.5s40.667 45.334 59 68.001s33.5 45.5 45.5 68.5
s18 46.5 18 70.5c0 26.667 -4 49.334 -12 68.001s-18.667 33.834 -32 45.501s-28.5 20.167 -45.5 25.5s-34.5 8 -52.5 8c-26.667 0 -54 -5.33301 -82 -16s-53.5 -25.167 -76.5 -43.5s-42 -39.833 -57 -64.5s-22.5 -51 -22.5 -79c0 -44 8.16699 -76.5 24.5 -97.5
s35.166 -31.5 56.499 -31.5c19.333 0 38.833 8.16699 58.5 24.5s35.5 40.5 47.5 72.5c3.33301 8 8.33301 12 15 12c5.33301 0 8 -3 8 -9c0 -3.33301 -0.666992 -6.33301 -2 -9c-16.667 -36 -37.834 -62.833 -63.501 -80.5s-51.167 -26.5 -76.5 -26.5
c-28 0 -52.5 10.833 -73.5 32.5s-31.5 54.167 -31.5 97.5c0 37.333 9 70.5 27 99.5s41 53.833 69 74.5s59.167 36.334 93.5 47.001s67.833 16 100.5 16c22.667 0 44.167 -2.83301 64.5 -8.5s38.333 -14.167 54 -25.5s28 -26 37 -44s13.5 -39 13.5 -63zM146.003 23.998
c0 -8.66699 -2 -17.3311 -6 -25.998s-11.667 -13 -23 -13c-6 0.666992 -11.333 2.66699 -16 6c-4 3.33301 -7.66699 7.66602 -11 12.999s-5 12.666 -5 21.999s2.33301 18 7 26s12 12 22 12c13.333 0 22 -3.83301 26 -11.5s6 -17.167 6 -28.5z" />
    <glyph glyph-name="at" unicode="@" horiz-adv-x="808" 
d="M721 220c0 -28 -4.83301 -55.6611 -14.5 -82.9941s-23.834 -51.5 -42.501 -72.5s-41.5 -38 -68.5 -51s-57.5 -19.5 -91.5 -19.5c-38 0 -67 18 -87 54c-23.333 -23.333 -49.5 -41 -78.5 -53s-57.5 -18 -85.5 -18c-16.667 0 -32.5 2.33301 -47.5 7s-28 11.834 -39 21.501
s-19.833 22 -26.5 37s-10 32.5 -10 52.5c0 24 5.5 48.5 16.5 73.5s26.333 47.667 46 68s42.834 37.166 69.501 50.499s55.667 20 87 20c25.333 0 45 -3.5 59 -10.5s21 -13.5 21 -19.5c0 -2.66699 -1.33301 -4.66699 -4 -6s-5 -2 -7 -2
c-0.666992 0.666992 -1.33398 1 -2.00098 1h-1c-8 7.33301 -17 13.166 -27 17.499s-24.667 6.5 -44 6.5c-26 0 -49.5 -5.5 -70.5 -16.5s-38.833 -25.333 -53.5 -43s-26 -37.167 -34 -58.5s-12 -42.333 -12 -63c0 -40 9.5 -69 28.5 -87s42.167 -27 69.5 -27
c22.667 0 46.334 5.66699 71.001 17s46.667 27.333 66 48c-5.33301 12.667 -9.33301 26.667 -12 42s-4 32.666 -4 51.999c0 25.333 4.66699 47.333 14 66s22.666 28 39.999 28c24 0 36 -14 36 -42s-4.16699 -53.333 -12.5 -76s-19.166 -43 -32.499 -61
c20.667 -38.667 48.334 -58 83.001 -58c24.667 0 46.5 5.16699 65.5 15.5s35 24.166 48 41.499s23 37.166 30 59.499s10.5 45.5 10.5 69.5c0 28 -5 56.167 -15 84.5s-25.333 53.666 -46 75.999s-47.167 40.5 -79.5 54.5s-70.833 21 -115.5 21
c-68 0 -127.5 -10.167 -178.5 -30.5s-93.5 -46.833 -127.5 -79.5s-59.5 -69.5 -76.5 -110.5s-25.5 -82.167 -25.5 -123.5c0 -35.333 6.33301 -69.5 19 -102.5s31.5 -62.167 56.5 -87.5s56.333 -45.5 94 -60.5s81.834 -22.5 132.501 -22.5c19.333 0 36.166 2.33301 50.499 7
s26.5 10 36.5 16s18 11.833 24 17.5s9.66699 9.5 11 11.5c4.66699 5.33301 9 8 13 8c4.66699 0 7 -2.33301 7 -7c0 -2.66699 -1.66699 -6.33398 -5 -11.001c-9.33301 -12 -20.833 -21.833 -34.5 -29.5s-28 -13.5 -43 -17.5s-29.667 -6.83301 -44 -8.5s-26.5 -2.5 -36.5 -2.5
c-54.667 0 -102.834 7.66699 -144.501 23s-76.167 36 -103.5 62s-48 56 -62 90s-21 69.333 -21 106c0 44 10 88 30 132s50.167 83.5 90.5 118.5s90.666 63.5 150.999 85.5s130.833 33 211.5 33c48 0 89.5 -6.66699 124.5 -20s63.833 -31 86.5 -53s39.334 -47 50.001 -75
s16 -56.667 16 -86zM467 204.006c0 10 -1.66797 18.168 -5.00098 24.501s-8.66602 9.5 -15.999 9.5c-11.333 0 -20 -5.5 -26 -16.5s-8.66699 -24.833 -8 -41.5c1.33301 -18 3.5 -34.5 6.5 -49.5s6.83301 -28.5 11.5 -40.5c11.333 16 20.333 33.667 27 53
s10 39.666 10 60.999z" />
    <glyph glyph-name="A" unicode="A" horiz-adv-x="863" 
d="M863 14c0 -4 -2.83203 -7.83301 -8.49902 -11.5s-12.834 -6.66699 -21.501 -9s-18.167 -4.33301 -28.5 -6s-20.5 -2.5 -30.5 -2.5c-40 0 -74.5 9.5 -103.5 28.5s-53.167 43.833 -72.5 74.5c-32.667 -39.333 -71.667 -71.666 -117 -96.999s-97.666 -38 -156.999 -38
c-56 0 -104.167 9 -144.5 27s-73.833 42 -100.5 72s-46.334 64.833 -59.001 104.5s-19 81.167 -19 124.5c0 56.667 10.5 114 31.5 172s51.333 110.5 91 157.5s88.334 85.333 146.001 115s123.5 44.5 197.5 44.5c29.333 0 56.333 -4.33301 81 -13s46 -20.5 64 -35.5
s32 -32.667 42 -53s15 -42.166 15 -65.499c0 -4.66699 -1 -8.33398 -3 -11.001s-4 -4 -6 -4c-4 0 -6 4 -6 12c-2 30 -10.667 54.667 -26 74s-33.166 34.5 -53.499 45.5s-41 18.667 -62 23s-38.5 6.5 -52.5 6.5c-67.333 0 -126.5 -13 -177.5 -39s-93.5 -59.667 -127.5 -101
s-59.667 -88.166 -77 -140.499s-26 -104.5 -26 -156.5c0 -44 6.16699 -86.5 18.5 -127.5s31 -77.333 56 -109s56 -56.834 93 -75.501s80.5 -28 130.5 -28c52 0 97.667 12.333 137 37s73.333 56 102 94c-18 32 -31.167 67.167 -39.5 105.5s-12.5 76.5 -12.5 114.5
c0 29.333 2.5 57.166 7.5 83.499s12.167 49.5 21.5 69.5s20.666 36 33.999 48s28.666 18 45.999 18c24 0 42.167 -12 54.5 -36s18.5 -55 18.5 -93c0 -21.333 -2 -44 -6 -68s-9.83301 -48.5 -17.5 -73.5s-17.334 -50 -29.001 -75s-25.5 -49.167 -41.5 -72.5
c19.333 -35.333 43.5 -64.333 72.5 -87s62.5 -34 100.5 -34c16.667 0 29.334 3 38.001 9s14.667 9 18 9c6 0 9 -2.33301 9 -7zM692.001 404c0 32 -4.49902 58.167 -13.499 78.5s-22.833 30.5 -41.5 30.5c-12 0 -22.667 -3.83301 -32 -11.5s-17 -18 -23 -31
s-10.5 -28.333 -13.5 -46s-4.5 -36.834 -4.5 -57.501c0 -36 4.16699 -73.667 12.5 -113s21.166 -76.333 38.499 -111c25.333 42.667 44.5 87.334 57.5 134.001s19.5 89 19.5 127z" />
    <glyph glyph-name="B" unicode="B" horiz-adv-x="990" 
d="M340 44c0 -9.33301 -0.666016 -16.001 -1.99902 -20.001s-5 -6 -11 -6c-13.333 -1.33301 -20 12 -20 40c-0.666992 92 -1.33398 176 -2.00098 252s-1.5 141.833 -2.5 197.5s-2 99.834 -3 132.501s-1.5 51.334 -1.5 56.001c0 5.33301 1.66699 9 5 11s7.33301 3.66699 12 5
c5.33301 0 9.5 -1.66699 12.5 -5s4.5 -7.33301 4.5 -12c0 -52.667 0.5 -107.334 1.5 -164.001l3 -169c1 -56 1.83301 -111 2.5 -165s1 -105 1 -153zM870.001 306.999c0 -32.667 -9.16113 -67.9893 -27.4941 -105.989s-43.5 -75.667 -75.5 -113s-70 -73.333 -114 -108
s-91.333 -65.334 -142 -92.001s-104 -47.834 -160 -63.501s-112 -23.5 -168 -23.5c-8.66699 0 -18.667 0.333008 -30 1s-21.666 2.16699 -30.999 4.5s-17.333 6 -24 11s-10 11.833 -10 20.5c0 12 6 23.5 18 34.5s27.333 21.167 46 30.5s39 17.666 61 24.999
s43.167 13.666 63.5 18.999s38.166 9.5 53.499 12.5s25.666 4.5 30.999 4.5c4 0 7 -1 9 -3s3 -4 3 -6c0 -3.33301 -1.66699 -5 -5 -5h-13c-17.333 0 -39.333 -3.33301 -66 -10s-52.667 -15 -78 -25s-47 -21 -65 -33s-27 -23.667 -27 -35c0 -6.66699 2.5 -12.334 7.5 -17.001
s11.167 -8.33398 18.5 -11.001s15 -4.5 23 -5.5s15 -1.5 21 -1.5c47.333 0 95.833 8 145.5 24s98 37.167 145 63.5s91.333 56.666 133 90.999s78 70 109 107s55.667 74.167 74 111.5s27.5 71.666 27.5 102.999c0 39.333 -16.167 72.166 -48.5 98.499s-85.5 41.5 -159.5 45.5
c-30 -28 -62.833 -50.667 -98.5 -68s-71.834 -26 -108.501 -26c-26 0 -39 6.33301 -39 19c0 8 5.5 17.167 16.5 27.5s26.333 20.166 46 29.499s43.167 17.166 70.5 23.499s57.333 9.5 90 9.5h12c22 26 39.667 54.5 53 85.5s20 61.5 20 91.5c0 20 -3.5 39.167 -10.5 57.5
s-18.333 34.166 -34 47.499s-36 24 -61 32s-55.167 12 -90.5 12c-18 0 -41.333 -1.83301 -70 -5.5s-60.334 -9.33398 -95.001 -17.001s-71 -17.334 -109 -29.001s-75.5 -25.167 -112.5 -40.5s-72.167 -32.666 -105.5 -51.999s-62.833 -40.666 -88.5 -63.999
s-46 -48.666 -61 -75.999s-22.5 -56.666 -22.5 -87.999c0 -5.33301 -1 -9.83301 -3 -13.5s-4 -5.5 -6 -5.5c-2.66699 0 -4.83398 2.83301 -6.50098 8.5s-2.5 15.167 -2.5 28.5c6 43.333 23.667 82.666 53 117.999s65.5 66.833 108.5 94.5s90.333 51.5 142 71.5
s102.5 36.5 152.5 49.5s97 22.667 141 29s79.667 9.5 107 9.5c40.667 0 75.167 -3.83301 103.5 -11.5s51.5 -18 69.5 -31s31 -28.5 39 -46.5s12 -37 12 -57c0 -32.667 -9 -66.5 -27 -101.5s-41.667 -67.5 -71 -97.5c43.333 -2 80.166 -7.5 110.499 -16.5
s55.166 -20.667 74.499 -35s33.5 -31 42.5 -50s13.5 -39.5 13.5 -61.5zM579.007 457.01c-24.667 0 -48.167 -2.66797 -70.5 -8.00098s-42 -11.666 -59 -18.999s-30.667 -15 -41 -23s-15.5 -15 -15.5 -21c0 -8 9.33301 -12 28 -12c32 0 62.5 7.66699 91.5 23
s55.167 35.333 78.5 60h-12z" />
    <glyph glyph-name="C" unicode="C" horiz-adv-x="778" 
d="M760 143c-4 -12 -14.334 -27.4971 -31.001 -46.4971s-39.167 -37.167 -67.5 -54.5s-62.333 -32.333 -102 -45s-84.5 -19 -134.5 -19c-72 0 -134.333 11 -187 33s-96 51 -130 87s-59.333 77 -76 123s-25 93 -25 141c0 50 8.5 99.167 25.5 147.5s41.833 91.5 74.5 129.5
s73 68.667 121 92s102.667 35 164 35c23.333 0 44 -2.66699 62 -8s34 -12.666 48 -21.999c6 32.667 15.667 58 29 76c3.33301 5.33301 7 8 11 8c2.66699 0 4 -1.66699 4 -5c0 -2 -1 -5 -3 -9c-6.66699 -9.33301 -12.167 -20.833 -16.5 -34.5s-8.16602 -28.5 -11.499 -44.5
c12 -9.33301 22 -20 30 -32s14.667 -24.333 20 -37s9.16602 -25.5 11.499 -38.5s3.5 -25.5 3.5 -37.5c0 -22 -3.33301 -40.5 -10 -55.5s-15.334 -22.5 -26.001 -22.5c-8.66699 0 -16.334 3.66699 -23.001 11s-12.167 17.166 -16.5 29.499s-7.5 26.5 -9.5 42.5s-3 33 -3 51
c0 12 0.333008 24.167 1 36.5s2 24.166 4 35.499c-13.333 12 -29.666 21.667 -48.999 29s-42 11 -68 11c-50.667 0 -96 -10.833 -136 -32.5s-73.667 -50.334 -101 -86.001s-48.166 -76.334 -62.499 -122.001s-21.5 -92.167 -21.5 -139.5s7.33301 -93.5 22 -138.5
s37.5 -85.167 68.5 -120.5s70.333 -63.833 118 -85.5s104.167 -32.5 169.5 -32.5c17.333 0 39.833 2.33301 67.5 7s56.5 12.667 86.5 24s58.833 26.833 86.5 46.5s49.834 44.5 66.501 74.5c1.33301 2.66699 3 5.16699 5 7.5s4 3.5 6 3.5c3.33301 0 5 -4.33301 5 -13z
M555.999 576.003c0 17.333 -3.33203 37 -9.99902 59s-18.334 42.333 -35.001 61c-2 -18 -3 -36.333 -3 -55c0 -28.667 2.83301 -53.5 8.5 -74.5s14.167 -31.5 25.5 -31.5c4 0 7.33301 3.83301 10 11.5s4 17.5 4 29.5z" />
    <glyph glyph-name="D" unicode="D" horiz-adv-x="916" 
d="M409 128c0 -16 -2 -27.001 -6 -33.001s-8.66699 -9 -14 -9c-4 1.33301 -7.16699 3.5 -9.5 6.5s-3.5 8.16699 -3.5 15.5l-9 613c0 9.33301 2.16699 14.833 6.5 16.5s8.83301 2.5 13.5 2.5c10 0 15 -6 15 -18c0 -13.333 0.166992 -35 0.5 -65s0.833008 -64.167 1.5 -102.5
s1.16699 -79.166 1.5 -122.499s0.833008 -84.833 1.5 -124.5s1.16699 -75.5 1.5 -107.5s0.5 -56 0.5 -72zM931 566.999c0 -46 -12.3359 -95.1602 -37.0029 -147.493s-57.5 -104.333 -98.5 -156s-88 -101 -141 -148s-107.667 -88.5 -164 -124.5s-112.333 -64.667 -168 -86
s-106.5 -32 -152.5 -32c-14 0 -27.5 2.33301 -40.5 7s-19.5 15.334 -19.5 32.001c0 15.333 5.33301 29.166 16 41.499s24.334 23.666 41.001 33.999s35.834 19.333 57.501 27s43.167 14.167 64.5 19.5s42 9.66602 62 12.999s37 5.33301 51 6c8 0 12 -2.33301 12 -7
c0 -2.66699 -2.33301 -4.33398 -7 -5.00098c-2 0 -10 -0.833008 -24 -2.5s-31.167 -4.33398 -51.5 -8.00098s-41.833 -8.66699 -64.5 -15s-43.834 -14 -63.501 -23s-35.834 -19.833 -48.501 -32.5s-19 -27 -19 -43c0 -10 4.33301 -17.333 13 -22s19.667 -7 33 -7
c43.333 0 90.5 10.333 141.5 31s102.333 48.5 154 83.5s101.667 75.5 150 121.5s91.166 94 128.499 144s67.333 100.5 90 151.5s34 98.833 34 143.5c0 33.333 -7.16699 64.333 -21.5 93s-37.666 53.5 -69.999 74.5s-74.166 37.5 -125.499 49.5s-114 18 -188 18
c-24.667 0 -56.5 -2.33301 -95.5 -7s-80.5 -12.167 -124.5 -22.5s-88.5 -23.5 -133.5 -39.5s-85.5 -35.333 -121.5 -58s-65.333 -48.667 -88 -78s-34 -62.333 -34 -99c0 -8.66699 1.33301 -16 4 -22s5.66699 -11 9 -15s6.33301 -7.33301 9 -10s4 -5.33398 4 -8.00098
c0 -4 -2 -6 -6 -6c-9.33301 2 -17.666 5 -24.999 9c-6 3.33301 -11.5 8.66602 -16.5 15.999s-7.5 17 -7.5 29c0 36.667 10.667 70.167 32 100.5s49.5 57.5 84.5 81.5s74.833 44.833 119.5 62.5s90.334 32.5 137.001 44.5s92.5 20.833 137.5 26.5s84.833 8.5 119.5 8.5
c82.667 0 152.667 -6.16699 210 -18.5s104 -29.5 140 -51.5s62 -47.833 78 -77.5s24 -61.834 24 -96.501z" />
    <glyph glyph-name="E" unicode="E" horiz-adv-x="687" 
d="M686 122c-18 -26.667 -39.332 -49.8281 -63.999 -69.4951s-50.834 -35.834 -78.501 -48.501s-56.5 -22 -86.5 -28s-59.667 -9 -89 -9c-60.667 0 -114 10 -160 30s-84.333 45.667 -115 77s-53.667 66.5 -69 105.5s-23 77.833 -23 116.5c0 30 4.66699 58.667 14 86
s23.5 51.333 42.5 72s42.667 37.167 71 49.5s61.5 18.5 99.5 18.5c18.667 0 36.334 -2 53.001 -6c-1.33301 6 -2 12.333 -2 19v20c0 28 3.5 55.833 10.5 83.5s18 52.5 33 74.5s34.167 39.833 57.5 53.5s51 20.5 83 20.5c34.667 0 64 -11.5 88 -34.5s36 -54.833 36 -95.5
c0 -6 -1 -14.833 -3 -26.5s-5 -23.5 -9 -35.5s-8.83301 -22.333 -14.5 -31s-12.167 -13 -19.5 -13c-6.66699 0 -10 4.33301 -10 13c0 6 1.16699 12.667 3.5 20s5.33301 14.833 9 22.5s8 14.834 13 21.501s10.167 12 15.5 16c0.666992 4 1.16699 7.83301 1.5 11.5
s0.5 7.16699 0.5 10.5c0 21.333 -3.5 38.666 -10.5 51.999s-16 24 -27 32s-23.167 13.5 -36.5 16.5s-26.333 4.5 -39 4.5c-26.667 0 -50 -7 -70 -21s-36.5 -32.167 -49.5 -54.5s-22.667 -47.333 -29 -75s-9.5 -55.167 -9.5 -82.5v-15c0 -4.66699 0.333008 -9.66699 1 -15
c18.667 -6.66699 35.334 -15.334 50.001 -26.001s27.167 -21.667 37.5 -33s18.166 -22.833 23.499 -34.5s8 -21.834 8 -30.501c0 -16.667 -8.33301 -25 -25 -25c-15.333 0 -29.5 3.66699 -42.5 11s-24.333 17.5 -34 30.5s-17.667 28.167 -24 45.5
s-11.166 35.666 -14.499 54.999c-20 5.33301 -40.667 8 -62 8c-28.667 0 -53.834 -5.33301 -75.501 -16s-39.667 -25 -54 -43s-25 -39 -32 -63s-10.5 -49.333 -10.5 -76c0 -37.333 6.83301 -75.5 20.5 -114.5s34.167 -74.333 61.5 -106s61.166 -57.667 101.499 -78
s87.166 -30.5 140.499 -30.5c36.667 0 70.834 4.66699 102.501 14s60.5 21.5 86.5 36.5s48.5 31.667 67.5 50s33.833 36.166 44.5 53.499c2.66699 3.33301 5 5 7 5c3.33301 0 5 -6.33301 5 -19zM408.001 387.006c0 6 -1.99902 13.832 -5.99902 23.499s-10.333 19.5 -19 29.5
s-19.334 19.833 -32.001 29.5s-27.667 17.834 -45 24.501c4.66699 -34 14.667 -62.5 30 -85.5s36 -34.5 62 -34.5c6.66699 0 10 4.33301 10 13z" />
    <glyph glyph-name="F" unicode="F" horiz-adv-x="940" 
d="M939 819c0 -2.66699 -6.67188 -7.33691 -20.0049 -14.0039s-31.666 -14.334 -54.999 -23.001s-51 -18 -83 -28s-67 -20.333 -105 -31c-16.667 -23.333 -30.334 -50.5 -41.001 -81.5s-19.167 -64.333 -25.5 -100s-10.666 -73.167 -12.999 -112.5
s-3.5 -78.666 -3.5 -117.999v-40.5c0 -13.667 0.333008 -27.167 1 -40.5l95 19.5c30.667 6.33301 58.667 11.833 84 16.5s47.166 8.33398 65.499 11.001s31.5 4 39.5 4c7.33301 0 11 -2 11 -6c-2 -7.33301 -4.83301 -11.833 -8.5 -13.5s-10.167 -3.16699 -19.5 -4.5
c-8.66699 -0.666992 -21.5 -2.5 -38.5 -5.5l-60.5 -11l-77.5 -15l-89.5 -18.5c1.33301 -25.333 2.83301 -50.166 4.5 -74.499s3.33398 -46.666 5.00098 -66.999s3 -38.166 4 -53.499s1.5 -26.666 1.5 -33.999c0 -6.66699 -2.66699 -11.667 -8 -15s-10.666 -5 -15.999 -5
c-8 0 -13 4.66699 -15 14c-2.66699 54 -4.66699 99.167 -6 135.5s-2.66602 66.833 -3.99902 91.5l-101.5 -22.5l-100 -22l-91.5 -20.5l-77 -18c-4.66699 0 -8.16699 0.666992 -10.5 2s-4.16602 2.66602 -5.49902 3.99902c-2 2 -3 4 -3 6s1 4 3 6
c1.33301 1.33301 3.5 2.83301 6.5 4.5s7.16699 3.16699 12.5 4.5c10 2 27.167 5.66699 51.5 11l86.5 18.5l109 23.5l119 26c-0.666992 16.667 -1.16699 30.334 -1.5 41.001s-0.666016 19.667 -0.999023 27s-0.5 13.333 -0.5 18v13c0 84 7 159.833 21 227.5
s39.667 124.167 77 169.5c-40 -10.667 -82.167 -21 -126.5 -31s-88.666 -18.833 -132.999 -26.5s-88 -13.834 -131 -18.501s-83.5 -7 -121.5 -7c-32 0 -57.333 2.16699 -76 6.5s-32.834 9.66602 -42.501 15.999s-16 13.166 -19 20.499s-4.5 13.666 -4.5 18.999
c0 13.333 4.5 22.833 13.5 28.5s16.833 8.5 23.5 8.5s10 -4 10 -12c0 -12.667 4 -22.667 12 -30s18 -12.666 30 -15.999s25.333 -5.5 40 -6.5s29 -1.5 43 -1.5c46 0 93 2.5 141 7.5s94.5 11.333 139.5 19s87.333 16.334 127 26.001s74.5 18.834 104.5 27.501
c28 24.667 61.667 43.667 101 57s86 20 140 20c8 0 12.333 -2 13 -6z" />
    <glyph glyph-name="G" unicode="G" horiz-adv-x="703" 
d="M702 244c0 -5.33301 -5.16602 -10.9932 -15.499 -16.9932s-26.5 -16.333 -48.5 -31c-34.667 -22.667 -68.334 -47.334 -101.001 -74.001l16.5 -102l16 -99.5c5 -32.333 9.16699 -63 12.5 -92s5 -55.167 5 -78.5c0 -25.333 -1.66699 -52.833 -5 -82.5
s-8.83301 -59.667 -16.5 -90s-17.834 -59.666 -30.501 -87.999s-28 -53.333 -46 -75s-39 -39.167 -63 -52.5s-51.667 -20 -83 -20c-30 0 -55.667 5.5 -77 16.5s-38.833 26.167 -52.5 45.5s-23.667 42.666 -30 69.999s-9.5 57.333 -9.5 90
c0 49.333 10.167 99.166 30.5 149.499s46.333 99.166 78 146.499s66.834 92 105.501 134s76.334 79 113.001 111c-2.66699 19.333 -5 39 -7 59s-3.66699 40.667 -5 62c-32 -32.667 -69.5 -59.834 -112.5 -81.501s-92.167 -32.5 -147.5 -32.5c-40 0 -74.667 5.66699 -104 17
s-53.333 26.833 -72 46.5s-32.5 42.667 -41.5 69s-13.5 54.5 -13.5 84.5c0 46 9.83301 93.333 29.5 142s47.667 93.167 84 133.5s80.166 73.5 131.499 99.5s108.333 39 171 39c18.667 0 37.667 -2.83301 57 -8.5s37 -13.5 53 -23.5s29.167 -22.333 39.5 -37
s15.5 -31 15.5 -49c0 -9.33301 -0.666992 -16.333 -2 -21s-3 -8.33398 -5 -11.001c-2.66699 -2.66699 -5 -4.33398 -7 -5.00098c-3.33301 0 -4.66602 1.83301 -3.99902 5.5s-0.333008 10.167 -3 19.5c-12.667 43.333 -32.334 73 -59.001 89s-58.667 24 -96 24
c-52.667 0 -101 -12.167 -145 -36.5s-81.5 -55.333 -112.5 -93s-55.167 -79.334 -72.5 -125.001s-26 -89.834 -26 -132.501c0 -28 4 -54.5 12 -79.5s20.5 -46.833 37.5 -65.5s38.5 -33.5 64.5 -44.5s57.333 -16.5 94 -16.5c50 0 94.167 10.5 132.5 31.5s71.5 47.5 99.5 79.5
c-0.666992 10.667 -1 21.167 -1 31.5v32.5c0 38 2.5 71.833 7.5 101.5s11.5 55 19.5 76s17.5 37 28.5 48s22.5 16.5 34.5 16.5c11.333 0 20 -5.5 26 -16.5s9 -25.5 9 -43.5c0 -30 -7.66699 -65.667 -23 -107s-38.333 -82 -69 -122c2 -20 4.33301 -40.5 7 -61.5
s5.66699 -42.5 9 -64.5c15.333 13.333 30 25 44 35l38 27c8 5.33301 16 11 24 17l23.5 17c7.66699 5.33301 14.5 9.83301 20.5 13.5s10.333 5.5 13 5.5c1.33301 0 2.33301 -0.666992 3 -2s1 -2.66602 1 -3.99902zM594.001 485.007c0 15.333 -2.16797 27.166 -6.50098 35.499
s-11.166 12.5 -20.499 12.5c-11.333 0 -20.333 -5.5 -27 -16.5s-11.834 -25.333 -15.501 -43s-6.16699 -37.667 -7.5 -60s-2 -45.166 -2 -68.499c0 -10 0.333008 -20 1 -30s1.33398 -20.667 2.00098 -32c25.333 36 44.333 72.333 57 109s19 67.667 19 93zM554 -288.993
c0 32 -1.66309 63.499 -4.99609 94.499s-7.66602 62.167 -12.999 93.5l-16.5 95c-5.66699 32 -11.167 65 -16.5 99c-44 -38.667 -83.833 -79.667 -119.5 -123s-66.334 -87 -92.001 -131s-45.334 -87.667 -59.001 -131s-20.5 -84.333 -20.5 -123
c0 -29.333 2.83301 -57.333 8.5 -84s14.167 -50.5 25.5 -71.5s25.666 -37.667 42.999 -50s38 -18.5 62 -18.5c29.333 0 54.5 5.83301 75.5 17.5s39.167 27.167 54.5 46.5s27.666 41.333 36.999 66s16.666 49.834 21.999 75.501s9 51.167 11 76.5s3 48 3 68z" />
    <glyph glyph-name="H" unicode="H" horiz-adv-x="839" 
d="M838 281c0 -7.33301 -3.49707 -11.334 -10.4971 -12.001s-14.5 -1.33398 -22.5 -2.00098c-70 -4 -139.667 -10 -209 -18c1.33301 -47.333 2.33301 -90.666 3 -129.999s1 -74.666 1 -105.999c0 -8 -1.5 -16 -4.5 -24s-11.167 -12 -24.5 -12
c-2.66699 0 -5.16699 0.166992 -7.5 0.5s-5.16602 0.833008 -8.49902 1.5c-2.66699 0.666992 -10.167 2.33398 -22.5 5.00098l-47.5 10.5l-66 15l-78 18.5c-0.666992 -6 -1 -14.167 -1 -24.5s-0.5 -20.666 -1.5 -30.999s-2.5 -19.166 -4.5 -26.499s-5 -11 -9 -11
c-6 0 -11.833 1.16699 -17.5 3.5s-8.16699 6.5 -7.5 12.5c0.666992 14 1.66699 28 3 42s2.33301 28.333 3 43l-110 28c-36.667 9.33301 -69.5 18.5 -98.5 27.5s-52.5 17.5 -70.5 25.5s-27 14.667 -27 20c0 4 2.16699 7.5 6.5 10.5s8.16602 5.16699 11.499 6.5
c32 12.667 73.833 25.834 125.5 39.501s108.167 26.5 169.5 38.5v62c0 58.667 -0.666992 114 -2 166s-2.66602 98 -3.99902 138c-2 46.667 -4.33301 90.334 -7 131.001c0 5.33301 0.666992 10.666 2 15.999s4.66602 8 9.99902 8c13.333 0 21.833 -3.33301 25.5 -10
s5.5 -14.667 5.5 -24c0 -34 0.166992 -66.5 0.5 -97.5l1 -92l1 -92.5c0.333008 -31.333 0.5 -64.333 0.5 -99v-100c36 7.33301 72.5 13.833 109.5 19.5s73.833 10.834 110.5 15.501l-4 74c-1.33301 24 -2.5 49.167 -3.5 75.5s-1.83301 54.333 -2.5 84s-1 62.5 -1 98.5
c0 38.667 1.16699 71.5 3.5 98.5s3.5 42.5 3.5 46.5c0 5.33301 2 9.33301 6 12c2 1.33301 3.66699 2 5 2c7.33301 -0.666992 15 -1.66699 23 -3s12 -5 12 -11c0 -2.66699 -0.333008 -5.33398 -1 -8.00098s-1.83398 -8.83398 -3.50098 -18.501s-3.16699 -20.834 -4.5 -33.501
l-4 -39.5c-1.33301 -13.667 -2 -25.834 -2 -36.501c0 -61.333 0.166992 -120.333 0.5 -177s1.16602 -110.334 2.49902 -161.001c42 5.33301 82.167 9.33301 120.5 12s74.166 4 107.499 4c3.33301 0 6.5 -0.666992 9.5 -2s4.5 -4.33301 4.5 -9zM570.003 86.999
c0 59.333 -0.998047 112 -2.99805 158c-38.667 -4.66699 -76.5 -9.83398 -113.5 -15.501s-73.167 -12.167 -108.5 -19.5c0 -25.333 -0.333008 -51.666 -1 -78.999s-1.66699 -56.666 -3 -87.999l68 -17c22 -5.33301 42.167 -9.83301 60.5 -13.5s34.166 -6.66699 47.499 -9
s23 -3.5 29 -3.5c11.333 0 18.166 7.16699 20.499 21.5s3.5 36.166 3.5 65.499zM312.005 203.999c-52 -10.667 -99.5 -22 -142.5 -34s-78.833 -23.667 -107.5 -35c-6.66699 -2 -10 -4 -10 -6c0 -1.33301 7.33301 -4.5 22 -9.5s34 -11.167 58 -18.5
s51.167 -15.166 81.5 -23.499l93.5 -25.5c1.33301 25.333 2.33301 50.666 3 75.999z" />
    <glyph glyph-name="I" unicode="I" horiz-adv-x="286" 
d="M143 134l0.000976562 -57.4971c0 -19.667 -0.666992 -39.834 -2 -60.501c-2 -12 -4.5 -19.667 -7.5 -23s-6.83301 -5 -11.5 -5c-10.667 0 -17.334 1.66699 -20.001 5s-4 9 -4 17c3.33301 34.667 5.83301 68.667 7.5 102s2.5 66.333 2.5 99
c0 45.333 -1.16699 90.166 -3.5 134.499l-7 134l-7 137c-2.33301 46.333 -3.5 93.833 -3.5 142.5c0 4.66699 3.16699 7.5 9.5 8.5s12.5 1.5 18.5 1.5c4.66699 0 8 -1.66699 10 -5c1.33301 -2 2 -4 2 -6c-4 -36.667 -6 -74.334 -6 -113.001
c0 -35.333 1.16699 -71.666 3.5 -108.999l7.5 -118.5c2.66699 -41.667 5.16699 -85.834 7.5 -132.501s3.5 -97 3.5 -151z" />
    <glyph glyph-name="J" unicode="J" horiz-adv-x="552" 
d="M689 841c0 -3.33301 -3.82812 -7.33105 -11.4951 -11.998s-14.834 -7 -21.501 -7c-20.667 0 -44.334 -2.83301 -71.001 -8.5s-54.834 -12.5 -84.501 -20.5s-59.834 -17 -90.501 -27s-60.667 -19 -90 -27s-57.333 -14.833 -84 -20.5s-50.334 -8.5 -71.001 -8.5
c-18.667 0 -35.667 1.83301 -51 5.5s-28.333 8.33398 -39 14.001s-18.834 11.5 -24.501 17.5s-8.5 11.333 -8.5 16c0 5.33301 1.5 11.166 4.5 17.499s6.5 9.5 10.5 9.5c5.33301 0 8.83301 -1.33301 10.5 -4s3.16699 -5.33398 4.5 -8.00098
c4 -6.66699 10.167 -12.167 18.5 -16.5s17.5 -7.83301 27.5 -10.5s20.167 -4.33398 30.5 -5.00098s19.166 -1 26.499 -1c43.333 0 86.833 5.16699 130.5 15.5s86.834 21.833 129.501 34.5s84.334 24.167 125.001 34.5s80 15.5 118 15.5c7.33301 0 11 -1.33301 11 -4z
M436.005 367.002c0 -56 -5.49902 -110.332 -16.499 -162.999s-28.167 -99.5 -51.5 -140.5s-53 -73.833 -89 -98.5s-79 -37 -129 -37c-27.333 0 -50.5 3.16699 -69.5 9.5s-34.5 15 -46.5 26s-20.667 24.167 -26 39.5s-8 31.666 -8 48.999c0 18 2.16699 32.833 6.5 44.5
s9.66602 20.834 15.999 27.501s13.166 11.334 20.499 14.001s13.666 4 18.999 4c6.66699 0 13.5 -2.16699 20.5 -6.5s10.5 -11.5 10.5 -21.5c0 -5.33301 -2.16699 -8.83301 -6.5 -10.5s-8.83301 -2.5 -13.5 -2.5c-3.33301 0 -7.16602 -0.666992 -11.499 -2
s-8.33301 -4 -12 -8s-6.83398 -9.83301 -9.50098 -17.5s-4 -18.167 -4 -31.5c0 -20.667 4.16699 -37.334 12.5 -50.001s18.666 -22.667 30.999 -30s25.333 -12.333 39 -15s25.834 -4 36.501 -4c45.333 0 83.5 12.5 114.5 37.5s55.833 57.333 74.5 97s32 83.5 40 131.5
s12 95 12 141c0 54 -2.33301 103.833 -7 149.5s-10 85.5 -16 119.5c-7.33301 40 -15.333 76 -24 108c0 3.33301 1.66699 6.16602 5 8.49902s7.33301 4 12 5s9 1.66699 13 2s7 0.5 9 0.5s3.33301 -1 4 -3c7.33301 -27.333 13.833 -57.333 19.5 -90s10.334 -65.667 14.001 -99
s6.33398 -66 8.00098 -98s2.5 -60.667 2.5 -86z" />
    <glyph glyph-name="K" unicode="K" horiz-adv-x="685" 
d="M685 -8c0 -3.33301 -1.67188 -7.33594 -5.00488 -12.0029s-6.66602 -7 -9.99902 -7c-2 0 -4.66699 0.5 -8 1.5s-6.33301 2.83301 -9 5.5l-35.5 21l-61.5 36l-81.5 45.5l-95 49c-33 16.333 -66.833 32 -101.5 47s-68.667 28.167 -102 39.5v-209c0 -10 -1 -16.667 -3 -20
s-5.33301 -5 -10 -5c-9.33301 0 -17 1.33301 -23 4s-8.66699 9.66699 -8 21l4 108c1.33301 36.667 2.33301 74 3 112c-23.333 6.66699 -45.5 11.834 -66.5 15.501s-40.833 5.5 -59.5 5.5c-8.66699 0 -13 2.33301 -13 7c0 6 5.33301 9.66699 16 11
c42.667 0 84 5.33301 124 16v73c0 54 -0.166992 104.833 -0.5 152.5s-1.16602 89.5 -2.49902 125.5c-1.33301 42 -2.66602 81 -3.99902 117c0 6.66699 4.33301 10.5 13 11.5s16 1.5 22 1.5c3.33301 0 5.33301 -1.33301 6 -4s1 -7.66699 1 -15v-168v-58v-52
c0 -18.667 0.166992 -41.334 0.5 -68.001s0.5 -62 0.5 -106c53.333 17.333 104 41.666 152 72.999s91 67.333 129 108s69.833 84.834 95.5 132.501s42.5 96.167 50.5 145.5c0.666992 4.66699 3.33398 7 8.00098 7c7.33301 0 13.333 -1 18 -3s7 -8 7 -18
c-14 -55.333 -36.167 -107.5 -66.5 -156.5s-66.166 -93.333 -107.499 -133s-86.5 -74 -135.5 -103s-99.167 -51.5 -150.5 -67.5v-37c58 -16.667 114 -36.667 168 -60s103 -46.666 147 -69.999s81.833 -44.666 113.5 -63.999l66.5 -41c2 -1.33301 4.33301 -3 7 -5
c4.66699 -3.33301 7 -6.66602 7 -9.99902zM138.995 268.997l-21 -4l-21 -4c7.33301 -1.33301 14.333 -2.83301 21 -4.5l21 -5.5v18z" />
    <glyph glyph-name="L" unicode="L" horiz-adv-x="626" 
d="M626 18c0 -2.66699 -1.66797 -6.33008 -5.00098 -10.9971c-9.33301 -12 -20.833 -21.833 -34.5 -29.5s-28 -13.5 -43 -17.5s-29.667 -6.83301 -44 -8.5s-26.833 -2.5 -37.5 -2.5c-33.333 0 -65.666 5.66699 -96.999 17s-61.5 24 -90.5 38s-56.5 26.667 -82.5 38
s-50.667 17 -74 17c-3.33301 0 -9.16602 -0.666992 -17.499 -2s-17 -4.5 -26 -9.5s-16.833 -12.5 -23.5 -22.5s-10 -23.667 -10 -41c0 -13.333 -2 -21.166 -6 -23.499s-8.66699 -3.5 -14 -3.5c-7.33301 0.666992 -11 7.33398 -11 20.001c0 10 0.333008 18.667 1 26
s1 18 1 32c0 30 -0.666992 61 -2 93l-4 94l-4 88c-1.33301 28 -2 53.333 -2 76c0 47.333 3.66699 96.166 11 146.499s19.333 96 36 137s38.667 74.667 66 101s61.333 39.5 102 39.5c16.667 0 29.334 -5 38.001 -15s13 -23 13 -39c0 -25.333 -6.5 -50.5 -19.5 -75.5
s-29.167 -48 -48.5 -69s-40.333 -39.167 -63 -54.5s-43.667 -26 -63 -32c-4.66699 0 -7 2 -7 6c0 3.33301 1.66699 5.66602 5 6.99902c24 9.33301 45.833 21 65.5 35s36.834 30 51.501 48s26 37.667 34 59s12 43.666 12 66.999c0 15.333 -3 26.166 -9 32.499
s-15.667 9.5 -29 9.5c-20 0 -37.667 -4.83301 -53 -14.5s-28.833 -22.5 -40.5 -38.5s-21.667 -34 -30 -54s-15 -40.667 -20 -62s-8.66699 -42 -11 -62s-3.5 -37.667 -3.5 -53c0 -85.333 0.666992 -165.333 2 -240s4.66602 -147.334 9.99902 -218.001
c20.667 19.333 37.834 32 51.501 38s25.167 9 34.5 9c26.667 0 52.5 -6 77.5 -18l79.5 -39c28 -14 58.667 -27 92 -39s71.666 -18 114.999 -18c19.333 0 35.333 1.66699 48 5s23.167 7 31.5 11s14.666 8 18.999 12s7.16602 7 8.49902 9c4.66699 5.33301 9 8 13 8
c4.66699 0 7 -2.33301 7 -7z" />
    <glyph glyph-name="M" unicode="M" horiz-adv-x="916" 
d="M916 70c0 -5.33301 -3.15918 -12.665 -9.49219 -21.998s-15.5 -18.666 -27.5 -27.999s-26.5 -17.5 -43.5 -24.5s-36.167 -10.5 -57.5 -10.5c-46.667 0 -84.667 13.333 -114 40s-53 60.167 -71 100.5s-31.667 84 -41 131s-17.333 90.667 -24 131
s-13.334 73.833 -20.001 100.5s-16.334 40 -29.001 40c-13.333 0 -26.333 -9.5 -39 -28.5s-24.667 -43.667 -36 -74s-21.833 -64.333 -31.5 -102s-18.334 -74.834 -26.001 -111.501s-14 -71 -19 -103s-8.83301 -57.667 -11.5 -77c-2 -16 -3.5 -26.667 -4.5 -32
s-6.16699 -8 -15.5 -8c-8.66699 1.33301 -13.667 3.16602 -15 5.49902s-2 7.16602 -2 14.499c0.666992 13.333 1.16699 31.833 1.5 55.5s0.5 50.834 0.5 81.501c0 32.667 -0.333008 68 -1 106s-1.83398 75.833 -3.50098 113.5s-4 73.834 -7 108.501
s-6.83301 65.334 -11.5 92.001s-10.167 48 -16.5 64s-13.833 24 -22.5 24c-15.333 0 -29.166 -8 -41.499 -24s-23.666 -37.333 -33.999 -64s-19.333 -57.334 -27 -92.001s-14.334 -70.5 -20.001 -107.5s-10.5 -74 -14.5 -111s-7.33301 -71.167 -10 -102.5
s-4.5 -58.666 -5.5 -81.999s-1.5 -40 -1.5 -50c0 -21.333 -0.833008 -34.833 -2.5 -40.5s-5.16699 -8.5 -10.5 -8.5c-12.667 0 -20.334 5.16699 -23.001 15.5s-4 25.833 -4 46.5c0 45.333 -0.666992 96.833 -2 154.5s-3 116.334 -5 176.001s-4.5 118 -7.5 175
s-6.16699 107.833 -9.5 152.5c0 5.33301 1 10 3 14c1.33301 3.33301 3.83301 6.5 7.5 9.5s8.83398 4.5 15.501 4.5c7.33301 0 11.833 -1.5 13.5 -4.5s2.83398 -8.5 3.50098 -16.5c0 -4 0.5 -16.833 1.5 -38.5l3.5 -79c1.33301 -31 2.83301 -64.167 4.5 -99.5l4.5 -99
l3.5 -78.5c1 -21.667 1.5 -34.167 1.5 -37.5l2 10l33.5 164.5c10.333 50.333 21.5 94 33.5 131s25.833 66 41.5 87s34.5 31.5 56.5 31.5c14 0 25.833 -6.83301 35.5 -20.5s17.834 -32.167 24.501 -55.5s12 -50.5 16 -81.5s7 -64 9 -99s3.5 -70.833 4.5 -107.5
s1.83301 -72 2.5 -106c0 -7.33301 0.333008 -12.333 1 -15s1.66699 -4 3 -4c0.666992 0 1.66699 1.66699 3 5c2 10.667 5.33301 26.667 10 48s10.334 45 17.001 71s14.5 52.667 23.5 80s19.167 52.166 30.5 74.499s23.666 40.666 36.999 54.999s27.666 21.5 42.999 21.5
s27.666 -7.83301 36.999 -23.5s17.333 -36.334 24 -62.001s12.667 -55 18 -88s11.333 -66.667 18 -101s15.167 -68 25.5 -101s23.666 -62.333 39.999 -88s36.666 -46.334 60.999 -62.001s54.166 -23.5 89.499 -23.5c14 0 26.667 2.83301 38 8.5s21.166 12.167 29.499 19.5
s15.166 14.5 20.499 21.5s9 11.5 11 13.5c2 2.66699 4.33301 4 7 4c4.66699 0 7 -2.66699 7 -8z" />
    <glyph glyph-name="N" unicode="N" horiz-adv-x="796" 
d="M795 67c0 -6 -4.33398 -12.833 -13.001 -20.5s-20.5 -15 -35.5 -22s-32.833 -13 -53.5 -18s-43 -7.5 -67 -7.5c-44.667 0 -83.167 9.5 -115.5 28.5s-60.166 44.167 -83.499 75.5s-42.666 67 -57.999 107s-28.166 80.833 -38.499 122.5s-19 82.5 -26 122.5l-19.5 107
c-6 31.333 -12.5 56.5 -19.5 75.5s-15.5 28.5 -25.5 28.5c-16 0 -31.167 -13.833 -45.5 -41.5s-27.333 -63 -39 -106s-22.334 -90.167 -32.001 -141.5s-17.667 -100.666 -24 -147.999s-11.333 -89.5 -15 -126.5s-5.5 -62.167 -5.5 -75.5c0 -14.667 -0.833008 -24 -2.5 -28
s-3.83398 -6 -6.50098 -6c-6 0 -13.167 2.33301 -21.5 7s-12.5 14.667 -12.5 30c0 7.33301 -0.5 20.5 -1.5 39.5s-2 40 -3 63s-2.16699 45.667 -3.5 68s-2.33301 40.166 -3 53.499c-3.33301 79.333 -6.66602 151.666 -9.99902 216.999c-1.33301 28 -2.83301 55.667 -4.5 83
s-3 52.5 -4 75.5s-2 42.833 -3 59.5s-1.83301 27.667 -2.5 33c0 9.33301 1.66699 14.833 5 16.5s8.66602 2.5 15.999 2.5c9.33301 0 16.333 -1.16699 21 -3.5s7 -10.5 7 -24.5c0 -7.33301 -0.333008 -18.666 -1 -33.999s-1 -31.333 -1 -48c0 -18 0.666992 -41.333 2 -70
s3 -59.834 5 -93.501l6 -103.5c2 -35.333 4 -68.333 6 -99c0.666992 -8.66699 2.33398 -13 5.00098 -13c3.33301 0 7.16602 11.167 11.499 33.5l16.5 84c6.66699 33.667 14.834 70 24.501 109s20.834 75.333 33.501 109s27.5 61.667 44.5 84s36.167 33.5 57.5 33.5
c18 0 32.167 -9.83301 42.5 -29.5s19.166 -45.667 26.499 -78s14 -69 20 -110s13.333 -83 22 -126s19.667 -85.167 33 -126.5s30.666 -78.166 51.999 -110.499s48 -58.333 80 -78s71 -29.5 117 -29.5c22.667 0 42 3 58 9s29.5 12.667 40.5 20s19.333 14 25 20s9.5 9 11.5 9
c3.33301 0 5.33301 -1 6 -3s1 -3.66699 1 -5z" />
    <glyph glyph-name="O" unicode="O" horiz-adv-x="862" 
d="M788 381c0 -32.667 -4.16797 -65.8311 -12.501 -99.498s-20.666 -66.167 -36.999 -97.5s-36.5 -60.833 -60.5 -88.5s-51.833 -51.667 -83.5 -72s-67 -36.333 -106 -48s-81.5 -17.5 -127.5 -17.5c-60.667 0 -113.334 10.5 -158.001 31.5s-81.667 48.833 -111 83.5
s-51.166 74.5 -65.499 119.5s-21.5 91.5 -21.5 139.5c0 53.333 8.66699 106.166 26 158.499s43 99.166 77 140.499s76.167 74.833 126.5 100.5s108.5 38.5 174.5 38.5c46 0 83.833 -10.5 113.5 -31.5s47.834 -46.5 54.501 -76.5c36 -7.33301 67.167 -19.833 93.5 -37.5
s48.166 -39 65.499 -64s30.333 -52.833 39 -83.5s13 -62.667 13 -96zM738.999 372.003c0 30 -3.33398 58.9961 -10.001 86.9961s-16.5 53.833 -29.5 77.5s-29.5 44.334 -49.5 62.001s-43.333 31.167 -70 40.5c0 -14 -2.33301 -27.333 -7 -40s-10 -23.5 -16 -32.5
s-11.833 -16.167 -17.5 -21.5s-9.83398 -8 -12.501 -8c-3.33301 0 -5 1.66699 -5 5s2.66699 8.33301 8 15c15.333 17.333 23 39.666 23 66.999c0 4 -0.166992 8 -0.5 12s-0.833008 8 -1.5 12c-18.667 4 -38.334 6 -59.001 6c-21.333 0 -41.333 -2.16699 -60 -6.5
s-35.167 -9.16602 -49.5 -14.499s-26 -10.333 -35 -15s-14.167 -7.66699 -15.5 -9c-3.33301 -3.33301 -6.66602 -6.33301 -9.99902 -9s-6 -4 -8 -4c-4 0 -6 2 -6 6c0 6.66699 4.66699 12.667 14 18c34 19.333 66.5 32.333 97.5 39s60.167 10 87.5 10
c6.66699 0 13.167 -0.166992 19.5 -0.5s12.5 -0.833008 18.5 -1.5c-8.66699 23.333 -25 43.5 -49 60.5s-57 25.5 -99 25.5c-59.333 0 -110.833 -10.667 -154.5 -32s-79.667 -49.666 -108 -84.999s-49.333 -75.666 -63 -120.999s-20.5 -92 -20.5 -140
c0 -50 7.16699 -99 21.5 -147s35.333 -91 63 -129s61.5 -68.667 101.5 -92s85.667 -35 137 -35c59.333 0 111.833 12 157.5 36s83.834 55.167 114.501 93.5s53.834 81.333 69.501 129s23.5 94.834 23.5 141.501z" />
    <glyph glyph-name="P" unicode="P" horiz-adv-x="752" 
d="M754 717c0 -31.333 -8.66504 -64.502 -25.998 -99.502s-40.833 -68.667 -70.5 -101s-64.5 -61.666 -104.5 -87.999s-82.667 -46.5 -128 -60.5c3.33301 -38 7 -75.667 11 -113l11 -102.5c3.33301 -31 6 -57.333 8 -79s3 -35.5 3 -41.5c0 -22.667 -4.33301 -40.5 -13 -53.5
s-26 -19.5 -52 -19.5c-58.667 0 -110.834 12.167 -156.501 36.5s-84.167 56.666 -115.5 96.999s-55.333 86.333 -72 138s-25 104.834 -25 159.501c0 58 9.83301 115.333 29.5 172s50 107.334 91 152.001s93 80.667 156 108s138.167 41 225.5 41
c40.667 0 75.5 -3.66699 104.5 -11s52.667 -17.5 71 -30.5s31.666 -28.5 39.999 -46.5s12.5 -37.333 12.5 -58zM713.002 698.998c0 20 -4 38.5029 -12 55.5029s-20.5 32 -37.5 45s-38.833 23.167 -65.5 30.5s-59 11 -97 11c-80 0 -148.667 -12.5 -206 -37.5
s-104.333 -58 -141 -99s-63.5 -87.667 -80.5 -140s-25.5 -105.833 -25.5 -160.5c0 -54 7.83301 -106.667 23.5 -158s38 -97 67 -137s64 -72.333 105 -97s87.167 -37 138.5 -37c13.333 0 23.833 4.33301 31.5 13s11.5 18 11.5 28c0 8.66699 -1 24.167 -3 46.5
s-4.66699 49 -8 80l-10.5 102.5l-11.5 114c-27.333 -6.66699 -56.333 -10 -87 -10c-20.667 0 -37.167 1.83301 -49.5 5.5s-20.5 6.5 -24.5 8.5c-3.33301 1.33301 -5 5 -5 11c0 6.66699 2.66699 10 8 10c2.66699 0 4.66699 -0.333008 6 -1
c8.66699 -3.33301 20.334 -6.5 35.001 -9.5s29.667 -4.5 45 -4.5c12 0 23.833 0.666992 35.5 2s23.167 3 34.5 5l-8 86.5c-2.66699 28.333 -5 55.166 -7 80.499s-3.5 48.666 -4.5 69.999s-1.5 39.666 -1.5 54.999c0 8 4.5 13.5 13.5 16.5s18.167 4.5 27.5 4.5
c2.66699 0 4 -3 4 -9c-0.666992 -9.33301 -1.33398 -21 -2.00098 -35s-1 -29.667 -1 -47c0 -26 1.16699 -57.667 3.5 -95s5.5 -77 9.5 -119c40 12 77.667 29.833 113 53.5s66 50 92 79s46.5 59.5 61.5 91.5s22.5 62.333 22.5 91z" />
    <glyph glyph-name="Q" unicode="Q" horiz-adv-x="693" 
d="M691 244l-0.00488281 -3.00488c0 -0.666992 -0.333008 -1.33398 -1 -2.00098c-34 -42.667 -67.5 -74.667 -100.5 -96s-63.167 -36.666 -90.5 -45.999l-4 -85.5c-1.33301 -28.333 -2.66602 -58.166 -3.99902 -89.499c16 -16.667 31.667 -34.5 47 -53.5s29.333 -39 42 -60
s22.834 -43 30.501 -66s11.5 -47.167 11.5 -72.5c0 -22.667 -2 -43.667 -6 -63s-9.5 -36.166 -16.5 -50.499s-15.167 -25.5 -24.5 -33.5s-19 -12 -29 -12c-14.667 0 -27 4.66699 -37 14s-18.167 20.166 -24.5 32.499s-11 24.833 -14 37.5l-6.5 28
c-2 13.333 -3.66699 31 -5 53s-2 47.667 -2 77c0 25.333 0.166992 53.166 0.5 83.499s1.16602 61.5 2.49902 93.5l-63 64.5c-18 19 -27 35.5 -27 49.5c0 10 2.33301 17.833 7 23.5s11.167 10.334 19.5 14.001s18.5 6.66699 30.5 9s25.333 5.5 40 9.5
c1.33301 28 2.5 55.167 3.5 81.5s2.16699 52.166 3.5 77.499c-28.667 -25.333 -61.334 -46 -98.001 -62s-77.334 -24 -122.001 -24s-83.167 6.5 -115.5 19.5s-59 30.667 -80 53s-36.667 48.333 -47 78s-15.5 60.834 -15.5 93.501c0 44 9 89 27 135s44 87.5 78 124.5
s75.833 67.333 125.5 91s106.167 35.5 169.5 35.5c43.333 0 78.833 -7.66699 106.5 -23s49.167 -32.333 64.5 -51c18 -22 31.333 -47 40 -75c0 -4.66699 -2.33301 -7 -7 -7c-3.33301 0 -5.66602 0.333008 -6.99902 1s-2.66602 1 -3.99902 1
c-4 0.666992 -7.5 4.66699 -10.5 12s-6.83301 16.166 -11.5 26.499s-10.667 21.5 -18 33.5s-17.666 23 -30.999 33s-30.5 18.333 -51.5 25s-47.167 10 -78.5 10c-56 0 -105.333 -10.833 -148 -32.5s-78.5 -49.5 -107.5 -83.5s-51 -72.167 -66 -114.5
s-22.5 -84.5 -22.5 -126.5c0 -32.667 4.66699 -63.667 14 -93s23.333 -55.333 42 -78s42.334 -40.667 71.001 -54s62.334 -20 101.001 -20c42 0 79.833 7.66699 113.5 23s63.5 35.333 89.5 60c1.33301 32.667 2.33301 63.334 3 92.001s1 54 1 76
c0 20.667 0.833008 41.834 2.5 63.501s5.16699 41.5 10.5 59.5s12.833 32.667 22.5 44s22.167 17 37.5 17c21.333 0 37 -8 47 -24s15 -36.667 15 -62c0 -17.333 -2.33301 -36.333 -7 -57s-11.5 -41.667 -20.5 -63s-20.333 -42.666 -34 -63.999
s-29.167 -41.666 -46.5 -60.999c-0.666992 -32.667 -1.5 -63.667 -2.5 -93s-2.16699 -58.666 -3.5 -87.999c25.333 9.33301 53 23.333 83 42s61.667 47 95 85c4.66699 6 8.33398 9 11.001 9c1.33301 0 2 -0.666992 2 -2zM596.995 535.995
c0 21.333 -3.50098 38.668 -10.501 52.001s-17.167 20 -30.5 20c-12 0 -21.167 -9.33301 -27.5 -28s-11.166 -40.334 -14.499 -65.001s-5.33301 -48.667 -6 -72s-1 -39.666 -1 -48.999l-1 -89c15.333 18.667 28.666 38.167 39.999 58.5s20.833 40.666 28.5 60.999
s13.334 40 17.001 59s5.5 36.5 5.5 52.5zM466.994 85.9971c-23.333 -6.66699 -42 -11.667 -56 -15s-21 -10 -21 -20c0 -12 6.83301 -26.167 20.5 -42.5s30.5 -34.833 50.5 -55.5c1.33301 22 2.33301 44 3 66s1.66699 44.333 3 67zM608.994 -338.003
c0 24 -3.33203 46.8301 -9.99902 68.4971s-15.5 42.334 -26.5 62.001s-23.667 38.334 -38 56.001s-28.833 34.5 -43.5 50.5c-0.666992 -15.333 -1 -31.166 -1 -47.499v-50.5c0 -49.333 1 -103.333 3 -162c1.33301 -41.333 8.16602 -70.833 20.499 -88.5
s24.833 -26.5 37.5 -26.5c10.667 0 19.667 6.16699 27 18.5s13.333 26.333 18 42s8 31 10 46s3 25.5 3 31.5z" />
    <glyph glyph-name="R" unicode="R" horiz-adv-x="716" 
d="M727 667c0 -43.333 -14 -91.333 -42 -144s-68.333 -104 -121 -154s-116.334 -95.667 -191.001 -137s-158.667 -72.333 -252 -93c0 -7.33301 0.333008 -15 1 -23l2 -24c64.667 -12 130.167 -26.667 196.5 -44s134.5 -41 204.5 -71c10 -4.66699 15 -9.66699 15 -15
c0 -3.33301 -2 -8.5 -6 -15.5s-9 -10.5 -15 -10.5c-2 0 -5.66699 1 -11 3c-16 8 -37.333 17.667 -64 29s-56.834 23.333 -90.501 36s-70 25.167 -109 37.5s-78.833 23.833 -119.5 34.5c2 -23.333 4.33301 -44.833 7 -64.5s6 -34.167 10 -43.5
c0 -3.33301 -1.5 -5.66602 -4.5 -6.99902s-8.83301 -2.66602 -17.5 -3.99902c-4 0 -7.66699 1.5 -11 4.5s-6.33301 9.5 -9 19.5c-2 7.33301 -4.16699 20.166 -6.5 38.499s-4.16602 40.166 -5.49902 65.499c-19.333 4.66699 -38.333 8.66699 -57 12l-56 10
c-7.33301 1.33301 -13.333 3 -18 5s-7 5.66699 -7 11c0 4.66699 5.33301 7 16 7c20.667 1.33301 41 3.33301 61 6s39.667 5.66699 59 9v30c0 42.667 3.66699 88 11 136s18.666 95.667 33.999 143s35 92.833 59 136.5s52.833 82 86.5 115s72.334 59.5 116.001 79.5
s92.834 30 147.501 30c64 0 111.167 -13.833 141.5 -41.5s45.5 -63.167 45.5 -106.5zM682 648c0 42 -13.8311 76.166 -41.498 102.499s-70.834 39.5 -129.501 39.5c-40.667 0 -78.5 -8.5 -113.5 -25.5s-67 -40.167 -96 -69.5s-54.667 -63.666 -77 -102.999
s-41.333 -81.333 -57 -126s-27.5 -90.5 -35.5 -137.5s-12 -93.167 -12 -138.5v-38c88 20 166.833 49.333 236.5 88s128.667 81.5 177 128.5s85.166 95.167 110.499 144.5s38 94.333 38 135zM88.002 98.999c-0.666992 5.33301 -1.00098 10.666 -1.00098 15.999
s-0.333008 11 -1 17c-25.333 -5.33301 -50.666 -9.33301 -75.999 -12c-5.33301 0 -8 -1 -8 -3c0 -1.33301 1.66699 -2.66602 5 -3.99902c13.333 -2.66699 26.833 -5 40.5 -7s27.167 -4.33301 40.5 -7z" />
    <glyph glyph-name="S" unicode="S" horiz-adv-x="770" 
d="M648 185c-0.666992 -30.667 -8.00293 -58.1641 -22.0029 -82.4971s-32.5 -45.833 -55.5 -64.5s-49.167 -34.834 -78.5 -48.501s-59.833 -24.834 -91.5 -33.501s-63.5 -15 -95.5 -19s-62 -6 -90 -6c-20 0 -42.5 0.5 -67.5 1.5s-48.333 3.66699 -70 8s-40 11 -55 20
s-22.5 21.167 -22.5 36.5c0 12 6.16699 22.333 18.5 31s28 15.834 47 21.501s39.833 9.83398 62.5 12.501s44.334 4 65.001 4c15.333 0 31 -0.5 47 -1.5s30.833 -2.33301 44.5 -4s25.167 -3.33398 34.5 -5.00098s15 -3.5 17 -5.5c2.66699 -2.66699 4 -5 4 -7
c0 -3.33301 -2.66699 -5 -8 -5c-2.66699 0 -4.66699 0.333008 -6 1c-2.66699 0.666992 -9 1.66699 -19 3s-21.167 2.5 -33.5 3.5l-37 3c-12.333 1 -22.166 1.5 -29.499 1.5c-18 0 -37.167 -1 -57.5 -3s-39 -5 -56 -9s-31.167 -9 -42.5 -15s-17 -13.333 -17 -22
c0 -12 5.83301 -21.333 17.5 -28s26.667 -11.667 45 -15s39.333 -5.5 63 -6.5s47.5 -1.5 71.5 -1.5c53.333 0 103.5 5.5 150.5 16.5s88 26.333 123 46s62.833 43.334 83.5 71.001s31 58.167 31 91.5c0 23.333 -7.5 43.333 -22.5 60s-34.833 31.667 -59.5 45
s-52.667 25.333 -84 36l-96 32c-32.667 10.667 -64.667 22.167 -96 34.5s-59.333 26.666 -84 42.999s-44.5 35.166 -59.5 56.499s-22.5 46.666 -22.5 75.999s6.83301 55.5 20.5 78.5s31.5 43.167 53.5 60.5s47 31.833 75 43.5s56.333 21.167 85 28.5
s56.334 12.666 83.001 15.999s49.667 5 69 5c57.333 0 98.333 -6.33301 123 -19s37 -27.334 37 -44.001c0 -10 -4 -20.167 -12 -30.5s-19.167 -19.666 -33.5 -27.999s-31 -15.166 -50 -20.499s-39.5 -8 -61.5 -8c-9.33301 0 -16.5 0.833008 -21.5 2.5
s-8.83301 3.83398 -11.5 6.50098s-4.33398 5.66699 -5.00098 9c0 3.33301 1.33301 6 4 8s6.33398 2.66699 11.001 2l14 -1c20.667 -1.33301 39.334 -0.5 56.001 2.5s30.834 7.5 42.501 13.5s20.667 12.833 27 20.5s9.5 15.167 9.5 22.5c0 12.667 -10.333 23.834 -31 33.501
s-54 14.5 -100 14.5c-16.667 0 -37 -1.66699 -61 -5s-48.833 -8.33301 -74.5 -15s-51.334 -15.334 -77.001 -26.001s-48.5 -23.334 -68.5 -38.001s-36.333 -31.5 -49 -50.5s-19 -40.5 -19 -64.5c0 -21.333 7.5 -40.5 22.5 -57.5s34.833 -32.333 59.5 -46
s52.667 -26.5 84 -38.5l96 -36.5c32.667 -12.333 64.5 -25.166 95.5 -38.499s58.5 -28.333 82.5 -45s43.167 -35.334 57.5 -56.001s21.166 -44.667 20.499 -72z" />
    <glyph glyph-name="T" unicode="T" horiz-adv-x="424" 
d="M711 803c0 -2.66699 -1.33398 -5.66504 -4.00098 -8.99805s-6 -5.66602 -10 -6.99902l-138 -36.5l-146 -39.5l-146 -38.5c-48 -12.333 -94 -23.333 -138 -33s-84.833 -17.334 -122.5 -23.001s-70.834 -8.5 -99.501 -8.5h-4c-4 0 -10.833 0.5 -20.5 1.5
s-19.167 3.66699 -28.5 8s-17.666 10.666 -24.999 18.999s-11 19.833 -11 34.5c0 11.333 4.33301 20.833 13 28.5s16.667 11.5 24 11.5c4.66699 0 7 -2.33301 7 -7s-1.16699 -8.33398 -3.5 -11.001s-3.5 -6.66699 -3.5 -12c0 -8 2.33301 -14.667 7 -20
s10.334 -9.5 17.001 -12.5s13.834 -5.16699 21.501 -6.5s14.5 -2 20.5 -2c26 0 56.667 2.5 92 7.5s73 11.333 113 19s81.167 16.667 123.5 27l125 31l117.5 31l100 27l73 19c19.333 5 31.666 7.5 36.999 7.5c6 0 9 -2 9 -6zM224.999 -11.998
c0 -13.333 -1.00098 -21.498 -3.00098 -24.498s-5 -4.5 -9 -4.5c-9.33301 0 -16.5 1.33301 -21.5 4s-7.5 8.66699 -7.5 18c0.666992 28 1.33398 58 2.00098 90c0.666992 28 1.16699 59.667 1.5 95s0.5 72.666 0.5 111.999c0 30 -0.166992 60.5 -0.5 91.5s-1 61.333 -2 91
s-2.16699 57.667 -3.5 84s-2.66602 50.166 -3.99902 71.499c0 6 1.33301 10.833 4 14.5s6 6.66699 10 9s8.33301 4 13 5s8.66699 1.5 12 1.5c1.33301 0 2.66602 -1 3.99902 -3s2 -6 2 -12c-1.33301 -62 -2.33301 -119.667 -3 -173s-1 -103.333 -1 -150
c0 -66.667 1 -125.167 3 -175.5s3 -98.5 3 -144.5z" />
    <glyph glyph-name="U" unicode="U" horiz-adv-x="681" 
d="M680 -14c0 -3.33301 -2.33203 -5.83594 -6.99902 -7.50293s-10 -2.5 -16 -2.5c-34 0 -63.5 7 -88.5 21s-46.167 32.667 -63.5 56s-31.666 50.333 -42.999 81s-20 63 -26 97c-4.66699 -14 -12.667 -34.167 -24 -60.5s-26 -52.666 -44 -78.999s-39.5 -49.166 -64.5 -68.499
s-54.167 -29 -87.5 -29c-46 0 -83 10.5 -111 31.5s-49.833 49.167 -65.5 84.5s-26.167 76.166 -31.5 122.499s-8 94.833 -8 145.5c0 59.333 1.83301 118.833 5.5 178.5s5.5 114.834 5.5 165.501c0 10.667 1.33301 19 4 25s6 10.333 10 13s8.16699 4.33398 12.5 5.00098
s7.83301 1 10.5 1c6 0 9.83301 -3.5 11.5 -10.5s2.5 -13.167 2.5 -18.5c0 -22 -1 -47.167 -3 -75.5l-6.5 -90.5c-2.33301 -32 -4.5 -65.333 -6.5 -100s-3 -69.334 -3 -104.001c0 -46 2.5 -90.5 7.5 -133.5s14.333 -81 28 -114s32.5 -59.333 56.5 -79s55 -29.5 93 -29.5
c25.333 0 49 8.33301 71 25s41.667 37.5 59 62.5s32.166 52.667 44.499 83s21.5 58.833 27.5 85.5c-4 28 -6.66699 56 -8 84s-2 54.667 -2 80s0.5 49 1.5 71s2.16699 41 3.5 57c2 18.667 3.66699 36 5 52c0 6.66699 0.666992 11.667 2 15s3 5.5 5 6.5s4 1.5 6 1.5h5
c4.66699 0 8.16699 -0.666992 10.5 -2s4.16602 -4.66602 5.49902 -9.99902c4 -16.667 6 -37.667 6 -63c0 -18.667 -0.833008 -38.167 -2.5 -58.5s-3.5 -40.333 -5.5 -60l-5.5 -55.5c-1.66699 -17.333 -2.5 -32 -2.5 -44c0 -11.333 1.16699 -25.333 3.5 -42
s4.16602 -32.334 5.49902 -47.001c10.667 -88 31.834 -152.167 63.501 -192.5s75.167 -61.166 130.5 -62.499c6 0 11.167 -0.666992 15.5 -2s6.83301 -4.33301 7.5 -9z" />
    <glyph glyph-name="V" unicode="V" horiz-adv-x="548" 
d="M517 850c0 -3.33301 -1.33008 -5.99902 -3.99707 -7.99902s-6 -4.33301 -10 -7c-20 -12 -36.333 -28.667 -49 -50s-22.834 -44.666 -30.501 -69.999s-12.834 -51.166 -15.501 -77.499s-4 -50.5 -4 -72.5c0 -15.333 0.833008 -34.166 2.5 -56.499s3.66699 -46.833 6 -73.5
s4.33301 -54.834 6 -84.501s2.5 -59.834 2.5 -90.501c0 -42.667 -2.5 -84.5 -7.5 -125.5s-14.667 -77.5 -29 -109.5s-34.166 -57.667 -59.499 -77s-58.333 -29 -99 -29c-32 0 -59.833 5.66699 -83.5 17s-43.834 26.833 -60.501 46.5s-30.167 42.5 -40.5 68.5
s-18.5 53.5 -24.5 82.5s-10.167 58.5 -12.5 88.5s-3.5 59 -3.5 87c0 31.333 1 64.833 3 100.5s4.16699 69.5 6.5 101.5s4.83301 60.333 7.5 85s4.66699 41.334 6 50.001c2 10.667 4.5 17.667 7.5 21s7.16699 5 12.5 5c4 0 9.5 -0.833008 16.5 -2.5s10.5 -5.16699 10.5 -10.5
c0 -2 -0.166992 -4.16699 -0.5 -6.5s-0.833008 -5.5 -1.5 -9.5c-4 -14.667 -7.5 -33.834 -10.5 -57.501s-5.66699 -49.834 -8 -78.501s-4 -58.5 -5 -89.5s-1.5 -61.167 -1.5 -90.5c0 -14.667 0.666992 -34.5 2 -59.5s4.33301 -51.833 9 -80.5s11.5 -58 20.5 -88
s20.833 -57 35.5 -81s32.667 -43.667 54 -59s47 -23 77 -23c31.333 0 56.666 8.33301 75.999 25s34.666 39.167 45.999 67.5s19 61.333 23 99s6 77.5 6 119.5c0 32.667 -0.833008 66.167 -2.5 100.5s-3.5 68 -5.5 101s-3.83301 65.167 -5.5 96.5s-2.5 60.333 -2.5 87
c0 20.667 3.16699 44.667 9.5 72s15 53.166 26 77.499s23.667 45 38 62s29.5 25.5 45.5 25.5c4.66699 0 9.33398 -2.16699 14.001 -6.5s7 -8.5 7 -12.5z" />
    <glyph glyph-name="W" unicode="W" horiz-adv-x="823" 
d="M799 868c0 -3.33301 -1.33105 -6.00293 -3.99805 -8.00293s-6 -4.33301 -10 -7c-20 -12 -36.333 -28.667 -49 -50s-22.834 -44.666 -30.501 -69.999s-12.834 -51.166 -15.501 -77.499s-4 -50.5 -4 -72.5c0 -15.333 0.833008 -34.166 2.5 -56.499s3.66699 -46.833 6 -73.5
s4.33301 -54.834 6 -84.501s2.5 -59.834 2.5 -90.501c0 -42.667 -2.5 -84.5 -7.5 -125.5s-14.667 -77.5 -29 -109.5s-34.166 -57.667 -59.499 -77s-58.333 -29 -99 -29c-18.667 0 -36.167 3.5 -52.5 10.5s-31.333 16.833 -45 29.5s-26 27.334 -37 44.001
s-20.833 35 -29.5 55c-8.66699 -23.333 -18.834 -45 -30.501 -65s-24.5 -37.333 -38.5 -52s-29.167 -26 -45.5 -34s-34.166 -12 -53.499 -12c-28.667 0 -52.834 7.33301 -72.501 22s-35.834 33.834 -48.501 57.501s-22.5 50.667 -29.5 81s-12.167 61.333 -15.5 93
s-5.5 62.667 -6.5 93s-1.83301 57.166 -2.5 80.499c-1.33301 42 -0.5 81.833 2.5 119.5s6.5 71.667 10.5 102s8 56.5 12 78.5s6.66699 38.333 8 49c0.666992 4 4.83398 6.66699 12.501 8s14.5 2 20.5 2c4.66699 0 8.66699 -0.5 12 -1.5s5 -3.16699 5 -6.5
c0 -2 -0.5 -4.5 -1.5 -7.5l-4 -12.5c-1.66699 -5.33301 -3.66699 -12.5 -6 -21.5l-8.5 -33.5c-2.66699 -12 -5.5 -29.167 -8.5 -51.5s-5.66699 -47.5 -8 -75.5s-4.16602 -57.833 -5.49902 -89.5s-2 -62.5 -2 -92.5c0 -23.333 1 -48.833 3 -76.5s5.33301 -55 10 -82
s11 -53.167 19 -78.5s17.833 -47.666 29.5 -66.999s25.5 -34.833 41.5 -46.5s34.667 -17.5 56 -17.5c16 0 30.667 4 44 12s25.666 19.167 36.999 33.5s21.5 31.166 30.5 50.499s17.167 40.333 24.5 63c-15.333 42 -26.666 86.667 -33.999 134s-11 91 -11 131
c0 29.333 1.16699 58.333 3.5 87s5.83301 54.334 10.5 77.001s10.667 41 18 55s16 21 26 21c8 0 15.167 -5 21.5 -15s11.666 -23.667 15.999 -41s7.66602 -37.833 9.99902 -61.5s3.5 -49.167 3.5 -76.5c0 -44 -3 -90.333 -9 -139s-15.333 -95.667 -28 -141
c8.66699 -22.667 18.667 -44 30 -64s24.166 -37.333 38.499 -52s30.333 -26.167 48 -34.5s37.167 -12.5 58.5 -12.5c29.333 0 53.333 7.16699 72 21.5s33.334 34 44.001 59s18 54 22 87s6 68.5 6 106.5c0 34 -1.16699 69 -3.5 105s-4.83301 71.833 -7.5 107.5l-7.5 104
c-2.33301 33.667 -3.5 64.834 -3.5 93.501c0 20.667 3.16699 44.667 9.5 72s15 53.166 26 77.499s23.667 45 38 62s29.5 25.5 45.5 25.5c4.66699 0 9.33398 -2.16699 14.001 -6.5s7 -8.5 7 -12.5zM380.002 413.997c0 20.667 -0.667969 39.833 -2.00098 57.5
s-3.16602 32.834 -5.49902 45.501s-5.16602 22.667 -8.49902 30s-7.33301 11 -12 11c-5.33301 0 -10.333 -3.83301 -15 -11.5s-8.5 -18.167 -11.5 -31.5s-5.33301 -29.333 -7 -48s-2.5 -38.667 -2.5 -60c0 -38 2.66699 -78.833 8 -122.5s14.666 -85.834 27.999 -126.501
c9.33301 42.667 16.333 86.5 21 131.5s7 86.5 7 124.5z" />
    <glyph glyph-name="X" unicode="X" horiz-adv-x="867" 
d="M866 -36c0 -6.66699 -3.83203 -11.833 -11.499 -15.5s-16.5 -6.5 -26.5 -8.5s-19.833 -3.16699 -29.5 -3.5s-16.834 -0.5 -21.501 -0.5c-48 0 -93.167 6.5 -135.5 19.5s-82 30.667 -119 53s-71 49 -102 80s-58.833 64.5 -83.5 100.5l-165.5 -207l-150.5 -196
c-3.33301 -3.33301 -7.33301 -5 -12 -5c-5.33301 0 -8 2 -8 6c0 0.666992 0.666992 3 2 7c1.33301 2.66699 11.166 15.834 29.499 39.501l72 91.5l102.5 128.5l120 149.5c-40 62 -70.5 128 -91.5 198s-31.5 138.333 -31.5 205c0 26.667 0.833008 49.167 2.5 67.5l3.5 38.5
c0.666992 6.66699 4.66699 12 12 16s14.666 6.66699 21.999 8c5.33301 0 8.33301 -1.66699 9 -5s1 -7.33301 1 -12c-2 -10.667 -3.33301 -22.5 -4 -35.5s-1 -27.167 -1 -42.5c0 -74.667 9.83301 -145.667 29.5 -213s46.5 -129.333 80.5 -186l95.5 119l91 112.5l81 100
l65.5 80.5l44 54c10.667 13.333 16.334 20.333 17.001 21c4 5.33301 8 8 12 8c4.66699 0 7 -2.33301 7 -7c0 -12.667 -2.66699 -21 -8 -25c-0.666992 -0.666992 -7.33398 -8.5 -20.001 -23.5l-49.5 -59l-70.5 -85l-83.5 -101l-88 -106.5l-84.5 -103
c26 -41.333 55.333 -78.833 88 -112.5s67.334 -62.334 104.001 -86.001s74.667 -42 114 -55s79 -19.5 119 -19.5c14 0 24.667 1 32 3s13 4.33301 17 7s6.83301 5 8.5 7s3.83398 3 6.50098 3c6 0 9 -3.33301 9 -10z" />
    <glyph glyph-name="Y" unicode="Y" horiz-adv-x="710" 
d="M668 150c0 -4 -2.3291 -7.33594 -6.99609 -10.0029c-57.333 -37.333 -108.666 -79.666 -153.999 -126.999c1.33301 -54 2.5 -106 3.5 -156s2.16699 -95 3.5 -135s2.33301 -73 3 -99s1 -41.333 1 -46c0 -14.667 -0.166992 -31.667 -0.5 -51s-1.33301 -39.166 -3 -59.499
s-4.16699 -40.333 -7.5 -60s-8 -37.167 -14 -52.5s-13.5 -27.666 -22.5 -36.999s-20.167 -14 -33.5 -14c-26 0 -48.833 8 -68.5 24s-36.167 36 -49.5 60s-23.333 50.167 -30 78.5s-10 54.5 -10 78.5c0 38.667 4.66699 78 14 118s22.5 79.333 39.5 118s37 76.167 60 112.5
s48.5 70.5 76.5 102.5c-1.33301 19.333 -2.16602 38.833 -2.49902 58.5s-0.833008 39.167 -1.5 58.5c-28.667 -49.333 -63 -89.333 -103 -120s-85.667 -46 -137 -46c-42 0 -77 9.66699 -105 29s-50.5 45 -67.5 77s-29.167 69 -36.5 111s-11 85.667 -11 131
c0 40 2.33301 80 7 120s10.667 78.167 18 114.5s15.666 69.666 24.999 99.999s18.666 55.5 27.999 75.5c1.33301 2 3 4 5 6c4 4 8 6 12 6c10.667 0 16 -4.66699 16 -14c0 -2 -0.666992 -5 -2 -9c-9.33301 -19.333 -18.333 -43.166 -27 -71.499s-16.167 -59.333 -22.5 -93
s-11.5 -69 -15.5 -106s-6 -73.833 -6 -110.5c0 -44.667 3.33301 -87.834 10 -129.501s17.667 -78.5 33 -110.5s35.666 -57.667 60.999 -77s56.333 -29 93 -29c26 0 50 4.66699 72 14s42.333 22 61 38s35.667 34.667 51 56s29 44.333 41 69
c-0.666992 16.667 -1 33.167 -1 49.5v48.5c0 50 0.833008 97.167 2.5 141.5s4.66699 83 9 116s10.166 59.167 17.499 78.5s16.333 29 27 29c7.33301 0 13.166 -3.66699 17.499 -11s8 -17.166 11 -29.499s5 -26.833 6 -43.5s1.5 -34 1.5 -52
c0 -46.667 -4.33301 -93.5 -13 -140.5s-21.334 -92.167 -38.001 -135.5c0 -25.333 0.166992 -51.333 0.5 -78s0.833008 -53.334 1.5 -80.001c48 48.667 98.333 88.334 151 119.001c0.666992 0.666992 2 1 4 1c4 0 6 -2 6 -6zM542.004 458.997
c0 12 -0.168945 24.5 -0.501953 37.5s-1.16602 24.833 -2.49902 35.5s-3.16602 19.5 -5.49902 26.5s-5.5 10.5 -9.5 10.5c-3.33301 0 -6.16602 -7.66699 -8.49902 -23s-4.33301 -36.333 -6 -63s-2.83398 -58 -3.50098 -94s-1 -75 -1 -117v-27c12.667 40.667 22 80 28 118
s9 70 9 96zM497.002 -483.003l-3.00098 37.001c-2 24.667 -4.33301 58 -7 100l-9 145c-3.33301 54.667 -6 112 -8 172c-50 -60.667 -88.833 -125.667 -116.5 -195s-41.5 -140.333 -41.5 -213c0 -13.333 2.16699 -33.5 6.5 -60.5s11.333 -54.333 21 -82
s22.334 -51.834 38.001 -72.501s34.834 -31 57.501 -31c15.333 0 27.166 6.33301 35.499 19s14.333 28.667 18 48s6 40.833 7 64.5s1.5 46.5 1.5 68.5z" />
    <glyph glyph-name="Z" unicode="Z" horiz-adv-x="593" 
d="M592 243c0 -2 -2.00391 -4.66406 -6.00391 -7.99707c-36.667 -14 -73 -31.333 -109 -52s-70.333 -44.334 -103 -71.001c30.667 -43.333 53 -93.5 67 -150.5s21 -115.5 21 -175.5c0 -50 -4.66699 -98.5 -14 -145.5s-22.833 -88.667 -40.5 -125s-39 -65.5 -64 -87.5
s-53.5 -33 -85.5 -33c-26.667 0 -49.334 9.33301 -68.001 28s-34 41.334 -46 68.001s-20.667 54.667 -26 84s-8 54.666 -8 75.999c0 36 4.16699 73 12.5 111s21.5 76 39.5 114s41.5 75.833 70.5 113.5s64.167 73.834 105.5 108.501c-12.667 20 -26.667 38 -42 54
s-32.666 29.333 -51.999 40c-23.333 -10.667 -47.166 -18.834 -71.499 -24.501s-49.166 -8.5 -74.499 -8.5c-24 0 -41.5 2.66699 -52.5 8s-16.5 11.666 -16.5 18.999c0 11.333 10.667 22.333 32 33s49.333 16 84 16c20 0 39 -1.83301 57 -5.5s35 -8.83398 51 -15.501
c34 19.333 66 43.833 96 73.5s56.333 61.334 79 95.001s40.5 68.167 53.5 103.5s19.5 68.666 19.5 99.999c0 21.333 -3.5 41 -10.5 59s-17.833 33.667 -32.5 47s-33.667 23.833 -57 31.5s-51.666 11.5 -84.999 11.5c-32 0 -64.667 -5 -98 -15s-63.5 -23.333 -90.5 -40
s-49.167 -36 -66.5 -58s-26 -45 -26 -69c0 -8 3.33301 -15.833 10 -23.5s13.667 -11.5 21 -11.5c5.33301 0 8.83301 -1.16699 10.5 -3.5s2.5 -4.83301 2.5 -7.5s-1.33301 -5.33398 -4 -8.00098c-2 -2 -5 -3.83301 -9 -5.5s-10 -2.5 -18 -2.5c-12 0 -23 4.66699 -33 14
s-15 21 -15 35c0 32.667 12.5 62.167 37.5 88.5s55.5 48.833 91.5 67.5s73.833 33 113.5 43s74.167 15 103.5 15c34 0 63 -4.16699 87 -12.5s43.667 -19.666 59 -33.999s26.5 -31.333 33.5 -51s10.5 -40.834 10.5 -63.501c0 -32.667 -6.66699 -67.334 -20 -104.001
s-31.666 -72.5 -54.999 -107.5s-51.333 -68 -84 -99s-68 -56.833 -106 -77.5c19.333 -9.33301 36.833 -21.166 52.5 -35.499s30.167 -30.166 43.5 -47.499c30 23.333 63 45.5 99 66.5s75.333 41.167 118 60.5l3 1c3.33301 0 5 -2.33301 5 -7zM226.996 201.003
c-14 6.66699 -29.168 11.832 -45.501 15.499s-33.166 5.5 -50.499 5.5c-22.667 0 -42.167 -3.5 -58.5 -10.5s-24.5 -14.167 -24.5 -21.5c0 -5.33301 4.66699 -9.66602 14 -12.999s25 -5 47 -5c40 0 79.333 9.66699 118 29zM420.995 -239.999
c0 58.667 -6.16797 116.667 -18.501 174s-31.5 108.333 -57.5 153c-29.333 -26 -56.333 -54.167 -81 -84.5s-45.834 -62.333 -63.501 -96s-31.5 -69 -41.5 -106s-15 -74.833 -15 -113.5c0 -29.333 2.33301 -60 7 -92s11.834 -61.5 21.501 -88.5s22.334 -49.167 38.001 -66.5
s34.5 -26 56.5 -26c24 0 45.5 9.5 64.5 28.5s35.167 44.5 48.5 76.5s23.5 68.833 30.5 110.5s10.5 85.167 10.5 130.5z" />
    <glyph glyph-name="bracketleft" unicode="[" horiz-adv-x="246" 
d="M162 812c-0.666992 -3.33301 -3.33105 -5.66895 -7.99805 -7.00195h-71c-2.66699 0 -4.33398 -0.333008 -5.00098 -1s-1.33398 -3 -2.00098 -7v-882c0 -3.33301 0.333008 -5.66602 1 -6.99902s3 -2.66602 7 -3.99902h64c7.33301 0 11 -2.33301 11 -7
c0 -6 -3.66699 -9 -11 -9l-90 3c-7.33301 0 -11.5 1.5 -12.5 4.5s-1.5 7.83301 -1.5 14.5v897c0 11.333 5.33301 17 16 17l90 -3c8 0 12 -3 12 -9z" />
    <glyph glyph-name="backslash" unicode="\" horiz-adv-x="500" 
d="M461 -114c0 -4 -2.66699 -6 -8 -6c-4.66699 0 -8.66699 1.66699 -12 5l-77.5 101.5l-78.5 101.5l-83 104.5l-90 111.5l-86 104.5l-91.5 111l-87.5 106.5l-75 90l-53 63c-13.333 16 -20.333 24.333 -21 25c-5.33301 4 -8 12.333 -8 25c0 4.66699 2.33301 7 7 7
c4 0 8 -2.66699 12 -8c0.666992 -0.666992 6.66699 -8 18 -22l46.5 -57.5l69.5 -85.5l85.5 -106l95.5 -118.5l100 -123.5l123.5 -153.5l106 -133l75 -95c19 -24.333 29.167 -37.833 30.5 -40.5c1.33301 -4 2 -6.33301 2 -7z" />
    <glyph glyph-name="bracketright" unicode="]" horiz-adv-x="266" 
d="M182 -95c0 -11.333 -5.33594 -16.9971 -16.0029 -16.9971l-90 3c-8 0 -12 3 -12 9c0.666992 3.33301 3.33398 5.66602 8.00098 6.99902h71c2.66699 0 4.33398 0.333008 5.00098 1s1.33398 3 2.00098 7v882c0 3.33301 -0.333008 5.66602 -1 6.99902s-3 2.66602 -7 3.99902
h-64c-7.33301 0 -11 2.33301 -11 7c0 6 3.66699 9 11 9l90 -3c7.33301 0 11.5 -1.5 12.5 -4.5s1.5 -7.83301 1.5 -14.5v-897z" />
    <glyph glyph-name="underscore" unicode="_" horiz-adv-x="500" 
d="M387 -29c0 -4.66699 -1.66699 -7.00586 -5 -7.00586c-4.66699 1.33301 -13.5 2.33301 -26.5 3s-27.167 1 -42.5 1c-44 0 -84.333 -0.333008 -121 -1s-68.334 -1.66699 -95.001 -3c-31.333 -1.33301 -59.333 -2.33301 -84 -3c-2.66699 0.666992 -5 2.33398 -7 5.00098
s-3 5.33398 -3 8.00098c0 4.66699 2.33301 7 7 7c8 0.666992 20.333 1.33398 37 2.00098s35.667 1.33398 57 2.00098s44 1.33398 68 2.00098s47.5 1.16699 70.5 1.5s44.5 0.5 64.5 0.5h50c6.66699 0 13.334 -0.666992 20.001 -2s10 -6.66602 10 -15.999z" />
    <glyph glyph-name="grave" unicode="`" horiz-adv-x="273" 
d="M165 399c0 -2 -1.00195 -3.33203 -3.00195 -3.99902s-3.66699 -1 -5 -1c-11.333 0 -24.166 4.16699 -38.499 12.5s-27.833 18.666 -40.5 30.999s-23.334 25.5 -32.001 39.5s-13 26.667 -13 38c0 6 2 12 6 18s9.66699 9 17 9c10.667 0 17.667 -5.83301 21 -17.5l12 -41
c4.66699 -15.667 12.334 -31.5 23.001 -47.5s28.334 -28.333 53.001 -37z" />
    <glyph glyph-name="a" unicode="a" 
d="M558 205c-4.66699 -10 -9.66699 -20.1641 -15 -30.4971s-11.333 -20.5 -18 -30.5c-33.333 -50.667 -67.5 -88.334 -102.5 -113.001s-67.5 -37 -97.5 -37c-38 0 -67 18 -87 54c-23.333 -23.333 -49.5 -41 -78.5 -53s-57.5 -18 -85.5 -18c-16.667 0 -32.5 2.33301 -47.5 7
s-28 11.834 -39 21.501s-19.833 22 -26.5 37s-10 32.5 -10 52.5c0 24 5.5 48.5 16.5 73.5s26.333 47.667 46 68s42.834 37.166 69.501 50.499s55.667 20 87 20c25.333 0 45 -3.5 59 -10.5s21 -13.5 21 -19.5c0 -2.66699 -1.33301 -4.66699 -4 -6s-5 -2 -7 -2
c-0.666992 0.666992 -1.33398 1 -2.00098 1h-1c-8 7.33301 -17 13.166 -27 17.499s-24.667 6.5 -44 6.5c-26 0 -49.5 -5.5 -70.5 -16.5s-38.833 -25.333 -53.5 -43s-26 -37.167 -34 -58.5s-12 -42.333 -12 -63c0 -40 9.5 -69 28.5 -87s42.167 -27 69.5 -27
c22.667 0 46.334 5.66699 71.001 17s46.667 27.333 66 48c-5.33301 12.667 -9.33301 26.667 -12 42s-4 32.666 -4 51.999c0 25.333 4.66699 47.333 14 66s22.666 28 39.999 28c24 0 36 -14 36 -42c0 -27.333 -4 -52.333 -12 -75s-18.667 -43 -32 -61
c18.667 -34.667 44.667 -52 78 -52c25.333 0 52.5 10.667 81.5 32s57.5 52.333 85.5 93c6.66699 10 12.667 20.333 18 31l16 32zM288 204.003c0 10 -1.66699 18.1699 -5 24.5029s-8.66602 9.5 -15.999 9.5c-11.333 0 -20 -5.5 -26 -16.5s-8.66699 -24.833 -8 -41.5
c2 -34.667 8.33301 -64.334 19 -89.001c11.333 15.333 20.166 32.666 26.499 51.999s9.5 39.666 9.5 60.999z" />
    <glyph glyph-name="b" unicode="b" horiz-adv-x="503" 
d="M519 213c-15.333 -42 -38.501 -72.0059 -69.501 -90.0059s-64.167 -27 -99.5 -27h-11.5c-3.66699 0 -7.5 0.333008 -11.5 1c-4.66699 -16.667 -11 -32.5 -19 -47.5s-17.833 -28 -29.5 -39s-25.167 -19.833 -40.5 -26.5s-32 -10 -50 -10
c-40.667 0 -75.834 11.5 -105.501 34.5s-54.167 53.333 -73.5 91s-33.666 80.5 -42.999 128.5s-14 97 -14 147s4.5 98.833 13.5 146.5s22.167 90.167 39.5 127.5s38.833 67.333 64.5 90s54.834 34 87.501 34c30 0 51.5 -9.5 64.5 -28.5s19.5 -44.167 19.5 -75.5
c0 -33.333 -6.5 -71.666 -19.5 -114.999s-30.167 -87.166 -51.5 -131.499s-45.666 -87.166 -72.999 -128.499s-55.666 -76.666 -84.999 -105.999c9.33301 -28 20.166 -54.167 32.499 -78.5s26.5 -45.333 42.5 -63s33.5 -31.5 52.5 -41.5s39.833 -15 62.5 -15
c27.333 0 49 11.167 65 33.5s26 48.5 30 78.5c-18 4 -35 10.167 -51 18.5s-30.167 18 -42.5 29s-22 23.5 -29 37.5s-10.5 28.667 -10.5 44c0 20.667 5.5 38.334 16.5 53.001s24.167 22 39.5 22c20 0 37.167 -4 51.5 -12s26.333 -18.833 36 -32.5
s16.834 -29.167 21.501 -46.5s7 -35.666 7 -54.999c0 -11.333 -1 -23 -3 -35c5.33301 -1.33301 10.666 -2 15.999 -2h16c29.333 0 56.666 7.66699 81.999 23s44 41.333 56 78zM208.999 654.994c0 28 -4.99902 50.332 -14.999 66.999s-26.667 25 -50 25
c-26 0 -49.167 -9 -69.5 -27s-37.666 -42 -51.999 -72s-25.333 -64.5 -33 -103.5s-11.5 -79.833 -11.5 -122.5c0 -38 2.66699 -75.667 8 -113s12.666 -73 21.999 -107c16.667 16.667 33.167 36.334 49.5 59.001s32 47.167 47 73.5s28.833 53.833 41.5 82.5
s23.667 57.167 33 85.5s16.666 55.5 21.999 81.5s8 49.667 8 71zM300 135.993c0 18 -2.00195 35.334 -6.00195 52.001s-9.66699 31.667 -17 45s-16.666 24 -27.999 32s-24.333 12 -39 12c-9.33301 0 -16.666 -3.33301 -21.999 -10s-8 -15 -8 -25
c0 -10.667 3.16699 -21.5 9.5 -32.5s15 -21.333 26 -31s23.833 -18.334 38.5 -26.001s30 -14.167 46 -19.5v3z" />
    <glyph glyph-name="c" unicode="c" horiz-adv-x="380" 
d="M392 205c-4.66699 -10 -9.66699 -20.168 -15 -30.501s-11.333 -20.5 -18 -30.5c-14 -21.333 -31.833 -42 -53.5 -62s-44.834 -37.667 -69.501 -53s-49.834 -27.666 -75.501 -36.999s-50.167 -14 -73.5 -14c-20 0 -37.167 3.66699 -51.5 11s-26.166 17.333 -35.499 30
s-16.333 27.167 -21 43.5s-7 33.5 -7 51.5c0 24 4 48.5 12 73.5s19.667 47.5 35 67.5s34.166 36.333 56.499 49s47.833 19 76.5 19c4 0 8.5 -0.833008 13.5 -2.5s10 -4.5 15 -8.5s9.16699 -9.16699 12.5 -15.5s5 -14.166 5 -23.499c0 -13.333 -3.33301 -26.166 -10 -38.499
s-14.667 -18.5 -24 -18.5c-3.33301 0 -6.83301 1.5 -10.5 4.5s-5.5 6.5 -5.5 10.5c0 5.33301 2 11 6 17s6 12.333 6 19c0 10.667 -3 18.834 -9 24.501s-14 8.5 -24 8.5c-20 0 -37.5 -4.16699 -52.5 -12.5s-27.5 -19.333 -37.5 -33s-17.5 -29.334 -22.5 -47.001
s-7.5 -35.5 -7.5 -53.5s2.33301 -35.5 7 -52.5s11.667 -32.333 21 -46s21 -24.5 35 -32.5s30.333 -12 49 -12s38.334 3.66699 59.001 11s40.834 17.166 60.501 29.499s38.167 26.666 55.5 42.999s32.333 33.833 45 52.5c6.66699 10 12.667 20.333 18 31l16 32z" />
    <glyph glyph-name="d" unicode="d" horiz-adv-x="639" 
d="M652 205c-4.66699 -10 -9.83301 -20.0029 -15.5 -30.0029l-17.5 -31c-24 -41.333 -53.5 -73.666 -88.5 -96.999s-71.5 -35 -109.5 -35c-24 0 -47.5 5 -70.5 15s-44.5 25.667 -64.5 47c-23.333 -28 -49.166 -50.167 -77.499 -66.5s-59.166 -24.5 -92.499 -24.5
c-27.333 0 -50.833 3.5 -70.5 10.5s-35.667 16.167 -48 27.5s-21.333 24.666 -27 39.999s-8.5 31.333 -8.5 48c0 22 4.33301 44.167 13 66.5s20.667 43 36 62s33.333 35.167 54 48.5s43.334 21.333 68.001 24h2c3.33301 0 5 -2 5 -6c0 -5.33301 -4 -8.33301 -12 -9
c-20.667 -4.66699 -39 -12.5 -55 -23.5s-29.333 -24 -40 -39s-18.834 -31.167 -24.501 -48.5s-8.5 -34.666 -8.5 -51.999c0 -16.667 2.66699 -32.5 8 -47.5s13.166 -28.333 23.499 -40s23.5 -21 39.5 -28s34.667 -10.5 56 -10.5c28.667 0 55.167 7.33301 79.5 22
s46.833 34.667 67.5 60c-28 34.667 -50.667 82.167 -68 142.5s-26 136.166 -26 227.499c0 44 3.66699 86.667 11 128s18 77.833 32 109.5s31.167 57 51.5 76s43.5 28.5 69.5 28.5c17.333 0 32.333 -5.66699 45 -17s23.167 -27 31.5 -47s14.5 -43.5 18.5 -70.5
s6 -56.167 6 -87.5c0 -38 -2.83301 -77.833 -8.5 -119.5s-14 -83.167 -25 -124.5s-24.667 -81.166 -41 -119.499s-35.166 -73.166 -56.499 -104.499c18 -21.333 38.667 -38 62 -50s49 -18 77 -18c25.333 0 49.166 7.33301 71.499 22s47.166 42.334 74.499 83.001
c6.66699 10 12.667 20.333 18 31l16 32zM420.001 575.997c0 28.667 -1.66699 55.166 -5 79.499s-8.33301 45.333 -15 63s-15 31.5 -25 41.5s-22 15 -36 15c-22 0 -41.5 -8 -58.5 -24s-31.167 -37.333 -42.5 -64s-19.833 -57.667 -25.5 -93s-8.5 -72.333 -8.5 -111
c0 -32 2 -64.667 6 -98s10 -65.666 18 -96.999s18.167 -60.833 30.5 -88.5s26.833 -52.5 43.5 -74.5c19.333 30 36.333 63.667 51 101s27 76 37 116s17.5 80 22.5 120s7.5 78 7.5 114z" />
    <glyph glyph-name="e" unicode="e" horiz-adv-x="394" 
d="M406 205l-14.5 -30.5c-5 -10.333 -11.167 -20.5 -18.5 -30.5c-32.667 -46.667 -69.834 -81.834 -111.501 -105.501s-81.5 -35.5 -119.5 -35.5c-20.667 0 -40.334 3.66699 -59.001 11s-34.667 18.333 -48 33s-24 33 -32 55s-12 48 -12 78c0 20 3 40 9 60
s14.167 38 24.5 54s22.333 29 36 39s28.167 15 43.5 15c24.667 0 42.667 -7.16699 54 -21.5s17 -32.5 17 -54.5c0 -29.333 -9.16699 -61.666 -27.5 -96.999s-44.5 -68 -78.5 -98c12.667 -14 27.334 -24.667 44.001 -32s34.667 -11 54 -11c30 0 61.333 9.16699 94 27.5
s63.334 46.833 92.001 85.5c7.33301 9.33301 13.5 19.5 18.5 30.5l15.5 32.5zM153 267c0 18 -4.49902 32.834 -13.499 44.501s-23.5 17.5 -43.5 17.5c-10.667 0 -20.334 -3.33301 -29.001 -10s-16 -15.5 -22 -26.5s-10.667 -23.833 -14 -38.5s-5 -30 -5 -46
c0 -25.333 2.83301 -47.833 8.5 -67.5s13.834 -36.834 24.501 -51.501c14 11.333 26.667 24.333 38 39s21.166 30 29.499 46s14.833 32 19.5 48s7 31 7 45z" />
    <glyph glyph-name="f" unicode="f" horiz-adv-x="332" 
d="M443 302c0 -4.66699 -2.66699 -7.00684 -8 -7.00684c-7.33301 1.33301 -21.166 2.33301 -41.499 3s-42.5 1 -66.5 1h-77c-21.333 0 -40.833 -0.166992 -58.5 -0.5l-51 -1c-16.333 -0.333008 -34.5 -0.833008 -54.5 -1.5c2.66699 -32 5.16699 -64.833 7.5 -98.5
s3.5 -69.5 3.5 -107.5c0 -14 -0.166992 -28.167 -0.5 -42.5s-0.833008 -27.833 -1.5 -40.5s-1.33398 -24 -2.00098 -34s-1.66699 -17.333 -3 -22c-2.66699 -13.333 -8 -20 -16 -20c-7.33301 0 -13.166 2 -17.499 6s-6.5 9.66699 -6.5 17c0 5.33301 1.33301 20.666 4 45.999
s4 56.333 4 93c0 20.667 -1 49.5 -3 86.5s-4.66699 75.5 -8 115.5c-20 0 -37.833 -0.166992 -53.5 -0.5s-29.167 -0.833008 -40.5 -1.5c-12.667 -0.666992 -24 -1 -34 -1c-4.66699 0.666992 -8.5 2.33398 -11.5 5.00098s-4.5 5.33398 -4.5 8.00098c0 4.66699 3.66699 7 11 7
c12 0.666992 29.5 1.33398 52.5 2.00098s49.5 1.33398 79.5 2.00098l-4 58c-1.33301 18.667 -2.5 36 -3.5 52s-1.83301 30.167 -2.5 42.5s-1 21.833 -1 28.5c0 46 4.5 90.167 13.5 132.5s22.5 79.833 40.5 112.5s40.5 58.667 67.5 78s58.5 29 94.5 29c16 0 30.5 -3 43.5 -9
s23.833 -14.167 32.5 -24.5s15.334 -22.166 20.001 -35.499s7 -27.333 7 -42c0 -15.333 -2.16699 -30.166 -6.5 -44.499s-9.5 -27.166 -15.5 -38.499s-12 -20.333 -18 -27s-10.667 -10 -14 -10c-4.66699 0 -8.5 1.66699 -11.5 5s-4.5 6.66602 -4.5 9.99902
c0 2.66699 1 5.33398 3 8.00098c9.33301 12 16.666 23.667 21.999 35s9.16602 21.5 11.499 30.5s3.83301 17.167 4.5 24.5s1.33398 13 2.00098 17c0 5.33301 -1 13 -3 23s-6 19.833 -12 29.5s-14.167 18.167 -24.5 25.5s-23.833 11 -40.5 11c-36 0 -65.167 -10 -87.5 -30
s-39.833 -45.667 -52.5 -77s-21.334 -66.5 -26.001 -105.5s-7 -77.167 -7 -114.5c0 -36 0.833008 -69.5 2.5 -100.5s4.16699 -62.167 7.5 -93.5c65.333 1.33301 123.833 2.33301 175.5 3s97.5 1 137.5 1c10 0 20.167 -0.666992 30.5 -2s15.5 -6.66602 15.5 -15.999z" />
    <glyph glyph-name="g" unicode="g" horiz-adv-x="470" 
d="M391 165c0 -2 -1.00098 -3.99609 -3.00098 -5.99609l-52.5 -42.5c-20.333 -17 -41.5 -36.833 -63.5 -59.5c6 -44 14.5 -86.833 25.5 -128.5l32 -123.5c10.333 -40.667 19.5 -81.334 27.5 -122.001s12 -82.334 12 -125.001c0 -19.333 -1.66699 -40 -5 -62
s-9.5 -42.333 -18.5 -61s-21.167 -34.334 -36.5 -47.001s-34.666 -19 -57.999 -19c-30 0 -57.5 7.5 -82.5 22.5s-46.5 34.833 -64.5 59.5s-32 52.834 -42 84.501s-15 64.5 -15 98.5c0 43.333 6 85.166 18 125.499s27.5 78.333 46.5 114s40.5 69 64.5 100s48 58.833 72 83.5
l-2 45c0 9.33301 -1 14 -3 14c-14.667 -17.333 -30.667 -32.666 -48 -45.999c-15.333 -11.333 -32.666 -22 -51.999 -32s-39.666 -15 -60.999 -15s-39.666 2.5 -54.999 7.5s-27.833 11.833 -37.5 20.5s-16.834 19 -21.501 31s-7 24.667 -7 38
c0 23.333 6.16699 47.833 18.5 73.5s29.333 49.334 51 71.001s47 39.667 76 54s60.167 21.5 93.5 21.5c25.333 0 45 -3.5 59 -10.5s21 -13.5 21 -19.5c0 -3.33301 -1.66699 -5 -5 -5c-2 0 -4 1 -6 3c-6.66699 4.66699 -16.5 9 -29.5 13s-27.833 6 -44.5 6
c-28.667 0 -54.5 -6.16699 -77.5 -18.5s-42.5 -27.833 -58.5 -46.5s-28.333 -39.334 -37 -62.001s-13 -44.334 -13 -65.001c0 -25.333 7 -47 21 -65s36.667 -27 68 -27c21.333 0 40.833 5 58.5 15s33.167 21.333 46.5 34c15.333 14.667 29.333 31 42 49l2 27
c0.666992 7.33301 1.16699 14.666 1.5 21.999s1.16602 13.333 2.49902 18c1.33301 4 3 9.83301 5 17.5s4.5 15.167 7.5 22.5s6.5 13.666 10.5 18.999s8.33301 8 13 8c5.33301 -0.666992 8.66602 -2.5 9.99902 -5.5s2 -6.83301 2 -11.5c0 -8 -1.33301 -16.667 -4 -26
s-5.83398 -18.5 -9.50098 -27.5s-7.5 -17.5 -11.5 -25.5s-7.33301 -15 -10 -21c0 -14 0.5 -27.667 1.5 -41s2.16699 -26.666 3.5 -39.999c21.333 21.333 41.333 39.5 60 54.5s34.334 27.167 47.001 36.5c2.66699 1.33301 5 2 7 2c5.33301 0 8 -1.66699 8 -5z
M350.999 -460.996c0 16 -2.00293 35.6699 -6.00293 59.0029s-9.16699 48.833 -15.5 76.5l-21 87.5l-22.5 93c-7.33301 31.333 -14.166 62.333 -20.499 93s-11.166 59.667 -14.499 87c-22 -23.333 -43.333 -48.833 -64 -76.5s-39 -57.334 -55 -89.001s-29 -65.167 -39 -100.5
s-15 -72 -15 -110c0 -13.333 0.666992 -29.333 2 -48s4.33301 -38.167 9 -58.5s11.167 -40.5 19.5 -60.5s19.333 -37.833 33 -53.5s30.334 -28.334 50.001 -38.001s43.167 -14.5 70.5 -14.5c28 0 49.833 13.167 65.5 39.5s23.5 64.166 23.5 113.499z" />
    <glyph glyph-name="h" unicode="h" horiz-adv-x="564" 
d="M577 205l-14.5039 -30.501c-5 -10.333 -11.167 -20.5 -18.5 -30.5c-22 -31.333 -42 -57.833 -60 -79.5s-34.5 -39.167 -49.5 -52.5s-28.667 -22.833 -41 -28.5s-23.5 -8.5 -33.5 -8.5c-14.667 0 -27.667 5.33301 -39 16s-21.5 23.834 -30.5 39.501
s-17.5 32.834 -25.5 51.501s-16.333 35.834 -25 51.501s-18.167 28.834 -28.5 39.501s-22.5 16 -36.5 16c-22 0 -40.833 -5.16699 -56.5 -15.5s-29.167 -23.166 -40.5 -38.499s-21 -32 -29 -50s-15 -34.667 -21 -50c-3.33301 -8 -5.5 -17.167 -6.5 -27.5
s-2.5 -17.833 -4.5 -22.5c-1.33301 -4 -3.66602 -7.83301 -6.99902 -11.5s-7.33301 -5.5 -12 -5.5c-10 0 -15 5.66699 -15 17c0 6 0.333008 11.167 1 15.5s1.5 8.5 2.5 12.5s1.83301 8.5 2.5 13.5s1 11.5 1 19.5c0 65.333 -1.66699 121.333 -5 168
s-6.83301 86.5 -10.5 119.5s-7.16699 60.833 -10.5 83.5s-5 43 -5 61c0 45.333 3.66699 84.666 11 117.999s16.833 60.833 28.5 82.5s25.167 37.834 40.5 48.501s31 16 47 16c34.667 0 59.167 -10.167 73.5 -30.5s21.5 -47.5 21.5 -81.5
c0 -30.667 -4.83301 -64.667 -14.5 -102s-22.334 -75.333 -38.001 -114s-33 -76.334 -52 -113.001s-37.833 -69.334 -56.5 -98.001c1.33301 -20.667 2.5 -41.834 3.5 -63.501s1.5 -43.834 1.5 -66.501v-6c0 -2.66699 0.333008 -4 1 -4c10.667 28 24.334 53 41.001 75
c14 18.667 31.5 35.667 52.5 51s45.5 23 73.5 23c16.667 0 30.834 -5.16699 42.501 -15.5s22 -23 31 -38s17.167 -31.5 24.5 -49.5s14.833 -34.5 22.5 -49.5s16.334 -27.667 26.001 -38s20.834 -15.5 33.501 -15.5c16.667 0 37 10.333 61 31s54 57 90 109
c6.66699 9.33301 12.667 19.5 18 30.5l16 32.5zM147.996 623.999c0 30.667 -5.5 55.501 -16.5 74.501s-29.5 28.5 -55.5 28.5c-18.667 0 -33.667 -8.33301 -45 -25s-20 -36.167 -26 -58.5s-9.83301 -45.333 -11.5 -69s-2.5 -42.5 -2.5 -56.5c0 -28 3.33301 -66.667 10 -116
s12.667 -107 18 -173c13.333 21.333 27.5 48.166 42.5 80.499s29 66.833 42 103.5s23.667 73.5 32 110.5s12.5 70.5 12.5 100.5z" />
    <glyph glyph-name="i" unicode="i" horiz-adv-x="310" 
d="M39 442c0 -7.33301 -1.66699 -15.001 -5 -23.001s-10.333 -12 -21 -12c-6 0.666992 -11 2.33398 -15 5.00098c-3.33301 2.66699 -6.5 6.5 -9.5 11.5s-4.5 11.833 -4.5 20.5c0 8 2 15.667 6 23s10.667 11 20 11c12.667 0 20.667 -3.5 24 -10.5s5 -15.5 5 -25.5z
M322 204.999c-4.66699 -10 -9.83789 -19.9971 -15.5049 -29.9971l-17.5 -31c-8 -14.667 -20 -31.334 -36 -50.001s-33.667 -36.167 -53 -52.5s-39.666 -30 -60.999 -41s-41.666 -16.5 -60.999 -16.5c-13.333 0 -25.666 3.16699 -36.999 9.5s-21.333 16.666 -30 30.999
s-15.334 33.166 -20.001 56.499s-7 52.333 -7 87c0 13.333 0.333008 26 1 38s1.33398 22.667 2.00098 32c0.666992 8 4.83398 12.667 12.501 14s12.834 2 15.501 2c2 0 3.66699 -1.33301 5 -4c0.666992 -1.33301 1 -3 1 -5c-1.33301 -8 -2.33301 -17.333 -3 -28
s-1 -22 -1 -34c0 -56.667 8.16699 -98 24.5 -124s37.166 -39 62.499 -39c24.667 0 51.334 11.167 80.001 33.5s57 53.5 85 93.5c6.66699 10 12.667 20.333 18 31l16 32z" />
    <glyph glyph-name="j" unicode="j" horiz-adv-x="250" 
d="M33 442c0 -7.33301 -1.66699 -15.001 -5 -23.001s-10.333 -12 -21 -12c-6 0.666992 -11 2.33398 -15 5.00098c-3.33301 2.66699 -6.5 6.5 -9.5 11.5s-4.5 11.833 -4.5 20.5c0 8 2 15.667 6 23s10.667 11 20 11c12.667 0 20.667 -3.5 24 -10.5s5 -15.5 5 -25.5z
M118 -414.001c0 -31.333 -3.16504 -62.6641 -9.49805 -93.9971s-15.833 -59.333 -28.5 -84s-28.667 -44.667 -48 -60s-42 -23 -68 -23c-36 0 -66 9.5 -90 28.5s-43.5 42.167 -58.5 69.5s-25.667 56.166 -32 86.499s-9.5 57.166 -9.5 80.499c0 28 4.33301 58.667 13 92
s19.167 65.5 31.5 96.5s25.833 59.333 40.5 85s28 45.5 40 59.5c18 21.333 36 41.166 54 59.499l51 50.5c-4.66699 32 -8.33398 65.167 -11.001 99.5s-4 70.5 -4 108.5c0 9.33301 2.66699 15 8 17s12.666 3 21.999 3c2.66699 0 4.5 -0.5 5.5 -1.5s1.5 -4.16699 1.5 -9.5
c0 -32.667 1.16699 -64.334 3.5 -95.001s5.16602 -60.667 8.49902 -90l39.5 34.5c11 9.66699 19.833 17.167 26.5 22.5c0.666992 0.666992 2 1 4 1c5.33301 0 8 -2.33301 8 -7c0 -3.33301 -2 -6.33301 -6 -9c-13.333 -9.33301 -25.666 -18.666 -36.999 -27.999l-33 -28
c6.66699 -47.333 14.5 -92.5 23.5 -135.5l25.5 -123c8 -39 14.833 -75.667 20.5 -110s8.5 -66.5 8.5 -96.5zM91.002 -444.999c0 34.667 -3.16895 69.665 -9.50195 104.998s-13.833 72 -22.5 110l-27.5 118.5c-9.66699 41 -18.167 84.5 -25.5 130.5
c-18 -17.333 -34.333 -34.333 -49 -51l-41 -48c-13.333 -16 -26.666 -36 -39.999 -60s-25.166 -49.833 -35.499 -77.5s-18.833 -56 -25.5 -85s-10 -56.833 -10 -83.5c0 -27.333 2.66699 -57 8 -89s14.166 -61.667 26.499 -89s28.5 -50.166 48.5 -68.499
s44.333 -27.5 73 -27.5c26 0 47.5 7.33301 64.5 22s30.333 32.834 40 54.501s16.334 45 20.001 70s5.5 47.833 5.5 68.5z" />
    <glyph glyph-name="k" unicode="k" horiz-adv-x="501" 
d="M513 205l-14.5 -31.001c-5 -10.667 -11.167 -20.667 -18.5 -30c-36.667 -52 -78.5 -92.833 -125.5 -122.5s-93.167 -44.5 -138.5 -44.5c-28.667 0 -56 6.5 -82 19.5s-49 33.833 -69 62.5c-2.66699 4 -4 7 -4 9c0 3.33301 1.16699 5.66602 3.5 6.99902
s5.16602 2 8.49902 2c2 0 4.33301 -0.666992 7 -2c5.33301 0 11.5 -1.83301 18.5 -5.5s17.167 -5.5 30.5 -5.5c20.667 0 40 3.66699 58 11s33.5 16.833 46.5 28.5s23.167 25 30.5 40s11 30.5 11 46.5c0 20 -5.16699 37.333 -15.5 52s-27.833 22 -52.5 22
c-25.333 0 -48.666 -8.83301 -69.999 -26.5s-40.5 -39 -57.5 -64s-31.5 -51.333 -43.5 -79s-21 -51.834 -27 -72.501c-3.33301 -11.333 -6.33301 -18.333 -9 -21s-5.66699 -4 -9 -4s-6 1.66699 -8 5s-2.66699 8.66602 -2 15.999c0 6 0.333008 13.333 1 22
s1.33398 18 2.00098 28s1.16699 20.167 1.5 30.5s0.5 19.833 0.5 28.5c0 30 -0.666992 64.5 -2 103.5s-2.83301 79.333 -4.5 121l-5 124.5c-1.66699 41.333 -2.5 79.333 -2.5 114c0 27.333 2 53.833 6 79.5s10.333 48.334 19 68.001s19.667 35.334 33 47.001
s29 17.5 47 17.5c18.667 0 34.5 -3.16699 47.5 -9.5s23.5 -15.333 31.5 -27s13.833 -25.667 17.5 -42s5.5 -34.166 5.5 -53.499c0 -32.667 -4.66699 -69 -14 -109s-21.666 -80 -36.999 -120s-32.833 -78.5 -52.5 -115.5s-39.834 -69.167 -60.501 -96.5
c1.33301 -20 2.16602 -40.667 2.49902 -62s1.16602 -44 2.49902 -68c16 35.333 34.333 66.333 55 93c8.66699 11.333 18.5 22.5 29.5 33.5s22.667 20.833 35 29.5s25.666 15.667 39.999 21s29.5 8 45.5 8c25.333 0 47.333 -6.33301 66 -19s28 -33 28 -61
c0 -26.667 -6.5 -49.334 -19.5 -68.001s-29.167 -34 -48.5 -46s-40 -21.167 -62 -27.5s-42 -10.166 -60 -11.499c-1.33301 0 -2 -0.333008 -2 -1s1 -2.66699 3 -6c13.333 -15.333 28.333 -26.333 45 -33s34 -10 52 -10c22 0 44.333 4.16699 67 12.5s44.334 19.333 65.001 33
s39.834 29.334 57.501 47.001s32.167 35.5 43.5 53.5c6.66699 10 12.667 20.333 18 31l16 32zM151 651.999c0 37.333 -6.16699 67.666 -18.5 90.999s-32.833 35 -61.5 35c-10 0 -19.167 -3.16699 -27.5 -9.5s-15.5 -14.833 -21.5 -25.5s-10.667 -23 -14 -37s-5 -29 -5 -45
c0 -44 0.333008 -84 1 -120s1.5 -70 2.5 -102s2.16699 -63 3.5 -93l4 -92c19.333 26 37.333 55.833 54 89.5s31.167 68.334 43.5 104.001s22 71.167 29 106.5s10.5 68 10.5 98z" />
    <glyph glyph-name="l" unicode="l" horiz-adv-x="403" 
d="M415 205c-4.66699 -10 -9.66797 -20.1641 -15.001 -30.4971s-11.333 -20.5 -18 -30.5c-38 -55.333 -75 -95.333 -111 -120s-70 -37 -102 -37c-29.333 0 -56.5 9.16699 -81.5 27.5s-46.5 43.666 -64.5 75.999s-32 70.666 -42 114.999s-15 92.166 -15 143.499
c0 75.333 5.16699 140.833 15.5 196.5s23.5 101.834 39.5 138.501s33.333 64 52 82s36 27 52 27c17.333 0 31.5 -9.5 42.5 -28.5s16.5 -47.167 16.5 -84.5c0 -48.667 -12.333 -111.5 -37 -188.5s-68 -168.167 -130 -273.5c7.33301 -28.667 16.5 -55.5 27.5 -80.5
s23.667 -46.833 38 -65.5s30 -33.334 47 -44.001s35.5 -16 55.5 -16c26 0 53.833 10.5 83.5 31.5s60.834 55.5 93.501 103.5c6.66699 10 12.667 20.333 18 31l16 32zM156.999 659.003c0 34.667 -4.66895 61.001 -14.002 79.001s-20.666 27 -33.999 27
c-12 0 -24.5 -7.33301 -37.5 -22s-25.167 -37.5 -36.5 -68.5s-20.666 -70.167 -27.999 -117.5s-11 -104 -11 -170c0 -24.667 1.33301 -49.334 4 -74.001s6.66699 -48.667 12 -72c54 92 91.667 173.333 113 244s32 128.667 32 174z" />
    <glyph glyph-name="m" unicode="m" horiz-adv-x="687" 
d="M699 205c-4.66699 -10 -9.66895 -20.1689 -15.002 -30.502s-11.333 -20.5 -18 -30.5c-33.333 -50.667 -67.5 -88.334 -102.5 -113.001s-67.5 -37 -97.5 -37c-16 0 -31 2.83301 -45 8.5s-26.167 16.167 -36.5 31.5s-18.5 36.833 -24.5 64.5s-9 63.5 -9 107.5
c0 6.66699 -1 10 -3 10c-2.66699 0 -8 -5.16699 -16 -15.5s-17.333 -23.333 -28 -39s-21.667 -32.834 -33 -51.501l-32.5 -52.5l-27 -42.5c-7.66699 -12 -12.5 -19.333 -14.5 -22c-4 -4 -8 -6 -12 -6c-6 0 -11.333 2.5 -16 7.5s-7 9.16699 -7 12.5c0 2 -0.166992 11 -0.5 27
s-0.5 33.833 -0.5 53.5s-0.166992 38.834 -0.5 57.501s-0.5 32 -0.5 40c0 2 -1 3 -3 3c-2.66699 0 -7.66699 -4.83301 -15 -14.5s-15.666 -21.667 -24.999 -36l-30 -47l-30 -47c-9.33301 -14.333 -17.833 -26.333 -25.5 -36s-13.167 -14.5 -16.5 -14.5
c-5.33301 0 -10.666 3.5 -15.999 10.5s-7.66602 13.5 -6.99902 19.5c0.666992 17.333 1.33398 33.333 2.00098 48s1 28.334 1 41.001c0 41.333 -1.33301 71.5 -4 90.5s-4 30.5 -4 34.5c0 8.66699 3.16699 15.834 9.5 21.501s11.166 8.5 14.499 8.5
c6.66699 0 10.834 -4.16699 12.501 -12.5s2.5 -15.5 2.5 -21.5v-192c0 -3.33301 1 -5 3 -5s4 1 6 3c0.666992 1.33301 4 6.33301 10 15l21.5 32l27 41.5l27 42.5l22.5 35c6.66699 10 10.667 16.333 12 19c4.66699 7.33301 9.16699 12.333 13.5 15s8.16602 4 11.499 4
c2.66699 -0.666992 5 -2 7 -4c1.33301 -1.33301 2.83301 -3.33301 4.5 -6s2.5 -6.33398 2.5 -11.001c1.33301 -48.667 2.33301 -86.5 3 -113.5s1.33398 -46.833 2.00098 -59.5s1.16699 -20.167 1.5 -22.5l0.5 -3.5c0.666992 0 4 4.66699 10 14l22 35l28 46l28.5 47.5
l23 38.5c6.33301 10.667 10.166 17.334 11.499 20.001c9.33301 17.333 17 28.833 23 34.5s11.333 8.5 16 8.5c8 0 13 -3.66699 15 -11s3 -16.333 3 -27c0 -5.33301 -0.166992 -10.666 -0.5 -15.999s-0.5 -11 -0.5 -17c0 -30 2.5 -56 7.5 -78s12 -40.167 21 -54.5
s19.667 -24.833 32 -31.5s25.166 -10 38.499 -10c25.333 0 52.5 10.667 81.5 32s57.5 52.333 85.5 93c6.66699 10 12.667 20.333 18 31l16 32z" />
    <glyph glyph-name="n" unicode="n" horiz-adv-x="521" 
d="M533 205c-4.66699 -10 -9.66602 -20.165 -14.999 -30.498s-11.333 -20.5 -18 -30.5c-33.333 -50.667 -67.5 -88.334 -102.5 -113.001s-67.5 -37 -97.5 -37c-16 0 -31 2.83301 -45 8.5s-26.167 16.167 -36.5 31.5s-18.5 36.833 -24.5 64.5s-9 63.5 -9 107.5
c0 6.66699 -1 10 -3 10c-2.66699 0 -8 -5.5 -16 -16.5s-17.333 -24.667 -28 -41s-21.667 -34.333 -33 -54l-32.5 -56l-27 -45c-7.66699 -12.333 -12.5 -19.833 -14.5 -22.5c-4 -4 -8 -6 -12 -6c-6 0 -11.333 2.5 -16 7.5s-7 9.16699 -7 12.5v17c0 10 -0.166992 22 -0.5 36
s-0.5 29.333 -0.5 46s-0.166992 32.834 -0.5 48.501s-0.5 29.5 -0.5 41.5v26c0 4.66699 -1.16699 9.66699 -3.5 15s-3.5 10.666 -3.5 15.999c0 3.33301 2.5 8.66602 7.5 15.999s11.5 11 19.5 11c2.66699 -0.666992 5 -2 7 -4c1.33301 -1.33301 2.83301 -3.33301 4.5 -6
s2.5 -6.33398 2.5 -11.001c1.33301 -48.667 2.33301 -88.334 3 -119.001s1.33398 -54.667 2.00098 -72s1.16699 -29.166 1.5 -35.499l0.5 -9.5c0.666992 0 4 5 10 15l22 37.5l28 49l28.5 50l23 41c6.33301 11.667 10.166 18.5 11.499 20.5c9.33301 17.333 17 28.833 23 34.5
s11.333 8.5 16 8.5c8 0 13 -3.66699 15 -11s3 -16.333 3 -27c0 -5.33301 -0.166992 -10.666 -0.5 -15.999s-0.5 -11 -0.5 -17c0 -30 2.5 -56 7.5 -78s12 -40.167 21 -54.5s19.667 -24.833 32 -31.5s25.166 -10 38.499 -10c25.333 0 52.5 10.667 81.5 32s57.5 52.333 85.5 93
c6.66699 10 12.667 20.333 18 31l16 32z" />
    <glyph glyph-name="o" unicode="o" horiz-adv-x="415" 
d="M431 213c-17.333 -40.667 -38.833 -69.1699 -64.5 -85.5029s-54.5 -24.5 -86.5 -24.5c-6.66699 0 -13.167 0.166992 -19.5 0.5s-12.5 0.833008 -18.5 1.5c-2.66699 -18 -7.33398 -35 -14.001 -51s-15.167 -30 -25.5 -42s-22.833 -21.5 -37.5 -28.5
s-31.334 -10.5 -50.001 -10.5c-26 0 -47.833 4.33301 -65.5 13s-32 20.334 -43 35.001s-18.833 31.334 -23.5 50.001s-7 37.667 -7 57s2.16699 38.333 6.5 57s10 35.167 17 49.5s15.167 26 24.5 35s19 13.5 29 13.5c3.33301 0 5.83301 -1.33301 7.5 -4s2.5 -5.66699 2.5 -9
c0 -2 -0.5 -4 -1.5 -6s-2.83301 -3.33301 -5.5 -4c-8 -2.66699 -15.667 -8.33398 -23 -17.001c-6 -7.33301 -11.5 -18.333 -16.5 -33s-7.5 -34.667 -7.5 -60c0 -20.667 2.66699 -40.167 8 -58.5s13 -34.166 23 -47.499s22.333 -23.833 37 -31.5s31.334 -11.5 50.001 -11.5
c29.333 0 52.333 10.5 69 31.5s27.334 46.167 32.001 75.5c-26.667 5.33301 -50 13.666 -70 24.999s-36.667 24.333 -50 39s-23.166 29.834 -29.499 45.501s-9.5 30.167 -9.5 43.5c0 14 3.5 25.667 10.5 35s17.5 14 31.5 14c22 0 41.5 -4.83301 58.5 -14.5
s31 -22.5 42 -38.5s19.333 -34.167 25 -54.5s8.5 -41.166 8.5 -62.499v-8c16.667 -3.33301 32.667 -5 48 -5c23.333 0 45.666 7.16699 66.999 21.5s39.333 39.5 54 75.5zM230 136.997c0 19.333 -2.49902 38.166 -7.49902 56.499s-12.667 35 -23 50s-23.333 27 -39 36
s-33.834 13.5 -54.501 13.5c-10 0 -15 -6.33301 -15 -19c0 -8.66699 3 -19.667 9 -33s14.833 -26.666 26.5 -39.999s26.167 -26 43.5 -38s37.333 -21.333 60 -28v2z" />
    <glyph glyph-name="p" unicode="p" horiz-adv-x="536" 
d="M409 192c0 -26 -6.33594 -51.001 -19.0029 -75.001s-29.334 -45 -50.001 -63s-44 -32.333 -70 -43s-52 -16 -78 -16c-7.33301 0 -15.166 0.5 -23.499 1.5s-16 2.5 -23 4.5s-12.667 4.33301 -17 7s-6.5 6 -6.5 10c0 4.66699 3 7 9 7c2 0 3.83301 -0.833008 5.5 -2.5
s4.66699 -3.5 9 -5.5s10.666 -3.83301 18.999 -5.5s20.166 -2.5 35.499 -2.5c24 0 46.167 4.83301 66.5 14.5s38 22.5 53 38.5s26.667 34.333 35 55s12.5 41.667 12.5 63c0 28.667 -9.16699 49 -27.5 61s-40.166 18 -65.499 18c-34 0 -67.5 -8 -100.5 -24
s-64.5 -38 -94.5 -66c4.66699 -41.333 11 -83.666 19 -126.999l24 -130c8 -43.333 14.833 -86.166 20.5 -128.499s8.5 -82.833 8.5 -121.5c0 -22 -2.33301 -45.5 -7 -70.5s-12.167 -48 -22.5 -69s-24.166 -38.5 -41.499 -52.5s-39 -21 -65 -21
c-25.333 0 -48.5 8.16699 -69.5 24.5s-39 37.166 -54 62.499s-26.667 53.166 -35 83.499s-12.5 59.5 -12.5 87.5c0 42.667 5.33301 84.834 16 126.501s25 81.667 43 120s39.333 74.5 64 108.5s51 64.667 79 92c-3.33301 31.333 -6.16602 63 -8.49902 95s-3.5 65 -3.5 99
c0 7.33301 1.33301 13.166 4 17.499s5.66699 7.83301 9 10.5s7.33301 4.66699 12 6c4 0 7.66699 -1.33301 11 -4s5.33301 -6.66699 6 -12c0 -14 -0.666992 -27.667 -2 -41s-2 -28.666 -2 -45.999c0 -30.667 2 -62.667 6 -96c36.667 31.333 74.167 55.833 112.5 73.5
s75.5 26.5 111.5 26.5c19.333 0 35.833 -2.5 49.5 -7.5s24.834 -11.667 33.501 -20s14.834 -18 18.501 -29s5.5 -22.5 5.5 -34.5zM122.997 -406.001c0 46 -2.66699 91.1689 -8 135.502s-12 88.833 -20 133.5l-25 135c-8.66699 45.333 -16 92 -22 140
c-26 -27.333 -50 -57.833 -72 -91.5s-41 -68.667 -57 -105s-28.5 -73 -37.5 -110s-13.5 -72.5 -13.5 -106.5c0 -28.667 3 -58.334 9 -89.001s15.333 -58.5 28 -83.5s28.5 -45.667 47.5 -62s41.5 -24.5 67.5 -24.5c20 0 36.667 4.16699 50 12.5s23.833 18.666 31.5 30.999
s13.167 26 16.5 41s5 29.5 5 43.5z" />
    <glyph glyph-name="q" unicode="q" horiz-adv-x="535" 
d="M547 205c-4.66699 -10 -9.83594 -20.0088 -15.5029 -30.0088l-17.5 -31c-14.667 -26 -30.834 -50 -48.501 -72s-36 -42.167 -55 -60.5s-37.833 -34.666 -56.5 -48.999s-36 -26.833 -52 -37.5v-42c0 -10 -0.333008 -20.667 -1 -32c16 -11.333 32.667 -25.166 50 -41.499
s33.333 -36 48 -59s26.834 -49.333 36.501 -79s14.5 -62.834 14.5 -99.501c0 -13.333 -1.83301 -32 -5.5 -56s-9.83398 -47.833 -18.501 -71.5s-19.5 -44.167 -32.5 -61.5s-29.167 -26 -48.5 -26c-15.333 0 -28 8.66699 -38 26s-18 38 -24 62s-10.167 48.833 -12.5 74.5
s-3.5 47.167 -3.5 64.5v263c-32.667 17.333 -66 26 -100 26c-10 0 -15 3.33301 -15 10c0 7.33301 8.33301 11 25 11c7.33301 0 18.833 2.66699 34.5 8s34.167 13.666 55.5 24.999v125l1 2l-1 1c-16.667 -16 -34.667 -30 -54 -42c-16.667 -10.667 -35.667 -20.5 -57 -29.5
s-43.666 -13.5 -66.999 -13.5c-24 0 -44.5 3.16699 -61.5 9.5s-31.167 14.833 -42.5 25.5s-19.5 23.334 -24.5 38.001s-7.5 30 -7.5 46c0 24.667 5.33301 50 16 76s25.667 49.833 45 71.5s42.333 39.334 69 53.001s56 20.5 88 20.5c25.333 0 45 -3.5 59 -10.5
s21 -13.5 21 -19.5c0 -3.33301 -1.66699 -5 -5 -5c-2 0 -4 1 -6 3c-6.66699 4.66699 -16.5 9 -29.5 13s-27.833 6 -44.5 6c-26 0 -49.5 -5.5 -70.5 -16.5s-38.833 -25.333 -53.5 -43s-26 -37.167 -34 -58.5s-12 -42.333 -12 -63c0 -15.333 2.33301 -30 7 -44
s11.834 -26.333 21.501 -37s21.834 -19.167 36.501 -25.5s32.334 -9.5 53.001 -9.5s39.834 3.5 57.501 10.5s33.167 15 46.5 24s24.5 18.333 33.5 28s15.5 16.834 19.5 21.501c0 6 0.5 15.333 1.5 28s3 25.334 6 38.001s7.33301 23.834 13 33.501s13.5 14.5 23.5 14.5
c6.66699 0 11.167 -2.83301 13.5 -8.5s3.5 -11.167 3.5 -16.5c0 -4 -0.833008 -9.16699 -2.5 -15.5s-3.83398 -12.833 -6.50098 -19.5l-7 -18l-5 -13c-0.666992 -8.66699 -1.66699 -17.667 -3 -27c-1.33301 -8 -2.33301 -17.333 -3 -28s-1 -21.667 -1 -33
c0 -5.33301 -0.166992 -14.166 -0.5 -26.499s-0.5 -27.166 -0.5 -44.499c32 20.667 65.333 47.334 100 80.001s65 72.334 91 119.001l17.5 31.5l16.5 31.5zM266.998 -98.0088l-17.5 -9c-5 -2.66699 -9.16699 -4.66699 -12.5 -6
c2.66699 -0.666992 5.33398 -1.66699 8.00098 -3c5.33301 -2 12.666 -5.66699 21.999 -11v29zM420.998 -437.009c0 58.667 -11.333 110.5 -34 155.5s-51.667 80.833 -87 107.5l-4 -246c0 -16.667 0.5 -36.667 1.5 -60s3.16699 -45.833 6.5 -67.5s8.5 -40 15.5 -55
s16.167 -22.5 27.5 -22.5c17.333 0 30.833 7.83301 40.5 23.5s17 34 22 55s8.16699 42 9.5 63s2 36.5 2 46.5z" />
    <glyph glyph-name="r" unicode="r" horiz-adv-x="365" 
d="M377 205c-13.333 -29.333 -29.6699 -58.334 -49.0029 -87.001s-39.333 -54.5 -60 -77.5s-41.334 -41.5 -62.001 -55.5s-39 -21 -55 -21c-16.667 0 -30 8.33301 -40 25s-15 44.667 -15 84c0 6 0.5 13.833 1.5 23.5l3 29.5c1 10 2.33301 19.333 4 28
s2.83398 15.334 3.50098 20.001c-6 0 -13.167 3.83301 -21.5 11.5s-16.666 16.167 -24.999 25.5l-22 25.5c-6.33301 7.66699 -10.166 11.5 -11.499 11.5c-0.666992 0 -1.5 -2.16699 -2.5 -6.5s-2.83301 -10 -5.5 -17s-5.83398 -14.667 -9.50098 -23
s-8.16699 -16.833 -13.5 -25.5l-15 10c14.667 26 23.5 49.5 26.5 70.5s4.5 36.833 4.5 47.5c0 5.33301 1.16699 9.66602 3.5 12.999s4.5 5 6.5 5c3.33301 0 6 -1.16699 8 -3.5s4.66699 -7.16602 8 -14.499c4.66699 -12 11.334 -23 20.001 -33s17.834 -18.5 27.501 -25.5
s19.167 -12.667 28.5 -17s17.333 -6.83301 24 -7.5c1.33301 0 2.83301 -1.66699 4.5 -5s2.5 -6.66602 2.5 -9.99902s-1.33301 -7 -4 -11s-5.5 -9 -8.5 -15s-5.5 -13.333 -7.5 -22s-2.66699 -19.334 -2 -32.001c2 -44 8.66699 -75.167 20 -93.5s24.333 -27.5 39 -27.5
c13.333 0 27.5 6 42.5 18s30.333 27.833 46 47.5s31 41.667 46 66s28.5 48.833 40.5 73.5z" />
    <glyph glyph-name="s" unicode="s" horiz-adv-x="403" 
d="M415 205l-14.502 -30.501c-5 -10.333 -10.833 -20.166 -17.5 -29.499c-20 -30 -44.667 -56.167 -74 -78.5s-60.166 -41 -92.499 -56s-65 -26.167 -98 -33.5s-63.5 -11 -91.5 -11c-14 0 -21 2.66699 -21 8c0 3.33301 1.66699 5.83301 5 7.5s6.66602 2.5 9.99902 2.5
c18 1.33301 37.333 5.5 58 12.5s39.834 15.5 57.501 25.5s32.334 21 44.001 33s17.5 23.333 17.5 34c0 12.667 -6.5 23 -19.5 31s-29.333 14.833 -49 20.5s-40.834 10.667 -63.501 15s-43.834 9 -63.501 14s-36 11.167 -49 18.5s-19.5 16.666 -19.5 27.999
s7.66699 22.666 23 33.999s33.833 21.666 55.5 30.999s43.834 17 66.501 23s41.334 9 56.001 9c15.333 0 26 -0.833008 32 -2.5s9 -4.16699 9 -7.5c0 -4.66699 -5.66699 -10.667 -17 -18s-25 -15.333 -41 -24l-50.5 -27c-17.667 -9.33301 -32.834 -18.666 -45.501 -27.999
c19.333 -4.66699 41.166 -9.66699 65.499 -15s47.333 -11.666 69 -18.999s40 -16.333 55 -27s22.5 -24 22.5 -40c0 -10 -3.66699 -20.167 -11 -30.5s-15.666 -19.833 -24.999 -28.5c-10.667 -10 -23 -19.333 -37 -28c0 -1.33301 1.66699 -2 5 -2
c5.33301 0 15.833 2.5 31.5 7.5s33.334 12.833 53.001 23.5s39.667 24.334 60 41.001s37.833 37 52.5 61c6 10 11.667 20.167 17 30.5l16 30.5zM124.998 283.999c0 0.666992 -1.66602 0.998047 -4.99902 0.998047c-7.33301 0 -19 -1.66699 -35 -5
s-32.333 -7.66602 -49 -12.999s-31.167 -11.166 -43.5 -17.499s-18.5 -12.833 -18.5 -19.5c0 -4 2.66699 -7.5 8 -10.5s12.666 -5.83301 21.999 -8.5c11.333 9.33301 24 18 38 26s27.167 15.167 39.5 21.5l31 16c8.33301 4.33301 12.5 7.5 12.5 9.5z" />
    <glyph glyph-name="t" unicode="t" horiz-adv-x="280" 
d="M360 499c0 -4 -1.33105 -7.83105 -3.99805 -11.498s-8.66699 -5.5 -18 -5.5h-44.5h-51.5c-18 0 -36.167 -0.166992 -54.5 -0.5s-35.833 -0.5 -52.5 -0.5c-5.33301 -26.667 -11.833 -53.167 -19.5 -79.5s-16.167 -51.333 -25.5 -75s-19.333 -45.5 -30 -65.5
s-21.667 -37 -33 -51c8.66699 -32.667 19.334 -62.834 32.001 -90.501s28.167 -51.5 46.5 -71.5s39.666 -35.667 63.999 -47s51.833 -17 82.5 -17c4 0 7.83301 0.333008 11.5 1s6.83398 1 9.50098 1s4.5 -1 5.5 -3s1.5 -3.66699 1.5 -5c0 -4.66699 -4.5 -8 -13.5 -10
s-18.5 -3 -28.5 -3c-35.333 0 -66.666 6.66699 -93.999 20s-51.333 31.5 -72 54.5s-38.334 49.667 -53.001 80s-26.5 62.666 -35.5 96.999s-15.5 69.333 -19.5 105s-6 70.167 -6 103.5v17.5c0 6.33301 0.333008 12.166 1 17.499c0.666992 6.66699 1 13 1 19
c-37.333 -0.666992 -69.333 -1.5 -96 -2.5s-49.167 -2 -67.5 -3l-44.5 -2.5c-11.333 -0.666992 -20.333 -1 -27 -1c-6 0 -11 2 -15 6s-6 9.33301 -6 16c0 4.66699 2.16699 8.83398 6.5 12.501s13.166 6.16699 26.499 7.5c8.66699 0.666992 20.667 1.16699 36 1.5
s33 0.833008 53 1.5s41.667 1.16699 65 1.5s47.666 0.5 72.999 0.5c2.66699 26 6.66699 52.5 12 79.5s12.666 51.5 21.999 73.5s20.833 40.167 34.5 54.5s30.167 21.5 49.5 21.5c24 0 41.167 -12.5 51.5 -37.5s15.5 -56.833 15.5 -95.5c0 -14.667 -0.666992 -30 -2 -46
s-3.33301 -32.333 -6 -49c42 0.666992 80.333 1 115 1h83c14 0 21 -6.66699 21 -20zM122.002 597.002c0 37.333 -3.99707 68.167 -11.9971 92.5s-20.667 36.5 -38 36.5c-12.667 0 -23.334 -7.33301 -32.001 -22s-15.834 -32.667 -21.501 -54s-9.83398 -44 -12.501 -68
s-4.66699 -45.667 -6 -65c19.333 0.666992 38.833 1 58.5 1h58.5c1.33301 14 2.5 27.5 3.5 40.5s1.5 25.833 1.5 38.5zM-0.995117 480.003c0 -43.333 1.83105 -86.332 5.49805 -128.999s9.83398 -83.334 18.501 -122.001c10.667 13.333 20.5 29.333 29.5 48s17.333 39 25 61
s14.334 45.167 20.001 69.5s10.5 48.5 14.5 72.5h-113z" />
    <glyph glyph-name="u" unicode="u" horiz-adv-x="523" 
d="M535 205c-4.66699 -10 -9.66992 -20.1719 -15.0029 -30.5049s-11.333 -20.5 -18 -30.5c-33.333 -50.667 -65 -88.167 -95 -112.5s-57.333 -36.5 -82 -36.5c-38.667 0 -67 27.333 -85 82c0.666992 0 -2.16602 -5 -8.49902 -15s-15.166 -21.167 -26.499 -33.5
s-25 -23.5 -41 -33.5s-33.667 -15 -53 -15c-24 0 -44.167 5.66699 -60.5 17s-29.5 25.833 -39.5 43.5s-17.167 37.167 -21.5 58.5s-6.5 42 -6.5 62c0 26.667 3 49.667 9 69s13.333 29 22 29c4 0 7 -0.5 9 -1.5s3 -3.5 3 -7.5c0 -7.33301 -1.16699 -16.166 -3.5 -26.499
s-3.5 -25.166 -3.5 -44.499c0 -16.667 1 -34.5 3 -53.5s6.83301 -36.833 14.5 -53.5s19.167 -30.5 34.5 -41.5s36.333 -16.5 63 -16.5c20.667 0 37.334 5.16699 50.001 15.5s22.667 21.5 30 33.5c8.66699 14 15 30 19 48c-0.666992 8 -1.66699 17 -3 27
c-1.33301 8.66699 -2.16602 18.834 -2.49902 30.501s-0.833008 24.167 -1.5 37.5c0 12.667 1 22.834 3 30.501s4.33301 13.5 7 17.5s5.5 6.66699 8.5 8s5.83301 2 8.5 2c5.33301 -0.666992 10 -3.5 14 -8.5s6 -11.833 6 -20.5c0 -4 -0.333008 -10.167 -1 -18.5
s-1.33398 -17.333 -2.00098 -27l-2 -30c-0.666992 -10.333 -1 -20.166 -1 -29.499c6 -39.333 14.833 -68 26.5 -86s26.167 -27 43.5 -27c19.333 0 41.333 11.333 66 34s51 54.667 79 96c6.66699 10 12.667 20.333 18 31l16 32z" />
    <glyph glyph-name="v" unicode="v" horiz-adv-x="391" 
d="M406 213c-15.333 -42 -35.333 -72.0049 -60 -90.0049s-49.667 -27 -75 -27c-15.333 0 -31.333 3.33301 -48 10c-7.33301 -17.333 -16.5 -34 -27.5 -50s-23 -30 -36 -42s-26.667 -21.667 -41 -29s-28.833 -11 -43.5 -11c-16.667 0 -30.5 9.66699 -41.5 29
s-19.833 42.833 -26.5 70.5s-11.167 56.834 -13.5 87.501s-3.5 57.334 -3.5 80.001c0 9.33301 1.83301 14.833 5.5 16.5s9.83398 2.5 18.501 2.5c7.33301 0 11.833 -2.83301 13.5 -8.5s2.5 -9.5 2.5 -11.5c0 -18 0.5 -40.667 1.5 -68s3.5 -53.666 7.5 -78.999
s9.66699 -47.166 17 -65.499s17.666 -27.5 30.999 -27.5c14.667 0 28.334 3.16699 41.001 9.5s24.167 15 34.5 26s19.166 23.5 26.499 37.5s13 28.333 17 43c-16.667 10.667 -30.167 24.5 -40.5 41.5s-15.5 36.167 -15.5 57.5s3.33301 36.833 10 46.5s14.667 14.5 24 14.5
c13.333 0 26.333 -8.16699 39 -24.5s19 -37.166 19 -62.499c0 -9.33301 -0.833008 -19 -2.5 -29s-4.16699 -20.333 -7.5 -31c12.667 -5.33301 26 -8 40 -8c22 0 43.833 7.83301 65.5 23.5s39.167 42.167 52.5 79.5zM212 159.995c0 11.333 -1.16797 22.166 -3.50098 32.499
s-5.16602 19.333 -8.49902 27s-6.83301 13.834 -10.5 18.501s-7.16699 7 -10.5 7c-6 0 -9 -7.66699 -9 -23c0 -17.333 3.66699 -32.833 11 -46.5s17.333 -25.167 30 -34.5c0.666992 2 1 4.33301 1 7v12z" />
    <glyph glyph-name="w" unicode="w" horiz-adv-x="557" 
d="M572 213c-15.333 -42 -35.334 -71.998 -60.001 -89.998s-49.667 -27 -75 -27c-6.66699 0 -11.667 0.333008 -15 1c-2.66699 -18.667 -7.5 -36.667 -14.5 -54s-15.667 -32.666 -26 -45.999s-22.833 -24 -37.5 -32s-31.667 -12 -51 -12
c-13.333 0 -25.666 2.66699 -36.999 8s-21.833 12 -31.5 20s-18 16.667 -25 26s-12.833 18 -17.5 26l-1 2l-1 1c-0.666992 0 -1.33398 -0.333008 -2.00098 -1s-1 -1.33398 -1 -2.00098c-2.66699 -6 -6.83398 -12.833 -12.501 -20.5s-12.167 -14.834 -19.5 -21.501
s-15.5 -12.334 -24.5 -17.001s-18.5 -7 -28.5 -7c-20.667 0 -37.667 6 -51 18s-23.833 27.333 -31.5 46s-12.834 39.334 -15.501 62.001s-4 44.334 -4 65.001c0 21.333 1 40.333 3 57s3.66699 27.667 5 33c1.33301 4 3.33301 7.66699 6 11c6 7.33301 15.667 11 29 11
c2.66699 0 4.66699 -2.66699 6 -8c0.666992 -2.66699 1 -5.66699 1 -9l-4 -35c-1.33301 -10 -2.33301 -20.833 -3 -32.5s-1 -22.834 -1 -33.501c0 -14.667 1 -30.834 3 -48.501s5.83301 -34.334 11.5 -50.001s13.834 -28.834 24.501 -39.501s24.334 -16 41.001 -16
c11.333 0 20.833 2.5 28.5 7.5s14 10.833 19 17.5s8.66699 13.334 11 20.001s3.83301 11.667 4.5 15c-3.33301 9.33301 -5.5 21.333 -6.5 36s-1.5 30 -1.5 46c0 7.33301 0.333008 16.5 1 27.5s1.83398 22 3.50098 33s4.16699 20.333 7.5 28s7.33301 11.5 12 11.5
c6 0 11.5 -6.5 16.5 -19.5s7.5 -25.5 7.5 -37.5c0 -13.333 -1.5 -25.166 -4.5 -35.499s-4.5 -21.166 -4.5 -32.499c0 -18 3 -34.833 9 -50.5s13.5 -29.167 22.5 -40.5s19 -20.166 30 -26.499s21.833 -9.5 32.5 -9.5c18 0 33.5 3.16699 46.5 9.5s23.667 14.666 32 24.999
s14.5 22.166 18.5 35.499s6.33301 27.333 7 42c-24.667 7.33301 -45.5 21.333 -62.5 42s-25.5 45 -25.5 73c0 23.333 3 39.833 9 49.5s13.333 14.5 22 14.5c8 0 16.667 -3.83301 26 -11.5s18 -17.667 26 -30s14.5 -26.833 19.5 -43.5s7.5 -34 7.5 -52v-10.5
c0 -3.66699 -0.333008 -7.16699 -1 -10.5h13c22 0 43.833 7.83301 65.5 23.5s39.167 42.167 52.5 79.5zM404.999 126.002c-1.33301 45.333 -7.66699 78.333 -19 99s-21.666 31 -30.999 31c-12.667 0 -19 -11.333 -19 -34c0 -23.333 6.66699 -43.333 20 -60
s29.666 -28.667 48.999 -36z" />
    <glyph glyph-name="x" unicode="x" horiz-adv-x="420" 
d="M432 205l-14.499 -30.999c-5 -10.667 -11.167 -20.667 -18.5 -30c-35.333 -48 -73 -84.167 -113 -108.5s-78.667 -36.5 -116 -36.5c-25.333 0 -48.833 5.5 -70.5 16.5s-40.834 27.833 -57.501 50.5l-40.5 -42l-35 -36l-26 -27c-7 -7.33301 -11.5 -12.333 -13.5 -15
c-8 -9.33301 -14 -14 -18 -14c-2.66699 0 -4.66699 1.5 -6 4.5s-2 5.16699 -2 6.5c0 3.33301 0.666992 5.66602 2 6.99902c2.66699 3.33301 8 9.33301 16 18l29 31l38 40l44 46c-11.333 19.333 -20.5 41.833 -27.5 67.5s-11.833 55.167 -14.5 88.5c0 5.33301 1 10 3 14
c1.33301 3.33301 3.83301 6.5 7.5 9.5s8.5 4.5 14.5 4.5c10.667 -3.33301 16 -14.333 16 -33c0 -47.333 9.66699 -88.333 29 -123l55 57l49 50l36 36.5l15 15.5c2.66699 2.66699 5.66699 5.16699 9 7.5s6.33301 3.5 9 3.5c2 0 4 -1.5 6 -4.5s3 -5.16699 3 -6.5
c0 -4.66699 -3 -10 -9 -16c-1.33301 -2 -7 -7.83301 -17 -17.5l-37.5 -37l-50 -50.5l-56.5 -57c15.333 -21.333 33.5 -38 54.5 -50s44.167 -18 69.5 -18c30 0 60.833 9.5 92.5 28.5s62.5 49.833 92.5 92.5c7.33301 9.33301 13.5 19.5 18.5 30.5l15.5 32.5z" />
    <glyph glyph-name="y" unicode="y" horiz-adv-x="483" 
d="M495 205c-8.66699 -18.667 -19.667 -38.999 -33 -60.999c-27.333 -42.667 -54.666 -81 -81.999 -115s-54.333 -66 -81 -96c8 -28 16.667 -55.333 26 -82s18 -53.667 26 -81s14.667 -55.333 20 -84s8 -58.667 8 -90c0 -40 -5.33301 -74.5 -16 -103.5s-24.667 -53 -42 -72
s-37 -33 -59 -42s-44 -13.5 -66 -13.5c-20 0 -39.167 3.5 -57.5 10.5s-34.666 17 -48.999 30s-25.833 29.167 -34.5 48.5s-13 41.333 -13 66c0 40.667 6.33301 79 19 115s29.5 70.5 50.5 103.5s45 65 72 96l83.5 92.5c-7.33301 28.667 -13.333 56.5 -18 83.5
s-7 52.833 -7 77.5c-0.666992 -3.33301 -3.66699 -10.833 -9 -22.5s-13.333 -23.834 -24 -36.501s-23.834 -24 -39.501 -34s-34.5 -15 -56.5 -15c-26 0 -46.833 8.33301 -62.5 25s-27.834 37 -36.501 61s-14.334 49.167 -17.001 75.5s-4 48.833 -4 67.5v18
c0 5.33301 0.333008 9.66602 1 12.999c0.666992 6 3.83398 11.667 9.50098 17s10.834 8 15.501 8s7 -3 7 -9c0 -20 0.833008 -44 2.5 -72s6.16699 -54.5 13.5 -79.5s18.333 -46.333 33 -64s35 -26.5 61 -26.5c20.667 0 37.334 5.16699 50.001 15.5s22.667 21.5 30 33.5
c8.66699 14 15 30 19 48c-0.666992 8 -1.66699 17 -3 27c-1.33301 8.66699 -2.16602 18.834 -2.49902 30.501s-0.833008 24.167 -1.5 37.5c0 12.667 1 22.834 3 30.501s4.33301 13.5 7 17.5s5.5 6.66699 8.5 8s5.83301 2 8.5 2c5.33301 -0.666992 10.166 -3.5 14.499 -8.5
s6.16602 -11.833 5.49902 -20.5l-6 -107c-2 -32 -0.333008 -62.167 5 -90.5s11.666 -55.833 18.999 -82.5c28 30 54.833 60.667 80.5 92s48.5 64.666 68.5 99.999l17.5 31.5l16.5 31.5zM355 -419.999c0 18.667 -2.66699 40.167 -8 64.5s-12 50.5 -20 78.5
s-16.833 57.333 -26.5 88s-18.834 61.667 -27.501 93l-77 -87.5c-24 -27.667 -44.833 -55.834 -62.5 -84.501s-31.667 -58.667 -42 -90s-15.5 -66 -15.5 -104c0 -20.667 4.16699 -39.5 12.5 -56.5s19.5 -31.667 33.5 -44s29.667 -22 47 -29s35 -10.5 53 -10.5
c17.333 0 33.833 3.33301 49.5 10s29.834 17.334 42.501 32.001s22.667 33.5 30 56.5s11 50.833 11 83.5z" />
    <glyph glyph-name="z" unicode="z" horiz-adv-x="417" 
d="M342 -217c0 -38.667 -3.16602 -75.9922 -9.49902 -111.992s-15.833 -67.833 -28.5 -95.5s-28.667 -49.834 -48 -66.501s-42 -25 -68 -25c-20 0 -37 4.66699 -51 14s-25.5 22.166 -34.5 38.499s-15.667 35.666 -20 57.999s-6.5 46.5 -6.5 72.5
c0 35.333 3.66699 72.666 11 111.999s17.5 78 30.5 116s28.5 73.667 46.5 107s38 61.666 60 84.999c-11.333 11.333 -23.166 20 -35.499 26s-25.166 9.33301 -38.499 10c-16 -0.666992 -30 -5 -42 -13c-10.667 -7.33301 -20.334 -18.333 -29.001 -33s-13 -36 -13 -64
c0 -3.33301 -1 -5 -3 -5c-2.66699 1.33301 -6.16699 3.5 -10.5 6.5s-6.5 8.16699 -6.5 15.5c0 2 -0.5 8 -1.5 18l-3.5 36.5c-1.33301 14.333 -3 29.833 -5 46.5s-3.66699 32.667 -5 48l-3.5 41c-1 12 -1.5 20.667 -1.5 26c-1.33301 -0.666992 -3.83301 -8.16699 -7.5 -22.5
s-11.167 -30.166 -22.5 -47.499l-15 10c14.667 26 23.334 49.5 26.001 70.5s4 36.833 4 47.5c0 5.33301 1.16699 9.66602 3.5 12.999s4.5 5 6.5 5c3.33301 0 8.66602 -3 15.999 -9s11.666 -17.667 12.999 -35c0 -0.666992 0.333008 -6 1 -16s1.66699 -22.333 3 -37
s2.66602 -30.667 3.99902 -48s2.66602 -33.333 3.99902 -48s2.5 -26.834 3.5 -36.501l1.5 -14.5c0.666992 0 1.33398 1 2.00098 3c11.333 23.333 24.833 40.166 40.5 50.499s32.167 15.5 49.5 15.5c16.667 0 32.167 -3.5 46.5 -10.5s27.5 -16.833 39.5 -29.5
c20 16.667 40.333 28 61 34c2 -0.666992 4 -1.66699 6 -3s3 -3 3 -5c0 -3.33301 -3.66699 -6.33301 -11 -9c-16.667 -6 -32.667 -15.667 -48 -29c14 -16.667 26.333 -36.834 37 -60.501s19.667 -49.167 27 -76.5s12.833 -55.833 16.5 -85.5s5.5 -59.5 5.5 -89.5z
M323.001 -244.992c0 30 -2 60.1689 -6 90.502s-9.66699 59.666 -17 87.999s-16.5 54.666 -27.5 78.999s-23.5 44.833 -37.5 61.5c-20 -22 -38.167 -49 -54.5 -81s-30.333 -66 -42 -102s-20.667 -72.833 -27 -110.5s-9.5 -73.167 -9.5 -106.5c0 -24 1.83301 -46.5 5.5 -67.5
s9.16699 -39.167 16.5 -54.5s17 -27.333 29 -36s26 -13 42 -13c22 0 41 6.83301 57 20.5s29.333 32 40 55s18.5 49.833 23.5 80.5s7.5 62.667 7.5 96z" />
    <glyph glyph-name="braceleft" unicode="{" horiz-adv-x="289" 
d="M233 -260c0 -2.66699 -2.66602 -4.00195 -7.99902 -4.00195c-26 3.33301 -47.167 10 -63.5 20s-29.166 22.5 -38.499 37.5s-15.833 32 -19.5 51s-5.5 39.167 -5.5 60.5c0 20 1.16699 40.833 3.5 62.5s4.83301 43.334 7.5 65.001l7.5 63.5
c2.33301 20.667 3.5 40.334 3.5 59.001c0 17.333 -1.33301 33.333 -4 48s-7.5 27.834 -14.5 39.501s-16.167 21.167 -27.5 28.5s-26 12.333 -44 15c-10.667 0.666992 -16 4.33398 -16 11.001c0 5.33301 4.33301 9.33301 13 12c35.333 4.66699 59.166 19 71.499 43
s18.5 53.333 18.5 88c0 18.667 -1.16699 38.5 -3.5 59.5s-4.83301 42.167 -7.5 63.5s-5.16699 42.833 -7.5 64.5s-3.5 42.5 -3.5 62.5c0 21.333 1.83301 41.5 5.5 60.5s10.167 36 19.5 51s22.166 27.5 38.499 37.5s37.5 16.667 63.5 20c5.33301 0 8 -1.33301 8 -4
c0 -2 -1.16699 -4.33301 -3.5 -7s-3.83301 -4 -4.5 -4c-17.333 -8 -31.666 -18.167 -42.999 -30.5s-20.333 -26.5 -27 -42.5s-11.334 -33.333 -14.001 -52s-4 -38.334 -4 -59.001c0 -1.33301 0.333008 -8.66602 1 -21.999s1.16699 -29.5 1.5 -48.5
s0.833008 -38.833 1.5 -59.5s1 -39.334 1 -56.001c0 -20.667 -1.16699 -40.334 -3.5 -59.001s-6.5 -35.834 -12.5 -51.501s-14.167 -29 -24.5 -40s-23.833 -19.5 -40.5 -25.5l3 -1c16.667 -5.33301 30.167 -13.666 40.5 -24.999s18.5 -24.666 24.5 -39.999
s10.167 -32.5 12.5 -51.5s3.5 -38.833 3.5 -59.5c0 -16.667 -0.333008 -35.334 -1 -56.001s-1.16699 -40.5 -1.5 -59.5s-0.833008 -35.167 -1.5 -48.5s-1 -20.666 -1 -21.999c0 -20.667 1.33301 -40.334 4 -59.001s7.33398 -36 14.001 -52s15.667 -30.167 27 -42.5
s25.666 -22.5 42.999 -30.5c0.666992 0 2.16699 -1.33301 4.5 -4s3.5 -5 3.5 -7z" />
    <glyph glyph-name="bar" unicode="|" horiz-adv-x="500" 
d="M218 -85c0 -28 -1.99609 -46.999 -5.99609 -56.999s-8.66699 -15 -14 -15c-4 1.33301 -7.16699 4.66602 -9.5 9.99902s-3.5 14.333 -3.5 27l-9 986c0 11.333 2.16699 18 6.5 20s8.83301 3 13.5 3c10 0 15 -7 15 -21c0 -12 0.166992 -32.5 0.5 -61.5
s0.666016 -63.667 0.999023 -104s0.666016 -84.833 0.999023 -133.5l1 -150l1 -153.5c0.333008 -51 0.666016 -99 0.999023 -144s0.666016 -85.5 0.999023 -121.5s0.5 -64.333 0.5 -85z" />
    <glyph glyph-name="braceright" unicode="}" horiz-adv-x="333" 
d="M271 299c0 -5.33301 -4.33301 -9.33105 -13 -11.998c-35.333 -4.66699 -59.166 -19 -71.499 -43s-18.5 -53.333 -18.5 -88c0 -18.667 1.16699 -38.334 3.5 -59.001l7.5 -63.5c2.66699 -21.667 5.16699 -43.334 7.5 -65.001s3.5 -42.5 3.5 -62.5
c0 -21.333 -1.83301 -41.5 -5.5 -60.5s-10.167 -36 -19.5 -51s-22.166 -27.5 -38.499 -37.5s-37.5 -16.667 -63.5 -20c-5.33301 0 -8 1.33301 -8 4c0 2 1.16699 4.33301 3.5 7s3.83301 4 4.5 4c17.333 8 31.666 18.167 42.999 30.5s20.333 26.5 27 42.5
s11.334 33.333 14.001 52s4 38.334 4 59.001c0 1.33301 -0.333008 8.66602 -1 21.999s-1.16699 29.5 -1.5 48.5s-0.833008 38.833 -1.5 59.5s-1 39.334 -1 56.001c0 20.667 1.16699 40.334 3.5 59.001s6.5 35.834 12.5 51.501s14.167 29 24.5 40s23.833 19.5 40.5 25.5l-3 1
c-16.667 5.33301 -30.167 13.666 -40.5 24.999s-18.5 24.666 -24.5 39.999s-10.167 32.5 -12.5 51.5s-3.5 38.833 -3.5 59.5c0 16.667 0.333008 35.334 1 56.001s1.16699 40.5 1.5 59.5s0.833008 35.167 1.5 48.5s1 20.666 1 21.999c0 20.667 -1.33301 40.334 -4 59.001
s-7.33398 36 -14.001 52s-15.667 30.167 -27 42.5s-25.666 22.5 -42.999 30.5c-0.666992 0 -2.16699 1.33301 -4.5 4s-3.5 5 -3.5 7c0 2.66699 2.66699 4 8 4c26 -3.33301 47.167 -10 63.5 -20s29.166 -22.5 38.499 -37.5s15.833 -32 19.5 -51s5.5 -39.167 5.5 -60.5
c0 -20 -1.16699 -40.833 -3.5 -62.5s-4.83301 -43.167 -7.5 -64.5s-5.16699 -42.5 -7.5 -63.5s-3.5 -40.833 -3.5 -59.5c0 -34.667 6.16699 -63.834 18.5 -87.501s36.166 -38.167 71.499 -43.5c10.667 -0.666992 16 -4.33398 16 -11.001z" />
    <glyph glyph-name="exclamdown" unicode="&#xa1;" horiz-adv-x="256" 
d="M144 395c0 -9.33301 -2.33301 -18.0029 -7 -26.0029s-12 -12 -22 -12c-13.333 0 -22 3.83301 -26 11.5s-6 17.167 -6 28.5c0 8.66699 2 17.334 6 26.001s11.667 13 23 13c6 -0.666992 11.333 -2.66699 16 -6c4 -3.33301 7.66699 -7.66602 11 -12.999s5 -12.666 5 -21.999
zM159 -338.003c0 -3.33301 -2.16699 -6.6709 -6.5 -10.0039s-8.5 -5 -12.5 -5c-8 0 -13 1.66699 -15 5c-1.33301 2 -2.33301 3.66699 -3 5c-2 6.66699 -3.83301 23.5 -5.5 50.5s-3.33398 59.333 -5.00098 97s-3.16699 78.5 -4.5 122.5s-2.5 86.5 -3.5 127.5
s-1.83301 78.167 -2.5 111.5s-1 58.333 -1 75c0 7.33301 0.166992 12.833 0.5 16.5s0.5 6.16699 0.5 7.5c0 6 1.66699 10 5 12s6.33301 3 9 3c6.66699 0 10 -5.33301 10 -16c0.666992 -7.33301 1.33398 -22.166 2.00098 -44.499s1.66699 -49.5 3 -81.5l4.5 -107
c1.66699 -39.333 3.66699 -80.166 6 -122.499s5 -84.666 8 -126.999s6.5 -82.166 10.5 -119.499z" />
    <glyph glyph-name="cent" unicode="&#xa2;" horiz-adv-x="432" 
d="M455 386c-4.66699 -10 -9.66699 -20.1689 -15 -30.502s-11.333 -20.5 -18 -30.5c-12.667 -18.667 -28.334 -37.167 -47.001 -55.5s-38.834 -34.833 -60.501 -49.5s-44 -27.167 -67 -37.5s-45.5 -17.5 -67.5 -21.5v-179c0 -10 -1 -16.667 -3 -20s-4.66699 -5 -8 -5
c-7.33301 0 -13.5 1.33301 -18.5 4s-7.16699 9.66699 -6.5 21c0.666992 28.667 1.5 57.834 2.5 87.501s1.83301 59.5 2.5 89.5c-20 0 -37.167 3.66699 -51.5 11s-26.166 17.333 -35.499 30s-16.166 27.167 -20.499 43.5s-6.5 33.5 -6.5 51.5c0 19.333 2.5 38.833 7.5 58.5
s12.333 38.167 22 55.5s21.5 33.166 35.5 47.499s30.333 25.5 49 33.5c0 42.667 -0.166992 83.334 -0.5 122.001s-0.833008 73 -1.5 103c-0.666992 35.333 -1.33398 68.333 -2.00098 99c0 6.66699 3.5 10.5 10.5 11.5s13.167 1.5 18.5 1.5c3.33301 0 5 -6.33301 5 -19v-308
c10 2.66699 22 4 36 4c4 0 8.5 -0.833008 13.5 -2.5s10 -4.5 15 -8.5s9.16699 -9.16699 12.5 -15.5s5 -14.166 5 -23.499c0 -13.333 -3.33301 -26.166 -10 -38.499s-14.667 -18.5 -24 -18.5c-3.33301 0 -6.83301 1.5 -10.5 4.5s-5.5 6.5 -5.5 10.5c0 5.33301 2 11 6 17
s6 12.333 6 19c0 10.667 -3 18.834 -9 24.501s-14 8.5 -24 8.5c-4.66699 0 -8.33398 -0.333008 -11.001 -1c0 -25.333 0.166992 -63.5 0.5 -114.5s0.5 -108.833 0.5 -173.5h2c18.667 0 38.334 3.66699 59.001 11s40.834 17.166 60.501 29.499s38.167 26.666 55.5 42.999
s32.333 33.833 45 52.5c6.66699 10 12.667 20.333 18 31l16 32zM150 324.998l-0.000976562 73.5029c0 25 -0.333008 50.167 -1 75.5c-13.333 -4.66699 -25 -11.834 -35 -21.501s-18.167 -20.834 -24.5 -33.501s-11.166 -26.167 -14.499 -40.5s-5 -28.833 -5 -43.5
c0 -30.667 6.66699 -59.167 20 -85.5s33 -43.833 59 -52.5c0.666992 21.333 1 42.666 1 63.999v64z" />
    <glyph glyph-name="sterling" unicode="&#xa3;" horiz-adv-x="602" 
d="M664 18c0 -6 -3.83984 -12.9971 -11.5068 -20.9971s-18.5 -15.5 -32.5 -22.5s-31.167 -13 -51.5 -18s-43.166 -7.5 -68.499 -7.5c-33.333 0 -61.5 5.66699 -84.5 17s-44 24 -63 38s-37.333 26.667 -55 38s-38.167 17 -61.5 17c-3.33301 0 -9.16602 -0.666992 -17.499 -2
s-17 -4.5 -26 -9.5s-16.833 -12.5 -23.5 -22.5s-10 -23.667 -10 -41c0 -13.333 -2 -21.166 -6 -23.499s-8.66699 -3.5 -14 -3.5c-7.33301 0.666992 -11 7.33398 -11 20.001c0 10 0.333008 18.667 1 26s1 18 1 32c0 38 -1 76.667 -3 116s-3.66699 77.666 -5 114.999
c-10 -2.66699 -20 -5 -30 -7s-20.667 -4.33301 -32 -7c-4.66699 0 -8.16699 0.666992 -10.5 2s-4.16602 2.66602 -5.49902 3.99902c-2 2 -3 4 -3 6s1 4 3 6c1.33301 1.33301 3.5 2.83301 6.5 4.5s7.16699 3.16699 12.5 4.5c7.33301 1.33301 15.833 3 25.5 5s20.167 4 31.5 6
c0 8.66699 -0.166992 16.834 -0.5 24.501s-0.833008 15.167 -1.5 22.5c-13.333 -2.66699 -26.833 -5.66699 -40.5 -9s-28.5 -6.66602 -44.5 -9.99902c-4.66699 0 -8.16699 0.666992 -10.5 2s-4.16602 2.66602 -5.49902 3.99902c-2 2 -3 4 -3 6s1 4 3 6
c1.33301 1.33301 3.5 2.83301 6.5 4.5s7.16699 3.16699 12.5 4.5l36 7l46 9v25c0 47.333 3.66699 96.166 11 146.499s19.333 96 36 137s38.667 74.667 66 101s61.333 39.5 102 39.5c16.667 0 29.334 -5 38.001 -15s13 -23 13 -39c0 -25.333 -6.5 -50.5 -19.5 -75.5
s-29.167 -48 -48.5 -69s-40.333 -39.167 -63 -54.5s-43.667 -26 -63 -32c-4.66699 0 -7 2 -7 6c0 3.33301 1.66699 5.66602 5 6.99902c24 9.33301 45.833 21 65.5 35s36.834 30 51.501 48s26 37.667 34 59s12 43.666 12 66.999c0 15.333 -3 26.166 -9 32.499
s-15.667 9.5 -29 9.5c-20 0 -37.667 -4.83301 -53 -14.5s-28.833 -22.5 -40.5 -38.5s-21.667 -34 -30 -54s-15 -40.667 -20 -62s-8.66699 -42 -11 -62s-3.5 -37.667 -3.5 -53v-138c20.667 4 41.834 7.66699 63.501 11l62.5 9.5c20 3 38.5 5.33301 55.5 7s31.5 2.5 43.5 2.5
c7.33301 0 11 -2 11 -6c-2 -7.33301 -4.83301 -12 -8.5 -14s-10.167 -3.33301 -19.5 -4c-13.333 -0.666992 -27 -1.66699 -41 -3s-29.167 -3 -45.5 -5s-34.5 -4.5 -54.5 -7.5s-42.333 -7.16699 -67 -12.5v-24c0 -8 0.333008 -16 1 -24l68.5 12
c23.667 4 46.834 7.66699 69.501 11s43.834 6 63.501 8s36.167 3 49.5 3c7.33301 0 11 -2 11 -6c-2 -7.33301 -4.83301 -12 -8.5 -14s-10.167 -3.33301 -19.5 -4c-14.667 -0.666992 -29.5 -1.66699 -44.5 -3s-31.667 -3.33301 -50 -6s-38.833 -6 -61.5 -10
s-48.667 -9 -78 -15l4 -116c1.33301 -37.333 3.66602 -74 6.99902 -110c20.667 19.333 37.834 32 51.501 38s25.167 9 34.5 9c18 0 33.5 -2.83301 46.5 -8.5s25.167 -12.667 36.5 -21s22.833 -17.5 34.5 -27.5s25 -19.167 40 -27.5s32.667 -15.333 53 -21
s44.833 -8.5 73.5 -8.5c19.333 0 35.333 1.66699 48 5s23.167 7 31.5 11s14.666 8 18.999 12s7.16602 7 8.49902 9c4.66699 5.33301 9 8 13 8c4.66699 0 7 -2.33301 7 -7z" />
    <glyph glyph-name="currency" unicode="&#xa4;" horiz-adv-x="790" 
d="M884 143c-4 -12 -14.334 -27.4941 -31.001 -46.4941s-39.167 -37.167 -67.5 -54.5s-62.333 -32.333 -102 -45s-84.5 -19 -134.5 -19c-60.667 0 -114.334 7.83301 -161.001 23.5s-86.834 36.667 -120.501 63s-60.834 57.166 -81.501 92.499s-35.667 72.666 -45 111.999
c-11.333 -2.66699 -23.333 -5.33398 -36 -8.00098s-26 -5.66699 -40 -9c-4.66699 0 -8.16699 0.666992 -10.5 2s-4.16602 2.66602 -5.49902 3.99902c-2 2 -3 4 -3 6s1 4 3 6c1.33301 1.33301 3.5 2.83301 6.5 4.5s7.16699 3.16699 12.5 4.5c8.66699 2 18.834 4 30.501 6
s24.167 4.33301 37.5 7c-1.33301 8 -2.33301 15.833 -3 23.5l-2 23.5l-44 -10l-49 -11c-4.66699 0 -8.16699 0.666992 -10.5 2s-4.16602 2.66602 -5.49902 3.99902c-2 2 -3 4 -3 6s1 4 3 6c1.33301 1.33301 3.5 2.83301 6.5 4.5s7.16699 3.16699 12.5 4.5
c11.333 2 24.666 4.5 39.999 7.5l50 9.5c0 50 8.5 99.167 25.5 147.5s41.833 91.5 74.5 129.5s73 68.667 121 92s102.667 35 164 35c23.333 0 44 -2.66699 62 -8s34 -12.666 48 -21.999c6 32.667 15.667 58 29 76c3.33301 5.33301 7 8 11 8c2.66699 0 4 -1.66699 4 -5
c0 -2 -1 -5 -3 -9c-6.66699 -9.33301 -12.167 -20.833 -16.5 -34.5s-8.16602 -28.5 -11.499 -44.5c12 -9.33301 22 -20 30 -32s14.667 -24.333 20 -37s9.16602 -25.5 11.499 -38.5s3.5 -25.5 3.5 -37.5c0 -22 -3.33301 -40.5 -10 -55.5s-15.334 -22.5 -26.001 -22.5
c-8.66699 0 -16.334 3.66699 -23.001 11s-12.167 17.166 -16.5 29.499s-7.5 26.5 -9.5 42.5s-3 33 -3 51c0 12 0.333008 24.167 1 36.5s2 24.166 4 35.499c-13.333 12 -29.666 21.667 -48.999 29s-42 11 -68 11c-50.667 0 -96 -10.833 -136 -32.5
s-73.667 -50.167 -101 -85.5s-48.166 -75.833 -62.499 -121.5s-21.5 -92.167 -21.5 -139.5l58 10c19.333 3.33301 37.833 6.16602 55.5 8.49902s34.167 4.16602 49.5 5.49902s28.333 2 39 2c7.33301 0 11 -2 11 -6c-2 -7.33301 -4.83301 -12 -8.5 -14
s-10.167 -3.33301 -19.5 -4c-12 -0.666992 -24.5 -1.5 -37.5 -2.5s-26.833 -2.33301 -41.5 -4s-30.667 -4 -48 -7l-58 -10.5l2 -24c0.666992 -8 1.66699 -15.667 3 -23l63 10.5c21.333 3.66699 42 6.83398 62 9.50098s38.5 4.83398 55.5 6.50098s31.5 2.5 43.5 2.5
c7.33301 0 11 -2 11 -6c-2 -7.33301 -4.83301 -12 -8.5 -14s-10.167 -3.33301 -19.5 -4c-13.333 -0.666992 -26.833 -1.66699 -40.5 -3s-28.5 -3 -44.5 -5s-33.667 -4.5 -53 -7.5s-41 -6.83301 -65 -11.5c8 -38.667 21.333 -75.334 40 -110.001s43.334 -65.167 74.001 -91.5
s67.167 -47.166 109.5 -62.499s90.833 -23 145.5 -23c17.333 0 39.833 2.33301 67.5 7s56.5 12.667 86.5 24s58.833 26.833 86.5 46.5s49.834 44.5 66.501 74.5c1.33301 2.66699 3 5.16699 5 7.5s4 3.5 6 3.5c3.33301 0 5 -4.33301 5 -13zM679.999 576.006
c0 17.333 -3.33203 37 -9.99902 59s-18.334 42.333 -35.001 61c-2 -18 -3 -36.333 -3 -55c0 -28.667 2.83301 -53.5 8.5 -74.5s14.167 -31.5 25.5 -31.5c4 0 7.33301 3.83301 10 11.5s4 17.5 4 29.5z" />
    <glyph glyph-name="yen" unicode="&#xa5;" horiz-adv-x="496" 
d="M504 852c0 -4 -4.00098 -8.33105 -12.001 -12.998c-16.667 -10 -30.5 -24.167 -41.5 -42.5s-19.667 -38.333 -26 -60s-10.666 -43.667 -12.999 -66s-3.5 -42.833 -3.5 -61.5c0 -26 2.5 -55.667 7.5 -89s7.5 -67 7.5 -101c0 -22 -2 -43 -6 -63s-11.167 -38 -21.5 -54
s-24.5 -29.167 -42.5 -39.5s-41.333 -16.833 -70 -19.5v-32c28.667 4.66699 55.667 8.5 81 11.5s46 4.5 62 4.5c7.33301 0 11 -2 11 -6c-2 -7.33301 -4.83301 -12 -8.5 -14s-10.167 -3.33301 -19.5 -4c-18.667 -1.33301 -37.834 -2.83301 -57.501 -4.5
s-42.5 -4.5 -68.5 -8.5c0.666992 -9.33301 1 -18 1 -26v-23c33.333 5.33301 65.166 10 95.499 14s54.833 6 73.5 6c7.33301 0 11 -2 11 -6c-2 -7.33301 -4.83301 -11.833 -8.5 -13.5s-10.167 -3.16699 -19.5 -4.5c-21.333 -1.33301 -43.5 -3.16602 -66.5 -5.49902
s-51.167 -6.5 -84.5 -12.5c1.33301 -22 2.33301 -42.833 3 -62.5s1 -42.5 1 -68.5c0 -13.333 -1 -21.5 -3 -24.5s-5 -4.5 -9 -4.5c-9.33301 0 -16.5 1.33301 -21.5 4s-7.5 8.66699 -7.5 18c0 10.667 0.333008 22.667 1 36c0.666992 11.333 1.16699 25.333 1.5 42
s0.5 34.667 0.5 54c-20 -3.33301 -41.833 -7.66602 -65.5 -12.999l-79.5 -18c-4.66699 0 -8.16699 0.666992 -10.5 2s-4.16602 2.66602 -5.49902 3.99902c-2 2 -3 4 -3 6s1 4 3 6c1.33301 1.33301 3.5 2.83301 6.5 4.5s7.16699 3.16699 12.5 4.5
c16 3.33301 36.667 7.16602 62 11.499s52 9.16602 80 14.499c0.666992 8 1 16 1 24v25c-22.667 -4 -48.167 -8.83301 -76.5 -14.5s-60.5 -12.834 -96.5 -21.501c-4.66699 0 -8.16699 0.666992 -10.5 2s-4.16602 2.66602 -5.49902 3.99902c-2 2 -3 4 -3 6s1 4 3 6
c1.33301 1.33301 3.5 2.83301 6.5 4.5s7.16699 3.16699 12.5 4.5c18.667 4 43.167 8.83301 73.5 14.5s62.5 11.167 96.5 16.5v36c-38.667 0.666992 -70.334 7.5 -95.001 20.5s-44.167 30.333 -58.5 52s-24.166 46.334 -29.499 74.001s-8 56.167 -8 85.5
c0 37.333 2.66699 74 8 110s10.666 67.333 15.999 94c1.33301 9.33301 3.33301 15.333 6 18s6.33398 4 11.001 4c3.33301 0 8 -0.5 14 -1.5s9 -4.16699 9 -9.5c0 -1.33301 -0.166992 -3 -0.5 -5s-0.833008 -4.66699 -1.5 -8c-1.33301 -10 -3.33301 -22.5 -6 -37.5
s-5.16699 -31.5 -7.5 -49.5s-4.5 -37 -6.5 -57s-3 -40 -3 -60c0 -27.333 2.33301 -53.833 7 -79.5s13.334 -48.5 26.001 -68.5s30 -36.167 52 -48.5s50.333 -18.5 85 -18.5c26.667 0 48.334 3.83301 65.001 11.5s29.834 18.334 39.501 32.001s16.167 30 19.5 49
s5 40.167 5 63.5c0 36 -2.33301 75.667 -7 119s-7 88 -7 134c0 17.333 2.66699 37.666 8 60.999s12.666 45.5 21.999 66.5s20.166 38.667 32.499 53s25.166 21.5 38.499 21.5c4 0 8 -1.83301 12 -5.5s6 -7.16699 6 -10.5z" />
    <glyph glyph-name="section" unicode="&#xa7;" horiz-adv-x="545" 
d="M523 317c-0.666992 -19.333 -4.33789 -37.3359 -11.0049 -54.0029s-14.667 -32 -24 -46c0.666992 -1.33301 1 -3 1 -5v-10c-2.66699 -41.333 -16 -76.5 -40 -105.5s-53.333 -52.667 -88 -71s-72 -31.666 -112 -39.999s-77 -12.5 -111 -12.5c-16 0 -34.167 0.5 -54.5 1.5
s-39.333 3.5 -57 7.5s-32.5 9.83301 -44.5 17.5s-18 18.5 -18 32.5c0 10.667 5 20 15 28s22.833 14.5 38.5 19.5s32.667 8.66699 51 11s35.833 3.5 52.5 3.5c12 0 24.5 -0.5 37.5 -1.5s25 -2.16699 36 -3.5s20.333 -2.83301 28 -4.5s12.167 -3.16699 13.5 -4.5
c2 -2 3 -4 3 -6c0 -3.33301 -2.33301 -5 -7 -5c-7.33301 1.33301 -20.166 3.5 -38.499 6.5s-39.166 4.5 -62.499 4.5c-14.667 0 -30.167 -0.833008 -46.5 -2.5s-31.5 -4.33398 -45.5 -8.00098s-25.5 -8.16699 -34.5 -13.5s-13.5 -12 -13.5 -20c0 -10.667 4.66699 -19 14 -25
s21.5 -10.5 36.5 -13.5s32.167 -5 51.5 -6s38.666 -1.5 57.999 -1.5c43.333 0 84 4.83301 122 14.5s71.167 23.5 99.5 41.5s50.833 39.5 67.5 64.5s25 52.5 25 82.5c0 20.667 -6 37.834 -18 51.501s-28 25.334 -48 35.001s-42.667 17.834 -68 24.501
s-51.333 13.167 -78 19.5s-52.667 13.5 -78 21.5s-48 18.167 -68 30.5s-36 27.5 -48 45.5s-18 40 -18 66c0 19.333 3 37.5 9 54.5s14.667 32.167 26 45.5c-0.666992 3.33301 -1 8.33301 -1 15c0 40 11.833 73.333 35.5 100s52.167 48.167 85.5 64.5
s67.666 27.833 102.999 34.5s65 10 89 10c46.667 0 79.834 -5.66699 99.501 -17s29.5 -24.666 29.5 -39.999c0 -9.33301 -3.16699 -18.5 -9.5 -27.5s-15.166 -17.333 -26.499 -25s-24.666 -13.834 -39.999 -18.501s-32 -7 -50 -7c-8 0 -14.167 0.833008 -18.5 2.5
s-7.5 3.5 -9.5 5.5c-2.66699 2.66699 -4 5.33398 -4 8.00098c0 6 4.33301 9 13 9l11 -1c34 0 60.833 5.66699 80.5 17s29.5 23.666 29.5 36.999c0 11.333 -8.33301 21.333 -25 30s-44 13 -82 13c-13.333 0 -29.666 -1.5 -48.999 -4.5s-39.5 -7.5 -60.5 -13.5
s-41.833 -13.833 -62.5 -23.5s-39.167 -21.167 -55.5 -34.5s-29.5 -28.5 -39.5 -45.5s-15 -36.167 -15 -57.5c0 -19.333 6 -35.833 18 -49.5s27.833 -25.667 47.5 -36s42.167 -19.333 67.5 -27l77.5 -23.5c26.333 -8 52 -16.5 77 -25.5s47.333 -19.833 67 -32.5
s35.334 -27.5 47.001 -44.5s17.5 -37.833 17.5 -62.5zM499.996 307.997c0 25.333 -9.00488 45.665 -27.0049 60.998s-41 27.833 -69 37.5s-58.667 18.167 -92 25.5s-65.5 16 -96.5 26s-58.667 22.667 -83 38s-41.166 36 -50.499 62
c-8.66699 -15.333 -13 -33.666 -13 -54.999c0 -24 9 -43.667 27 -59s40.833 -28.666 68.5 -39.999s58.334 -21.5 92.001 -30.5s65.834 -19.167 96.501 -30.5s57.834 -25 81.501 -41s39.834 -36.667 48.501 -62c5.33301 10.667 9.5 21.5 12.5 32.5s4.5 22.833 4.5 35.5z" />
    <glyph glyph-name="dieresis" unicode="&#xa8;" horiz-adv-x="500" 
d="M339 442c0 -7.33301 -1.66797 -15.001 -5.00098 -23.001s-10.333 -12 -21 -12c-5.33301 0.666992 -10 2.33398 -14 5.00098c-3.33301 2.66699 -6.66602 6.5 -9.99902 11.5s-5 11.833 -5 20.5c0 8 2 15.667 6 23s10.667 11 20 11c12.667 0 20.667 -3.5 24 -10.5
s5 -15.5 5 -25.5zM208.999 441.999c0 -7.33301 -1.66797 -15.001 -5.00098 -23.001s-10.333 -12 -21 -12c-5.33301 0.666992 -10 2.33398 -14 5.00098c-3.33301 2.66699 -6.66602 6.5 -9.99902 11.5s-5 11.833 -5 20.5c0 8 2 15.667 6 23s10.667 11 20 11
c12.667 0 20.667 -3.5 24 -10.5s5 -15.5 5 -25.5z" />
    <glyph glyph-name="copyright" unicode="&#xa9;" horiz-adv-x="613" 
d="M562 270c0 -40 -8.49707 -78.166 -25.4971 -114.499s-39.667 -68.333 -68 -96s-60.833 -49.5 -97.5 -65.5s-74.334 -24 -113.001 -24c-31.333 0 -60 5.33301 -86 16s-48.5 25.334 -67.5 44.001s-33.667 40.667 -44 66s-15.5 53 -15.5 83c0 40 8.5 78.167 25.5 114.5
s39.5 68.333 67.5 96s60.167 49.667 96.5 66s74.166 24.5 113.499 24.5c31.333 0 60.166 -5.33301 86.499 -16s49 -25.334 68 -44.001s33.667 -40.834 44 -66.501s15.5 -53.5 15.5 -83.5zM544.003 266.001c0 28 -4.83203 53.833 -14.499 77.5s-23.167 44.334 -40.5 62.001
s-38.333 31.5 -63 41.5s-51.667 15 -81 15c-36 0 -71 -7.66699 -105 -23s-64.167 -35.833 -90.5 -61.5s-47.333 -55.334 -63 -89.001s-23.5 -69.167 -23.5 -106.5c0 -27.333 4.83301 -52.833 14.5 -76.5s23.167 -44.167 40.5 -61.5s38.166 -31 62.499 -41
s51.166 -15 80.499 -15c36 0 70.833 7.5 104.5 22.5s63.834 35.167 90.501 60.5s48 54.833 64 88.5s24 69.167 24 106.5zM462.004 123.001c-2 -6 -7.33008 -13.835 -15.9971 -23.502s-20.167 -19 -34.5 -28s-31.5 -16.833 -51.5 -23.5s-43 -10 -69 -10
c-32.667 0 -60.5 4 -83.5 12s-42 19 -57 33s-26 30 -33 48s-10.5 37 -10.5 57c0 26 5.66699 52.5 17 79.5s27.166 51.5 47.499 73.5s45 40 74 54s61.167 21 96.5 21c11.333 0 21.5 -1.16699 30.5 -3.5s17.167 -5.16602 24.5 -8.49902c5.33301 15.333 11 27.333 17 36
c2 2.66699 3.66699 4 5 4c2 0 3 -1.33301 3 -4c0 -1.33301 -0.666992 -2.66602 -2 -3.99902c-6 -9.33301 -10.667 -21.666 -14 -36.999c13.333 -9.33301 22.833 -20.333 28.5 -33s8.5 -24.667 8.5 -36c0 -12 -2.16699 -22.167 -6.5 -30.5s-9.83301 -12.5 -16.5 -12.5
c-12 0 -20.5 5.16699 -25.5 15.5s-7.5 23.166 -7.5 38.499c0 14 1.66699 29.333 5 46c-6.66699 5.33301 -14.5 9.5 -23.5 12.5s-19.5 4.5 -31.5 4.5c-29.333 0 -56.333 -6.5 -81 -19.5s-45.834 -29.667 -63.501 -50s-31.334 -43.166 -41.001 -68.499
s-14.5 -50.333 -14.5 -75c0 -18.667 3 -36.5 9 -53.5s15.5 -31.833 28.5 -44.5s29.5 -22.834 49.5 -30.501s44 -11.5 72 -11.5c9.33301 0 20.833 1 34.5 3s28 5.66699 43 11s29.333 12.833 43 22.5s24.834 22.167 33.501 37.5c1.33301 3.33301 3.66602 5 6.99902 5
s5 -2.33301 5 -7zM426.007 318.999c0 8.66699 -1.66699 18.334 -5 29.001s-9.33301 20.667 -18 30c-0.666992 -4.66699 -1 -9.16699 -1 -13.5v-12.5c0 -14.667 1.5 -27.334 4.5 -38.001s7.16699 -16 12.5 -16c2 0 3.66699 2 5 6s2 9 2 15z" />
    <glyph glyph-name="ordfeminine" unicode="&#xaa;" 
d="M542 639c-7.33301 -16.667 -16.001 -33.002 -26.001 -49.002c-26.667 -40.667 -54 -70.834 -82 -90.501s-54 -29.5 -78 -29.5c-30 0 -53.333 14.333 -70 43c-18.667 -18.667 -39.667 -32.667 -63 -42s-46 -14 -68 -14c-27.333 0 -50.5 7.5 -69.5 22.5
s-28.5 38.833 -28.5 71.5c0 19.333 4.33301 38.833 13 58.5s20.834 37.834 36.501 54.501s34.167 30.167 55.5 40.5s44.666 15.5 69.999 15.5c20 0 35.667 -2.66699 47 -8s17 -10.666 17 -15.999c0 -2 -1.16699 -3.5 -3.5 -4.5s-4.16602 -1.5 -5.49902 -1.5l-2 1
c-6.66699 6 -14 10.667 -22 14s-19.667 5 -35 5c-20.667 0 -39.5 -4.33301 -56.5 -13s-31.333 -20 -43 -34s-20.667 -29.667 -27 -47s-9.5 -34.333 -9.5 -51c0 -32 7.66699 -55.167 23 -69.5s33.666 -21.5 54.999 -21.5c18 0 36.833 4.5 56.5 13.5s37.5 21.833 53.5 38.5
c-4 10 -7.16699 21.167 -9.5 33.5s-3.5 26.166 -3.5 41.499c0 20.667 3.83301 38.334 11.5 53.001s18.167 22 31.5 22c19.333 0 29 -11 29 -33c0 -21.333 -3.16699 -41.166 -9.5 -59.499s-15.166 -34.833 -26.499 -49.5c15.333 -28 36.333 -42 63 -42
c20.667 0 42.834 8.66699 66.501 26s46.167 42 67.5 74c5.33301 8 10.166 16.333 14.499 25l12.5 26zM427.999 373.998c0 -4.66699 -1.66895 -7.00488 -5.00195 -7.00488c-4.66699 1.33301 -13.5 2.33301 -26.5 3s-27.167 1 -42.5 1c-44 0 -83.833 -0.166992 -119.5 -0.5
s-66.167 -1.16602 -91.5 -2.49902c-29.333 -1.33301 -55.666 -2.66602 -78.999 -3.99902c-2.66699 0.666992 -5 2.33398 -7 5.00098s-3 5.33398 -3 8.00098c0 4.66699 2.33301 7 7 7c12 1.33301 32.667 2.5 62 3.5s61 1.83301 95 2.5s67.5 1.16699 100.5 1.5
s59.5 0.5 79.5 0.5c6.66699 0 13.334 -0.666992 20.001 -2s10 -6.66602 10 -15.999zM325.997 637.993c0 8 -1.33301 14.501 -4 19.501s-6.66699 7.5 -12 7.5c-9.33301 0 -16.5 -4.33301 -21.5 -13s-7.16699 -19.667 -6.5 -33c0.666992 -14.667 2.5 -27.834 5.5 -39.501
s6.16699 -22.167 9.5 -31.5c9.33301 12.667 16.5 26.5 21.5 41.5s7.5 31.167 7.5 48.5z" />
    <glyph glyph-name="guillemotleft" unicode="&#xab;" horiz-adv-x="537" 
d="M421 28c0 -2.66699 -1.33398 -6.00293 -4.00098 -10.0029c-1.33301 -2 -2.66602 -3.66699 -3.99902 -5l-17 12c-34 23.333 -64.5 43 -91.5 59s-53.833 24 -80.5 24c-4.66699 0 -7.66699 2.33301 -9 7c0 6.66699 3 10.334 9 11.001c26.667 0 54.667 12.167 84 36.5
s59 56.5 89 96.5c9.33301 0 14 -3.66699 14 -11c0 -3.33301 -2 -7.66602 -6 -12.999l-68 -74.5c-18.667 -20.333 -38.667 -34.166 -60 -41.499c14 -4 26.667 -9 38 -15s22.333 -12.5 33 -19.5l32.5 -22l36.5 -24.5c2.66699 -2.66699 4 -6 4 -10zM301.999 22.9971
c0 -2.66699 -1.33496 -6.00098 -4.00195 -10.001c-1.33301 -2 -2.66602 -3.66699 -3.99902 -5c-18.667 13.333 -38 25.666 -58 36.999s-39.5 21.333 -58.5 30s-37.333 15.5 -55 20.5s-33.5 7.5 -47.5 7.5c-4.66699 0 -7.66699 2.33301 -9 7c0 6.66699 3 10.334 9 11.001
c13.333 0 28.666 3.16699 45.999 9.5s35.166 15.333 53.499 27s36.5 25.667 54.5 42s34.333 34.5 49 54.5h3c7.33301 0 11 -3.66699 11 -11c0 -3.33301 -2 -7.66602 -6 -12.999c-27.333 -30 -55.166 -55 -83.499 -75s-53.166 -33.667 -74.499 -41
c28.667 -8.66699 57.334 -20 86.001 -34s56.667 -29.667 84 -47c2.66699 -2.66699 4 -6 4 -10z" />
    <glyph glyph-name="logicalnot" unicode="&#xac;" horiz-adv-x="403" 
d="M416 205c-4.66699 -10 -9.66895 -20.167 -15.002 -30.5s-11.333 -20.5 -18 -30.5c-38 -55.333 -75 -95.333 -111 -120s-70 -37 -102 -37c-29.333 0 -56.5 9.16699 -81.5 27.5s-46.5 43.666 -64.5 75.999s-32 70.666 -42 114.999s-15 92.166 -15 143.499
c0 47.333 2 91 6 131c-39.333 -0.666992 -73 -1.5 -101 -2.5s-51.667 -2 -71 -3s-35 -2 -47 -3s-21.333 -1.5 -28 -1.5c-6 0 -11 2 -15 6s-6 9.33301 -6 16c0 4.66699 2.16699 8.83398 6.5 12.501s13.166 6.16699 26.499 7.5c19.333 1.33301 50.833 2.33301 94.5 3
s92.167 1.33398 145.5 2.00098c6 46.667 14.167 87.334 24.5 122.001s21.666 63.334 33.999 86.001s25.166 39.667 38.499 51s26 17 38 17c15.333 0 28.333 -9.66699 39 -29s16 -48 16 -86c0 -21.333 -2 -45.333 -6 -72s-10.333 -56 -19 -88c41.333 0.666992 79.333 1 114 1
h83c14 0 21 -6.66699 21 -20c0 -4 -1.33301 -7.83301 -4 -11.5s-8.66699 -5.5 -18 -5.5h-46.5h-53c-18.333 0 -36.666 -0.166992 -54.999 -0.5s-36.166 -0.5 -53.499 -0.5c-11.333 -38 -26.166 -78.833 -44.499 -122.5s-41.166 -90.5 -68.499 -140.5
c7.33301 -28.667 16.5 -55.5 27.5 -80.5s23.667 -46.833 38 -65.5s30 -33.334 47 -44.001s35.5 -16 55.5 -16c26 0 53.833 10.5 83.5 31.5s60.834 55.5 93.501 103.5c6.66699 10 12.667 20.333 18 31l16 32zM139.998 659c0 34.667 -4.16504 60.999 -12.498 78.999
s-18.5 27 -30.5 27c-8.66699 0 -17.834 -4.83301 -27.501 -14.5s-18.834 -24.667 -27.501 -45s-16.5 -46.166 -23.5 -77.499s-12.5 -68.333 -16.5 -111c20 0.666992 40 1 60 1h59c12.667 54.667 19 101.667 19 141zM32 479.999l-31.999 -0.00195312
c-2 -28.667 -3 -59.667 -3 -93c0 -24 1.16699 -48.167 3.5 -72.5s6.16602 -48.166 11.499 -71.499c23.333 44.667 43 86.834 59 126.501s29 76.5 39 110.5h-78z" />
    <glyph glyph-name="registered" unicode="&#xae;" horiz-adv-x="613" 
d="M562 270c0 -40 -8.49707 -78.166 -25.4971 -114.499s-39.667 -68.333 -68 -96s-60.833 -49.5 -97.5 -65.5s-74.334 -24 -113.001 -24c-31.333 0 -60 5.33301 -86 16s-48.5 25.334 -67.5 44.001s-33.667 40.667 -44 66s-15.5 53 -15.5 83c0 40 8.5 78.167 25.5 114.5
s39.5 68.333 67.5 96s60.167 49.667 96.5 66s74.166 24.5 113.499 24.5c31.333 0 60.166 -5.33301 86.499 -16s49 -25.334 68 -44.001s33.667 -40.834 44 -66.501s15.5 -53.5 15.5 -83.5zM544.003 266.001c0 28 -4.83203 53.833 -14.499 77.5s-23.167 44.334 -40.5 62.001
s-38.333 31.5 -63 41.5s-51.667 15 -81 15c-36 0 -71 -7.66699 -105 -23s-64.167 -35.833 -90.5 -61.5s-47.333 -55.334 -63 -89.001s-23.5 -69.167 -23.5 -106.5c0 -27.333 4.83301 -52.833 14.5 -76.5s23.167 -44.167 40.5 -61.5s38.166 -31 62.499 -41
s51.166 -15 80.499 -15c36 0 70.833 7.5 104.5 22.5s63.834 35.167 90.501 60.5s48 54.833 64 88.5s24 69.167 24 106.5zM459.004 354.001c0 -19.333 -6.32715 -40.502 -18.9941 -63.502s-30.834 -45.5 -54.501 -67.5s-52.334 -41.833 -86.001 -59.5
s-71.5 -30.5 -113.5 -38.5v-7.5c0 -2.33301 0.333008 -5.16602 1 -8.49902c12 -2.66699 25.667 -6 41 -10l46.5 -12.5c15.667 -4.33301 31 -9 46 -14s28.5 -10.167 40.5 -15.5c4 -2.66699 6 -5 6 -7c0 -1.33301 -0.833008 -3.33301 -2.5 -6s-3.83398 -4 -6.50098 -4
c-2 0 -3.66699 0.333008 -5 1c-14.667 6.66699 -37 15.834 -67 27.501s-62.667 22.167 -98 31.5c0.666992 -10.667 1.66699 -20.5 3 -29.5s2.66602 -15.167 3.99902 -18.5c0 -1.33301 -0.5 -2.33301 -1.5 -3s-3.5 -1 -7.5 -1c-4.66699 0 -7.33398 3.66699 -8.00098 11
c-1.33301 3.33301 -2.5 8.83301 -3.5 16.5s-2.16699 17.167 -3.5 28.5c-8 2 -16 3.83301 -24 5.5s-16 3.16699 -24 4.5c-6.66699 0 -10 1.66699 -10 5c0 2.66699 2.33301 4 7 4c8.66699 0.666992 17.167 1.5 25.5 2.5s16.5 2.5 24.5 4.5v13c0 27.333 3.33301 57 10 89
s17.667 61.833 33 89.5s35.666 50.667 60.999 69s56.333 27.5 93 27.5c32 0 55.333 -5.83301 70 -17.5s22 -27.167 22 -46.5zM424.01 351.999c0 16.667 -5.49902 30.1689 -16.499 40.502s-28.5 15.5 -52.5 15.5c-26 0 -49.5 -8 -70.5 -24s-38.833 -36.5 -53.5 -61.5
s-25.834 -52.833 -33.501 -83.5s-11.5 -60.667 -11.5 -90v-15c36 9.33301 68.5 22.666 97.5 39.999s54 36.333 75 57s37.167 41.667 48.5 63s17 40.666 17 57.999zM170.011 123.001l-20.001 -3c-4 0 -6 -0.666992 -6 -2c2.66699 0 11.334 -1.66699 26.001 -5v10z" />
    <glyph glyph-name="macron" unicode="&#xaf;" 
d="M295 430c0 -4.66699 -1.66797 -7.00391 -5.00098 -7.00391c-4.66699 1.33301 -13.5 2.33301 -26.5 3s-27.167 1 -42.5 1c-87.333 0 -151 -1 -191 -3c-23.333 -1.33301 -43 -2.66602 -59 -3.99902c-2.66699 0.666992 -5 2.33398 -7 5.00098s-3 5.33398 -3 8.00098
c0 4.66699 2.33301 7 7 7c12 1.33301 30.5 2.5 55.5 3.5s52 1.83301 81 2.5s58 1.16699 87 1.5s53.5 0.5 73.5 0.5c6.66699 0 13.334 -0.666992 20.001 -2s10 -6.66602 10 -15.999z" />
    <glyph glyph-name="degree" unicode="&#xb0;" horiz-adv-x="380" 
d="M299 697c0 -13.333 -2.5 -26.666 -7.5 -39.999s-12.167 -25.5 -21.5 -36.5s-20.5 -19.833 -33.5 -26.5s-27.833 -10 -44.5 -10c-14 0 -26.167 2.66699 -36.5 8s-19 12.166 -26 20.499s-12.333 18 -16 29s-5.5 22.167 -5.5 33.5c0 12.667 2.16699 25 6.5 37
s10.833 22.833 19.5 32.5s19.667 17.5 33 23.5s29 9 47 9c29.333 0 50.833 -8 64.5 -24s20.5 -34.667 20.5 -56zM277 674c0 10 -1.66992 20.0029 -5.00293 30.0029s-8.16602 18.833 -14.499 26.5s-14 14 -23 19s-18.833 7.5 -29.5 7.5c-28 0 -47.5 -6.16699 -58.5 -18.5
s-16.5 -26.5 -16.5 -42.5c0 -10.667 2 -21.334 6 -32.001s9.33301 -20.334 16 -29.001s14.334 -15.834 23.001 -21.501s17.334 -8.5 26.001 -8.5c27.333 0 46.833 7 58.5 21s17.5 30 17.5 48z" />
    <glyph glyph-name="plusminus" unicode="&#xb1;" horiz-adv-x="394" 
d="M406 205l-14.5 -30.499c-5 -10.333 -11.167 -20.5 -18.5 -30.5c-32.667 -46.667 -69.834 -81.834 -111.501 -105.501s-81.5 -35.5 -119.5 -35.5c-20.667 0 -40.334 3.66699 -59.001 11s-34.667 18.333 -48 33s-24 33 -32 55s-12 48 -12 78c0 20.667 3.33301 41 10 61
s15.5 38 26.5 54s23.833 29 38.5 39s30.334 15 47.001 15c17.333 0 31.666 -5.5 42.999 -16.5s17 -24.167 17 -39.5c0 -10 -2.66699 -19.833 -8 -29.5s-13.666 -18.667 -24.999 -27s-26.333 -15.5 -45 -21.5s-41.667 -10 -69 -12c1.33301 -55.333 15.5 -97.333 42.5 -126
s59.833 -43 98.5 -43c30 0 61.333 9.16699 94 27.5s63.334 46.833 92.001 85.5c7.33301 9.33301 13.5 19.5 18.5 30.5l15.5 32.5zM133 280.001c0 12.667 -3.83203 23.999 -11.499 33.999s-16.167 15 -25.5 15c-10 0 -19.167 -3 -27.5 -9s-15.5 -14.333 -21.5 -25
s-10.833 -22.667 -14.5 -36s-5.83398 -27.666 -6.50098 -42.999c40.667 1.33301 68.667 8.5 84 21.5s23 27.167 23 42.5z" />
    <glyph glyph-name="twosuperior" unicode="&#xb2;" horiz-adv-x="296" 
d="M354 738c0 -15.333 -2.16699 -30.1689 -6.5 -44.502s-9.5 -27.166 -15.5 -38.499s-12 -20.333 -18 -27s-10.667 -10 -14 -10c-4.66699 0 -8.5 1.66699 -11.5 5s-4.5 6.66602 -4.5 9.99902c0 2.66699 1 5.33398 3 8.00098c9.33301 12 16.666 23.667 21.999 35
s9.16602 21.5 11.499 30.5s3.83301 17.167 4.5 24.5s1.33398 13 2.00098 17c0 5.33301 -1 13 -3 23s-6 19.833 -12 29.5s-14.167 18.167 -24.5 25.5s-23.833 11 -40.5 11c-36 0 -65.167 -10 -87.5 -30s-39.833 -45.667 -52.5 -77s-21.334 -66.5 -26.001 -105.5
s-7 -77.167 -7 -114.5c0 -35.333 1 -68.5 3 -99.5s4.33301 -61.5 7 -91.5c21.333 0.666992 43.333 1 66 1h71c10 0 20.167 -0.666992 30.5 -2s15.5 -6.66602 15.5 -15.999c0 -4.66699 -2.66699 -7 -8 -7c-7.33301 1.33301 -21.166 2.33301 -41.499 3s-42.5 1 -66.5 1h-33.5
c-11 0 -21.5 -0.333008 -31.5 -1c2.66699 -32.667 5.16699 -65.834 7.5 -99.501s3.5 -69.834 3.5 -108.501c0 -14 -0.166992 -28.167 -0.5 -42.5s-0.833008 -27.833 -1.5 -40.5s-1.33398 -24 -2.00098 -34s-1.66699 -17.333 -3 -22c-2.66699 -13.333 -8 -20 -16 -20
c-7.33301 0 -13.166 2 -17.499 6s-6.5 9.66699 -6.5 17c0 5.33301 1.33301 20.666 4 45.999s4 56.333 4 93c0 10.667 -0.333008 23.5 -1 38.5s-1.5 31.5 -2.5 49.5s-2.16699 36.833 -3.5 56.5l-4 59.5c-19.333 -0.666992 -36.833 -1.16699 -52.5 -1.5
s-29.167 -0.833008 -40.5 -1.5c-13.333 -0.666992 -25 -1.33398 -35 -2.00098c-4.66699 0.666992 -8.5 2.33398 -11.5 5.00098s-4.5 5.33398 -4.5 8.00098c0 4.66699 3.66699 7 11 7c38 2 82 4 132 6l-4 57c-1.33301 18.667 -2.5 35.834 -3.5 51.501
s-1.83301 29.667 -2.5 42s-1 21.833 -1 28.5c0 46 4.5 90.167 13.5 132.5s22.5 79.833 40.5 112.5s40.5 58.667 67.5 78s58.5 29 94.5 29c16 0 30.5 -3 43.5 -9s23.833 -14.167 32.5 -24.5s15.334 -22.166 20.001 -35.499s7 -27.333 7 -42z" />
    <glyph glyph-name="threesuperior" unicode="&#xb3;" horiz-adv-x="491" 
d="M445 -21c0 -2.66699 -1.66602 -5.16699 -4.99902 -7.5s-8.66602 -3.5 -15.999 -3.5c-23.333 0 -42.833 5.5 -58.5 16.5s-29.334 24.667 -41.001 41s-22 34 -31 53s-18.667 36.667 -29 53s-22.166 30 -35.499 41s-30 16.5 -50 16.5c-22 0 -40.833 -5.16699 -56.5 -15.5
s-29.167 -23.166 -40.5 -38.499s-21 -32 -29 -50s-15 -34.667 -21 -50c-3.33301 -8 -5.5 -17.167 -6.5 -27.5s-2.5 -17.833 -4.5 -22.5c-1.33301 -4 -3.66602 -7.83301 -6.99902 -11.5s-7.33301 -5.5 -12 -5.5c-3.33301 0 -6 0.666992 -8 2
c-4.66699 2.66699 -7 7.66699 -7 15c0 4 0.666992 8.16699 2 12.5s2.33301 8.83301 3 13.5c2 18 3 38 3 60c0 26 -1 54 -3 84c-15.333 -16.667 -30.333 -30.667 -45 -42c-0.666992 -0.666992 -2.33398 -1 -5.00098 -1c-3.33301 0 -7.16602 0.5 -11.499 1.5
s-6.5 2.5 -6.5 4.5c0 1.33301 1.66699 3 5 5c20.667 14 41 32.333 61 55c-2 27.333 -4.66699 54.666 -8 81.999s-6.33301 54 -9 80s-5 50.833 -7 74.5s-3 44.834 -3 63.501c0 34 2.66699 67 8 99s13.166 60.167 23.499 84.5s23.5 44 39.5 59s34.667 22.5 56 22.5
c36 0 61.667 -11.5 77 -34.5s23 -53.167 23 -90.5c0 -30.667 -4.66699 -64.834 -14 -102.501s-21.833 -75.667 -37.5 -114s-33.834 -76 -54.501 -113s-42.334 -70.167 -65.001 -99.5c1.33301 -17.333 2.66602 -33.666 3.99902 -48.999s2.66602 -28.666 3.99902 -39.999
c1.33301 -12.667 2.33301 -24.667 3 -36c10.667 28 24.334 53 41.001 75c14 18.667 31.5 35.667 52.5 51s45.5 23 73.5 23c21.333 0 39.333 -5.5 54 -16.5s27.667 -24.833 39 -41.5s21.833 -34.834 31.5 -54.501s19.834 -37.834 30.501 -54.501s22.5 -30.5 35.5 -41.5
s28.833 -16.5 47.5 -16.5c6.66699 0 10 -3 10 -9zM160.001 603c0 35.333 -6.33398 63.833 -19.001 85.5s-33.667 32.5 -63 32.5c-20.667 0 -36.5 -8 -47.5 -24s-19.167 -34.833 -24.5 -56.5s-8.5 -44 -9.5 -67s-1.5 -41.5 -1.5 -55.5c0 -4.66699 0.666992 -17.5 2 -38.5
l5 -75c2 -29 4.33301 -60.333 7 -94l8 -97.5c20 28 38.833 58.667 56.5 92s32.834 67.5 45.501 102.5s22.667 69.333 30 103s11 64.5 11 92.5z" />
    <glyph glyph-name="acute" unicode="&#xb4;" horiz-adv-x="273" 
d="M165 515c0 -11.333 -4.33496 -24.001 -13.002 -38.001s-19.334 -27.167 -32.001 -39.5s-26.167 -22.666 -40.5 -30.999s-27.166 -12.5 -38.499 -12.5c-1.33301 0 -3 0.333008 -5 1s-3 2 -3 4c24.667 8.66699 42.334 21 53.001 37s18.334 31.833 23.001 47.5l12 41
c3.33301 11.667 10.333 17.5 21 17.5c7.33301 0 13 -3 17 -9s6 -12 6 -18z" />
    <glyph glyph-name="paragraph" unicode="&#xb6;" horiz-adv-x="500" 
d="M385 630c0 -8.66699 -4.5 -16.166 -13.5 -22.499s-23.833 -10.166 -44.5 -11.499v-63c0 -30.667 -0.166992 -66.5 -0.5 -107.5s-0.5 -84.833 -0.5 -131.5s-0.166992 -91.834 -0.5 -135.501s-0.5 -83.667 -0.5 -120v-85.5c0 -12.667 -3.33301 -19 -10 -19
s-10 7.33301 -10 22v639h-13.5c-4.33301 0 -9.16602 0.333008 -14.499 1c-0.666992 -24.667 -1.5 -53.834 -2.5 -87.501s-1.83301 -69.667 -2.5 -108s-1.16699 -78 -1.5 -119s-0.833008 -81.167 -1.5 -120.5s-1.16699 -77 -1.5 -113s-0.833008 -68 -1.5 -96
c0 -5.33301 -1.16699 -9.83301 -3.5 -13.5s-4.83301 -5.5 -7.5 -5.5c-5.33301 0 -8 7.66699 -8 23v483c0 0.666992 -0.333008 1 -1 1h-1c-8 -11.333 -17.333 -21.333 -28 -30c-9.33301 -7.33301 -20.5 -14.333 -33.5 -21s-28.167 -10 -45.5 -10
c-30 0 -51.667 8.83301 -65 26.5s-20 38.834 -20 63.501c0 17.333 3.16699 35.166 9.5 53.499s15.333 35 27 50s25.667 27.333 42 37s34.5 14.5 54.5 14.5c8 0 17.333 -0.333008 28 -1l33.5 -2l34.5 -2c11.333 -0.666992 21.333 -1 30 -1c10 0 18.5 0.833008 25.5 2.5
s13 3.66699 18 6l12.5 6c3.33301 1.66699 6.66602 2.5 9.99902 2.5c4.66699 0 7 -1.66699 7 -5z" />
    <glyph glyph-name="periodcentered" unicode="&#xb7;" horiz-adv-x="284" 
d="M148 134c0 -8.66699 -2 -17.3311 -6 -25.998s-11.667 -13 -23 -13c-6 0.666992 -11.333 2.66699 -16 6c-4 3.33301 -7.66699 7.66602 -11 12.999s-5 12.666 -5 21.999s2.33301 18 7 26s12 12 22 12c13.333 0 22 -3.83301 26 -11.5s6 -17.167 6 -28.5z" />
    <glyph glyph-name="cedilla" unicode="&#xb8;" horiz-adv-x="500" 
d="M374 -141c0 -14 -6.83691 -26.167 -20.5039 -36.5s-36.167 -15.5 -67.5 -15.5c-9.33301 0 -19.666 0.833008 -30.999 2.5s-22 3.66699 -32 6s-18.667 5 -26 8s-12 6.16699 -14 9.5v5c0 4 1 6 3 6c2.66699 0 11.334 -2.5 26.001 -7.5s31.667 -7.5 51 -7.5
c24.667 0 42.167 3.16699 52.5 9.5s15.5 14.166 15.5 23.499c0 6 -2.16699 12.333 -6.5 19s-10.333 12.834 -18 18.501s-16.667 10.167 -27 13.5s-21.166 5 -32.499 5c-10 0 -19 -1.33301 -27 -4c2.66699 13.333 5.66699 26.333 9 39s6.33301 25.667 9 39h26l-6 -24
c-2 -8 -3 -16.333 -3 -25c18 -0.666992 34.167 -3.66699 48.5 -9s26.833 -12 37.5 -20s18.834 -16.833 24.501 -26.5s8.5 -19.167 8.5 -28.5z" />
    <glyph glyph-name="onesuperior" unicode="&#xb9;" horiz-adv-x="415" 
d="M431 213c-17.333 -40.667 -38.833 -69.167 -64.5 -85.5s-54.5 -24.5 -86.5 -24.5c-6.66699 0 -13.167 0.166992 -19.5 0.5s-12.5 0.833008 -18.5 1.5c-2.66699 -18 -7.33398 -35 -14.001 -51s-15.167 -30 -25.5 -42s-22.833 -21.5 -37.5 -28.5
s-31.334 -10.5 -50.001 -10.5c-26 0 -47.833 4.33301 -65.5 13s-32 20.334 -43 35.001s-18.833 31.334 -23.5 50.001s-7 37.667 -7 57s2.16699 38.333 6.5 57s10 35.167 17 49.5s15.167 26 24.5 35s19 13.5 29 13.5c7.33301 0 11 -3.66699 11 -11
c0 -6.66699 -2.5 -14.834 -7.5 -24.501s-10.5 -19.334 -16.5 -29.001l-17.5 -27c-5.66699 -8.33301 -9.16699 -15.166 -10.5 -20.499c-2 -12.667 -3 -24.334 -3 -35.001c0 -16.667 2.66699 -33.167 8 -49.5s13 -30.833 23 -43.5s22.333 -22.834 37 -30.501
s31.334 -11.5 50.001 -11.5c29.333 0 52.333 10.5 69 31.5s27.334 46.167 32.001 75.5c-26.667 5.33301 -50 13.666 -70 24.999s-36.667 24.333 -50 39s-23.166 29.834 -29.499 45.501s-9.5 30.167 -9.5 43.5c0 14 3.5 25.667 10.5 35s17.5 14 31.5 14
c22 0 41.5 -4.83301 58.5 -14.5s31 -22.5 42 -38.5s19.333 -34.167 25 -54.5s8.5 -41.166 8.5 -62.499v-8c16.667 -3.33301 32.667 -5 48 -5c23.333 0 45.666 7.16699 66.999 21.5s39.333 39.5 54 75.5zM230 137c0 19.333 -2.49902 38.166 -7.49902 56.499
s-12.667 35 -23 50s-23.333 27 -39 36s-33.834 13.5 -54.501 13.5c-10 0 -15 -6.33301 -15 -19c0 -8.66699 3 -19.667 9 -33s14.833 -26.666 26.5 -39.999s26.167 -26 43.5 -38s37.333 -21.333 60 -28v2z" />
    <glyph glyph-name="ordmasculine" unicode="&#xba;" horiz-adv-x="415" 
d="M459 671c-14 -32.667 -31.3301 -55.5 -51.9971 -68.5s-43.667 -19.5 -69 -19.5h-15.5c-5 0 -9.83301 0.333008 -14.5 1c-4.66699 -28 -15.334 -52.5 -32.001 -73.5s-40 -31.5 -70 -31.5c-20.667 0 -38.167 3.5 -52.5 10.5s-25.833 16.333 -34.5 28
s-14.834 24.834 -18.501 39.501s-5.5 30 -5.5 46c0 15.333 1.66699 30.333 5 45s7.66602 27.834 12.999 39.501s11.833 21.167 19.5 28.5s15.5 11 23.5 11c2.66699 0 4.83398 -1.16699 6.50098 -3.5s2.5 -4.83301 2.5 -7.5c0 -4 -2 -6.66699 -6 -8
c-6.66699 -2 -13 -6.66699 -19 -14c-5.33301 -6 -9.83301 -14.667 -13.5 -26s-5.5 -27.333 -5.5 -48c0 -34 8.16699 -62.333 24.5 -85s39.5 -34 69.5 -34c23.333 0 41.833 8.5 55.5 25.5s22.167 37.167 25.5 60.5c-22 4 -40.833 10.667 -56.5 20
s-28.834 19.666 -39.501 30.999s-18.5 23.333 -23.5 36s-7.5 24.334 -7.5 35.001c0 11.333 2.83301 20.666 8.5 27.999s14.167 11 25.5 11c18 0 33.667 -3.83301 47 -11.5s24.5 -18 33.5 -31s15.667 -27.5 20 -43.5s6.5 -32.667 6.5 -50v-7c12 -2 24.667 -3 38 -3
c19.333 0 37.5 5.66699 54.5 17s31.167 31.666 42.5 60.999zM398.003 374c0 -4.66699 -1.66992 -7.00391 -5.00293 -7.00391c-4.66699 1.33301 -13.5 2.33301 -26.5 3s-27.167 1 -42.5 1c-87.333 0 -152.666 -1 -195.999 -3
c-25.333 -1.33301 -46.666 -2.66602 -63.999 -3.99902c-2.66699 0.666992 -5 2.33398 -7 5.00098s-3 5.33398 -3 8.00098c0 4.66699 2.33301 7 7 7c12 1.33301 31 2.5 57 3.5s54.167 1.83301 84.5 2.5s60.5 1.16699 90.5 1.5s55 0.5 75 0.5
c6.66699 0 13.334 -0.666992 20.001 -2s10 -6.66602 10 -15.999zM298 609.996c0 15.333 -2.00098 30.5 -6.00098 45.5s-10.167 28.333 -18.5 40s-18.666 21.167 -30.999 28.5s-26.833 11 -43.5 11c-4 0 -7 -1.5 -9 -4.5s-3 -6.5 -3 -10.5c0 -7.33301 2.33301 -16.333 7 -27
s11.667 -21.334 21 -32.001s21 -20.667 35 -30s30 -16.666 48 -21.999v1z" />
    <glyph glyph-name="guillemotright" unicode="&#xbb;" horiz-adv-x="537" 
d="M459 160c0 -6 -2.99805 -9.66504 -8.99805 -10.998c-13.333 0 -28.666 -3.16699 -45.999 -9.5s-35.166 -15.333 -53.499 -27s-36.5 -25.667 -54.5 -42s-34.333 -34.5 -49 -54.5h-3c-7.33301 0 -11 3.66699 -11 11c0 4 2 8.33301 6 13c27.333 30 55.166 55 83.499 75
s53.166 33.667 74.499 41c-28.667 8.66699 -57.334 20 -86.001 34s-56.667 29.667 -84 47c-2.66699 2.66699 -4 6 -4 10c0 3.33301 1.33301 7 4 11c1.33301 2 2.66602 3.33301 3.99902 4c18.667 -12.667 38 -24.834 58 -36.501s39.5 -21.834 58.5 -30.501
s37.333 -15.5 55 -20.5s33.5 -7.5 47.5 -7.5c4.66699 0 7.66699 -2.33301 9 -7zM310.002 155.002c0 -6 -3 -9.66797 -9 -11.001c-26.667 0 -54.667 -12.167 -84 -36.5s-59 -56.5 -89 -96.5h-3c-7.33301 0 -11 3.66699 -11 11c0 4 2 8.33301 6 13l36.5 41
c11 12.667 21.5 23.834 31.5 33.501s19.833 18 29.5 25s19.834 12.5 30.501 16.5c-14 4 -26.667 9 -38 15s-22.333 12.5 -33 19.5l-32.5 22l-36.5 24.5c-2.66699 2.66699 -4 6 -4 10c0 3.33301 1.33301 7 4 11c1.33301 2 2.66602 3.33301 3.99902 4l17 -12
c34 -23.333 64.5 -43 91.5 -59s53.833 -24 80.5 -24c4.66699 0 7.66699 -2.33301 9 -7z" />
    <glyph glyph-name="onequarter" unicode="&#xbc;" horiz-adv-x="515" 
d="M531 213c-15.333 -42 -38.499 -72.0039 -69.499 -90.0039s-64.167 -27 -99.5 -27h-11.5c-3.66699 0 -7.5 0.333008 -11.5 1c-4.66699 -16.667 -11 -32.5 -19 -47.5s-17.833 -28 -29.5 -39s-25.167 -19.833 -40.5 -26.5s-32 -10 -50 -10
c-40.667 0 -75.834 11.5 -105.501 34.5s-54.167 53.333 -73.5 91s-33.666 80.5 -42.999 128.5s-14 97 -14 147c0 66 7 124.833 21 176.5s31.167 95 51.5 130s42 61.667 65 80s43.833 27.5 62.5 27.5c19.333 0 29 -15.333 29 -46c0 -23.333 -5 -53.666 -15 -90.999
s-23.167 -79 -39.5 -125s-34.666 -94.833 -54.999 -146.5l-61.5 -154.5c-2.66699 -5.33301 -4.33398 -9.33301 -5.00098 -12c8.66699 -31.333 19.334 -60.666 32.001 -87.999s27.167 -51 43.5 -71s34.666 -35.833 54.999 -47.5s42.5 -17.5 66.5 -17.5
c27.333 0 49 11.167 65 33.5s26 48.5 30 78.5c-18 4 -35 10.167 -51 18.5s-30.167 18 -42.5 29s-22 23.5 -29 37.5s-10.5 28.667 -10.5 44c0 20.667 5.5 38.334 16.5 53.001s24.167 22 39.5 22c20 0 37.167 -4 51.5 -12s26.333 -18.833 36 -32.5
s16.834 -29.167 21.501 -46.5s7 -35.666 7 -54.999c0 -11.333 -1 -23 -3 -35c2.66699 0 5.66699 -0.166992 9 -0.5s6.66602 -0.5 9.99902 -0.5c4 0 8.33301 -0.333008 13 -1c29.333 -2 56.666 5 81.999 21s44 42.667 56 80zM164.001 719.996
c0 22 -6.66699 32.999 -20 32.999s-28.833 -7.33301 -46.5 -22s-34.5 -36 -50.5 -64s-29.5 -62.5 -40.5 -103.5s-16.5 -88.167 -16.5 -141.5c0 -30 1.66699 -60 5 -90s8 -59.333 14 -88l54.5 145l50 136c15 42.667 27.167 80.834 36.5 114.501s14 60.5 14 80.5z
M312.001 135.995c0 18 -2.00195 35.334 -6.00195 52.001s-9.66699 31.667 -17 45s-16.666 24 -27.999 32s-24.333 12 -39 12c-9.33301 0 -16.666 -3.33301 -21.999 -10s-8 -15 -8 -25c0 -10.667 3.16699 -21.5 9.5 -32.5s15 -21.333 26 -31s23.833 -18.334 38.5 -26.001
s30 -14.167 46 -19.5v3z" />
    <glyph glyph-name="onehalf" unicode="&#xbd;" horiz-adv-x="453" 
d="M465 205c-4.66699 -10 -9.66699 -20.167 -15 -30.5s-11.333 -20.5 -18 -30.5c-35.333 -52 -72.166 -89.5 -110.499 -112.5s-76.166 -34.5 -113.499 -34.5c-42.667 0 -79.334 9.83301 -110.001 29.5s-55.834 45.834 -75.501 78.501s-34 70.167 -43 112.5
s-13.5 86.166 -13.5 131.499c0 53.333 5.66699 106.333 17 159s27.5 100 48.5 142s46.167 76.167 75.5 102.5s61.666 39.5 96.999 39.5c22.667 0 42.334 -4.33301 59.001 -13s30.334 -20.834 41.001 -36.501s18.5 -34.167 23.5 -55.5s7.5 -44.666 7.5 -69.999
c0 -40.667 -6.33301 -85.167 -19 -133.5s-30.5 -95.833 -53.5 -142.5s-50.833 -90.667 -83.5 -132s-69 -75.666 -109 -102.999c19.333 -26 42.166 -46.667 68.499 -62s57.5 -23 93.5 -23c28.667 0 58.167 9.66699 88.5 29s60.833 51.666 91.5 96.999
c6.66699 10 12.667 20.333 18 31l16 32zM301 587c0 26 -2.33301 49.8291 -7 71.4961s-11.5 40.5 -20.5 56.5s-20.5 28.5 -34.5 37.5s-30 13.5 -48 13.5c-30 0 -57.167 -11 -81.5 -33s-44.833 -50.667 -61.5 -86s-29.5 -75.666 -38.5 -120.999s-13.5 -91.666 -13.5 -138.999
c0 -50 5.16699 -98.333 15.5 -145s26.833 -87.667 49.5 -123c40 26 75 57.833 105 95.5s55 77.834 75 120.501s35 85.834 45 129.501s15 84.5 15 122.5z" />
    <glyph glyph-name="threequarters" unicode="&#xbe;" horiz-adv-x="470" 
d="M483 205c-8.66699 -18.667 -19.6641 -38.9951 -32.9971 -60.9951c-25.333 -40 -51 -76.333 -77 -109s-51.667 -63.334 -77 -92.001c8 -32.667 16.333 -64.834 25 -96.501s16.667 -63.334 24 -95.001s13.5 -63.5 18.5 -95.5s7.5 -64.667 7.5 -98
c0 -37.333 -4.66699 -69.333 -14 -96s-21.5 -48.5 -36.5 -65.5s-32.333 -29.5 -52 -37.5s-39.5 -12 -59.5 -12c-20.667 0 -41.167 4 -61.5 12s-38.5 19.5 -54.5 34.5s-28.833 33.167 -38.5 54.5s-14.5 45.333 -14.5 72c0 42.667 6.66699 82.5 20 119.5
s30.666 72.5 51.999 106.5s45.833 66.833 73.5 98.5l84.5 95.5c-6.66699 29.333 -12 57.5 -16 84.5s-6 52.833 -6 77.5c0 9.33301 -1 14 -3 14c-14.667 -17.333 -30.667 -32.666 -48 -45.999c-15.333 -11.333 -32.666 -22 -51.999 -32s-39.666 -15 -60.999 -15
s-39.666 2.5 -54.999 7.5s-27.833 11.833 -37.5 20.5s-16.834 19 -21.501 31s-7 24.667 -7 38c0 23.333 6.16699 47.833 18.5 73.5s29.333 49.334 51 71.001s47 39.667 76 54s60.167 21.5 93.5 21.5c25.333 0 45 -3.5 59 -10.5s21 -13.5 21 -19.5
c0 -3.33301 -1.66699 -5 -5 -5c-2 0 -4 1 -6 3c-6.66699 4.66699 -16.5 9 -29.5 13s-27.833 6 -44.5 6c-28.667 0 -54.5 -6.16699 -77.5 -18.5s-42.5 -27.833 -58.5 -46.5s-28.333 -39.334 -37 -62.001s-13 -44.334 -13 -65.001c0 -25.333 7 -47 21 -65s36.667 -27 68 -27
c21.333 0 40.833 5 58.5 15s33.167 21.333 46.5 34c15.333 14.667 29.333 31 42 49l2 27c0.666992 7.33301 1.16699 14.666 1.5 21.999s1.16602 13.333 2.49902 18c1.33301 4 3 9.83301 5 17.5s4.5 15.167 7.5 22.5s6.5 13.666 10.5 18.999s8.33301 8 13 8
c5.33301 -0.666992 8.66602 -2.5 9.99902 -5.5s2 -6.83301 2 -11.5c0 -8 -1.33301 -16.667 -4 -26s-5.83398 -18.5 -9.50098 -27.5s-7.5 -17.5 -11.5 -25.5s-7.33301 -15 -10 -21c0.666992 -34.667 3.16699 -68 7.5 -100s10.166 -63.333 17.499 -94
c25.333 28.667 50 58 74 88s45.667 61.667 65 95l17.5 31.5l16.5 31.5zM353.003 -419.995c0 18.667 -2.66699 40.833 -8 66.5s-11.833 53.334 -19.5 83.001l-25 93c-9 32.333 -17.5 64.5 -25.5 96.5l-81.5 -90.5c-25.667 -29 -47.834 -58.333 -66.501 -88
s-33.5 -60.834 -44.5 -93.501s-16.5 -68.667 -16.5 -108c0 -21.333 4.5 -41 13.5 -59s20.833 -33.5 35.5 -46.5s31.167 -23.333 49.5 -31s36.833 -11.5 55.5 -11.5c17.333 0 33.833 3.5 49.5 10.5s29.834 18 42.501 33s22.667 34.5 30 58.5s11 53 11 87z" />
    <glyph glyph-name="questiondown" unicode="&#xbf;" horiz-adv-x="317" 
d="M160 394c0 -9.33301 -2.33301 -18.0029 -7 -26.0029s-12 -12 -22 -12c-13.333 0 -22 3.83301 -26 11.5s-6 17.167 -6 28.5c0 8.66699 2 17.334 6 26.001s11.667 13 23 13c6 -0.666992 11.333 -2.66699 16 -6c4 -3.33301 7.66699 -7.66602 11 -12.999s5 -12.666 5 -21.999
zM315 -133.003c0 -37.333 -9.00293 -70.498 -27.0029 -99.498s-41 -53.833 -69 -74.5s-59.167 -36.334 -93.5 -47.001s-67.833 -16 -100.5 -16c-22.667 0 -44.167 2.83301 -64.5 8.5s-38.333 14.167 -54 25.5s-28 26 -37 44s-13.5 39 -13.5 63c0 26 6.33301 51.5 19 76.5
s28.334 49.5 47.001 73.5s39.167 47.5 61.5 70.5s42.833 45.5 61.5 67.5s34.334 44 47.001 66s19 44 19 66c0 28.667 -8 49.334 -24 62.001s-35.667 19 -59 19c-6.66699 0 -10 3 -10 9c0 2.66699 1.66699 5.16699 5 7.5s8.66602 3.5 15.999 3.5
c35.333 0 61.666 -7.5 78.999 -22.5s26 -36.5 26 -64.5c0 -22.667 -6.16699 -45.167 -18.5 -67.5s-27.666 -44.666 -45.999 -66.999s-38 -44.833 -59 -67.5s-40.667 -45.334 -59 -68.001s-33.5 -45.5 -45.5 -68.5s-18 -46.5 -18 -70.5c0 -26.667 4 -49.334 12 -68.001
s18.667 -33.834 32 -45.501s28.5 -20.167 45.5 -25.5s34.5 -8 52.5 -8c26.667 0 54 5.33301 82 16s53.5 25.167 76.5 43.5s42 39.833 57 64.5s22.5 51 22.5 79c0 44 -8.16699 76.5 -24.5 97.5s-35.166 31.5 -56.499 31.5c-19.333 0 -38.833 -8.16699 -58.5 -24.5
s-35.5 -40.5 -47.5 -72.5c-1.33301 -4 -3.5 -7 -6.5 -9s-5.83301 -3 -8.5 -3c-5.33301 0 -8 3 -8 9c0 3.33301 0.666992 6.33301 2 9c16.667 36 37.834 62.833 63.501 80.5s51.167 26.5 76.5 26.5c28 0 52.5 -10.833 73.5 -32.5s31.5 -54.167 31.5 -97.5z" />
    <glyph glyph-name="Agrave" unicode="&#xc0;" horiz-adv-x="863" 
d="M458 823c0 -2 -1.00195 -3.33203 -3.00195 -3.99902s-3.66699 -1 -5 -1c-11.333 0 -24.166 4.16699 -38.499 12.5s-27.833 18.666 -40.5 30.999s-23.334 25.5 -32.001 39.5s-13 26.667 -13 38c0 6 2 12 6 18s9.66699 9 17 9c10.667 0 17.667 -5.83301 21 -17.5l12 -41
c4.66699 -15.667 12.334 -31.5 23.001 -47.5s28.334 -28.333 53.001 -37zM862.998 14.001c0 -4 -2.83203 -7.83301 -8.49902 -11.5s-12.834 -6.66699 -21.501 -9s-18.167 -4.33301 -28.5 -6s-20.5 -2.5 -30.5 -2.5c-40 0 -74.5 9.5 -103.5 28.5s-53.167 43.833 -72.5 74.5
c-32.667 -39.333 -71.667 -71.666 -117 -96.999s-97.666 -38 -156.999 -38c-56 0 -104.167 9 -144.5 27s-73.833 42 -100.5 72s-46.334 64.833 -59.001 104.5s-19 81.167 -19 124.5c0 56.667 10.5 114 31.5 172s51.333 110.5 91 157.5s88.334 85.333 146.001 115
s123.5 44.5 197.5 44.5c29.333 0 56.333 -4.33301 81 -13s46 -20.5 64 -35.5s32 -32.667 42 -53s15 -42.166 15 -65.499c0 -4.66699 -1 -8.33398 -3 -11.001s-4 -4 -6 -4c-4 0 -6 4 -6 12c-2 30 -10.667 54.667 -26 74s-33.166 34.5 -53.499 45.5s-41 18.667 -62 23
s-38.5 6.5 -52.5 6.5c-67.333 0 -126.5 -13 -177.5 -39s-93.5 -59.667 -127.5 -101s-59.667 -88.166 -77 -140.499s-26 -104.5 -26 -156.5c0 -44 6.16699 -86.5 18.5 -127.5s31 -77.333 56 -109s56 -56.834 93 -75.501s80.5 -28 130.5 -28c52 0 97.667 12.333 137 37
s73.333 56 102 94c-18 32 -31.167 67.167 -39.5 105.5s-12.5 76.5 -12.5 114.5c0 29.333 2.5 57.166 7.5 83.499s12.167 49.5 21.5 69.5s20.666 36 33.999 48s28.666 18 45.999 18c24 0 42.167 -12 54.5 -36s18.5 -55 18.5 -93c0 -21.333 -2 -44 -6 -68
s-9.83301 -48.5 -17.5 -73.5s-17.334 -50 -29.001 -75s-25.5 -49.167 -41.5 -72.5c19.333 -35.333 43.5 -64.333 72.5 -87s62.5 -34 100.5 -34c16.667 0 29.334 3 38.001 9s14.667 9 18 9c6 0 9 -2.33301 9 -7zM691.999 404.001c0 32 -4.49902 58.167 -13.499 78.5
s-22.833 30.5 -41.5 30.5c-12 0 -22.667 -3.83301 -32 -11.5s-17 -18 -23 -31s-10.5 -28.333 -13.5 -46s-4.5 -36.834 -4.5 -57.501c0 -36 4.16699 -73.667 12.5 -113s21.166 -76.333 38.499 -111c25.333 42.667 44.5 87.334 57.5 134.001s19.5 89 19.5 127z" />
    <glyph glyph-name="Aacute" unicode="&#xc1;" horiz-adv-x="863" 
d="M437 937c0 -11.333 -4.33496 -24.001 -13.002 -38.001s-19.334 -27.167 -32.001 -39.5s-26.167 -22.666 -40.5 -30.999s-27.166 -12.5 -38.499 -12.5c-1.33301 0 -3 0.333008 -5 1s-3 2 -3 4c24.667 8.66699 42.334 21 53.001 37s18.334 31.833 23.001 47.5l12 41
c3.33301 11.667 10.333 17.5 21 17.5c7.33301 0 13 -3 17 -9s6 -12 6 -18zM862.998 13.999c0 -4 -2.83203 -7.83301 -8.49902 -11.5s-12.834 -6.66699 -21.501 -9s-18.167 -4.33301 -28.5 -6s-20.5 -2.5 -30.5 -2.5c-40 0 -74.5 9.5 -103.5 28.5s-53.167 43.833 -72.5 74.5
c-32.667 -39.333 -71.667 -71.666 -117 -96.999s-97.666 -38 -156.999 -38c-56 0 -104.167 9 -144.5 27s-73.833 42 -100.5 72s-46.334 64.833 -59.001 104.5s-19 81.167 -19 124.5c0 56.667 10.5 114 31.5 172s51.333 110.5 91 157.5s88.334 85.333 146.001 115
s123.5 44.5 197.5 44.5c29.333 0 56.333 -4.33301 81 -13s46 -20.5 64 -35.5s32 -32.667 42 -53s15 -42.166 15 -65.499c0 -4.66699 -1 -8.33398 -3 -11.001s-4 -4 -6 -4c-4 0 -6 4 -6 12c-2 30 -10.667 54.667 -26 74s-33.166 34.5 -53.499 45.5s-41 18.667 -62 23
s-38.5 6.5 -52.5 6.5c-67.333 0 -126.5 -13 -177.5 -39s-93.5 -59.667 -127.5 -101s-59.667 -88.166 -77 -140.499s-26 -104.5 -26 -156.5c0 -44 6.16699 -86.5 18.5 -127.5s31 -77.333 56 -109s56 -56.834 93 -75.501s80.5 -28 130.5 -28c52 0 97.667 12.333 137 37
s73.333 56 102 94c-18 32 -31.167 67.167 -39.5 105.5s-12.5 76.5 -12.5 114.5c0 29.333 2.5 57.166 7.5 83.499s12.167 49.5 21.5 69.5s20.666 36 33.999 48s28.666 18 45.999 18c24 0 42.167 -12 54.5 -36s18.5 -55 18.5 -93c0 -21.333 -2 -44 -6 -68
s-9.83301 -48.5 -17.5 -73.5s-17.334 -50 -29.001 -75s-25.5 -49.167 -41.5 -72.5c19.333 -35.333 43.5 -64.333 72.5 -87s62.5 -34 100.5 -34c16.667 0 29.334 3 38.001 9s14.667 9 18 9c6 0 9 -2.33301 9 -7zM691.999 403.999c0 32 -4.49902 58.167 -13.499 78.5
s-22.833 30.5 -41.5 30.5c-12 0 -22.667 -3.83301 -32 -11.5s-17 -18 -23 -31s-10.5 -28.333 -13.5 -46s-4.5 -36.834 -4.5 -57.501c0 -36 4.16699 -73.667 12.5 -113s21.166 -76.333 38.499 -111c25.333 42.667 44.5 87.334 57.5 134.001s19.5 89 19.5 127z" />
    <glyph glyph-name="Acircumflex" unicode="&#xc2;" horiz-adv-x="863" 
d="M502 815c0 -2 -1.00195 -3.33496 -3.00195 -4.00195s-3.66699 -1 -5 -1c-7.33301 0 -16 3.5 -26 10.5s-20 15.5 -30 25.5s-19.167 20.833 -27.5 32.5s-14.5 21.834 -18.5 30.501c-4 -8.66699 -10.167 -18.834 -18.5 -30.501s-17.333 -22.5 -27 -32.5
s-19.5 -18.5 -29.5 -25.5s-18.667 -10.5 -26 -10.5c-1.33301 0 -3 0.333008 -5 1s-3 2 -3 4c17.333 8.66699 30.833 20.834 40.5 36.501s17.834 31.334 24.501 47.001s13 29.167 19 40.5s14.333 17 25 17h1h1c10 0 18 -5.83301 24 -17.5s12.5 -25.167 19.5 -40.5
s15.333 -31 25 -47s22.834 -28 39.501 -36zM862.998 13.998c0 -4 -2.83203 -7.83301 -8.49902 -11.5s-12.834 -6.66699 -21.501 -9s-18.167 -4.33301 -28.5 -6s-20.5 -2.5 -30.5 -2.5c-40 0 -74.5 9.5 -103.5 28.5s-53.167 43.833 -72.5 74.5
c-32.667 -39.333 -71.667 -71.666 -117 -96.999s-97.666 -38 -156.999 -38c-56 0 -104.167 9 -144.5 27s-73.833 42 -100.5 72s-46.334 64.833 -59.001 104.5s-19 81.167 -19 124.5c0 56.667 10.5 114 31.5 172s51.333 110.5 91 157.5s88.334 85.333 146.001 115
s123.5 44.5 197.5 44.5c29.333 0 56.333 -4.33301 81 -13s46 -20.5 64 -35.5s32 -32.667 42 -53s15 -42.166 15 -65.499c0 -4.66699 -1 -8.33398 -3 -11.001s-4 -4 -6 -4c-4 0 -6 4 -6 12c-2 30 -10.667 54.667 -26 74s-33.166 34.5 -53.499 45.5s-41 18.667 -62 23
s-38.5 6.5 -52.5 6.5c-67.333 0 -126.5 -13 -177.5 -39s-93.5 -59.667 -127.5 -101s-59.667 -88.166 -77 -140.499s-26 -104.5 -26 -156.5c0 -44 6.16699 -86.5 18.5 -127.5s31 -77.333 56 -109s56 -56.834 93 -75.501s80.5 -28 130.5 -28c52 0 97.667 12.333 137 37
s73.333 56 102 94c-18 32 -31.167 67.167 -39.5 105.5s-12.5 76.5 -12.5 114.5c0 29.333 2.5 57.166 7.5 83.499s12.167 49.5 21.5 69.5s20.666 36 33.999 48s28.666 18 45.999 18c24 0 42.167 -12 54.5 -36s18.5 -55 18.5 -93c0 -21.333 -2 -44 -6 -68
s-9.83301 -48.5 -17.5 -73.5s-17.334 -50 -29.001 -75s-25.5 -49.167 -41.5 -72.5c19.333 -35.333 43.5 -64.333 72.5 -87s62.5 -34 100.5 -34c16.667 0 29.334 3 38.001 9s14.667 9 18 9c6 0 9 -2.33301 9 -7zM691.999 403.998c0 32 -4.49902 58.167 -13.499 78.5
s-22.833 30.5 -41.5 30.5c-12 0 -22.667 -3.83301 -32 -11.5s-17 -18 -23 -31s-10.5 -28.333 -13.5 -46s-4.5 -36.834 -4.5 -57.501c0 -36 4.16699 -73.667 12.5 -113s21.166 -76.333 38.499 -111c25.333 42.667 44.5 87.334 57.5 134.001s19.5 89 19.5 127z" />
    <glyph glyph-name="Atilde" unicode="&#xc3;" horiz-adv-x="863" 
d="M507 891c0 -17.333 -4.83398 -31.667 -14.501 -43s-26.5 -17 -50.5 -17c-13.333 0 -29 2 -47 6s-35 6 -51 6c-8 0 -14 -1.5 -18 -4.5s-7 -6.33301 -9 -10s-4 -7 -6 -10s-5 -4.5 -9 -4.5c-3.33301 0 -5.16602 1.66699 -5.49902 5s-0.5 6 -0.5 8
c0 15.333 5.66699 28.333 17 39s25.666 16 42.999 16c5.33301 0 12 -0.666992 20 -2s16.5 -2.83301 25.5 -4.5s17.667 -3.16699 26 -4.5s15.5 -2 21.5 -2c8 0 14.833 1.66699 20.5 5s10.5 6.83301 14.5 10.5s7.33301 7.16699 10 10.5s5.33398 5 8.00098 5
c1.33301 0 2.5 -1 3.5 -3s1.5 -4 1.5 -6zM862.999 13.999c0 -4 -2.83203 -7.83301 -8.49902 -11.5s-12.834 -6.66699 -21.501 -9s-18.167 -4.33301 -28.5 -6s-20.5 -2.5 -30.5 -2.5c-40 0 -74.5 9.5 -103.5 28.5s-53.167 43.833 -72.5 74.5
c-32.667 -39.333 -71.667 -71.666 -117 -96.999s-97.666 -38 -156.999 -38c-56 0 -104.167 9 -144.5 27s-73.833 42 -100.5 72s-46.334 64.833 -59.001 104.5s-19 81.167 -19 124.5c0 56.667 10.5 114 31.5 172s51.333 110.5 91 157.5s88.334 85.333 146.001 115
s123.5 44.5 197.5 44.5c29.333 0 56.333 -4.33301 81 -13s46 -20.5 64 -35.5s32 -32.667 42 -53s15 -42.166 15 -65.499c0 -4.66699 -1 -8.33398 -3 -11.001s-4 -4 -6 -4c-4 0 -6 4 -6 12c-2 30 -10.667 54.667 -26 74s-33.166 34.5 -53.499 45.5s-41 18.667 -62 23
s-38.5 6.5 -52.5 6.5c-67.333 0 -126.5 -13 -177.5 -39s-93.5 -59.667 -127.5 -101s-59.667 -88.166 -77 -140.499s-26 -104.5 -26 -156.5c0 -44 6.16699 -86.5 18.5 -127.5s31 -77.333 56 -109s56 -56.834 93 -75.501s80.5 -28 130.5 -28c52 0 97.667 12.333 137 37
s73.333 56 102 94c-18 32 -31.167 67.167 -39.5 105.5s-12.5 76.5 -12.5 114.5c0 29.333 2.5 57.166 7.5 83.499s12.167 49.5 21.5 69.5s20.666 36 33.999 48s28.666 18 45.999 18c24 0 42.167 -12 54.5 -36s18.5 -55 18.5 -93c0 -21.333 -2 -44 -6 -68
s-9.83301 -48.5 -17.5 -73.5s-17.334 -50 -29.001 -75s-25.5 -49.167 -41.5 -72.5c19.333 -35.333 43.5 -64.333 72.5 -87s62.5 -34 100.5 -34c16.667 0 29.334 3 38.001 9s14.667 9 18 9c6 0 9 -2.33301 9 -7zM692 403.999c0 32 -4.49902 58.167 -13.499 78.5
s-22.833 30.5 -41.5 30.5c-12 0 -22.667 -3.83301 -32 -11.5s-17 -18 -23 -31s-10.5 -28.333 -13.5 -46s-4.5 -36.834 -4.5 -57.501c0 -36 4.16699 -73.667 12.5 -113s21.166 -76.333 38.499 -111c25.333 42.667 44.5 87.334 57.5 134.001s19.5 89 19.5 127z" />
    <glyph glyph-name="Adieresis" unicode="&#xc4;" horiz-adv-x="863" 
d="M524 857c0 -7.33301 -1.66797 -15.001 -5.00098 -23.001s-10.333 -12 -21 -12c-5.33301 0.666992 -10 2.33398 -14 5.00098c-3.33301 2.66699 -6.66602 6.5 -9.99902 11.5s-5 11.833 -5 20.5c0 8 2 15.667 6 23s10.667 11 20 11c12.667 0 20.667 -3.5 24 -10.5
s5 -15.5 5 -25.5zM393.999 856.999c0 -7.33301 -1.66797 -15.001 -5.00098 -23.001s-10.333 -12 -21 -12c-5.33301 0.666992 -10 2.33398 -14 5.00098c-3.33301 2.66699 -6.66602 6.5 -9.99902 11.5s-5 11.833 -5 20.5c0 8 2 15.667 6 23s10.667 11 20 11
c12.667 0 20.667 -3.5 24 -10.5s5 -15.5 5 -25.5zM862.998 13.998c0 -4 -2.83203 -7.83301 -8.49902 -11.5s-12.834 -6.66699 -21.501 -9s-18.167 -4.33301 -28.5 -6s-20.5 -2.5 -30.5 -2.5c-40 0 -74.5 9.5 -103.5 28.5s-53.167 43.833 -72.5 74.5
c-32.667 -39.333 -71.667 -71.666 -117 -96.999s-97.666 -38 -156.999 -38c-56 0 -104.167 9 -144.5 27s-73.833 42 -100.5 72s-46.334 64.833 -59.001 104.5s-19 81.167 -19 124.5c0 56.667 10.5 114 31.5 172s51.333 110.5 91 157.5s88.334 85.333 146.001 115
s123.5 44.5 197.5 44.5c29.333 0 56.333 -4.33301 81 -13s46 -20.5 64 -35.5s32 -32.667 42 -53s15 -42.166 15 -65.499c0 -4.66699 -1 -8.33398 -3 -11.001s-4 -4 -6 -4c-4 0 -6 4 -6 12c-2 30 -10.667 54.667 -26 74s-33.166 34.5 -53.499 45.5s-41 18.667 -62 23
s-38.5 6.5 -52.5 6.5c-67.333 0 -126.5 -13 -177.5 -39s-93.5 -59.667 -127.5 -101s-59.667 -88.166 -77 -140.499s-26 -104.5 -26 -156.5c0 -44 6.16699 -86.5 18.5 -127.5s31 -77.333 56 -109s56 -56.834 93 -75.501s80.5 -28 130.5 -28c52 0 97.667 12.333 137 37
s73.333 56 102 94c-18 32 -31.167 67.167 -39.5 105.5s-12.5 76.5 -12.5 114.5c0 29.333 2.5 57.166 7.5 83.499s12.167 49.5 21.5 69.5s20.666 36 33.999 48s28.666 18 45.999 18c24 0 42.167 -12 54.5 -36s18.5 -55 18.5 -93c0 -21.333 -2 -44 -6 -68
s-9.83301 -48.5 -17.5 -73.5s-17.334 -50 -29.001 -75s-25.5 -49.167 -41.5 -72.5c19.333 -35.333 43.5 -64.333 72.5 -87s62.5 -34 100.5 -34c16.667 0 29.334 3 38.001 9s14.667 9 18 9c6 0 9 -2.33301 9 -7zM691.999 403.998c0 32 -4.49902 58.167 -13.499 78.5
s-22.833 30.5 -41.5 30.5c-12 0 -22.667 -3.83301 -32 -11.5s-17 -18 -23 -31s-10.5 -28.333 -13.5 -46s-4.5 -36.834 -4.5 -57.501c0 -36 4.16699 -73.667 12.5 -113s21.166 -76.333 38.499 -111c25.333 42.667 44.5 87.334 57.5 134.001s19.5 89 19.5 127z" />
    <glyph glyph-name="Aring" unicode="&#xc5;" horiz-adv-x="863" 
d="M447 857c0 -12 -3.83301 -23.332 -11.5 -33.999s-19.167 -16 -34.5 -16c-14 0 -25 5.16699 -33 15.5s-12 21.5 -12 33.5c0 11.333 3.83301 21.666 11.5 30.999s19.5 14 35.5 14c15.333 0 26.5 -4.5 33.5 -13.5s10.5 -19.167 10.5 -30.5zM863 14.001
c0 -4 -2.83203 -7.83301 -8.49902 -11.5s-12.834 -6.66699 -21.501 -9s-18.167 -4.33301 -28.5 -6s-20.5 -2.5 -30.5 -2.5c-40 0 -74.5 9.5 -103.5 28.5s-53.167 43.833 -72.5 74.5c-32.667 -39.333 -71.667 -71.666 -117 -96.999s-97.666 -38 -156.999 -38
c-56 0 -104.167 9 -144.5 27s-73.833 42 -100.5 72s-46.334 64.833 -59.001 104.5s-19 81.167 -19 124.5c0 56.667 10.5 114 31.5 172s51.333 110.5 91 157.5s88.334 85.333 146.001 115s123.5 44.5 197.5 44.5c29.333 0 56.333 -4.33301 81 -13s46 -20.5 64 -35.5
s32 -32.667 42 -53s15 -42.166 15 -65.499c0 -4.66699 -1 -8.33398 -3 -11.001s-4 -4 -6 -4c-4 0 -6 4 -6 12c-2 30 -10.667 54.667 -26 74s-33.166 34.5 -53.499 45.5s-41 18.667 -62 23s-38.5 6.5 -52.5 6.5c-67.333 0 -126.5 -13 -177.5 -39s-93.5 -59.667 -127.5 -101
s-59.667 -88.166 -77 -140.499s-26 -104.5 -26 -156.5c0 -44 6.16699 -86.5 18.5 -127.5s31 -77.333 56 -109s56 -56.834 93 -75.501s80.5 -28 130.5 -28c52 0 97.667 12.333 137 37s73.333 56 102 94c-18 32 -31.167 67.167 -39.5 105.5s-12.5 76.5 -12.5 114.5
c0 29.333 2.5 57.166 7.5 83.499s12.167 49.5 21.5 69.5s20.666 36 33.999 48s28.666 18 45.999 18c24 0 42.167 -12 54.5 -36s18.5 -55 18.5 -93c0 -21.333 -2 -44 -6 -68s-9.83301 -48.5 -17.5 -73.5s-17.334 -50 -29.001 -75s-25.5 -49.167 -41.5 -72.5
c19.333 -35.333 43.5 -64.333 72.5 -87s62.5 -34 100.5 -34c16.667 0 29.334 3 38.001 9s14.667 9 18 9c6 0 9 -2.33301 9 -7zM430.001 856.001c0 7.33301 -2.16797 13.833 -6.50098 19.5s-11.166 8.5 -20.499 8.5c-10 0 -17.167 -2.83301 -21.5 -8.5
s-6.5 -12.167 -6.5 -19.5s2.33301 -14.333 7 -21s11 -10 19 -10c9.33301 0 16.5 3.33301 21.5 10s7.5 13.667 7.5 21zM692 404.001c0 32 -4.49902 58.167 -13.499 78.5s-22.833 30.5 -41.5 30.5c-12 0 -22.667 -3.83301 -32 -11.5s-17 -18 -23 -31s-10.5 -28.333 -13.5 -46
s-4.5 -36.834 -4.5 -57.501c0 -36 4.16699 -73.667 12.5 -113s21.166 -76.333 38.499 -111c25.333 42.667 44.5 87.334 57.5 134.001s19.5 89 19.5 127z" />
    <glyph glyph-name="AE" unicode="&#xc6;" horiz-adv-x="1220" 
d="M1219 122c-18 -26.667 -39.332 -49.8232 -63.999 -69.4902s-50.834 -35.834 -78.501 -48.501s-56.5 -22 -86.5 -28s-59.667 -9 -89 -9c-68 0 -126.667 12.333 -176 37s-89 55.667 -119 93c-16 -20.667 -34 -39.834 -54 -57.501s-41.667 -32.834 -65 -45.501
s-48.666 -22.667 -75.999 -30s-56.333 -11 -87 -11c-56 0 -104.167 9 -144.5 27s-73.833 42 -100.5 72s-46.334 64.833 -59.001 104.5s-19 81.167 -19 124.5c0 56.667 10.5 114 31.5 172s51.333 110.5 91 157.5s88.334 85.333 146.001 115s123.5 44.5 197.5 44.5
c29.333 0 56.333 -4.33301 81 -13s46 -20.5 64 -35.5s32 -32.667 42 -53s15 -42.166 15 -65.499c0 -4.66699 -1 -8.33398 -3 -11.001s-4 -4 -6 -4c-4 0 -6 4 -6 12c-2 30 -10.667 54.667 -26 74s-33.166 34.5 -53.499 45.5s-41 18.667 -62 23s-38.5 6.5 -52.5 6.5
c-67.333 0 -126.5 -13 -177.5 -39s-93.5 -59.667 -127.5 -101s-59.667 -88.166 -77 -140.499s-26 -104.5 -26 -156.5c0 -44 6.16699 -86.5 18.5 -127.5s31 -77.333 56 -109s56 -56.834 93 -75.501s80.5 -28 130.5 -28c54 0 101.167 13.333 141.5 40s74.833 60 103.5 100
c-20.667 28 -36 58 -46 90s-15 63.667 -15 95c0 30 4.66699 58.5 14 85.5s23.5 50.833 42.5 71.5s42.667 37.167 71 49.5s61.5 18.5 99.5 18.5c9.33301 0 18.5 -0.666992 27.5 -2s17.5 -3 25.5 -5c-0.666992 6.66699 -1.16699 13.167 -1.5 19.5s-0.5 12.833 -0.5 19.5
c0 28 3.5 56 10.5 84s18 53 33 75s34.167 39.833 57.5 53.5s51 20.5 83 20.5c34.667 0 64 -11.5 88 -34.5s36 -54.833 36 -95.5c0 -6 -1 -14.833 -3 -26.5s-5 -23.5 -9 -35.5s-8.83301 -22.333 -14.5 -31s-12.167 -13 -19.5 -13c-6.66699 0 -10 4.33301 -10 13
c0 6 1.16699 12.667 3.5 20s5.33301 14.833 9 22.5s8 14.834 13 21.501s10.167 12 15.5 16c0.666992 4 1.16699 7.83301 1.5 11.5s0.5 7.16699 0.5 10.5c0 21.333 -3.5 38.666 -10.5 51.999s-16 24 -27 32s-23.167 13.5 -36.5 16.5s-26.333 4.5 -39 4.5
c-26.667 0 -50 -7 -70 -21s-36.5 -32.167 -49.5 -54.5s-22.667 -47.333 -29 -75s-9.5 -55.167 -9.5 -82.5v-15c0 -4.66699 0.333008 -9.33398 1 -14.001c18.667 -6.66699 35.334 -15.334 50.001 -26.001s27.167 -21.834 37.5 -33.501s18.166 -23.334 23.499 -35.001
s8 -21.834 8 -30.501c0 -16.667 -8.33301 -25 -25 -25c-15.333 0 -29.333 3.66699 -42 11s-23.834 17.5 -33.501 30.5s-17.667 28.167 -24 45.5s-11.166 35.666 -14.499 54.999c-20 5.33301 -41 8 -63 8c-28.667 0 -53.834 -5.33301 -75.501 -16s-39.667 -25 -54 -43
s-25 -39 -32 -63s-10.5 -49.333 -10.5 -76c0 -37.333 6.83301 -75.5 20.5 -114.5s34.167 -74.333 61.5 -106s61.166 -57.667 101.499 -78s87.166 -30.5 140.499 -30.5c36.667 0 70.834 4.66699 102.501 14s60.5 21.5 86.5 36.5s48.5 31.667 67.5 50
s33.833 36.166 44.5 53.499c2.66699 3.33301 5 5 7 5c3.33301 0 5 -6.33301 5 -19zM941.001 387.011c0 6 -2 13.832 -6 23.499s-10.333 19.5 -19 29.5s-19.5 19.833 -32.5 29.5s-28.167 17.834 -45.5 24.501c4.66699 -34 14.667 -62.5 30 -85.5s36.333 -34.5 63 -34.5
c6.66699 0 10 4.33301 10 13z" />
    <glyph glyph-name="Ccedilla" unicode="&#xc7;" horiz-adv-x="778" 
d="M760 143c-4 -12 -14.0068 -26.9971 -30.0068 -44.9971s-37.167 -35.5 -63.5 -52.5s-58.166 -31.833 -95.499 -44.5s-79.666 -20 -126.999 -22c-1.33301 -7.33301 -2.83301 -14.5 -4.5 -21.5s-2.5 -14.167 -2.5 -21.5c18 -0.666992 34.167 -3.66699 48.5 -9
s26.833 -12 37.5 -20s18.834 -16.833 24.501 -26.5s8.5 -19.167 8.5 -28.5c0 -14 -6.83301 -26.167 -20.5 -36.5s-36.167 -15.5 -67.5 -15.5c-9.33301 0 -19.666 0.833008 -30.999 2.5s-22 3.66699 -32 6s-18.667 5 -26 8s-12 6.16699 -14 9.5v5c0 4 1 6 3 6
c2.66699 0 11.334 -2.5 26.001 -7.5s31.667 -7.5 51 -7.5c24.667 0 42.167 3.16699 52.5 9.5s15.5 14.166 15.5 23.499c0 6 -2.16699 12.333 -6.5 19s-10.333 12.834 -18 18.501s-16.667 10.167 -27 13.5s-21.166 5 -32.499 5c-10 0 -19 -1.33301 -27 -4
c2 12 4.66699 23.833 8 35.5s6.33301 23.5 9 35.5c-70.667 0.666992 -132 12 -184 34s-94.833 51 -128.5 87s-58.667 76.833 -75 122.5s-24.5 92.5 -24.5 140.5c0 50 8.5 99.167 25.5 147.5s41.833 91.5 74.5 129.5s73 68.667 121 92s102.667 35 164 35
c23.333 0 44 -2.66699 62 -8s34 -12.666 48 -21.999c6 32.667 15.667 58 29 76c3.33301 5.33301 7 8 11 8c2.66699 0 4 -1.66699 4 -5c0 -2 -1 -5 -3 -9c-6.66699 -9.33301 -12.167 -20.833 -16.5 -34.5s-8.16602 -28.5 -11.499 -44.5c12 -9.33301 22 -20 30 -32
s14.667 -24.333 20 -37s9.16602 -25.5 11.499 -38.5s3.5 -25.5 3.5 -37.5c0 -22 -3.33301 -40.5 -10 -55.5s-15.334 -22.5 -26.001 -22.5c-8.66699 0 -16.334 3.66699 -23.001 11s-12.167 17.166 -16.5 29.499s-7.5 26.5 -9.5 42.5s-3 33 -3 51c0 12 0.333008 24.167 1 36.5
s2 24.166 4 35.499c-13.333 12 -29.666 21.667 -48.999 29s-42 11 -68 11c-50.667 0 -96 -10.833 -136 -32.5s-73.667 -50.334 -101 -86.001s-48.166 -76.334 -62.499 -122.001s-21.5 -92.167 -21.5 -139.5s7.33301 -93.5 22 -138.5s37.5 -85.167 68.5 -120.5
s70.333 -63.833 118 -85.5s104.167 -32.5 169.5 -32.5c17.333 0 39.833 2.33301 67.5 7s56.5 12.667 86.5 24s58.833 26.833 86.5 46.5s49.834 44.5 66.501 74.5c1.33301 2.66699 3 5.16699 5 7.5s4 3.5 6 3.5c3.33301 0 5 -4.33301 5 -13zM555.993 576.003
c0 17.333 -3.33203 37 -9.99902 59s-18.334 42.333 -35.001 61c-2 -18 -3 -36.333 -3 -55c0 -28.667 2.83301 -53.5 8.5 -74.5s14.167 -31.5 25.5 -31.5c4 0 7.33301 3.83301 10 11.5s4 17.5 4 29.5z" />
    </font>
</defs>
</svg>
