<?xml version="1.0" standalone="no"?>
<!DOCTYPE svg PUBLIC "-//W3C//DTD SVG 1.1//EN" "http://www.w3.org/Graphics/SVG/1.1/DTD/svg11.dtd" >
<svg xmlns="http://www.w3.org/2000/svg" xmlns:xlink="http://www.w3.org/1999/xlink" version="1.1">
<metadata></metadata>
<defs>
<font id="neue_montrealitalic" horiz-adv-x="1042" >
<font-face units-per-em="2048" ascent="1587" descent="-461" />
<missing-glyph horiz-adv-x="409" />
<glyph horiz-adv-x="0" />
<glyph horiz-adv-x="682" />
<glyph unicode=" "  horiz-adv-x="409" />
<glyph unicode="&#x09;" horiz-adv-x="409" />
<glyph unicode="&#xa0;" horiz-adv-x="409" />
<glyph unicode="!" horiz-adv-x="501" d="M53 111q9 45 43.5 72.5t79.5 27.5q52 0 80 -35t18 -90q-9 -46 -43.5 -73t-78.5 -27q-53 0 -81 34.5t-18 90.5zM170 377l90 667l80 420h184l-80 -420l-172 -667h-102z" />
<glyph unicode="&#x22;" horiz-adv-x="628" d="M197 1026l65 438h164l-107 -438h-122zM494 1026l65 438h164l-107 -438h-122z" />
<glyph unicode="#" horiz-adv-x="1165" d="M27 424l53 143h201l122 316h-223l51 143h228l151 389h146l-152 -389h240l151 389h148l-152 -389h213l-53 -143h-215l-123 -316h240l-52 -143h-245l-166 -424h-146l164 424h-239l-166 -424h-146l166 424h-196zM426 567h240l122 316h-239z" />
<glyph unicode="$" horiz-adv-x="1140" d="M-4 465h180q-12 -141 50.5 -222.5t213.5 -101.5l97 496q-151 78 -209 119q-170 122 -165 285q1 28 7 59q31 158 171.5 242t346.5 90l25 118h123l-27 -127q169 -27 262.5 -144.5t69.5 -303.5h-183q20 235 -180 285l-90 -463q59 -29 90.5 -45.5t80 -44.5t73.5 -49.5 t58 -52.5t47 -62.5t27 -71t11.5 -85.5t-12.5 -99q-14 -64 -51.5 -116.5t-88.5 -87.5t-117 -60t-133.5 -37t-140.5 -15l-24 -145h-123l27 149q-101 12 -183 49.5t-140 97.5t-83 148.5t-10 194.5zM350.5 1051q-1.5 -20 7.5 -40t17 -35.5t26 -32t34 -29t40 -27t45.5 -26 t50.5 -25.5l86 432q-77 -3 -137.5 -19.5t-107 -55t-58.5 -97.5q-2 -25 -3.5 -45zM563 135q31 2 51.5 4t54 7.5t56.5 13t51.5 21t47.5 30.5t35.5 43t23.5 57q21 94 -34 159.5t-196 129.5z" />
<glyph unicode="%" horiz-adv-x="1667" d="M140 891q-9 76 10 160q21 110 71.5 197t135.5 141.5t190 54.5q84 0 144 -33.5t88 -91t36.5 -133.5t-10.5 -160q-33 -171 -135.5 -282t-261.5 -111q-83 0 -142.5 33.5t-88 91t-37.5 133.5zM285 0l1018 1415h147l-1020 -1415h-145zM289 1026q-22 -116 9 -183t118 -67 q96 0 161 75t89 200q22 116 -9 182.5t-118 66.5q-96 0 -161 -74.5t-89 -199.5zM918 229q-9 76 10 160q34 171 137.5 282t259.5 111q84 0 144 -33.5t88 -90.5t36.5 -133t-10.5 -160q-33 -171 -135.5 -282.5t-261.5 -111.5q-83 0 -142.5 33.5t-88 91t-37.5 133.5zM1067 365 q-23 -116 9 -183t120 -67q94 0 159 74.5t89 199.5q24 116 -8 183t-119 67q-96 0 -161 -74.5t-89 -199.5z" />
<glyph unicode="&#x26;" horiz-adv-x="1167" d="M25 373q14 74 50 139t91 117.5t109.5 91t127.5 80.5q-65 106 -91 188t-7 178q12 62 43.5 118.5t80 103.5t119.5 75t154 29q108 1 181 -51.5t98 -131t8 -167.5q-22 -114 -110.5 -198t-262.5 -177l226 -360q101 126 141 278h164q-67 -246 -221 -422l164 -264h-193l-88 139 q-189 -168 -416 -168q-208 0 -305.5 112.5t-62.5 289.5zM184 348q-18 -89 40 -151t184 -62q171 0 321 137l-260 414q-249 -146 -285 -338zM467 1151q-14 -70 7 -134.5t71 -146.5q132 72 198.5 133t83.5 152q14 74 -21.5 124t-115.5 50q-85 0 -147.5 -54.5t-75.5 -123.5z" />
<glyph unicode="'" horiz-adv-x="331" d="M201 1026l65 438h164l-106 -438h-123z" />
<glyph unicode="(" horiz-adv-x="600" d="M134 307.5q-10 170.5 28 354.5q52 267 175.5 493t285.5 395l147 -8q-162 -214 -269.5 -426.5t-158.5 -478.5q-26 -132 -31.5 -254.5t9 -232t38 -201t60.5 -193.5l-135 8q-64 109 -101.5 241t-47.5 302.5z" />
<glyph unicode=")" horiz-adv-x="612" d="M-100 -236q161 212 268 424.5t158 473.5q27 135 33 259t-8.5 234.5t-38 201.5t-60.5 193l135 -8q47 -81 80.5 -175.5t53 -207.5t16.5 -247t-31 -275q-51 -259 -174.5 -486.5t-284.5 -394.5z" />
<glyph unicode="*" horiz-adv-x="747" d="M223 1210l53 95l185 -64l43 223h110l-43 -223l205 64l21 -95l-209 -67l90 -178l-96 -62l-90 189l-164 -189l-80 62l155 178z" />
<glyph unicode="+" horiz-adv-x="1142" d="M117 586l30 162h383l78 395h164l-78 -395h383l-30 -162h-383l-76 -396h-164l76 396h-383z" />
<glyph unicode="," horiz-adv-x="401" d="M-41 -262l10 106q50 10 88.5 51t53.5 97q-54 -21 -87 10.5t-20 101.5q10 52 44 79.5t79 27.5q59 0 82 -47t8 -125q-8 -43 -26 -87t-47.5 -90t-77.5 -80t-107 -44z" />
<glyph unicode="-" horiz-adv-x="700" d="M57 440l33 164h549l-33 -164h-549z" />
<glyph unicode="." horiz-adv-x="399" d="M6 111q9 45 43.5 72.5t79.5 27.5q52 0 80 -35t18 -90q-9 -46 -44 -73t-79 -27q-53 0 -80.5 34.5t-17.5 90.5z" />
<glyph unicode="/" horiz-adv-x="798" d="M-47 0l852 1464h166l-852 -1464h-166z" />
<glyph unicode="0" horiz-adv-x="1253" d="M93 484.5q2 109.5 26 234.5q29 153 84.5 281t137.5 229t198.5 158t255.5 57q114 0 199.5 -39t136 -107.5t75 -163.5t22.5 -205t-26 -235q-23 -121 -62.5 -227t-98.5 -198t-133 -157.5t-172 -103t-210 -37.5q-114 0 -199.5 39t-136 107t-75 163t-22.5 204.5zM272.5 522 q-6.5 -77 3.5 -151.5t38.5 -124.5t86 -80.5t140.5 -30.5q80 0 149.5 31.5t121.5 85.5t94.5 129.5t70.5 158.5t47 179q15 78 21.5 144.5t4.5 132t-19 115.5t-47 89t-81.5 59.5t-120.5 20.5q-100 0 -183 -47.5t-141 -131.5t-97.5 -185t-63.5 -222q-18 -95 -24.5 -172z" />
<glyph unicode="1" horiz-adv-x="681" d="M119 977l14 133q174 0 265.5 79.5t136.5 231.5h143l-277 -1421h-184l209 1055q-25 -20 -47.5 -34t-51.5 -22.5t-43 -13t-53.5 -6.5t-49.5 -2h-62z" />
<glyph unicode="2" horiz-adv-x="1146" d="M-45 6q68 356 532 608q220 111 249 128q130 73 181 150q39 59 54 138q5 35 5 69.5t-16 67t-41.5 58t-72 40.5t-107.5 15q-74 0 -133.5 -20t-100 -52t-71 -79.5t-48 -95.5t-30.5 -107h-182q22 113 67 205t115 163.5t172 110.5t228 39q93 0 173 -30t136.5 -84t80.5 -138 t5 -184q-17 -86 -60.5 -160t-103 -126.5t-133.5 -102t-149.5 -87t-152.5 -80t-142 -82t-119 -93t-82 -113.5h778l-33 -164z" />
<glyph unicode="3" horiz-adv-x="1138" d="M29 485l182 -12q-30 -157 49.5 -247.5t259.5 -90.5q72 0 129.5 11.5t96 31t66 48t43 59t24.5 67.5q18 69 10.5 120.5t-28.5 86.5t-57 57t-75 31.5t-82 9.5h-155l30 164h140q114 0 198.5 57.5t106.5 165.5q20 101 -44.5 168.5t-199.5 67.5q-82 0 -145 -18t-101.5 -45 t-66 -68.5t-40.5 -78.5t-22 -85l-182 12q41 207 181 327t388 120q93 0 175.5 -27.5t142.5 -78t87 -128t9 -170.5q-20 -106 -85.5 -176.5t-180.5 -113.5l-13 -5q261 -76 199 -401q-36 -186 -178 -279.5t-371 -93.5q-262 0 -399 139t-92 375z" />
<glyph unicode="4" horiz-adv-x="1159" d="M14 332l31 164l860 919h187l-181 -919h195l-31 -164h-194l-66 -332h-184l65 332h-682zM246 496h481l131 653z" />
<glyph unicode="5" horiz-adv-x="1103" d="M18 401h181q-4 -55 6.5 -100t38 -84t82.5 -60.5t133 -21.5q150 0 260 91.5t145 248.5q33 150 -34.5 230.5t-204.5 80.5q-210 0 -344 -137h-199l295 766h780l-33 -164h-626l-166 -422q137 121 348 121q132 0 226 -63.5t131.5 -173t11.5 -242.5q-28 -146 -116.5 -261 t-214 -177t-265.5 -62q-119 0 -211 37t-144 98t-73 137t-7 158z" />
<glyph unicode="6" horiz-adv-x="1175" d="M115 721q68 351 238 537t429 186q97 0 174.5 -32t124.5 -85.5t68.5 -121.5t13.5 -142h-180q6 105 -47 161t-166 56q-85 0 -155.5 -31.5t-119.5 -82t-88 -125t-63 -149t-43 -165.5q71 94 178.5 145.5t227.5 51.5q208 0 312.5 -132.5t63.5 -347.5q-26 -129 -103 -235.5 t-201 -172t-271 -65.5q-541 0 -393 750zM266 449q-30 -138 39 -226t217 -88t248.5 87t130.5 235q27 144 -35 223.5t-188 79.5q-154 0 -268 -88.5t-144 -222.5z" />
<glyph unicode="7" horiz-adv-x="1050" d="M133 0q33 172 123 364.5t206 358t241.5 304t238.5 224.5h-772l33 164h981l-25 -147q-186 -134 -361 -345.5t-302 -456.5t-170 -466h-193z" />
<glyph unicode="8" horiz-adv-x="1177" d="M39 410q13 68 44.5 124.5t77.5 96.5t93.5 68.5t107.5 52.5l11 4q-175 103 -133 313q33 176 176 275.5t346 99.5q209 0 317.5 -107.5t73.5 -292.5q-38 -190 -242 -292l-12 -4q244 -117 197 -363q-26 -135 -113 -230t-211.5 -139.5t-277.5 -44.5q-116 0 -208.5 28t-155 82 t-87 138t-4.5 191zM225 412q-28 -137 56 -207t247 -70q160 0 261 69t124 191q27 135 -57.5 205t-245.5 70t-261 -69t-124 -189zM423.5 956.5q12.5 -45.5 47.5 -72t82.5 -38.5t110.5 -12q127 0 205 54.5t100 160.5q23 119 -44.5 175t-195.5 56t-206.5 -55.5t-98.5 -159.5 q-13 -63 -0.5 -108.5z" />
<glyph unicode="9" horiz-adv-x="1189" d="M80 352h180q-6 -105 47 -161t166 -56q85 0 155.5 31.5t119.5 82t88 125t63 149t43 165.5q-71 -94 -178 -145t-227 -51q-208 0 -313 132.5t-64 346.5q26 129 103 235.5t201 172t271 65.5q541 0 393 -750q-68 -351 -238 -537t-429 -186q-97 0 -174.5 32t-124.5 85.5 t-68.5 121.5t-13.5 142zM342 958q-27 -144 35 -223.5t188 -79.5q154 0 268 88.5t144 223.5q30 138 -39 225.5t-217 87.5t-248.5 -87t-130.5 -235z" />
<glyph unicode=":" horiz-adv-x="407" d="M8 111q9 45 43.5 72.5t79.5 27.5q52 0 80 -35t18 -90q-9 -46 -44 -73t-79 -27q-53 0 -80.5 34.5t-17.5 90.5zM129 735q9 45 43.5 73t79.5 28q52 0 80 -35t18 -90q-9 -46 -43.5 -73.5t-79.5 -27.5q-52 0 -80 34.5t-18 90.5z" />
<glyph unicode=";" horiz-adv-x="409" d="M-39 -262l10 106q50 10 88.5 51t53.5 97q-54 -21 -87 10.5t-20 101.5q10 52 44 79.5t79 27.5q59 0 82 -47t8 -125q-8 -43 -26 -87t-47.5 -90t-77.5 -80t-107 -44zM129 735q9 45 43.5 73t79.5 28q52 0 80 -35t18 -90q-9 -46 -43.5 -73.5t-79.5 -27.5q-52 0 -80 34.5 t-18 90.5z" />
<glyph unicode="&#x3c;" d="M106 545l35 184l901 348l-30 -164l-754 -274l-2 -4l649 -273l-31 -163z" />
<glyph unicode="=" horiz-adv-x="1140" d="M80 397l33 164h929l-32 -164h-930zM143 723l33 164h930l-33 -164h-930z" />
<glyph unicode="&#x3e;" d="M45 199l31 163l751 273l2 4l-647 274l31 164l766 -348l-35 -184z" />
<glyph unicode="?" horiz-adv-x="1026" d="M121 995q44 230 183 364t378 134q195 0 311.5 -110.5t83.5 -276.5q-6 -32 -18.5 -62t-25 -52.5t-35.5 -47.5t-39 -40.5t-47 -38t-47 -33.5t-51.5 -34t-49.5 -32q-56 -37 -91.5 -67.5t-70.5 -75t-58.5 -103.5t-39.5 -139h-180q33 175 97 278.5t185 188.5q26 19 71 45 t75 45.5t63 47t54 63.5t30 81q17 86 -48 142.5t-181 56.5q-300 0 -367 -334h-182zM266 111q9 45 43.5 72.5t79.5 27.5q52 0 80 -35t18 -90q-9 -46 -43.5 -73t-78.5 -27q-53 0 -81 34.5t-18 90.5z" />
<glyph unicode="@" horiz-adv-x="1769" d="M57.5 270q-34.5 154 3.5 346q33 170 126 325t225 269.5t304 182t353 67.5q124 0 231 -29t186 -81.5t138.5 -126t89.5 -163.5t37.5 -194t-16.5 -217q-21 -110 -61 -197t-86 -140t-100.5 -88t-102.5 -48.5t-95 -13.5q-96 0 -150 44.5t-79 127.5l-8 -10q-125 -154 -318 -154 q-150 0 -227.5 118t-38.5 314q39 203 171.5 330t289.5 127q103 0 176.5 -54.5t87.5 -130.5l6 7l53 163h146l-166 -520q-74 -219 78 -219q98 0 174 93.5t110 269.5q37 190 -15.5 337.5t-186.5 229.5t-332 82q-127 0 -249 -40t-221.5 -109.5t-180.5 -161t-134 -198t-75 -216.5 q-30 -149 -0.5 -271.5t102.5 -210.5t189.5 -136t259.5 -48q215 0 381 64l38 -121q-181 -86 -428 -86q-181 0 -325 58t-235 166.5t-125.5 262.5zM606 571q-23 -118 17.5 -188t148.5 -70q128 0 221.5 98t122.5 246q25 126 -24 192t-144 66q-130 0 -221.5 -97.5t-120.5 -246.5z " />
<glyph unicode="A" horiz-adv-x="1327" d="M-80 0l825 1464h205l254 -1464h-188l-58 367h-645l-200 -367h-193zM406 530h524l-111 764h-4z" />
<glyph unicode="B" horiz-adv-x="1310" d="M31 0l284 1464h586q224 0 334 -103q84 -79 84 -199q0 -37 -8 -79q-23 -121 -95.5 -189t-181.5 -103l-12 -3q119 -22 183 -118q44 -66 43 -161q0 -44 -9 -95q-38 -196 -190 -305t-381 -109h-637zM248 164h461q294 0 350 274q6 34 6 63q0 71 -37 119q-53 68 -168 68h-510z M381 852h430q76 0 133 16.5t93.5 49t58 73.5t32.5 96q6 29 6 54q0 62 -35 102q-49 57 -171 57h-459z" />
<glyph unicode="C" horiz-adv-x="1415" d="M109 745q42 215 159 385.5t288 266.5t366 96q133 0 239 -41.5t171 -113.5q66 -70 98 -164q26 -76 25 -161q0 -19 -1 -38h-180q0 50 -8.5 95.5t-33.5 94.5t-64 84t-105.5 57.5t-153.5 22.5q-102 0 -193.5 -34.5t-160.5 -93t-124 -137t-90 -165t-52 -178.5 q-15 -75 -17 -145q0 -8 1 -16q-1 -62 9 -120q12 -66 41.5 -121t73.5 -96.5t111 -64.5t151 -23q111 0 205 35.5t156.5 94t103 123.5t60.5 134h182q-72 -248 -265.5 -399.5t-455.5 -151.5q-200 0 -337.5 99.5t-189.5 275.5q-28 96 -28 207q0 91 19 192z" />
<glyph unicode="D" horiz-adv-x="1386" d="M31 0l284 1464h527q304 0 442 -196q92 -131 93 -332q0 -100 -23 -217q-67 -346 -274.5 -532.5t-512.5 -186.5h-536zM248 164h342q108 0 198 32.5t152.5 86.5t110.5 130.5t76.5 156.5t46.5 173q18 91 20 167q0 10 1 19q1 67 -15 131q-18 74 -58.5 125.5t-117.5 83 t-185 31.5h-350z" />
<glyph unicode="E" horiz-adv-x="1267" d="M31 0l284 1464h1035l-31 -164h-850l-90 -460h751l-30 -164h-752l-100 -512h874l-32 -164h-1059z" />
<glyph unicode="F" horiz-adv-x="1185" d="M31 0l284 1464h994l-31 -164h-809l-92 -475h653l-33 -163h-653l-129 -662h-184z" />
<glyph unicode="G" horiz-adv-x="1503" d="M111 745q42 216 159 385.5t293.5 266t382.5 96.5q258 0 386 -129q126 -127 126 -338v-10l-180 12q-1 151 -95 226t-249 75q-108 0 -204.5 -36.5t-167.5 -96.5t-128 -139.5t-91.5 -164t-51.5 -171.5q-18 -88 -18 -169q0 -78 21 -154q21 -77 63.5 -134.5t118.5 -93 t179 -35.5q127 0 247 59.5t206.5 168t112.5 241.5l-480 -6l33 164h662l-150 -762h-121l-18 207l-6 -4q-108 -118 -227.5 -175t-272.5 -57q-207 0 -343 100t-183 275q-25 91 -25 196q0 96 21 203z" />
<glyph unicode="H" horiz-adv-x="1419" d="M31 0l284 1464h185l-121 -622h782l121 622h184l-284 -1464h-185l133 678h-782l-133 -678h-184z" />
<glyph unicode="I" horiz-adv-x="460" d="M35 0l284 1464h185l-285 -1464h-184z" />
<glyph unicode="J" horiz-adv-x="1003" d="M4 334q2 57 14 119l9 34h184l-10 -47q-11 -60 -15 -100q-2 -17 -2 -33q0 -25 4 -50q6 -42 26 -66.5t60 -40t101 -15.5q63 0 112.5 16.5t82 44t56.5 70t37.5 86t24.5 101.5l197 1011h184l-199 -1024q-14 -75 -38.5 -140.5t-66.5 -127t-97 -105t-134 -70t-174 -26.5 q-81 0 -144 19t-103 53.5t-66 79t-35 99.5q-8 48 -8 96v16z" />
<glyph unicode="K" horiz-adv-x="1314" d="M31 0l284 1464h185l-154 -784l889 784h227l-694 -608l449 -856h-213l-381 729l-318 -276l-90 -453h-184z" />
<glyph unicode="L" horiz-adv-x="1138" d="M31 0l284 1464h185l-252 -1300h768l-33 -164h-952z" />
<glyph unicode="M" horiz-adv-x="1693" d="M31 0l284 1464h252l221 -1216h5l696 1216h252l-285 -1464h-184l235 1204h-4l-676 -1204h-163l-209 1204h-4l-236 -1204h-184z" />
<glyph unicode="N" horiz-adv-x="1413" d="M31 0l284 1464h226l495 -1206h6l234 1206h184l-284 -1464h-224l-497 1202h-4l-236 -1202h-184z" />
<glyph unicode="O" horiz-adv-x="1556" d="M88 493q-2 32 -3 64q0 89 17 188q42 216 162.5 386t300.5 266t389 96q214 0 361 -99.5t203 -275.5q32 -100 33 -214q0 -87 -19 -183q-42 -216 -162.5 -386t-301.5 -267t-390 -97q-128 0 -234.5 37.5t-180.5 106.5t-120.5 165t-54.5 213zM267 566q1 -70 15 -134 q14 -66 47 -120t81.5 -93.5t120.5 -61.5t161 -22q109 0 205.5 32.5t170.5 89.5t132.5 134.5t95.5 166.5t56 187q16 94 16 179.5t-29 159.5t-77.5 128.5t-130.5 85.5t-189 31q-135 0 -250.5 -49.5t-196.5 -134.5t-135 -192.5t-77 -231.5q-16 -80 -16 -155z" />
<glyph unicode="P" horiz-adv-x="1226" d="M31 0l284 1464h578q103 0 183 -24.5t138 -77.5q58 -52 76 -136q9 -40 8 -87q0 -52 -10 -113q-22 -110 -73 -191t-125 -129t-161.5 -71t-191.5 -23h-401l-121 -612h-184zM367 776h413q276 0 328 275q8 42 8 76q0 72 -36 113q-52 60 -189 60h-422z" />
<glyph unicode="Q" horiz-adv-x="1542" d="M80 745q42 216 162.5 386t300.5 266t389 96q129 0 236 -37.5t180.5 -106t120 -164.5t55.5 -213q2 -31 2 -64q0 -88 -17 -187q-57 -298 -260 -498l150 -180l-137 -117l-150 180q-204 -135 -457 -135q-213 0 -359.5 100t-202.5 276q-32 100 -32 214q0 88 19 184zM244 566 q0 -70 14 -134q15 -66 48 -120t82 -93.5t121 -61.5t161 -22q186 0 342 101l-154 188l135 117l156 -187q134 158 180 391q16 94 16 179.5t-28.5 159.5t-77 128.5t-130.5 85.5t-189 31q-135 0 -251 -49.5t-197 -134.5t-135 -193t-77 -231q-16 -81 -16 -155z" />
<glyph unicode="R" horiz-adv-x="1257" d="M31 0l284 1464h590q219 0 331 -116q84 -86 85 -218q0 -45 -10 -94q-59 -293 -326 -358l-12 -4q64 -13 103 -55t52 -100t14 -125v-14q0 -60 -8 -118q-8 -66 -16 -120q-7 -51 -7 -86q0 -40 15 -46l2 -10l-192 4q-10 11 -7.5 36.5t6.5 62.5t13.5 80.5t13.5 90.5l4 92 q0 5 1 11q0 40 -11 76q-12 41 -33.5 72t-64 49t-102.5 18h-424l-117 -592h-184zM362 756h363q54 0 96 4.5t95 21t91.5 46t71 83.5t47.5 129q8 40 8 74t-6.5 59t-20.5 44.5t-29.5 33t-39.5 23t-45 14.5t-50 8t-51 3.5t-52 0.5h-371z" />
<glyph unicode="S" horiz-adv-x="1255" d="M23 485h180q-2 -19 -2 -36q0 -133 93 -218q105 -96 324 -96q163 0 252 48.5t111 150.5q7 33 7.5 60.5t-6.5 53t-20 47t-36 43t-51.5 40t-69.5 39t-86.5 39.5t-106.5 42q-169 64 -241 108q-174 107 -174 278v17q2 29 8 60q21 109 98.5 185t190.5 111.5t254 35.5 q159 0 276 -53q116 -54 174 -158q45 -81 45 -184q0 -30 -4 -62h-180q1 15 1 29q0 126 -73 191q-81 73 -252 73q-140 0 -235 -41.5t-113 -130.5q-5 -29 -5 -53q0 -30 8 -56q14 -46 58 -78t89 -53t122 -50q27 -10 41 -15q60 -23 101.5 -40.5t91.5 -41t82.5 -43.5t68.5 -47 t57 -54t40 -61.5t25 -72.5q6 -35 6 -77v-7q0 -46 -11 -99q-33 -159 -175.5 -248.5t-381.5 -89.5q-132 0 -245 35.5t-193.5 99.5t-119.5 162q-28 70 -28 150q0 33 5 67z" />
<glyph unicode="T" horiz-adv-x="1226" d="M184 1300l31 164h1159l-31 -164h-487l-254 -1300h-184l254 1300h-488z" />
<glyph unicode="U" horiz-adv-x="1343" d="M91 325q-1 17 -1 34q0 64 12 135l189 970h184l-190 -983q-11 -56 -11 -103q0 -101 50 -159q74 -84 262 -84q386 0 454 359l189 970h184l-190 -983q-45 -235 -209 -372.5t-443 -137.5q-116 0 -206 25.5t-146.5 72.5t-90 112t-37.5 144z" />
<glyph unicode="V" horiz-adv-x="1243" d="M186 1464h203l158 -1286l659 1286h207l-797 -1464h-202z" />
<glyph unicode="W" horiz-adv-x="1853" d="M195 1464h192l45 -1200h4l561 1200h205l94 -1200h4l512 1200h197l-647 -1464h-205l-94 1255h-4l-582 -1255h-205z" />
<glyph unicode="X" horiz-adv-x="1202" d="M-98 0l645 748l-324 716h203l246 -585l479 585h207l-604 -712l352 -752h-223l-256 616l-498 -616h-227z" />
<glyph unicode="Y" horiz-adv-x="1236" d="M168 1464h197l282 -716h4l568 716h200l-702 -864l-119 -600h-184l118 600z" />
<glyph unicode="Z" horiz-adv-x="1249" d="M-43 0l31 164l1114 1132l2 4h-852l31 164h1077l-29 -164l-1114 -1132l-2 -4h913l-32 -164h-1139z" />
<glyph unicode="[" horiz-adv-x="600" d="M6 -240l346 1786h387l-30 -164h-203l-285 -1458h203l-31 -164h-387z" />
<glyph unicode="\" horiz-adv-x="753" d="M195 1464h161l283 -1464h-162z" />
<glyph unicode="]" horiz-adv-x="606" d="M-84 -240l31 164h203l284 1458h-203l31 164h387l-346 -1786h-387z" />
<glyph unicode="^" horiz-adv-x="927" d="M86 901l471 563h164l248 -563h-178l-179 414h-4l-334 -414h-188z" />
<glyph unicode="_" horiz-adv-x="837" d="M-172 -340l33 164h844l-33 -164h-844z" />
<glyph unicode="`" horiz-adv-x="960" d="M449 1485h192l37 -260h-129z" />
<glyph unicode="a" d="M2 293q9 46 28 84t41.5 66t60.5 52t71.5 40t89 33t98 27t113.5 26q65 14 101.5 23.5t76.5 24t60.5 30t36.5 38.5t22 54q3 16 3 30q0 44 -28 72q-37 37 -151 37q-150 0 -222.5 -49.5t-103.5 -165.5h-162q39 168 161 263t337 95q80 0 143 -17.5t110.5 -55.5t65.5 -105 q9 -34 9 -73.5t-9 -84.5l-98 -508q-7 -36 -7 -61v-6q1 -26 25 -36q15 -7 41 -7q15 0 35 2l-22 -111q-52 -20 -92 -20q-76 0 -115 31t-43 110q-147 -160 -385 -160q-161 -1 -240 87q-58 65 -58 162q0 35 7 73zM164 285q-4 -21 -4 -39q0 -52 32 -86q42 -45 127 -45 q155 0 265 75.5t143 219.5l37 163q-42 -36 -252 -79q-168 -34 -250.5 -81t-97.5 -128z" />
<glyph unicode="b" horiz-adv-x="1132" d="M8 0l285 1464h164l-109 -555l4 4q139 160 353 160q100 0 180 -38.5t130.5 -111.5t68.5 -177q7 -42 7 -89q0 -69 -16 -147q-24 -124 -80 -226.5t-131.5 -170.5t-167 -105t-188.5 -37q-210 0 -301 162l-8 -4l-27 -129h-164zM272 510q-13 -66 -13 -122q-1 -98 39 -166 q62 -107 204 -107q105 0 194 62t143.5 155.5t75.5 202.5q11 63 11 121q0 56 -17 104q-17 50 -45.5 88t-76.5 60t-109 22q-148 0 -258.5 -115t-147.5 -305z" />
<glyph unicode="c" horiz-adv-x="1058" d="M53 535q47 242 212 390t390 148q193 0 297 -116q91 -101 92 -251q0 -21 -2 -44h-159q2 19 2 37q1 31 -5 59q-8 45 -33.5 85t-77 63.5t-124.5 23.5q-91 0 -167.5 -35.5t-129 -95t-86.5 -131t-49 -150.5q-9 -58 -11 -115v-12q0 -51 15 -97q17 -52 46 -92t82 -63.5 t124 -23.5q77 0 141.5 25t106.5 65.5t68.5 84t39.5 89.5h164q-46 -179 -193.5 -293.5t-336.5 -114.5q-231 1 -343 157q-78 108 -78 261q0 69 15 146z" />
<glyph unicode="d" horiz-adv-x="1132" d="M48 300q-7 42 -7 88q0 69 16 147q32 165 118.5 288.5t203 186.5t246.5 63q217 0 301 -168l8 4l106 555h164l-284 -1464h-164l26 129l-2 -4q-150 -154 -352 -154q-100 0 -180 39t-131 112.5t-69 177.5zM206 389q0 -56 17 -104q17 -50 45.5 -88t77 -60t109.5 -22 q148 0 258 115t147 305q13 66 13 122q0 98 -39 166q-61 107 -203 107q-105 0 -194.5 -62t-144 -155.5t-75.5 -202.5q-11 -63 -11 -121z" />
<glyph unicode="e" horiz-adv-x="1083" d="M51 545q50 253 209.5 390.5t388.5 137.5q245 0 341 -158q60 -99 59 -247q0 -89 -21 -195h-825q-9 -47 -10 -90q0 -45 11 -87q20 -80 87 -130.5t174 -50.5q75 0 139.5 22.5t106.5 58t67.5 68t40.5 64.5h174q-67 -162 -206 -259.5t-326 -97.5q-238 0 -349 160 q-77 110 -77 265q0 70 16 149zM231 616h664q7 39 7 75q0 90 -48 152q-66 87 -215 87q-148 0 -265.5 -92.5t-142.5 -221.5z" />
<glyph unicode="f" horiz-adv-x="600" d="M86 0l176 901h-145l28 143h146l33 170q29 149 101 206t185 57q53 0 119 -15l-18 -141q-23 2 -44 2q-75 0 -116 -23q-53 -28 -70 -114l-26 -142h198l-28 -143h-199l-176 -901h-164z" />
<glyph unicode="g" horiz-adv-x="1124" d="M-29 -39h160q0 -180 258 -180q153 0 248.5 71t124.5 214l31 151l-5 -4q-142 -160 -356 -160q-100 0 -179 32.5t-132.5 97.5t-70.5 163q-7 41 -7 87q0 65 14 142q24 123 78.5 219.5t129 156.5t162.5 91t185 31q215 0 306 -162l8 4l26 129h164l-194 -993 q-39 -206 -174.5 -309.5t-350.5 -103.5q-209 0 -321 95q-106 89 -106 211q0 8 1 17zM217 563q-10 -52 -10 -98q0 -94 41 -163q63 -105 213 -105q154 0 258.5 96t140.5 282q12 63 12 115q0 93 -40 150q-63 90 -209 90q-160 0 -267 -101.5t-139 -265.5z" />
<glyph unicode="h" horiz-adv-x="1073" d="M6 0l285 1464h164l-107 -544l4 4q60 64 153.5 106.5t213.5 42.5q75 0 134.5 -21t101.5 -64q43 -43 57 -109q7 -31 7 -68q0 -41 -9 -88l-142 -723h-163l135 694q8 39 8 72q0 60 -26 100q-40 64 -154 64q-140 0 -244 -81t-127 -204l-127 -645h-164z" />
<glyph unicode="i" horiz-adv-x="423" d="M27 0l204 1044h164l-205 -1044h-163zM270 1358q8 40 42 63t69 23q42 0 71 -31q22 -23 21 -56q0 -11 -2 -24q-7 -40 -40.5 -63t-68.5 -23q-42 0 -71 31q-23 24 -23 60q0 9 2 20z" />
<glyph unicode="j" horiz-adv-x="413" d="M-215 -328l12 121q27 -2 50 -2q66 0 95 17q40 23 58 110l219 1126h164l-219 -1122q-26 -137 -78.5 -205.5t-148.5 -68.5q-69 0 -152 24zM258 1358q8 40 42 63t69 23q42 0 71 -31q22 -23 22 -56q0 -11 -3 -24q-7 -40 -40.5 -63t-68.5 -23q-42 0 -71 31q-23 24 -23 60 q0 9 2 20z" />
<glyph unicode="k" horiz-adv-x="991" d="M6 0l285 1464h164l-170 -868l567 448h207l-484 -387l322 -657h-192l-261 561l-192 -149l-82 -412h-164z" />
<glyph unicode="l" horiz-adv-x="395" d="M12 0l285 1464h164l-285 -1464h-164z" />
<glyph unicode="m" horiz-adv-x="1615" d="M6 0l205 1044h164l-27 -124l4 4q141 149 326 149q219 0 248 -186l6 10q165 176 366 176q159 1 223 -91q42 -60 43 -154q0 -48 -12 -105l-141 -723h-164l135 694q13 72 13 123t-36 82t-112 31q-124 0 -214.5 -80.5t-114.5 -204.5l-127 -645h-164l135 694q13 72 13 123 t-36 82t-112 31q-124 0 -215 -80.5t-115 -204.5l-127 -645h-164z" />
<glyph unicode="n" horiz-adv-x="1073" d="M6 0l205 1044h164l-27 -124l4 4q60 64 153.5 106.5t213.5 42.5q75 0 134.5 -21t101.5 -64q43 -43 57 -109q7 -31 7 -68q0 -41 -9 -88l-142 -723h-163l135 694q8 39 8 72q0 60 -26 100q-40 64 -154 64q-140 0 -244 -81t-127 -204l-127 -645h-164z" />
<glyph unicode="o" horiz-adv-x="1120" d="M47 510q48 252 219.5 407.5t411.5 155.5q232 1 336 -147q73 -102 73 -251q0 -65 -14 -140q-48 -252 -219 -408t-410 -156q-233 0 -338 148q-73 103 -73 252q0 65 14 139zM200 372q8 -76 37 -133t91 -90.5t149 -33.5q164 0 275.5 111t152.5 284q16 64 16 123q1 19 -1 39 q-8 76 -36.5 133.5t-90 91t-148.5 33.5q-165 0 -277 -111t-153 -284q-16 -64 -16 -123q-1 -21 1 -40z" />
<glyph unicode="p" horiz-adv-x="1134" d="M-57 -352l272 1396h164l-27 -129l2 5q149 153 357 153q98 0 177 -38.5t129.5 -111.5t68.5 -177q7 -43 7 -89q0 -69 -16 -147q-32 -164 -118 -288.5t-201.5 -187.5t-243.5 -63q-221 0 -305 168l-8 -4l-95 -487h-163zM274 510q-13 -66 -13 -122q0 -98 39 -166 q62 -107 204 -107q105 0 194.5 62t144 155.5t75.5 202.5q11 63 11 121q0 55 -17 104q-17 50 -45.5 88t-77 60t-109.5 22q-148 0 -258.5 -115t-147.5 -305z" />
<glyph unicode="q" horiz-adv-x="1134" d="M48 300q-7 42 -7 88q0 69 16 147q32 164 118.5 288t202 187t243.5 63q214 0 305 -162l8 4l27 129h163l-272 -1396h-164l96 487l-4 -4q-139 -160 -356 -160q-98 0 -177.5 39t-130 112t-68.5 178zM206 389q0 -55 17 -104q17 -50 45.5 -88t77 -60t109.5 -22q148 0 258 115 t147 305q13 66 13 122q0 98 -39 166q-61 107 -203 107q-105 0 -194.5 -62t-144 -155.5t-75.5 -202.5q-11 -63 -11 -121z" />
<glyph unicode="r" horiz-adv-x="700" d="M6 0l205 1044h164l-43 -206l6 6q66 111 144.5 170t181.5 59q58 0 98 -6l-27 -164q-34 6 -66 6q-124 0 -227 -83q-130 -104 -163 -275l-109 -551h-164z" />
<glyph unicode="s" horiz-adv-x="970" d="M-2 342h162q0 -98 77.5 -162.5t243.5 -64.5q102 0 160.5 36.5t69.5 96.5q4 21 4.5 40t-4 35t-10.5 29.5t-18 25.5t-23.5 21.5t-30 18.5t-34 16t-39 15t-42 13.5t-45.5 12.5q-57 16 -99 30.5t-98.5 46t-89.5 69.5q-33 39 -51 99q-10 34 -10 72q0 30 6 62q20 103 122 161 t267 58q189 0 296.5 -93.5t107.5 -227.5h-160q0 71 -61 124.5t-193 53.5q-97 0 -155 -29.5t-66 -81.5q-2 -16 -2 -31q1 -28 9 -50q14 -34 50.5 -56t74 -35.5t101.5 -31.5l12 -3q32 -9 57.5 -17.5t56 -19.5t54 -23t49.5 -27t44.5 -32t36.5 -37.5t28.5 -45t17.5 -52t6.5 -60 t-8.5 -69.5q-28 -131 -137 -194.5t-264 -63.5q-222 0 -347.5 103.5t-125.5 267.5z" />
<glyph unicode="t" horiz-adv-x="604" d="M117 901l28 143h154l68 349h163l-67 -349h205l-29 -143h-205l-123 -635q-6 -26 -5 -47q0 -45 27 -61q30 -17 100 -17q24 0 54 2l-18 -145q-49 -10 -121 -10q-212 0 -212 188q0 39 9 86l125 639h-153z" />
<glyph unicode="u" horiz-adv-x="1073" d="M60 166q-7 31 -7 68q0 41 8 88l142 722h164l-136 -694q-8 -38 -7 -71q0 -59 25 -101q40 -64 154 -63q140 0 244 80.5t127 203.5l127 645h164l-205 -1044h-164l27 125l-4 -4q-61 -64 -154 -107t-213 -43q-75 0 -134.5 21t-101.5 64.5t-56 109.5z" />
<glyph unicode="v" horiz-adv-x="944" d="M98 1044h176l119 -880l461 880h180l-577 -1044h-187z" />
<glyph unicode="w" horiz-adv-x="1503" d="M104 1044h179l69 -866h4l402 866h174l67 -866h5l405 866h182l-536 -1044h-174l-68 862h-4l-399 -862h-174z" />
<glyph unicode="x" horiz-adv-x="1024" d="M-100 0l508 535l-269 509h193l192 -399h4l349 399h196l-469 -509l301 -535h-192l-224 426h-4l-389 -426h-196z" />
<glyph unicode="y" horiz-adv-x="1001" d="M-49 -330l20 121h19q22 -2 42 -2q45 0 80 9q52 14 99 59q48 39 80 103q23 46 23 95q0 18 -3 37l-213 952h183l153 -851h4l467 851h187l-666 -1136q-65 -109 -101 -150q-98 -109 -233 -110q-67 0 -141 22z" />
<glyph unicode="z" horiz-adv-x="940" d="M-47 0l22 123l742 774l2 4h-555l29 143h786l-18 -98l-764 -799l-2 -4h630l-28 -143h-844z" />
<glyph unicode="{" horiz-adv-x="602" d="M61 571l23 164q69 -1 107 53.5t55 145.5l43 221q20 103 47 173t59 113t79.5 66.5t98 31t125.5 7.5h43l-30 -164h-35q-78 0 -127 -44.5t-70 -151.5l-61 -318q-16 -82 -55.5 -131.5t-102.5 -83.5l-10 -4q111 -75 82 -225l-60 -307q-22 -113 5 -153t106 -40h43l-31 -164h-35 q-74 0 -123 10t-88 36t-55.5 72.5t-16 119t20.5 174.5l41 211q9 53 11 95t-20 67.5t-69 25.5z" />
<glyph unicode="|" horiz-adv-x="102" d="M-156 -262l346 1786h144l-346 -1786h-144z" />
<glyph unicode="}" horiz-adv-x="604" d="M-86 -240l31 164h35q78 0 127 46t71 159l60 307q16 84 55 133.5t102 83.5l11 4q-111 75 -82 224l61 317q21 107 -7 145.5t-106 38.5h-43l31 164h35q74 0 123 -9t88.5 -34t56 -69.5t16.5 -116.5t-20 -174l-43 -221q-9 -53 -11 -95t20 -67.5t69 -24.5l-23 -164 q-123 0 -161 -200l-41 -211q-20 -103 -47.5 -174t-60 -115.5t-80 -69t-99 -33t-125.5 -8.5h-43z" />
<glyph unicode="~" horiz-adv-x="821" d="M80 559q22 107 80 171.5t139 64.5q42 0 81 -13.5t62.5 -30.5t49 -30.5t45.5 -13.5q44 0 71 30.5t33 63.5l141 -13q-21 -106 -79 -170.5t-138 -64.5q-54 0 -100 22t-79.5 44t-57.5 22q-44 0 -71.5 -30t-35.5 -64z" />
<glyph unicode="&#xa1;" horiz-adv-x="493" d="M-2 -266l82 420l170 667h102l-88 -667l-82 -420h-184zM242 1112q9 46 43.5 73t79.5 27q52 0 80 -34.5t18 -90.5q-9 -45 -43.5 -72.5t-79.5 -27.5q-52 0 -80 35t-18 90z" />
<glyph unicode="&#xa2;" horiz-adv-x="1056" d="M51 535q44 223 189.5 367.5t347.5 166.5l26 141h123l-26 -139q166 -18 254.5 -131.5t74.5 -277.5h-159q5 48 -2 90t-28 81t-64 64t-105 31l-156 -809q120 17 195.5 93t101.5 167h164q-43 -169 -178 -281.5t-311 -124.5l-29 -147h-123l29 151q-192 28 -280 179.5 t-44 378.5zM200.5 388.5q4.5 -65.5 23.5 -120t65 -94.5t114 -53l156 801q-141 -29 -230 -143t-118 -261q-15 -64 -10.5 -129.5z" />
<glyph unicode="&#xa3;" horiz-adv-x="1099" d="M-16 139q96 56 171.5 168t102.5 250q4 8 4 25h-170l33 163h115q-1 5 -6.5 28t-7.5 31t-6.5 30.5t-5.5 35t-2.5 34.5t-0.5 40t3 41t7 47q11 52 33.5 104t65 106.5t98 95.5t138.5 67.5t181 26.5q99 0 177 -24.5t126.5 -68t78.5 -103.5t33 -130.5t-11 -149.5h-183 q30 152 -28 232t-205 80q-135 0 -218 -71t-106 -183q-6 -29 -7.5 -58.5t-1.5 -48t5.5 -49t7 -38t10.5 -41.5l9 -34h321l-16 -163h-287q0 -30 -6 -60q-20 -100 -74 -185.5t-131 -141.5q100 49 179 49q49 0 92.5 -14.5t70 -31.5t63.5 -31.5t75 -14.5q67 0 123.5 24t128.5 72 l57 -158q-61 -40 -94.5 -59.5t-93 -39.5t-117.5 -20q-61 0 -117 19.5t-91 43t-81 43t-90 19.5q-63 0 -118.5 -21.5t-154.5 -78.5z" />
<glyph unicode="&#xa4;" horiz-adv-x="829" d="M-86 332l162 137q-53 101 -27 248q27 137 117 233l-107 129l101 86l106 -127q119 74 250 74q137 0 227 -84l160 135l78 -86l-166 -137q55 -105 27 -248q-23 -130 -113 -229l107 -129l-103 -88l-104 127q-115 -76 -252 -76q-140 0 -230 84l-159 -135zM209 692 q-25 -126 25 -189t151 -63q108 0 190 71t107 206q25 126 -24 189t-150 63q-108 0 -190 -71t-109 -206z" />
<glyph unicode="&#xa5;" horiz-adv-x="1144" d="M63 262l25 123h358l23 117h-358l24 123h336l-287 780h195l223 -676h4l486 676h202l-589 -780h331l-24 -123h-359l-22 -117h358l-24 -123h-359l-51 -262h-184l51 262h-359z" />
<glyph unicode="&#xa6;" horiz-adv-x="110" d="M-193 -262l148 764h143l-147 -764h-144zM10 786l144 738h143l-143 -738h-144z" />
<glyph unicode="&#xa7;" horiz-adv-x="1183" d="M80 642q1 26 6 54q43 210 297 265q-67 110 -41 243q25 127 135.5 208t296.5 81q104 0 178 -28.5t111.5 -78.5t50.5 -110.5t2 -130.5l-162 12q2 22 2.5 28t1.5 28t-1.5 30t-7.5 26.5t-14 27t-23.5 21t-34.5 18t-48 10t-63 4.5q-233 0 -262 -158q-6 -28 0 -56t24 -54.5 t37 -48.5t50.5 -47t53.5 -41.5t56 -40t49 -34.5q166 -106 224 -158q123 -108 121 -227q-1 -24 -5 -47q-43 -214 -293 -266q62 -112 39 -242q-25 -127 -136 -207.5t-298 -80.5q-103 0 -177 28.5t-111.5 78.5t-50 110.5t-1.5 130.5l160 -13q-6 -76 4 -106q28 -86 184 -86 q235 0 264 158q6 33 -4.5 66.5t-29.5 59.5t-52.5 56.5t-60 50t-66 47t-57.5 41.5q-22 14 -64 41q-35 22 -52.5 33.5t-48 32t-45.5 33t-38.5 32.5t-35 35.5t-27 36.5t-21.5 41t-11.5 43.5t-4.5 49.5zM250 692q-13 -68 60 -141q55 -54 246 -185q11 -8 36 -24l127 -88 q203 37 231 188q12 60 -35.5 108t-207.5 158q-148 102 -246 173q-102 -19 -149.5 -67.5t-61.5 -121.5z" />
<glyph unicode="&#xa8;" horiz-adv-x="1030" d="M428 1393q6 38 36 64t73 26q52 0 75.5 -33.5t14.5 -81.5q-6 -37 -36 -62.5t-73 -25.5q-52 0 -75.5 33t-14.5 80zM735 1393q6 38 36 64t73 26q52 0 75.5 -33.5t14.5 -81.5q-6 -37 -36 -62.5t-73 -25.5q-52 0 -75.5 33t-14.5 80z" />
<glyph unicode="&#xa9;" horiz-adv-x="1615" d="M79.5 562q-5.5 106 18.5 222q40 205 162.5 366.5t312 254t414.5 92.5q138 0 251.5 -40.5t190.5 -114t125.5 -175.5t56.5 -225.5t-16 -263.5q-40 -206 -161.5 -366.5t-310.5 -252.5t-414 -92q-115 0 -213.5 28t-172.5 80.5t-128.5 126t-82 164t-33 196.5zM185 536.5 q8 -105.5 51.5 -195t110 -154.5t164.5 -101.5t214 -36.5q149 0 281.5 51.5t231 140t166 207.5t93.5 254q21 98 16.5 188.5t-26.5 170t-67 144.5t-106 112t-143.5 72.5t-179.5 25.5q-199 0 -369.5 -88.5t-280 -237t-144.5 -329.5q-20 -118 -12 -223.5zM436 743 q39 201 172 325t326 124q113 0 192 -46.5t111.5 -119t24.5 -158.5h-140q1 18 -2 38t-15 46.5t-32.5 47t-59.5 35t-91 14.5q-80 0 -142.5 -27t-102.5 -75t-64.5 -104t-37.5 -124q-60 -303 203 -303q56 0 104.5 15t79 36t55 48t36 46.5t18.5 36.5h141q-36 -140 -157.5 -233 t-284.5 -93q-204 0 -289.5 129t-44.5 342z" />
<glyph unicode="&#xab;" horiz-adv-x="786" d="M43 424l33 184l327 234l-30 -164l-226 -160l-2 -4l162 -160l-28 -164zM426 424l33 184l327 234l-30 -164l-226 -160l-2 -4l162 -160l-28 -164z" />
<glyph unicode="&#xac;" horiz-adv-x="1140" d="M147 651l33 164h848l-102 -520h-185l70 356h-664z" />
<glyph unicode="&#xad;" horiz-adv-x="700" d="M57 440l33 164h549l-33 -164h-549z" />
<glyph unicode="&#xae;" horiz-adv-x="1044" d="M131 1034q40 211 188 337t363 126q136 0 242.5 -70.5t155 -193t20.5 -264.5q-40 -211 -188 -337t-363 -126q-136 0 -242.5 70.5t-155 193t-20.5 264.5zM207 1010q-16 -85 5 -164t69.5 -135t120.5 -89.5t153 -33.5q186 0 309 108.5t160 296.5q16 84 -5.5 163t-70.5 135 t-121 90t-153 34q-186 0 -308.5 -109.5t-158.5 -295.5zM385 743l102 527h209q79 0 120 -44.5t28 -117.5q-20 -101 -113 -123l-12 -2q32 -6 47 -32.5t14 -59t-3.5 -66t-7 -55t4.5 -25.5l4 -2l-88 5q-7 8 -0.5 30.5t8.5 53t0.5 58t-24.5 47t-66 19.5h-96l-41 -213h-86z M528 1034h84q27 0 45 2.5t41.5 10t38.5 27.5t21 50q5 11 2 20t-2.5 16t-5.5 12t-9 8t-12 5.5t-13.5 3.5t-15 1h-16h-16.5h-17h-96z" />
<glyph unicode="&#xaf;" horiz-adv-x="1013" d="M389 1290l27 144h528l-26 -144h-529z" />
<glyph unicode="&#xb0;" horiz-adv-x="733" d="M183.5 1110q-1.5 44 4.5 88q11 51 39 101.5t71 94.5t107.5 71.5t137.5 27.5q62 0 111.5 -19.5t79 -51.5t49 -74t21 -86t-4.5 -88q-11 -51 -39 -101.5t-71.5 -94.5t-107.5 -71.5t-137 -27.5q-63 0 -112.5 19.5t-79 51.5t-48.5 74t-20.5 86zM311 1194q-17 -88 28 -140.5 t130 -52.5q84 0 139 52t68 125q17 88 -28 140t-130 52q-84 0 -139 -51.5t-68 -124.5z" />
<glyph unicode="&#xb1;" horiz-adv-x="1140" d="M2 0l29 143h930l-29 -143h-930zM125 629l31 162h383l69 352h164l-70 -352h383l-30 -162h-383l-70 -355h-164l70 355h-383z" />
<glyph unicode="&#xb4;" horiz-adv-x="1009" d="M557 1225l139 260h197l-199 -260h-137z" />
<glyph unicode="&#xb6;" horiz-adv-x="1114" d="M160 1081q36 183 152.5 283t308.5 100h540l-284 -1464h-144l254 1300h-156l-253 -1300h-144l135 686h-90q-194 0 -275 102.5t-44 292.5z" />
<glyph unicode="&#xb7;" horiz-adv-x="397" d="M113 647q9 45 43.5 73t79.5 28q52 0 80 -35t18 -90q-9 -46 -44 -73.5t-79 -27.5q-53 0 -80.5 34.5t-17.5 90.5z" />
<glyph unicode="&#xb8;" horiz-adv-x="1024" d="M86 -338l45 45q76 -29 143 -29q55 0 94.5 26t45.5 63q4 25 -14 34t-70 9q-50 0 -88 -17l-23 41l143 152h107l-104 -107l-11 -4q45 7 87.5 -3.5t71 -44.5t19.5 -87q-13 -65 -81 -103t-150 -38q-64 0 -122 18t-93 45z" />
<glyph unicode="&#xbb;" horiz-adv-x="786" d="M-2 190l29 164l225 160l4 4l-162 160l29 164l233 -234l-32 -184zM381 190l29 164l225 160l4 4l-162 160l29 164l233 -234l-32 -184z" />
<glyph unicode="&#xbf;" horiz-adv-x="1032" d="M-18 90q6 32 18.5 62t25 52.5t35.5 47.5t39 40.5t47 38t47 33.5t51.5 34t49.5 32q56 37 91.5 67.5t70.5 75t58.5 103.5t39.5 139h180q-33 -175 -97 -278.5t-185 -188.5q-26 -19 -71 -45t-75 -45.5t-63 -47t-54 -63.5t-30 -81q-17 -86 48 -142.5t181 -56.5q300 0 367 334 h182q-44 -230 -183 -364t-378 -134q-195 0 -311.5 110.5t-83.5 276.5zM571 1110q9 46 44 73t79 27q53 0 81 -34.5t18 -90.5q-9 -45 -43.5 -72.5t-79.5 -27.5q-52 0 -80.5 35t-18.5 90z" />
<glyph unicode="&#xc0;" horiz-adv-x="1327" d="M-80 0l825 1464h205l254 -1464h-188l-58 367h-645l-200 -367h-193zM406 530h524l-111 764h-4zM698 1905h193l37 -260h-131z" />
<glyph unicode="&#xc1;" horiz-adv-x="1327" d="M-80 0l825 1464h205l254 -1464h-188l-58 367h-645l-200 -367h-193zM406 530h524l-111 764h-4zM805 1645l139 260h197l-201 -260h-135z" />
<glyph unicode="&#xc2;" horiz-adv-x="1327" d="M-80 0l825 1464h205l254 -1464h-188l-58 367h-645l-200 -367h-193zM406 530h524l-111 764h-4zM592 1645l237 260h185l139 -260h-162l-80 172h-4l-149 -172h-166z" />
<glyph unicode="&#xc3;" horiz-adv-x="1327" d="M-80 0l825 1464h205l254 -1464h-188l-58 367h-645l-200 -367h-193zM406 530h524l-111 764h-4zM606 1702q19 96 68.5 141t109.5 45q45 0 93 -18t85.5 -36.5t57.5 -18.5q56 0 72 75l120 -12q-20 -98 -69 -142t-109 -44q-46 0 -94 18t-85 36.5t-56 18.5q-32 0 -50 -24.5 t-22 -50.5z" />
<glyph unicode="&#xc4;" horiz-adv-x="1327" d="M-80 0l825 1464h205l254 -1464h-188l-58 367h-645l-200 -367h-193zM406 530h524l-111 764h-4zM653 1812q8 38 38 64.5t73 26.5q52 0 75.5 -33.5t14.5 -81.5q-6 -37 -36 -62.5t-73 -25.5q-52 0 -76 32.5t-16 79.5zM961 1812q8 39 37.5 65t72.5 26q52 0 75.5 -33.5 t14.5 -81.5q-6 -37 -35.5 -62.5t-72.5 -25.5q-52 0 -76 32.5t-16 79.5z" />
<glyph unicode="&#xc5;" horiz-adv-x="1327" d="M-80 0l825 1464h205l254 -1464h-188l-58 367h-645l-200 -367h-193zM406 530h524l-111 764h-4zM725 1804q13 72 72 120t129 48q78 0 124 -55t29 -137q-15 -73 -73 -119.5t-129 -46.5q-78 0 -122.5 53.5t-29.5 136.5zM805 1790q-9 -46 12.5 -70t63.5 -24q47 0 77.5 28 t38.5 72q9 45 -13 69.5t-62 24.5q-49 0 -79 -28t-38 -72z" />
<glyph unicode="&#xc6;" horiz-adv-x="2015" d="M-74 0l826 1464h1345l-31 -164h-849l-91 -460h752l-31 -164h-751l-101 -512h875l-33 -164h-1059l72 367h-531l-200 -367h-193zM412 530h471l147 764h-209z" />
<glyph unicode="&#xc7;" horiz-adv-x="1415" d="M109 745q42 215 159 385.5t288 266.5t366 96q133 0 239 -41.5t171.5 -113t97 -165t24.5 -198.5h-180q0 50 -8.5 95.5t-33.5 94.5t-64 84t-105.5 57.5t-153.5 22.5q-102 0 -193.5 -34.5t-160.5 -93t-124 -137t-90 -165t-52 -178.5q-15 -74 -16.5 -144.5t10 -136.5t41 -121 t73.5 -96.5t111 -64.5t151 -23q111 0 205 35.5t156.5 94t103 123.5t60.5 134h182q-69 -236 -249.5 -386.5t-426.5 -162.5l-96 -94l-10 -4q45 7 87.5 -3.5t71 -44.5t19.5 -87q-13 -65 -81.5 -103t-150.5 -38q-64 0 -122 18t-93 45l45 45q76 -29 144 -29q55 0 94 26t45 63 q4 25 -14.5 34t-69.5 9q-50 0 -88 -17l-22 41l135 139q-180 15 -302.5 117.5t-168 273t-4.5 381.5z" />
<glyph unicode="&#xc8;" horiz-adv-x="1267" d="M31 0l284 1464h1035l-31 -164h-850l-90 -460h751l-30 -164h-752l-100 -512h874l-32 -164h-1059zM696 1905h193l37 -260h-131z" />
<glyph unicode="&#xc9;" horiz-adv-x="1267" d="M31 0l284 1464h1035l-31 -164h-850l-90 -460h751l-30 -164h-752l-100 -512h874l-32 -164h-1059zM803 1645l139 260h197l-201 -260h-135z" />
<glyph unicode="&#xca;" horiz-adv-x="1267" d="M31 0l284 1464h1035l-31 -164h-850l-90 -460h751l-30 -164h-752l-100 -512h874l-32 -164h-1059zM590 1645l237 260h185l139 -260h-162l-80 172h-4l-149 -172h-166z" />
<glyph unicode="&#xcb;" horiz-adv-x="1267" d="M31 0l284 1464h1035l-31 -164h-850l-90 -460h751l-30 -164h-752l-100 -512h874l-32 -164h-1059zM651 1812q8 38 38 64.5t73 26.5q52 0 75.5 -33.5t14.5 -81.5q-6 -37 -36 -62.5t-73 -25.5q-52 0 -76 32.5t-16 79.5zM958 1812q8 38 38 64.5t73 26.5q52 0 75.5 -33.5 t14.5 -81.5q-6 -37 -35.5 -62.5t-72.5 -25.5q-52 0 -76.5 32.5t-16.5 79.5z" />
<glyph unicode="&#xcc;" horiz-adv-x="434" d="M8 0l285 1464h184l-284 -1464h-185zM236 1905h192l37 -260h-131z" />
<glyph unicode="&#xcd;" horiz-adv-x="460" d="M35 0l284 1464h185l-285 -1464h-184zM369 1645l139 260h197l-201 -260h-135z" />
<glyph unicode="&#xce;" horiz-adv-x="460" d="M35 0l284 1464h185l-285 -1464h-184zM156 1645l237 260h185l139 -260h-162l-80 172h-4l-149 -172h-166z" />
<glyph unicode="&#xcf;" horiz-adv-x="483" d="M45 0l285 1464h184l-285 -1464h-184zM227 1812q8 38 38 64.5t73 26.5q52 0 75.5 -33.5t14.5 -81.5q-6 -37 -36 -62.5t-73 -25.5q-52 0 -76 32.5t-16 79.5zM535 1812q8 39 37.5 65t72.5 26q52 0 75.5 -33.5t14.5 -81.5q-6 -37 -35.5 -62.5t-72.5 -25.5q-52 0 -76 32.5 t-16 79.5z" />
<glyph unicode="&#xd0;" horiz-adv-x="1400" d="M41 686l27 143h139l123 635h526q305 0 442.5 -195.5t69.5 -549.5q-67 -346 -274 -532.5t-512 -186.5h-537l135 686h-139zM262 164h342q108 0 198 32.5t152.5 86.5t110.5 130.5t76.5 156.5t46.5 173q109 557 -354 557h-351l-92 -471h471l-26 -143h-471z" />
<glyph unicode="&#xd1;" horiz-adv-x="1413" d="M31 0l284 1464h226l495 -1206h6l234 1206h184l-284 -1464h-224l-497 1202h-4l-236 -1202h-184zM647 1702q19 96 68.5 141t109.5 45q45 0 93 -18t85.5 -36.5t57.5 -18.5q56 0 72 75l120 -12q-20 -98 -69 -142t-109 -44q-46 0 -94 18t-85 36.5t-56 18.5q-32 0 -50 -24.5 t-22 -50.5z" />
<glyph unicode="&#xd2;" horiz-adv-x="1556" d="M87.5 493q-8.5 117 14.5 252q42 216 162.5 386t300.5 266t389 96q214 0 361 -99.5t203.5 -275t13.5 -397.5q-42 -216 -162.5 -386t-301.5 -267t-390 -97q-128 0 -234.5 37.5t-180.5 106.5t-120.5 165t-55 213zM267.5 570.5q-0.5 -72.5 14 -138.5t47.5 -120t81.5 -93.5 t120.5 -61.5t161 -22q109 0 205.5 32.5t170.5 89.5t132.5 134.5t95.5 166.5t56 187q16 94 16 179.5t-29 159.5t-77.5 128.5t-130.5 85.5t-189 31q-135 0 -250.5 -49.5t-196.5 -134.5t-135 -192.5t-77 -231.5q-15 -78 -15.5 -150.5zM809 1905h192l37 -260h-131z" />
<glyph unicode="&#xd3;" horiz-adv-x="1556" d="M87.5 493q-8.5 117 14.5 252q42 216 162.5 386t300.5 266t389 96q214 0 361 -99.5t203.5 -275t13.5 -397.5q-42 -216 -162.5 -386t-301.5 -267t-390 -97q-128 0 -234.5 37.5t-180.5 106.5t-120.5 165t-55 213zM267.5 570.5q-0.5 -72.5 14 -138.5t47.5 -120t81.5 -93.5 t120.5 -61.5t161 -22q109 0 205.5 32.5t170.5 89.5t132.5 134.5t95.5 166.5t56 187q16 94 16 179.5t-29 159.5t-77.5 128.5t-130.5 85.5t-189 31q-135 0 -250.5 -49.5t-196.5 -134.5t-135 -192.5t-77 -231.5q-15 -78 -15.5 -150.5zM915 1645l140 260h196l-200 -260h-136z " />
<glyph unicode="&#xd4;" horiz-adv-x="1556" d="M87.5 493q-8.5 117 14.5 252q42 216 162.5 386t300.5 266t389 96q214 0 361 -99.5t203.5 -275t13.5 -397.5q-42 -216 -162.5 -386t-301.5 -267t-390 -97q-128 0 -234.5 37.5t-180.5 106.5t-120.5 165t-55 213zM267.5 570.5q-0.5 -72.5 14 -138.5t47.5 -120t81.5 -93.5 t120.5 -61.5t161 -22q109 0 205.5 32.5t170.5 89.5t132.5 134.5t95.5 166.5t56 187q16 94 16 179.5t-29 159.5t-77.5 128.5t-130.5 85.5t-189 31q-135 0 -250.5 -49.5t-196.5 -134.5t-135 -192.5t-77 -231.5q-15 -78 -15.5 -150.5zM702 1645l238 260h184l140 -260h-162 l-80 172h-4l-150 -172h-166z" />
<glyph unicode="&#xd5;" horiz-adv-x="1556" d="M87.5 493q-8.5 117 14.5 252q42 216 162.5 386t300.5 266t389 96q214 0 361 -99.5t203.5 -275t13.5 -397.5q-42 -216 -162.5 -386t-301.5 -267t-390 -97q-128 0 -234.5 37.5t-180.5 106.5t-120.5 165t-55 213zM267.5 570.5q-0.5 -72.5 14 -138.5t47.5 -120t81.5 -93.5 t120.5 -61.5t161 -22q109 0 205.5 32.5t170.5 89.5t132.5 134.5t95.5 166.5t56 187q16 94 16 179.5t-29 159.5t-77.5 128.5t-130.5 85.5t-189 31q-135 0 -250.5 -49.5t-196.5 -134.5t-135 -192.5t-77 -231.5q-15 -78 -15.5 -150.5zM717 1702q19 96 68.5 141t109.5 45 q45 0 92.5 -18t85 -36.5t57.5 -18.5q56 0 72 75l121 -12q-20 -98 -69 -142t-109 -44q-46 0 -94.5 18t-85.5 36.5t-56 18.5q-32 0 -49.5 -24t-21.5 -51z" />
<glyph unicode="&#xd6;" horiz-adv-x="1556" d="M87.5 493q-8.5 117 14.5 252q42 216 162.5 386t300.5 266t389 96q214 0 361 -99.5t203.5 -275t13.5 -397.5q-42 -216 -162.5 -386t-301.5 -267t-390 -97q-128 0 -234.5 37.5t-180.5 106.5t-120.5 165t-55 213zM267.5 570.5q-0.5 -72.5 14 -138.5t47.5 -120t81.5 -93.5 t120.5 -61.5t161 -22q109 0 205.5 32.5t170.5 89.5t132.5 134.5t95.5 166.5t56 187q16 94 16 179.5t-29 159.5t-77.5 128.5t-130.5 85.5t-189 31q-135 0 -250.5 -49.5t-196.5 -134.5t-135 -192.5t-77 -231.5q-15 -78 -15.5 -150.5zM764 1812q8 39 37.5 65t72.5 26 q52 0 76 -33.5t15 -81.5q-6 -37 -36 -62.5t-73 -25.5q-52 0 -76 32.5t-16 79.5zM1071 1812q8 38 38 64.5t73 26.5q52 0 75.5 -33.5t14.5 -81.5q-6 -37 -36 -62.5t-73 -25.5q-52 0 -76 32.5t-16 79.5z" />
<glyph unicode="&#xd7;" horiz-adv-x="1095" d="M88 356l371 310l-250 309l135 117l250 -310l369 310l98 -117l-369 -309l248 -310l-135 -116l-250 309l-369 -309z" />
<glyph unicode="&#xd8;" horiz-adv-x="1566" d="M-27 82l179 149q-126 207 -68 514q42 216 162.5 386t300.5 266t389 96q157 0 277 -54.5t196 -152.5l199 170l63 -70l-209 -176q106 -201 51 -489q-42 -216 -162.5 -386t-301.5 -267t-390 -97q-293 0 -452 187l-174 -148zM264 721q-44 -220 25 -375l985 828 q-108 155 -350 155q-135 0 -251 -49.5t-197 -134.5t-135 -193t-77 -231zM338 268q111 -133 336 -133q135 0 250.5 49.5t196.5 135t135 193.5t77 232q41 200 -14 347z" />
<glyph unicode="&#xd9;" horiz-adv-x="1343" d="M91 325q-4 79 11 169l189 970h184l-190 -983q-34 -178 39.5 -262t261.5 -84q386 0 454 359l189 970h184l-190 -983q-45 -235 -209 -372.5t-443 -137.5q-116 0 -206 25.5t-146.5 72.5t-90 112t-37.5 144zM702 1905h193l37 -260h-131z" />
<glyph unicode="&#xda;" horiz-adv-x="1343" d="M91 325q-4 79 11 169l189 970h184l-190 -983q-34 -178 39.5 -262t261.5 -84q386 0 454 359l189 970h184l-190 -983q-45 -235 -209 -372.5t-443 -137.5q-116 0 -206 25.5t-146.5 72.5t-90 112t-37.5 144zM809 1645l139 260h197l-201 -260h-135z" />
<glyph unicode="&#xdb;" horiz-adv-x="1343" d="M91 325q-4 79 11 169l189 970h184l-190 -983q-34 -178 39.5 -262t261.5 -84q386 0 454 359l189 970h184l-190 -983q-45 -235 -209 -372.5t-443 -137.5q-116 0 -206 25.5t-146.5 72.5t-90 112t-37.5 144zM596 1645l238 260h184l139 -260h-162l-80 172h-4l-149 -172h-166z " />
<glyph unicode="&#xdc;" horiz-adv-x="1343" d="M91 325q-4 79 11 169l189 970h184l-190 -983q-34 -178 39.5 -262t261.5 -84q386 0 454 359l189 970h184l-190 -983q-45 -235 -209 -372.5t-443 -137.5q-116 0 -206 25.5t-146.5 72.5t-90 112t-37.5 144zM657 1812q8 38 38 64.5t73 26.5q52 0 75.5 -33.5t14.5 -81.5 q-6 -37 -35.5 -62.5t-72.5 -25.5q-52 0 -76.5 32.5t-16.5 79.5zM965 1812q8 39 37.5 65t72.5 26q52 0 75.5 -33.5t14.5 -81.5q-6 -37 -35.5 -62.5t-72.5 -25.5q-52 0 -76 32.5t-16 79.5z" />
<glyph unicode="&#xdd;" horiz-adv-x="1236" d="M168 1464h197l282 -716h4l568 716h200l-702 -864l-119 -600h-184l118 600zM750 1645l139 260h196l-200 -260h-135z" />
<glyph unicode="&#xde;" horiz-adv-x="1241" d="M29 0l284 1464h185l-47 -245h393q103 0 183 -24.5t137 -77.5t75.5 -136.5t-0.5 -200.5q-22 -110 -73 -191t-125 -129t-161.5 -70.5t-191.5 -22.5h-403l-72 -367h-184zM317 530h412q275 0 330 275q25 129 -27.5 189.5t-189.5 60.5h-422z" />
<glyph unicode="&#xdf;" horiz-adv-x="1028" d="M6 0l211 1079q39 197 168 305.5t334 108.5q161 0 258 -101t65 -270q-23 -118 -99.5 -190t-197.5 -121l-10 -4q289 -96 226 -422q-34 -176 -162 -295t-289 -119q-99 0 -211 31l18 139q125 -48 226 -21t169 105t89 185q14 59 9 105t-17 80.5t-36.5 59.5t-51 41.5t-60 26 t-62.5 13t-59 3.5h-65l26 144h52q53 0 107 14.5t103 43t84.5 76.5t47.5 109q19 90 -23 157t-145 67q-82 0 -142.5 -24.5t-99 -71t-61.5 -101t-37 -127.5l-201 -1026h-164z" />
<glyph unicode="&#xe0;" d="M2 293q9 46 28 84t41.5 66t60.5 52t71.5 40t89 33t98 27t113.5 26q65 14 101.5 23.5t76.5 24t60.5 30t36.5 38.5t22 54q12 65 -25 102t-151 37q-150 0 -222.5 -49.5t-103.5 -165.5h-162q39 168 161 263t337 95q80 0 143 -17.5t110.5 -55.5t65.5 -105t0 -158l-98 -508 q-8 -41 -7 -67t24.5 -36.5t76.5 -4.5l-22 -111q-52 -20 -92 -20q-76 0 -115 31t-43 110q-147 -160 -385 -160q-161 0 -240 87.5t-51 234.5zM164 285q-15 -80 27.5 -125t127.5 -45q155 0 265 75.5t143 219.5l37 163q-42 -36 -252 -79q-168 -34 -250.5 -81t-97.5 -128z M487 1485h193l37 -260h-129z" />
<glyph unicode="&#xe1;" d="M2 293q9 46 28 84t41.5 66t60.5 52t71.5 40t89 33t98 27t113.5 26q65 14 101.5 23.5t76.5 24t60.5 30t36.5 38.5t22 54q12 65 -25 102t-151 37q-150 0 -222.5 -49.5t-103.5 -165.5h-162q39 168 161 263t337 95q80 0 143 -17.5t110.5 -55.5t65.5 -105t0 -158l-98 -508 q-8 -41 -7 -67t24.5 -36.5t76.5 -4.5l-22 -111q-52 -20 -92 -20q-76 0 -115 31t-43 110q-147 -160 -385 -160q-161 0 -240 87.5t-51 234.5zM164 285q-15 -80 27.5 -125t127.5 -45q155 0 265 75.5t143 219.5l37 163q-42 -36 -252 -79q-168 -34 -250.5 -81t-97.5 -128z M594 1225l139 260h197l-199 -260h-137z" />
<glyph unicode="&#xe2;" d="M2 293q9 46 28 84t41.5 66t60.5 52t71.5 40t89 33t98 27t113.5 26q65 14 101.5 23.5t76.5 24t60.5 30t36.5 38.5t22 54q12 65 -25 102t-151 37q-150 0 -222.5 -49.5t-103.5 -165.5h-162q39 168 161 263t337 95q80 0 143 -17.5t110.5 -55.5t65.5 -105t0 -158l-98 -508 q-8 -41 -7 -67t24.5 -36.5t76.5 -4.5l-22 -111q-52 -20 -92 -20q-76 0 -115 31t-43 110q-147 -160 -385 -160q-161 0 -240 87.5t-51 234.5zM164 285q-15 -80 27.5 -125t127.5 -45q155 0 265 75.5t143 219.5l37 163q-42 -36 -252 -79q-168 -34 -250.5 -81t-97.5 -128z M381 1225l237 260h185l139 -260h-160l-82 172h-4l-147 -172h-168z" />
<glyph unicode="&#xe3;" d="M2 293q9 46 28 84t41.5 66t60.5 52t71.5 40t89 33t98 27t113.5 26q65 14 101.5 23.5t76.5 24t60.5 30t36.5 38.5t22 54q12 65 -25 102t-151 37q-150 0 -222.5 -49.5t-103.5 -165.5h-162q39 168 161 263t337 95q80 0 143 -17.5t110.5 -55.5t65.5 -105t0 -158l-98 -508 q-8 -41 -7 -67t24.5 -36.5t76.5 -4.5l-22 -111q-52 -20 -92 -20q-76 0 -115 31t-43 110q-147 -160 -385 -160q-161 0 -240 87.5t-51 234.5zM164 285q-15 -80 27.5 -125t127.5 -45q155 0 265 75.5t143 219.5l37 163q-42 -36 -252 -79q-168 -34 -250.5 -81t-97.5 -128z M395 1282q19 96 68.5 141t109.5 45q45 0 93 -18t85.5 -36.5t57.5 -18.5q56 0 72 75l120 -12q-20 -98 -68.5 -142t-109.5 -44q-45 0 -92.5 18.5t-85 37t-57.5 18.5q-31 0 -49.5 -25t-22.5 -51z" />
<glyph unicode="&#xe4;" d="M2 293q9 46 28 84t41.5 66t60.5 52t71.5 40t89 33t98 27t113.5 26q65 14 101.5 23.5t76.5 24t60.5 30t36.5 38.5t22 54q12 65 -25 102t-151 37q-150 0 -222.5 -49.5t-103.5 -165.5h-162q39 168 161 263t337 95q80 0 143 -17.5t110.5 -55.5t65.5 -105t0 -158l-98 -508 q-8 -41 -7 -67t24.5 -36.5t76.5 -4.5l-22 -111q-52 -20 -92 -20q-76 0 -115 31t-43 110q-147 -160 -385 -160q-161 0 -240 87.5t-51 234.5zM164 285q-15 -80 27.5 -125t127.5 -45q155 0 265 75.5t143 219.5l37 163q-42 -36 -252 -79q-168 -34 -250.5 -81t-97.5 -128z M444 1393q6 38 36 64t73 26q52 0 75.5 -33.5t14.5 -81.5q-6 -37 -35.5 -62.5t-72.5 -25.5q-52 0 -76 33t-15 80zM752 1393q6 38 35.5 64t72.5 26q52 0 75.5 -33.5t14.5 -81.5q-6 -37 -35.5 -62.5t-72.5 -25.5q-52 0 -75.5 33t-14.5 80z" />
<glyph unicode="&#xe5;" d="M2 293q9 46 28 84t41.5 66t60.5 52t71.5 40t89 33t98 27t113.5 26q65 14 101.5 23.5t76.5 24t60.5 30t36.5 38.5t22 54q12 65 -25 102t-151 37q-150 0 -222.5 -49.5t-103.5 -165.5h-162q39 168 161 263t337 95q80 0 143 -17.5t110.5 -55.5t65.5 -105t0 -158l-98 -508 q-8 -41 -7 -67t24.5 -36.5t76.5 -4.5l-22 -111q-52 -20 -92 -20q-76 0 -115 31t-43 110q-147 -160 -385 -160q-161 0 -240 87.5t-51 234.5zM164 285q-15 -80 27.5 -125t127.5 -45q155 0 265 75.5t143 219.5l37 163q-42 -36 -252 -79q-168 -34 -250.5 -81t-97.5 -128z M510 1384q13 72 72 120t129 48q78 0 123 -55t30 -137q-15 -73 -73 -119.5t-129 -46.5q-79 0 -124 53.5t-28 136.5zM590 1370q-9 -46 12.5 -70t63.5 -24q47 0 77.5 28t38.5 72q9 45 -13 69.5t-62 24.5q-48 0 -77.5 -28t-39.5 -72z" />
<glyph unicode="&#xe6;" horiz-adv-x="1789" d="M2 293q9 46 28 84t41.5 66t60.5 52t71.5 40t89 33t98 27t113.5 26q65 14 101.5 23.5t76.5 24t60.5 30t36.5 38.5t22 54q12 65 -25 102t-151 37q-150 0 -222.5 -49.5t-103.5 -165.5h-162q39 168 161 263t337 95q115 0 197.5 -37.5t113.5 -117.5q161 155 410 155 q245 0 340.5 -158t38.5 -442h-826q-19 -97 1 -176.5t87 -130.5t174 -51q61 0 115.5 15.5t92 38.5t69 53t49.5 56t29 50h174q-67 -162 -206.5 -259.5t-326.5 -97.5q-142 0 -241 60t-146 168q-108 -131 -227.5 -179.5t-259.5 -48.5q-161 0 -240 87.5t-51 234.5zM164 285 q-15 -80 27.5 -125t127.5 -45q155 0 265 75.5t143 219.5l35 151q0 2 1 6t1 6q-42 -36 -252 -79q-168 -34 -250.5 -81t-97.5 -128zM938 616h664q26 140 -40.5 227t-215.5 87q-148 0 -265.5 -92.5t-142.5 -221.5z" />
<glyph unicode="&#xe7;" horiz-adv-x="1058" d="M53 535q47 242 212 390t390 148q193 0 297.5 -116t89.5 -295h-159q5 51 -3.5 96t-33.5 85t-76.5 63.5t-124.5 23.5q-91 0 -167.5 -35.5t-129 -95t-86.5 -131t-49 -150.5q-9 -58 -11 -115t15 -109t46 -92t82 -63.5t124 -23.5q77 0 141.5 25t106.5 65.5t68.5 84t39.5 89.5 h164q-45 -173 -185.5 -287t-322.5 -121l-94 -92l-10 -4q45 7 87.5 -3.5t71 -44.5t19.5 -87q-13 -65 -81 -103t-150 -38q-64 0 -122 18t-93 45l45 45q76 -29 143 -29q55 0 94 26t45 63q4 25 -14 34t-70 9q-50 0 -88 -17l-22 41l139 141q-194 28 -283 180t-45 380z" />
<glyph unicode="&#xe8;" horiz-adv-x="1083" d="M51 545q50 253 209.5 390.5t388.5 137.5q245 0 340.5 -158t38.5 -442h-825q-19 -97 1 -176.5t87 -130.5t174 -51q75 0 139.5 22.5t106.5 58t67.5 68t40.5 64.5h174q-67 -162 -206 -259.5t-326 -97.5q-238 0 -349 160t-61 414zM231 616h664q26 140 -40.5 227t-215.5 87 q-148 0 -265.5 -92.5t-142.5 -221.5zM496 1485h192l37 -260h-129z" />
<glyph unicode="&#xe9;" horiz-adv-x="1083" d="M51 545q50 253 209.5 390.5t388.5 137.5q245 0 340.5 -158t38.5 -442h-825q-19 -97 1 -176.5t87 -130.5t174 -51q75 0 139.5 22.5t106.5 58t67.5 68t40.5 64.5h174q-67 -162 -206 -259.5t-326 -97.5q-238 0 -349 160t-61 414zM231 616h664q26 140 -40.5 227t-215.5 87 q-148 0 -265.5 -92.5t-142.5 -221.5zM602 1225l139 260h197l-199 -260h-137z" />
<glyph unicode="&#xea;" horiz-adv-x="1083" d="M51 545q50 253 209.5 390.5t388.5 137.5q245 0 340.5 -158t38.5 -442h-825q-19 -97 1 -176.5t87 -130.5t174 -51q75 0 139.5 22.5t106.5 58t67.5 68t40.5 64.5h174q-67 -162 -206 -259.5t-326 -97.5q-238 0 -349 160t-61 414zM231 616h664q26 140 -40.5 227t-215.5 87 q-148 0 -265.5 -92.5t-142.5 -221.5zM389 1225l238 260h184l139 -260h-159l-82 172h-4l-148 -172h-168z" />
<glyph unicode="&#xeb;" horiz-adv-x="1083" d="M51 545q50 253 209.5 390.5t388.5 137.5q245 0 340.5 -158t38.5 -442h-825q-19 -97 1 -176.5t87 -130.5t174 -51q75 0 139.5 22.5t106.5 58t67.5 68t40.5 64.5h174q-67 -162 -206 -259.5t-326 -97.5q-238 0 -349 160t-61 414zM231 616h664q26 140 -40.5 227t-215.5 87 q-148 0 -265.5 -92.5t-142.5 -221.5zM453 1393q6 38 35.5 64t72.5 26q52 0 75.5 -33.5t14.5 -81.5q-6 -37 -35.5 -62.5t-72.5 -25.5q-52 0 -75.5 33t-14.5 80zM760 1393q6 38 35.5 64t72.5 26q52 0 75.5 -33.5t14.5 -81.5q-6 -37 -35.5 -62.5t-72.5 -25.5q-52 0 -75.5 33 t-14.5 80z" />
<glyph unicode="&#xec;" horiz-adv-x="391" d="M14 0l205 1044h164l-205 -1044h-164zM150 1485h192l37 -260h-129z" />
<glyph unicode="&#xed;" horiz-adv-x="407" d="M6 0l205 1044h164l-205 -1044h-164zM248 1225l139 260h197l-199 -260h-137z" />
<glyph unicode="&#xee;" horiz-adv-x="446" d="M39 0l205 1044h164l-205 -1044h-164zM68 1225l237 260h184l140 -260h-160l-82 172h-4l-147 -172h-168z" />
<glyph unicode="&#xef;" horiz-adv-x="462" d="M51 0l205 1044h164l-205 -1044h-164zM143 1393q6 38 36 64t73 26q52 0 75.5 -33.5t14.5 -81.5q-6 -37 -36 -62.5t-73 -25.5q-52 0 -75.5 33t-14.5 80zM451 1393q6 38 35.5 64t72.5 26q52 0 75.5 -33.5t14.5 -81.5q-6 -37 -35.5 -62.5t-72.5 -25.5q-52 0 -75.5 33 t-14.5 80z" />
<glyph unicode="&#xf0;" horiz-adv-x="1130" d="M53 539q33 167 125.5 292t215 187.5t257.5 62.5q101 0 180 -53.5t115 -140.5l8 14q-25 171 -159 332l-344 -90l-9 98l277 74q-68 71 -184 151l213 -4q70 -43 133 -112l284 75l11 -98l-226 -59q211 -292 137 -674q-18 -94 -51.5 -181t-88 -169.5t-123.5 -143t-164.5 -97 t-204.5 -36.5q-241 0 -346.5 155.5t-55.5 416.5zM204 362q9 -73 36.5 -128.5t85 -89t137.5 -33.5q165 0 289.5 126.5t158.5 301.5q22 107 -0.5 197t-92 146t-175.5 56q-110 0 -202.5 -60.5t-149 -155t-78.5 -208.5q-18 -79 -9 -152z" />
<glyph unicode="&#xf1;" horiz-adv-x="1073" d="M6 0l205 1044h164l-27 -124l4 4q60 64 153.5 106.5t213.5 42.5q75 0 134.5 -21t101.5 -64t56.5 -109t-1.5 -156l-142 -723h-163l135 694q22 109 -18 172.5t-154 63.5q-140 0 -244 -81t-127 -204l-127 -645h-164zM399 1282q19 96 69 141t110 45q45 0 92.5 -18t85 -36.5 t57.5 -18.5q56 0 72 75l121 -12q-20 -98 -69 -142t-110 -44q-45 0 -92.5 18.5t-85 37t-57.5 18.5q-31 0 -49.5 -25t-22.5 -51z" />
<glyph unicode="&#xf2;" horiz-adv-x="1120" d="M47 510q48 252 219.5 407.5t411.5 155.5q232 0 336.5 -147.5t58.5 -390.5q-48 -252 -219 -408t-410 -156q-233 0 -338 148t-59 391zM200.5 372.5q7.5 -76.5 36.5 -133.5t91 -90.5t149 -33.5q164 0 275.5 111t152.5 284q22 86 14.5 162.5t-36 133.5t-90 90.5t-148.5 33.5 q-165 0 -277 -111t-153 -284q-22 -86 -14.5 -162.5zM512 1485h193l36 -260h-129z" />
<glyph unicode="&#xf3;" horiz-adv-x="1120" d="M47 510q48 252 219.5 407.5t411.5 155.5q232 0 336.5 -147.5t58.5 -390.5q-48 -252 -219 -408t-410 -156q-233 0 -338 148t-59 391zM200.5 372.5q7.5 -76.5 36.5 -133.5t91 -90.5t149 -33.5q164 0 275.5 111t152.5 284q22 86 14.5 162.5t-36 133.5t-90 90.5t-148.5 33.5 q-165 0 -277 -111t-153 -284q-22 -86 -14.5 -162.5zM618 1225l140 260h196l-198 -260h-138z" />
<glyph unicode="&#xf4;" horiz-adv-x="1120" d="M47 510q48 252 219.5 407.5t411.5 155.5q232 0 336.5 -147.5t58.5 -390.5q-48 -252 -219 -408t-410 -156q-233 0 -338 148t-59 391zM200.5 372.5q7.5 -76.5 36.5 -133.5t91 -90.5t149 -33.5q164 0 275.5 111t152.5 284q22 86 14.5 162.5t-36 133.5t-90 90.5t-148.5 33.5 q-165 0 -277 -111t-153 -284q-22 -86 -14.5 -162.5zM406 1225l237 260h184l140 -260h-160l-82 172h-4l-148 -172h-167z" />
<glyph unicode="&#xf5;" horiz-adv-x="1120" d="M47 510q48 252 219.5 407.5t411.5 155.5q232 0 336.5 -147.5t58.5 -390.5q-48 -252 -219 -408t-410 -156q-233 0 -338 148t-59 391zM200.5 372.5q7.5 -76.5 36.5 -133.5t91 -90.5t149 -33.5q164 0 275.5 111t152.5 284q22 86 14.5 162.5t-36 133.5t-90 90.5t-148.5 33.5 q-165 0 -277 -111t-153 -284q-22 -86 -14.5 -162.5zM420 1282q19 96 68.5 141t109.5 45q45 0 93 -18t85.5 -36.5t57.5 -18.5q55 0 71 75l121 -12q-20 -98 -68.5 -142t-109.5 -44q-45 0 -93 18.5t-85.5 37t-57.5 18.5q-31 0 -49 -25t-22 -51z" />
<glyph unicode="&#xf6;" horiz-adv-x="1120" d="M47 510q48 252 219.5 407.5t411.5 155.5q232 0 336.5 -147.5t58.5 -390.5q-48 -252 -219 -408t-410 -156q-233 0 -338 148t-59 391zM200.5 372.5q7.5 -76.5 36.5 -133.5t91 -90.5t149 -33.5q164 0 275.5 111t152.5 284q22 86 14.5 162.5t-36 133.5t-90 90.5t-148.5 33.5 q-165 0 -277 -111t-153 -284q-22 -86 -14.5 -162.5zM469 1393q6 38 36 64t73 26q52 0 75.5 -33.5t14.5 -81.5q-6 -37 -36 -62.5t-73 -25.5q-52 0 -75.5 33t-14.5 80zM776 1393q6 38 36 64t73 26q52 0 75.5 -33.5t14.5 -81.5q-6 -37 -36 -62.5t-73 -25.5q-52 0 -75.5 33 t-14.5 80z" />
<glyph unicode="&#xf7;" horiz-adv-x="1142" d="M117 588l33 164h929l-32 -164h-930zM412 340q18 100 131 100q63 0 91.5 -33t16.5 -92q-18 -100 -131 -100q-64 0 -92 33t-16 92zM543 1020q18 100 133 100q61 0 90 -33t18 -92q-18 -100 -133 -100q-63 0 -91 33t-17 92z" />
<glyph unicode="&#xf8;" horiz-adv-x="1181" d="M-43 51l125 105q-76 142 -35 354q48 252 219.5 407.5t411.5 155.5q222 0 330 -137l153 129l62 -72l-168 -141q55 -135 18 -317q-48 -252 -219 -408t-410 -156q-199 0 -307 111l-121 -102zM215 535q-35 -151 6 -261l651 549q-70 107 -227 107q-165 0 -277 -111t-153 -284z M270 193q72 -78 207 -78q164 0 275.5 111t152.5 284q28 123 6 221z" />
<glyph unicode="&#xf9;" horiz-adv-x="1069" d="M55.5 166q-14.5 66 1.5 156l142 722h163l-135 -694q-22 -108 18 -171.5t154 -63.5q140 0 244 80.5t127 203.5l127 645h164l-205 -1044h-164l27 125l-4 -4q-61 -64 -154 -107t-213 -43q-75 0 -134.5 21t-101.5 64.5t-56.5 109.5zM475 1485h193l37 -260h-130z" />
<glyph unicode="&#xfa;" horiz-adv-x="1069" d="M55.5 166q-14.5 66 1.5 156l142 722h163l-135 -694q-22 -108 18 -171.5t154 -63.5q140 0 244 80.5t127 203.5l127 645h164l-205 -1044h-164l27 125l-4 -4q-61 -64 -154 -107t-213 -43q-75 0 -134.5 21t-101.5 64.5t-56.5 109.5zM582 1225l139 260h197l-199 -260h-137z " />
<glyph unicode="&#xfb;" horiz-adv-x="1069" d="M55.5 166q-14.5 66 1.5 156l142 722h163l-135 -694q-22 -108 18 -171.5t154 -63.5q140 0 244 80.5t127 203.5l127 645h164l-205 -1044h-164l27 125l-4 -4q-61 -64 -154 -107t-213 -43q-75 0 -134.5 21t-101.5 64.5t-56.5 109.5zM369 1225l237 260h185l139 -260h-160 l-82 172h-4l-147 -172h-168z" />
<glyph unicode="&#xfc;" horiz-adv-x="1069" d="M55.5 166q-14.5 66 1.5 156l142 722h163l-135 -694q-22 -108 18 -171.5t154 -63.5q140 0 244 80.5t127 203.5l127 645h164l-205 -1044h-164l27 125l-4 -4q-61 -64 -154 -107t-213 -43q-75 0 -134.5 21t-101.5 64.5t-56.5 109.5zM432 1393q6 38 36 64t73 26 q52 0 75.5 -33.5t14.5 -81.5q-6 -37 -36 -62.5t-73 -25.5q-52 0 -75.5 33t-14.5 80zM739 1393q6 38 36 64t73 26q52 0 75.5 -33.5t14.5 -81.5q-6 -37 -36 -62.5t-73 -25.5q-52 0 -75.5 33t-14.5 80z" />
<glyph unicode="&#xfd;" horiz-adv-x="1001" d="M-49 -330l20 121h19q71 -6 122.5 7.5t98.5 58.5q48 39 80 102.5t20 132.5l-213 952h183l153 -851h4l467 851h187l-666 -1136q-65 -109 -101 -150q-98 -109 -233 -110q-67 0 -141 22zM551 1225l139 260h197l-199 -260h-137z" />
<glyph unicode="&#xfe;" horiz-adv-x="1132" d="M-61 -352l352 1816h164l-109 -549l4 5q149 153 357 153q98 0 177 -38.5t129.5 -111.5t68 -177.5t-8.5 -235.5q-32 -164 -118 -288.5t-201.5 -187.5t-243.5 -63q-221 0 -305 168l-8 -4l-95 -487h-163zM270 510q-35 -181 26.5 -288t203.5 -107q105 0 194 62t143.5 155.5 t75.5 202.5q10 60 10.5 117.5t-16.5 107.5t-45.5 88t-76.5 60t-109 22q-148 0 -258.5 -115t-147.5 -305z" />
<glyph unicode="&#xff;" horiz-adv-x="1001" d="M-49 -330l20 121h19q71 -6 122.5 7.5t98.5 58.5q48 39 80 102.5t20 132.5l-213 952h183l153 -851h4l467 851h187l-666 -1136q-65 -109 -101 -150q-98 -109 -233 -110q-67 0 -141 22zM401 1393q6 38 36 64t73 26q52 0 75.5 -33.5t14.5 -81.5q-6 -37 -35.5 -62.5 t-72.5 -25.5q-52 0 -76 33t-15 80zM709 1393q6 38 35.5 64t72.5 26q52 0 75.5 -33.5t14.5 -81.5q-6 -37 -35.5 -62.5t-72.5 -25.5q-52 0 -75.5 33t-14.5 80z" />
<glyph unicode="&#x152;" horiz-adv-x="2174" d="M110.5 347.5q-42.5 176.5 0.5 397.5q42 215 149 385.5t259 266.5t321 96q245 0 354 -162l29 133h1034l-31 -164h-850l-90 -460h752l-31 -164h-752l-100 -512h875l-33 -164h-1059l29 125q-168 -154 -404 -154q-173 0 -291.5 100t-161 276.5zM271 541q-2 -84 16.5 -159.5 t58 -129.5t109 -85.5t163.5 -31.5q107 0 207.5 53t178.5 156l157 786q-38 101 -114.5 150t-178.5 49q-120 0 -220.5 -49t-170.5 -135t-116 -192.5t-70 -231.5q-18 -96 -20 -180z" />
<glyph unicode="&#x153;" horiz-adv-x="1949" d="M49 510q48 252 219.5 407.5t411.5 155.5q139 0 234.5 -56t138.5 -157q83 104 201 158.5t259 54.5q245 0 340.5 -158t38.5 -442h-825q-19 -97 1 -176.5t87 -130.5t174 -51q75 0 139.5 22.5t106.5 58t67.5 68t40.5 64.5h175q-67 -162 -206.5 -259.5t-326.5 -97.5 q-146 0 -246.5 63.5t-144.5 176.5q-87 -114 -213 -177t-275 -63q-233 0 -338 148t-59 391zM202.5 372.5q7.5 -76.5 36.5 -133.5t91 -90.5t149 -33.5q164 0 275.5 111t152.5 284q22 86 14.5 162.5t-36 133.5t-90 90.5t-148.5 33.5q-165 0 -277 -111t-153 -284 q-22 -86 -14.5 -162.5zM1096 616h663q26 140 -40.5 227t-215.5 87q-148 0 -265 -92.5t-142 -221.5z" />
<glyph unicode="&#x178;" horiz-adv-x="1236" d="M168 1464h197l282 -716h4l568 716h200l-702 -864l-119 -600h-184l118 600zM598 1812q8 38 38 64.5t73 26.5q52 0 75.5 -33.5t14.5 -81.5q-6 -37 -36 -62.5t-73 -25.5q-52 0 -76 32.5t-16 79.5zM905 1812q8 38 38 64.5t73 26.5q52 0 75.5 -33.5t14.5 -81.5 q-6 -37 -36 -62.5t-73 -25.5q-52 0 -76 32.5t-16 79.5z" />
<glyph unicode="&#x2c6;" horiz-adv-x="1015" d="M356 1225l238 260h184l140 -260h-160l-82 172h-4l-148 -172h-168z" />
<glyph unicode="&#x2dc;" horiz-adv-x="1026" d="M371 1282q19 96 68.5 141t109.5 45q45 0 92.5 -18t85 -36.5t57.5 -18.5q56 0 72 75l121 -12q-20 -98 -68.5 -142t-109.5 -44q-45 0 -93 18.5t-85.5 37t-57.5 18.5q-31 0 -49 -25t-22 -51z" />
<glyph unicode="&#x2000;" horiz-adv-x="986" />
<glyph unicode="&#x2001;" horiz-adv-x="1972" />
<glyph unicode="&#x2002;" horiz-adv-x="986" />
<glyph unicode="&#x2003;" horiz-adv-x="1972" />
<glyph unicode="&#x2004;" horiz-adv-x="657" />
<glyph unicode="&#x2005;" horiz-adv-x="493" />
<glyph unicode="&#x2006;" horiz-adv-x="328" />
<glyph unicode="&#x2007;" horiz-adv-x="328" />
<glyph unicode="&#x2008;" horiz-adv-x="246" />
<glyph unicode="&#x2009;" horiz-adv-x="394" />
<glyph unicode="&#x200a;" horiz-adv-x="109" />
<glyph unicode="&#x2010;" horiz-adv-x="700" d="M57 440l33 164h549l-33 -164h-549z" />
<glyph unicode="&#x2011;" horiz-adv-x="700" d="M57 440l33 164h549l-33 -164h-549z" />
<glyph unicode="&#x2012;" horiz-adv-x="700" d="M57 440l33 164h549l-33 -164h-549z" />
<glyph unicode="&#x2013;" horiz-adv-x="1218" d="M78 440l33 164h1024l-33 -164h-1024z" />
<glyph unicode="&#x2014;" horiz-adv-x="2048" d="M186 438l33 164h1639l-33 -164h-1639z" />
<glyph unicode="&#x2018;" horiz-adv-x="395" d="M213 1169q8 43 26 87t48 90t78 80t106 44l-10 -106q-49 -10 -87 -50.5t-52 -96.5q53 21 85 -11t19 -102q-10 -52 -43.5 -79.5t-77.5 -27.5q-60 0 -83 46.5t-9 125.5z" />
<glyph unicode="&#x2019;" horiz-adv-x="389" d="M197 1006l12 106q49 10 87 51t52 97q-53 -21 -85 10.5t-19 101.5q9 52 42.5 79.5t78.5 27.5q59 0 82.5 -47t9.5 -125q-8 -43 -26 -87t-48.5 -90t-78.5 -80t-107 -44z" />
<glyph unicode="&#x201a;" horiz-adv-x="387" d="M-49 -262l10 106q50 10 88 50.5t53 97.5q-54 -21 -86.5 10.5t-19.5 101.5q10 52 44 79.5t79 27.5q59 0 82 -47t8 -125q-8 -43 -26 -87t-47.5 -90t-77.5 -80t-107 -44z" />
<glyph unicode="&#x201c;" horiz-adv-x="700" d="M217 1169q8 43 26 87t48 90t78 80t106 44l-10 -106q-49 -10 -87 -50.5t-52 -96.5q53 21 85 -11t19 -102q-10 -52 -43.5 -79.5t-77.5 -27.5q-60 0 -83 46.5t-9 125.5zM518 1169q8 43 26 87t48 90t78 80t106 44l-10 -106q-49 -10 -87 -50.5t-52 -96.5q53 21 85 -11t19 -102 q-10 -52 -43.5 -79.5t-77.5 -27.5q-60 0 -83 46.5t-9 125.5z" />
<glyph unicode="&#x201d;" horiz-adv-x="686" d="M193 1006l12 106q49 10 87 51t52 97q-53 -21 -85 10.5t-19 101.5q9 52 42 79.5t78 27.5q59 0 83 -47t10 -125q-8 -43 -26 -87t-48.5 -90t-78.5 -80t-107 -44zM494 1006l12 106q49 10 87 51t52 97q-53 -21 -85 10.5t-19 101.5q9 52 42.5 79.5t78.5 27.5q59 0 82.5 -47 t9.5 -125q-8 -43 -26 -87t-48.5 -90t-78.5 -80t-107 -44z" />
<glyph unicode="&#x201e;" horiz-adv-x="690" d="M-49 -262l10 106q50 10 88 50.5t53 97.5q-54 -21 -86.5 10.5t-19.5 101.5q10 52 44 79.5t79 27.5q59 0 82 -47t8 -125q-8 -43 -26 -87t-47.5 -90t-77.5 -80t-107 -44zM254 -262l10 106q50 10 88.5 51t53.5 97q-54 -21 -87 10.5t-20 101.5q10 52 44 79.5t79 27.5 q59 0 82 -47t8 -125q-8 -43 -26 -87t-47.5 -90t-77.5 -80t-107 -44z" />
<glyph unicode="&#x2022;" horiz-adv-x="610" d="M88 668q19 99 97 166t184 67q115 0 171 -74.5t35 -183.5q-21 -100 -98 -166.5t-184 -66.5q-114 0 -170.5 75t-34.5 183z" />
<glyph unicode="&#x2026;" horiz-adv-x="1050" d="M2 111q9 45 43.5 72.5t79.5 27.5q52 0 80 -35t18 -90q-9 -46 -44 -73t-79 -27q-53 0 -80.5 34.5t-17.5 90.5zM330 111q9 45 43.5 72.5t79.5 27.5q52 0 80 -35t18 -90q-9 -46 -44 -73t-79 -27q-53 0 -80.5 34.5t-17.5 90.5zM657 111q9 45 43.5 72.5t79.5 27.5 q52 0 80.5 -35t18.5 -90q-9 -46 -44 -73t-79 -27q-53 0 -81 34.5t-18 90.5z" />
<glyph unicode="&#x202f;" horiz-adv-x="394" />
<glyph unicode="&#x2039;" horiz-adv-x="497" d="M80 424l33 184l346 234l-31 -164l-244 -160l-2 -4l180 -160l-28 -164z" />
<glyph unicode="&#x203a;" horiz-adv-x="503" d="M37 190l29 164l245 160v4l-180 160l31 164l252 -234l-33 -184z" />
<glyph unicode="&#x205f;" horiz-adv-x="493" />
<glyph unicode="&#x20ac;" horiz-adv-x="1280" d="M61 512l23 123h121q1 21 10 80q8 46 8 49h-117l25 123h129q87 256 253 400.5t380 144.5q110 0 192.5 -38t130 -105.5t68.5 -154t14 -188.5h-180q0 50 -3.5 88t-17.5 84.5t-38.5 77t-70 51.5t-107.5 21q-79 0 -148.5 -30t-123.5 -84t-94.5 -120.5t-70.5 -146.5h408 l-25 -123h-417q-14 -53 -17 -74q-1 -4 -2.5 -15t-3 -21t-2.5 -19h420l-23 -123h-407q-6 -173 57 -275t209 -102q82 0 150 32t114.5 87.5t77 116.5t49.5 131h182q-73 -250 -222 -390.5t-365 -140.5q-217 0 -331 146.5t-103 394.5h-132z" />
<glyph unicode="&#x2122;" horiz-adv-x="1286" d="M215 1368l18 96h484l-19 -96h-184l-90 -469h-115l90 469h-184zM684 899l109 565h163l45 -426l213 426h166l-108 -565h-107l82 428h-2l-215 -428h-108l-45 428h-7l-82 -428h-104z" />
<glyph unicode="&#x25fc;" horiz-adv-x="1044" d="M0 0v1044h1044v-1044h-1044z" />
</font>
</defs>
</svg>
