<?xml version="1.0" standalone="no"?>
<!DOCTYPE svg PUBLIC "-//W3C//DTD SVG 1.1//EN" "http://www.w3.org/Graphics/SVG/1.1/DTD/svg11.dtd" >
<svg xmlns="http://www.w3.org/2000/svg" xmlns:xlink="http://www.w3.org/1999/xlink" version="1.1">
<metadata></metadata>
<defs>
<font id="neue_montrealbold_italic" horiz-adv-x="1417" >
<font-face units-per-em="2048" ascent="1577" descent="-471" />
<missing-glyph horiz-adv-x="348" />
<glyph horiz-adv-x="0" />
<glyph horiz-adv-x="682" />
<glyph unicode=" "  horiz-adv-x="348" />
<glyph unicode="&#x09;" horiz-adv-x="348" />
<glyph unicode="&#xa0;" horiz-adv-x="348" />
<glyph unicode="!" horiz-adv-x="536" d="M25 174q13 70 65 113t119 43q81 0 127 -54t29 -139q-13 -70 -66 -112.5t-119 -42.5q-83 0 -127.5 53t-27.5 139zM178 479l39 666l59 319h349l-60 -319l-223 -666h-164z" />
<glyph unicode="&#x22;" horiz-adv-x="858" d="M193 913l67 551h287l-150 -551h-204zM602 913l68 551h286l-149 -551h-205z" />
<glyph unicode="#" horiz-adv-x="1259" d="M16 305l101 246h155l101 252h-156l102 246h156l150 366h249l-149 -366h184l150 366h250l-150 -366h146l-103 -246h-145l-101 -252h144l-99 -246h-147l-125 -305h-250l125 305h-184l-125 -305h-250l125 305h-154zM522 551h185l100 252h-184z" />
<glyph unicode="$" horiz-adv-x="1247" d="M6 453h344q5 -55 19 -92.5t38 -58.5t45.5 -30.5t55.5 -17.5l63 311q-237 61 -344.5 187t-70.5 317q34 174 185 266t386 101l33 120h123l-35 -124q210 -21 315 -137.5t105 -307.5h-342q6 115 -121 158l-62 -281q91 -31 156 -61.5t125 -74t93.5 -95t49 -123.5t4.5 -160 q-15 -119 -97.5 -205.5t-207 -129.5t-282.5 -48l-31 -178h-123l33 182q-206 18 -323.5 148.5t-133.5 333.5zM502 1040q-9 -49 21 -81.5t106 -59.5l55 254q-161 -10 -182 -113zM631 248q173 10 194 114q11 63 -23.5 100.5t-115.5 65.5z" />
<glyph unicode="%" horiz-adv-x="1755" d="M129 1055q35 171 147 282t287 111q98 0 168 -34.5t104.5 -93t46.5 -137t-8 -165.5q-33 -170 -143.5 -280.5t-286.5 -110.5q-128 0 -208.5 59.5t-105 154.5t-1.5 214zM295 0l1020 1415h211l-1018 -1415h-213zM385.5 862.5q16.5 -51.5 73.5 -51.5q66 0 97.5 52t55.5 171 q16 82 13.5 133.5t-21.5 74t-57 22.5q-66 0 -99 -53.5t-57 -172.5q-22 -124 -5.5 -175.5zM937.5 262q-1.5 63 10.5 133q33 171 145 282t287 111q78 0 139.5 -22.5t99 -62t60 -93.5t24 -117.5t-10.5 -134.5q-33 -170 -143.5 -280.5t-286.5 -110.5q-78 0 -139 22.5t-99 62 t-61.5 93.5t-25 117zM1204 203q17 -51 74 -51q66 0 97 51.5t55 171.5q24 125 8.5 177t-72.5 52q-66 0 -99 -53t-57 -172q-23 -125 -6 -176z" />
<glyph unicode="&#x26;" horiz-adv-x="1411" d="M10 379q12 63 41.5 117t64 92t89 76.5t98 62.5t111.5 57q-66 110 -84 156q-36 97 -15 203q13 67 53 129.5t101 112.5t148 80.5t186 31.5q102 1 183.5 -32.5t129 -88.5t67 -125.5t5.5 -144.5q-21 -114 -108.5 -193.5t-262.5 -160.5l150 -220q70 78 108 193h291 q-65 -233 -248 -434l193 -291h-402l-47 78q-190 -111 -405 -111q-252 0 -367 115t-80 297zM365 408q-13 -70 22.5 -115t124.5 -45q100 0 203 49l-191 311q-139 -89 -159 -200zM610 1085q-5 -26 5.5 -55.5t24 -50.5t46.5 -66q91 54 139.5 103t59.5 106q8 41 -13.5 68 t-80.5 27q-72 0 -121 -38.5t-60 -93.5z" />
<glyph unicode="'" horiz-adv-x="448" d="M197 913l67 551h287l-150 -551h-204z" />
<glyph unicode="(" horiz-adv-x="667" d="M102 301q-7 183 31 367q50 261 170 502.5t262 414.5l293 -16q-293 -465 -385 -938q-93 -477 16 -920l-274 17q-48 112 -77 251t-36 322z" />
<glyph unicode=")" horiz-adv-x="681" d="M-133 -272q294 462 387 940q91 467 -16 917l274 -16q35 -83 60.5 -180.5t41.5 -216.5t11.5 -259.5t-31.5 -281.5q-49 -253 -171 -501t-261 -419z" />
<glyph unicode="*" horiz-adv-x="876" d="M166 1110l98 195l205 -91l49 250h205l-49 -250l231 91l27 -195l-242 -59l111 -197l-183 -121l-94 207l-176 -207l-149 121l180 197z" />
<glyph unicode="+" horiz-adv-x="1155" d="M80 532l55 283h357l71 371h283l-72 -371h356l-55 -283h-356l-72 -370h-282l71 370h-356z" />
<glyph unicode="," horiz-adv-x="497" d="M-74 -344l8 147q76 10 142.5 66t87.5 121q-90 -6 -138 44.5t-30 139.5q13 73 67 114.5t125 41.5q100 0 139.5 -70.5t14.5 -193.5q-32 -171 -141.5 -279.5t-274.5 -130.5z" />
<glyph unicode="-" horiz-adv-x="684" d="M33 377l55 280h557l-55 -280h-557z" />
<glyph unicode="." horiz-adv-x="477" d="M-4 174q13 70 65 113t119 43q81 0 127 -54t29 -139q-13 -70 -65.5 -112.5t-118.5 -42.5q-83 0 -128 53t-28 139z" />
<glyph unicode="/" horiz-adv-x="892" d="M-51 0l852 1464h272l-852 -1464h-272z" />
<glyph unicode="0" horiz-adv-x="1323" d="M57 525.5q1 95.5 21 199.5q29 150 91 278.5t153 229t219.5 158t279.5 57.5q106 0 192.5 -27.5t146.5 -78t100.5 -120t58.5 -154.5t17 -180.5t-21 -199.5q-24 -119 -67 -225t-109 -197.5t-148.5 -157.5t-189.5 -103.5t-228 -37.5q-106 0 -192.5 27.5t-146.5 77.5 t-101 119.5t-59 154t-17 180zM396.5 454q1.5 -98 48.5 -152t143 -54q156 0 249 123.5t136 353.5q25 136 24 234.5t-48 153t-142 54.5q-296 0 -387 -479q-25 -136 -23.5 -234z" />
<glyph unicode="1" horiz-adv-x="808" d="M111 874l28 246q97 0 175.5 25.5t129 69t81.5 96t42 112.5h287l-276 -1423h-349l193 950q-42 -36 -98 -54t-92 -20t-102 -2h-19z" />
<glyph unicode="2" horiz-adv-x="1196" d="M-57 8q16 85 49 159t80.5 134.5t93 105t104.5 91.5q69 47 172.5 111t164 103.5t126 90.5t100.5 101.5t46 107.5q15 72 -25 113.5t-117 41.5q-220 0 -274 -260h-326q51 257 212 399t433 142q239 0 361.5 -120.5t81.5 -328.5q-20 -102 -80 -193.5t-147 -165t-170 -130.5 t-182.5 -121.5t-151.5 -107.5h591l-55 -281z" />
<glyph unicode="3" horiz-adv-x="1218" d="M31 492h323q-49 -244 211 -244q113 0 175 45.5t75 122.5q17 96 -36 143t-177 47h-82l47 240h54q233 0 270 174q15 68 -30 107.5t-126 39.5q-93 0 -160.5 -46t-87.5 -132h-323q41 207 204 333t408 126q150 0 263.5 -47t171 -141t32.5 -220q-39 -194 -250 -295l-22 -2 q241 -81 184 -364q-25 -131 -110.5 -225t-211 -140.5t-278.5 -46.5q-304 0 -440 139.5t-84 385.5z" />
<glyph unicode="4" horiz-adv-x="1273" d="M-4 299l61 342l793 774h352l-164 -835h209l-53 -281h-209l-59 -299h-348l59 299h-641zM330 580h360l92 440z" />
<glyph unicode="5" horiz-adv-x="1222" d="M8 430h342q-6 -79 48.5 -130.5t154.5 -51.5q108 0 181 58t97 181q21 105 -25 169.5t-161 64.5q-67 0 -130.5 -29.5t-100.5 -81.5h-334l319 805h897l-55 -280h-655l-103 -261q136 87 295 87q219 0 329 -143.5t64 -377.5q-23 -121 -81.5 -213t-142 -148t-185 -84 t-217.5 -28q-149 0 -261 35.5t-177 98t-90.5 146.5t-8.5 183z" />
<glyph unicode="6" horiz-adv-x="1245" d="M54 520q3 89 22 187q72 366 265 553.5t466 187.5q209 0 337 -110t130 -273h-342q0 49 -31 86t-110 37q-131 0 -216.5 -92.5t-121.5 -247.5q148 117 340 117q148 0 251.5 -66t144.5 -179t15 -253q-44 -228 -215 -364t-418 -136q-116 0 -207 28t-150 79.5t-97 120 t-52 152.5t-11 173zM375 469q-20 -101 34.5 -171.5t172.5 -70.5q108 0 192 65t105 173q20 99 -34.5 169.5t-170.5 70.5q-109 0 -193.5 -64.5t-105.5 -171.5z" />
<glyph unicode="7" horiz-adv-x="1114" d="M154 1135l55 280h1036l-43 -266q-263 -185 -435.5 -494t-242.5 -655h-364q65 341 248 656.5t405 478.5h-659z" />
<glyph unicode="8" horiz-adv-x="1234" d="M14 424q47 229 322 342l22 4q-192 113 -153 313q22 113 106 197t205.5 126t263.5 42q152 0 265.5 -46.5t169.5 -139t32 -215.5q-21 -102 -88 -169.5t-162 -115.5l-20 -4q39 -19 71.5 -42t63.5 -56.5t48 -72.5t25.5 -90t-5.5 -110q-27 -136 -123 -232.5t-230.5 -142 t-294.5 -45.5q-170 0 -295.5 50.5t-188 155.5t-34.5 251zM367 440q-19 -94 36.5 -153.5t159.5 -59.5q113 0 188 62t91 147q17 91 -39 150t-160 59q-113 0 -187 -61.5t-89 -143.5zM502 1038q-15 -82 35 -131t149 -49q108 0 172.5 51t77.5 123q15 78 -34.5 127t-147.5 49 q-107 0 -172.5 -51t-79.5 -119z" />
<glyph unicode="9" horiz-adv-x="1257" d="M53 350h342q0 -21 6 -40.5t20 -39t44 -31.5t72 -12q131 0 216 92.5t121 247.5q-147 -116 -339 -116q-224 0 -338 141.5t-74 355.5q44 228 215 364t418 136q116 0 207 -28t150 -79.5t97 -119.5t52 -152t11 -173t-22 -187q-72 -366 -265.5 -554t-465.5 -188 q-209 0 -337 110t-130 273zM449 950q-20 -99 34 -169t170 -70q110 0 194 64t105 171q20 101 -34.5 171.5t-172.5 70.5q-108 0 -191.5 -65t-104.5 -173z" />
<glyph unicode=":" horiz-adv-x="487" d="M0 174q13 70 65 113t119 43q81 0 127 -54t29 -139q-13 -70 -65.5 -112.5t-118.5 -42.5q-83 0 -128 53t-28 139zM123 809q13 70 65 113t119 43q81 0 127 -54t31 -139q-15 -71 -66.5 -113.5t-117.5 -42.5q-84 0 -129.5 53.5t-28.5 139.5z" />
<glyph unicode=";" horiz-adv-x="507" d="M-70 -344l9 147q76 10 142 66t87 121q-90 -6 -138 44.5t-30 139.5q13 73 67 114.5t126 41.5q100 0 139 -70.5t14 -193.5q-32 -171 -141.5 -279.5t-274.5 -130.5zM133 809q13 70 65 113t119 43q81 0 127 -54t31 -139q-15 -71 -66.5 -113.5t-117.5 -42.5q-84 0 -129.5 53.5 t-28.5 139.5z" />
<glyph unicode="&#x3c;" horiz-adv-x="1024" d="M82 479l57 307l914 353l-54 -281l-614 -223l4 -4l520 -223l-51 -281z" />
<glyph unicode="=" horiz-adv-x="1146" d="M45 276l55 281h959l-55 -281h-959zM131 711l53 280h959l-53 -280h-959z" />
<glyph unicode="&#x3e;" horiz-adv-x="1024" d="M16 127l52 281l614 223l-4 4l-520 223l53 281l774 -353l-57 -307z" />
<glyph unicode="?" horiz-adv-x="1118" d="M115 1018q15 216 181 347.5t441 131.5q220 0 348 -125t103 -311q-14 -110 -86.5 -176.5t-204.5 -118.5q-69 -27 -113 -55t-70.5 -63.5t-39.5 -70t-25 -90.5h-262q0 54 0.5 78t5 66t15 65.5t29.5 55.5t49 59t73 55q36 23 92.5 52.5t89.5 47t62.5 48t36.5 67.5 q10 58 -35 97t-121 39q-93 0 -151.5 -51.5t-73.5 -147.5h-344zM326 174q13 70 65 113t119 43q81 0 127 -54t29 -139q-13 -70 -66 -112.5t-119 -42.5q-83 0 -127.5 53t-27.5 139z" />
<glyph unicode="@" horiz-adv-x="1839" d="M78 639q33 169 126.5 320.5t227.5 263t308.5 176.5t361.5 65q119 0 222 -22.5t180.5 -64t139 -100t99 -129.5t60 -152.5t21 -170.5t-17.5 -182q-94 -481 -487 -481q-111 0 -204 48.5t-120 125.5l-8 -17q-46 -75 -106 -112t-148 -37q-146 0 -221 120.5t-35 332.5 q39 198 162 317t268 119q96 0 142.5 -39t66.5 -107l8 9l39 122h283l-168 -522q-30 -104 -15 -140t70 -36q100 0 172 82.5t103 245.5q18 79 13 155t-24 143t-61.5 123.5t-101 97.5t-142 64t-184.5 23q-192 0 -366.5 -91.5t-292 -246.5t-154.5 -340q-57 -297 73 -468t423 -171 q200 0 387 70l55 -170q-104 -50 -208 -67t-230 -17q-271 0 -451 107.5t-248 301.5t-18 451zM734 480q-1 -38 17.5 -61.5t57.5 -23.5q189 0 240 269q19 85 2.5 127.5t-76.5 42.5q-79 0 -143.5 -71t-88.5 -198q-8 -47 -9 -85z" />
<glyph unicode="A" d="M-109 0l816 1464h368l244 -1464h-363l-34 305h-502l-154 -305h-375zM557 586h336l-62 540h-4z" />
<glyph unicode="B" horiz-adv-x="1355" d="M-6 0l285 1464h700q231 0 334 -97q75 -71 76 -193q0 -45 -11 -97q-43 -221 -272 -295l-23 -4q124 -22 190 -112q45 -62 45 -158q0 -43 -9 -94q-81 -414 -574 -414h-741zM422 301h254q121 0 189 43.5t89 149.5q5 27 5 48q0 52 -30 74q-43 31 -165 31h-275zM532 872h244 q194 0 228 164q4 21 4 37q0 46 -28 65q-38 25 -126 25h-264z" />
<glyph unicode="C" horiz-adv-x="1411" d="M57 496q-1 20 -1 42q0 101 20 214q31 162 101.5 298t175 235.5t247.5 155.5t309 56q150 0 263 -43.5t179.5 -122.5t94.5 -185q20 -74 19 -160q0 -37 -3 -75h-362v17q0 131 -45 197q-48 71 -178 71q-348 0 -441 -481q-16 -83 -20 -149q-1 -16 0 -31q0 -48 8 -92 q11 -57 38.5 -94.5t75.5 -59t117 -21.5q267 0 369 273h369q-78 -267 -266.5 -420.5t-473.5 -153.5q-139 0 -250 38t-183 107.5t-115 167.5t-48 216z" />
<glyph unicode="D" horiz-adv-x="1427" d="M-6 0l285 1464h639q310 0 448 -196q93 -132 92 -337q0 -100 -22 -218q-68 -347 -262.5 -530t-499.5 -183h-680zM422 301h233q167 0 272 118t146 331q17 87 17 157q0 90 -29 150q-52 106 -217 106h-254z" />
<glyph unicode="E" horiz-adv-x="1280" d="M-6 0l285 1464h1110l-58 -301h-741l-51 -260h639l-60 -301h-639l-57 -301h754l-60 -301h-1122z" />
<glyph unicode="F" horiz-adv-x="1228" d="M-6 0l285 1464h1089l-57 -301h-721l-64 -321h588l-57 -301h-588l-107 -541h-368z" />
<glyph unicode="G" horiz-adv-x="1488" d="M76 752q31 162 101.5 298t175 235.5t246.5 155.5t308 56q150 0 266 -42.5t185 -115.5t102 -167q26 -77 26 -163q0 -19 -1 -38l-363 16q-3 43 -13.5 76t-34.5 65t-72 50t-117 18q-182 0 -294 -128.5t-155 -352.5q-18 -87 -18 -161v-21q3 -82 28 -141t83.5 -91.5 t148.5 -32.5q133 0 235 72.5t127 179.5l-280 -8l51 266h659l-151 -778h-262v186l-4 -8q-149 -211 -447 -211q-209 0 -345 102t-183 279q-23 91 -23 195q0 99 21 209z" />
<glyph unicode="H" horiz-adv-x="1433" d="M-6 0l285 1464h368l-110 -573h501l111 573h369l-285 -1464h-369l115 590h-502l-115 -590h-368z" />
<glyph unicode="I" horiz-adv-x="567" d="M-4 0l285 1464h368l-284 -1464h-369z" />
<glyph unicode="J" horiz-adv-x="1107" d="M-4 358q2 64 16 138l23 114h327l-24 -131q-15 -59 -15 -102q0 -33 9 -55q19 -54 98 -54q94 0 144.5 58.5t72.5 169.5l189 968h368l-190 -985q-18 -90 -44 -162.5t-72 -139.5t-108 -112t-153 -71.5t-205 -26.5q-101 0 -178 19t-126 55.5t-80 83.5t-42 109q-10 52 -10 106 v18z" />
<glyph unicode="K" horiz-adv-x="1411" d="M-6 0l285 1464h368l-119 -594l625 594h438l-686 -645l414 -819h-422l-270 555l-185 -168l-80 -387h-368z" />
<glyph unicode="L" horiz-adv-x="1146" d="M-6 0l285 1464h368l-225 -1163h651l-59 -301h-1020z" />
<glyph unicode="M" horiz-adv-x="1708" d="M-6 0l285 1464h448l119 -934h4l483 934h453l-285 -1464h-348l178 911h-2l-448 -911h-258l-97 911h-6l-178 -911h-348z" />
<glyph unicode="N" horiz-adv-x="1447" d="M-6 0l285 1464h364l344 -870h8l168 870h369l-285 -1464h-364l-342 870h-9l-170 -870h-368z" />
<glyph unicode="O" horiz-adv-x="1509" d="M76 752q31 162 104 298t180 235.5t252 155.5t312 56q230 0 381 -102t204 -278q29 -96 29 -207q0 -92 -20 -195q-32 -162 -105.5 -299t-181 -237t-252.5 -156t-311 -56q-232 0 -382 103q-150 102 -202 278q-28 95 -28 205q0 94 20 199zM436 715q-17 -90 -17 -163 q0 -284 267 -284q100 0 182 37.5t138 105.5t93 152.5t58 188.5q15 76 17 140v16q0 56 -12 106q-14 58 -43.5 97t-83 62t-128.5 23q-101 0 -183.5 -37.5t-138.5 -105t-92.5 -151.5t-56.5 -187z" />
<glyph unicode="P" horiz-adv-x="1331" d="M-6 0l285 1464h700q233 0 345 -126q80 -90 80 -234q0 -58 -13 -125q-42 -220 -191 -334.5t-381 -114.5h-352l-105 -530h-368zM524 831h254q214 0 252 185q4 21 4 39q0 51 -30 75q-40 32 -140 33h-274z" />
<glyph unicode="Q" horiz-adv-x="1472" d="M48 496q-1 24 -1 49q0 97 19 207q31 162 103.5 298t179.5 235.5t252 155.5t312 56q230 0 381 -102t204 -278q29 -96 29 -207q0 -92 -20 -195q-61 -301 -239 -488l125 -147l-230 -199l-137 166q-171 -80 -369 -80q-140 0 -252.5 38t-186.5 107.5t-119 167.5t-51 216z M426 715q-17 -90 -17 -163q0 -284 267 -284q76 0 147 23l-137 176l229 199l144 -164q58 105 88 250q15 76 17 140v16q0 55 -12 106q-13 57 -43 96.5t-83.5 62.5t-128.5 23q-101 0 -183.5 -37.5t-138.5 -105t-92.5 -151.5t-56.5 -187z" />
<glyph unicode="R" horiz-adv-x="1327" d="M-6 0l285 1464h679q248 0 368 -116q89 -86 90 -226q0 -48 -11 -102q-27 -136 -118 -223.5t-232 -118.5l-25 -4q72 -13 117.5 -54.5t61.5 -98.5t19 -123q1 -20 0 -40q0 -46 -4 -92q-7 -64 -14 -118q-6 -47 -7 -80q0 -6 1 -10q1 -36 17 -40l6 -18l-373 6q-12 12 -12 44 q0 26 6 60q6 36 13 81.5t11 89.5q2 19 2 37q0 24 -3 48q-6 42 -22 74t-53.5 51t-93.5 19h-239l-101 -510h-368zM520 811h240q234 0 274 195q4 21 4 40q0 54 -33 80q-44 36 -155 37h-260z" />
<glyph unicode="S" horiz-adv-x="1288" d="M0 473h365q0 -74 42 -122t102.5 -65.5t137.5 -17.5q203 0 217 135q3 30 -7 53.5t-26 38.5t-49 30.5t-61 24.5t-79.5 26t-86.5 30q-82 30 -141.5 58.5t-116.5 70.5t-89.5 90.5t-47.5 116.5q-9 39 -9 83q0 32 5 67q15 105 68 184.5t135.5 127t182.5 70.5t218 23 q262 0 414.5 -128t152.5 -341h-362v7q-1 75 -59 117q-62 44 -163 44q-95 0 -155.5 -28.5t-67.5 -86.5q-1 -7 -1 -14q0 -49 43 -79q49 -34 183 -85q199 -77 270 -115q142 -78 189 -190q29 -69 29 -160q0 -23 -2 -47q-13 -203 -173.5 -313.5t-430.5 -110.5 q-292 0 -459.5 136.5t-167.5 369.5z" />
<glyph unicode="T" horiz-adv-x="1277" d="M154 1163l57 301h1219l-58 -301h-424l-227 -1163h-369l228 1163h-426z" />
<glyph unicode="U" horiz-adv-x="1400" d="M88 537l180 927h369l-182 -944q-11 -56 -12 -98q0 -64 26 -98q42 -56 160 -56q132 0 210 64.5t105 204.5l180 927h369l-182 -944q-55 -281 -220 -417t-481 -136q-332 0 -454 144q-85 100 -85 266q0 74 17 160z" />
<glyph unicode="V" horiz-adv-x="1331" d="M178 1464h385l78 -1026h4l477 1026h396l-760 -1464h-389z" />
<glyph unicode="W" horiz-adv-x="1931" d="M180 1464h365l-4 -993h4l420 993h348l35 -993h4l381 993h372l-657 -1464h-369l-41 913h-4l-397 -913h-369z" />
<glyph unicode="X" horiz-adv-x="1398" d="M-109 0l635 748l-301 716h381l182 -446l361 446h397l-585 -712l333 -752h-401l-199 475l-385 -475h-418z" />
<glyph unicode="Y" horiz-adv-x="1345" d="M180 1464h381l168 -602h2l406 602h397l-674 -923l-108 -541h-369l109 541z" />
<glyph unicode="Z" horiz-adv-x="1239" d="M-55 0l55 301l836 858l6 4h-629l57 301h1080l-56 -301l-835 -858l-4 -4h690l-60 -301h-1140z" />
<glyph unicode="[" horiz-adv-x="804" d="M-41 -281l360 1858h629l-55 -281h-281l-252 -1296h281l-53 -281h-629z" />
<glyph unicode="\" horiz-adv-x="831" d="M180 1464h260l283 -1464h-260z" />
<glyph unicode="]" horiz-adv-x="806" d="M-92 -281l53 281h281l252 1296h-281l55 281h629l-360 -1858h-629z" />
<glyph unicode="^" horiz-adv-x="952" d="M82 901l450 563h246l234 -563h-299l-105 277h-2l-209 -277h-315z" />
<glyph unicode="_" horiz-adv-x="880" d="M-184 -393l55 280h893l-55 -280h-893z" />
<glyph unicode="`" horiz-adv-x="958" d="M352 1475h363l33 -287h-240z" />
<glyph unicode="a" horiz-adv-x="1122" d="M-16 303q25 130 134 204t308 120l39 9l58.5 13.5t52.5 13.5t51 16t42 18t36.5 22t23.5 25.5t14 31.5q2 9 2 17q-1 27 -21 43q-26 20 -85 20q-181 0 -229 -154h-306q39 174 171.5 276.5t369.5 102.5q239 -1 341 -107q71 -74 70 -210q0 -61 -14 -135l-94 -482 q-7 -41 0.5 -55t36.5 -14l-16 -82q-57 -29 -164 -29q-101 -1 -143 37q-41 36 -41 91v5q-64 -59 -155 -96t-183 -37q-171 0 -250 91q-57 66 -57 165q0 38 8 80zM311 313q-2 -12 -2 -24q0 -39 24 -63q31 -32 85 -33q105 0 167 56.5t85 141.5l30 125q-48 -29 -168 -53 q-107 -23 -159.5 -58.5t-61.5 -91.5z" />
<glyph unicode="b" horiz-adv-x="1202" d="M-25 0l285 1464h328l-96 -508q47 48 131 86.5t178 38.5q218 1 317 -155q65 -102 65 -251q0 -78 -18 -169q-49 -250 -194 -394.5t-346 -144.5q-109 0 -184 46.5t-105 99.5l-12 -9l-21 -104h-328zM408 506q-12 -63 -12 -112q0 -65 20 -107q36 -74 129 -74q109 0 189 85.5 t112 244.5q12 63 12 112q0 65 -20 107q-36 74 -129 74q-109 0 -189 -85.5t-112 -244.5z" />
<glyph unicode="c" horiz-adv-x="1091" d="M35 543q46 239 215 388.5t401 149.5q229 0 347 -121q104 -107 104 -267q0 -22 -2 -44h-316q1 12 1 24q0 163 -144 163q-108 0 -182 -86.5t-105 -243.5q-12 -59 -12 -107q0 -65 22 -109q38 -77 134 -77q168 0 233 174h320q-48 -189 -200.5 -304.5t-367.5 -115.5 q-254 0 -376 160q-87 113 -87 275q0 67 15 141z" />
<glyph unicode="d" horiz-adv-x="1202" d="M37 543q49 250 194.5 394t346.5 144q109 0 183.5 -46t104.5 -99l13 8l100 520h328l-285 -1464h-328l17 92q-46 -48 -131 -86.5t-179 -38.5q-218 0 -317 156q-65 102 -65 251q0 78 18 169zM356 506q-12 -62 -12 -111q0 -65 21 -108q36 -74 129 -74q109 0 189 85.5 t112 244.5q12 62 12 111q0 65 -21 108q-36 74 -129 74q-109 0 -189 -85.5t-112 -244.5z" />
<glyph unicode="e" horiz-adv-x="1134" d="M35 580q48 233 211 367t405 134q109 0 194.5 -31t140.5 -87.5t87.5 -136t34.5 -176.5q0 -9 1 -18q0 -89 -19 -190h-754q-5 -29 -5 -55q-1 -71 41 -115q56 -58 146 -59q86 0 141.5 35t63.5 78h330q-75 -174 -214 -266.5t-341 -92.5q-176 0 -294 79q-118 78 -162 217 q-24 75 -24 162q0 73 17 155zM375 627h430q6 34 6 63q1 70 -33 110q-46 56 -139 56q-102 0 -172 -60t-92 -169z" />
<glyph unicode="f" horiz-adv-x="712" d="M72 0l155 803h-155l49 246h155l15 79q19 93 44 156t65.5 109.5t101 68t145.5 21.5q100 0 209 -23l-27 -243q-47 0 -74.5 -2t-55 -9t-42.5 -21.5t-27 -38.5t-20 -61l-6 -36h182l-49 -246h-182l-156 -803h-327z" />
<glyph unicode="g" horiz-adv-x="1163" d="M-55 -31h319q21 -47 59 -71.5t111 -24.5q113 0 166.5 61t81.5 199l6 41q-49 -51 -124 -88t-169 -37q-137 0 -229 68.5t-124 189.5q-17 63 -17 135q0 67 14 142q43 222 183.5 359.5t332.5 137.5q58 0 106.5 -14.5t80.5 -38t51.5 -46t33.5 -46.5l13 8l20 105h328l-187 -955 q-49 -250 -185.5 -353t-377.5 -103q-99 0 -180 20t-134.5 52.5t-92.5 76.5t-58.5 89t-27.5 93zM358 567q-10 -54 -10 -98q0 -59 18 -101q32 -73 121 -73q106 0 178 76.5t99 212.5q11 54 11 97q0 155 -140 155q-109 0 -180 -68t-97 -201z" />
<glyph unicode="h" horiz-adv-x="1163" d="M-27 0l285 1464h328l-111 -567l2 8q136 176 344 176q175 0 257 -101q58 -72 58 -182q0 -46 -10 -98l-137 -700h-327l118 612q11 57 11 97q0 41 -12 63q-24 43 -107 43q-91 0 -162 -56.5t-92 -160.5l-117 -598h-328z" />
<glyph unicode="i" horiz-adv-x="483" d="M-27 0l205 1049h328l-205 -1049h-328zM233 1337q12 61 58 94t110 33q79 0 123 -44q34 -34 34 -87q0 -16 -3 -33q-13 -62 -58.5 -94t-109.5 -32q-80 0 -124 43q-33 33 -33 85q0 16 3 35z" />
<glyph unicode="j" horiz-adv-x="499" d="M-248 -338l27 244q48 0 74.5 2t54.5 8.5t42.5 20.5t26.5 37t19 59l199 1016h327l-207 -1057q-18 -93 -42.5 -155.5t-65 -109t-101 -68t-145.5 -21.5q-95 0 -209 24zM250 1337q12 61 58 94t110 33q79 0 122 -44q34 -34 34 -87q0 -16 -3 -33q-13 -62 -58.5 -94t-109.5 -32 q-80 0 -123 43q-33 33 -33 85q0 16 3 35z" />
<glyph unicode="k" horiz-adv-x="1130" d="M-27 0l285 1464h328l-154 -770l377 355h399l-452 -394l282 -655h-381l-161 418l-131 -109l-64 -309h-328z" />
<glyph unicode="l" horiz-adv-x="485" d="M-25 0l285 1464h328l-285 -1464h-328z" />
<glyph unicode="m" horiz-adv-x="1773" d="M-27 0l205 1049h328l-31 -152l2 8q59 77 150 126.5t196 49.5q106 0 172 -53t84 -139l2 14q95 89 178.5 133.5t194.5 44.5q166 -1 242 -101q52 -69 52 -176q0 -48 -11 -104l-138 -700h-331l118 612q15 69 15 113q1 29 -7 47q-18 42 -96 43q-88 0 -150 -55.5t-83 -161.5 l-117 -598h-327l118 612q15 69 15 113q0 29 -8 47q-18 42 -95 43q-87 0 -149.5 -55.5t-83.5 -161.5l-117 -598h-328z" />
<glyph unicode="n" horiz-adv-x="1163" d="M-27 0l205 1049h328l-31 -152l2 8q136 176 363 176q162 1 240 -101q55 -71 56 -181q0 -46 -10 -99l-137 -700h-327l118 612q11 56 11 95q-1 42 -13 64q-24 44 -100 44q-103 0 -171 -55t-89 -162l-117 -598h-328z" />
<glyph unicode="o" horiz-adv-x="1175" d="M18 289q-9 43 -9 90q0 60 14 127q50 256 239 415.5t455 159.5q249 0 365 -149q83 -106 82 -258q0 -62 -13 -131q-50 -256 -238.5 -416t-453.5 -160q-125 0 -220 40t-148 111.5t-73 170.5zM358 298q42 -85 162 -85q101 0 177.5 75t115.5 218q22 81 22 143q-1 60 -21 102 q-42 85 -159 85q-102 0 -179 -75t-116 -218q-22 -81 -22 -143q-1 -60 20 -102z" />
<glyph unicode="p" horiz-adv-x="1202" d="M-94 -362l274 1411h328l-16 -93q47 48 131 86.5t178 38.5q218 0 317 -155q65 -102 65 -251q0 -78 -18 -169q-49 -250 -194 -394.5t-346 -144.5q-109 0 -184 46.5t-105 99.5l-12 -9l-91 -466h-327zM408 506q-12 -63 -12 -112q0 -65 20 -107q36 -74 129 -74q109 0 189 85.5 t112 244.5q12 63 12 112q0 65 -20 107q-36 74 -129 74q-109 0 -189 -85.5t-112 -244.5z" />
<glyph unicode="q" horiz-adv-x="1202" d="M37 543q49 250 194.5 394t346.5 144q109 0 183.5 -46t104.5 -99l13 8l20 105h328l-275 -1411h-327l86 454q-46 -48 -131 -86.5t-179 -38.5q-218 0 -317 156q-65 102 -65 251q0 78 18 169zM356 506q-12 -62 -12 -111q0 -66 21 -108q36 -74 129 -74q109 0 189 85.5 t112 244.5q12 62 12 111q0 66 -21 108q-36 74 -129 74q-109 0 -189 -85.5t-112 -244.5z" />
<glyph unicode="r" horiz-adv-x="786" d="M-27 0l205 1049h328l-35 -172l2 8q55 88 127 135t150 47q52 0 98 -10l-47 -281q-23 3 -46 3q-39 0 -79 -9q-64 -15 -121.5 -50.5t-100.5 -98.5t-59 -142l-94 -479h-328z" />
<glyph unicode="s" horiz-adv-x="1032" d="M-18 340h303q-1 -10 -1 -18q0 -61 42 -93q48 -36 141 -36q78 0 121 27.5t43 80.5q0 16 -4 27.5t-14.5 21.5t-21.5 16.5t-33 14t-39.5 13t-50.5 15t-58 17.5q-76 24 -128.5 47.5t-101.5 58.5t-73.5 82.5t-24.5 108.5q0 165 130 261.5t333 96.5q106 0 188.5 -20t133.5 -53 t83.5 -79t45 -93t12.5 -101h-301v10q0 53 -41 81q-45 30 -121 30q-137 0 -137 -82q0 -41 32 -60t132 -50q16 -4 24 -7q63 -20 110.5 -39t97 -47.5t81 -61t51.5 -78t20 -99.5q0 -184 -129.5 -274.5t-351.5 -90.5q-112 0 -198.5 20t-141.5 54t-90 83t-49 101.5t-14 114.5z" />
<glyph unicode="t" horiz-adv-x="716" d="M74 803l49 246h145l58 292h327l-57 -292h182l-49 -246h-182l-86 -443q-4 -21 -5.5 -36.5t-0.5 -27.5t5 -19.5t11 -13t17.5 -8t24.5 -4t32 -1.5h40h27l-28 -248q-102 -20 -197 -20q-179 0 -235 92q-33 55 -34 144q0 59 15 134l86 451h-145z" />
<glyph unicode="u" horiz-adv-x="1159" d="M29 348l137 701h328l-119 -613q-11 -56 -11 -95q0 -42 12 -64q24 -44 101 -44q103 0 171 55.5t89 162.5l117 598h328l-205 -1049h-328l31 152l-2 -9q-136 -176 -363 -176q-163 -1 -241 101q-55 71 -55 181q0 46 10 99z" />
<glyph unicode="v" horiz-adv-x="1081" d="M100 1049h322l80 -684h4l346 684h334l-565 -1049h-361z" />
<glyph unicode="w" horiz-adv-x="1613" d="M102 1049h324l33 -639h4l297 639h287l47 -639h4l282 639h332l-498 -1049h-305l-73 664h-5l-331 -664h-310z" />
<glyph unicode="x" horiz-adv-x="1126" d="M-106 0l468 535l-215 514h340l109 -304l231 304h357l-424 -514l252 -535h-361l-125 324l-256 -324h-376z" />
<glyph unicode="y" horiz-adv-x="1095" d="M-14 -340l39 240q27 -5 53 -5q34 0 66 9q55 16 83 59q49 44 49 139q0 27 -4 58l-172 889h322l104 -689h4l332 689h334l-565 -1078q-104 -197 -199.5 -265t-257.5 -68q-89 0 -188 22z" />
<glyph unicode="z" horiz-adv-x="1017" d="M-61 0l43 236l618 563l4 4h-469l49 246h879l-43 -236l-619 -563l-4 -4h531l-49 -246h-940z" />
<glyph unicode="{" horiz-adv-x="806" d="M57 512l35 283q83 -1 122 30.5t54 110.5l49 252q17 85 42.5 148t63.5 106t81 69.5t105.5 41t125 19.5t150.5 5h65l-55 -281h-45q-43 0 -81.5 -17t-72.5 -63.5t-49 -117.5l-45 -232q-17 -89 -55 -137t-117 -78l-22 -4q71 -32 98 -85t10 -140l-45 -232q-21 -109 8.5 -149.5 t98.5 -40.5h65l-53 -281h-45q-73 0 -130 5t-109 17t-88.5 32.5t-64.5 52t-41 75t-13 101.5t14 131l49 252q15 80 -3.5 103.5t-101.5 23.5z" />
<glyph unicode="|" horiz-adv-x="159" d="M-170 -283l356 1827h226l-357 -1827h-225z" />
<glyph unicode="}" horiz-adv-x="808" d="M-94 -281l53 281h45q69 0 126.5 49t78.5 158l45 231q17 89 55.5 137.5t116.5 79.5l23 4q-71 32 -98.5 85t-10.5 139l45 231q20 104 -10.5 143t-98.5 39h-65l55 281h45q74 0 130 -4.5t109 -16t89 -31t64 -50.5t41 -73t13 -100t-14 -131l-49 -251q-14 -80 4.5 -103 t102.5 -22l-35 -283q-84 0 -123.5 -32t-54.5 -111l-49 -252q-16 -85 -41.5 -148.5t-63.5 -107.5t-81.5 -72t-105.5 -43.5t-125.5 -21t-150.5 -5.5h-65z" />
<glyph unicode="~" horiz-adv-x="925" d="M51 498q35 182 104.5 266t186.5 84q51 0 94 -14.5t67 -31.5t54 -31.5t57 -14.5q53 0 84.5 30t40.5 70l201 -16q-35 -182 -104.5 -266.5t-186.5 -84.5q-51 0 -94 14.5t-68 32t-55 32t-57 14.5q-53 0 -84.5 -30.5t-38.5 -70.5z" />
<glyph unicode="&#xa1;" horiz-adv-x="534" d="M-68 -266l62 319l221 666h164l-37 -666l-61 -319h-349zM188 1061q13 71 65.5 113.5t119.5 42.5q81 0 126.5 -53.5t28.5 -139.5q-13 -69 -64.5 -112.5t-117.5 -43.5q-83 0 -129 54t-29 139z" />
<glyph unicode="&#xa2;" horiz-adv-x="1093" d="M33 543q45 230 202.5 378t378.5 160l27 136h123l-27 -142q187 -23 281 -140t80 -286h-316q11 154 -94 180l-119 -606q112 34 160 164h320q-46 -181 -187.5 -294.5t-341.5 -123.5l-37 -188h-123l37 190q-213 28 -310.5 183.5t-53.5 388.5zM352 506q-23 -119 1.5 -193 t92.5 -94l119 604q-79 -26 -133.5 -107.5t-79.5 -209.5z" />
<glyph unicode="&#xa3;" horiz-adv-x="1187" d="M2 256q102 36 173 92t93 107q17 37 20.5 65.5t-3.5 59.5h-199l37 225h104q-57 108 -32 233q11 58 34 110t68.5 106.5t108 93.5t159 63.5t215.5 24.5q121 0 213.5 -25.5t151 -71.5t93 -110.5t38.5 -142.5t-12 -168h-346q24 122 -12.5 179.5t-147.5 57.5 q-95 0 -154.5 -52.5t-75.5 -135.5q-10 -49 0 -94.5t31 -67.5h311l-20 -225h-248q0 -32 -2 -43q-14 -75 -52.5 -127.5t-107.5 -100.5q53 17 88 17q56 0 101.5 -19.5t88.5 -39t93 -19.5q11 0 22 2t20.5 4t22 7.5t20.5 9t21.5 11.5t19.5 11.5t21 14t19 13.5t19.5 14t17.5 13 l90 -260q-100 -66 -169 -93.5t-161 -27.5q-55 0 -99 13.5t-73 32.5t-54.5 37.5t-56 32t-65.5 13.5q-69 0 -132.5 -23t-154.5 -77z" />
<glyph unicode="&#xa4;" horiz-adv-x="913" d="M-68 393l152 131q-25 107 -6 209q20 106 78 189l-99 114l201 174l96 -118q89 41 199 41q119 0 197 -48l151 125l148 -174l-152 -129q28 -93 6 -211q-21 -110 -80 -188l101 -115l-201 -174l-96 117q-95 -39 -197 -39q-116 0 -199 49l-151 -127zM310 593.5 q3 -52.5 37 -82.5t99 -30q81 0 139.5 67.5t76.5 164.5q22 115 -4.5 175t-120.5 60q-82 0 -140 -67t-78 -164q-12 -71 -9 -123.5z" />
<glyph unicode="&#xa5;" horiz-adv-x="1320" d="M88 262l25 123h338l22 119h-338l25 123h295l-285 778h383l156 -555h4l372 555h396l-584 -778h287l-25 -123h-338l-22 -119h338l-25 -123h-338l-51 -262h-348l51 262h-338z" />
<glyph unicode="&#xa6;" horiz-adv-x="104" d="M-238 -283l154 785h225l-153 -785h-226zM-29 786l148 758h225l-147 -758h-226z" />
<glyph unicode="&#xa7;" horiz-adv-x="1277" d="M67 545q1 28 7 59q40 206 262 297q-83 107 -55 258q30 154 162 246t341 92q128 0 220 -30.5t141 -84t67 -120t7 -144.5l-322 17q6 77 -18.5 107t-104.5 30q-66 0 -111 -30.5t-55 -86.5q-6 -31 2.5 -56t42 -52.5t53.5 -40t76 -44.5q11 -7 17 -10q30 -14 87 -39 q104 -47 153 -73t109.5 -72.5t77.5 -104t3 -133.5q-43 -207 -264 -297q83 -107 55 -258q-30 -154 -162 -245.5t-342 -91.5q-128 0 -220 30.5t-140.5 83.5t-66.5 119.5t-7 144.5l324 -16q-8 -77 16 -107t104 -30q66 0 111 30.5t55 86.5q6 31 -4 57t-38.5 50t-55 41t-74.5 44 q-4 2 -6 3.5t-5.5 3t-6.5 3.5q-29 14 -87 39l-63 28.5t-58 27.5t-55.5 29.5t-47.5 29.5t-43 33t-33 36t-26.5 41.5t-15 45.5t-6.5 53zM383 618q-6 -32 13.5 -62.5t58 -54.5t79.5 -44.5t89 -36t75 -23t47 -12.5q67 25 105.5 55t48.5 80q6 33 -13.5 64t-50 52.5t-78 43.5 t-81 33.5t-75 24t-46.5 14.5q-81 -24 -121.5 -53t-50.5 -81z" />
<glyph unicode="&#xa8;" horiz-adv-x="1001" d="M281 1350q11 58 54.5 97.5t108.5 39.5q81 0 119.5 -50.5t24.5 -123.5q-11 -59 -54 -98t-108 -39q-82 0 -120.5 50.5t-24.5 123.5zM721 1350q11 58 55 97.5t109 39.5q81 0 119 -50.5t24 -123.5q-11 -59 -54 -98t-108 -39q-82 0 -120.5 50.5t-24.5 123.5z" />
<glyph unicode="&#xa9;" horiz-adv-x="1630" d="M97.5 535q-12.5 128 13.5 276q29 146 99 270.5t174.5 217.5t248 145.5t309.5 52.5q140 0 259 -41t203 -116t139 -180t67.5 -233t-13.5 -276q-29 -146 -98.5 -270.5t-173.5 -216.5t-247.5 -144.5t-309.5 -52.5q-140 0 -259 41t-203.5 115.5t-140 179t-68 232.5zM227 774 q-39 -200 17 -361.5t193.5 -252t330.5 -90.5q150 0 274.5 47.5t212 132.5t145 195.5t83.5 242.5q21 123 11 230t-55 195t-114.5 150.5t-167.5 97t-213 34.5q-150 0 -275.5 -48t-213 -133.5t-145 -196.5t-83.5 -243zM424 750q39 197 173 319.5t323 122.5q188 0 284 -98.5 t82 -243.5h-258q3 60 -25 99.5t-96 39.5q-89 0 -141 -70t-78 -206q-23 -113 9.5 -175.5t109.5 -62.5q34 0 61.5 9.5t44 21.5t32 35t22 36t16.5 39h262q-39 -157 -155.5 -250.5t-290.5 -93.5q-212 0 -313.5 132.5t-61.5 345.5z" />
<glyph unicode="&#xab;" horiz-adv-x="829" d="M33 362l53 308l373 295l-53 -308l-187 -139l-4 -4l129 -139l-53 -307zM424 362l53 308l373 295l-53 -308l-187 -139l-4 -4l129 -139l-53 -307z" />
<glyph unicode="&#xac;" horiz-adv-x="1069" d="M92 600l55 281h879l-119 -607h-327l63 326h-551z" />
<glyph unicode="&#xad;" horiz-adv-x="684" d="M33 377l55 280h557l-55 -280h-557z" />
<glyph unicode="&#xae;" horiz-adv-x="1050" d="M131 1040q39 204 191 330.5t352 126.5q141 0 250 -71.5t159 -195t23 -267.5q-41 -204 -192.5 -330.5t-350.5 -126.5q-105 0 -195.5 42.5t-149.5 113.5t-83.5 170.5t-3.5 207.5zM248 1006q-33 -170 59 -284t256 -114q176 0 283 101.5t143 291.5q33 169 -58 282.5 t-255 113.5q-176 0 -284 -101t-144 -290zM362 737l105 533h242q90 0 135 -45t28 -127q-19 -95 -116 -115l-23 -2q36 -6 54 -32.5t18 -59t-2 -66t-6 -55t6 -25.5l8 -6l-129 6q-5 9 -2 38t9 61t-8.5 57t-53.5 25h-95l-36 -187h-134zM553 1032h82q41 0 71 21.5t37 60.5 q5 26 -9 36.5t-54 10.5h-102z" />
<glyph unicode="&#xaf;" horiz-adv-x="1015" d="M358 1229l39 205h586l-39 -205h-586z" />
<glyph unicode="&#xb0;" horiz-adv-x="743" d="M178 1202q24 123 122.5 209t234.5 86q151 0 227 -97t49 -235q-24 -124 -122.5 -210.5t-233.5 -86.5q-101 0 -171 46.5t-96.5 122t-9.5 165.5zM358 1186q-30 -154 107 -154q58 0 105 39.5t61 110.5q29 151 -107 151q-59 0 -105.5 -38.5t-60.5 -108.5z" />
<glyph unicode="&#xb1;" horiz-adv-x="1155" d="M-23 0l50 246h995l-49 -246h-996zM100 625l54 280h356l55 281h283l-55 -281h356l-53 -280h-357l-55 -281h-283l56 281h-357z" />
<glyph unicode="&#xb4;" horiz-adv-x="989" d="M471 1188l143 287h375l-266 -287h-252z" />
<glyph unicode="&#xb6;" horiz-adv-x="1218" d="M152 1087q36 180 161.5 278.5t329.5 98.5h651l-284 -1464h-205l250 1280h-146l-250 -1280h-204l133 686h-76q-208 0 -302.5 104.5t-57.5 296.5z" />
<glyph unicode="&#xb7;" horiz-adv-x="475" d="M86 653q13 70 65 113t119 43q81 0 128 -54.5t30 -138.5q-13 -70 -65.5 -112.5t-118.5 -42.5q-84 0 -129.5 53t-28.5 139z" />
<glyph unicode="&#xb8;" horiz-adv-x="1040" d="M80 -342l59 63q53 -26 125 -26q41 0 80.5 20.5t46.5 57.5q3 20 -10.5 28.5t-40.5 8.5q-34 0 -82 -19l-39 53l139 136h129l-92 -86l-16 -5q97 10 161 -31t48 -124q-12 -64 -91 -102t-184 -38q-132 0 -233 64z" />
<glyph unicode="&#xbb;" horiz-adv-x="829" d="M-25 68l54 307l186 139l4 4l-129 139l53 308l258 -295l-53 -308zM367 68l53 307l186 139l4 4l-129 139l54 308l258 -295l-54 -308z" />
<glyph unicode="&#xbf;" horiz-adv-x="1124" d="M-39 141q14 110 86.5 176.5t204.5 118.5q69 27 113 55t70.5 63.5t39.5 70t25 90.5h262q0 -54 -0.5 -78t-5 -66t-15 -65.5t-29.5 -55.5t-49 -59t-73 -55q-36 -23 -92.5 -52.5t-89.5 -47t-62.5 -48t-36.5 -67.5q-10 -58 35 -96.5t121 -38.5q93 0 151.5 51t73.5 147h344 q-15 -216 -181 -347.5t-441 -131.5q-220 0 -348 125t-103 311zM483 1065q13 70 66 113t119 43q83 0 127.5 -53.5t27.5 -139.5q-13 -70 -65 -113t-119 -43q-81 0 -127 54t-29 139z" />
<glyph unicode="&#xc0;" d="M-109 0l816 1464h368l244 -1464h-363l-34 305h-502l-154 -305h-375zM557 586h336l-62 540h-4zM641 1890h360l33 -286h-239z" />
<glyph unicode="&#xc1;" d="M-109 0l816 1464h368l244 -1464h-363l-34 305h-502l-154 -305h-375zM557 586h336l-62 540h-4zM784 1604l144 286h377l-269 -286h-252z" />
<glyph unicode="&#xc2;" d="M-109 0l816 1464h368l244 -1464h-363l-34 305h-502l-154 -305h-375zM528 1604l275 286h319l164 -286h-278l-64 141h-4l-121 -141h-291zM557 586h336l-62 540h-4z" />
<glyph unicode="&#xc3;" d="M-109 0l816 1464h368l244 -1464h-363l-34 305h-502l-154 -305h-375zM557 586h336l-62 540h-4zM590 1640q29 146 79 207.5t132 61.5q44 0 91.5 -19.5t88.5 -39t68 -19.5q45 0 72 26t32 60l168 -16q-30 -147 -80.5 -208t-132.5 -61q-56 0 -137 38t-111 38q-45 0 -71 -25.5 t-33 -58.5z" />
<glyph unicode="&#xc4;" d="M-109 0l816 1464h368l244 -1464h-363l-34 305h-502l-154 -305h-375zM557 586h336l-62 540h-4zM571 1765q11 58 55 98t109 40q80 0 118 -50.5t24 -123.5q-11 -59 -54 -98.5t-108 -39.5q-82 0 -120 50t-24 124zM1012 1765q11 58 55 98t109 40q80 0 117.5 -50t23.5 -124 q-11 -59 -54 -98.5t-108 -39.5q-82 0 -119.5 50t-23.5 124z" />
<glyph unicode="&#xc5;" d="M-109 0l816 1464h368l244 -1464h-363l-34 305h-502l-154 -305h-375zM557 586h336l-62 540h-4zM725 1804q17 84 81.5 135.5t143.5 51.5q97 0 152.5 -62.5t34.5 -161.5q-18 -85 -82 -135.5t-144 -50.5q-96 0 -151 61.5t-35 161.5zM846 1788q-8 -48 12.5 -71t54.5 -23 q44 0 71.5 25.5t33.5 64.5q8 48 -13.5 71t-56.5 23q-42 0 -69 -25.5t-33 -64.5z" />
<glyph unicode="&#xc6;" horiz-adv-x="2062" d="M-109 -4l840 1468h1440l-57 -301h-738l-51 -260h635l-59 -301h-635l-58 -301h750l-60 -301h-1122l60 301h-416l-154 -305h-375zM559 582h330l115 581h-144z" />
<glyph unicode="&#xc7;" horiz-adv-x="1411" d="M76 752q31 162 101.5 298t175 235.5t247.5 155.5t309 56q150 0 263 -43.5t179.5 -122.5t94.5 -185t16 -235h-362q3 143 -45 214t-178 71q-348 0 -441 -481q-16 -83 -19.5 -149t7.5 -123t38.5 -94.5t75.5 -59t117 -21.5q267 0 369 273h369q-73 -251 -244.5 -402.5 t-429.5 -169.5l-90 -75l-17 -5q97 10 161 -31t48 -124q-12 -64 -90.5 -102t-183.5 -38q-133 0 -234 64l60 63q53 -26 125 -26q41 0 80.5 20.5t46.5 57.5q3 20 -11 28.5t-41 8.5q-33 0 -81 -19l-37 53l139 125q-210 13 -342.5 118.5t-175 276t-0.5 388.5z" />
<glyph unicode="&#xc8;" horiz-adv-x="1280" d="M-6 0l285 1464h1110l-58 -301h-741l-51 -260h639l-60 -301h-639l-57 -301h754l-60 -301h-1122zM588 1890h360l33 -286h-240z" />
<glyph unicode="&#xc9;" horiz-adv-x="1280" d="M-6 0l285 1464h1110l-58 -301h-741l-51 -260h639l-60 -301h-639l-57 -301h754l-60 -301h-1122zM731 1604l143 286h377l-268 -286h-252z" />
<glyph unicode="&#xca;" horiz-adv-x="1280" d="M-6 0l285 1464h1110l-58 -301h-741l-51 -260h639l-60 -301h-639l-57 -301h754l-60 -301h-1122zM475 1604l275 286h319l164 -286h-279l-63 141h-4l-121 -141h-291z" />
<glyph unicode="&#xcb;" horiz-adv-x="1280" d="M-6 0l285 1464h1110l-58 -301h-741l-51 -260h639l-60 -301h-639l-57 -301h754l-60 -301h-1122zM518 1765q11 58 55 98t109 40q80 0 117.5 -50t23.5 -124q-11 -59 -54 -98.5t-107 -39.5q-82 0 -120 50t-24 124zM958 1765q11 58 55 98t109 40q80 0 118 -50.5t24 -123.5 q-11 -59 -54 -98.5t-108 -39.5q-82 0 -120 50t-24 124z" />
<glyph unicode="&#xcc;" horiz-adv-x="567" d="M-4 0l285 1464h368l-284 -1464h-369zM213 1890h360l33 -286h-239z" />
<glyph unicode="&#xcd;" horiz-adv-x="567" d="M-4 0l285 1464h368l-284 -1464h-369zM356 1604l144 286h377l-269 -286h-252z" />
<glyph unicode="&#xce;" horiz-adv-x="571" d="M-12 0l284 1464h369l-285 -1464h-368zM92 1604l275 286h319l164 -286h-279l-63 141h-4l-121 -141h-291z" />
<glyph unicode="&#xcf;" horiz-adv-x="567" d="M-4 0l285 1464h368l-284 -1464h-369zM143 1765q11 58 55 98t109 40q80 0 118 -50.5t24 -123.5q-11 -59 -54 -98.5t-108 -39.5q-82 0 -120 50t-24 124zM584 1765q11 58 55 98t109 40q80 0 117.5 -50t23.5 -124q-11 -59 -54 -98.5t-108 -39.5q-82 0 -119.5 50t-23.5 124z " />
<glyph unicode="&#xd0;" horiz-adv-x="1447" d="M14 0l129 666h-108l37 184h108l119 614h639q309 0 447.5 -196.5t70.5 -554.5q-68 -347 -262.5 -530t-499.5 -183h-680zM442 301h234q167 0 272 118t146 331q40 201 -12.5 307t-217.5 106h-254l-61 -313h297l-37 -184h-297z" />
<glyph unicode="&#xd1;" horiz-adv-x="1447" d="M-6 0l285 1464h364l344 -870h8l168 870h369l-285 -1464h-364l-342 870h-9l-170 -870h-368zM602 1640q29 146 79 207.5t132 61.5q44 0 91.5 -19.5t88.5 -39t68 -19.5q45 0 72 26t32 60l168 -16q-30 -147 -80.5 -208t-132.5 -61q-56 0 -137 38t-111 38q-45 0 -71 -25.5 t-33 -58.5z" />
<glyph unicode="&#xd2;" horiz-adv-x="1509" d="M76 752q31 162 104 298t180 235.5t252 155.5t312 56q230 0 381 -102t204 -278t9 -402q-32 -162 -105.5 -299t-181 -237t-252.5 -156t-311 -56q-232 0 -382.5 102.5t-202 278.5t-7.5 404zM436 715q-85 -447 250 -447q100 0 182 37.5t138 105.5t93 152.5t58 188.5 q15 76 17 140t-11.5 121.5t-43.5 97t-83.5 62.5t-128.5 23q-101 0 -183.5 -37.5t-138.5 -105t-92.5 -151.5t-56.5 -187zM686 1890h361l32 -286h-239z" />
<glyph unicode="&#xd3;" horiz-adv-x="1509" d="M76 752q31 162 104 298t180 235.5t252 155.5t312 56q230 0 381 -102t204 -278t9 -402q-32 -162 -105.5 -299t-181 -237t-252.5 -156t-311 -56q-232 0 -382.5 102.5t-202 278.5t-7.5 404zM436 715q-85 -447 250 -447q100 0 182 37.5t138 105.5t93 152.5t58 188.5 q15 76 17 140t-11.5 121.5t-43.5 97t-83.5 62.5t-128.5 23q-101 0 -183.5 -37.5t-138.5 -105t-92.5 -151.5t-56.5 -187zM829 1604l144 286h377l-269 -286h-252z" />
<glyph unicode="&#xd4;" horiz-adv-x="1509" d="M76 752q31 162 104 298t180 235.5t252 155.5t312 56q230 0 381 -102t204 -278t9 -402q-32 -162 -105.5 -299t-181 -237t-252.5 -156t-311 -56q-232 0 -382.5 102.5t-202 278.5t-7.5 404zM436 715q-85 -447 250 -447q100 0 182 37.5t138 105.5t93 152.5t58 188.5 q15 76 17 140t-11.5 121.5t-43.5 97t-83.5 62.5t-128.5 23q-101 0 -183.5 -37.5t-138.5 -105t-92.5 -151.5t-56.5 -187zM573 1604l275 286h319l164 -286h-278l-64 141h-4l-121 -141h-291z" />
<glyph unicode="&#xd5;" horiz-adv-x="1509" d="M76 752q31 162 104 298t180 235.5t252 155.5t312 56q230 0 381 -102t204 -278t9 -402q-32 -162 -105.5 -299t-181 -237t-252.5 -156t-311 -56q-232 0 -382.5 102.5t-202 278.5t-7.5 404zM436 715q-85 -447 250 -447q100 0 182 37.5t138 105.5t93 152.5t58 188.5 q15 76 17 140t-11.5 121.5t-43.5 97t-83.5 62.5t-128.5 23q-101 0 -183.5 -37.5t-138.5 -105t-92.5 -151.5t-56.5 -187zM635 1640q29 146 79 207.5t132 61.5q56 0 137 -39t111 -39q45 0 72 26t32 60l168 -16q-30 -147 -80.5 -208t-132.5 -61q-44 0 -91.5 19t-88.5 38t-68 19 q-45 0 -71 -25.5t-33 -58.5z" />
<glyph unicode="&#xd6;" horiz-adv-x="1509" d="M76 752q31 162 104 298t180 235.5t252 155.5t312 56q230 0 381 -102t204 -278t9 -402q-32 -162 -105.5 -299t-181 -237t-252.5 -156t-311 -56q-232 0 -382.5 102.5t-202 278.5t-7.5 404zM436 715q-85 -447 250 -447q100 0 182 37.5t138 105.5t93 152.5t58 188.5 q15 76 17 140t-11.5 121.5t-43.5 97t-83.5 62.5t-128.5 23q-101 0 -183.5 -37.5t-138.5 -105t-92.5 -151.5t-56.5 -187zM616 1765q11 58 55 98t109 40q80 0 118 -50.5t24 -123.5q-11 -59 -54 -98.5t-108 -39.5q-82 0 -120 50t-24 124zM1057 1765q11 58 55 98t109 40 q80 0 117.5 -50t23.5 -124q-11 -59 -54 -98.5t-108 -39.5q-82 0 -119.5 50t-23.5 124z" />
<glyph unicode="&#xd7;" horiz-adv-x="1140" d="M41 379l352 295l-237 293l229 198l238 -295l352 295l168 -198l-352 -293l237 -295l-229 -199l-238 295l-352 -295z" />
<glyph unicode="&#xd8;" horiz-adv-x="1517" d="M-53 90l176 152q-113 206 -53 510q31 162 104 298t180 235.5t252 155.5t312 56q318 0 475 -188l184 155l78 -86l-195 -166q108 -204 51 -497q-32 -162 -105.5 -299t-181 -237t-252 -156t-310.5 -56q-315 0 -467 180l-172 -145zM416 481l714 604q-64 111 -229 111 q-101 0 -183.5 -37.5t-138.5 -105t-92.5 -151.5t-56.5 -187q-27 -137 -14 -234zM455 371q65 -103 225 -103q100 0 182 37.5t138 105.5t93 152.5t58 188.5q22 116 16 219z" />
<glyph unicode="&#xd9;" horiz-adv-x="1400" d="M88 537l180 927h369l-182 -944q-28 -139 14 -195.5t160 -56.5q132 0 210 64.5t105 204.5l180 927h369l-182 -944q-55 -281 -220 -417t-481 -136q-331 0 -453.5 144t-68.5 426zM629 1890h360l33 -286h-240z" />
<glyph unicode="&#xda;" horiz-adv-x="1400" d="M88 537l180 927h369l-182 -944q-28 -139 14 -195.5t160 -56.5q132 0 210 64.5t105 204.5l180 927h369l-182 -944q-55 -281 -220 -417t-481 -136q-331 0 -453.5 144t-68.5 426zM772 1604l143 286h377l-268 -286h-252z" />
<glyph unicode="&#xdb;" horiz-adv-x="1400" d="M88 537l180 927h369l-182 -944q-28 -139 14 -195.5t160 -56.5q132 0 210 64.5t105 204.5l180 927h369l-182 -944q-55 -281 -220 -417t-481 -136q-331 0 -453.5 144t-68.5 426zM516 1604l275 286h319l164 -286h-279l-63 141h-4l-121 -141h-291z" />
<glyph unicode="&#xdc;" horiz-adv-x="1400" d="M88 537l180 927h369l-182 -944q-28 -139 14 -195.5t160 -56.5q132 0 210 64.5t105 204.5l180 927h369l-182 -944q-55 -281 -220 -417t-481 -136q-331 0 -453.5 144t-68.5 426zM559 1765q11 58 55 98t109 40q80 0 117.5 -50t23.5 -124q-11 -59 -54 -98.5t-108 -39.5 q-82 0 -119.5 50t-23.5 124zM999 1765q11 58 55 98t109 40q80 0 118 -50.5t24 -123.5q-11 -59 -54 -98.5t-108 -39.5q-82 0 -120 50t-24 124z" />
<glyph unicode="&#xdd;" horiz-adv-x="1345" d="M180 1464h381l168 -602h2l406 602h397l-674 -923l-108 -541h-369l109 541zM745 1604l144 286h377l-269 -286h-252z" />
<glyph unicode="&#xde;" horiz-adv-x="1329" d="M-6 0l285 1464h368l-39 -204h332q233 0 345 -126.5t67 -359.5q-44 -220 -193 -334t-381 -114h-352l-64 -326h-368zM485 627h254q215 0 250 184q17 81 -24.5 114t-141.5 33h-274z" />
<glyph unicode="&#xdf;" horiz-adv-x="1167" d="M-27 0l189 969q48 244 194.5 386t386.5 142q143 0 249.5 -58.5t152 -153.5t24.5 -204q-40 -201 -225 -274l-22 -2q119 -40 170 -161.5t22 -264.5q-25 -129 -102 -224.5t-179 -141.5t-215 -46q-109 0 -204 37l26 240q73 -16 130.5 -7.5t97.5 28t68.5 55.5t45 73.5 t25.5 83.5q20 103 -27.5 164t-177.5 61h-61l39 205h32q84 0 150.5 54t83.5 141q14 71 -14.5 110t-94.5 39q-191 0 -235 -217l-201 -1034h-328z" />
<glyph unicode="&#xe0;" horiz-adv-x="1122" d="M-16 303q25 130 134 204t308 120l39 9l58.5 13.5t52.5 13.5t51 16t42 18t36.5 22t23.5 25.5t14 31.5q8 39 -18.5 59.5t-85.5 20.5q-181 0 -229 -154h-306q39 174 171.5 276.5t369.5 102.5q238 0 340.5 -106.5t56.5 -345.5l-94 -482q-7 -41 0.5 -55t36.5 -14l-16 -82 q-57 -29 -164 -29q-101 0 -143.5 37.5t-40.5 95.5q-64 -59 -155 -96t-183 -37q-171 0 -250 91t-49 245zM311 313q-9 -55 22 -87.5t85 -32.5q105 0 167 56.5t85 141.5l30 125q-48 -29 -168 -53q-107 -23 -159.5 -58.5t-61.5 -91.5zM412 1475h362l33 -287h-240z" />
<glyph unicode="&#xe1;" horiz-adv-x="1122" d="M-16 303q25 130 134 204t308 120l39 9l58.5 13.5t52.5 13.5t51 16t42 18t36.5 22t23.5 25.5t14 31.5q8 39 -18.5 59.5t-85.5 20.5q-181 0 -229 -154h-306q39 174 171.5 276.5t369.5 102.5q238 0 340.5 -106.5t56.5 -345.5l-94 -482q-7 -41 0.5 -55t36.5 -14l-16 -82 q-57 -29 -164 -29q-101 0 -143.5 37.5t-40.5 95.5q-64 -59 -155 -96t-183 -37q-171 0 -250 91t-49 245zM311 313q-9 -55 22 -87.5t85 -32.5q105 0 167 56.5t85 141.5l30 125q-48 -29 -168 -53q-107 -23 -159.5 -58.5t-61.5 -91.5zM557 1188l143 287h375l-266 -287h-252z" />
<glyph unicode="&#xe2;" horiz-adv-x="1122" d="M-16 303q25 130 134 204t308 120l39 9l58.5 13.5t52.5 13.5t51 16t42 18t36.5 22t23.5 25.5t14 31.5q8 39 -18.5 59.5t-85.5 20.5q-181 0 -229 -154h-306q39 174 171.5 276.5t369.5 102.5q238 0 340.5 -106.5t56.5 -345.5l-94 -482q-7 -41 0.5 -55t36.5 -14l-16 -82 q-57 -29 -164 -29q-101 0 -143.5 37.5t-40.5 95.5q-64 -59 -155 -96t-183 -37q-171 0 -250 91t-49 245zM299 1188l274 287h320l164 -287h-277l-63 139l-125 -139h-293zM311 313q-9 -55 22 -87.5t85 -32.5q105 0 167 56.5t85 141.5l30 125q-48 -29 -168 -53 q-107 -23 -159.5 -58.5t-61.5 -91.5z" />
<glyph unicode="&#xe3;" horiz-adv-x="1122" d="M-16 303q25 130 134 204t308 120l39 9l58.5 13.5t52.5 13.5t51 16t42 18t36.5 22t23.5 25.5t14 31.5q8 39 -18.5 59.5t-85.5 20.5q-181 0 -229 -154h-306q39 174 171.5 276.5t369.5 102.5q238 0 340.5 -106.5t56.5 -345.5l-94 -482q-7 -41 0.5 -55t36.5 -14l-16 -82 q-57 -29 -164 -29q-101 0 -143.5 37.5t-40.5 95.5q-64 -59 -155 -96t-183 -37q-171 0 -250 91t-49 245zM311 313q-9 -55 22 -87.5t85 -32.5q105 0 167 56.5t85 141.5l30 125q-48 -29 -168 -53q-107 -23 -159.5 -58.5t-61.5 -91.5zM362 1225q27 145 78 206.5t133 61.5 q44 0 91.5 -19.5t88.5 -39t68 -19.5q45 0 71.5 26t33.5 60l166 -16q-28 -147 -78.5 -207.5t-132.5 -60.5q-44 0 -91.5 18.5t-88.5 37.5t-68 19q-45 0 -72.5 -26t-32.5 -58z" />
<glyph unicode="&#xe4;" horiz-adv-x="1122" d="M-16 303q25 130 134 204t308 120l39 9l58.5 13.5t52.5 13.5t51 16t42 18t36.5 22t23.5 25.5t14 31.5q8 39 -18.5 59.5t-85.5 20.5q-181 0 -229 -154h-306q39 174 171.5 276.5t369.5 102.5q238 0 340.5 -106.5t56.5 -345.5l-94 -482q-7 -41 0.5 -55t36.5 -14l-16 -82 q-57 -29 -164 -29q-101 0 -143.5 37.5t-40.5 95.5q-64 -59 -155 -96t-183 -37q-171 0 -250 91t-49 245zM311 313q-9 -55 22 -87.5t85 -32.5q105 0 167 56.5t85 141.5l30 125q-48 -29 -168 -53q-107 -23 -159.5 -58.5t-61.5 -91.5zM342 1350q11 58 55 97.5t109 39.5 q81 0 119 -50.5t24 -123.5q-11 -59 -54 -98t-108 -39q-82 0 -120.5 50.5t-24.5 123.5zM782 1350q11 58 55 97.5t109 39.5q81 0 119.5 -50.5t24.5 -123.5q-11 -59 -54 -98t-108 -39q-82 0 -121 50.5t-25 123.5z" />
<glyph unicode="&#xe5;" horiz-adv-x="1122" d="M-16 303q25 130 134 204t308 120l39 9l58.5 13.5t52.5 13.5t51 16t42 18t36.5 22t23.5 25.5t14 31.5q8 39 -18.5 59.5t-85.5 20.5q-181 0 -229 -154h-306q39 174 171.5 276.5t369.5 102.5q238 0 340.5 -106.5t56.5 -345.5l-94 -482q-7 -41 0.5 -55t36.5 -14l-16 -82 q-57 -29 -164 -29q-101 0 -143.5 37.5t-40.5 95.5q-64 -59 -155 -96t-183 -37q-171 0 -250 91t-49 245zM311 313q-9 -55 22 -87.5t85 -32.5q105 0 167 56.5t85 141.5l30 125q-48 -29 -168 -53q-107 -23 -159.5 -58.5t-61.5 -91.5zM510 1389q17 84 81.5 135t143.5 51 q96 0 150.5 -62t36.5 -161q-18 -86 -82 -136.5t-144 -50.5q-95 0 -150.5 62t-35.5 162zM631 1372q-8 -48 12.5 -71t54.5 -23q43 0 70 25t35 65q8 48 -13.5 71t-56.5 23q-42 0 -68 -25t-34 -65z" />
<glyph unicode="&#xe6;" horiz-adv-x="1808" d="M-16 303q25 130 134 204t308 120l39 9l58.5 13.5t52.5 13.5t51 16t42 18t36.5 22t23.5 25.5t14 31.5q8 39 -18.5 59.5t-85.5 20.5q-181 0 -229 -154h-306q39 174 171.5 276.5t369.5 102.5q233 0 332 -96q151 96 352 96q109 0 194.5 -31t140.5 -87.5t87 -136t34 -176.5 t-18 -208h-753q-20 -112 36.5 -170.5t145.5 -58.5q86 0 141.5 35t63.5 78h330q-75 -174 -214 -266.5t-341 -92.5q-136 0 -238.5 47.5t-163.5 135.5q-82 -99 -203 -141t-254 -42q-183 0 -272.5 91.5t-60.5 244.5zM311 313q-9 -55 22 -87.5t85 -32.5q105 0 167 56.5t85 141.5 l30 125q-48 -29 -168 -53q-107 -23 -159.5 -58.5t-61.5 -91.5zM1053 627h430q19 117 -27.5 173t-138.5 56q-102 0 -172 -60t-92 -169z" />
<glyph unicode="&#xe7;" horiz-adv-x="1091" d="M35 543q46 239 215 388.5t401 149.5q229 0 347 -121t102 -311h-316q11 187 -143 187q-108 0 -182 -86.5t-105 -243.5q-28 -139 10 -216t134 -77q168 0 233 174h320q-45 -176 -180.5 -289.5t-329.5 -128.5l-90 -75l-17 -5q97 10 161 -31t48 -124q-12 -64 -90.5 -102 t-183.5 -38q-133 0 -234 64l60 63q53 -26 124 -26q41 0 80.5 20.5t46.5 57.5q3 20 -10.5 28.5t-40.5 8.5q-35 0 -82 -19l-37 53l140 127q-221 22 -324 178t-57 394z" />
<glyph unicode="&#xe8;" horiz-adv-x="1134" d="M35 580q48 233 211 367t405 134q109 0 194.5 -31t140.5 -87.5t87.5 -136t34.5 -176.5t-18 -208h-754q-20 -112 36.5 -170.5t145.5 -58.5q86 0 141.5 35t63.5 78h330q-75 -174 -214 -266.5t-341 -92.5q-176 0 -294.5 78.5t-162 217.5t-6.5 317zM375 627h430 q19 117 -27.5 173t-138.5 56q-102 0 -172 -60t-92 -169zM416 1475h362l33 -287h-240z" />
<glyph unicode="&#xe9;" horiz-adv-x="1134" d="M35 580q48 233 211 367t405 134q109 0 194.5 -31t140.5 -87.5t87.5 -136t34.5 -176.5t-18 -208h-754q-20 -112 36.5 -170.5t145.5 -58.5q86 0 141.5 35t63.5 78h330q-75 -174 -214 -266.5t-341 -92.5q-176 0 -294.5 78.5t-162 217.5t-6.5 317zM375 627h430 q19 117 -27.5 173t-138.5 56q-102 0 -172 -60t-92 -169zM561 1188l144 287h374l-266 -287h-252z" />
<glyph unicode="&#xea;" horiz-adv-x="1134" d="M35 580q48 233 211 367t405 134q109 0 194.5 -31t140.5 -87.5t87.5 -136t34.5 -176.5t-18 -208h-754q-20 -112 36.5 -170.5t145.5 -58.5q86 0 141.5 35t63.5 78h330q-75 -174 -214 -266.5t-341 -92.5q-176 0 -294.5 78.5t-162 217.5t-6.5 317zM303 1188l275 287h319 l164 -287h-277l-65 141h-4l-119 -141h-293zM375 627h430q19 117 -27.5 173t-138.5 56q-102 0 -172 -60t-92 -169z" />
<glyph unicode="&#xeb;" horiz-adv-x="1134" d="M35 580q48 233 211 367t405 134q109 0 194.5 -31t140.5 -87.5t87.5 -136t34.5 -176.5t-18 -208h-754q-20 -112 36.5 -170.5t145.5 -58.5q86 0 141.5 35t63.5 78h330q-75 -174 -214 -266.5t-341 -92.5q-176 0 -294.5 78.5t-162 217.5t-6.5 317zM346 1350q11 58 55 97.5 t109 39.5q81 0 119 -50.5t24 -123.5q-11 -59 -53.5 -98t-107.5 -39q-82 0 -121 50.5t-25 123.5zM375 627h430q19 117 -27.5 173t-138.5 56q-102 0 -172 -60t-92 -169zM786 1350q11 58 55 97.5t109 39.5q81 0 119.5 -50.5t24.5 -123.5q-11 -59 -54 -98t-108 -39 q-82 0 -121 50.5t-25 123.5z" />
<glyph unicode="&#xec;" horiz-adv-x="456" d="M-53 0l205 1049h327l-205 -1049h-327zM61 1475h363l33 -287h-240z" />
<glyph unicode="&#xed;" horiz-adv-x="468" d="M-27 0l205 1049h328l-205 -1049h-328zM233 1188l144 287h375l-267 -287h-252z" />
<glyph unicode="&#xee;" horiz-adv-x="550" d="M4 0l205 1049h328l-205 -1049h-328zM6 1188l275 287h319l164 -287h-277l-65 141h-4l-119 -141h-293z" />
<glyph unicode="&#xef;" horiz-adv-x="657" d="M63 0l205 1049h328l-205 -1049h-328zM109 1350q11 58 54.5 97.5t108.5 39.5q81 0 119.5 -50.5t24.5 -123.5q-11 -59 -54 -98t-108 -39q-82 0 -120.5 50.5t-24.5 123.5zM549 1350q11 58 55 97.5t109 39.5q81 0 119 -50.5t24 -123.5q-11 -59 -54 -98t-108 -39 q-82 0 -120.5 50.5t-24.5 123.5z" />
<glyph unicode="&#xf0;" horiz-adv-x="1183" d="M31 545q48 246 206 391t347 145q168 0 247 -94l17 19q-14 118 -88 217l-285 -78l-10 119l205 57q-69 67 -201 147l389 -8q41 -21 96 -76l232 64l10 -119l-156 -45q85 -122 122.5 -286.5t-1.5 -368.5q-26 -133 -77.5 -247t-132 -209.5t-200 -150.5t-266.5 -55 q-266 0 -386 157.5t-68 420.5zM350 508q-26 -137 13 -208t133 -71q110 0 190.5 82t110.5 234q27 136 -12 206t-134 70q-110 0 -190.5 -80.5t-110.5 -232.5z" />
<glyph unicode="&#xf1;" horiz-adv-x="1163" d="M-27 0l205 1049h328l-31 -152l2 8q136 176 363 176q162 0 240.5 -101.5t45.5 -279.5l-137 -700h-327l118 612q23 115 -1.5 159t-100.5 44q-103 0 -171 -55t-89 -162l-117 -598h-328zM444 1225q27 145 78 206.5t133 61.5q44 0 91.5 -19.5t88.5 -39t68 -19.5q45 0 71.5 26 t33.5 60l166 -16q-28 -147 -78.5 -207.5t-132.5 -60.5q-44 0 -91.5 18.5t-88.5 37.5t-68 19q-45 0 -72.5 -26t-32.5 -58z" />
<glyph unicode="&#xf2;" horiz-adv-x="1175" d="M17.5 289q-19.5 99 5.5 217q50 256 239 415.5t455 159.5q249 0 365 -149t69 -389q-50 -256 -238.5 -416t-453.5 -160q-125 0 -220 40t-148.5 111.5t-73 170.5zM358.5 298q42.5 -85 161.5 -85q101 0 177.5 75t115.5 218q44 160 1.5 245t-159.5 85q-102 0 -179 -75 t-116 -218q-44 -160 -1.5 -245zM436 1475h363l32 -287h-239z" />
<glyph unicode="&#xf3;" horiz-adv-x="1175" d="M17.5 289q-19.5 99 5.5 217q50 256 239 415.5t455 159.5q249 0 365 -149t69 -389q-50 -256 -238.5 -416t-453.5 -160q-125 0 -220 40t-148.5 111.5t-73 170.5zM358.5 298q42.5 -85 161.5 -85q101 0 177.5 75t115.5 218q44 160 1.5 245t-159.5 85q-102 0 -179 -75 t-116 -218q-44 -160 -1.5 -245zM582 1188l143 287h375l-266 -287h-252z" />
<glyph unicode="&#xf4;" horiz-adv-x="1175" d="M17.5 289q-19.5 99 5.5 217q50 256 239 415.5t455 159.5q249 0 365 -149t69 -389q-50 -256 -238.5 -416t-453.5 -160q-125 0 -220 40t-148.5 111.5t-73 170.5zM324 1188l274 287h320l163 -287h-276l-66 141h-4l-119 -141h-292zM358.5 298q42.5 -85 161.5 -85 q101 0 177.5 75t115.5 218q44 160 1.5 245t-159.5 85q-102 0 -179 -75t-116 -218q-44 -160 -1.5 -245z" />
<glyph unicode="&#xf5;" horiz-adv-x="1175" d="M17.5 289q-19.5 99 5.5 217q50 256 239 415.5t455 159.5q249 0 365 -149t69 -389q-50 -256 -238.5 -416t-453.5 -160q-125 0 -220 40t-148.5 111.5t-73 170.5zM358.5 298q42.5 -85 161.5 -85q101 0 177.5 75t115.5 218q44 160 1.5 245t-159.5 85q-102 0 -179 -75 t-116 -218q-44 -160 -1.5 -245zM387 1225q27 145 78 206.5t133 61.5q56 0 137 -39t111 -39q45 0 71 25.5t33 60.5l166 -16q-28 -147 -78.5 -207.5t-132.5 -60.5q-44 0 -91.5 18.5t-88.5 37.5t-68 19q-45 0 -72 -25.5t-32 -58.5z" />
<glyph unicode="&#xf6;" horiz-adv-x="1175" d="M17.5 289q-19.5 99 5.5 217q50 256 239 415.5t455 159.5q249 0 365 -149t69 -389q-50 -256 -238.5 -416t-453.5 -160q-125 0 -220 40t-148.5 111.5t-73 170.5zM358.5 298q42.5 -85 161.5 -85q101 0 177.5 75t115.5 218q44 160 1.5 245t-159.5 85q-102 0 -179 -75 t-116 -218q-44 -160 -1.5 -245zM367 1350q11 58 54.5 97.5t108.5 39.5q81 0 119.5 -50.5t24.5 -123.5q-11 -59 -54 -98t-108 -39q-82 0 -120.5 50.5t-24.5 123.5zM807 1350q11 58 55 97.5t109 39.5q81 0 119 -50.5t24 -123.5q-11 -59 -54 -98t-108 -39q-82 0 -120.5 50.5 t-24.5 123.5z" />
<glyph unicode="&#xf7;" horiz-adv-x="1155" d="M80 528l55 281h995l-55 -281h-995zM367 283q12 62 57.5 96.5t112.5 34.5q80 0 122 -45.5t29 -122.5q-13 -63 -58.5 -97t-111.5 -34q-83 0 -124.5 45t-26.5 123zM524 1092q12 62 56.5 96.5t111.5 34.5q81 0 124 -45.5t28 -122.5q-12 -63 -57 -97t-111 -34q-83 0 -125 45 t-27 123z" />
<glyph unicode="&#xf8;" horiz-adv-x="1171" d="M-47 61l113 95q-84 141 -43 350q50 256 239 415.5t455 159.5q207 0 323 -104l113 96l78 -86l-119 -100q80 -141 39 -344q-50 -256 -238.5 -416t-453.5 -160q-198 0 -320 101l-110 -95zM338 385l461 389q-47 62 -144 62q-102 0 -179 -75t-116 -218q-25 -92 -22 -158z M379 268q46 -55 141 -55q101 0 177.5 75t115.5 218q26 89 23 147z" />
<glyph unicode="&#xf9;" horiz-adv-x="1159" d="M29 348l137 701h328l-119 -613q-23 -115 1.5 -159t100.5 -44q103 0 171 55.5t89 162.5l117 598h328l-205 -1049h-328l31 152l-2 -9q-136 -176 -363 -176q-162 0 -240.5 101.5t-45.5 279.5zM412 1475h362l33 -287h-240z" />
<glyph unicode="&#xfa;" horiz-adv-x="1159" d="M29 348l137 701h328l-119 -613q-23 -115 1.5 -159t100.5 -44q103 0 171 55.5t89 162.5l117 598h328l-205 -1049h-328l31 152l-2 -9q-136 -176 -363 -176q-162 0 -240.5 101.5t-45.5 279.5zM557 1188l143 287h375l-266 -287h-252z" />
<glyph unicode="&#xfb;" horiz-adv-x="1159" d="M29 348l137 701h328l-119 -613q-23 -115 1.5 -159t100.5 -44q103 0 171 55.5t89 162.5l117 598h328l-205 -1049h-328l31 152l-2 -9q-136 -176 -363 -176q-162 0 -240.5 101.5t-45.5 279.5zM299 1188l274 287h320l164 -287h-277l-65 141h-4l-119 -141h-293z" />
<glyph unicode="&#xfc;" horiz-adv-x="1159" d="M29 348l137 701h328l-119 -613q-23 -115 1.5 -159t100.5 -44q103 0 171 55.5t89 162.5l117 598h328l-205 -1049h-328l31 152l-2 -9q-136 -176 -363 -176q-162 0 -240.5 101.5t-45.5 279.5zM342 1350q11 58 55 97.5t109 39.5q81 0 119 -50.5t24 -123.5q-11 -59 -54 -98 t-108 -39q-82 0 -120.5 50.5t-24.5 123.5zM782 1350q11 58 55 97.5t109 39.5q81 0 119.5 -50.5t24.5 -123.5q-11 -59 -54 -98t-108 -39q-82 0 -121 50.5t-25 123.5z" />
<glyph unicode="&#xfd;" horiz-adv-x="1095" d="M-14 -340l39 240q63 -12 118.5 4t83.5 59q63 57 45 197l-172 889h322l104 -689h4l332 689h334l-565 -1078q-104 -197 -199.5 -265t-257.5 -68q-89 0 -188 22zM539 1188l143 287h375l-266 -287h-252z" />
<glyph unicode="&#xfe;" horiz-adv-x="1196" d="M-96 -362l354 1826h328l-109 -561l2 8q104 170 320 170q218 0 317 -155.5t47 -419.5q-49 -250 -194 -394.5t-346 -144.5q-66 0 -117.5 15.5t-84 42.5t-52.5 59t-29 70l-10 -9l-99 -507h-327zM406 506q-27 -145 8.5 -219t128.5 -74q109 0 189 85.5t112 244.5 q27 145 -8.5 219t-128.5 74q-109 0 -189 -85.5t-112 -244.5z" />
<glyph unicode="&#xff;" horiz-adv-x="1095" d="M-14 -340l39 240q63 -12 118.5 4t83.5 59q63 57 45 197l-172 889h322l104 -689h4l332 689h334l-565 -1078q-104 -197 -199.5 -265t-257.5 -68q-89 0 -188 22zM324 1350q11 58 54.5 97.5t108.5 39.5q81 0 119.5 -50.5t24.5 -123.5q-11 -59 -54 -98t-108 -39 q-82 0 -120.5 50.5t-24.5 123.5zM764 1350q11 58 55 97.5t109 39.5q81 0 119 -50.5t24 -123.5q-11 -59 -54 -98t-108 -39q-82 0 -120.5 50.5t-24.5 123.5z" />
<glyph unicode="&#x152;" horiz-adv-x="2230" d="M76 752q41 214 151.5 383t276 265.5t358.5 96.5q216 0 340 -131l27 98h1110l-58 -301h-741l-51 -260h639l-60 -301h-638l-58 -301h754l-60 -301h-1122l25 86q-157 -119 -363 -119q-203 0 -339.5 101.5t-185.5 279.5t-5 404zM436 715q-85 -447 250 -447q102 0 190.5 52 t151.5 139l121 565q-62 172 -242 172q-101 0 -183.5 -37.5t-138.5 -105t-92.5 -151.5t-56.5 -187z" />
<glyph unicode="&#x153;" horiz-adv-x="1943" d="M19.5 289q-19.5 99 5.5 217q50 256 239 415.5t455 159.5q229 0 346 -127q161 127 397 127q109 0 194.5 -31t140.5 -87.5t87.5 -136t34.5 -176.5t-18 -208h-754q-20 -112 36.5 -170.5t145.5 -58.5q86 0 141.5 35t63.5 78h330q-75 -174 -214 -266.5t-341 -92.5 q-258 0 -389 166q-190 -166 -459 -166q-125 0 -220 40t-148.5 111.5t-73 170.5zM360.5 298q42.5 -85 161.5 -85q101 0 177.5 75t115.5 218q44 160 1.5 245t-159.5 85q-102 0 -179 -75t-116 -218q-44 -160 -1.5 -245zM1186 627h430q19 117 -27.5 173t-138.5 56 q-102 0 -172 -60t-92 -169z" />
<glyph unicode="&#x178;" horiz-adv-x="1345" d="M180 1464h381l168 -602h2l406 602h397l-674 -923l-108 -541h-369l109 541zM532 1765q11 58 55 98t109 40q80 0 118 -50.5t24 -123.5q-11 -59 -54 -98.5t-108 -39.5q-82 0 -120 50t-24 124zM973 1765q11 58 55 98t109 40q80 0 117.5 -50t23.5 -124q-11 -59 -54 -98.5 t-108 -39.5q-82 0 -119.5 50t-23.5 124z" />
<glyph unicode="&#x2c6;" horiz-adv-x="1019" d="M248 1188l274 287h320l164 -287h-277l-65 141h-5l-118 -141h-293z" />
<glyph unicode="&#x2dc;" horiz-adv-x="1032" d="M311 1225q27 145 78 206.5t133 61.5q56 0 137 -39t111 -39q45 0 71 25.5t33 60.5l166 -16q-28 -147 -78.5 -207.5t-132.5 -60.5q-57 0 -137 37.5t-110 37.5q-45 0 -72.5 -26t-32.5 -58z" />
<glyph unicode="&#x2000;" horiz-adv-x="995" />
<glyph unicode="&#x2001;" horiz-adv-x="1991" />
<glyph unicode="&#x2002;" horiz-adv-x="995" />
<glyph unicode="&#x2003;" horiz-adv-x="1991" />
<glyph unicode="&#x2004;" horiz-adv-x="663" />
<glyph unicode="&#x2005;" horiz-adv-x="497" />
<glyph unicode="&#x2006;" horiz-adv-x="331" />
<glyph unicode="&#x2007;" horiz-adv-x="331" />
<glyph unicode="&#x2008;" horiz-adv-x="248" />
<glyph unicode="&#x2009;" horiz-adv-x="398" />
<glyph unicode="&#x200a;" horiz-adv-x="110" />
<glyph unicode="&#x2010;" horiz-adv-x="684" d="M33 377l55 280h557l-55 -280h-557z" />
<glyph unicode="&#x2011;" horiz-adv-x="684" d="M33 377l55 280h557l-55 -280h-557z" />
<glyph unicode="&#x2012;" horiz-adv-x="684" d="M33 377l55 280h557l-55 -280h-557z" />
<glyph unicode="&#x2013;" horiz-adv-x="1198" d="M57 377l56 280h1024l-56 -280h-1024z" />
<glyph unicode="&#x2014;" horiz-adv-x="2045" d="M174 377l55 280h1639l-56 -280h-1638z" />
<glyph unicode="&#x2018;" horiz-adv-x="501" d="M174 1063q34 172 143 280t275 130l-8 -148q-76 -10 -142.5 -65.5t-87.5 -120.5q88 6 136.5 -45t31.5 -140q-15 -73 -68 -114t-124 -41q-100 0 -140 70.5t-16 193.5z" />
<glyph unicode="&#x2019;" horiz-adv-x="499" d="M147 809l9 147q76 10 142 66t87 121q-88 -6 -136.5 44.5t-31.5 139.5q15 73 68.5 114.5t124.5 41.5q100 0 139.5 -70t15.5 -194q-34 -172 -143 -280t-275 -130z" />
<glyph unicode="&#x201a;" horiz-adv-x="499" d="M-76 -344l8 147q76 10 142.5 66t87.5 121q-90 -6 -138 44.5t-30 139.5q13 73 67 114.5t125 41.5q100 0 139.5 -70.5t14.5 -193.5q-32 -171 -141.5 -279.5t-274.5 -130.5z" />
<glyph unicode="&#x201c;" horiz-adv-x="954" d="M176 1063q34 172 143 280t275 130l-8 -148q-76 -10 -142.5 -65.5t-87.5 -120.5q88 6 136.5 -45t31.5 -140q-15 -73 -68 -114t-124 -41q-100 0 -140 70.5t-16 193.5zM627 1063q34 172 142.5 280t274.5 130l-8 -148q-76 -10 -142 -65.5t-87 -120.5q88 6 136.5 -45 t31.5 -140q-15 -73 -68.5 -114t-124.5 -41q-100 0 -139.5 70t-15.5 194z" />
<glyph unicode="&#x201d;" horiz-adv-x="948" d="M145 809l9 147q76 10 142 66t87 121q-88 -6 -136.5 44.5t-31.5 139.5q15 73 68.5 114.5t124.5 41.5q100 0 139.5 -70t15.5 -194q-34 -172 -143 -280t-275 -130zM596 809l8 147q76 10 142.5 66t87.5 121q-88 -6 -136.5 44.5t-31.5 139.5q15 73 68 114.5t124 41.5 q100 0 140 -70.5t16 -193.5q-34 -172 -143 -280t-275 -130z" />
<glyph unicode="&#x201e;" horiz-adv-x="950" d="M-76 -344l8 147q76 10 142.5 66t87.5 121q-90 -6 -138 44.5t-30 139.5q13 73 67 114.5t125 41.5q100 0 139.5 -70.5t14.5 -193.5q-32 -171 -141.5 -279.5t-274.5 -130.5zM375 -344l8 147q76 10 142 66t87 121q-90 -6 -138 44.5t-30 139.5q13 73 67 114.5t126 41.5 q100 0 139.5 -70.5t14.5 -193.5q-32 -171 -141.5 -279.5t-274.5 -130.5z" />
<glyph unicode="&#x2022;" horiz-adv-x="743" d="M90 674q24 122 119 205.5t225 83.5q146 0 218.5 -94.5t45.5 -231.5q-24 -122 -119 -205.5t-225 -83.5q-146 0 -218.5 94.5t-45.5 231.5z" />
<glyph unicode="&#x2026;" horiz-adv-x="1333" d="M-6 174q13 70 65 113t119 43q81 0 127 -54t29 -139q-13 -70 -65.5 -112.5t-118.5 -42.5q-83 0 -128 53t-28 139zM424 174q13 70 65 113t119 43q81 0 127 -54t29 -139q-13 -70 -65.5 -112.5t-118.5 -42.5q-83 0 -128 53t-28 139zM854 174q13 70 65 113t119 43 q81 0 127 -54t29 -139q-13 -70 -65.5 -112.5t-118.5 -42.5q-83 0 -128 53t-28 139z" />
<glyph unicode="&#x202f;" horiz-adv-x="398" />
<glyph unicode="&#x2039;" horiz-adv-x="536" d="M57 362l54 308l405 295l-53 -308l-201 -139l-4 -4l143 -139l-53 -307z" />
<glyph unicode="&#x203a;" horiz-adv-x="538" d="M16 68l54 307l202 139l2 4l-143 139l53 308l291 -295l-53 -308z" />
<glyph unicode="&#x205f;" horiz-adv-x="497" />
<glyph unicode="&#x20ac;" horiz-adv-x="1404" d="M59 498l23 143h100q3 38 8 59q4 20 11 43h-95l23 144h104q185 549 701 549q114 0 203.5 -27t146.5 -75.5t92.5 -116t42 -148t-5.5 -172.5h-344q32 258 -178 258q-117 0 -188.5 -69.5t-120.5 -198.5h325l-22 -144h-338q-14 -37 -17 -55q-6 -27 -6 -47h336l-22 -143h-328 q-3 -121 48.5 -185.5t156.5 -64.5q120 0 182.5 68t97.5 194h346q-60 -254 -222.5 -398.5t-430.5 -144.5q-116 0 -207 27.5t-150.5 75.5t-97.5 116t-52.5 145.5t-10.5 166.5h-111z" />
<glyph unicode="&#x2122;" horiz-adv-x="1472" d="M209 1280l35 184h504l-35 -184h-160l-74 -379h-184l74 379h-160zM715 901l108 563h246l51 -297h4l168 297h252l-108 -563h-189l70 359h-2l-174 -359h-133l-33 359h-6l-70 -359h-184z" />
<glyph unicode="&#x25fc;" horiz-adv-x="1044" d="M0 0v1044h1044v-1044h-1044z" />
</font>
</defs>
</svg>
