<?xml version="1.0" standalone="no"?>
<!DOCTYPE svg PUBLIC "-//W3C//DTD SVG 1.1//EN" "http://www.w3.org/Graphics/SVG/1.1/DTD/svg11.dtd" >
<svg xmlns="http://www.w3.org/2000/svg" xmlns:xlink="http://www.w3.org/1999/xlink" version="1.1">
<metadata></metadata>
<defs>
<font id="neue_montrealmedium_italic" horiz-adv-x="1271" >
<font-face units-per-em="2048" ascent="1583" descent="-465" />
<missing-glyph horiz-adv-x="389" />
<glyph horiz-adv-x="0" />
<glyph horiz-adv-x="682" />
<glyph unicode=" "  horiz-adv-x="389" />
<glyph unicode="&#x09;" horiz-adv-x="389" />
<glyph unicode="&#xa0;" horiz-adv-x="389" />
<glyph unicode="!" horiz-adv-x="512" d="M45 131q9 53 49 86t92 33q61 0 95 -42t22 -106q-10 -54 -50.5 -86t-92.5 -32q-62 0 -95 41t-20 106zM172 410l74 667l73 387h238l-74 -387l-188 -667h-123z" />
<glyph unicode="&#x22;" horiz-adv-x="702" d="M195 989l67 475h203l-121 -475h-149zM528 989l66 475h203l-119 -475h-150z" />
<glyph unicode="#" horiz-adv-x="1196" d="M23 385l69 176h187l114 297h-200l67 176h205l149 381h181l-152 -381h221l152 381h180l-152 -381h193l-70 -176h-192l-117 -297h209l-66 -176h-215l-151 -385h-180l151 385h-221l-154 -385h-178l154 385h-184zM457 561h221l117 297h-222z" />
<glyph unicode="$" horiz-adv-x="1175" d="M0 461h231q-5 -129 51.5 -197.5t180.5 -85.5l84 436q-39 16 -72.5 31.5t-70.5 35t-65.5 39.5t-58 44.5t-49 50.5t-38.5 57t-25 64t-9.5 72.5t7.5 81.5q21 109 97 186t186.5 115t250.5 43l27 118h123l-29 -127q183 -25 280.5 -142t80.5 -304h-234q14 197 -162 244 l-79 -404q49 -22 83 -38.5t75 -38.5t69 -41.5t58.5 -45.5t49 -52t35 -58.5t23 -68t7 -78.5t-8.5 -91q-15 -83 -66 -147.5t-127.5 -104t-166 -61t-189.5 -25.5l-27 -155h-123l29 159q-209 22 -327 151.5t-101 336.5zM401 1077q-14 -74 34 -123.5t155 -97.5l76 375 q-235 -11 -265 -154zM586 172q245 13 278 156q18 85 -30 141t-170 109z" />
<glyph unicode="%" horiz-adv-x="1695" d="M131.5 922q-0.5 62 11.5 131q33 170 139.5 281.5t270.5 111.5q88 0 151 -34t93 -92t39.5 -134.5t-9.5 -161.5q-33 -171 -138 -282t-269 -111q-70 0 -125 22t-89 61t-54 92.5t-20.5 115.5zM289 0l1018 1415h168l-1020 -1415h-166zM322 1030q-45 -244 108 -244 q168 0 219 258q45 244 -108 244q-168 0 -219 -258zM923.5 260q-0.5 62 10.5 131q35 171 140.5 282t268.5 111q88 0 151 -34t93.5 -92t40 -134.5t-9.5 -161.5q-16 -82 -49 -151.5t-83 -124.5t-121 -86t-155 -31q-70 0 -125 22t-88.5 61t-53 92.5t-20 115.5zM1112 369 q-22 -117 5.5 -179.5t105.5 -62.5q166 0 217 258q24 117 -3 180.5t-104 63.5q-170 0 -221 -260z" />
<glyph unicode="&#x26;" horiz-adv-x="1245" d="M20 375q14 76 50 139.5t93.5 115t112 87.5t132.5 78q-21 35 -34.5 59t-29.5 56t-24 58.5t-14 58t-5 64.5t8 68q12 64 46 122.5t86.5 106.5t129 77t164.5 30t157 -30.5t107 -83.5t52.5 -117.5t1.5 -133.5q-22 -112 -110 -194.5t-263 -173.5l203 -313q91 110 129 249h205 q-66 -242 -230 -426l174 -272h-260l-76 119q-194 -150 -411 -150q-222 0 -325.5 113.5t-68.5 292.5zM242 367q-16 -82 34 -138.5t164 -56.5q150 0 285 109l-238 381q-106 -64 -167 -135.5t-78 -159.5zM512 1130q-11 -60 9 -114.5t69 -130.5q118 65 179 122.5t77 137.5 q13 63 -18.5 105t-104.5 42q-81 0 -139.5 -49t-71.5 -113z" />
<glyph unicode="'" horiz-adv-x="368" d="M199 989l67 475h203l-121 -475h-149z" />
<glyph unicode="(" horiz-adv-x="622" d="M124.5 305q-8.5 174 29.5 359q51 264 173 495t277 402l195 -11q-154 -214 -259 -431t-157 -484q-33 -173 -33 -338.5t23 -292t67 -262.5l-180 10q-58 110 -92.5 244.5t-43 308.5z" />
<glyph unicode=")" horiz-adv-x="634" d="M-111 -248q152 212 257.5 430.5t156.5 481.5q34 177 34.5 343.5t-22.5 292t-67 261.5l180 -11q43 -82 73.5 -177t49 -210t15 -251t-30.5 -277q-51 -256 -174.5 -490.5t-276.5 -402.5z" />
<glyph unicode="*" horiz-adv-x="788" d="M205 1178l67 127l191 -72l45 231h141l-45 -231l213 72l23 -127l-219 -64l96 -184l-123 -82l-92 194l-168 -194l-103 82l164 184z" />
<glyph unicode="+" horiz-adv-x="1146" d="M104 569l39 201h375l76 387h203l-78 -387h375l-39 -201h-373l-76 -387h-200l73 387h-375z" />
<glyph unicode="," horiz-adv-x="432" d="M-51 -289l10 121q58 10 104 55t64 105q-65 -15 -102.5 22t-22.5 113q10 58 50.5 90.5t94.5 32.5q71 0 100 -55.5t11 -147.5q-11 -56 -35 -108.5t-61 -101t-92 -82.5t-121 -44z" />
<glyph unicode="-" horiz-adv-x="694" d="M49 420l41 201h551l-41 -201h-551z" />
<glyph unicode="." horiz-adv-x="423" d="M2 131q10 53 50.5 86t92.5 33q61 0 95 -42t22 -106q-10 -54 -50.5 -86t-92.5 -32q-62 0 -95.5 41t-21.5 106z" />
<glyph unicode="/" horiz-adv-x="829" d="M-49 0l852 1464h201l-852 -1464h-201z" />
<glyph unicode="0" horiz-adv-x="1275" d="M83 522.5q3 94.5 23 198.5q29 152 86.5 280t142.5 229t205 158.5t263 57.5q99 0 178.5 -27t133 -77.5t88.5 -119t49 -153t10.5 -179t-23.5 -198.5q-30 -152 -87.5 -279.5t-142.5 -228.5t-205 -158t-263 -57q-99 0 -177.5 27t-132 77t-89 118t-49 152.5t-10.5 179z M312.5 527q-5.5 -73 3 -141.5t35 -114t78 -72.5t126.5 -27t139.5 28.5t113.5 78t88.5 119.5t66.5 150t45 173q18 91 23.5 165t-3 142.5t-34.5 114t-77 73t-126 27.5q-94 0 -171 -43t-131.5 -120.5t-92 -173.5t-60.5 -214q-18 -92 -23.5 -165z" />
<glyph unicode="1" horiz-adv-x="722" d="M117 944l18 170q92 0 164 23t119.5 66t77.5 96t49 122h190l-276 -1421h-238l203 1022q-29 -24 -61 -39.5t-53.5 -23.5t-64 -11.5t-58 -3.5h-70.5z" />
<glyph unicode="2" horiz-adv-x="1163" d="M-49 6q63 335 467 572q38 21 105.5 57.5t98 53.5t81.5 47.5t75 49.5t57.5 49t50.5 56t32.5 60.5t23.5 72.5q10 41 1 80.5t-30 70t-66 49.5t-108 19q-282 0 -348 -323h-229q23 117 70.5 211t120 165.5t177 110.5t234.5 39q209 0 329.5 -120t82.5 -320q-18 -90 -66 -167.5 t-114.5 -135t-144 -108t-159.5 -96.5t-155 -89.5t-137 -97.5t-99 -111h717l-39 -201z" />
<glyph unicode="3" horiz-adv-x="1163" d="M29 487l227 -8q-28 -146 43.5 -226.5t235.5 -80.5q278 0 323 201q15 75 5 126t-45.5 82.5t-81.5 45.5t-103 14h-133l37 188h112q114 0 193 53t100 154q19 91 -39 149t-176 58q-281 0 -334 -256l-227 8q40 206 188 328.5t394 122.5q99 0 185 -27.5t148 -78t90 -128.5 t9 -172q-41 -201 -262 -292l-15 -3q254 -77 193 -391q-36 -188 -185.5 -286.5t-380.5 -98.5q-275 0 -411.5 139t-89.5 379z" />
<glyph unicode="4" horiz-adv-x="1196" d="M8 322l41 221l838 872h239l-174 -893h199l-37 -200h-201l-63 -322h-236l64 322h-670zM272 522h443l119 586z" />
<glyph unicode="5" horiz-adv-x="1142" d="M14 410h234q-8 -104 49 -171t192 -67q136 0 234.5 80.5t130.5 226.5q29 135 -31.5 211t-191.5 76q-90 0 -170 -33t-137 -96h-242l303 778h817l-41 -201h-635l-145 -370q131 110 330 110q137 0 232.5 -64t133 -176.5t10.5 -252.5q-29 -151 -118.5 -264t-216 -170.5 t-271.5 -57.5q-128 0 -226.5 36.5t-154.5 98.5t-78.5 140.5t-7.5 165.5z" />
<glyph unicode="6" horiz-adv-x="1198" d="M73 473q3 111 29 244q69 356 247 542.5t442 186.5q196 0 307 -112.5t100 -270.5h-231q5 88 -41.5 138t-149.5 50q-320 0 -426 -483q70 81 169.5 124.5t213.5 43.5q215 0 322.5 -134.5t66.5 -348.5q-41 -209 -203.5 -346.5t-390.5 -137.5q-123 0 -213.5 36.5t-143 102 t-77 160t-21.5 205.5zM301 455q-27 -125 37.5 -208t202.5 -83q135 0 230.5 80.5t121.5 214.5q26 130 -33.5 206t-183.5 76q-139 0 -244 -80.5t-131 -205.5z" />
<glyph unicode="7" horiz-adv-x="1071" d="M141 0q33 171 115.5 357t188.5 345.5t225 293.5t231 218h-737l41 201h999l-30 -186q-184 -130 -349 -336t-278.5 -439.5t-157.5 -453.5h-248z" />
<glyph unicode="8" horiz-adv-x="1196" d="M31 414q13 68 44.5 124t77.5 96.5t94 69t107 52.5l15 4q-181 107 -140 313q33 174 182 273.5t357 99.5q217 0 334 -108.5t82 -293.5q-37 -184 -246 -288l-14 -4q246 -118 198 -367q-26 -135 -116 -230.5t-217.5 -140.5t-282.5 -45q-119 0 -215 29t-161.5 83.5t-92 140 t-6.5 192.5zM270 420q-25 -122 50.5 -189t218.5 -67q145 0 237.5 66.5t114.5 177.5q24 121 -51.5 187.5t-218.5 66.5q-145 0 -237.5 -66.5t-113.5 -175.5zM449 1057q-22 -109 40 -162t183 -53q120 0 193.5 52.5t92.5 147.5q21 106 -41 160.5t-180 54.5q-121 0 -195 -53.5 t-93 -146.5z" />
<glyph unicode="9" horiz-adv-x="1212" d="M72 352h231q-5 -88 41.5 -138t149.5 -50q320 0 426 483q-70 -81 -169.5 -124.5t-213.5 -43.5q-213 0 -321.5 135t-68.5 349q42 210 204 346.5t390 136.5q123 0 213.5 -36.5t143 -102t77 -160t21.5 -205.5t-29 -244q-69 -356 -246.5 -542.5t-441.5 -186.5 q-196 0 -307 112.5t-100 270.5zM377 956q-25 -130 34 -206t183 -76q140 0 244.5 81t130.5 206q27 125 -37.5 207.5t-202.5 82.5q-135 0 -230.5 -80.5t-121.5 -214.5z" />
<glyph unicode=":" horiz-adv-x="432" d="M6 131q10 53 49.5 86t91.5 33q61 0 95.5 -42.5t21.5 -105.5q-10 -54 -50 -86t-91 -32q-63 0 -96.5 41t-20.5 106zM127 760q10 53 50 85t93 32q61 0 95 -41t22 -105q-10 -55 -50 -87t-93 -32q-61 0 -95 41t-22 107z" />
<glyph unicode=";" horiz-adv-x="440" d="M-49 -289l10 121q59 10 105.5 55t64.5 105q-66 -15 -104 22t-23 113q12 58 52 90.5t94 32.5q72 0 100.5 -55t9.5 -148q-11 -56 -35 -108.5t-61 -101t-92 -82.5t-121 -44zM131 760q10 53 49.5 85t91.5 32q61 0 95 -41t24 -105q-12 -56 -51.5 -87.5t-91.5 -31.5 q-62 0 -96 41t-21 107z" />
<glyph unicode="&#x3c;" horiz-adv-x="1036" d="M98 524l43 224l906 350l-39 -203l-709 -258v-4l608 -256l-39 -201z" />
<glyph unicode="=" horiz-adv-x="1142" d="M70 358l39 201h940l-41 -201h-938zM139 719l39 201h940l-39 -201h-940z" />
<glyph unicode="&#x3e;" horiz-adv-x="1036" d="M37 176l37 201l706 256v4l-606 258l39 203l768 -350l-43 -224z" />
<glyph unicode="?" horiz-adv-x="1054" d="M119 1004q35 225 183 358t398 133q133 0 234.5 -52t149.5 -145t28 -206q-7 -41 -21.5 -76.5t-40 -66.5t-47.5 -53t-62 -48.5t-63.5 -40.5t-70.5 -41q-117 -65 -172 -138t-84 -212h-207q24 165 76.5 261t171.5 177q28 19 72 44t74 43t62 43t52.5 57.5t28.5 72.5 q13 78 -45.5 128t-161.5 50q-265 0 -322 -288h-233zM285 131q10 54 50 86.5t93 32.5q61 0 95 -42t22 -106q-10 -54 -50.5 -86t-93.5 -32q-62 0 -95 41t-21 106z" />
<glyph unicode="@" horiz-adv-x="1792" d="M63 276q-34 156 5 349q44 227 188 418t362 305t461 114q111 0 208 -22t172 -62t135.5 -97t98.5 -127t60.5 -151.5t21.5 -170.5t-18 -185q-21 -109 -59 -194.5t-83.5 -139t-101 -88.5t-108 -49t-107.5 -14q-100 0 -166.5 46t-91.5 126l-8 -12q-114 -152 -297 -152 q-150 0 -226.5 118.5t-37.5 319.5q39 202 168 326.5t283 124.5q102 0 166.5 -49.5t80.5 -122.5l7 6l49 151h188l-166 -520q-70 -207 72 -207q98 0 172.5 91t107.5 262q19 109 11.5 205t-49 175t-106.5 135.5t-162.5 88t-217.5 31.5q-154 0 -299 -59t-255 -157t-186.5 -226.5 t-103.5 -266.5q-38 -195 17 -345t189.5 -231t326.5 -81q212 0 383 65l45 -137q-179 -86 -432 -86q-188 0 -335.5 59.5t-237.5 169.5t-124 266zM649 569q-20 -105 11.5 -167t123.5 -62q120 0 202 89.5t108 229.5q24 113 -15.5 171.5t-122.5 58.5q-114 0 -196 -89t-111 -231z " />
<glyph unicode="A" horiz-adv-x="1355" d="M-88 0l821 1464h258l250 -1464h-244l-51 346h-598l-186 -346h-250zM455 549h463l-95 692h-4z" />
<glyph unicode="B" horiz-adv-x="1325" d="M18 0l285 1464h623q226 0 334 -101q82 -76 82 -198q0 -40 -9 -84q-42 -217 -276 -293l-15 -4q122 -22 186 -116q44 -64 44 -159q0 -44 -10 -95q-39 -203 -189.5 -308.5t-382.5 -105.5h-672zM303 207h395q278 0 328 250q6 30 6 57q0 66 -36 106q-50 56 -167 56h-434z M430 858h371q127 0 196 53.5t90 159.5q6 26 6 49q1 56 -33 90q-46 48 -157 47h-395z" />
<glyph unicode="C" horiz-adv-x="1413" d="M81 494q-2 27 -2 54q0 95 19 200q42 216 156.5 385t287.5 265.5t376 96.5q138 0 246.5 -42.5t174 -116t95.5 -171.5q24 -76 24 -160q0 -25 -2 -51h-237q0 332 -320 332q-117 0 -215 -46.5t-166.5 -127t-114 -180t-67.5 -213.5q-18 -90 -18 -169q0 -76 19 -144 q19 -70 58 -119.5t106 -79t156 -29.5q100 0 184 31t140.5 83.5t94 111t57.5 124.5h241q-74 -254 -265.5 -406.5t-461.5 -152.5q-126 0 -229 37.5t-173 106.5t-113.5 166t-50.5 215z" />
<glyph unicode="D" horiz-adv-x="1398" d="M18 0l285 1464h563q306 0 444 -196q92 -131 92 -334q0 -100 -22 -217q-67 -345 -270.5 -531t-507.5 -186h-584zM303 207h307q96 0 176 29t137 77.5t101.5 118.5t72 146.5t44.5 166.5q17 86 20 158v23q0 60 -13 116q-16 67 -53 113.5t-105 74t-163 27.5h-319z" />
<glyph unicode="E" d="M18 0l285 1464h1059l-39 -207h-815l-78 -397h715l-39 -209h-717l-86 -444h836l-41 -207h-1080z" />
<glyph unicode="F" horiz-adv-x="1200" d="M18 0l285 1464h1024l-39 -207h-780l-84 -426h633l-41 -208h-631l-123 -623h-244z" />
<glyph unicode="G" horiz-adv-x="1499" d="M100 748q41 216 155.5 384.5t291 265.5t387.5 97q137 0 242 -37.5t168.5 -105t93.5 -156.5q28 -81 28 -176v-19l-237 15q-3 131 -83 200.5t-228 69.5q-120 0 -222.5 -48t-173 -130t-117 -180.5t-67.5 -208.5q-17 -84 -18 -159v-8q0 -72 18 -139q18 -71 56.5 -122 t107.5 -82t162 -31q174 0 319 114.5t180 285.5l-415 -7l38 197h660l-150 -768h-166l-12 201l-6 -6q-96 -113 -212.5 -169.5t-268.5 -56.5q-208 0 -344.5 101t-183.5 276q-24 91 -24 195q0 98 21 207z" />
<glyph unicode="H" horiz-adv-x="1423" d="M18 0l285 1464h244l-117 -606h692l117 606h244l-285 -1464h-244l127 649h-692l-127 -649h-244z" />
<glyph unicode="I" horiz-adv-x="495" d="M23 0l284 1464h244l-285 -1464h-243z" />
<glyph unicode="J" horiz-adv-x="1036" d="M2 342q2 59 14 125l13 59h231l-16 -73q-10 -55 -14 -93q-1 -15 -1 -30q0 -22 3 -44q5 -37 22.5 -59t52 -35.5t86.5 -13.5q68 0 118.5 21t82.5 62t50.5 90t31.5 116l192 997h244l-197 -1011q-15 -80 -40 -147.5t-68 -131t-100.5 -108t-140 -71t-183.5 -26.5 q-87 0 -154.5 19t-110.5 54.5t-70.5 81t-37.5 102.5q-8 49 -8 100v16z" />
<glyph unicode="K" horiz-adv-x="1345" d="M18 0l285 1464h244l-144 -723l805 723h295l-692 -620l438 -844h-280l-344 674l-277 -242l-86 -432h-244z" />
<glyph unicode="L" horiz-adv-x="1140" d="M18 0l285 1464h244l-244 -1257h731l-41 -207h-975z" />
<glyph unicode="M" horiz-adv-x="1697" d="M18 0l285 1464h315l189 -1126h4l629 1126h315l-285 -1464h-237l217 1110h-2l-604 -1110h-193l-174 1110h-4l-217 -1110h-238z" />
<glyph unicode="N" horiz-adv-x="1423" d="M18 0l285 1464h270l447 -1099h8l211 1099h244l-285 -1464h-268l-449 1096h-4l-215 -1096h-244z" />
<glyph unicode="O" horiz-adv-x="1542" d="M78 494q-2 29 -1 59q0 92 17 195q31 161 107.5 298.5t186 237t253 155.5t303.5 56q220 0 368.5 -100.5t203.5 -276.5q31 -98 31 -212q0 -89 -19 -187q-42 -216 -160.5 -386t-299.5 -267t-394 -97q-132 0 -240 38t-181.5 107t-120 165.5t-54.5 214.5zM316 552q0 -5 1 -10 q0 -74 22 -138q24 -68 66.5 -118.5t115.5 -79t169 -28.5q124 0 229 46t178 126t121.5 180.5t71.5 217.5q14 88 16 167v9q0 74 -23 138q-24 68 -66.5 118t-115.5 78t-169 28q-125 0 -230 -45.5t-178.5 -125t-121.5 -179.5t-70 -217q-14 -87 -16 -167z" />
<glyph unicode="P" horiz-adv-x="1259" d="M18 0l285 1464h617q107 0 189.5 -26.5t138.5 -81.5q58 -56 76 -142q9 -40 8 -86q0 -53 -11 -116q-43 -217 -189.5 -321.5t-367.5 -104.5h-387l-115 -586h-244zM418 795h362q255 0 303 245q7 35 7 64q0 65 -34 101q-49 52 -173 52h-375z" />
<glyph unicode="Q" horiz-adv-x="1519" d="M76 748q31 161 107 299t185.5 237t253.5 155t304 56q133 0 241.5 -37.5t182.5 -106t120.5 -165t53.5 -214.5q2 -28 2 -58q0 -92 -17 -195q-58 -298 -254 -494l142 -170l-166 -143l-146 176q-194 -119 -430 -119q-219 0 -366.5 101t-202.5 278q-30 97 -30 209q0 91 20 191 zM298 552q-1 -5 -1 -10q0 -74 23 -138q25 -69 67.5 -119t115.5 -78.5t169 -28.5q154 0 280 76l-149 184l166 144l151 -181q109 138 152 347q14 88 16 167v9q0 74 -24 138q-24 68 -66.5 118t-116 78t-170.5 28q-124 0 -229 -45.5t-178 -125t-121 -179.5t-70 -217 q-14 -88 -15 -167z" />
<glyph unicode="R" horiz-adv-x="1280" d="M18 0l285 1464h619q228 0 342 -116q86 -87 86 -222q0 -45 -9 -96q-60 -288 -333 -352l-17 -4q66 -13 107.5 -55t55 -99.5t15.5 -124.5q0 -13 1 -27q0 -53 -7 -105q-8 -65 -15 -119q-7 -51 -6 -86q0 -41 15 -46l2 -12l-250 4q-8 12 -9 42v5q0 29 8 67q10 42 16 91t12 99 q2 20 2 39q0 29 -5 57q-8 46 -26.5 82t-61.5 57.5t-106 21.5h-366l-111 -565h-244zM414 774h321q65 0 116 9.5t104 35t90 79t53 132.5q6 33 6 61t-5 49.5t-16.5 38.5t-25 29t-33 21t-39 14.5t-44.5 8.5t-47.5 4t-49.5 1h-336z" />
<glyph unicode="S" horiz-adv-x="1265" d="M14 481h240q-1 -12 -1 -23q-1 -124 89 -199q98 -81 285 -81q143 0 221.5 43t95.5 135q4 24 4.5 44.5t-4 39t-12 34.5t-22 31.5t-29.5 28.5t-39 27t-47.5 26t-58 26.5t-66 27t-76.5 29.5q-82 31 -133 53t-117 64t-100 87q-34 46 -52 114q-10 38 -11 80q0 34 7 71 q16 90 65.5 159t125.5 111.5t169.5 64t203.5 21.5q249 0 391 -124q127 -111 127 -292q0 -22 -2 -45h-240q1 11 1 21q-1 109 -69 167q-74 64 -223 64q-81 0 -144 -14t-108 -49.5t-55 -89.5q-3 -19 -3 -36q0 -22 5 -41q9 -34 28.5 -57.5t57.5 -45.5t75.5 -37.5t94.5 -37.5 q18 -6 27 -10q54 -21 90 -35.5t82 -35t75.5 -37t65 -39t57 -44.5t45 -50t35 -58t19.5 -66q8 -34 8 -73q0 -44 -8 -94q-26 -173 -175 -270t-397 -97q-183 0 -323 61q-141 60 -215 178q-63 99 -62 225q0 23 2 48z" />
<glyph unicode="T" horiz-adv-x="1243" d="M174 1257l39 207h1180l-41 -207h-467l-244 -1257h-244l246 1257h-469z" />
<glyph unicode="U" horiz-adv-x="1361" d="M90 288q-7 40 -7 85q0 64 15 135l185 956h243l-186 -970q-11 -56 -10 -102q0 -90 41 -139q63 -75 229 -75q346 0 410 330l186 956h242l-187 -970q-48 -249 -212 -387t-455 -138q-152 0 -259 39t-162 110t-73 170z" />
<glyph unicode="V" d="M184 1464h260l134 -1202l602 1202h266l-784 -1464h-263z" />
<glyph unicode="W" horiz-adv-x="1878" d="M190 1464h248l29 -1134h4l516 1134h250l76 -1134h4l471 1134h252l-651 -1464h-256l-78 1147h-4l-523 -1147h-258z" />
<glyph unicode="X" horiz-adv-x="1265" d="M-102 0l643 748l-318 716h260l226 -540l442 540h266l-598 -712l346 -752h-278l-238 571l-463 -571h-288z" />
<glyph unicode="Y" d="M172 1464h256l246 -680h2l516 680h264l-694 -882l-115 -582h-244l117 582z" />
<glyph unicode="Z" horiz-adv-x="1245" d="M-47 0l39 207l1024 1046l4 4h-780l39 207h1077l-37 -207l-1024 -1046l-4 -4h844l-43 -207h-1139z" />
<glyph unicode="[" horiz-adv-x="665" d="M-8 -252l350 1808h465l-39 -200h-227l-275 -1407h228l-39 -201h-463z" />
<glyph unicode="\" horiz-adv-x="778" d="M190 1464h193l283 -1464h-193z" />
<glyph unicode="]" horiz-adv-x="669" d="M-86 -252l37 201h227l275 1407h-228l39 200h465l-352 -1808h-463z" />
<glyph unicode="^" horiz-adv-x="935" d="M84 901l465 563h190l244 -563h-217l-156 371h-2l-295 -371h-229z" />
<glyph unicode="_" horiz-adv-x="851" d="M-176 -356l41 200h858l-39 -200h-860z" />
<glyph unicode="`" horiz-adv-x="960" d="M418 1481h248l34 -269h-163z" />
<glyph unicode="a" horiz-adv-x="1067" d="M-4 297q12 61 41.5 108t68 79t100.5 58.5t122.5 43.5t150.5 37q49 11 71.5 16.5t60 15.5t55 17.5t42.5 19.5t36.5 25t22.5 30.5t15 38.5q2 13 2 24q0 40 -26 64q-34 32 -129 31q-131 0 -198 -45.5t-97 -148.5h-207q39 171 164 267.5t348 96.5q92 0 161 -19.5t119.5 -63.5 t65.5 -115q7 -33 7 -74q0 -46 -9 -101l-98 -499q-5 -28 -5 -47q0 -22 7 -34q10 -17 50 -17q11 0 24 1l-21 -100q-52 -24 -115 -24q-163 0 -166 141q-67 -71 -163 -112.5t-207 -41.5q-163 0 -242 89q-58 66 -58 165q0 35 7 74zM211 293q-3 -18 -3 -34q0 -49 29 -79 q39 -42 113 -41q138 0 234 70t125 194l34 152q-48 -36 -225 -72q-149 -30 -221.5 -73.5t-85.5 -116.5z" />
<glyph unicode="b" horiz-adv-x="1155" d="M-2 0l285 1464h215l-105 -544l2 6q58 66 144 107.5t196 41.5q211 0 315 -154q71 -104 71 -256q0 -73 -17 -157q-49 -248 -204 -393.5t-355 -145.5q-114 0 -187 46t-110 112l-8 -6l-27 -121h-215zM315 508q-12 -64 -12 -117q0 -88 33 -149q53 -97 180 -97q141 0 243 113 t134 279q12 58 12 109q1 86 -33 150q-52 102 -184 103q-137 0 -237.5 -105t-135.5 -286z" />
<glyph unicode="c" horiz-adv-x="1069" d="M47 537q48 241 213.5 389.5t392.5 148.5q207 1 315 -117q95 -103 94 -258q0 -21 -1 -43h-209q1 16 1 31q0 30 -5 58q-8 40 -29.5 76t-66.5 56.5t-109 20.5q-154 0 -253.5 -109.5t-131.5 -275.5q-10 -56 -12 -110v-10q0 -48 14 -91q15 -47 41 -82t71 -55.5t105 -20.5 q69 0 126.5 22.5t95 59t61 75t35.5 79.5h215q-48 -182 -197 -297t-346 -115q-238 0 -354 158q-81 110 -81 267q0 67 15 143z" />
<glyph unicode="d" horiz-adv-x="1155" d="M40 300q-6 40 -6 84q0 71 17 153q49 249 203.5 393.5t355.5 144.5q115 0 188 -46t109 -114l8 5l105 544h217l-285 -1464h-217l23 115q-142 -146 -338 -146q-102 0 -183 39.5t-131 112.5t-66 179zM258 326q12 -80 66.5 -130.5t142.5 -50.5q135 0 236.5 106t136.5 286 q12 64 12 117q0 88 -33 148q-53 96 -180 97q-141 0 -243 -112t-134 -279q-10 -58 -10 -110q1 -38 6 -72z" />
<glyph unicode="e" horiz-adv-x="1099" d="M45 555q51 247 211.5 383.5t392.5 136.5q253 0 355 -164q65 -105 65 -260q0 -86 -20 -188h-803q-8 -41 -8 -78q0 -85 44 -149q64 -90 199 -91q65 0 121 19t92.5 48.5t59.5 58.5t34 57h224q-70 -166 -209 -262.5t-330 -96.5q-247 0 -363 164q-81 113 -81 272q0 70 16 150z M276 621h590q6 37 6 69q0 84 -42 139q-60 76 -191 76q-134 0 -236 -81.5t-127 -202.5z" />
<glyph unicode="f" horiz-adv-x="636" d="M82 0l170 870h-150l35 177h150l26 141q31 159 106 225t204 66q56 0 147 -17l-20 -174q-18 1 -34 1q-85 0 -128 -23q-50 -26 -66 -113l-20 -106h194l-34 -177h-195l-170 -870h-215z" />
<glyph unicode="g" horiz-adv-x="1136" d="M-37 -37h211q6 -73 59.5 -113t169.5 -40q140 0 222.5 68.5t111.5 209.5l23 119l-2 -4q-137 -152 -338 -152q-206 0 -312 141q-72 96 -72 242q0 67 15 144q46 236 195.5 366.5t347.5 130.5q207 0 295 -155l10 4l25 123h215l-193 -981q-81 -428 -536 -428q-111 0 -199 28 t-140.5 75t-80 103.5t-27.5 118.5zM262 565q-10 -52 -10 -97q0 -83 34 -145q53 -96 183 -96q138 0 232.5 90.5t127.5 260.5q11 58 11 106q0 83 -33 134q-52 81 -180 81q-144 0 -239.5 -90t-125.5 -244z" />
<glyph unicode="h" horiz-adv-x="1101" d="M-4 0l285 1464h215l-107 -553l4 7q59 69 150.5 113t208.5 44q162 0 246 -93q59 -66 59 -173q0 -44 -10 -94l-140 -715h-217l131 668q8 43 8 77q0 55 -21 91q-34 56 -138 57q-125 0 -218 -72.5t-116 -189.5l-125 -631h-215z" />
<glyph unicode="i" horiz-adv-x="442" d="M10 0l205 1047h215l-205 -1047h-215zM258 1352q10 47 48 72.5t81 25.5q54 0 88 -35q26 -26 26 -65q0 -13 -3 -27q-8 -48 -45.5 -74t-81.5 -26q-55 0 -89 35q-27 27 -26 69q0 12 2 25z" />
<glyph unicode="j" horiz-adv-x="440" d="M-225 -332l16 162q23 -1 43 -1q74 0 106 17q41 23 58 109l213 1092h217l-215 -1102q-29 -154 -89.5 -227.5t-178.5 -73.5q-76 0 -170 24zM256 1352q8 47 46 72.5t83 25.5q54 0 87 -35q26 -27 26 -67q0 -12 -2 -25q-10 -48 -47 -74t-82 -26q-54 0 -88 35q-26 26 -26 67 q0 13 3 27z" />
<glyph unicode="k" horiz-adv-x="1036" d="M-4 0l285 1464h215l-164 -837l506 420h268l-473 -390l309 -657h-252l-229 516l-172 -137l-78 -379h-215z" />
<glyph unicode="l" horiz-adv-x="423" d="M0 0l285 1464h217l-285 -1464h-217z" />
<glyph unicode="m" horiz-adv-x="1667" d="M-4 0l205 1047h215l-27 -136l4 7q134 157 332 157q217 0 250 -188l4 12q172 176 369 176q161 0 229 -94q46 -63 46 -162q0 -48 -11 -104l-142 -715h-217l131 668q13 69 13 118q-1 52 -33 80q-32 26 -100 27q-113 0 -194.5 -72t-104.5 -190l-123 -631h-217l129 668 q14 72 14 122t-32 76.5t-101 26.5q-113 0 -194.5 -72t-104.5 -190l-125 -631h-215z" />
<glyph unicode="n" horiz-adv-x="1101" d="M-4 0l205 1047h215l-27 -136l4 7q59 69 151.5 113t213.5 44q158 1 240 -93q58 -66 59 -173q0 -44 -10 -94l-140 -715h-217l131 668q8 42 8 76q1 56 -21 92q-34 57 -136 57q-128 0 -220.5 -72.5t-115.5 -189.5l-125 -631h-215z" />
<glyph unicode="o" horiz-adv-x="1138" d="M39 508q48 253 225 410t426 157q238 1 346 -147q76 -103 76 -254q0 -64 -14 -137q-48 -252 -225 -410t-424 -158q-239 1 -348 149q-76 104 -76 253q0 64 14 137zM262 537q-18 -73 -18 -135q0 -86 34 -148q59 -110 214 -109q144 0 243.5 99.5t141.5 263.5q17 72 17 132 q0 86 -34 150q-58 108 -211 109q-146 0 -246.5 -99.5t-140.5 -262.5z" />
<glyph unicode="p" horiz-adv-x="1157" d="M-70 -356l275 1403h215l-25 -123l2 6q141 145 342 145q207 0 312 -154q71 -104 71 -257q0 -72 -16 -156q-49 -248 -203.5 -393.5t-353.5 -145.5q-117 0 -190 46t-109 116l-10 -6l-93 -481h-217zM317 508q-13 -66 -13 -120q0 -87 32 -146q54 -97 180 -97 q142 0 243.5 112.5t135.5 279.5q10 56 10 105q0 89 -33 154q-52 103 -184 103q-135 0 -235.5 -105t-135.5 -286z" />
<glyph unicode="q" horiz-adv-x="1157" d="M51 537q48 248 202.5 393t352.5 145q117 0 190.5 -45t110.5 -110l8 4l25 123h217l-272 -1403h-217l94 481l-2 -4q-133 -152 -344 -152q-207 0 -312 155q-70 105 -70 255q0 74 17 158zM258 326q12 -80 66.5 -130.5t142.5 -50.5q135 0 236.5 106t136.5 286q12 64 12 117 q0 88 -33 148q-53 97 -180 97q-141 0 -243 -112t-134 -279q-10 -58 -10 -110q0 -37 6 -72z" />
<glyph unicode="r" horiz-adv-x="727" d="M-4 0l205 1047h215l-39 -197l4 6q131 215 309 215q59 0 98 -8l-32 -201q-31 5 -61 5q-116 0 -219 -77q-129 -97 -161 -262l-104 -528h-215z" />
<glyph unicode="s" horiz-adv-x="991" d="M-8 342h209v-8q0 -86 65 -139q68 -56 211 -56q94 0 147.5 34t61.5 91q3 17 3 31q0 25 -8 45q-12 30 -51.5 52.5t-73 34.5t-105.5 32q-59 17 -101 33t-95 46t-85 65q-30 35 -48 89q-12 36 -12 77q0 21 3 44q13 122 124 192t287 70q107 0 190.5 -27.5t133.5 -74.5t75 -105 t25 -123h-205q2 68 -54.5 114t-170.5 46q-86 0 -137 -26.5t-57 -73.5q-2 -12 -1 -23q-1 -25 7 -43q12 -27 42.5 -45.5t65.5 -31.5t91 -29q7 -2 12 -3.5t10 -2.5q66 -20 113.5 -38t100 -49.5t83 -67.5t46.5 -90q9 -33 9 -70q0 -24 -4 -50q-13 -100 -74 -167.5t-149.5 -96.5 t-202.5 -29q-237 0 -359 103.5t-122 269.5z" />
<glyph unicode="t" horiz-adv-x="641" d="M102 870l35 177h152l65 329h215l-63 -329h196l-34 -177h-197l-113 -573q-5 -26 -5 -46q0 -13 2 -23q6 -26 26.5 -38t56.5 -14h27q28 0 63 2l-22 -178q-66 -14 -146 -14q-138 0 -194 72q-36 47 -36 130q0 46 11 103l113 579h-152z" />
<glyph unicode="u" horiz-adv-x="1099" d="M51 330l139 717h218l-132 -670q-8 -41 -8 -74q0 -57 22 -93q36 -56 138 -56q127 0 219.5 72.5t114.5 189.5l125 631h215l-205 -1047h-215l27 133l-2 -4q-140 -160 -367 -160q-158 0 -240 94q-58 67 -59 173q0 44 10 94z" />
<glyph unicode="v" horiz-adv-x="987" d="M98 1047h224l106 -820h2l424 820h229l-573 -1047h-244z" />
<glyph unicode="w" horiz-adv-x="1538" d="M104 1047h224l59 -795h4l367 795h211l61 -795h4l367 795h229l-524 -1047h-217l-68 799h-4l-379 -799h-217z" />
<glyph unicode="x" horiz-adv-x="1056" d="M-102 0l495 535l-252 512h240l166 -369h4l309 369h248l-455 -512l287 -535h-248l-190 393h-4l-346 -393h-254z" />
<glyph unicode="y" horiz-adv-x="1032" d="M-39 -334l27 162l10 -2q26 -4 50 -4q105 0 169 69q42 35 67 95q18 42 18 88q0 20 -3 41l-201 932h228l137 -801h4l424 801h233l-632 -1119q-40 -71 -71 -114.5t-75.5 -86.5t-100 -63t-126.5 -20q-72 0 -158 22z" />
<glyph unicode="z" horiz-adv-x="964" d="M-51 0l28 160l703 706l2 4h-526l34 177h816l-27 -144l-717 -723l-2 -4h598l-35 -176h-874z" />
<glyph unicode="{" horiz-adv-x="667" d="M59 553l27 201q133 -3 168 180l43 231q20 102 50 172.5t66 113.5t91 66.5t112 31t142 7.5h51l-39 -200h-39q-158 0 -199 -199l-55 -289q-16 -84 -55.5 -133t-106.5 -82l-14 -4q120 -70 90 -225l-55 -283q-22 -112 5.5 -152t102.5 -40h52l-39 -201h-37q-69 0 -119.5 6.5 t-94 23.5t-69.5 47t-40.5 75.5t-13 110t18.5 149.5l45 223q9 53 9 90.5t-23.5 58.5t-73.5 21z" />
<glyph unicode="|" horiz-adv-x="120" d="M-160 -268l348 1798h170l-348 -1798h-170z" />
<glyph unicode="}" horiz-adv-x="669" d="M-88 -252l37 201h39q160 0 200 205l56 282q17 86 55.5 135.5t106.5 81.5l14 4q-121 69 -90 224l55 290q21 106 -7.5 145.5t-103.5 39.5h-51l39 200h39q59 0 103.5 -4.5t85 -16t67 -31t46.5 -50t27.5 -73t4.5 -100t-17 -130.5l-45 -229q-9 -53 -9.5 -90.5t22.5 -58 t73 -19.5l-26 -201q-73 0 -111 -48t-55 -134l-43 -226q-20 -103 -50 -173.5t-66.5 -114.5t-91 -68t-112.5 -32.5t-143 -8.5h-49z" />
<glyph unicode="~" horiz-adv-x="854" d="M72 539q25 131 86.5 201.5t154.5 70.5q57 0 104.5 -22t82 -44t61.5 -22q48 0 77 30.5t34 65.5l162 -14q-27 -131 -89 -202t-153 -71q-57 0 -104.5 23t-83 45.5t-62.5 22.5q-47 0 -75 -30.5t-36 -66.5z" />
<glyph unicode="&#xa1;" horiz-adv-x="505" d="M-23 -266l76 387l187 667h120l-71 -667l-76 -387h-236zM225 1096q10 54 50 86t92 32q61 0 95 -41t21 -106q-10 -53 -49.5 -86t-91.5 -33q-61 0 -95.5 42.5t-21.5 105.5z" />
<glyph unicode="&#xa2;" horiz-adv-x="1069" d="M45 537q44 225 193.5 371t357.5 165l27 139h122l-26 -141q174 -20 264 -134t76 -280h-209q4 43 -2 81.5t-24 72.5t-53.5 57t-86.5 29l-145 -745q54 9 99.5 33.5t75.5 58t49.5 67.5t29.5 70h215q-45 -172 -182.5 -286t-321.5 -124l-31 -159h-123l33 163 q-199 28 -290.5 181t-47.5 381zM248 352.5q6 -74.5 49.5 -130t118.5 -70.5l143 739q-120 -28 -197.5 -131t-105.5 -246q-14 -87 -8 -161.5z" />
<glyph unicode="&#xa3;" horiz-adv-x="1128" d="M-10 176q98 50 172 143.5t100 204.5q11 25 8 58h-180l35 182h111l-6 20q-6 20 -6.5 22.5t-5.5 22t-6 25t-4.5 24t-3.5 28.5t-1 28t0.5 32t3.5 32t6 36q11 54 33.5 106.5t66.5 106.5t102 94.5t145.5 66.5t191.5 26q106 0 188 -25t134 -69.5t83 -105.5t34 -134.5 t-11 -155.5h-234q54 287 -211 287q-122 0 -196.5 -64.5t-96.5 -167.5q-7 -37 -7.5 -71t5.5 -65.5t11.5 -50.5t15.5 -48h319l-18 -182h-274q0 -27 -5 -56q-36 -180 -188 -290q81 34 148 34q59 0 108 -22t93.5 -44t92.5 -22q42 0 86.5 16t73.5 33t76 50l68 -191 q-90 -62 -159 -91.5t-155 -29.5q-63 0 -117.5 20t-87 43.5t-76.5 43.5t-87 20q-65 0 -123.5 -22.5t-153.5 -77.5z" />
<glyph unicode="&#xa4;" horiz-adv-x="856" d="M-80 352l158 135q-43 98 -21 236q29 129 105 219l-103 123l131 115l105 -125q106 63 233 63q133 0 217 -71l158 131l101 -113l-162 -135q46 -97 20 -236q-24 -124 -102 -217l104 -125l-135 -114l-100 122q-106 -63 -236 -63q-132 0 -219 74l-158 -133zM244 700 q-23 -123 19.5 -185t142.5 -62q99 0 173 70t97 192q24 122 -18.5 185t-141.5 63t-173.5 -70.5t-98.5 -192.5z" />
<glyph unicode="&#xa5;" horiz-adv-x="1202" d="M72 262l24 123h353l22 117h-352l24 123h322l-285 780h254l203 -637h4l449 637h264l-588 -780h317l-24 -123h-352l-23 -117h352l-24 -123h-353l-51 -262h-235l51 262h-352z" />
<glyph unicode="&#xa6;" horiz-adv-x="108" d="M-207 -268l150 770h170l-150 -770h-170zM-2 786l145 744h168l-143 -744h-170z" />
<glyph unicode="&#xa7;" horiz-adv-x="1214" d="M75.5 612q0.5 27 6.5 56q41 207 287 274q-72 110 -47 248q28 136 145.5 220.5t310.5 84.5q111 0 190.5 -29.5t120.5 -80.5t56 -113t4 -135l-213 12q6 33 2.5 64.5t-16 56.5t-51.5 40t-103 15q-203 0 -231 -145q-7 -38 7.5 -74.5t51 -70.5t68 -57.5t80.5 -55.5 q26 -17 38 -25q14 -8 43 -25q79 -46 117 -69.5t93 -66t77.5 -77.5t36 -85t2.5 -107q-44 -211 -285 -274q70 -110 45 -248q-26 -136 -143.5 -220.5t-312.5 -84.5q-110 0 -190 29.5t-121.5 80.5t-56 113.5t-3.5 134.5l213 -12q-1 -27 -3 -52t6.5 -47.5t25 -39.5t51.5 -27 t86 -10q205 0 233 145q6 29 -3.5 58.5t-24 51.5t-46.5 50t-52.5 43t-61.5 42.5t-55 37.5q-24 14 -70 40q-38 21 -56.5 31.5t-51.5 30.5t-49 32l-42 31.5t-38 35t-29 36.5t-23.5 41.5t-12.5 44.5t-5.5 51zM293 668q-6 -30 7.5 -59.5t38 -54.5t70.5 -57t88.5 -58t110.5 -68 t119 -76q182 41 207 172q7 36 -8 66t-58 62.5t-90 61.5t-131 81t-155 102q-95 -19 -141.5 -62t-57.5 -110z" />
<glyph unicode="&#xa8;" horiz-adv-x="1021" d="M381 1378q8 45 42.5 76t84.5 31q61 0 89 -39t17 -96q-8 -43 -42 -73t-83 -30q-62 0 -90.5 38t-17.5 93zM731 1378q8 45 42 76t83 31q61 0 90.5 -39.5t18.5 -95.5q-8 -43 -42.5 -73t-84.5 -30q-61 0 -89.5 38t-17.5 93z" />
<glyph unicode="&#xa9;" horiz-adv-x="1619" d="M102 793q29 151 105 280t187.5 223t261 147.5t317.5 53.5q230 0 388.5 -108t219 -296t14.5 -423q-39 -202 -156.5 -360.5t-302.5 -250.5t-409 -92q-230 0 -389 107.5t-220.5 295.5t-15.5 423zM207 764q-39 -195 14 -357t189 -257t329 -95q148 0 278.5 50.5t225.5 138 t159.5 204t90.5 250.5q38 197 -11.5 358.5t-181.5 257t-323 95.5q-150 0 -283 -50.5t-231 -138t-164 -204.5t-92 -252zM432 745q39 199 173 323t325 124q117 0 199 -47t115.5 -120.5t25.5 -162.5h-178q2 25 -4 50.5t-22.5 53.5t-54.5 46t-93 18q-246 0 -306 -313 q-14 -58 -10.5 -109.5t20.5 -90t59 -61t105 -22.5q60 0 108.5 18.5t77.5 48.5t44.5 54t25.5 49h181q-38 -145 -158 -238.5t-287 -93.5q-205 0 -296 129.5t-50 343.5z" />
<glyph unicode="&#xab;" horiz-adv-x="800" d="M39 403l41 226l342 252l-39 -209l-213 -154l-2 -4l151 -154l-36 -208zM426 403l39 226l342 252l-39 -209l-213 -154l-2 -4l152 -154l-37 -208z" />
<glyph unicode="&#xac;" horiz-adv-x="1118" d="M129 635l41 201h858l-108 -547h-230l68 346h-629z" />
<glyph unicode="&#xad;" horiz-adv-x="694" d="M49 420l41 201h551l-41 -201h-551z" />
<glyph unicode="&#xae;" horiz-adv-x="1046" d="M131 1036q40 208 189.5 334.5t359.5 126.5q103 0 191.5 -42t146 -112.5t81.5 -169.5t3 -206q-40 -208 -189.5 -334.5t-359.5 -126.5q-103 0 -191.5 42t-146 112.5t-81.5 169.5t-3 206zM219 1008q-33 -170 69.5 -292t268.5 -122q183 0 301.5 106.5t155.5 294.5 q16 84 -4 161.5t-67 132.5t-117.5 87.5t-151.5 32.5q-182 0 -300.5 -107t-154.5 -294zM377 741l104 529h219q83 0 125 -45t27 -121q-18 -97 -113 -119l-16 -2q33 -6 49.5 -32.5t15.5 -59t-3.5 -66t-7 -55t4.5 -25.5l6 -4l-100 4q-7 8 -1.5 29.5t7.5 51t1 56.5t-21 45.5 t-60 18.5h-96l-39 -205h-102zM537 1034h84q117 0 133 86q3 18 -1 30.5t-10.5 18.5t-22.5 9t-25.5 3.5t-32.5 0.5h-99z" />
<glyph unicode="&#xaf;" horiz-adv-x="1013" d="M379 1270l31 164h546l-30 -164h-547z" />
<glyph unicode="&#xb0;" horiz-adv-x="737" d="M179.5 1106q-2.5 46 4.5 94q11 54 40 105t73 94t108 69.5t136 26.5q100 0 166.5 -49.5t88.5 -122t7 -152.5q-11 -54 -40.5 -105.5t-73 -95t-106.5 -70t-134 -26.5q-62 0 -112.5 19t-82 51t-52 74t-23 88zM326 1192q-17 -86 23.5 -133t117.5 -47q76 0 128.5 47.5 t66.5 120.5q17 86 -24 132t-118 46q-75 0 -127.5 -47t-66.5 -119z" />
<glyph unicode="&#xb1;" horiz-adv-x="1144" d="M-6 0l35 176h952l-37 -176h-950zM117 627l39 200h374l64 330h203l-66 -330h375l-39 -200h-373l-65 -330h-203l66 330h-375z" />
<glyph unicode="&#xb4;" horiz-adv-x="1003" d="M530 1212l140 269h254l-222 -269h-172z" />
<glyph unicode="&#xb6;" horiz-adv-x="1146" d="M158 1083q36 182 155.5 281.5t315.5 99.5h575l-284 -1464h-164l254 1294h-154l-252 -1294h-164l135 686h-86q-197 0 -282.5 103t-48.5 294z" />
<glyph unicode="&#xb7;" horiz-adv-x="421" d="M104 649q10 53 50 86t92 33q62 0 96.5 -41.5t22.5 -105.5q-10 -54 -51 -86.5t-93 -32.5q-62 0 -95.5 41t-21.5 106z" />
<glyph unicode="&#xb8;" horiz-adv-x="1030" d="M84 -340l49 51q65 -26 137 -26q51 0 90.5 23.5t45.5 60.5q4 23 -13 32t-59 9q-48 0 -86 -17l-29 45l141 146h115l-100 -101l-13 -4q50 6 95.5 -5t74 -46.5t19.5 -89.5q-13 -65 -84.5 -103t-161.5 -38q-133 0 -221 63z" />
<glyph unicode="&#xbb;" horiz-adv-x="800" d="M-10 152l37 208l213 154l4 4l-152 154l37 209l242 -252l-39 -226zM377 152l37 208l213 154l4 4l-152 154l35 209l242 -252l-39 -226z" />
<glyph unicode="&#xbf;" horiz-adv-x="1060" d="M-25 106q8 49 31 92.5t47 72t69.5 62t73.5 50t85 49.5q117 65 172 138t84 212h206q-24 -166 -76 -261.5t-171 -176.5q-28 -19 -72 -44t-74 -43t-62 -43t-52.5 -57.5t-28.5 -72.5q-13 -78 45.5 -128t161.5 -50q264 0 321 289h234q-35 -225 -183.5 -358.5t-398.5 -133.5 q-133 0 -234.5 52t-149.5 145t-28 206zM543 1096q10 54 50.5 86t92.5 32q62 0 95.5 -41t21.5 -106q-10 -53 -50.5 -86t-93.5 -33q-61 0 -94.5 42t-21.5 106z" />
<glyph unicode="&#xc0;" horiz-adv-x="1355" d="M-88 0l821 1464h258l250 -1464h-244l-51 346h-598l-186 -346h-250zM455 549h463l-95 692h-4zM680 1901h246l37 -269h-166z" />
<glyph unicode="&#xc1;" horiz-adv-x="1355" d="M-88 0l821 1464h258l250 -1464h-244l-51 346h-598l-186 -346h-250zM455 549h463l-95 692h-4zM799 1632l139 269h256l-223 -269h-172z" />
<glyph unicode="&#xc2;" horiz-adv-x="1355" d="M-88 0l821 1464h258l250 -1464h-244l-51 346h-598l-186 -346h-250zM455 549h463l-95 692h-4zM571 1632l250 269h228l147 -269h-199l-75 162h-4l-140 -162h-207z" />
<glyph unicode="&#xc3;" horiz-adv-x="1355" d="M-88 0l821 1464h258l250 -1464h-244l-51 346h-598l-186 -346h-250zM455 549h463l-95 692h-4zM600 1681q22 112 72.5 162.5t118.5 50.5q45 0 92.5 -18t85 -36.5t59.5 -18.5q36 0 57 24t27 53l135 -12q-43 -213 -188 -213q-46 0 -94.5 18.5t-86.5 37t-59 18.5 q-37 0 -57.5 -24.5t-26.5 -53.5z" />
<glyph unicode="&#xc4;" horiz-adv-x="1355" d="M-88 0l821 1464h258l250 -1464h-244l-51 346h-598l-186 -346h-250zM455 549h463l-95 692h-4zM627 1798q10 44 44.5 74.5t84.5 30.5q60 0 87.5 -38.5t18.5 -95.5q-8 -44 -42.5 -74t-84.5 -30q-61 0 -89 38t-19 95zM977 1798q10 44 44 74.5t83 30.5q61 0 89 -39t17 -95 q-8 -44 -41.5 -74t-83.5 -30q-61 0 -89 38t-19 95z" />
<glyph unicode="&#xc5;" horiz-adv-x="1355" d="M-88 0l821 1464h258l250 -1464h-244l-51 346h-598l-186 -346h-250zM455 549h463l-95 692h-4zM725 1804q15 76 75 125t134 49q84 0 133 -57.5t31 -144.5q-17 -77 -77 -124.5t-134 -47.5q-84 0 -131.5 55.5t-30.5 144.5zM817 1790q-9 -47 12.5 -70.5t61.5 -23.5 q46 0 76.5 27.5t36.5 68.5q9 47 -12.5 70.5t-61.5 23.5q-47 0 -76 -27t-37 -69z" />
<glyph unicode="&#xc6;" horiz-adv-x="2029" d="M-84 -2l829 1466h1377l-41 -207h-813l-78 -397h715l-41 -209h-713l-88 -444h835l-40 -207h-1080l68 346h-494l-186 -348h-250zM459 547h426l137 706h-188z" />
<glyph unicode="&#xc7;" horiz-adv-x="1413" d="M98 748q42 216 156.5 385t287.5 265.5t376 96.5q138 0 246.5 -42.5t174 -116t96 -171.5t21.5 -211h-237q0 332 -320 332q-117 0 -215 -46.5t-166.5 -127t-114 -180t-67.5 -213.5q-17 -87 -17.5 -165t18.5 -147.5t58 -119.5t106 -79.5t156 -29.5q100 0 184 31t140.5 83.5 t94 111t57.5 124.5h241q-71 -242 -248 -393t-428 -164l-94 -88l-12 -4q81 10 142.5 -26t45.5 -115q-8 -43 -45 -76t-88.5 -49t-109.5 -16q-137 0 -222 63l50 51q62 -26 137 -26q51 0 90 23.5t45 60.5q4 23 -13 32t-61 9q-43 0 -86 -17l-26 45l135 133q-189 15 -314.5 119 t-170 274.5t-3.5 383.5z" />
<glyph unicode="&#xc8;" d="M18 0l285 1464h1059l-39 -207h-815l-78 -397h715l-39 -209h-717l-86 -444h836l-41 -207h-1080zM662 1901h245l37 -269h-166z" />
<glyph unicode="&#xc9;" d="M18 0l285 1464h1059l-39 -207h-815l-78 -397h715l-39 -209h-717l-86 -444h836l-41 -207h-1080zM780 1632l140 269h256l-224 -269h-172z" />
<glyph unicode="&#xca;" d="M18 0l285 1464h1059l-39 -207h-815l-78 -397h715l-39 -209h-717l-86 -444h836l-41 -207h-1080zM553 1632l250 269h227l148 -269h-199l-76 162h-4l-139 -162h-207z" />
<glyph unicode="&#xcb;" d="M18 0l285 1464h1059l-39 -207h-815l-78 -397h715l-39 -209h-717l-86 -444h836l-41 -207h-1080zM608 1798q10 44 44.5 74.5t84.5 30.5q61 0 88.5 -38.5t18.5 -95.5q-8 -44 -42.5 -74t-84.5 -30q-61 0 -89.5 38.5t-19.5 94.5zM958 1798q10 44 44 74.5t83 30.5 q61 0 89.5 -39t17.5 -95q-8 -44 -41.5 -74t-83.5 -30q-61 0 -89.5 38.5t-19.5 94.5z" />
<glyph unicode="&#xcc;" horiz-adv-x="477" d="M4 0l285 1464h243l-284 -1464h-244zM227 1901h248l35 -269h-166z" />
<glyph unicode="&#xcd;" horiz-adv-x="495" d="M23 0l284 1464h244l-285 -1464h-243zM365 1632l141 269h254l-223 -269h-172z" />
<glyph unicode="&#xce;" horiz-adv-x="495" d="M20 0l285 1464h242l-285 -1464h-242zM135 1632l250 269h227l148 -269h-199l-76 162h-4l-139 -162h-207z" />
<glyph unicode="&#xcf;" horiz-adv-x="509" d="M29 0l284 1464h244l-285 -1464h-243zM201 1798q10 44 43.5 74.5t83.5 30.5q61 0 89 -39t17 -95q-8 -44 -41.5 -74t-83.5 -30q-62 0 -89.5 38t-18.5 95zM551 1798q8 44 42.5 74.5t84.5 30.5q61 0 89 -39t17 -95q-8 -43 -42 -73.5t-83 -30.5q-62 0 -90.5 38.5t-17.5 94.5z " />
<glyph unicode="&#xd0;" horiz-adv-x="1415" d="M35 0l133 680h-129l31 156h129l120 628h564q306 0 444 -196t70 -551q-67 -345 -271 -531t-508 -186h-583zM319 207h308q96 0 176 29t137 77.5t101 118.5t71.5 146.5t44.5 166.5q17 86 20 158t-13 139t-53 113.5t-104.5 74t-162.5 27.5h-320l-82 -421h414l-29 -156h-415z " />
<glyph unicode="&#xd1;" horiz-adv-x="1423" d="M18 0l285 1464h270l447 -1099h8l211 1099h244l-285 -1464h-268l-449 1096h-4l-215 -1096h-244zM633 1681q22 112 71.5 162.5t116.5 50.5q58 0 137.5 -36.5t102.5 -36.5q36 0 56 24t26 53l135 -12q-41 -213 -188 -213q-46 0 -94 18.5t-86.5 37t-59.5 18.5 q-35 0 -55.5 -24.5t-26.5 -53.5z" />
<glyph unicode="&#xd2;" horiz-adv-x="1542" d="M78.5 494.5q-7.5 117.5 15.5 253.5q31 161 107.5 298.5t186 237t253 155.5t303.5 56q220 0 368.5 -100.5t203.5 -276t12 -399.5q-42 -216 -160.5 -386t-299.5 -267t-394 -97q-132 0 -240 38t-181.5 107t-120 166t-54 214.5zM316.5 551.5q-1.5 -79.5 22.5 -148 t66.5 -118.5t115.5 -78.5t169 -28.5q124 0 229 46t178 126t121.5 180.5t71.5 217.5q14 88 15.5 167t-22.5 147t-66.5 118t-115.5 78t-169 28q-125 0 -230 -45.5t-178.5 -125t-121.5 -179.5t-70 -217q-14 -88 -15.5 -167.5zM770 1901h246l35 -269h-166z" />
<glyph unicode="&#xd3;" horiz-adv-x="1542" d="M78.5 494.5q-7.5 117.5 15.5 253.5q31 161 107.5 298.5t186 237t253 155.5t303.5 56q220 0 368.5 -100.5t203.5 -276t12 -399.5q-42 -216 -160.5 -386t-299.5 -267t-394 -97q-132 0 -240 38t-181.5 107t-120 166t-54 214.5zM316.5 551.5q-1.5 -79.5 22.5 -148 t66.5 -118.5t115.5 -78.5t169 -28.5q124 0 229 46t178 126t121.5 180.5t71.5 217.5q14 88 15.5 167t-22.5 147t-66.5 118t-115.5 78t-169 28q-125 0 -230 -45.5t-178.5 -125t-121.5 -179.5t-70 -217q-14 -88 -15.5 -167.5zM889 1632l139 269h254l-221 -269h-172z" />
<glyph unicode="&#xd4;" horiz-adv-x="1542" d="M78.5 494.5q-7.5 117.5 15.5 253.5q31 161 107.5 298.5t186 237t253 155.5t303.5 56q220 0 368.5 -100.5t203.5 -276t12 -399.5q-42 -216 -160.5 -386t-299.5 -267t-394 -97q-132 0 -240 38t-181.5 107t-120 166t-54 214.5zM316.5 551.5q-1.5 -79.5 22.5 -148 t66.5 -118.5t115.5 -78.5t169 -28.5q124 0 229 46t178 126t121.5 180.5t71.5 217.5q14 88 15.5 167t-22.5 147t-66.5 118t-115.5 78t-169 28q-125 0 -230 -45.5t-178.5 -125t-121.5 -179.5t-70 -217q-14 -88 -15.5 -167.5zM662 1632l249 269h228l147 -269h-201l-73 162h-4 l-142 -162h-204z" />
<glyph unicode="&#xd5;" horiz-adv-x="1542" d="M78.5 494.5q-7.5 117.5 15.5 253.5q31 161 107.5 298.5t186 237t253 155.5t303.5 56q220 0 368.5 -100.5t203.5 -276t12 -399.5q-42 -216 -160.5 -386t-299.5 -267t-394 -97q-132 0 -240 38t-181.5 107t-120 166t-54 214.5zM316.5 551.5q-1.5 -79.5 22.5 -148 t66.5 -118.5t115.5 -78.5t169 -28.5q124 0 229 46t178 126t121.5 180.5t71.5 217.5q14 88 15.5 167t-22.5 147t-66.5 118t-115.5 78t-169 28q-125 0 -230 -45.5t-178.5 -125t-121.5 -179.5t-70 -217q-14 -88 -15.5 -167.5zM690 1681q22 112 72 162.5t117 50.5q45 0 93 -18 t86 -36.5t60 -18.5q36 0 56 24t26 53l137 -12q-43 -213 -190 -213q-45 0 -93 18.5t-86.5 37t-60.5 18.5q-35 0 -55.5 -24.5t-26.5 -53.5z" />
<glyph unicode="&#xd6;" horiz-adv-x="1542" d="M78.5 494.5q-7.5 117.5 15.5 253.5q31 161 107.5 298.5t186 237t253 155.5t303.5 56q220 0 368.5 -100.5t203.5 -276t12 -399.5q-42 -216 -160.5 -386t-299.5 -267t-394 -97q-132 0 -240 38t-181.5 107t-120 166t-54 214.5zM316.5 551.5q-1.5 -79.5 22.5 -148 t66.5 -118.5t115.5 -78.5t169 -28.5q124 0 229 46t178 126t121.5 180.5t71.5 217.5q14 88 15.5 167t-22.5 147t-66.5 118t-115.5 78t-169 28q-125 0 -230 -45.5t-178.5 -125t-121.5 -179.5t-70 -217q-14 -88 -15.5 -167.5zM717 1798q10 44 43.5 74.5t83.5 30.5q61 0 89 -39 t17 -95q-8 -44 -41.5 -74t-83.5 -30q-61 0 -89 38t-19 95zM1067 1798q8 44 42.5 74.5t84.5 30.5q61 0 89 -39t17 -95q-8 -44 -41 -74t-83 -30q-62 0 -91 38.5t-18 94.5z" />
<glyph unicode="&#xd7;" horiz-adv-x="1110" d="M74 365l364 303l-245 305l163 143l246 -305l365 305l120 -143l-364 -305l246 -303l-166 -144l-246 303l-362 -303z" />
<glyph unicode="&#xd8;" horiz-adv-x="1550" d="M-35 84l178 152q-124 208 -63 512q31 161 107 299t185.5 237t253.5 155t304 56q159 0 279 -53t194 -148l194 164l68 -74l-203 -174q106 -201 51 -491q-42 -216 -160.5 -386t-299.5 -267t-394 -97q-150 0 -266 49t-190 136l-174 -146zM317 719q-38 -191 13 -330l899 756 q-96 141 -314 141q-124 0 -229 -45.5t-178 -125t-121 -179.5t-70 -217zM375 301q96 -123 301 -123q124 0 229 46t178 126t121.5 180.5t71.5 217.5q33 175 -6 305z" />
<glyph unicode="&#xd9;" horiz-adv-x="1361" d="M90 288q-18 99 8 220l185 956h243l-186 -970q-32 -166 31 -241t229 -75q346 0 410 330l186 956h242l-187 -970q-48 -249 -212 -387t-455 -138q-152 0 -259 39t-162 110t-73 170zM678 1901h248l35 -269h-166z" />
<glyph unicode="&#xda;" horiz-adv-x="1361" d="M90 288q-18 99 8 220l185 956h243l-186 -970q-32 -166 31 -241t229 -75q346 0 410 330l186 956h242l-187 -970q-48 -249 -212 -387t-455 -138q-152 0 -259 39t-162 110t-73 170zM797 1632l141 269h254l-223 -269h-172z" />
<glyph unicode="&#xdb;" horiz-adv-x="1361" d="M90 288q-18 99 8 220l185 956h243l-186 -970q-32 -166 31 -241t229 -75q346 0 410 330l186 956h242l-187 -970q-48 -249 -212 -387t-455 -138q-152 0 -259 39t-162 110t-73 170zM571 1632l248 269h228l147 -269h-199l-73 162h-4l-142 -162h-205z" />
<glyph unicode="&#xdc;" horiz-adv-x="1361" d="M90 288q-18 99 8 220l185 956h243l-186 -970q-32 -166 31 -241t229 -75q346 0 410 330l186 956h242l-187 -970q-48 -249 -212 -387t-455 -138q-152 0 -259 39t-162 110t-73 170zM627 1798q8 44 42.5 74.5t84.5 30.5q61 0 89 -39t17 -95q-8 -43 -42 -73.5t-83 -30.5 q-62 0 -90.5 38.5t-17.5 94.5zM975 1798q10 44 44.5 74.5t84.5 30.5q61 0 89 -39t17 -95q-8 -44 -42.5 -74t-84.5 -30q-61 0 -89 38t-19 95z" />
<glyph unicode="&#xdd;" d="M172 1464h256l246 -680h2l516 680h264l-694 -882l-115 -582h-244l117 582zM748 1632l141 269h254l-221 -269h-174z" />
<glyph unicode="&#xde;" horiz-adv-x="1269" d="M18 0l285 1464h242l-43 -233h372q222 0 333 -113t69 -340q-43 -216 -190.5 -320t-368.5 -104h-387l-70 -354h-242zM371 561h362q255 0 303 246q23 114 -26 165.5t-174 51.5h-375z" />
<glyph unicode="&#xdf;" horiz-adv-x="1073" d="M-4 0l203 1044q42 212 177 331.5t351 119.5q116 0 204.5 -48t131 -137t20.5 -200q-23 -117 -94.5 -187.5t-179.5 -113.5l-14 -2q129 -43 187.5 -152t27.5 -272q-35 -181 -167 -297.5t-298 -116.5q-97 0 -209 33l20 172q124 -42 218 -12t152 101t77 169q16 81 0.5 141 t-56 92t-90 47t-108.5 15h-64l31 164h45q67 0 130 24t112.5 77t64.5 126q16 85 -21 143t-128 58q-135 0 -207 -76t-100 -215l-201 -1028h-215z" />
<glyph unicode="&#xe0;" horiz-adv-x="1067" d="M-4 297q12 61 41.5 108t68 79t100.5 58.5t122.5 43.5t150.5 37q49 11 71.5 16.5t60 15.5t55 17.5t42.5 19.5t36.5 25t22.5 30.5t15 38.5q10 56 -23.5 87.5t-129.5 31.5q-131 0 -198 -45.5t-97 -148.5h-207q39 171 164 267.5t348 96.5q92 0 161 -19.5t119.5 -63.5 t65.5 -115t-2 -175l-98 -499q-11 -60 2 -81.5t74 -15.5l-21 -100q-52 -24 -115 -24q-163 0 -166 141q-67 -71 -163 -112.5t-207 -41.5q-163 0 -242 89t-51 239zM211 293q-13 -71 26 -112.5t113 -41.5q138 0 234 70t125 194l34 152q-48 -36 -225 -72q-149 -30 -221.5 -73.5 t-85.5 -116.5zM463 1481h248l34 -269h-163z" />
<glyph unicode="&#xe1;" horiz-adv-x="1067" d="M-4 297q12 61 41.5 108t68 79t100.5 58.5t122.5 43.5t150.5 37q49 11 71.5 16.5t60 15.5t55 17.5t42.5 19.5t36.5 25t22.5 30.5t15 38.5q10 56 -23.5 87.5t-129.5 31.5q-131 0 -198 -45.5t-97 -148.5h-207q39 171 164 267.5t348 96.5q92 0 161 -19.5t119.5 -63.5 t65.5 -115t-2 -175l-98 -499q-11 -60 2 -81.5t74 -15.5l-21 -100q-52 -24 -115 -24q-163 0 -166 141q-67 -71 -163 -112.5t-207 -41.5q-163 0 -242 89t-51 239zM211 293q-13 -71 26 -112.5t113 -41.5q138 0 234 70t125 194l34 152q-48 -36 -225 -72q-149 -30 -221.5 -73.5 t-85.5 -116.5zM582 1212l141 269h254l-221 -269h-174z" />
<glyph unicode="&#xe2;" horiz-adv-x="1067" d="M-4 297q12 61 41.5 108t68 79t100.5 58.5t122.5 43.5t150.5 37q49 11 71.5 16.5t60 15.5t55 17.5t42.5 19.5t36.5 25t22.5 30.5t15 38.5q10 56 -23.5 87.5t-129.5 31.5q-131 0 -198 -45.5t-97 -148.5h-207q39 171 164 267.5t348 96.5q92 0 161 -19.5t119.5 -63.5 t65.5 -115t-2 -175l-98 -499q-11 -60 2 -81.5t74 -15.5l-21 -100q-52 -24 -115 -24q-163 0 -166 141q-67 -71 -163 -112.5t-207 -41.5q-163 0 -242 89t-51 239zM211 293q-13 -71 26 -112.5t113 -41.5q138 0 234 70t125 194l34 152q-48 -36 -225 -72q-149 -30 -221.5 -73.5 t-85.5 -116.5zM354 1212l250 269h227l148 -269h-197l-77 162l-142 -162h-209z" />
<glyph unicode="&#xe3;" horiz-adv-x="1067" d="M-4 297q12 61 41.5 108t68 79t100.5 58.5t122.5 43.5t150.5 37q49 11 71.5 16.5t60 15.5t55 17.5t42.5 19.5t36.5 25t22.5 30.5t15 38.5q10 56 -23.5 87.5t-129.5 31.5q-131 0 -198 -45.5t-97 -148.5h-207q39 171 164 267.5t348 96.5q92 0 161 -19.5t119.5 -63.5 t65.5 -115t-2 -175l-98 -499q-11 -60 2 -81.5t74 -15.5l-21 -100q-52 -24 -115 -24q-163 0 -166 141q-67 -71 -163 -112.5t-207 -41.5q-163 0 -242 89t-51 239zM211 293q-13 -71 26 -112.5t113 -41.5q138 0 234 70t125 194l34 152q-48 -36 -225 -72q-149 -30 -221.5 -73.5 t-85.5 -116.5zM385 1264q20 111 70.5 162t117.5 51q58 0 137.5 -38t102.5 -38q36 0 56 24.5t26 55.5l135 -15q-44 -213 -188 -213q-58 0 -137.5 38t-102.5 38q-36 0 -57 -26t-25 -54z" />
<glyph unicode="&#xe4;" horiz-adv-x="1067" d="M-4 297q12 61 41.5 108t68 79t100.5 58.5t122.5 43.5t150.5 37q49 11 71.5 16.5t60 15.5t55 17.5t42.5 19.5t36.5 25t22.5 30.5t15 38.5q10 56 -23.5 87.5t-129.5 31.5q-131 0 -198 -45.5t-97 -148.5h-207q39 171 164 267.5t348 96.5q92 0 161 -19.5t119.5 -63.5 t65.5 -115t-2 -175l-98 -499q-11 -60 2 -81.5t74 -15.5l-21 -100q-52 -24 -115 -24q-163 0 -166 141q-67 -71 -163 -112.5t-207 -41.5q-163 0 -242 89t-51 239zM211 293q-13 -71 26 -112.5t113 -41.5q138 0 234 70t125 194l34 152q-48 -36 -225 -72q-149 -30 -221.5 -73.5 t-85.5 -116.5zM412 1378q8 45 42.5 76t84.5 31q61 0 89 -39t17 -96q-8 -43 -42 -73t-83 -30q-62 0 -90.5 38t-17.5 93zM762 1378q8 45 42 76t83 31q62 0 90.5 -39t17.5 -96q-8 -43 -42.5 -73t-84.5 -30q-61 0 -89 38t-17 93z" />
<glyph unicode="&#xe5;" horiz-adv-x="1067" d="M-4 297q12 61 41.5 108t68 79t100.5 58.5t122.5 43.5t150.5 37q49 11 71.5 16.5t60 15.5t55 17.5t42.5 19.5t36.5 25t22.5 30.5t15 38.5q10 56 -23.5 87.5t-129.5 31.5q-131 0 -198 -45.5t-97 -148.5h-207q39 171 164 267.5t348 96.5q92 0 161 -19.5t119.5 -63.5 t65.5 -115t-2 -175l-98 -499q-11 -60 2 -81.5t74 -15.5l-21 -100q-52 -24 -115 -24q-163 0 -166 141q-67 -71 -163 -112.5t-207 -41.5q-163 0 -242 89t-51 239zM211 293q-13 -71 26 -112.5t113 -41.5q138 0 234 70t125 194l34 152q-48 -36 -225 -72q-149 -30 -221.5 -73.5 t-85.5 -116.5zM510 1386q15 75 75.5 125t133.5 50q84 0 132.5 -57.5t31.5 -145.5q-17 -78 -77 -125t-134 -47q-84 0 -132 56t-30 144zM602 1370q-9 -47 12.5 -70.5t61.5 -23.5q45 0 74.5 28t37.5 70q9 47 -12.5 70.5t-60.5 23.5q-47 0 -75 -27.5t-38 -70.5z" />
<glyph unicode="&#xe6;" horiz-adv-x="1796" d="M-4 297q12 61 41.5 108t68 79t100.5 58.5t122.5 43.5t150.5 37q49 11 71.5 16.5t60 15.5t55 17.5t42.5 19.5t36.5 25t22.5 30.5t15 38.5q10 56 -23.5 87.5t-129.5 31.5q-131 0 -198 -45.5t-97 -148.5h-207q39 171 164 267.5t348 96.5q243 0 319 -133q157 133 390 133 q253 0 354.5 -164t44.5 -448h-803q-27 -137 37 -227.5t199 -90.5q65 0 121 19t92.5 48.5t59.5 58.5t34 57h223q-70 -166 -209 -262.5t-330 -96.5q-140 0 -240.5 55.5t-152.5 157.5q-175 -213 -477 -213q-168 0 -250.5 89t-54.5 239zM211 293q-13 -71 26 -112.5t113 -41.5 q138 0 234 70t125 194l34 152q-48 -36 -225 -72q-149 -30 -221.5 -73.5t-85.5 -116.5zM975 621h590q23 131 -37 207.5t-191 76.5q-133 0 -235 -81t-127 -203z" />
<glyph unicode="&#xe7;" horiz-adv-x="1069" d="M47 537q48 241 213.5 389.5t392.5 148.5q206 0 314.5 -117.5t93.5 -300.5h-209q4 48 -4 88.5t-29.5 76.5t-66.5 56.5t-109 20.5q-154 0 -253.5 -109.5t-131.5 -275.5q-10 -57 -11.5 -110.5t13.5 -100.5t41 -82t71 -55.5t105 -20.5q69 0 126.5 22.5t95 59t61 75t35.5 79.5 h215q-46 -174 -185.5 -288t-326.5 -124l-90 -86l-13 -4q50 6 95.5 -5t74 -46.5t19.5 -89.5q-13 -65 -84.5 -103t-161.5 -38q-133 0 -221 63l49 51q65 -26 139 -26q49 0 88.5 23.5t46.5 60.5q3 23 -14 32t-59 9q-48 0 -86 -17l-29 45l139 135q-201 26 -294.5 180t-49.5 384z " />
<glyph unicode="&#xe8;" horiz-adv-x="1099" d="M45 555q51 247 211.5 383.5t392.5 136.5q253 0 355 -164t45 -448h-803q-27 -137 36.5 -227.5t198.5 -90.5q65 0 121 19t92.5 48.5t59.5 58.5t34 57h224q-70 -166 -209 -262.5t-330 -96.5q-247 0 -363.5 164t-64.5 422zM276 621h590q23 132 -36.5 208t-190.5 76 q-134 0 -236 -81.5t-127 -202.5zM471 1481h246l35 -269h-164z" />
<glyph unicode="&#xe9;" horiz-adv-x="1099" d="M45 555q51 247 211.5 383.5t392.5 136.5q253 0 355 -164t45 -448h-803q-27 -137 36.5 -227.5t198.5 -90.5q65 0 121 19t92.5 48.5t59.5 58.5t34 57h224q-70 -166 -209 -262.5t-330 -96.5q-247 0 -363.5 164t-64.5 422zM276 621h590q23 132 -36.5 208t-190.5 76 q-134 0 -236 -81.5t-127 -202.5zM590 1212l139 269h254l-219 -269h-174z" />
<glyph unicode="&#xea;" horiz-adv-x="1099" d="M45 555q51 247 211.5 383.5t392.5 136.5q253 0 355 -164t45 -448h-803q-27 -137 36.5 -227.5t198.5 -90.5q65 0 121 19t92.5 48.5t59.5 58.5t34 57h224q-70 -166 -209 -262.5t-330 -96.5q-247 0 -363.5 164t-64.5 422zM276 621h590q23 132 -36.5 208t-190.5 76 q-134 0 -236 -81.5t-127 -202.5zM362 1212l248 269h228l147 -269h-197l-75 162h-4l-140 -162h-207z" />
<glyph unicode="&#xeb;" horiz-adv-x="1099" d="M45 555q51 247 211.5 383.5t392.5 136.5q253 0 355 -164t45 -448h-803q-27 -137 36.5 -227.5t198.5 -90.5q65 0 121 19t92.5 48.5t59.5 58.5t34 57h224q-70 -166 -209 -262.5t-330 -96.5q-247 0 -363.5 164t-64.5 422zM276 621h590q23 132 -36.5 208t-190.5 76 q-134 0 -236 -81.5t-127 -202.5zM418 1378q8 45 42.5 76t84.5 31q61 0 89 -39t17 -96q-8 -44 -41.5 -73.5t-83.5 -29.5q-61 0 -90 38t-18 93zM768 1378q8 45 42.5 76t84.5 31q61 0 89 -39t17 -96q-8 -44 -41 -73.5t-83 -29.5q-62 0 -91 38t-18 93z" />
<glyph unicode="&#xec;" horiz-adv-x="411" d="M-8 0l205 1047h217l-205 -1047h-217zM121 1481h248l34 -269h-163z" />
<glyph unicode="&#xed;" horiz-adv-x="428" d="M-4 0l205 1047h215l-205 -1047h-215zM244 1212l139 269h254l-219 -269h-174z" />
<glyph unicode="&#xee;" horiz-adv-x="479" d="M29 0l204 1047h216l-205 -1047h-215zM47 1212l250 269h227l148 -269h-197l-78 162h-4l-137 -162h-209z" />
<glyph unicode="&#xef;" horiz-adv-x="524" d="M55 0l205 1047h217l-205 -1047h-217zM133 1378q8 45 41.5 76t83.5 31q61 0 89.5 -39t19.5 -96q-8 -43 -42.5 -73t-84.5 -30q-61 0 -89.5 38t-17.5 93zM481 1378q8 45 42.5 76t84.5 31q61 0 89.5 -39.5t17.5 -95.5q-8 -44 -41.5 -73.5t-83.5 -29.5q-61 0 -90.5 38 t-18.5 93z" />
<glyph unicode="&#xf0;" horiz-adv-x="1146" d="M45 541q33 166 123.5 290.5t210 187t250.5 62.5q98 0 171.5 -44.5t108.5 -116.5l11 14q-19 151 -136 295l-325 -86l-8 106l251 68q-69 72 -188 149l268 -4q62 -36 123 -102l266 74l11 -107l-203 -53q205 -286 133 -670q-19 -97 -53.5 -186t-90 -172.5t-126.5 -144.5 t-168 -97.5t-209 -36.5q-250 0 -360 156t-60 418zM256 512q-30 -159 25.5 -260.5t191.5 -101.5q148 0 258 111.5t143 279.5q32 156 -29.5 258t-199.5 102q-146 0 -251 -110t-138 -279z" />
<glyph unicode="&#xf1;" horiz-adv-x="1101" d="M-4 0l205 1047h215l-27 -136l4 7q59 69 151.5 113t213.5 44q158 0 240.5 -93.5t48.5 -266.5l-140 -715h-217l131 668q21 111 -13.5 168t-135.5 57q-128 0 -220.5 -72.5t-115.5 -189.5l-125 -631h-215zM414 1264q22 112 71.5 162.5t116.5 50.5q45 0 93 -19t86.5 -38 t60.5 -19q36 0 56 24.5t26 55.5l135 -15q-41 -213 -189 -213q-45 0 -92.5 19t-86 38t-60.5 19q-36 0 -57 -26t-25 -54z" />
<glyph unicode="&#xf2;" horiz-adv-x="1138" d="M39 508q48 253 225 410t426 157q238 0 346 -147.5t62 -390.5q-48 -252 -225 -410t-424 -158q-239 0 -348 148.5t-62 390.5zM262 537q-43 -173 16 -282.5t214 -109.5q144 0 243.5 99.5t141.5 263.5q41 174 -17.5 282.5t-210.5 108.5q-146 0 -246.5 -99.5t-140.5 -262.5z M487 1481h248l35 -269h-164z" />
<glyph unicode="&#xf3;" horiz-adv-x="1138" d="M39 508q48 253 225 410t426 157q238 0 346 -147.5t62 -390.5q-48 -252 -225 -410t-424 -158q-239 0 -348 148.5t-62 390.5zM262 537q-43 -173 16 -282.5t214 -109.5q144 0 243.5 99.5t141.5 263.5q41 174 -17.5 282.5t-210.5 108.5q-146 0 -246.5 -99.5t-140.5 -262.5z M606 1212l142 269h253l-221 -269h-174z" />
<glyph unicode="&#xf4;" horiz-adv-x="1138" d="M39 508q48 253 225 410t426 157q238 0 346 -147.5t62 -390.5q-48 -252 -225 -410t-424 -158q-239 0 -348 148.5t-62 390.5zM262 537q-43 -173 16 -282.5t214 -109.5q144 0 243.5 99.5t141.5 263.5q41 174 -17.5 282.5t-210.5 108.5q-146 0 -246.5 -99.5t-140.5 -262.5z M379 1212l250 269h227l148 -269h-197l-78 162h-4l-137 -162h-209z" />
<glyph unicode="&#xf5;" horiz-adv-x="1138" d="M39 508q48 253 225 410t426 157q238 0 346 -147.5t62 -390.5q-48 -252 -225 -410t-424 -158q-239 0 -348 148.5t-62 390.5zM262 537q-43 -173 16 -282.5t214 -109.5q144 0 243.5 99.5t141.5 263.5q41 174 -17.5 282.5t-210.5 108.5q-146 0 -246.5 -99.5t-140.5 -262.5z M410 1264q20 111 70.5 162t117.5 51q58 0 137.5 -38t102.5 -38q36 0 56 24.5t26 55.5l135 -15q-44 -213 -189 -213q-45 0 -92.5 19t-86 38t-60.5 19q-36 0 -57 -26t-25 -54z" />
<glyph unicode="&#xf6;" horiz-adv-x="1138" d="M39 508q48 253 225 410t426 157q238 0 346 -147.5t62 -390.5q-48 -252 -225 -410t-424 -158q-239 0 -348 148.5t-62 390.5zM262 537q-43 -173 16 -282.5t214 -109.5q144 0 243.5 99.5t141.5 263.5q41 174 -17.5 282.5t-210.5 108.5q-146 0 -246.5 -99.5t-140.5 -262.5z M436 1378q8 45 42.5 76t84.5 31q61 0 89.5 -39.5t17.5 -95.5q-8 -43 -42 -73t-83 -30q-62 0 -91 38t-18 93zM786 1378q8 45 42 76t83 31q62 0 91 -39t18 -96q-8 -43 -42.5 -73t-84.5 -30q-61 0 -89.5 38t-17.5 93z" />
<glyph unicode="&#xf7;" horiz-adv-x="1146" d="M104 569l41 201h951l-41 -201h-951zM397 322q10 54 47.5 82t96.5 28q69 0 102 -37.5t21 -101.5q-10 -53 -48 -82t-96 -29q-70 0 -103.5 37.5t-19.5 102.5zM537 1042q22 111 145 111q67 0 100 -37.5t21 -101.5q-9 -53 -47 -82t-97 -29q-69 0 -101.5 37t-20.5 102z" />
<glyph unicode="&#xf8;" horiz-adv-x="1177" d="M-45 55l121 103q-78 138 -37 350q48 253 225 410t426 157q220 0 328 -127l141 119l66 -76l-152 -127q63 -135 25 -327q-48 -252 -225 -410t-424 -158q-199 0 -312 107l-117 -99zM256 307l594 500q-63 92 -201 92q-146 0 -246.5 -99.5t-140.5 -262.5q-32 -138 -6 -230z M305 217q66 -72 187 -72q144 0 243.5 99.5t141.5 263.5q27 112 12 201z" />
<glyph unicode="&#xf9;" horiz-adv-x="1097" d="M49 330l139 717h215l-129 -670q-46 -223 150 -223q128 0 220.5 72.5t115.5 189.5l123 631h217l-205 -1047h-217l29 133l-5 -4q-59 -70 -151 -115t-213 -45q-158 0 -240.5 94t-48.5 267zM455 1481h247l35 -269h-164z" />
<glyph unicode="&#xfa;" horiz-adv-x="1097" d="M49 330l139 717h215l-129 -670q-46 -223 150 -223q128 0 220.5 72.5t115.5 189.5l123 631h217l-205 -1047h-217l29 133l-5 -4q-59 -70 -151 -115t-213 -45q-158 0 -240.5 94t-48.5 267zM573 1212l142 269h254l-221 -269h-175z" />
<glyph unicode="&#xfb;" horiz-adv-x="1097" d="M49 330l139 717h215l-129 -670q-46 -223 150 -223q128 0 220.5 72.5t115.5 189.5l123 631h217l-205 -1047h-217l29 133l-5 -4q-59 -70 -151 -115t-213 -45q-158 0 -240.5 94t-48.5 267zM346 1212l250 269h227l148 -269h-197l-78 162h-4l-137 -162h-209z" />
<glyph unicode="&#xfc;" horiz-adv-x="1097" d="M49 330l139 717h215l-129 -670q-46 -223 150 -223q128 0 220.5 72.5t115.5 189.5l123 631h217l-205 -1047h-217l29 133l-5 -4q-59 -70 -151 -115t-213 -45q-158 0 -240.5 94t-48.5 267zM403 1378q8 45 42.5 76t84.5 31q61 0 89.5 -39.5t17.5 -95.5q-8 -43 -42 -73 t-83 -30q-62 0 -91 38t-18 93zM754 1378q8 45 42 76t83 31q61 0 90 -39.5t18 -95.5q-8 -43 -42.5 -73t-84.5 -30q-61 0 -89 38t-17 93z" />
<glyph unicode="&#xfd;" horiz-adv-x="1032" d="M-39 -334l27 162l10 -2q140 -19 219 65q42 35 67.5 95t14.5 129l-201 932h228l137 -801h4l424 801h233l-632 -1119q-40 -71 -71 -114.5t-75.5 -86.5t-100 -63t-126.5 -20q-72 0 -158 22zM547 1212l141 269h254l-221 -269h-174z" />
<glyph unicode="&#xfe;" horiz-adv-x="1153" d="M-72 -356l353 1820h215l-109 -553l4 7q135 157 344 157q208 0 312.5 -154t54.5 -413q-49 -247 -203.5 -393t-351.5 -146q-225 0 -299 174l-8 -4l-97 -495h-215zM313 508q-32 -169 21 -266t180 -97q141 0 243 113t134 279q31 157 -21.5 259.5t-183.5 102.5 q-137 0 -237.5 -105t-135.5 -286z" />
<glyph unicode="&#xff;" horiz-adv-x="1032" d="M-39 -334l27 162l10 -2q140 -19 219 65q42 35 67.5 95t14.5 129l-201 932h228l137 -801h4l424 801h233l-632 -1119q-40 -71 -71 -114.5t-75.5 -86.5t-100 -63t-126.5 -20q-72 0 -158 22zM377 1378q8 45 42 76t83 31q62 0 90.5 -39t17.5 -96q-8 -43 -42.5 -73t-84.5 -30 q-61 0 -89 38t-17 93zM727 1378q8 45 41.5 76t83.5 31q61 0 90.5 -39.5t18.5 -95.5q-8 -43 -42.5 -73t-84.5 -30q-61 0 -89.5 38t-17.5 93z" />
<glyph unicode="&#x152;" horiz-adv-x="2193" d="M85 437q-20 143 15 311q41 214 149.5 384.5t265.5 266.5t333 96q236 0 348 -154l29 123h1059l-39 -207h-815l-78 -397h714l-38 -209h-717l-86 -444h835l-41 -207h-1079l27 113q-163 -144 -389 -144q-138 0 -244.5 58.5t-167.5 162.5t-81 247zM319 551.5 q-2 -77.5 15 -147.5t53.5 -119t101 -78t152.5 -29q105 0 201.5 52.5t169.5 150.5l145 715q-71 190 -276 190q-114 0 -209 -45.5t-160 -125.5t-108.5 -179t-65.5 -217q-17 -90 -19 -167.5z" />
<glyph unicode="&#x153;" horiz-adv-x="1947" d="M41 508q48 253 225 410t426 157q264 0 367 -180q171 180 438 180q253 0 354.5 -164t44.5 -448h-802q-27 -137 36.5 -227.5t198.5 -90.5q65 0 121 19t92.5 48.5t59.5 58.5t34 57h224q-70 -166 -209 -262.5t-330 -96.5q-140 0 -239.5 55t-153.5 156q-90 -100 -212 -155.5 t-265 -55.5q-239 0 -348 148.5t-62 390.5zM264 537q-43 -173 16 -282.5t214 -109.5q144 0 243.5 99.5t141.5 263.5q41 174 -17.5 282.5t-210.5 108.5q-146 0 -246.5 -99.5t-140.5 -262.5zM1124 621h590q23 132 -36.5 208t-190.5 76q-134 0 -236 -81.5t-127 -202.5z" />
<glyph unicode="&#x178;" d="M172 1464h256l246 -680h2l516 680h264l-694 -882l-115 -582h-244l117 582zM578 1798q8 44 42.5 74.5t84.5 30.5q61 0 89 -39t17 -95q-8 -44 -41.5 -74t-83.5 -30q-62 0 -90.5 38.5t-17.5 94.5zM928 1798q8 44 42.5 74.5t84.5 30.5q61 0 89 -39t17 -95q-8 -43 -42 -73.5 t-83 -30.5q-62 0 -90.5 38.5t-17.5 94.5z" />
<glyph unicode="&#x2c6;" horiz-adv-x="1017" d="M322 1212l249 269h228l147 -269h-196l-78 162h-4l-138 -162h-208z" />
<glyph unicode="&#x2dc;" horiz-adv-x="1028" d="M352 1264q21 112 71 162.5t118 50.5q45 0 92.5 -19t86 -38t60.5 -19q36 0 56 24.5t26 55.5l135 -15q-44 -213 -188 -213q-45 0 -93 19t-86.5 38t-60.5 19q-36 0 -57 -26t-25 -54z" />
<glyph unicode="&#x2000;" horiz-adv-x="989" />
<glyph unicode="&#x2001;" horiz-adv-x="1978" />
<glyph unicode="&#x2002;" horiz-adv-x="989" />
<glyph unicode="&#x2003;" horiz-adv-x="1978" />
<glyph unicode="&#x2004;" horiz-adv-x="659" />
<glyph unicode="&#x2005;" horiz-adv-x="494" />
<glyph unicode="&#x2006;" horiz-adv-x="329" />
<glyph unicode="&#x2007;" horiz-adv-x="329" />
<glyph unicode="&#x2008;" horiz-adv-x="247" />
<glyph unicode="&#x2009;" horiz-adv-x="395" />
<glyph unicode="&#x200a;" horiz-adv-x="109" />
<glyph unicode="&#x2010;" horiz-adv-x="694" d="M49 420l41 201h551l-41 -201h-551z" />
<glyph unicode="&#x2011;" horiz-adv-x="694" d="M49 420l41 201h551l-41 -201h-551z" />
<glyph unicode="&#x2012;" horiz-adv-x="694" d="M49 420l41 201h551l-41 -201h-551z" />
<glyph unicode="&#x2013;" horiz-adv-x="1212" d="M72 420l39 201h1024l-39 -201h-1024z" />
<glyph unicode="&#x2014;" horiz-adv-x="2048" d="M182 418l41 203h1639l-41 -203h-1639z" />
<glyph unicode="&#x2018;" horiz-adv-x="430" d="M201 1135q11 56 35.5 109t61.5 101t92 81.5t120 43.5l-10 -118q-58 -10 -105.5 -56t-62.5 -104q64 15 102 -23t23 -112q-12 -59 -51.5 -91t-92.5 -32q-72 0 -101 54t-11 147z" />
<glyph unicode="&#x2019;" horiz-adv-x="423" d="M180 942l13 121q57 10 103 55t64 105q-65 -15 -102 22t-22 113q10 58 50 90.5t93 32.5q72 0 101.5 -54.5t11.5 -148.5q-11 -56 -35.5 -108.5t-62 -101t-93 -82.5t-121.5 -44z" />
<glyph unicode="&#x201a;" horiz-adv-x="423" d="M-57 -289l10 121q58 10 104 55t64 105q-65 -15 -102.5 22t-22.5 113q10 58 50.5 90.5t94.5 32.5q71 0 99.5 -55.5t9.5 -147.5q-15 -76 -50.5 -144t-103 -123t-153.5 -69z" />
<glyph unicode="&#x201c;" horiz-adv-x="782" d="M205 1135q11 56 34.5 109t60.5 100.5t92.5 81.5t121.5 44l-10 -118q-58 -10 -105.5 -56t-62.5 -104q63 15 100.5 -22.5t24.5 -112.5q-12 -59 -52 -91t-92 -32q-73 0 -101.5 54t-10.5 147zM553 1135q11 56 35.5 109t61.5 101t92 81.5t120 43.5l-10 -118 q-58 -10 -105.5 -56t-62.5 -104q65 15 102.5 -22.5t22.5 -112.5q-12 -59 -51 -91t-92 -32q-72 0 -101.5 54.5t-11.5 146.5z" />
<glyph unicode="&#x201d;" horiz-adv-x="770" d="M178 942l10 121q58 10 105.5 55.5t62.5 104.5q-64 -15 -101 22t-24 113q10 58 50.5 90.5t93.5 32.5q72 0 101 -54.5t11 -148.5q-11 -56 -35 -108.5t-61 -101t-92 -82.5t-121 -44zM526 942l11 121q58 10 105.5 55.5t62.5 104.5q-64 -16 -101 21.5t-22 113.5 q10 58 49.5 90.5t93.5 32.5q71 0 100.5 -55t12.5 -148q-11 -56 -35.5 -108.5t-62 -101t-93 -82.5t-121.5 -44z" />
<glyph unicode="&#x201e;" horiz-adv-x="774" d="M-57 -289l10 121q58 10 104 55t64 105q-65 -15 -102.5 22t-22.5 113q10 58 50.5 90.5t94.5 32.5q71 0 99.5 -55.5t9.5 -147.5q-15 -76 -50.5 -144t-103 -123t-153.5 -69zM293 -289l10 121q58 10 104 55t64 105q-65 -15 -102.5 22t-22.5 113q10 58 50.5 90.5t95.5 32.5 q71 0 99.5 -55t10.5 -148q-11 -56 -35 -108.5t-61 -101t-92 -82.5t-121 -44z" />
<glyph unicode="&#x2022;" horiz-adv-x="653" d="M88 670q21 106 104 179t197 73q126 0 186.5 -81t38.5 -200q-21 -106 -104 -179t-197 -73q-125 0 -187 81.5t-38 199.5z" />
<glyph unicode="&#x2026;" horiz-adv-x="1140" d="M0 131q10 53 49.5 86t91.5 33q61 0 95.5 -42.5t21.5 -105.5q-10 -54 -50 -86t-91 -32q-63 0 -96.5 41t-20.5 106zM360 131q10 53 50 86t92 33q61 0 95 -42t21 -106q-10 -54 -50 -86t-91 -32q-63 0 -96.5 41t-20.5 106zM721 131q10 53 49.5 86t91.5 33q61 0 95.5 -42.5 t21.5 -105.5q-10 -54 -50 -86t-91 -32q-63 0 -96.5 41t-20.5 106z" />
<glyph unicode="&#x202f;" horiz-adv-x="395" />
<glyph unicode="&#x2039;" horiz-adv-x="509" d="M72 403l41 226l364 252l-39 -209l-229 -154l-2 -4l168 -154l-37 -208z" />
<glyph unicode="&#x203a;" horiz-adv-x="514" d="M31 152l37 208l231 154v4l-168 154l39 209l264 -252l-41 -226z" />
<glyph unicode="&#x205f;" horiz-adv-x="494" />
<glyph unicode="&#x20ac;" horiz-adv-x="1320" d="M61 508l23 129h113q1 20 10 74q1 5 4 21t4 26h-109l25 129h121q87 256 254.5 401.5t398.5 145.5q120 0 209.5 -39t140 -108.5t70.5 -159.5t10 -197h-233q16 301 -217 301q-266 0 -398 -344h383l-24 -129h-393q-3 -12 -9 -33.5t-8 -34.5q-6 -48 -6 -53h393l-22 -129h-383 q-5 -158 54.5 -247t193.5 -89q76 0 137.5 28t102.5 77.5t68.5 104.5t45.5 122h235q-68 -251 -222.5 -393t-385.5 -142q-120 0 -212 40t-147.5 112.5t-82 170t-21.5 216.5h-123z" />
<glyph unicode="&#x2122;" horiz-adv-x="1345" d="M213 1339l25 125h489l-25 -125h-176l-84 -440h-137l84 440h-176zM694 899l109 565h190l47 -385l199 385h195l-109 -565h-133l78 406h-2l-203 -406h-117l-41 406h-6l-78 -406h-129z" />
<glyph unicode="&#x25fc;" horiz-adv-x="1044" d="M0 0v1044h1044v-1044h-1044z" />
</font>
</defs>
</svg>
