<?xml version="1.0" standalone="no"?>
<!DOCTYPE svg PUBLIC "-//W3C//DTD SVG 1.1//EN" "http://www.w3.org/Graphics/SVG/1.1/DTD/svg11.dtd" >
<svg xmlns="http://www.w3.org/2000/svg" xmlns:xlink="http://www.w3.org/1999/xlink" version="1.1">
<metadata></metadata>
<defs>
<font id="neue_montreallight_italic" horiz-adv-x="1239" >
<font-face units-per-em="2048" ascent="1581" descent="-467" />
<missing-glyph horiz-adv-x="471" />
<glyph horiz-adv-x="0" />
<glyph horiz-adv-x="682" />
<glyph unicode=" "  horiz-adv-x="471" />
<glyph unicode="&#x09;" horiz-adv-x="471" />
<glyph unicode="&#xa0;" horiz-adv-x="471" />
<glyph unicode="!" horiz-adv-x="409" d="M47 53q6 29 28 45.5t46 16.5t39.5 -16.5t9.5 -45.5t-28 -45t-46 -16t-39.5 16t-9.5 45zM129 377l94 592l96 495h82l-96 -495l-135 -592h-41z" />
<glyph unicode="&#x22;" horiz-adv-x="473" d="M174 1053l80 411h65l-79 -411h-66zM414 1053l80 411h65l-80 -411h-65z" />
<glyph unicode="#" horiz-adv-x="1081" d="M41 467l22 57h191l141 379h-202l20 58h203l166 440h65l-166 -440h322l166 440h65l-166 -440h234l-21 -58h-233l-141 -379h241l-22 -57h-242l-174 -467h-66l174 467h-321l-174 -467h-66l174 467h-190zM319 524h322l141 379h-321z" />
<glyph unicode="$" horiz-adv-x="1167" d="M12 471h66q-3 -174 99.5 -287.5t299.5 -140.5l129 664q-8 3 -39 16q-200 87 -288.5 191t-59.5 235q16 76 60 129.5t110 81.5t139 39.5t164 11.5q35 0 51 -2l27 141h66l-29 -149q170 -29 269.5 -136t78.5 -270h-65q12 147 -67 236t-226 115l-117 -601q221 -97 320.5 -207 t78.5 -245q-26 -165 -147 -240.5t-344 -75.5q-28 0 -58 3l-28 -154h-66l31 160q-214 28 -339 156t-116 329zM285 1141q-12 -63 3 -114t61 -95t109 -81t160 -79l113 580q-16 2 -49 2q-79 0 -142 -10t-118 -33t-90 -66t-47 -104zM543 37q18 -2 55 -2q385 0 416 266 q13 114 -66.5 198t-279.5 179z" />
<glyph unicode="%" horiz-adv-x="1464" d="M143.5 887.5q-6.5 68.5 10.5 146.5q33 165 127 271t235 106q72 0 122.5 -30t73.5 -81t28.5 -119.5t-11.5 -146.5q-31 -165 -125 -271t-235 -106q-72 0 -122.5 30t-73.5 81t-29.5 119.5zM170 0l1110 1403h72l-1110 -1403h-72zM207 918.5q2 -57.5 16.5 -102.5t55 -73 t102.5 -28q61 0 111 27t83 74.5t55 101t34 116.5q14 58 12 115.5t-16 103t-53.5 73.5t-100.5 28q-62 0 -112.5 -27.5t-84.5 -75t-56 -101t-34 -116.5q-14 -58 -12 -115.5zM780 207.5q-6 68.5 11 146.5q31 165 125 271t235 106q72 0 122.5 -30t73.5 -81t29.5 -119.5 t-10.5 -146.5q-33 -165 -126 -271t-234 -106q-72 0 -122.5 30t-74 81t-29.5 119.5zM844 238.5q2 -57.5 16 -102.5t54 -73t102 -28q61 0 111 27t83.5 74.5t55.5 101t34 116.5q14 58 11.5 115.5t-16.5 103t-53.5 73.5t-100.5 28q-62 0 -112.5 -27.5t-84 -74.5t-55 -101.5 t-33.5 -116.5q-14 -58 -12 -115.5z" />
<glyph unicode="&#x26;" horiz-adv-x="1136" d="M25 381q14 69 48 131.5t75.5 109t99.5 91t106.5 73.5t108.5 60q-23 38 -33 55t-28 50t-26 52t-18.5 48.5t-13 52.5t-2.5 51t6 55q21 111 112 194t236 83q134 0 199 -83.5t43 -193.5q-24 -119 -116.5 -208t-268.5 -179l291 -504q102 141 147 312h66q-53 -198 -183 -365 l154 -266h-76l-118 209q-222 -232 -482 -232q-183 0 -272.5 110.5t-54.5 293.5zM90 381q-32 -162 43.5 -254t228.5 -92q235 0 443 225l-299 514q-6 9 -12 21q-60 -30 -103.5 -54.5t-98 -64t-91 -79.5t-68 -96.5t-43.5 -119.5zM414 1210q-11 -53 3.5 -113t31.5 -93.5 t60 -106.5q3 -5 4.5 -8t4 -7t4.5 -8l2 3l64 32t61.5 34t62 40t53.5 43.5t49 52.5t34.5 60t23.5 71q18 91 -32 155.5t-154 64.5q-115 0 -185 -64t-87 -156z" />
<glyph unicode="'" horiz-adv-x="233" d="M182 1053l80 411h66l-80 -411h-66z" />
<glyph unicode="(" horiz-adv-x="487" d="M131 385q4 131 31 264q51 265 167 491.5t263 405.5h65q-163 -206 -270.5 -418.5t-159.5 -478.5q-27 -135 -32.5 -258.5t9.5 -234t40 -203.5t65 -193h-65q-35 83 -60.5 176t-41 205.5t-11.5 243.5z" />
<glyph unicode=")" horiz-adv-x="497" d="M-106 -240q163 205 270.5 416.5t159.5 472.5q27 138 32.5 263.5t-9.5 236t-40 204t-65 193.5h65q36 -84 61 -176t40.5 -204.5t11.5 -245.5t-31 -271q-51 -257 -168 -484.5t-262 -404.5h-65z" />
<glyph unicode="*" horiz-adv-x="696" d="M217 1245l27 45l205 -80l49 254h55l-49 -254l239 80l7 -45l-238 -82l106 -196l-47 -29l-108 203l-184 -203l-35 29l178 196z" />
<glyph unicode="+" horiz-adv-x="1058" d="M125 639l10 57l395 -2l78 416h66l-82 -416l395 2l-10 -57h-395l-80 -416h-66l84 416h-395z" />
<glyph unicode="," horiz-adv-x="249" d="M-84 -205l10 58q69 30 84 139q-29 -9 -45.5 6.5t-9.5 52.5q6 30 26 47t46 17q64 0 41 -111q-3 -22 -10.5 -46.5t-24 -59.5t-47 -63t-70.5 -40z" />
<glyph unicode="-" horiz-adv-x="677" d="M57 494l11 57h548l-10 -57h-549z" />
<glyph unicode="." horiz-adv-x="284" d="M-8 53q6 29 28 45.5t46 16.5t39.5 -16.5t9.5 -45.5t-28 -45t-46 -16t-39.5 16t-9.5 45z" />
<glyph unicode="/" horiz-adv-x="731" d="M-43 0l883 1464h65l-880 -1464h-68z" />
<glyph unicode="0" horiz-adv-x="1161" d="M83.5 477q1.5 108 25.5 230q30 153 86.5 284t137 231.5t190 158t235.5 57.5q101 0 177.5 -37.5t122.5 -104t69 -159t21 -200.5t-26 -230t-64 -230t-98 -200t-130 -158.5t-163 -104t-192 -37.5t-178 37.5t-123 104t-69 158.5t-21.5 200zM149.5 494q-2.5 -100 16.5 -184.5 t58.5 -145.5t106 -95t154.5 -34q110 0 205.5 52t166.5 144.5t122 213t78 262.5q30 140 24.5 262.5t-39 214t-109 144t-185.5 52.5t-206 -52.5t-167.5 -144.5t-122.5 -213t-78 -263q-22 -113 -24.5 -213z" />
<glyph unicode="1" horiz-adv-x="577" d="M123 1051l10 57q152 0 246.5 79.5t122.5 227.5h65l-274 -1415h-66l232 1194q-98 -143 -336 -143z" />
<glyph unicode="2" horiz-adv-x="1038" d="M-41 0q38 198 170.5 339.5t347.5 244.5q15 7 44 21q69 33 103 49.5t90.5 47t86 52t69 55.5t61 66t41.5 74.5t29 90.5q27 141 -51.5 240.5t-236.5 99.5q-174 0 -301.5 -115.5t-161.5 -283.5h-66q17 89 60.5 169.5t109 145.5t159 103.5t200.5 38.5q184 0 286.5 -115.5 t67.5 -294.5q-16 -82 -56 -149.5t-95 -115.5t-122.5 -89.5t-141.5 -77t-148.5 -71t-146 -80t-132 -96t-109.5 -125.5t-75 -163v-4h836l-11 -57h-907z" />
<glyph unicode="3" horiz-adv-x="1054" d="M29 459h65q-36 -185 70 -304.5t315 -119.5q171 0 289 80t145 221q17 87 -2.5 160t-64 119t-102.5 71t-119 25h-154l12 57h146q132 0 234.5 76t129.5 209q12 60 -2.5 117.5t-52 104.5t-106.5 76t-158 29q-95 0 -172.5 -31.5t-128 -85.5t-82 -117t-45.5 -134h-66 q37 190 165 308t333 118q116 0 211 -50t143.5 -141.5t26.5 -202.5q-24 -122 -106 -196.5t-189 -106.5v-4q86 -27 141.5 -89.5t74 -143t-0.5 -168.5q-37 -175 -167.5 -267t-322.5 -92q-235 0 -365.5 131t-94.5 351z" />
<glyph unicode="4" horiz-adv-x="1081" d="M10 373l13 57l905 985h65l-190 -985h215l-12 -57h-215l-72 -373h-66l72 373h-715zM98 430h639l170 881z" />
<glyph unicode="5" horiz-adv-x="997" d="M18 377h66q-24 -157 59 -249.5t260 -92.5q84 0 158.5 22.5t140 68.5t112.5 125t67 185q19 101 3.5 178t-60 128.5t-109.5 77.5t-144 26q-71 0 -138 -18.5t-116.5 -48.5t-84.5 -60t-58 -60h-72l299 756h662l-10 -57h-611l-237 -596v-4q161 145 393 145q134 0 222.5 -64.5 t119.5 -170t6 -232.5q-41 -215 -186.5 -337t-360.5 -122q-114 0 -196.5 34.5t-125 92t-57.5 127t-2 146.5z" />
<glyph unicode="6" horiz-adv-x="1091" d="M98 647q77 394 246.5 592.5t417.5 198.5q162 0 254 -97.5t71 -263.5h-65q17 139 -58 221t-212 82q-210 0 -361.5 -175.5t-226.5 -557.5l-23 -119v-4q25 78 69 141.5t95 104t111 68.5t116.5 39.5t112.5 11.5q203 0 301.5 -126.5t61.5 -324.5q-39 -201 -189 -331t-358 -130 q-237 0 -331 173.5t-32 496.5zM150 306.5q3 -54.5 27.5 -103.5t61.5 -86.5t97.5 -59.5t134.5 -22q181 0 308.5 113t162.5 290q33 174 -48.5 283.5t-258.5 109.5q-56 0 -113.5 -13.5t-116.5 -45t-107.5 -78t-87 -118.5t-54.5 -160q-9 -55 -6 -109.5z" />
<glyph unicode="7" horiz-adv-x="985" d="M184 1360l11 55h921l-8 -49q-121 -79 -226.5 -176.5t-184.5 -195.5t-146 -208.5t-113 -210.5t-84 -207.5t-60.5 -193t-39.5 -174.5h-66q25 129 62.5 255.5t105.5 281.5t155 292.5t218 278.5t287 250v2h-832z" />
<glyph unicode="8" horiz-adv-x="1089" d="M39 393q28 139 127 234.5t244 142.5l2 4q-98 43 -147 121.5t-27 191.5q21 109 93.5 189.5t176 121t223.5 40.5q185 0 287.5 -94t71.5 -257q-22 -113 -101 -191.5t-192 -121.5l-2 -4q126 -47 188.5 -143t34.5 -234q-24 -129 -114.5 -225.5t-209 -143.5t-245.5 -47 q-94 0 -176 28t-141 79t-85 131.5t-8 177.5zM104 393q-31 -160 74.5 -259t280.5 -99q114 0 217.5 42.5t179 125.5t96.5 190q31 156 -74 253t-280 97q-113 0 -217.5 -42t-180 -123t-96.5 -185zM303 1087q-26 -130 61.5 -208t243.5 -78t273 77.5t143 208.5q27 137 -59.5 215 t-243.5 78t-274 -78t-144 -215z" />
<glyph unicode="9" horiz-adv-x="1069" d="M43 338h66q-17 -139 58 -221t212 -82q210 0 361.5 175.5t226.5 557.5l22 115q-33 -95 -92 -166.5t-129.5 -111.5t-141.5 -59.5t-141 -19.5q-203 0 -301 126.5t-59 324.5q39 201 188 331t357 130q238 0 331.5 -173.5t30.5 -496.5q-77 -394 -246.5 -592.5t-416.5 -198.5 q-162 0 -254 97t-72 264zM190 977q-34 -174 47.5 -283.5t258.5 -109.5q72 0 144 23t141 69.5t122 130t74 192.5q8 55 5 109.5t-28 103.5t-62.5 86.5t-98 59.5t-134.5 22q-181 0 -307.5 -113t-161.5 -290z" />
<glyph unicode=":" horiz-adv-x="296" d="M-8 53q6 29 28 45.5t46 16.5t39.5 -16.5t9.5 -45.5t-28 -45t-46 -16t-39.5 16t-9.5 45zM113 676q6 29 27.5 45t45.5 16t40 -16t10 -45t-28 -45.5t-46 -16.5t-39.5 16.5t-9.5 45.5z" />
<glyph unicode=";" horiz-adv-x="301" d="M-80 -205l10 58q69 30 84 139q-29 -9 -45.5 6.5t-9.5 52.5q6 30 26 47t46 17q64 0 41 -111q-3 -22 -10.5 -46.5t-24 -59.5t-47 -63t-70.5 -40zM117 678q6 29 27.5 45t45.5 16t40 -16t10 -45t-27 -45.5t-45 -16.5t-40.5 16.5t-10.5 45.5z" />
<glyph unicode="&#x3c;" horiz-adv-x="993" d="M117 596l14 82l868 342l-12 -66l-794 -315l-3 -4l674 -311l-12 -66z" />
<glyph unicode="=" horiz-adv-x="1044" d="M84 463l10 57h848l-10 -57h-848zM139 752l13 57h847l-12 -57h-848z" />
<glyph unicode="&#x3e;" horiz-adv-x="991" d="M47 258l12 66l793 311l2 4l-672 315l13 66l733 -342l-15 -82z" />
<glyph unicode="?" horiz-adv-x="966" d="M145 1051q17 88 59 165t105 138.5t152.5 97t193.5 35.5q112 0 202.5 -47.5t135 -131t25.5 -180.5q-11 -58 -40.5 -106t-73 -83t-82 -59.5t-87.5 -51.5t-71 -42q-103 -72 -146.5 -156.5t-79.5 -275.5h-65q38 199 94 301t188 195q22 16 65 41t75 45.5t67 49.5t58 67.5 t32 85.5q22 113 -63 202t-244 89q-162 0 -282 -105.5t-152 -273.5h-66zM309 53q6 29 28 45.5t46 16.5t39.5 -16.5t9.5 -45.5t-28 -45t-46 -16t-39.5 16t-9.5 45z" />
<glyph unicode="@" horiz-adv-x="1734" d="M63.5 267q-33.5 146 2.5 325q31 159 104.5 297.5t174.5 239.5t222.5 174t251.5 109t258 36q119 0 225.5 -30t193 -89.5t142.5 -148.5t75.5 -206t-9.5 -263q-43 -230 -168 -378.5t-283 -148.5q-103 0 -145 60.5t-21 152.5q-66 -104 -154.5 -164.5t-189.5 -60.5 q-159 0 -230 114.5t-34 303.5q18 92 61.5 176t105.5 150t147 105.5t178 39.5q108 0 171.5 -65t67.5 -187h2l70 233h57l-186 -579q-36 -101 -7.5 -161t118.5 -60q131 0 233.5 134t140.5 335q31 161 -1 292t-113.5 214.5t-198.5 128.5t-258 45q-122 0 -244.5 -35.5 t-234 -104.5t-204 -164.5t-159 -223t-94.5 -271.5q-42 -218 20 -385.5t213.5 -258.5t366.5 -91q195 0 412 92l14 -58q-212 -92 -438 -92q-174 0 -312 57t-224 161t-119.5 250zM545 590q-31 -162 23.5 -261.5t185.5 -99.5q148 0 258 129.5t149 321.5q28 151 -30.5 237.5 t-172.5 86.5q-81 0 -153.5 -36.5t-123.5 -96.5t-86 -132t-50 -149z" />
<glyph unicode="A" d="M-86 0l846 1464h78l280 -1464h-65l-97 498h-688l-288 -498h-66zM301 555h645l-160 834h-4z" />
<glyph unicode="B" horiz-adv-x="1232" d="M27 0l284 1464h570q199 0 293 -96q69 -70 69 -183q0 -41 -10 -87q-23 -119 -101 -202.5t-202 -121.5l-2 -4q134 -30 198 -126q45 -67 45 -157q0 -38 -8 -81q-41 -207 -183.5 -306.5t-352.5 -99.5h-600zM102 57h529q118 0 211.5 34t162.5 114t93 201q7 39 7 74 q0 100 -62 168q-84 90 -250 91h-557zM248 797h549q139 0 242 84.5t128 216.5q8 38 8 72q-1 92 -57 154q-76 84 -248 83h-503z" />
<glyph unicode="C" horiz-adv-x="1349" d="M102 731q32 165 107 304.5t180.5 239.5t242.5 156t288 56q218 0 342 -126q120 -121 120 -313v-16h-65v18q-1 160 -105 267q-110 113 -303 113q-141 0 -266.5 -53.5t-219.5 -147.5t-160 -221.5t-95 -276.5q-19 -100 -20 -189q0 -91 21 -171q40 -157 159 -246.5t303 -89.5 q107 0 207.5 38.5t177.5 104t134 149.5t87 177h66q-74 -233 -263 -380t-419 -147q-198 0 -331 93q-132 94 -182 266q-26 91 -27 196q0 94 21 199z" />
<glyph unicode="D" horiz-adv-x="1323" d="M25 0l284 1464h525q104 0 186.5 -26.5t139 -75t93.5 -115t52 -149.5q12 -69 12 -146v-30q-3 -94 -23 -197q-31 -156 -93.5 -286.5t-156 -229.5t-224 -154t-285.5 -55h-510zM96 57h447q264 0 445 178t241 490q23 113 23 210q0 37 -3 71q-12 126 -61 215t-142.5 137.5 t-224.5 48.5h-461z" />
<glyph unicode="E" horiz-adv-x="1181" d="M25 0l284 1464h963l-10 -57h-897l-117 -600h825l-12 -57h-825l-136 -693h918l-10 -57h-983z" />
<glyph unicode="F" horiz-adv-x="1124" d="M25 0l284 1464h942l-10 -57h-876l-121 -614h753l-10 -58h-754l-143 -735h-65z" />
<glyph unicode="G" horiz-adv-x="1449" d="M83 487v27q0 101 19 215q31 158 103 295t176.5 240.5t246.5 163t304 59.5q226 0 356 -118q127 -116 127 -316v-6h-65q0 170 -115.5 276.5t-312.5 106.5q-150 0 -280.5 -56.5t-224 -154t-157.5 -222.5t-92 -268q-19 -110 -19 -210v-10q1 -104 34.5 -191t91 -150t150 -98 t212.5 -35q249 0 427 172t234 461h-507l12 57h573l-141 -725h-53l67 387h-4q-74 -177 -237 -293.5t-381 -116.5q-129 0 -231 37.5t-167.5 104.5t-104 161t-41.5 207z" />
<glyph unicode="H" horiz-adv-x="1327" d="M27 0l284 1464h66l-127 -657h936l127 657h65l-284 -1464h-66l146 750h-936l-146 -750h-65z" />
<glyph unicode="I" horiz-adv-x="337" d="M33 0l284 1464h66l-285 -1464h-65z" />
<glyph unicode="J" horiz-adv-x="917" d="M4 373l12 59h66l-12 -59q-9 -49 -9 -91q0 -96 47 -158q67 -89 211 -89q145 0 249 89.5t134 248.5l213 1091h66l-213 -1091q-34 -176 -154.5 -286t-304.5 -110t-261 110q-54 76 -54 185q0 47 10 101z" />
<glyph unicode="K" horiz-adv-x="1208" d="M27 0l284 1464h66l-184 -948l1099 948h86l-725 -626l480 -838h-80l-455 791l-424 -365l-82 -426h-65z" />
<glyph unicode="L" horiz-adv-x="1069" d="M27 0l284 1464h66l-275 -1407h840l-10 -57h-905z" />
<glyph unicode="M" horiz-adv-x="1619" d="M27 0l284 1464h97l311 -1376h4l850 1376h96l-285 -1464h-65l266 1368h-4l-842 -1368h-69l-308 1368h-4l-266 -1368h-65z" />
<glyph unicode="N" horiz-adv-x="1345" d="M27 0l284 1464h82l668 -1372h4l266 1372h66l-285 -1464h-82l-668 1368h-4l-266 -1368h-65z" />
<glyph unicode="O" horiz-adv-x="1468" d="M100 733q42 218 159 389.5t289.5 268t371.5 96.5q198 0 334 -97q136 -96 186 -268q28 -94 27 -201q0 -89 -19 -188q-43 -218 -160 -390t-290 -269t-371 -97t-333.5 97t-185.5 269q-27 93 -28 199q0 91 20 191zM156 448q22 -128 84.5 -220t165 -142.5t231.5 -50.5 q172 0 327.5 86.5t266.5 246.5t151 365q18 91 18 172q0 59 -10 113q-22 128 -84.5 220t-165 142t-231.5 50q-172 0 -327 -86t-266 -246t-150 -365q-19 -92 -19 -175q0 -57 9 -110z" />
<glyph unicode="P" horiz-adv-x="1155" d="M25 0l284 1464h520q395 0 395 -302q0 -52 -12 -113q-83 -416 -544 -416h-455l-123 -633h-65zM225 690h473q180 0 296.5 88.5t152.5 270.5q10 53 10 99q0 109 -58 171q-82 88 -261 88h-473z" />
<glyph unicode="Q" horiz-adv-x="1421" d="M84 733q42 218 158.5 389.5t289 268t371.5 96.5t334 -96.5t186 -268.5q28 -94 28 -202q0 -89 -19 -187q-36 -183 -124.5 -333.5t-217.5 -252.5l151 -188l-53 -45l-156 192q-194 -129 -422 -129q-198 0 -333 97t-185 269q-28 93 -28 199q0 91 20 191zM140 448 q23 -129 85 -220.5t164.5 -142t231.5 -50.5q200 0 374 117l-131 163l54 45l135 -167q116 94 198 233t115 307q18 91 18 172q0 59 -10 113q-22 129 -84.5 220.5t-165 141.5t-231.5 50q-172 0 -327 -86t-266 -246t-150 -365q-19 -92 -19 -175q0 -57 9 -110z" />
<glyph unicode="R" horiz-adv-x="1198" d="M27 0l284 1464h574q206 0 304 -102q70 -73 69 -197q0 -51 -11 -110q-30 -155 -135.5 -253t-263.5 -126v-4q74 -9 122 -48.5t67 -97t25 -124.5q4 -40 4 -79q0 -27 -2 -55q-4 -66 -8 -122q-3 -36 -3 -63q1 -16 1 -29q2 -37 17 -42l-2 -12h-72q-13 12 -13 55t5.5 100 t9.5 124q1 20 1 39q0 46 -6 92q-10 64 -34.5 117t-81.5 85.5t-143 32.5h-518l-125 -645h-65zM229 702h469q186 0 318.5 91.5t165.5 261.5q10 53 10 98q0 109 -62 169q-88 85 -294 85h-469z" />
<glyph unicode="S" horiz-adv-x="1167" d="M18 471h66q-2 -28 -2 -54q0 -171 109 -269q126 -112 372 -113q209 0 327.5 78t129.5 209q2 27 2 51q0 29 -3 53q-6 45 -33.5 84.5t-54 66t-91.5 61.5t-114.5 58t-152.5 68q-105 46 -173.5 86.5t-121 93t-70.5 116.5q-10 36 -9 76q0 32 6 68q13 77 57 133t112 88t148 47 t176 15q137 0 246.5 -47.5t171.5 -143.5q49 -77 49 -173q0 -25 -4 -52h-65q2 19 2 38q0 92 -42 160q-50 82 -144 121.5t-224 39.5q-114 0 -200.5 -23t-145.5 -76.5t-72 -134.5q-6 -34 -5 -63q0 -39 9 -71q17 -56 80 -103.5t118 -75t178 -80.5q9 -4 14 -6q124 -53 200 -96.5 t134 -100t78 -126.5q13 -45 13 -99q0 -30 -4 -62q-20 -166 -157.5 -251t-374.5 -85q-123 0 -225 31t-176.5 90.5t-110.5 155.5q-26 70 -26 154q0 31 3 63z" />
<glyph unicode="T" horiz-adv-x="1167" d="M188 1407l11 57h1110l-11 -57h-522l-274 -1407h-66l275 1407h-523z" />
<glyph unicode="U" horiz-adv-x="1275" d="M104 508l187 956h65l-186 -956q-15 -80 -16 -146q0 -132 62 -210q92 -117 323 -117q463 0 553 473l186 956h65l-186 -956q-103 -531 -629 -531q-441 0 -441 372q0 72 17 159z" />
<glyph unicode="V" horiz-adv-x="1187" d="M178 1464h68l256 -1347h2l780 1347h68l-846 -1464h-51z" />
<glyph unicode="W" horiz-adv-x="1769" d="M190 1464h68l96 -1358h2l656 1358h82l127 -1358h2l624 1358h68l-674 -1464h-76l-131 1358h-4l-659 -1358h-76z" />
<glyph unicode="X" horiz-adv-x="1134" d="M-88 0l674 748l-357 716h78l324 -655h2l579 655h78l-635 -716l383 -748h-77l-353 686h-2l-616 -686h-78z" />
<glyph unicode="Y" horiz-adv-x="1140" d="M166 1464h76l340 -792h4l651 792h76l-711 -864l-117 -600h-65l117 600z" />
<glyph unicode="Z" horiz-adv-x="1196" d="M-43 0l10 57l1241 1346l2 4h-940l11 57h1024l-11 -57l-1243 -1346l-2 -4h1000l-11 -57h-1081z" />
<glyph unicode="[" horiz-adv-x="516" d="M10 -240l348 1786h291l-12 -57h-225l-324 -1671h225l-12 -58h-291z" />
<glyph unicode="\" horiz-adv-x="677" d="M188 1464h66l313 -1464h-67z" />
<glyph unicode="]" horiz-adv-x="516" d="M-84 -240l12 58h226l323 1671h-225l12 57h291l-348 -1786h-291z" />
<glyph unicode="^" horiz-adv-x="778" d="M88 901l438 563h72l221 -563h-69l-199 502h-2l-389 -502h-72z" />
<glyph unicode="_" horiz-adv-x="759" d="M-172 -340l10 57h776l-10 -57h-776z" />
<glyph unicode="`" horiz-adv-x="927" d="M469 1477h84l92 -254h-59z" />
<glyph unicode="a" horiz-adv-x="1007" d="M4 281q26 127 130 194.5t323 104.5q25 5 68.5 11t70.5 10.5t63 12.5t59.5 21t48 31.5t39.5 47.5t23 66q6 27 6 51q0 75 -54 121q-71 62 -210 62q-295 0 -362 -258h-62q84 311 435 311q167 1 250 -83q59 -59 59 -163q0 -42 -10 -92l-101 -518q-2 -9 -6.5 -28t-6 -29.5 l-4 -28t0 -27.5t7 -22.5t15 -18t26 -10.5t39 -3t54.5 7l-10 -53q-39 -8 -70 -8q-77 0 -105 42q-17 25 -16 71q0 30 7 69h-4q-79 -99 -192 -147t-230 -48q-153 0 -231 83q-58 61 -57 152q0 33 7 69zM66 274q-7 -33 -6 -62q0 -76 45 -120q63 -62 206 -61q151 0 280 96.5 t150 194.5l60 311q-7 -11 -17 -20.5t-25.5 -17.5t-27.5 -14t-35.5 -12.5t-37.5 -10t-44.5 -9t-44.5 -7.5t-51 -8t-51 -8q-83 -13 -145.5 -31t-118.5 -47t-90.5 -72.5t-46.5 -101.5z" />
<glyph unicode="b" horiz-adv-x="1067" d="M2 0l285 1464h61l-133 -688h4q74 131 189.5 211t261.5 80q194 0 294 -147q68 -99 68 -246q0 -70 -16 -152q-50 -251 -206.5 -398t-350.5 -147q-144 0 -229.5 80t-110.5 205h-4l-52 -262h-61zM166 522q-15 -75 -15 -139q0 -127 58 -217q87 -134 246 -135q180 0 317 132 t182 359q15 77 15 142q1 130 -57 218q-86 132 -267 132q-159 0 -297.5 -135t-181.5 -357z" />
<glyph unicode="c" horiz-adv-x="995" d="M53 563q47 242 198.5 373t371.5 131q88 0 161 -32.5t119 -84.5t71 -114.5t25 -126.5h-61q0 38 -10.5 78t-36 81.5t-61.5 73.5t-93 52t-125 20q-199 0 -330 -127t-169 -330q-11 -52 -11 -103v-26q4 -64 18 -122t45.5 -108.5t73 -87.5t99.5 -58t125 -21q85 0 158.5 30 t122 78t79.5 100t45 105h62q-42 -155 -171.5 -261t-305.5 -106q-142 0 -245 77q-102 78 -144 212q-24 77 -24 163q0 65 13 134z" />
<glyph unicode="d" horiz-adv-x="1067" d="M51 522q32 167 117 292.5t198.5 189t239.5 63.5q146 0 230.5 -80t109.5 -211h4l133 688h62l-285 -1464h-61l51 262h-4q-72 -124 -189 -204.5t-262 -80.5q-126 0 -215 63q-90 64 -126 190q-19 66 -19 143q0 70 16 149zM113 522q-15 -78 -16 -145q0 -128 57 -214 q86 -132 266 -132q159 0 298 134.5t183 356.5q13 70 13 132q0 38 -5 74q-14 92 -55.5 155.5t-104.5 97t-139 33.5q-180 0 -316.5 -132.5t-180.5 -359.5z" />
<glyph unicode="e" horiz-adv-x="1021" d="M53 537q51 256 206 393t372 137q112 0 190.5 -40.5t116.5 -112.5q40 -71 50 -169q3 -29 3 -59q0 -73 -18 -154h-858l-4 -12q-13 -76 -13 -144v-10q1 -72 24.5 -133.5t62.5 -106.5t102.5 -70t144.5 -25q84 0 158 28t125 72.5t85.5 90.5t53.5 93h61q-65 -153 -191 -245.5 t-302 -92.5q-143 0 -238.5 74.5t-128.5 201.5q-17 65 -17 139q0 69 15 145zM125 586h797q10 61 10 120v6q0 62 -22 116.5t-57 95.5t-95 65.5t-137 24.5q-186 0 -321.5 -125.5t-174.5 -302.5z" />
<glyph unicode="f" horiz-adv-x="522" d="M82 0l194 999h-149l10 54h150l30 155q28 147 93 208t168 61q34 0 77 -11l-10 -53q-41 5 -76 5q-25 0 -47 -2q-51 -7 -88 -60.5t-59 -163.5l-27 -139h227l-10 -54h-227l-195 -999h-61z" />
<glyph unicode="g" horiz-adv-x="1062" d="M-35 -53h62q8 -104 93.5 -174t252.5 -70q361 0 430 356l49 256h-4q-67 -115 -187.5 -185.5t-257.5 -70.5q-87 0 -160 33.5t-124.5 100t-68.5 164.5q-8 42 -8 90q0 64 13 137q25 124 81 219.5t131 151.5t158.5 84t172.5 28q138 0 230 -70t114 -192h4l49 248h62l-195 -996 q-77 -407 -500 -407q-191 0 -295 85.5t-102 211.5zM117 584q-13 -70 -13 -130q0 -130 62 -216q92 -125 262 -125q70 0 142.5 28t138.5 81t117.5 142t72.5 199q12 65 12 121q0 42 -7 79q-16 85 -62.5 140.5t-108 83t-131.5 27.5q-66 0 -127 -15t-119 -48t-104 -82.5 t-81.5 -122t-53.5 -162.5z" />
<glyph unicode="h" horiz-adv-x="980" d="M2 0l285 1464h61l-117 -598h5q30 35 54.5 58.5t64.5 53t82 47t102.5 30t130.5 12.5q132 -1 208 -83q56 -60 56 -155q0 -35 -8 -75l-148 -754h-61l139 713q11 45 11 86q1 13 -1 27q-4 54 -24.5 96t-74 67t-136.5 25t-161 -29t-131.5 -73.5t-89 -93.5t-44.5 -93l-142 -725 h-61z" />
<glyph unicode="i" horiz-adv-x="317" d="M25 0l204 1053h62l-205 -1053h-61zM268 1354q4 23 22.5 36t37.5 13q21 0 34 -13t9 -36q-4 -22 -23 -35.5t-39 -13.5q-19 0 -32 13.5t-9 35.5z" />
<glyph unicode="j" horiz-adv-x="319" d="M-211 -328l10 54q56 -16 94 -16h3q38 1 62.5 33t39.5 107l233 1203h62l-232 -1186q-9 -47 -19.5 -80.5t-30 -66t-50.5 -49.5t-74 -17q-62 0 -98 18zM270 1354q4 23 22.5 36t37.5 13q21 0 34 -13t9 -36q-4 -22 -23 -35.5t-39 -13.5q-19 0 -32 13.5t-9 35.5z" />
<glyph unicode="k" horiz-adv-x="897" d="M2 0l285 1464h61l-192 -989l712 578h86l-499 -404l358 -649h-76l-334 608l-264 -215l-76 -393h-61z" />
<glyph unicode="l" horiz-adv-x="282" d="M8 0l285 1464h61l-284 -1464h-62z" />
<glyph unicode="m" horiz-adv-x="1572" d="M2 0l205 1053h61l-39 -191h4q34 43 62.5 71.5t76 63t109.5 52.5t137 18q118 0 179 -58t61 -165h4q40 54 75.5 90t84.5 68.5t111.5 48.5t140.5 16q150 -1 208 -89q38 -58 38 -146q0 -47 -11 -103l-141 -729h-61l133 688q14 73 14 129q0 71 -22 116q-40 81 -172 81 q-155 0 -269.5 -93t-136.5 -208l-139 -713h-62l133 688q14 69 14 123q0 79 -30 125q-50 78 -162 78q-77 0 -150.5 -30t-125.5 -75.5t-86 -97.5t-43 -98l-140 -713h-61z" />
<glyph unicode="n" horiz-adv-x="980" d="M2 0l205 1053h61l-37 -187h5q30 35 54.5 58.5t64.5 53t82 47t102.5 30t130.5 12.5q132 -1 208 -83q56 -60 56 -155q0 -35 -8 -75l-148 -754h-61l139 713q11 45 11 86q1 13 -1 27q-4 54 -24.5 96t-74 67t-136.5 25t-161 -29t-131.5 -73.5t-89 -93.5t-44.5 -93l-142 -725 h-61z" />
<glyph unicode="o" horiz-adv-x="1064" d="M51 522q48 247 206 396t380 149q221 0 323 -149q69 -101 69 -247q0 -69 -15 -149q-48 -247 -207 -396t-381 -149t-322 149q-68 101 -69 247q0 69 16 149zM102 325q12 -90 51 -155.5t111.5 -102t171.5 -36.5q197 0 335.5 136t180.5 355q14 72 14 136t-14 118 q-28 110 -111 174t-214 64q-197 0 -334.5 -136.5t-179.5 -355.5q-15 -69 -15 -132q0 -33 4 -65z" />
<glyph unicode="p" horiz-adv-x="1069" d="M-63 -340l270 1393h61l-53 -277h4q74 131 189.5 211t261.5 80q194 0 294 -147q68 -99 68 -246q0 -71 -16 -152q-50 -251 -206.5 -398t-350.5 -147q-144 0 -229.5 80t-110.5 205h-4l-117 -602h-61zM166 522q-15 -75 -15 -139q0 -128 58 -217q87 -135 246 -135 q180 0 317 132t182 359q15 77 15 142q0 130 -57 218q-87 132 -267 132q-159 0 -297.5 -135t-181.5 -357z" />
<glyph unicode="q" horiz-adv-x="1071" d="M51 522q32 167 117 292.5t198.5 189t239.5 63.5q146 0 230.5 -80t109.5 -211h4l54 277h61l-270 -1393h-62l117 602h-4q-72 -124 -189 -204.5t-262 -80.5q-126 0 -215 63.5t-126 189.5q-19 65 -19 143q0 70 16 149zM113 522q-15 -78 -15 -145q0 -127 56 -214 q86 -132 266 -132q159 0 298 134.5t183 356.5q13 70 13 132q0 39 -5 74q-14 92 -55.5 155.5t-104.5 97t-139 33.5q-180 0 -316.5 -132.5t-180.5 -359.5z" />
<glyph unicode="r" horiz-adv-x="598" d="M2 0l205 1053h61l-43 -211h4q56 96 156.5 160.5t206.5 64.5q46 0 76 -6l-11 -53h-4q-26 4 -52 4q-71 0 -143 -30q-98 -41 -172 -129t-96 -200l-127 -653h-61z" />
<glyph unicode="s" horiz-adv-x="905" d="M2 328h61q0 -93 53.5 -162t139 -102t190.5 -33t196.5 47.5t109.5 128.5q7 33 7 62t-4 52t-18 44.5t-27.5 37.5t-41 33.5t-50 29.5t-62 28t-70 27t-80.5 28q-57 19 -92.5 33.5t-79 40.5t-66.5 54q-22 29 -34 71q-8 26 -8 55q0 19 3 39q17 112 113 168.5t241 56.5 q160 0 264.5 -85.5t104.5 -209.5h-61q0 108 -91.5 175t-226.5 67q-44 0 -88 -9.5t-88 -29.5t-74.5 -58.5t-36.5 -89.5q-1 -10 -1 -20q1 -29 11 -54q14 -34 32 -54t65 -43.5t70 -32t85 -29.5q11 -4 17 -6q223 -76 299 -159q55 -60 55 -152q0 -35 -8 -76q-21 -104 -123.5 -164 t-243.5 -60q-193 0 -317.5 95t-124.5 256z" />
<glyph unicode="t" horiz-adv-x="540" d="M128 147q0 7 -1 14q0 41 12 95l146 743h-154l10 54h154l65 340h62l-66 -340h232l-10 -54h-232l-141 -727q-6 -30 -8.5 -46t-6 -42.5t-2 -40t5.5 -33t14 -29t25.5 -19.5t37.5 -12t53.5 0t70.5 9l-10 -53q-58 -12 -115 -12q-31 0 -55 7t-45.5 24t-30.5 46.5t-11 75.5z" />
<glyph unicode="u" horiz-adv-x="985" d="M51 299l148 754h61l-139 -713q-11 -44 -11 -86q0 -12 2 -26q4 -54 24 -96.5t73.5 -67.5t136.5 -25t161 29t131.5 73.5t89 93.5t44.5 93l141 725h62l-205 -1053h-61l36 186h-4q-38 -44 -71 -73t-85 -61.5t-122 -49t-156 -16.5q-131 0 -207 82q-56 60 -57 156q0 35 8 75z " />
<glyph unicode="v" horiz-adv-x="890" d="M106 1053h64l180 -971h2l559 971h64l-606 -1053h-68z" />
<glyph unicode="w" horiz-adv-x="1423" d="M113 1053h63l117 -977h2l469 977h84l90 -977h2l498 977h63l-536 -1053h-82l-92 973h-5l-464 -973h-82z" />
<glyph unicode="x" horiz-adv-x="948" d="M-88 0l524 539l-286 514h75l258 -471h4l443 471h76l-488 -514l318 -539h-78l-287 500h-4l-477 -500h-78z" />
<glyph unicode="y" horiz-adv-x="907" d="M-82 -326l10 54h4q38 -8 55.5 -10.5t50 -4.5t57.5 6.5t46 26.5q38 32 88.5 106.5t85.5 151.5l-211 1049h66l192 -965h3l555 965h65l-625 -1088q-35 -60 -55 -93t-48.5 -75t-50 -63.5t-49 -42.5t-57 -29t-63.5 -8q-61 0 -119 20z" />
<glyph unicode="z" horiz-adv-x="899" d="M-43 0l10 53l877 942v4h-660l11 54h737l-10 -54l-877 -942v-4h713l-10 -53h-791z" />
<glyph unicode="{" horiz-adv-x="540" d="M70 625l12 57q68 -2 124 50t77 155l63 323q17 85 36.5 142.5t52.5 103.5t82.5 68t119.5 22h22l-12 -57h-22q-100 0 -142 -62.5t-80 -255.5l-57 -297q-16 -84 -58.5 -135t-111.5 -84v-4q56 -33 78 -84.5t6 -136.5l-55 -287q-16 -80 -22 -130.5t-4.5 -91t15.5 -61.5 t39.5 -31.5t67.5 -10.5h23l-13 -58h-22q-56 0 -93 16t-56.5 43.5t-25 72.5t-1 94.5t17.5 117.5l62 314q19 102 -17.5 154.5t-105.5 52.5z" />
<glyph unicode="|" horiz-adv-x="26" d="M-156 -262l349 1786h65l-348 -1786h-66z" />
<glyph unicode="}" horiz-adv-x="536" d="M-74 -240l13 58h22q100 0 142.5 65.5t80.5 259.5l56 287q16 85 58.5 136.5t111.5 84.5v4q-56 33 -78 84t-6 135l57 297q16 80 22 130t4 89.5t-16.5 59.5t-40 29.5t-67.5 9.5h-23l12 57h23q92 0 135 -40t44 -115t-19 -181l-64 -323q-20 -102 17 -154.5t106 -50.5l-12 -57 q-69 0 -125.5 -52.5t-75.5 -154.5l-61 -314q-17 -86 -37 -144t-53 -106t-83 -71t-120 -23h-23z" />
<glyph unicode="~" horiz-adv-x="788" d="M88 596q22 86 74 135t123 49q43 0 84 -21t67.5 -45.5t61.5 -45.5t67 -21q43 0 75 34t46 91h66q-22 -85 -74.5 -133.5t-122.5 -48.5q-43 0 -84 21t-67.5 45.5t-62 45.5t-67.5 21q-86 0 -120 -127h-66z" />
<glyph unicode="&#xa1;" horiz-adv-x="401" d="M-18 -266l96 495l135 592h41l-94 -592l-97 -495h-81zM258 1145q6 29 28 45t46 16t39.5 -16t9.5 -45t-28 -45.5t-46 -16.5t-39.5 16.5t-9.5 45.5z" />
<glyph unicode="&#xa2;" horiz-adv-x="993" d="M53 563q45 235 189.5 365.5t355.5 138.5l29 143h65l-28 -145q78 -7 143 -42t106 -85.5t63.5 -109.5t22.5 -119h-61q0 45 -16 92.5t-48 93t-89.5 78t-131.5 39.5l-190 -981q85 0 158.5 30t122 78t79.5 100t45 105h62q-42 -155 -171.5 -261t-305.5 -106l-29 -151h-66 l31 156q-188 26 -284 190.5t-52 390.5zM113 557q-24 -120 0.5 -231.5t99 -191.5t186.5 -99l189 979q-190 -9 -314 -135t-161 -322z" />
<glyph unicode="&#xa3;" horiz-adv-x="1038" d="M-10 51q107 76 180.5 182.5t97.5 229.5q13 74 -4 168h-162l11 53h139q-2 6 -11 40t-11.5 43.5t-9.5 40.5t-9 45.5t-5 42.5t-2.5 48t2.5 45.5t7 50.5q13 66 53 131.5t104 123.5t161.5 94t211.5 36q90 0 161.5 -23t115.5 -63.5t71.5 -95t30.5 -118.5t-8 -134h-65 q35 177 -52.5 277t-263.5 100q-165 0 -296.5 -91.5t-162.5 -250.5q-7 -37 -8 -73t5.5 -73.5t12.5 -63.5t18 -69t17 -63h367l-10 -53h-344q17 -92 2 -168q-19 -100 -75 -195.5t-138 -163.5l2 -4q111 62 217 62q53 0 104.5 -20t85.5 -43.5t78 -43.5t84 -20q46 0 91.5 18 t74 38.5t76.5 60.5l29 -46q-37 -31 -58.5 -47t-59 -39t-77.5 -33t-86 -10q-52 0 -101 20t-81.5 43.5t-78 43.5t-91.5 20q-142 0 -312 -104z" />
<glyph unicode="&#xa4;" horiz-adv-x="720" d="M-98 309l149 131q-69 111 -37 265q28 154 138 264l-95 133l47 41l97 -131q129 94 270 94q143 0 231 -94l152 131l33 -41l-152 -133q63 -107 35 -264q-33 -159 -137 -263l100 -131l-49 -43l-98 131q-128 -96 -271 -96q-145 0 -233 94l-148 -129zM80 705 q-31 -161 41.5 -253t204.5 -92q131 0 239.5 92.5t139.5 252.5q31 161 -41 252.5t-203 91.5q-133 0 -241.5 -91.5t-139.5 -252.5z" />
<glyph unicode="&#xa5;" horiz-adv-x="1062" d="M25 295l10 57h418l36 185h-417l10 57h410l-320 811h72l297 -758h4l592 758h73l-637 -811h410l-10 -57h-418l-37 -185h418l-10 -57h-418l-57 -295h-66l57 295h-417z" />
<glyph unicode="&#xa6;" horiz-adv-x="32" d="M-195 -262l150 764h65l-149 -764h-66zM10 786l144 738h65l-143 -738h-66z" />
<glyph unicode="&#xa7;" horiz-adv-x="1105" d="M82 18h65q-10 -53 0 -100t35.5 -82t81 -55.5t135.5 -20.5q138 0 225 48t105 143q8 41 -1.5 77.5t-28.5 64t-57 58.5t-69 51.5t-83 52.5q-53 33 -80 50q-19 12 -58.5 37t-57 36.5t-50 34t-47 35.5t-38 35.5t-33 39.5t-22.5 41.5t-15.5 48t-2.5 53t6 61.5q25 123 115 198.5 t221 84.5q-56 51 -79 105t-9 124q22 110 125 179t280 69q94 0 161 -26.5t100.5 -72t45 -100t1.5 -117.5h-66q10 53 0 100t-35.5 82.5t-81 56t-135.5 20.5q-138 0 -224.5 -48t-104.5 -143q-8 -40 2 -77t27.5 -63t56.5 -58.5t67 -50.5t83 -52.5t83 -52.5q19 -12 59 -37.5 t57 -36.5t49.5 -33.5t47 -35.5t38 -35.5t33 -39.5t22 -41.5t15 -48t2.5 -53t-6 -61.5q-25 -123 -114.5 -198.5t-220.5 -84.5q56 -51 79 -105t9 -124q-22 -109 -125.5 -178.5t-280.5 -69.5q-94 0 -160.5 26.5t-100 71.5t-45 99.5t-1.5 117.5zM152.5 660.5q0.5 -29.5 10 -56 t23.5 -48t35 -42t44.5 -37.5t52 -35.5t57.5 -36.5q56 -34 84 -53t93.5 -61t96.5 -64q51 5 91 13t81 25t70.5 42t52.5 64.5t33 91.5q6 37 5.5 66.5t-10 56t-23.5 48t-35 42t-44.5 37.5t-52 35.5t-57.5 36.5q-18 11 -28.5 17.5t-26.5 16.5t-29 19q-29 20 -95 62t-96 63 q-64 -6 -113 -18.5t-95 -37.5t-76 -70.5t-43 -109.5q-6 -37 -5.5 -66.5z" />
<glyph unicode="&#xa8;" horiz-adv-x="1017" d="M444 1376q5 28 26 47t52 19t46 -19t10 -47q-6 -27 -28.5 -46t-53.5 -19t-44.5 18.5t-7.5 46.5zM762 1376q5 28 26 47t52 19t45.5 -19t9.5 -47q-6 -27 -28.5 -46t-53.5 -19t-44 18.5t-7 46.5z" />
<glyph unicode="&#xa9;" horiz-adv-x="1587" d="M92 729q31 160 109.5 299.5t192.5 242t266 161.5t323 59q220 0 370 -101.5t206 -274t14 -386.5q-31 -161 -111 -301.5t-194.5 -242.5t-265 -161t-316.5 -59q-227 0 -377.5 101.5t-204.5 273.5t-12 389zM158 729q-39 -204 9 -363t184.5 -251t344.5 -92q202 0 374.5 92 t285 252t151.5 362q40 201 -12 361t-188.5 252t-335.5 92q-154 0 -292.5 -53.5t-242 -148t-176 -223.5t-102.5 -280zM422 729q40 209 180.5 343t329.5 134q153 0 231.5 -78.5t75.5 -203.5h-63q0 97 -67 161t-189 64q-161 0 -279 -117t-154 -303q-36 -185 37 -300.5 t234 -115.5q136 0 230.5 74.5t129.5 196.5h62q-40 -151 -157.5 -239.5t-277.5 -88.5q-189 0 -276 132t-47 341z" />
<glyph unicode="&#xab;" horiz-adv-x="675" d="M61 522l15 82l323 246l-16 -82l-264 -203l-2 -4l186 -203l-16 -82zM340 522l14 82l324 246l-16 -82l-265 -203l-2 -4l187 -203l-17 -82z" />
<glyph unicode="&#xac;" horiz-adv-x="1056" d="M147 727l11 57h788l-92 -483h-66l82 426h-723z" />
<glyph unicode="&#xad;" horiz-adv-x="677" d="M57 494l11 57h548l-10 -57h-549z" />
<glyph unicode="&#xae;" horiz-adv-x="1034" d="M131 1028q40 213 186 341t359 128q98 0 184.5 -40.5t144.5 -108.5t83 -163t6 -198q-42 -214 -188 -341.5t-359 -127.5q-98 0 -184.5 40.5t-144 108t-82.5 163t-5 198.5zM197 1028q-19 -94 2.5 -179t71.5 -144.5t123 -94.5t155 -35q184 0 312.5 109.5t166.5 302.5 q18 93 -3 178t-70.5 145t-122.5 95t-156 35q-183 0 -312.5 -110.5t-166.5 -301.5zM377 750l104 530h224q74 0 111.5 -38.5t25.5 -106.5q-9 -50 -47.5 -85.5t-100.5 -48.5v-2q41 -9 56.5 -46t12 -77t-3 -76.5t14.5 -43.5l-2 -6h-61q-16 11 -18.5 39t1 59t2.5 60.5t-19.5 49 t-58.5 19.5h-131l-45 -227h-65zM498 1034h145q62 0 92 23t39 73q10 49 -11.5 71t-80.5 22h-147z" />
<glyph unicode="&#xaf;" horiz-adv-x="964" d="M399 1337l11 54h467l-11 -54h-467z" />
<glyph unicode="&#xb0;" horiz-adv-x="747" d="M188 1101.5q-1 42.5 5 84.5q11 53 40 106t73.5 98.5t110.5 74t142 28.5q60 0 108.5 -19t77 -50t47 -71t20 -82.5t-4.5 -84.5q-10 -53 -40 -106t-75.5 -98.5t-112 -74t-141.5 -28.5q-61 0 -109 19t-76 50t-46 71t-19 82.5zM254 1186q-22 -107 31 -176.5t166 -69.5 t192.5 69.5t101.5 176.5q21 107 -32 176.5t-166 69.5t-192.5 -69.5t-100.5 -176.5z" />
<glyph unicode="&#xb1;" horiz-adv-x="1062" d="M4 0l10 57h852l-10 -57h-852zM135 674l10 57h394l75 381h66l-76 -381h393l-10 -57h-393l-76 -389h-65l75 389h-393z" />
<glyph unicode="&#xb4;" horiz-adv-x="968" d="M559 1223l191 254h84l-216 -254h-59z" />
<glyph unicode="&#xb6;" horiz-adv-x="915" d="M164 1126q65 338 416 338h387l-285 -1464h-66l275 1407h-174l-275 -1407h-65l153 788h-81q-165 0 -242 81t-43 257z" />
<glyph unicode="&#xb7;" horiz-adv-x="268" d="M94 639q6 29 28 45t46 16t39.5 -16t9.5 -45t-28 -45t-46 -16t-39.5 16t-9.5 45z" />
<glyph unicode="&#xb8;" horiz-adv-x="999" d="M96 -317l27 34q68 -41 156 -41q65 0 107.5 23t51.5 68q7 41 -17 60t-79 19q-50 0 -100 -22l-19 31l176 139h66l-137 -103l-2 -4q94 20 140 -14.5t34 -101.5q-13 -68 -74 -105t-147 -37q-106 0 -183 54z" />
<glyph unicode="&#xbb;" horiz-adv-x="675" d="M12 276l17 82l264 203l2 4l-186 203l16 82l225 -246l-14 -82zM291 276l16 82l264 203l2 4l-186 203l16 82l226 -246l-15 -82z" />
<glyph unicode="&#xbf;" horiz-adv-x="974" d="M-14 68q11 58 40.5 106t73 83t82 59.5t87.5 51.5t71 42q103 72 146 156.5t79 275.5h66q-38 -199 -94.5 -301t-188.5 -195q-22 -16 -65 -41t-75 -45.5t-67 -49.5t-58 -67.5t-32 -85.5q-10 -53 6 -104.5t53.5 -93t102 -67t145.5 -25.5q162 0 282.5 105t152.5 273h65 q-17 -88 -59 -165t-105 -138.5t-152.5 -97t-193.5 -35.5q-172 0 -281.5 106t-80.5 253zM571 1143q6 29 28 45t46 16t39.5 -16t9.5 -45t-27.5 -45.5t-45.5 -16.5t-40 16.5t-10 45.5z" />
<glyph unicode="&#xc0;" d="M-86 0l846 1464h78l280 -1464h-65l-97 498h-688l-288 -498h-66zM301 555h645l-160 834h-4zM657 1888h84l93 -254h-60z" />
<glyph unicode="&#xc1;" d="M-86 0l846 1464h78l280 -1464h-65l-97 498h-688l-288 -498h-66zM301 555h645l-160 834h-4zM801 1634l190 254h84l-215 -254h-59z" />
<glyph unicode="&#xc2;" d="M-86 0l846 1464h78l280 -1464h-65l-97 498h-688l-288 -498h-66zM301 555h645l-160 834h-4zM610 1686l219 212h76l139 -212h-79l-103 165h-2l-168 -165h-82z" />
<glyph unicode="&#xc3;" d="M-86 0l846 1464h78l280 -1464h-65l-97 498h-688l-288 -498h-66zM301 555h645l-160 834h-4zM561 1696q20 79 63.5 120.5t104.5 41.5q38 0 74.5 -17t60 -37.5t53.5 -37.5t56 -17q67 0 96 109h61q-40 -162 -167 -162q-37 0 -73 17t-60 37t-54.5 37t-56.5 17q-67 0 -96 -108 h-62z" />
<glyph unicode="&#xc4;" d="M-86 0l846 1464h78l280 -1464h-65l-97 498h-688l-288 -498h-66zM301 555h645l-160 834h-4zM621 1788q5 28 25.5 46.5t51.5 18.5t46 -19t10 -46q-6 -28 -27.5 -47t-52.5 -19t-45 19.5t-8 46.5zM938 1788q5 28 26 46.5t52 18.5t45.5 -18.5t9.5 -46.5q-6 -28 -27.5 -47 t-52.5 -19t-45 19.5t-8 46.5z" />
<glyph unicode="&#xc5;" d="M-86 0l846 1464h78l280 -1464h-65l-97 498h-688l-288 -498h-66zM301 555h645l-160 834h-4zM676 1763q15 72 71 120t125 48q71 0 111 -48.5t25 -119.5q-13 -72 -70 -118t-129 -46q-70 0 -108 45.5t-25 118.5zM727 1763q-9 -52 14.5 -83t77.5 -31q55 0 90.5 31t44.5 83 q11 52 -13.5 84.5t-78.5 32.5t-89 -32t-46 -85z" />
<glyph unicode="&#xc6;" horiz-adv-x="1869" d="M-80 0l846 1464h1190l-10 -57h-846l-117 -600h774l-12 -57h-774l-135 -693h866l-10 -57h-932l96 498h-582l-288 -498h-66zM307 555h561l166 852h-235z" />
<glyph unicode="&#xc7;" horiz-adv-x="1349" d="M102 731q32 165 107 304.5t180.5 239.5t242.5 156t288 56q218 0 342.5 -126t119.5 -329h-65q6 172 -104.5 285t-303.5 113q-141 0 -266.5 -53.5t-219.5 -147.5t-160 -221.5t-95 -276.5q-39 -203 1 -360t159 -246.5t303 -89.5q107 0 207.5 38.5t177.5 104t134 149.5 t87 177h66q-72 -230 -257 -376.5t-411 -150.5l-115 -86l-2 -4q94 20 140 -14.5t34 -101.5q-13 -68 -74 -105t-147 -37q-105 0 -182 54l26 34q68 -41 156 -41q65 0 108 23.5t52 67.5q7 41 -17 60t-79 19q-51 0 -101 -22l-18 31l157 125q-184 11 -305 107t-164.5 262.5 t-1.5 381.5z" />
<glyph unicode="&#xc8;" horiz-adv-x="1181" d="M25 0l284 1464h963l-10 -57h-897l-117 -600h825l-12 -57h-825l-136 -693h918l-10 -57h-983zM659 1888h84l93 -254h-60z" />
<glyph unicode="&#xc9;" horiz-adv-x="1181" d="M25 0l284 1464h963l-10 -57h-897l-117 -600h825l-12 -57h-825l-136 -693h918l-10 -57h-983zM803 1634l190 254h84l-215 -254h-59z" />
<glyph unicode="&#xca;" horiz-adv-x="1181" d="M25 0l284 1464h963l-10 -57h-897l-117 -600h825l-12 -57h-825l-136 -693h918l-10 -57h-983zM612 1686l219 212h76l140 -212h-80l-103 165h-2l-168 -165h-82z" />
<glyph unicode="&#xcb;" horiz-adv-x="1181" d="M25 0l284 1464h963l-10 -57h-897l-117 -600h825l-12 -57h-825l-136 -693h918l-10 -57h-983zM623 1788q5 28 25.5 46.5t51.5 18.5t46 -19t10 -46q-6 -28 -27.5 -47t-52.5 -19t-45 19.5t-8 46.5zM940 1788q5 28 26 46.5t52 18.5t45.5 -18.5t9.5 -46.5q-6 -28 -27.5 -47 t-52.5 -19t-45 19.5t-8 46.5z" />
<glyph unicode="&#xcc;" horiz-adv-x="368" d="M63 0l285 1464h66l-285 -1464h-66zM240 1888h84l92 -254h-60z" />
<glyph unicode="&#xcd;" horiz-adv-x="337" d="M33 0l284 1464h66l-285 -1464h-65zM352 1634l191 254h84l-215 -254h-60z" />
<glyph unicode="&#xce;" horiz-adv-x="317" d="M27 0l284 1464h66l-285 -1464h-65zM156 1686l219 212h76l139 -212h-80l-102 165h-2l-168 -165h-82z" />
<glyph unicode="&#xcf;" horiz-adv-x="442" d="M84 0l285 1464h65l-284 -1464h-66zM227 1788q5 28 26 46.5t52 18.5t45.5 -18.5t9.5 -46.5q-6 -28 -27 -47t-52 -19t-45.5 19.5t-8.5 46.5zM545 1788q5 28 26 46.5t52 18.5t45.5 -18.5t9.5 -46.5q-6 -28 -27.5 -47t-52.5 -19t-45 19.5t-8 46.5z" />
<glyph unicode="&#xd0;" horiz-adv-x="1409" d="M37 729l12 57h215l131 678h525q104 0 186.5 -26.5t139 -75t93.5 -115t52 -149.5t12 -176.5t-23 -196.5q-31 -156 -93.5 -286.5t-156 -229.5t-224 -154t-285.5 -55h-510l141 729h-215zM182 57h447q264 0 445 178t241 490q32 155 20 281t-61 215t-142.5 137.5t-224.5 48.5 h-461l-120 -621h465l-13 -57h-465z" />
<glyph unicode="&#xd1;" horiz-adv-x="1345" d="M27 0l284 1464h82l668 -1372h4l266 1372h66l-285 -1464h-82l-668 1368h-4l-266 -1368h-65zM616 1696q20 79 63.5 120.5t104.5 41.5q38 0 74.5 -17t60 -37.5t53.5 -37.5t56 -17q67 0 96 109h62q-20 -80 -63.5 -121t-104.5 -41q-37 0 -73 17t-60 37t-54.5 37t-56.5 17 q-67 0 -96 -108h-62z" />
<glyph unicode="&#xd2;" horiz-adv-x="1468" d="M100 733q42 218 159 389.5t289.5 268t371.5 96.5q198 0 333.5 -96.5t186 -268t8.5 -389.5q-43 -218 -160 -390t-290 -269t-371 -97t-333.5 97t-186 269t-7.5 390zM156.5 447.5q22.5 -128.5 84.5 -220t164.5 -142t231.5 -50.5q172 0 327.5 86.5t266.5 246.5t151 365 q31 157 8.5 285.5t-85 220t-165 141.5t-231.5 50q-172 0 -327 -86t-266 -246t-150 -365q-32 -157 -9.5 -285.5zM774 1888h84l92 -254h-59z" />
<glyph unicode="&#xd3;" horiz-adv-x="1468" d="M100 733q42 218 159 389.5t289.5 268t371.5 96.5q198 0 333.5 -96.5t186 -268t8.5 -389.5q-43 -218 -160 -390t-290 -269t-371 -97t-333.5 97t-186 269t-7.5 390zM156.5 447.5q22.5 -128.5 84.5 -220t164.5 -142t231.5 -50.5q172 0 327.5 86.5t266.5 246.5t151 365 q31 157 8.5 285.5t-85 220t-165 141.5t-231.5 50q-172 0 -327 -86t-266 -246t-150 -365q-32 -157 -9.5 -285.5zM918 1634l190 254h84l-215 -254h-59z" />
<glyph unicode="&#xd4;" horiz-adv-x="1468" d="M100 733q42 218 159 389.5t289.5 268t371.5 96.5q198 0 333.5 -96.5t186 -268t8.5 -389.5q-43 -218 -160 -390t-290 -269t-371 -97t-333.5 97t-186 269t-7.5 390zM156.5 447.5q22.5 -128.5 84.5 -220t164.5 -142t231.5 -50.5q172 0 327.5 86.5t266.5 246.5t151 365 q31 157 8.5 285.5t-85 220t-165 141.5t-231.5 50q-172 0 -327 -86t-266 -246t-150 -365q-32 -157 -9.5 -285.5zM727 1686l219 212h76l139 -212h-80l-102 165h-2l-168 -165h-82z" />
<glyph unicode="&#xd5;" horiz-adv-x="1468" d="M100 733q42 218 159 389.5t289.5 268t371.5 96.5q198 0 333.5 -96.5t186 -268t8.5 -389.5q-43 -218 -160 -390t-290 -269t-371 -97t-333.5 97t-186 269t-7.5 390zM156.5 447.5q22.5 -128.5 84.5 -220t164.5 -142t231.5 -50.5q172 0 327.5 86.5t266.5 246.5t151 365 q31 157 8.5 285.5t-85 220t-165 141.5t-231.5 50q-172 0 -327 -86t-266 -246t-150 -365q-32 -157 -9.5 -285.5zM678 1696q20 79 63.5 120.5t104.5 41.5q38 0 74.5 -17t60 -37.5t53.5 -37.5t56 -17q67 0 96 109h61q-20 -80 -63.5 -121t-104.5 -41q-46 0 -90 27t-82 54t-71 27 q-68 0 -97 -108h-61z" />
<glyph unicode="&#xd6;" horiz-adv-x="1468" d="M100 733q42 218 159 389.5t289.5 268t371.5 96.5q198 0 333.5 -96.5t186 -268t8.5 -389.5q-43 -218 -160 -390t-290 -269t-371 -97t-333.5 97t-186 269t-7.5 390zM156.5 447.5q22.5 -128.5 84.5 -220t164.5 -142t231.5 -50.5q172 0 327.5 86.5t266.5 246.5t151 365 q31 157 8.5 285.5t-85 220t-165 141.5t-231.5 50q-172 0 -327 -86t-266 -246t-150 -365q-32 -157 -9.5 -285.5zM737 1788q5 28 26 46.5t52 18.5t45.5 -18.5t9.5 -46.5q-6 -28 -27 -47t-52 -19t-45.5 19.5t-8.5 46.5zM1055 1788q5 28 26 46.5t52 18.5t45.5 -18.5t9.5 -46.5 q-6 -28 -27.5 -47t-52.5 -19t-45 19.5t-8 46.5z" />
<glyph unicode="&#xd7;" horiz-adv-x="1034" d="M106 338l392 328l-265 327l52 43l264 -327l391 327l35 -43l-391 -327l264 -328l-51 -43l-265 328l-391 -328z" />
<glyph unicode="&#xd8;" horiz-adv-x="1507" d="M-33 53l205 178q-112 203 -53 502q42 218 158.5 389.5t289 268t371.5 96.5q147 0 259.5 -53t184.5 -152l199 174l37 -41l-207 -180q111 -202 55 -502q-43 -218 -160 -390t-290 -269t-371 -97q-147 0 -260 54t-182 153l-203 -174zM184 733q-52 -266 45 -452l1096 954 q-64 93 -166 144t-231 51q-172 0 -327.5 -86t-266.5 -246t-150 -365zM256 233q63 -96 165.5 -147t233.5 -51q172 0 327.5 86.5t267 246.5t151.5 365q52 267 -45 453z" />
<glyph unicode="&#xd9;" horiz-adv-x="1275" d="M104 508l187 956h65l-186 -956q-46 -239 45.5 -356t323.5 -117q463 0 553 473l186 956h65l-186 -956q-103 -531 -629 -531q-527 0 -424 531zM676 1888h84l92 -254h-59z" />
<glyph unicode="&#xda;" horiz-adv-x="1275" d="M104 508l187 956h65l-186 -956q-46 -239 45.5 -356t323.5 -117q463 0 553 473l186 956h65l-186 -956q-103 -531 -629 -531q-527 0 -424 531zM819 1634l191 254h84l-215 -254h-60z" />
<glyph unicode="&#xdb;" horiz-adv-x="1275" d="M104 508l187 956h65l-186 -956q-46 -239 45.5 -356t323.5 -117q463 0 553 473l186 956h65l-186 -956q-103 -531 -629 -531q-527 0 -424 531zM629 1686l219 212h76l139 -212h-80l-102 165h-2l-168 -165h-82z" />
<glyph unicode="&#xdc;" horiz-adv-x="1275" d="M104 508l187 956h65l-186 -956q-46 -239 45.5 -356t323.5 -117q463 0 553 473l186 956h65l-186 -956q-103 -531 -629 -531q-527 0 -424 531zM639 1788q5 28 26 46.5t52 18.5t45.5 -18.5t9.5 -46.5q-6 -28 -27.5 -47t-52.5 -19t-45 19.5t-8 46.5zM956 1788q5 28 26 46.5 t52 18.5t46 -19t10 -46q-6 -28 -27.5 -47t-52.5 -19t-45.5 19.5t-8.5 46.5z" />
<glyph unicode="&#xdd;" horiz-adv-x="1140" d="M166 1464h76l340 -792h4l651 792h76l-711 -864l-117 -600h-65l117 600zM741 1634l191 254h84l-215 -254h-60z" />
<glyph unicode="&#xde;" horiz-adv-x="1169" d="M27 0l284 1464h66l-43 -225h454q461 0 381 -416q-80 -415 -542 -415h-455l-80 -408h-65zM182 465h473q180 0 296.5 88t152.5 270t-46.5 270.5t-262.5 88.5h-473z" />
<glyph unicode="&#xdf;" horiz-adv-x="942" d="M2 0l209 1073q39 200 152.5 307t302.5 107q69 0 125 -19.5t96.5 -61.5t54 -106.5t-1.5 -154.5q-49 -249 -272 -332v-4q136 -43 193.5 -142.5t25.5 -269.5q-36 -182 -159.5 -301t-283.5 -119q-107 0 -178 29l10 53q121 -33 215 -22t163 63.5t111 127.5t60 169q12 76 7 134 t-31 101t-59.5 72t-78 47t-86.5 25.5t-85 7.5h-58l12 54h52q65 0 125 18t112 54t90 96.5t54 138.5q24 128 -34.5 208.5t-189.5 80.5q-173 0 -263 -103t-128 -299l-201 -1032h-61z" />
<glyph unicode="&#xe0;" horiz-adv-x="1007" d="M0 256q29 145 136 219t321 105q22 3 60.5 8t61.5 8.5t57 10.5t55 15t47 22t41.5 32t29.5 44.5t20 59.5q22 115 -44 174.5t-193 59.5q-155 0 -253.5 -68.5t-129.5 -189.5h-62q16 59 47 110.5t83.5 98.5t135.5 74.5t189 27.5q59 0 107 -10.5t88.5 -33.5t63 -60.5t31.5 -92 t-7 -127.5l-105 -532q-16 -82 -11 -110q12 -75 136 -50l-10 -53q-39 -8 -70 -8q-80 0 -106.5 41.5t-7.5 140.5h-4q-156 -195 -422 -195q-152 0 -231 76t-54 203zM66 274q-23 -121 40 -182t205 -61q91 0 170.5 28.5t132 73t85 93.5t42.5 96l60 311q-29 -46 -110 -68.5 t-224 -38.5q-82 -10 -145.5 -26.5t-118.5 -45t-90 -74t-47 -106.5zM453 1477h84l92 -254h-60z" />
<glyph unicode="&#xe1;" horiz-adv-x="1007" d="M0 256q29 145 136 219t321 105q22 3 60.5 8t61.5 8.5t57 10.5t55 15t47 22t41.5 32t29.5 44.5t20 59.5q22 115 -44 174.5t-193 59.5q-155 0 -253.5 -68.5t-129.5 -189.5h-62q16 59 47 110.5t83.5 98.5t135.5 74.5t189 27.5q59 0 107 -10.5t88.5 -33.5t63 -60.5t31.5 -92 t-7 -127.5l-105 -532q-16 -82 -11 -110q12 -75 136 -50l-10 -53q-39 -8 -70 -8q-80 0 -106.5 41.5t-7.5 140.5h-4q-156 -195 -422 -195q-152 0 -231 76t-54 203zM66 274q-23 -121 40 -182t205 -61q91 0 170.5 28.5t132 73t85 93.5t42.5 96l60 311q-29 -46 -110 -68.5 t-224 -38.5q-82 -10 -145.5 -26.5t-118.5 -45t-90 -74t-47 -106.5zM596 1223l190 254h84l-215 -254h-59z" />
<glyph unicode="&#xe2;" horiz-adv-x="1007" d="M0 256q29 145 136 219t321 105q22 3 60.5 8t61.5 8.5t57 10.5t55 15t47 22t41.5 32t29.5 44.5t20 59.5q22 115 -44 174.5t-193 59.5q-155 0 -253.5 -68.5t-129.5 -189.5h-62q16 59 47 110.5t83.5 98.5t135.5 74.5t189 27.5q59 0 107 -10.5t88.5 -33.5t63 -60.5t31.5 -92 t-7 -127.5l-105 -532q-16 -82 -11 -110q12 -75 136 -50l-10 -53q-39 -8 -70 -8q-80 0 -106.5 41.5t-7.5 140.5h-4q-156 -195 -422 -195q-152 0 -231 76t-54 203zM66 274q-23 -121 40 -182t205 -61q91 0 170.5 28.5t132 73t85 93.5t42.5 96l60 311q-29 -46 -110 -68.5 t-224 -38.5q-82 -10 -145.5 -26.5t-118.5 -45t-90 -74t-47 -106.5zM406 1274l219 213h75l140 -213h-80l-103 166h-2l-168 -166h-81z" />
<glyph unicode="&#xe3;" horiz-adv-x="1007" d="M0 256q29 145 136 219t321 105q22 3 60.5 8t61.5 8.5t57 10.5t55 15t47 22t41.5 32t29.5 44.5t20 59.5q22 115 -44 174.5t-193 59.5q-155 0 -253.5 -68.5t-129.5 -189.5h-62q16 59 47 110.5t83.5 98.5t135.5 74.5t189 27.5q59 0 107 -10.5t88.5 -33.5t63 -60.5t31.5 -92 t-7 -127.5l-105 -532q-16 -82 -11 -110q12 -75 136 -50l-10 -53q-39 -8 -70 -8q-80 0 -106.5 41.5t-7.5 140.5h-4q-156 -195 -422 -195q-152 0 -231 76t-54 203zM66 274q-23 -121 40 -182t205 -61q91 0 170.5 28.5t132 73t85 93.5t42.5 96l60 311q-29 -46 -110 -68.5 t-224 -38.5q-82 -10 -145.5 -26.5t-118.5 -45t-90 -74t-47 -106.5zM356 1284q20 79 63.5 120.5t104.5 41.5q38 0 74.5 -17t60 -37.5t53.5 -37.5t56 -17q67 0 96 109h62q-20 -80 -63.5 -121t-104.5 -41q-37 0 -73 17t-60 37.5t-54.5 37.5t-56.5 17q-67 0 -96 -109h-62z" />
<glyph unicode="&#xe4;" horiz-adv-x="1007" d="M0 256q29 145 136 219t321 105q22 3 60.5 8t61.5 8.5t57 10.5t55 15t47 22t41.5 32t29.5 44.5t20 59.5q22 115 -44 174.5t-193 59.5q-155 0 -253.5 -68.5t-129.5 -189.5h-62q16 59 47 110.5t83.5 98.5t135.5 74.5t189 27.5q59 0 107 -10.5t88.5 -33.5t63 -60.5t31.5 -92 t-7 -127.5l-105 -532q-16 -82 -11 -110q12 -75 136 -50l-10 -53q-39 -8 -70 -8q-80 0 -106.5 41.5t-7.5 140.5h-4q-156 -195 -422 -195q-152 0 -231 76t-54 203zM66 274q-23 -121 40 -182t205 -61q91 0 170.5 28.5t132 73t85 93.5t42.5 96l60 311q-29 -46 -110 -68.5 t-224 -38.5q-82 -10 -145.5 -26.5t-118.5 -45t-90 -74t-47 -106.5zM416 1376q5 28 26 47t52 19t45.5 -19t9.5 -47q-6 -27 -28.5 -46t-53.5 -19t-44 18.5t-7 46.5zM733 1376q5 28 26 47t52 19t45.5 -19t9.5 -47q-6 -27 -28.5 -46t-53.5 -19t-44 18.5t-7 46.5z" />
<glyph unicode="&#xe5;" horiz-adv-x="1007" d="M0 256q29 145 136 219t321 105q22 3 60.5 8t61.5 8.5t57 10.5t55 15t47 22t41.5 32t29.5 44.5t20 59.5q22 115 -44 174.5t-193 59.5q-155 0 -253.5 -68.5t-129.5 -189.5h-62q16 59 47 110.5t83.5 98.5t135.5 74.5t189 27.5q59 0 107 -10.5t88.5 -33.5t63 -60.5t31.5 -92 t-7 -127.5l-105 -532q-16 -82 -11 -110q12 -75 136 -50l-10 -53q-39 -8 -70 -8q-80 0 -106.5 41.5t-7.5 140.5h-4q-156 -195 -422 -195q-152 0 -231 76t-54 203zM66 274q-23 -121 40 -182t205 -61q91 0 170.5 28.5t132 73t85 93.5t42.5 96l60 311q-29 -46 -110 -68.5 t-224 -38.5q-82 -10 -145.5 -26.5t-118.5 -45t-90 -74t-47 -106.5zM471 1352q13 72 70.5 120t126.5 48q71 0 109.5 -48t25.5 -120t-70 -118t-129 -46q-70 0 -108 45.5t-25 118.5zM522 1352q-9 -53 13.5 -84t76.5 -31q55 0 92 31.5t46 83.5q11 52 -13.5 84t-79.5 32 q-54 0 -89 -31.5t-46 -84.5z" />
<glyph unicode="&#xe6;" horiz-adv-x="1744" d="M4 281q26 127 130 194.5t323 104.5q25 5 69 11t70.5 10.5t63 12.5t60 21t48 31.5t39.5 47.5t22 66q23 114 -47.5 174t-210.5 60q-295 0 -362 -258h-62q84 311 435 311q145 0 228.5 -63t80.5 -191q81 125 202 189.5t269 64.5q112 0 190.5 -40.5t117 -112t49 -169.5 t-14.5 -213h-858l-4 -12q-14 -81 -13 -153.5t24.5 -134t62.5 -106.5t102.5 -70t144.5 -25q84 0 158 28t125 72.5t85.5 90.5t53.5 93h62q-65 -153 -191.5 -245.5t-302.5 -92.5q-147 0 -243 77.5t-128 211.5q-50 -86 -115.5 -146.5t-134 -89.5t-127.5 -41t-120 -12 q-152 0 -230.5 83t-50.5 221zM66 274q-24 -120 39 -181.5t206 -61.5q151 0 280 96.5t150 194.5l60 311q-7 -11 -17 -20.5t-25.5 -17.5t-27.5 -14t-35.5 -12.5t-37.5 -10t-44.5 -9t-44.5 -7.5t-51 -8t-51 -8q-83 -13 -145.5 -31t-118.5 -47t-90.5 -72.5t-46.5 -101.5z M856 586h797q10 64 9.5 125.5t-22 116.5t-56.5 96t-95 65.5t-137 24.5q-186 0 -321.5 -125.5t-174.5 -302.5z" />
<glyph unicode="&#xe7;" horiz-adv-x="995" d="M53 563q47 242 198.5 373t371.5 131q88 0 161 -32.5t119 -84.5t71 -114.5t25 -126.5h-61q0 38 -10.5 78t-36 81.5t-61.5 73.5t-93 52t-125 20q-199 0 -330 -127t-169 -330q-14 -65 -10.5 -129t17.5 -122t45.5 -108.5t73 -87.5t99.5 -58t125 -21q85 0 158.5 30t122 78 t79.5 100t45 105h62q-42 -155 -171.5 -261t-305.5 -106h-7l-116 -86l-2 -4q94 20 140 -14.5t34 -101.5q-13 -68 -74 -105t-147 -37q-106 0 -183 54l27 34q68 -41 156 -41q65 0 107.5 23t51.5 68q7 41 -17 60t-79 19q-50 0 -100 -22l-19 31l158 129q-186 28 -279.5 191 t-50.5 388z" />
<glyph unicode="&#xe8;" horiz-adv-x="1021" d="M53 537q51 256 206 393t372 137q112 0 190.5 -40.5t117 -112t49 -169.5t-14.5 -213h-858l-4 -12q-14 -81 -13 -153.5t24.5 -134t62.5 -106.5t102.5 -70t144.5 -25q84 0 158 28t125 72.5t85.5 90.5t53.5 93h61q-65 -153 -191 -245.5t-302 -92.5q-143 0 -238.5 74.5 t-128.5 201.5t-2 284zM125 586h797q10 64 9.5 125.5t-22 116.5t-56.5 96t-95 65.5t-137 24.5q-186 0 -321.5 -125.5t-174.5 -302.5zM494 1477h84l92 -254h-60z" />
<glyph unicode="&#xe9;" horiz-adv-x="1021" d="M53 537q51 256 206 393t372 137q112 0 190.5 -40.5t117 -112t49 -169.5t-14.5 -213h-858l-4 -12q-14 -81 -13 -153.5t24.5 -134t62.5 -106.5t102.5 -70t144.5 -25q84 0 158 28t125 72.5t85.5 90.5t53.5 93h61q-65 -153 -191 -245.5t-302 -92.5q-143 0 -238.5 74.5 t-128.5 201.5t-2 284zM125 586h797q10 64 9.5 125.5t-22 116.5t-56.5 96t-95 65.5t-137 24.5q-186 0 -321.5 -125.5t-174.5 -302.5zM637 1223l190 254h84l-215 -254h-59z" />
<glyph unicode="&#xea;" horiz-adv-x="1021" d="M53 537q51 256 206 393t372 137q112 0 190.5 -40.5t117 -112t49 -169.5t-14.5 -213h-858l-4 -12q-14 -81 -13 -153.5t24.5 -134t62.5 -106.5t102.5 -70t144.5 -25q84 0 158 28t125 72.5t85.5 90.5t53.5 93h61q-65 -153 -191 -245.5t-302 -92.5q-143 0 -238.5 74.5 t-128.5 201.5t-2 284zM125 586h797q10 64 9.5 125.5t-22 116.5t-56.5 96t-95 65.5t-137 24.5q-186 0 -321.5 -125.5t-174.5 -302.5zM446 1274l220 213h75l140 -213h-80l-103 166h-2l-168 -166h-82z" />
<glyph unicode="&#xeb;" horiz-adv-x="1021" d="M53 537q51 256 206 393t372 137q112 0 190.5 -40.5t117 -112t49 -169.5t-14.5 -213h-858l-4 -12q-14 -81 -13 -153.5t24.5 -134t62.5 -106.5t102.5 -70t144.5 -25q84 0 158 28t125 72.5t85.5 90.5t53.5 93h61q-65 -153 -191 -245.5t-302 -92.5q-143 0 -238.5 74.5 t-128.5 201.5t-2 284zM125 586h797q10 64 9.5 125.5t-22 116.5t-56.5 96t-95 65.5t-137 24.5q-186 0 -321.5 -125.5t-174.5 -302.5zM457 1376q5 28 26 47t52 19t45.5 -19t9.5 -47q-6 -27 -28.5 -46t-53.5 -19t-44 18.5t-7 46.5zM774 1376q5 28 26 47t52 19t45.5 -19t9.5 -47 q-6 -27 -28.5 -46t-53.5 -19t-44 18.5t-7 46.5z" />
<glyph unicode="&#xec;" horiz-adv-x="305" d="M33 0l205 1053h61l-205 -1053h-61zM127 1477h84l92 -254h-59z" />
<glyph unicode="&#xed;" horiz-adv-x="331" d="M4 0l205 1053h61l-204 -1053h-62zM242 1223l190 254h84l-215 -254h-59z" />
<glyph unicode="&#xee;" horiz-adv-x="337" d="M41 0l205 1053h61l-205 -1053h-61zM88 1274l219 213h76l139 -213h-80l-102 166h-2l-168 -166h-82z" />
<glyph unicode="&#xef;" horiz-adv-x="442" d="M90 0l205 1053h61l-204 -1053h-62zM147 1376q5 28 26 47t52 19t46 -19t10 -47q-6 -27 -28.5 -46t-53.5 -19t-44.5 18.5t-7.5 46.5zM465 1376q5 28 26 47t52 19t45.5 -19t9.5 -47q-6 -27 -28.5 -46t-53.5 -19t-44 18.5t-7 46.5z" />
<glyph unicode="&#xf0;" horiz-adv-x="1075" d="M51 528q45 235 205 391t373 156q122 0 214 -58.5t130 -160.5q-5 188 -180 418l-349 -88l-4 55l314 80q-77 89 -144 143h88q69 -65 121 -127l346 88l4 -55l-311 -80q243 -317 162 -737q-33 -166 -113.5 -294.5t-204.5 -203.5t-274 -75q-144 0 -241 73.5t-131.5 197.5 t-4.5 277zM113 528q-26 -136 2 -247.5t112 -179.5t211 -68q197 0 335 144.5t181 365.5q26 136 -4.5 244.5t-116.5 171.5t-215 63q-126 0 -233.5 -67.5t-176 -178.5t-95.5 -248z" />
<glyph unicode="&#xf1;" horiz-adv-x="980" d="M2 0l205 1053h61l-37 -187h5q30 35 54.5 58.5t64.5 53t82 47t102.5 30t130.5 12.5q131 0 207.5 -82.5t48.5 -230.5l-148 -754h-61l139 713q14 59 9.5 113t-24.5 96t-73.5 67t-136.5 25t-161 -29t-131.5 -73.5t-89 -93.5t-44.5 -93l-142 -725h-61zM379 1284 q20 79 63.5 120.5t104.5 41.5q38 0 74.5 -17t60 -37.5t53.5 -37.5t56 -17q67 0 96 109h61q-20 -80 -63.5 -121t-104.5 -41q-37 0 -73 17t-59.5 37.5t-54 37.5t-56.5 17q-68 0 -97 -109h-61z" />
<glyph unicode="&#xf2;" horiz-adv-x="1064" d="M51 522q48 247 206 396t380 149t323.5 -149t53.5 -396t-207 -396t-381 -149t-322.5 149t-52.5 396zM102.5 325q12.5 -90 51 -155.5t111 -102t171.5 -36.5q197 0 335.5 136t180.5 355q28 143 0.5 253.5t-111 174.5t-214.5 64q-197 0 -334.5 -136.5t-179.5 -355.5 q-23 -107 -10.5 -197zM494 1477h84l92 -254h-60z" />
<glyph unicode="&#xf3;" horiz-adv-x="1064" d="M51 522q48 247 206 396t380 149t323.5 -149t53.5 -396t-207 -396t-381 -149t-322.5 149t-52.5 396zM102.5 325q12.5 -90 51 -155.5t111 -102t171.5 -36.5q197 0 335.5 136t180.5 355q28 143 0.5 253.5t-111 174.5t-214.5 64q-197 0 -334.5 -136.5t-179.5 -355.5 q-23 -107 -10.5 -197zM637 1223l190 254h84l-215 -254h-59z" />
<glyph unicode="&#xf4;" horiz-adv-x="1064" d="M51 522q48 247 206 396t380 149t323.5 -149t53.5 -396t-207 -396t-381 -149t-322.5 149t-52.5 396zM102.5 325q12.5 -90 51 -155.5t111 -102t171.5 -36.5q197 0 335.5 136t180.5 355q28 143 0.5 253.5t-111 174.5t-214.5 64q-197 0 -334.5 -136.5t-179.5 -355.5 q-23 -107 -10.5 -197zM446 1274l220 213h75l140 -213h-80l-103 166h-2l-168 -166h-82z" />
<glyph unicode="&#xf5;" horiz-adv-x="1064" d="M51 522q48 247 206 396t380 149t323.5 -149t53.5 -396t-207 -396t-381 -149t-322.5 149t-52.5 396zM102.5 325q12.5 -90 51 -155.5t111 -102t171.5 -36.5q197 0 335.5 136t180.5 355q28 143 0.5 253.5t-111 174.5t-214.5 64q-197 0 -334.5 -136.5t-179.5 -355.5 q-23 -107 -10.5 -197zM397 1284q20 79 63.5 120.5t104.5 41.5q38 0 74.5 -17t60 -37.5t53.5 -37.5t56 -17q67 0 96 109h62q-20 -80 -63.5 -121t-104.5 -41q-37 0 -73 17t-60 37.5t-54.5 37.5t-56.5 17q-67 0 -96 -109h-62z" />
<glyph unicode="&#xf6;" horiz-adv-x="1064" d="M51 522q48 247 206 396t380 149t323.5 -149t53.5 -396t-207 -396t-381 -149t-322.5 149t-52.5 396zM102.5 325q12.5 -90 51 -155.5t111 -102t171.5 -36.5q197 0 335.5 136t180.5 355q28 143 0.5 253.5t-111 174.5t-214.5 64q-197 0 -334.5 -136.5t-179.5 -355.5 q-23 -107 -10.5 -197zM457 1376q5 28 26 47t52 19t45.5 -19t9.5 -47q-6 -27 -28.5 -46t-53.5 -19t-44 18.5t-7 46.5zM774 1376q5 28 26 47t52 19t45.5 -19t9.5 -47q-6 -27 -28.5 -46t-53.5 -19t-44 18.5t-7 46.5z" />
<glyph unicode="&#xf7;" horiz-adv-x="1060" d="M125 641l10 57h852l-10 -57h-852zM424 346q12 64 82 64q33 0 48 -17t9 -47t-27.5 -46.5t-54.5 -16.5q-69 0 -57 63zM549 993q12 64 82 64q33 0 48 -17t9 -47t-27.5 -46.5t-54.5 -16.5q-69 0 -57 63z" />
<glyph unicode="&#xf8;" horiz-adv-x="1126" d="M-47 23l139 122q-87 149 -41 377q48 247 206 396t380 149q224 0 328 -154l172 152l34 -43l-180 -158q63 -142 23 -342q-48 -247 -207 -396t-381 -149q-199 0 -303 123l-137 -120zM113 522q-41 -202 28 -334l772 680q-84 146 -286 146q-197 0 -334.5 -136.5t-179.5 -355.5 zM172 143q86 -112 264 -112q197 0 335.5 136t180.5 355q34 168 -12 295z" />
<glyph unicode="&#xf9;" horiz-adv-x="985" d="M51 299l148 754h61l-139 -713q-14 -58 -9.5 -112.5t24.5 -96.5t73.5 -67t136.5 -25t161 29t131.5 73.5t89 93.5t44.5 93l141 725h62l-205 -1053h-61l36 186h-4q-38 -44 -71 -73t-85 -61.5t-122 -49t-156 -16.5q-131 0 -207.5 82.5t-48.5 230.5zM444 1477h84l93 -254h-60z " />
<glyph unicode="&#xfa;" horiz-adv-x="985" d="M51 299l148 754h61l-139 -713q-14 -58 -9.5 -112.5t24.5 -96.5t73.5 -67t136.5 -25t161 29t131.5 73.5t89 93.5t44.5 93l141 725h62l-205 -1053h-61l36 186h-4q-38 -44 -71 -73t-85 -61.5t-122 -49t-156 -16.5q-131 0 -207.5 82.5t-48.5 230.5zM588 1223l190 254h84 l-215 -254h-59z" />
<glyph unicode="&#xfb;" horiz-adv-x="985" d="M51 299l148 754h61l-139 -713q-14 -58 -9.5 -112.5t24.5 -96.5t73.5 -67t136.5 -25t161 29t131.5 73.5t89 93.5t44.5 93l141 725h62l-205 -1053h-61l36 186h-4q-38 -44 -71 -73t-85 -61.5t-122 -49t-156 -16.5q-131 0 -207.5 82.5t-48.5 230.5zM397 1274l219 213h76 l139 -213h-79l-103 166h-2l-168 -166h-82z" />
<glyph unicode="&#xfc;" horiz-adv-x="985" d="M51 299l148 754h61l-139 -713q-14 -58 -9.5 -112.5t24.5 -96.5t73.5 -67t136.5 -25t161 29t131.5 73.5t89 93.5t44.5 93l141 725h62l-205 -1053h-61l36 186h-4q-38 -44 -71 -73t-85 -61.5t-122 -49t-156 -16.5q-131 0 -207.5 82.5t-48.5 230.5zM408 1376q5 28 25.5 47 t51.5 19t46 -19t10 -47q-6 -27 -28.5 -46t-53.5 -19t-44 18.5t-7 46.5zM725 1376q5 28 26 47t52 19t45.5 -19t9.5 -47q-6 -27 -28.5 -46t-53.5 -19t-44 18.5t-7 46.5z" />
<glyph unicode="&#xfd;" horiz-adv-x="907" d="M-82 -326l10 54h4q38 -8 55.5 -10.5t50 -4.5t57.5 6.5t46 26.5q38 32 88.5 106.5t85.5 151.5l-211 1049h66l192 -965h3l555 965h65l-625 -1088q-35 -60 -55 -93t-48.5 -75t-50 -63.5t-49 -42.5t-57 -29t-63.5 -8q-61 0 -119 20zM547 1223l190 254h84l-215 -254h-59z" />
<glyph unicode="&#xfe;" horiz-adv-x="1069" d="M-63 -340l350 1804h61l-133 -688h4q74 131 189.5 211t261.5 80q194 0 294 -147t52 -398q-50 -251 -206.5 -398t-350.5 -147q-144 0 -229.5 80t-110.5 205h-4l-117 -602h-61zM166 522q-44 -222 43 -356.5t246 -134.5q180 0 317 132t182 359q44 227 -42.5 359.5 t-266.5 132.5q-159 0 -297.5 -135t-181.5 -357z" />
<glyph unicode="&#xff;" horiz-adv-x="907" d="M-82 -326l10 54h4q38 -8 55.5 -10.5t50 -4.5t57.5 6.5t46 26.5q38 32 88.5 106.5t85.5 151.5l-211 1049h66l192 -965h3l555 965h65l-625 -1088q-35 -60 -55 -93t-48.5 -75t-50 -63.5t-49 -42.5t-57 -29t-63.5 -8q-61 0 -119 20zM367 1376q5 28 25.5 47t51.5 19t46 -19 t10 -47q-6 -27 -28.5 -46t-53.5 -19t-44 18.5t-7 46.5zM684 1376q5 28 26 47t52 19t45.5 -19t9.5 -47q-6 -27 -28.5 -46t-53.5 -19t-44 18.5t-7 46.5z" />
<glyph unicode="&#x152;" horiz-adv-x="2150" d="M99.5 429q-18.5 139 15.5 304q31 163 102 303t167.5 239t216.5 155.5t247 56.5q175 0 291.5 -103.5t152.5 -283.5l72 364h883l-11 -57h-817l-116 -600h745l-12 -57h-746l-135 -693h838l-11 -57h-903l72 367q-107 -181 -264 -285.5t-332 -104.5q-126 0 -225 56.5 t-155.5 156.5t-75 239zM165.5 447.5q16.5 -128.5 69 -220t138.5 -142t192 -50.5t211.5 51t193.5 141t155.5 221.5t97.5 284.5q39 204 -0.5 364.5t-141 246.5t-243.5 86q-106 0 -211.5 -50.5t-194 -140.5t-156 -221.5t-96.5 -284.5q-31 -157 -14.5 -285.5z" />
<glyph unicode="&#x153;" horiz-adv-x="1918" d="M53 522q48 247 206 396t380 149q169 0 269.5 -89t119.5 -247q75 164 209.5 250t304.5 86q112 0 190.5 -40.5t117 -112t49 -169.5t-14.5 -213h-858l-4 -12q-14 -81 -13 -153.5t24.5 -134t62.5 -106.5t102.5 -70t144.5 -25q84 0 158 28t125 72.5t85.5 90.5t53.5 93h62 q-65 -153 -191.5 -245.5t-302.5 -92.5q-164 0 -263.5 95.5t-117.5 255.5q-76 -163 -213.5 -257t-310.5 -94q-222 0 -322.5 149t-52.5 396zM104.5 325q12.5 -90 51 -155.5t111 -102t171.5 -36.5q197 0 335.5 136t180.5 355q28 143 0.5 253.5t-111 174.5t-214.5 64 q-197 0 -334.5 -136.5t-179.5 -355.5q-23 -107 -10.5 -197zM1036 586h797q10 64 9.5 125.5t-22 116.5t-56.5 96t-95 65.5t-137 24.5q-186 0 -321.5 -125.5t-174.5 -302.5z" />
<glyph unicode="&#x178;" horiz-adv-x="1140" d="M166 1464h76l340 -792h4l651 792h76l-711 -864l-117 -600h-65l117 600zM561 1788q5 28 26 46.5t52 18.5t45.5 -18.5t9.5 -46.5q-6 -28 -27.5 -47t-52.5 -19t-45 19.5t-8 46.5zM879 1788q5 28 25.5 46.5t51.5 18.5t46 -19t10 -46q-6 -28 -27.5 -47t-52.5 -19t-45 19.5 t-8 46.5z" />
<glyph unicode="&#x2c6;" horiz-adv-x="937" d="M389 1274l219 213h76l139 -213h-80l-102 166h-2l-168 -166h-82z" />
<glyph unicode="&#x2dc;" horiz-adv-x="1005" d="M379 1284q20 79 63.5 120.5t104.5 41.5q38 0 74.5 -17t60 -37.5t53.5 -37.5t56 -17q67 0 96 109h61q-20 -80 -63.5 -121t-104.5 -41q-37 0 -73 17t-59.5 37.5t-54 37.5t-56.5 17q-68 0 -97 -109h-61z" />
<glyph unicode="&#x2000;" horiz-adv-x="965" />
<glyph unicode="&#x2001;" horiz-adv-x="1931" />
<glyph unicode="&#x2002;" horiz-adv-x="965" />
<glyph unicode="&#x2003;" horiz-adv-x="1931" />
<glyph unicode="&#x2004;" horiz-adv-x="643" />
<glyph unicode="&#x2005;" horiz-adv-x="482" />
<glyph unicode="&#x2006;" horiz-adv-x="321" />
<glyph unicode="&#x2007;" horiz-adv-x="321" />
<glyph unicode="&#x2008;" horiz-adv-x="241" />
<glyph unicode="&#x2009;" horiz-adv-x="386" />
<glyph unicode="&#x200a;" horiz-adv-x="107" />
<glyph unicode="&#x2010;" horiz-adv-x="677" d="M57 494l11 57h548l-10 -57h-549z" />
<glyph unicode="&#x2011;" horiz-adv-x="677" d="M57 494l11 57h548l-10 -57h-549z" />
<glyph unicode="&#x2012;" horiz-adv-x="677" d="M57 494l11 57h548l-10 -57h-549z" />
<glyph unicode="&#x2013;" horiz-adv-x="1187" d="M74 494l10 57h1024l-10 -57h-1024z" />
<glyph unicode="&#x2014;" horiz-adv-x="2045" d="M197 494l10 57h1638l-10 -57h-1638z" />
<glyph unicode="&#x2018;" horiz-adv-x="266" d="M228 1179.5q-10 26.5 1 84.5q5 24 12 47t24 59t47.5 64t70.5 39l-12 -58q-61 -27 -84 -139q29 9 46 -6.5t11 -52.5q-6 -30 -27 -47t-47 -17q-32 0 -42 26.5z" />
<glyph unicode="&#x2019;" horiz-adv-x="262" d="M184 1153l13 57q61 27 84 140q-29 -9 -46 6.5t-10 52.5q6 30 26 47t46 17q64 0 41 -111q-34 -175 -154 -209z" />
<glyph unicode="&#x201a;" horiz-adv-x="280" d="M-49 -205l10 58q69 30 84 139q-29 -9 -45.5 6.5t-9.5 52.5q6 30 25.5 47t45.5 17q64 0 41 -111q-3 -22 -10.5 -46.5t-23.5 -59.5t-46.5 -63t-70.5 -40z" />
<glyph unicode="&#x201c;" horiz-adv-x="524" d="M249 1179.5q-10 26.5 1 84.5q34 175 153 209l-12 -58q-61 -27 -84 -139q29 9 46.5 -6.5t11.5 -52.5q-6 -30 -27 -47t-47 -17q-32 0 -42 26.5zM499 1179.5q-10 26.5 1 84.5q34 175 153 209l-12 -58q-61 -27 -84 -139q29 9 46 -6.5t11 -52.5q-6 -30 -26.5 -47t-46.5 -17 q-32 0 -42 26.5z" />
<glyph unicode="&#x201d;" horiz-adv-x="503" d="M176 1153l12 57q61 27 84 140q-29 -9 -45.5 6.5t-9.5 52.5q6 30 26 47t46 17q64 0 41 -111q-34 -175 -154 -209zM426 1153l12 57q61 27 84 140q-29 -9 -45.5 6.5t-9.5 52.5q6 30 26 47t46 17q64 0 41 -111q-34 -175 -154 -209z" />
<glyph unicode="&#x201e;" horiz-adv-x="530" d="M-49 -205l10 58q69 30 84 139q-29 -9 -45.5 6.5t-9.5 52.5q6 30 25.5 47t45.5 17q64 0 41 -111q-3 -22 -10.5 -46.5t-23.5 -59.5t-46.5 -63t-70.5 -40zM201 -205l10 58q69 30 84 139q-29 -9 -45.5 6.5t-9.5 52.5q6 30 25.5 47t45.5 17q64 0 41 -111q-3 -22 -10.5 -46.5 t-23.5 -59.5t-46.5 -63t-70.5 -40z" />
<glyph unicode="&#x2022;" horiz-adv-x="417" d="M88 655q12 62 59.5 103t112.5 41t96 -41.5t19 -102.5q-11 -60 -58.5 -101.5t-111.5 -41.5t-96 41.5t-21 101.5z" />
<glyph unicode="&#x2026;" horiz-adv-x="854" d="M-12 53q6 29 27.5 45.5t45.5 16.5t40 -16.5t10 -45.5t-28 -45t-46 -16t-39.5 16t-9.5 45zM274 53q6 29 28 45.5t46 16.5t39.5 -16.5t9.5 -45.5t-27.5 -45t-45.5 -16t-40 16t-10 45zM561 53q6 29 28 45.5t46 16.5t39.5 -16.5t9.5 -45.5t-28 -45t-46 -16t-39.5 16t-9.5 45z " />
<glyph unicode="&#x202f;" horiz-adv-x="386" />
<glyph unicode="&#x2039;" horiz-adv-x="489" d="M98 514l17 82l329 246l-16 -82l-276 -203v-4l196 -203l-14 -82z" />
<glyph unicode="&#x203a;" horiz-adv-x="499" d="M63 268l15 82l278 203v4l-198 203l16 82l236 -246l-17 -82z" />
<glyph unicode="&#x205f;" horiz-adv-x="482" />
<glyph unicode="&#x20ac;" horiz-adv-x="1234" d="M66 549l12 57h129q2 29 14 96q5 27 23 97h-129l10 57h133q84 266 247.5 417.5t373.5 151.5q103 0 181 -35.5t122.5 -97.5t64.5 -141t15 -170h-66q4 59 -4.5 113.5t-31.5 105t-60 87.5t-95 59t-131 22q-186 0 -330.5 -137.5t-219.5 -374.5h503l-10 -57h-508 q-15 -57 -22 -97q-14 -75 -15 -96h508l-12 -57h-504q-19 -240 67 -377t271 -137q93 0 176.5 36t146 98.5t108 144t67.5 173.5h65q-68 -236 -214 -373t-353 -137q-210 0 -314.5 153t-84.5 419h-133z" />
<glyph unicode="&#x2122;" horiz-adv-x="1308" d="M221 1407l10 57h484l-10 -57h-209l-101 -508h-65l100 508h-209zM700 899l111 565h102l95 -495h2l286 495h103l-111 -565h-65l94 481h-4l-279 -481h-80l-90 481h-4l-94 -481h-66z" />
<glyph unicode="&#x25fc;" horiz-adv-x="1054" d="M0 0v1055h1055v-1055h-1055z" />
</font>
</defs>
</svg>
